<?xml version="1.0" standalone="no"?>
<!DOCTYPE svg PUBLIC "-//W3C//DTD SVG 1.1//EN" "http://www.w3.org/Graphics/SVG/1.1/DTD/svg11.dtd" >
<svg xmlns="http://www.w3.org/2000/svg">
<metadata></metadata>
<defs>
<font id="segoe_uibold" horiz-adv-x="1102" >
<font-face units-per-em="2048" ascent="1638" descent="-410" />
<missing-glyph horiz-adv-x="565" />
<glyph horiz-adv-x="2048" />
<glyph horiz-adv-x="2048" />
<glyph horiz-adv-x="682" />
<glyph unicode="&#xd;" horiz-adv-x="100" />
<glyph unicode=" "  horiz-adv-x="565" />
<glyph unicode="&#x09;" horiz-adv-x="565" />
<glyph unicode="&#xa0;" horiz-adv-x="565" />
<glyph unicode="!" horiz-adv-x="670" d="M152 143q0 72 52.5 118t131.5 46q80 0 131 -46.5t51 -117.5q0 -72 -50.5 -119t-131.5 -47q-80 0 -132 48.5t-52 117.5zM168 1434h332l-39 -988h-256z" />
<glyph unicode="&#x22;" horiz-adv-x="1010" d="M176 1452h262l-30 -442h-203zM571 1452h263l-31 -444h-201z" />
<glyph unicode="#" horiz-adv-x="1213" d="M37 461l37 180h188l53 248h-202l34 180h205l74 356h205l-74 -356h229l76 356h203l-74 -356h185l-39 -180h-185l-55 -248h207l-45 -180h-199l-78 -346h-200l73 346h-229l-74 -346h-200l71 346h-186zM463 641h231l56 248h-232z" />
<glyph unicode="$" horiz-adv-x="1178" d="M123 1038q0 157 111 267.5t294 128.5v186h146v-182q211 -10 315 -68v-270q-140 85 -315 104v-379q219 -79 314 -180.5t95 -245.5q0 -166 -106 -267.5t-303 -123.5v-217h-146v211q-203 1 -378 92v277q58 -47 173 -87t205 -46v364q-234 87 -319.5 188.5t-85.5 247.5z M389 1055q0 -103 139 -172v317q-139 -25 -139 -145zM674 242q143 22 143 143q0 98 -143 160v-303z" />
<glyph unicode="%" horiz-adv-x="1776" d="M90 1065q0 179 99.5 284t265.5 105q159 0 248.5 -95t89.5 -267q0 -177 -99 -281t-264 -104q-153 0 -246.5 97t-93.5 261zM299 0l932 1434h246l-934 -1434h-244zM303 1075q0 -192 139 -192q142 0 142 200q0 195 -135 195q-146 0 -146 -203zM983 338q0 179 99.5 284 t265.5 105q160 0 249 -94t89 -266q0 -177 -99 -282t-264 -105q-153 0 -246.5 97t-93.5 261zM1194 348q0 -192 141 -192q142 0 142 200q0 93 -38 144t-100 51q-145 0 -145 -203z" />
<glyph unicode="&#x26;" horiz-adv-x="1740" d="M75 416q0 85 30.5 151.5t79.5 116.5t111 86t126 60q-31 24 -62.5 55.5t-56.5 69t-40.5 81.5t-15.5 93q0 79 32 140t89.5 103t137.5 64t176 22q92 0 168.5 -23t131.5 -64t85 -98.5t30 -126.5q0 -111 -66.5 -192.5t-187.5 -132.5q48 -22 92 -50t86 -64t82 -81.5t79 -104.5 q82 103 117.5 219.5t35.5 242.5q0 38 -4.5 73t-14.5 65h269q11 -32 16 -62t5 -71q0 -97 -20.5 -189t-57.5 -176t-89.5 -159t-115.5 -140q49 -51 101 -78.5t98 -27.5q48 0 98 10.5t87 29.5v-238q-55 -22 -108.5 -32.5t-119.5 -10.5q-53 0 -100.5 14t-90 38t-80.5 56.5 t-72 69.5q-37 -30 -89 -62t-117.5 -57.5t-144.5 -42t-169 -16.5q-117 0 -216.5 28t-171.5 83.5t-112.5 137.5t-40.5 190zM395 429q0 -48 17 -87t48.5 -67t75 -43.5t96.5 -15.5q59 0 111 11.5t98 30.5t85.5 44t72.5 52q-51 80 -101 135.5t-99 95t-97.5 66.5t-97.5 49 q-41 -20 -78.5 -44.5t-66.5 -57t-46.5 -74t-17.5 -95.5zM531 1119q0 -56 35 -103t87 -76q33 12 62.5 28t52 38t36 51t13.5 67q0 29 -11 52t-30 38.5t-43 24t-51 8.5q-33 0 -60.5 -10t-48 -27t-31.5 -40.5t-11 -50.5z" />
<glyph unicode="'" horiz-adv-x="600" d="M170 1452h260l-31 -442h-200z" />
<glyph unicode="(" horiz-adv-x="756" d="M158 549q0 501 323 885h256q-303 -402 -303 -885t305 -875h-258q-323 356 -323 875z" />
<glyph unicode=")" horiz-adv-x="756" d="M18 -326q306 390 306 875q0 481 -306 885h258q324 -385 324 -885q0 -515 -326 -875h-256z" />
<glyph unicode="*" horiz-adv-x="932" d="M70 1053l71 202l252 -108l-43 287h234l-43 -287l250 108l73 -202l-274 -37l196 -211l-182 -125l-137 254l-137 -254l-183 125l197 211z" />
<glyph unicode="+" horiz-adv-x="1448" d="M238 485v203h387v387h202v-387h385v-203h-385v-385h-202v385h-387z" />
<glyph unicode="," horiz-adv-x="555" d="M39 -254l102 506h291l-147 -506h-246z" />
<glyph unicode="-" horiz-adv-x="828" d="M143 436v221h547v-221h-547z" />
<glyph unicode="." horiz-adv-x="555" d="M92 141q0 72 53.5 118t133.5 46q81 0 132.5 -46.5t51.5 -117.5q0 -73 -52.5 -119.5t-136.5 -46.5q-78 0 -130 48t-52 118z" />
<glyph unicode="/" horiz-adv-x="908" d="M-49 -238l696 1672h285l-699 -1672h-282z" />
<glyph unicode="0" horiz-adv-x="1178" d="M70 694q0 373 138.5 568.5t401.5 195.5q500 0 500 -731q0 -364 -136.5 -558t-391.5 -194q-512 0 -512 719zM391 702q0 -485 201 -485q196 0 196 500t-192 500q-205 0 -205 -515z" />
<glyph unicode="1" horiz-adv-x="1178" d="M162 1077v256l620 125v-1208h295v-250h-907v250h297v893z" />
<glyph unicode="2" horiz-adv-x="1178" d="M109 0v246l411 393q124 119 174.5 199.5t50.5 169.5q0 198 -213 198q-185 0 -354 -147v278q187 121 422 121q220 0 343.5 -110.5t123.5 -298.5q0 -251 -301 -519l-295 -262v-6h582v-262h-944z" />
<glyph unicode="3" horiz-adv-x="1178" d="M147 47v275q144 -105 336 -105q121 0 188.5 52t67.5 145q0 96 -83.5 148t-229.5 52h-129v242h119q280 0 280 186q0 175 -215 175q-144 0 -280 -93v258q151 76 352 76q220 0 342.5 -99t122.5 -257q0 -281 -285 -352v-5q152 -19 240 -110.5t88 -224.5q0 -201 -147 -318 t-406 -117q-222 0 -361 72z" />
<glyph unicode="4" horiz-adv-x="1178" d="M39 305v201l602 928h311v-904h172v-225h-172v-305h-288v305h-625zM301 530h363v451q0 60 4 137h-6q-14 -36 -54 -112z" />
<glyph unicode="5" horiz-adv-x="1178" d="M164 37v270q147 -90 313 -90q125 0 195.5 59.5t70.5 161.5q0 213 -301 213q-98 0 -237 -18v801h794v-258h-524v-287q63 6 119 6q221 0 346 -116t125 -312q0 -217 -149 -354.5t-404 -137.5q-207 0 -348 62z" />
<glyph unicode="6" horiz-adv-x="1178" d="M100 641q0 372 175 594.5t475 222.5q166 0 258 -39v-264q-109 62 -238 62q-159 0 -256.5 -121.5t-101.5 -325.5h6q103 152 301 152q180 0 285.5 -122t105.5 -323q0 -216 -140 -359t-356 -143q-242 0 -378 175t-136 491zM422 471q0 -105 52.5 -179.5t139.5 -74.5 q85 0 136 66.5t51 173.5q0 231 -189 231q-87 0 -138.5 -61t-51.5 -156z" />
<glyph unicode="7" horiz-adv-x="1178" d="M96 1176v258h998v-146l-506 -1288h-334l510 1176h-668z" />
<glyph unicode="8" horiz-adv-x="1178" d="M82 367q0 257 289 378v5q-246 101 -246 327q0 166 132 273.5t341 107.5q213 0 340 -100.5t127 -259.5q0 -235 -272 -346v-4q146 -43 226.5 -141.5t80.5 -221.5q0 -190 -140.5 -300t-392.5 -110q-218 0 -351.5 107.5t-133.5 284.5zM381 383q0 -78 61.5 -129t149.5 -51 q95 0 153 50t58 132q0 164 -221 240q-201 -79 -201 -242zM424 1069q0 -134 172 -203q172 71 172 205q0 73 -46.5 116.5t-123.5 43.5q-75 0 -124.5 -45.5t-49.5 -116.5z" />
<glyph unicode="9" horiz-adv-x="1178" d="M78 952q0 229 141 367.5t365 138.5q230 0 366.5 -174t136.5 -498q0 -384 -164.5 -597.5t-459.5 -213.5q-175 0 -303 56v260q113 -74 272 -74q166 0 256.5 112.5t91.5 319.5l-6 2q-95 -141 -289 -141q-176 0 -291.5 123t-115.5 319zM387 979q0 -109 52.5 -171.5 t142.5 -62.5q82 0 134 59.5t52 149.5q0 113 -54.5 188t-138.5 75q-82 0 -135 -66.5t-53 -171.5z" />
<glyph unicode=":" horiz-adv-x="555" d="M92 141q0 72 53.5 118t133.5 46q81 0 132.5 -46.5t51.5 -117.5q0 -73 -52.5 -119.5t-136.5 -46.5q-78 0 -130 48t-52 118zM92 872q0 72 53.5 118t133.5 46q81 0 132.5 -46.5t51.5 -117.5q0 -73 -52.5 -119t-136.5 -46q-78 0 -130 47.5t-52 117.5z" />
<glyph unicode=";" horiz-adv-x="555" d="M39 -254l102 506h291l-147 -506h-246zM98 872q0 73 52.5 118.5t132.5 45.5q81 0 132.5 -46.5t51.5 -117.5q0 -73 -51 -119t-135 -46q-79 0 -131 48t-52 117z" />
<glyph unicode="&#x3c;" horiz-adv-x="1448" d="M258 489v162l934 447v-238l-666 -285v-6l666 -268v-238z" />
<glyph unicode="=" horiz-adv-x="1448" d="M238 266v203h974v-203h-974zM238 700v205h974v-205h-974z" />
<glyph unicode="&#x3e;" horiz-adv-x="1448" d="M258 76v237l668 267v4l-668 286v238l934 -444v-162z" />
<glyph unicode="?" horiz-adv-x="897" d="M62 1065v301q77 46 168 69t188 23q93 0 173 -20.5t139.5 -64.5t93 -112.5t33.5 -164.5q0 -61 -14 -110.5t-41 -93.5t-67 -84.5t-92 -83.5q-35 -29 -61.5 -54t-44 -49.5t-26.5 -52t-9 -62.5q0 -24 6.5 -49t17.5 -42h-263q-10 26 -15.5 58.5t-5.5 61.5q0 46 9 84t27 71.5 t45 64t63 60.5q38 32 66.5 59.5t48.5 55t30 57t10 65.5q0 31 -11 57.5t-31.5 45.5t-50 30t-65.5 11q-78 0 -162 -32.5t-159 -98.5zM223 143q0 70 53 117t133 47q79 0 131 -47q52 -46 52 -117q0 -72 -51 -119q-52 -47 -132 -47t-133 48q-53 50 -53 118z" />
<glyph unicode="@" horiz-adv-x="1954" d="M135 592q0 364 247 612t636 248q360 0 582.5 -192.5t222.5 -507.5q0 -259 -136 -415.5t-337 -156.5q-99 0 -161 53t-67 138h-6q-70 -191 -254 -191q-138 0 -222.5 100t-84.5 277q0 229 117 372.5t282 143.5q149 0 187 -117h4l10 99h225q-45 -426 -45 -557q0 -140 76 -140 q80 0 132 106t52 277q0 234 -149 383.5t-416 149.5q-286 0 -475.5 -199.5t-189.5 -486.5q0 -278 167.5 -438t462.5 -160q225 0 412 86v-191q-171 -73 -440 -73q-369 0 -600.5 211.5t-231.5 568.5zM786 559q0 -96 38.5 -149.5t99.5 -53.5q94 0 148 101t54 270q0 80 -37.5 126 t-99.5 46q-90 0 -146.5 -102.5t-56.5 -237.5z" />
<glyph unicode="A" horiz-adv-x="1440" d="M10 0l522 1434h383l510 -1434h-352l-102 319h-510l-101 -319h-350zM530 567h367l-154 482q-17 54 -24 129h-8q-5 -63 -25 -125z" />
<glyph unicode="B" horiz-adv-x="1313" d="M164 0v1434h522q240 0 369 -88t129 -248q0 -116 -78.5 -203t-200.5 -121v-4q153 -19 244.5 -113t91.5 -229q0 -197 -141 -312.5t-385 -115.5h-551zM487 238h175q112 0 175.5 52t63.5 142q0 86 -62.5 135t-174.5 49h-177v-378zM487 856h142q100 0 157.5 48.5t57.5 133.5 q0 158 -236 158h-121v-340z" />
<glyph unicode="C" horiz-adv-x="1278" d="M74 686q0 344 212.5 558t551.5 214q210 0 354 -53v-311q-144 86 -328 86q-202 0 -326 -127t-124 -344q0 -208 117 -331.5t315 -123.5q189 0 346 92v-295q-157 -76 -410 -76q-330 0 -519 194t-189 517z" />
<glyph unicode="D" horiz-adv-x="1510" d="M164 0v1434h508q764 0 764 -699q0 -335 -208.5 -535t-555.5 -200h-508zM487 262h160q210 0 329.5 126t119.5 343q0 205 -118.5 322.5t-332.5 117.5h-158v-909z" />
<glyph unicode="E" horiz-adv-x="1090" d="M164 0v1434h827v-263h-504v-319h469v-262h-469v-328h537v-262h-860z" />
<glyph unicode="F" horiz-adv-x="1065" d="M164 0v1434h829v-263h-506v-352h465v-262h-465v-557h-323z" />
<glyph unicode="G" horiz-adv-x="1456" d="M74 694q0 338 218 551t580 213q228 0 402 -63v-303q-166 96 -406 96q-201 0 -327.5 -130.5t-126.5 -348.5q0 -221 113.5 -342t306.5 -121q116 0 184 33v280h-287v258h610v-721q-210 -121 -522 -121q-346 0 -545.5 191.5t-199.5 527.5z" />
<glyph unicode="H" horiz-adv-x="1569" d="M164 0v1434h323v-572h594v572h324v-1434h-324v584h-594v-584h-323z" />
<glyph unicode="I" horiz-adv-x="649" d="M44 0v250h120v934h-120v250h563v-250h-120v-934h120v-250h-563z" />
<glyph unicode="J" horiz-adv-x="912" d="M33 14v303q83 -63 186 -63q221 0 221 328v852h322v-865q0 -288 -133.5 -441t-386.5 -153q-113 0 -209 39z" />
<glyph unicode="K" horiz-adv-x="1329" d="M164 0v1434h323v-678h5q12 28 40 80l396 598h385l-500 -684l543 -750h-408l-418 623q-12 18 -38 79h-5v-702h-323z" />
<glyph unicode="L" horiz-adv-x="1047" d="M164 0v1434h323v-1172h531v-262h-854z" />
<glyph unicode="M" horiz-adv-x="1960" d="M164 0v1434h473l293 -850q35 -102 51 -205h6q27 119 57 207l293 848h461v-1434h-319v858q0 139 12 307h-8q-25 -132 -45 -190l-336 -975h-264l-342 965q-14 39 -45 200h-9q13 -212 13 -372v-793h-291z" />
<glyph unicode="N" horiz-adv-x="1618" d="M164 0v1434h348l569 -873q39 -59 72 -117h4q-8 50 -8 197v793h305v-1434h-326l-591 901q-52 79 -72 119h-4q8 -76 8 -232v-788h-305z" />
<glyph unicode="O" horiz-adv-x="1553" d="M74 698q0 340 197 550t522 210q307 0 496.5 -201t189.5 -530q0 -338 -196.5 -545t-512.5 -207q-308 0 -502 200.5t-194 522.5zM414 715q0 -213 100 -337t262 -124q167 0 265 120.5t98 334.5q0 223 -95 347t-260 124q-170 0 -270 -127.5t-100 -337.5z" />
<glyph unicode="P" horiz-adv-x="1258" d="M164 0v1434h506q542 0 542 -457q0 -216 -155.5 -349.5t-415.5 -133.5h-154v-494h-323zM487 739h127q258 0 258 226q0 221 -258 221h-127v-447z" />
<glyph unicode="Q" horiz-adv-x="1553" d="M74 698q0 341 196 550q197 210 525 210q305 0 494 -202q190 -200 190 -529q0 -257 -116 -442q-116 -183 -323 -258q52 -56 99 -92t94.5 -57t97.5 -29t109 -8q16 0 35 1.5t38.5 5t37.5 8t33 10.5v-272q-32 -9 -88.5 -18t-137.5 -9q-98 0 -180.5 32t-158 87.5t-147 130.5 t-148.5 161q-147 4 -267 61t-205 153.5t-131.5 226.5t-46.5 279zM414 715q0 -212 99 -337q100 -124 263 -124q168 0 265 120q98 122 98 335q0 221 -94 345q-94 126 -261 126q-169 0 -270 -128q-100 -127 -100 -337z" />
<glyph unicode="R" horiz-adv-x="1337" d="M164 0v1434h512q522 0 522 -390q0 -75 -23 -138.5t-65 -114.5t-101.5 -88t-132.5 -58v-4q32 -10 62 -32.5t58 -52.5t53.5 -64.5t46.5 -67.5l271 -424h-371l-223 369q-25 42 -48 75t-46.5 56.5t-49 36t-55.5 12.5h-87v-549h-323zM487 793h140q104 0 167 60q64 61 64 151 q0 188 -225 188h-146v-399z" />
<glyph unicode="S" horiz-adv-x="1148" d="M92 1032q0 112 45 192.5t122.5 132.5t179.5 76.5t216 24.5q112 0 198.5 -13.5t159.5 -41.5v-299q-36 25 -78.5 44t-87.5 31.5t-89.5 18.5t-84.5 6q-55 0 -100 -10.5t-76 -29.5t-48 -45.5t-17 -59.5q0 -36 19 -64.5t54 -54t85 -50t113 -50.5q86 -36 154.5 -76.5 t117.5 -91.5t75 -116.5t26 -152.5q0 -120 -45.5 -201.5t-123.5 -132t-181.5 -72.5t-218.5 -22q-118 0 -224.5 20t-184.5 60v320q87 -73 189 -109.5t206 -36.5q61 0 106.5 11t76 30.5t45.5 46t15 57.5q0 42 -24 75t-65.5 61t-98.5 54t-123 53q-168 70 -250.5 171t-82.5 244z " />
<glyph unicode="T" horiz-adv-x="1200" d="M31 1171v263h1140v-263h-409v-1171h-324v1171h-407z" />
<glyph unicode="U" horiz-adv-x="1481" d="M147 606v828h324v-832q0 -348 272 -348q267 0 267 336v844h323v-813q0 -646 -602 -646q-584 0 -584 631z" />
<glyph unicode="V" horiz-adv-x="1366" d="M10 1434h348l299 -998q24 -81 29 -143h6q7 67 31 147l297 994h338l-494 -1434h-366z" />
<glyph unicode="W" horiz-adv-x="2058" d="M18 1434h353l202 -955q13 -61 19 -164h6q4 77 29 168l260 951h346l235 -963q13 -53 23 -154h4q4 79 21 160l198 957h326l-379 -1434h-358l-238 920q-19 72 -23 161h-4q-9 -98 -26 -161l-244 -920h-373z" />
<glyph unicode="X" horiz-adv-x="1342" d="M6 0l457 717l-418 717h393l205 -430q24 -51 43 -121h4q12 42 45 125l228 426h360l-430 -711l442 -723h-383l-247 467q-14 26 -29 96h-4q-7 -33 -33 -100l-248 -463h-385z" />
<glyph unicode="Y" horiz-adv-x="1243" d="M0 1434h369l231 -535q6 -15 33 -117h4q13 72 31 113l235 539h342l-467 -924v-510h-323v504z" />
<glyph unicode="Z" horiz-adv-x="1243" d="M41 0v186l735 985h-682v263h1100v-181l-719 -991h721v-262h-1155z" />
<glyph unicode="[" horiz-adv-x="756" d="M217 -326v1760h469v-201h-209v-1358h209v-201h-469z" />
<glyph unicode="\" horiz-adv-x="893" d="M0 1434h281l680 -1672h-279z" />
<glyph unicode="]" horiz-adv-x="756" d="M70 -125h211v1358h-211v201h471v-1760h-471v201z" />
<glyph unicode="^" horiz-adv-x="1448" d="M203 610l430 848h162l454 -848h-243l-287 586h-4l-271 -586h-241z" />
<glyph unicode="_" horiz-adv-x="850" d="M0 -178h850v-119h-850v119z" />
<glyph unicode="`" horiz-adv-x="643" d="M55 1509h281l260 -323h-227z" />
<glyph unicode="a" d="M57 285q0 298 353 344l278 37q0 168 -182 168q-183 0 -348 -109v238q66 34 180.5 60t208.5 26q438 0 438 -437v-612h-299v147h-4q-103 -172 -305 -172q-149 0 -234.5 84.5t-85.5 225.5zM348 322q0 -54 37.5 -88.5t101.5 -34.5q89 0 145 61.5t56 155.5v69l-186 -24 q-154 -20 -154 -139z" />
<glyph unicode="b" horiz-adv-x="1270" d="M133 0v1516h316v-646h4q117 179 333 179q198 0 305 -136t107 -372q0 -256 -125 -411t-334 -155q-189 0 -286 144h-4v-119h-316zM444 446q0 -99 57 -164t146 -65q108 0 167.5 83.5t59.5 236.5q0 127 -54.5 198.5t-155.5 71.5q-95 0 -157.5 -71t-62.5 -185v-105z" />
<glyph unicode="c" horiz-adv-x="983" d="M72 487q0 261 156.5 411.5t418.5 150.5q181 0 262 -48v-268q-99 74 -221 74q-136 0 -215.5 -79.5t-79.5 -219.5q0 -136 76 -213.5t209 -77.5q118 0 231 74v-254q-107 -62 -309 -62q-236 0 -382 143t-146 369z" />
<glyph unicode="d" horiz-adv-x="1268" d="M72 489q0 254 129 407t338 153q198 0 276 -142h4v609h316v-1516h-316v141h-4q-108 -166 -317 -166q-192 0 -309 135.5t-117 378.5zM393 498q0 -135 57 -208t158 -73q96 0 156.5 77t60.5 204v77q0 100 -58 166t-151 66q-105 0 -164 -82.5t-59 -226.5z" />
<glyph unicode="e" horiz-adv-x="1108" d="M72 496q0 255 148 404t364 149q224 0 346.5 -133t122.5 -361v-133h-668q16 -223 281 -223q169 0 297 80v-228q-142 -76 -369 -76q-248 0 -385 137.5t-137 383.5zM383 616h377q0 220 -178 220q-76 0 -131.5 -63t-67.5 -157z" />
<glyph unicode="f" horiz-adv-x="785" d="M45 791v233h172v127q0 175 114 282t310 107q96 0 160 -20v-246q-61 24 -117 24q-152 0 -152 -165v-109h234v-233h-234v-791h-315v791h-172z" />
<glyph unicode="g" horiz-adv-x="1268" d="M72 483q0 260 128 413t337 153q187 0 280 -144h4v119h316v-907q0 -285 -165 -441.5t-478 -156.5q-207 0 -328 59v266q158 -92 319 -92q160 0 248 84.5t88 229.5v81h-4q-108 -172 -319 -172q-196 0 -311 138t-115 370zM393 494q0 -128 57 -202.5t156 -74.5 q98 0 158.5 75.5t60.5 199.5v81q0 97 -57.5 165.5t-149.5 68.5q-105 0 -165 -82t-60 -231z" />
<glyph unicode="h" horiz-adv-x="1233" d="M133 0v1516h316v-644h4q116 177 315 177q348 0 348 -420v-629h-315v582q0 225 -164 225q-84 0 -136 -63t-52 -160v-584h-316z" />
<glyph unicode="i" horiz-adv-x="582" d="M111 1350q0 71 51 116t131 45q81 0 131.5 -45t50.5 -116q0 -72 -50.5 -118t-131.5 -46q-80 0 -131 47.5t-51 116.5zM133 0v1024h316v-1024h-316z" />
<glyph unicode="j" horiz-adv-x="582" d="M-133 -203q66 -37 117 -37q149 0 149 234v1030h316v-1006q0 -227 -111 -363t-320 -136q-69 0 -151 30v248zM111 1350q0 71 51 116t131 45q81 0 131.5 -45t50.5 -116q0 -72 -50.5 -118t-131.5 -46q-80 0 -131 47.5t-51 116.5z" />
<glyph unicode="k" horiz-adv-x="1145" d="M133 0v1516h316v-965h4l305 473h375l-367 -481l393 -543h-379l-327 508h-4v-508h-316z" />
<glyph unicode="l" horiz-adv-x="582" d="M133 0v1516h316v-1516h-316z" />
<glyph unicode="m" horiz-adv-x="1876" d="M133 0v1024h316v-160h4q49 82 137.5 133.5t193.5 51.5q217 0 297 -191q117 191 344 191q334 0 334 -412v-637h-315v584q0 223 -164 223q-78 0 -127 -67t-49 -167v-573h-316v590q0 217 -161 217q-81 0 -129.5 -64t-48.5 -174v-569h-316z" />
<glyph unicode="n" horiz-adv-x="1239" d="M133 0v1024h316v-162h4q113 187 329 187q340 0 340 -422v-627h-315v569q0 238 -170 238q-82 0 -135 -63t-53 -160v-584h-316z" />
<glyph unicode="o" horiz-adv-x="1252" d="M72 508q0 254 152 397.5t411 143.5q255 0 400 -143.5t145 -379.5q0 -255 -149.5 -403t-409.5 -148q-256 0 -402.5 143.5t-146.5 389.5zM393 512q0 -295 238 -295q227 0 227 303q0 287 -229 287q-112 0 -174 -77t-62 -218z" />
<glyph unicode="p" horiz-adv-x="1270" d="M133 -471v1495h316v-154h4q117 179 329 179q199 0 307.5 -136.5t108.5 -371.5q0 -256 -126.5 -411t-336.5 -155q-185 0 -282 144h-4v-590h-316zM444 457q0 -106 56 -173t147 -67q108 0 167.5 83.5t59.5 236.5q0 270 -210 270q-97 0 -158.5 -73.5t-61.5 -194.5v-82z" />
<glyph unicode="q" horiz-adv-x="1268" d="M72 487q0 256 129 409t336 153q188 0 278 -144h4v119h316v-1495h-316v612h-4q-107 -166 -315 -166q-193 0 -310.5 134.5t-117.5 377.5zM393 496q0 -131 58.5 -205t152.5 -74q100 0 160.5 75t60.5 197v82q0 100 -58 168t-149 68q-105 0 -165 -82.5t-60 -228.5z" />
<glyph unicode="r" horiz-adv-x="815" d="M133 0v1024h316v-190h4q75 208 270 208q50 0 78 -12v-291q-57 31 -133 31q-103 0 -161 -75.5t-58 -205.5v-489h-316z" />
<glyph unicode="s" horiz-adv-x="901" d="M66 27v256q78 -47 155.5 -70t146.5 -23q84 0 132.5 23t48.5 70q0 30 -22 50t-56.5 35t-75.5 27t-79 27q-61 23 -107.5 49.5t-78 61.5t-48 81t-16.5 109q0 86 37.5 148t100 101.5t143 58t167.5 18.5q68 0 138 -10.5t138 -30.5v-244q-60 35 -128.5 52.5t-134.5 17.5 q-31 0 -58.5 -5.5t-48.5 -16t-33 -27t-12 -37.5q0 -28 18 -48t47 -34.5t64.5 -26t70.5 -23.5q63 -22 114 -48t87.5 -61t56 -82t19.5 -112q0 -91 -39.5 -155.5t-105 -105t-151 -59t-177.5 -18.5q-169 0 -313 52z" />
<glyph unicode="t" horiz-adv-x="797" d="M41 791v233h166v221l315 90v-311h230v-233h-230v-414q0 -160 127 -160q50 0 103 29v-234q-70 -37 -211 -37q-334 0 -334 347v469h-166z" />
<glyph unicode="u" horiz-adv-x="1239" d="M117 406v618h315v-590q0 -217 172 -217q85 0 136 59.5t51 161.5v586h315v-1024h-315v156h-5q-117 -181 -313 -181q-356 0 -356 431z" />
<glyph unicode="v" horiz-adv-x="1110" d="M4 1024h338l178 -631q30 -107 35 -182h4q7 71 37 176l182 637h330l-381 -1024h-360z" />
<glyph unicode="w" horiz-adv-x="1633" d="M16 1024h322l141 -668q10 -47 15 -114h6q5 70 18 118l176 664h301l158 -668q6 -25 14 -116h7q5 58 16 116l133 668h293l-295 -1024h-332l-151 600q-15 60 -17 131h-6q-7 -78 -20 -127l-162 -604h-328z" />
<glyph unicode="x" horiz-adv-x="1131" d="M8 0l346 510l-325 514h366l146 -287q29 -57 41 -96h4q16 47 43 98l149 285h344l-338 -496l336 -528h-364l-148 276q-18 33 -43 93h-4q-15 -42 -41 -90l-149 -279h-363z" />
<glyph unicode="y" d="M-4 1024h350l191 -623q18 -58 28 -137h4q9 58 33 135l193 625h313l-416 -1106q-150 -399 -452 -399q-115 0 -189 26v252q63 -37 137 -37q122 0 170 115l54 127z" />
<glyph unicode="z" horiz-adv-x="981" d="M25 0v131l514 660h-463v233h864v-156l-487 -635h491v-233h-919z" />
<glyph unicode="{" horiz-adv-x="756" d="M106 463v184q152 0 152 191v223q0 206 98 289.5t318 83.5v-187q-160 0 -160 -174v-213q0 -240 -154 -303v-4q154 -62 154 -307v-205q0 -98 37.5 -139t122.5 -41v-187q-218 0 -317 80t-99 285v240q0 184 -152 184z" />
<glyph unicode="|" horiz-adv-x="668" d="M209 -481v2048h252v-2048h-252z" />
<glyph unicode="}" horiz-adv-x="756" d="M84 -139q84 0 122 40.5t38 137.5v213q0 239 153 299v4q-153 63 -153 313v205q0 174 -160 174v187q218 0 316 -83.5t98 -285.5v-229q0 -189 153 -189v-184q-153 0 -153 -187v-231q0 -211 -97.5 -291t-316.5 -80v187z" />
<glyph unicode="~" horiz-adv-x="1448" d="M195 399q6 169 89.5 267t227.5 98q112 0 238 -76q130 -78 180 -78q52 0 85.5 44.5t35.5 117.5h204q-6 -168 -89.5 -266t-223.5 -98q-106 0 -258 88q-109 63 -156 63q-123 0 -129 -160h-204z" />
<glyph unicode="&#xa1;" horiz-adv-x="670" d="M152 883q0 72 51.5 119t132.5 47q79 0 130.5 -48t51.5 -118q0 -72 -51.5 -117t-130.5 -45q-81 0 -132.5 46t-51.5 116zM172 -408l37 990h256l39 -990h-332z" />
<glyph unicode="&#xa2;" horiz-adv-x="1178" d="M170 657q0 234 134 381.5t358 171.5v211h161v-207q110 -6 181 -45v-272q-76 58 -181 70v-574q108 17 181 68v-254q-73 -42 -181 -55v-189h-161v184q-216 12 -354 151.5t-138 358.5zM467 678q0 -222 195 -279v559q-195 -59 -195 -280z" />
<glyph unicode="&#xa3;" horiz-adv-x="1178" d="M143 0v227q193 52 193 269v116h-172v217h172v187q0 198 122 320t330 122q127 0 234 -49v-258q-98 66 -209 66q-184 0 -184 -230v-158h268v-217h-268v-86q0 -184 -152 -284h637v-242h-971z" />
<glyph unicode="&#xa4;" horiz-adv-x="1139" d="M51 358l142 138q-66 110 -66 229q0 121 66 229l-142 140l142 145l143 -141q106 65 233 65q129 0 234 -65l143 141l141 -145l-141 -140q68 -111 68 -229q0 -115 -68 -229l141 -138l-141 -145l-143 141q-105 -65 -234 -65q-127 0 -233 65l-143 -141zM330 727 q0 -99 69.5 -168.5t169.5 -69.5t171 69.5t71 168.5q0 98 -73 168t-169 70q-100 0 -169.5 -69.5t-69.5 -168.5z" />
<glyph unicode="&#xa5;" horiz-adv-x="1178" d="M41 1434h321l246 -570h4q4 11 37 90l203 480h305l-354 -641h252v-189h-305v-153h305v-189h-305v-262h-308v262h-315v189h315v153h-315v189h256z" />
<glyph unicode="&#xa6;" horiz-adv-x="668" d="M209 414h252v-895h-252v895zM209 684v883h252v-883h-252z" />
<glyph unicode="&#xa7;" horiz-adv-x="994" d="M131 731q0 143 125 234q-88 88 -88 215q0 140 102.5 225.5t274.5 85.5q139 0 260 -55v-250q-139 96 -260 96q-123 0 -123 -94q0 -45 40.5 -77.5t184.5 -96.5q254 -112 254 -309q0 -167 -149 -271q82 -75 82 -174q0 -149 -108.5 -237.5t-285.5 -88.5q-163 0 -290 68v248 q180 -105 311 -105q127 0 127 99q0 61 -96 108q-141 65 -210 112.5t-110 116.5t-41 150zM367 754q0 -57 51 -102t178 -99q66 44 66 123q0 62 -53.5 100.5t-176.5 87.5q-65 -38 -65 -110z" />
<glyph unicode="&#xa8;" horiz-adv-x="946" d="M86 1323q0 60 44 98.5t110 38.5q68 0 110.5 -38.5t42.5 -98.5q0 -61 -42.5 -99t-110.5 -38t-111 39.5t-43 97.5zM545 1323q0 61 43 99t110 38t110.5 -38.5t43.5 -98.5t-43 -98.5t-111 -38.5q-67 0 -110 39t-43 98z" />
<glyph unicode="&#xa9;" horiz-adv-x="1790" d="M131 713q0 317 220.5 531t549.5 214q328 0 544 -208.5t216 -532.5q0 -317 -221.5 -529.5t-546.5 -212.5q-333 0 -547.5 207t-214.5 531zM264 717q0 -272 181.5 -450.5t451.5 -178.5q265 0 448 179.5t183 447.5q0 272 -180 451.5t-451 179.5q-275 0 -454 -180t-179 -449z M446 696q0 231 143.5 370.5t373.5 139.5q125 0 239 -55v-236q-98 76 -244 76q-115 0 -192.5 -76.5t-77.5 -205.5q0 -122 78.5 -197.5t198.5 -75.5q141 0 239 76v-217q-125 -68 -274 -68q-209 0 -346.5 134t-137.5 335z" />
<glyph unicode="&#xaa;" horiz-adv-x="840" d="M72 915q0 211 262 244l192 25q0 114 -139 114q-118 0 -246 -77v176q124 57 287 57q311 0 311 -299v-438h-213v86h-4q-87 -107 -219 -107q-101 0 -166 61t-65 158zM287 942q0 -88 104 -88q54 0 94.5 38.5t40.5 92.5v70l-123 -17q-116 -16 -116 -96z" />
<glyph unicode="&#xab;" horiz-adv-x="1190" d="M53 537l330 344h266l-334 -344l336 -336h-268zM541 537l327 344h269l-334 -344l334 -336h-269z" />
<glyph unicode="&#xac;" horiz-adv-x="1448" d="M238 655v203h974v-592h-202v389h-772z" />
<glyph unicode="&#xad;" horiz-adv-x="828" d="M143 436v221h547v-221h-547z" />
<glyph unicode="&#xae;" horiz-adv-x="1790" d="M131 713q0 317 220.5 531t549.5 214q328 0 544 -208.5t216 -532.5q0 -317 -221.5 -529.5t-546.5 -212.5q-333 0 -547.5 207t-214.5 531zM264 717q0 -272 181.5 -450.5t451.5 -178.5q265 0 448 179.5t183 447.5q0 272 -180 451.5t-451 179.5q-275 0 -454 -180t-179 -449z M563 264v922h320q370 0 370 -262q0 -189 -217 -244v-4q90 -20 142 -146l110 -266h-254l-76 232q-40 122 -110 122h-74v-354h-211zM774 780h111q139 0 139 119q0 111 -160 111h-90v-230z" />
<glyph unicode="&#xaf;" horiz-adv-x="850" d="M0 1396v120h850v-120h-850z" />
<glyph unicode="&#xb0;" horiz-adv-x="778" d="M115 1178q0 118 82.5 199t201.5 81q118 0 201.5 -81t83.5 -199t-83.5 -200.5t-201.5 -82.5q-119 0 -201.5 82.5t-82.5 200.5zM270 1178q0 -54 37.5 -92.5t91.5 -38.5q53 0 91 38.5t38 92.5t-37.5 91.5t-91.5 37.5t-91.5 -37.5t-37.5 -91.5z" />
<glyph unicode="&#xb1;" horiz-adv-x="1448" d="M238 0v203h972v-203h-972zM242 694v203h383v391h202v-391h385v-203h-385v-387h-202v387h-383z" />
<glyph unicode="&#xb2;" horiz-adv-x="828" d="M117 884v157l248 234q77 73 95.5 110t18.5 82q0 42 -28.5 69.5t-75.5 27.5q-98 0 -211 -103v215q118 78 250 78q136 0 215.5 -68.5t79.5 -189.5q0 -70 -37.5 -141t-179.5 -197l-105 -92v-4h334v-178h-604z" />
<glyph unicode="&#xb3;" horiz-adv-x="828" d="M131 916v181q107 -68 221 -68q150 0 150 102q0 103 -172 103h-117v166h113q149 0 149 96q0 90 -119 90q-107 0 -198 -65v176q99 57 239 57q134 0 211.5 -60.5t77.5 -160.5q0 -147 -143 -195v-4q172 -41 172 -198q0 -123 -98 -198t-257 -75q-133 0 -229 53z" />
<glyph unicode="&#xb4;" horiz-adv-x="621" d="M55 1186l260 323h281l-313 -323h-228z" />
<glyph unicode="&#xb5;" horiz-adv-x="1255" d="M133 -395v1419h316v-589q0 -207 170 -207q184 0 184 254v542h319v-710q0 -236 39 -314h-324q-25 70 -25 154h-4q-57 -177 -216 -177q-97 0 -140 64h-3v-436h-316z" />
<glyph unicode="&#xb6;" horiz-adv-x="1043" d="M92 1139q0 129 85.5 212t211.5 83h557v-162h-117v-1272h-174v1272h-118v-1272h-177v836q-115 7 -191.5 92t-76.5 211z" />
<glyph unicode="&#xb7;" horiz-adv-x="555" d="M92 653q0 72 53.5 118t133.5 46q81 0 132.5 -46.5t51.5 -117.5q0 -73 -52.5 -119.5t-136.5 -46.5q-78 0 -130 48t-52 118z" />
<glyph unicode="&#xb8;" horiz-adv-x="441" d="M51 -313q35 -6 72 -6q123 0 123 73q0 66 -111 66q-13 0 -37 -2v182h172v-82q187 -8 187 -166q0 -207 -318 -207q-46 0 -88 4v138z" />
<glyph unicode="&#xb9;" horiz-adv-x="807" d="M143 1492v180l406 82v-698h172v-172h-563v172h176v477z" />
<glyph unicode="&#xba;" horiz-adv-x="934" d="M70 1073q0 179 108.5 280t292.5 101q181 0 284 -101.5t103 -265.5q0 -184 -106.5 -287.5t-292.5 -103.5q-185 0 -287 99.5t-102 277.5zM301 1077q0 -207 164 -207q160 0 160 209q0 201 -160 201q-164 0 -164 -203z" />
<glyph unicode="&#xbb;" horiz-adv-x="1190" d="M53 201l336 336l-334 344h267l329 -344l-329 -336h-269zM541 201l333 336l-331 344h266l328 -344l-328 -336h-268z" />
<glyph unicode="&#xbc;" horiz-adv-x="1950" d="M98 1192v180l406 82v-698h172v-172h-563v172h176v477zM370 0l891 1434h244l-891 -1434h-244zM1127 176v141l350 533h258v-519h110v-155h-110v-176h-213v176h-395zM1311 331h211v263q0 47 4 84h-8q-14 -36 -39 -76z" />
<glyph unicode="&#xbd;" horiz-adv-x="1977" d="M98 1192v180l406 82v-698h172v-172h-563v172h176v477zM371 0l891 1434h244l-891 -1434h-244zM1239 0v157l248 234q77 73 95.5 110t18.5 82q0 42 -28.5 69.5t-75.5 27.5q-98 0 -211 -103v215q118 78 250 78q136 0 215.5 -68.5t79.5 -189.5q0 -70 -37.5 -141t-179.5 -197 l-105 -92v-4h334v-178h-604z" />
<glyph unicode="&#xbe;" horiz-adv-x="2005" d="M131 616v181q107 -68 221 -68q150 0 150 102q0 103 -172 103h-117v166h113q149 0 149 96q0 90 -119 90q-107 0 -198 -65v176q99 57 239 57q134 0 211.5 -60.5t77.5 -160.5q0 -147 -143 -195v-4q172 -41 172 -198q0 -123 -98 -198t-257 -75q-133 0 -229 53zM430 0 l891 1434h244l-891 -1434h-244zM1174 176v141l350 533h258v-519h110v-155h-110v-176h-213v176h-395zM1358 331h211v263q0 47 4 84h-8q-14 -36 -39 -76z" />
<glyph unicode="&#xbf;" horiz-adv-x="897" d="M53 -70q0 61 14 110.5t41 93.5t67 84.5t92 83.5q35 29 61.5 54t44 49.5t26.5 52t9 62.5q0 24 -6.5 49t-17.5 42h263q10 -26 15.5 -58.5t5.5 -61.5q0 -46 -9 -84t-27 -71.5t-45 -64t-63 -60.5q-37 -32 -66 -59.5t-49 -55t-30 -57t-10 -65.5q0 -31 11 -57.5t31.5 -45.5 t50 -30t65.5 -11q78 0 162 32.5t159 98.5v-301q-77 -46 -168 -69t-188 -23q-93 0 -173 20.5t-139.5 64.5t-93 112.5t-33.5 164.5zM318 883q0 73 51 119q52 47 132 47q81 0 133 -48q53 -50 53 -118q0 -70 -53 -117t-133 -47q-79 0 -131 47q-52 46 -52 117z" />
<glyph unicode="&#xc0;" horiz-adv-x="1440" d="M10 0l522 1434h383l510 -1434h-352l-102 319h-510l-101 -319h-350zM375 1890h281l260 -323h-227zM530 567h367l-154 482q-17 54 -24 129h-8q-5 -63 -25 -125z" />
<glyph unicode="&#xc1;" horiz-adv-x="1440" d="M10 0l522 1434h383l510 -1434h-352l-102 319h-510l-101 -319h-350zM495 1567l260 323h281l-313 -323h-228zM530 567h367l-154 482q-17 54 -24 129h-8q-5 -63 -25 -125z" />
<glyph unicode="&#xc2;" horiz-adv-x="1440" d="M10 0l522 1434h383l510 -1434h-352l-102 319h-510l-101 -319h-350zM359 1567l235 325h248l236 -325h-207l-158 188l-147 -188h-207zM530 567h367l-154 482q-17 54 -24 129h-8q-5 -63 -25 -125z" />
<glyph unicode="&#xc3;" horiz-adv-x="1440" d="M10 0l522 1434h383l510 -1434h-352l-102 319h-510l-101 -319h-350zM358 1567q0 139 55 216t154 77q81 0 168 -49q79 -44 120 -44q78 0 78 111h144q0 -140 -55.5 -216.5t-151.5 -76.5q-86 0 -168 43q-89 47 -123 47q-80 0 -80 -108h-141zM530 567h367l-154 482 q-17 54 -24 129h-8q-5 -63 -25 -125z" />
<glyph unicode="&#xc4;" horiz-adv-x="1440" d="M10 0l522 1434h383l510 -1434h-352l-102 319h-510l-101 -319h-350zM333 1704q0 60 44 98.5t110 38.5q68 0 110.5 -38.5t42.5 -98.5q0 -61 -42.5 -99t-110.5 -38t-111 39.5t-43 97.5zM530 567h367l-154 482q-17 54 -24 129h-8q-5 -63 -25 -125zM792 1704q0 61 43 99 t110 38t110.5 -38.5t43.5 -98.5t-43 -98.5t-111 -38.5q-67 0 -110 39t-43 98z" />
<glyph unicode="&#xc5;" horiz-adv-x="1440" d="M10 0l512 1407q-53 54 -53 137q0 106 73.5 169t180.5 63q114 0 184 -63.5t70 -164.5q0 -80 -53 -137l501 -1411h-352l-102 319h-510l-101 -319h-350zM535 584h358l-152 465q-13 40 -22 120h-8q-7 -68 -23 -116zM616 1546q0 -98 103 -98q48 0 77 28.5t29 69.5 q0 43 -29.5 71t-76.5 28t-75 -28.5t-28 -70.5z" />
<glyph unicode="&#xc6;" horiz-adv-x="1915" d="M-2 0l725 1434h1094v-263h-504v-319h469v-262h-469v-328h536v-262h-858v319h-471l-147 -319h-375zM631 567h360v604h-78z" />
<glyph unicode="&#xc7;" horiz-adv-x="1278" d="M74 686q0 344 212.5 558t551.5 214q210 0 354 -53v-311q-144 86 -328 86q-202 0 -326 -127t-124 -344q0 -208 117 -331.5t315 -123.5q189 0 346 92v-295q-157 -76 -410 -76q-330 0 -519 194t-189 517zM610 -313q35 -6 72 -6q123 0 123 73q0 66 -111 66q-13 0 -37 -2v182 h172v-82q187 -8 187 -166q0 -207 -318 -207q-46 0 -88 4v138z" />
<glyph unicode="&#xc8;" horiz-adv-x="1090" d="M164 0v1434h827v-263h-504v-319h469v-262h-469v-328h537v-262h-860zM225 1890h281l260 -323h-227z" />
<glyph unicode="&#xc9;" horiz-adv-x="1090" d="M164 0v1434h827v-263h-504v-319h469v-262h-469v-328h537v-262h-860zM393 1567l260 323h281l-313 -323h-228z" />
<glyph unicode="&#xca;" horiz-adv-x="1090" d="M164 0v1434h827v-263h-504v-319h469v-262h-469v-328h537v-262h-860zM213 1567l235 325h248l236 -325h-207l-158 188l-147 -188h-207z" />
<glyph unicode="&#xcb;" horiz-adv-x="1090" d="M164 0v1434h827v-263h-504v-319h469v-262h-469v-328h537v-262h-860zM200 1704q0 60 44 98.5t110 38.5q68 0 110.5 -38.5t42.5 -98.5q0 -61 -42.5 -99t-110.5 -38t-111 39.5t-43 97.5zM659 1704q0 61 43 99t110 38t110.5 -38.5t43.5 -98.5t-43 -98.5t-111 -38.5 q-67 0 -110 39t-43 98z" />
<glyph unicode="&#xcc;" horiz-adv-x="649" d="M-9 1890h281l260 -323h-227zM44 0v250h120v934h-120v250h563v-250h-120v-934h120v-250h-563z" />
<glyph unicode="&#xcd;" horiz-adv-x="649" d="M44 0v250h120v934h-120v250h563v-250h-120v-934h120v-250h-563zM110 1567l260 323h281l-313 -323h-228z" />
<glyph unicode="&#xce;" horiz-adv-x="649" d="M-28 1567l235 325h248l236 -325h-207l-158 188l-147 -188h-207zM44 0v250h120v934h-120v250h563v-250h-120v-934h120v-250h-563z" />
<glyph unicode="&#xcf;" horiz-adv-x="649" d="M-53 1704q0 60 44 98.5t110 38.5q68 0 110.5 -38.5t42.5 -98.5q0 -61 -42.5 -99t-110.5 -38t-111 39.5t-43 97.5zM44 0v250h120v934h-120v250h563v-250h-120v-934h120v-250h-563zM406 1704q0 61 43 99t110 38t110.5 -38.5t43.5 -98.5t-43 -98.5t-111 -38.5q-67 0 -110 39 t-43 98z" />
<glyph unicode="&#xd0;" horiz-adv-x="1510" d="M0 586v266h164v582h508q764 0 764 -699q0 -335 -208.5 -535t-555.5 -200h-508v586h-164zM487 262h160q210 0 329.5 126t119.5 343q0 205 -118.5 322.5t-332.5 117.5h-158v-319h271v-266h-271v-324z" />
<glyph unicode="&#xd1;" horiz-adv-x="1618" d="M164 0v1434h348l569 -873q39 -59 72 -117h4q-8 50 -8 197v793h305v-1434h-326l-591 901q-52 79 -72 119h-4q8 -76 8 -232v-788h-305zM487 1567q0 139 55 216t154 77q81 0 168 -49q79 -44 120 -44q78 0 78 111h144q0 -140 -55.5 -216.5t-151.5 -76.5q-86 0 -168 43 q-89 47 -123 47q-80 0 -80 -108h-141z" />
<glyph unicode="&#xd2;" horiz-adv-x="1552" d="M74 698q0 340 197 550t522 210q307 0 496.5 -201t189.5 -530q0 -338 -196.5 -545t-512.5 -207q-308 0 -502 200.5t-194 522.5zM414 715q0 -213 100 -337t262 -124q167 0 265 120.5t98 334.5q0 223 -95 347t-260 124q-170 0 -270 -127.5t-100 -337.5zM430 1890h281 l260 -323h-227z" />
<glyph unicode="&#xd3;" horiz-adv-x="1552" d="M74 698q0 340 197 550t522 210q307 0 496.5 -201t189.5 -530q0 -338 -196.5 -545t-512.5 -207q-308 0 -502 200.5t-194 522.5zM414 715q0 -213 100 -337t262 -124q167 0 265 120.5t98 334.5q0 223 -95 347t-260 124q-170 0 -270 -127.5t-100 -337.5zM569 1567l260 323 h281l-313 -323h-228z" />
<glyph unicode="&#xd4;" horiz-adv-x="1552" d="M74 698q0 340 197 550t522 210q307 0 496.5 -201t189.5 -530q0 -338 -196.5 -545t-512.5 -207q-308 0 -502 200.5t-194 522.5zM414 715q0 -213 100 -337t262 -124q167 0 265 120.5t98 334.5q0 223 -95 347t-260 124q-170 0 -270 -127.5t-100 -337.5zM430 1567l235 325 h248l236 -325h-207l-158 188l-147 -188h-207z" />
<glyph unicode="&#xd5;" horiz-adv-x="1552" d="M74 698q0 340 197 550t522 210q307 0 496.5 -201t189.5 -530q0 -338 -196.5 -545t-512.5 -207q-308 0 -502 200.5t-194 522.5zM414 715q0 -213 100 -337t262 -124q167 0 265 120.5t98 334.5q0 223 -95 347t-260 124q-170 0 -270 -127.5t-100 -337.5zM428 1567 q0 139 55 216t154 77q81 0 168 -49q79 -44 120 -44q78 0 78 111h144q0 -140 -55.5 -216.5t-151.5 -76.5q-86 0 -168 43q-89 47 -123 47q-80 0 -80 -108h-141z" />
<glyph unicode="&#xd6;" horiz-adv-x="1552" d="M74 698q0 340 197 550t522 210q307 0 496.5 -201t189.5 -530q0 -338 -196.5 -545t-512.5 -207q-308 0 -502 200.5t-194 522.5zM392 1704q0 60 44 98.5t110 38.5q68 0 110.5 -38.5t42.5 -98.5q0 -61 -42.5 -99t-110.5 -38t-111 39.5t-43 97.5zM414 715q0 -213 100 -337 t262 -124q167 0 265 120.5t98 334.5q0 223 -95 347t-260 124q-170 0 -270 -127.5t-100 -337.5zM851 1704q0 61 43 99t110 38t110.5 -38.5t43.5 -98.5t-43 -98.5t-111 -38.5q-67 0 -110 39t-43 98z" />
<glyph unicode="&#xd7;" horiz-adv-x="1448" d="M242 250l340 336l-340 340l141 145l344 -340l342 340l139 -151l-338 -334l340 -338l-145 -144l-338 340l-340 -340z" />
<glyph unicode="&#xd8;" horiz-adv-x="1553" d="M74 698q0 340 196.5 550t522.5 210q234 0 401 -119l129 150l125 -103l-135 -157q166 -196 166 -502q0 -338 -196.5 -545t-512.5 -207q-240 0 -422 134l-143 -170l-125 104l149 176q-155 192 -155 479zM391 709q0 -146 47 -252l578 673q-97 76 -232 76q-181 0 -287 -136.5 t-106 -360.5zM532 319q101 -92 244 -92q175 0 281 128.5t106 351.5q0 164 -53 288z" />
<glyph unicode="&#xd9;" horiz-adv-x="1481" d="M147 606v828h324v-832q0 -348 272 -348q267 0 267 336v844h323v-813q0 -646 -602 -646q-584 0 -584 631zM379 1890h281l260 -323h-227z" />
<glyph unicode="&#xda;" horiz-adv-x="1481" d="M147 606v828h324v-832q0 -348 272 -348q267 0 267 336v844h323v-813q0 -646 -602 -646q-584 0 -584 631zM547 1567l260 323h281l-313 -323h-228z" />
<glyph unicode="&#xdb;" horiz-adv-x="1481" d="M147 606v828h324v-832q0 -348 272 -348q267 0 267 336v844h323v-813q0 -646 -602 -646q-584 0 -584 631zM380 1567l235 325h248l236 -325h-207l-158 188l-147 -188h-207z" />
<glyph unicode="&#xdc;" horiz-adv-x="1481" d="M147 606v828h324v-832q0 -348 272 -348q267 0 267 336v844h323v-813q0 -646 -602 -646q-584 0 -584 631zM357 1704q0 60 44 98.5t110 38.5q68 0 110.5 -38.5t42.5 -98.5q0 -61 -42.5 -99t-110.5 -38t-111 39.5t-43 97.5zM816 1704q0 61 43 99t110 38t110.5 -38.5 t43.5 -98.5t-43 -98.5t-111 -38.5q-67 0 -110 39t-43 98z" />
<glyph unicode="&#xdd;" horiz-adv-x="1243" d="M0 1434h369l231 -535q6 -15 33 -117h4q13 72 31 113l235 539h342l-467 -924v-510h-323v504zM362 1534l260 323h281l-313 -323h-228z" />
<glyph unicode="&#xde;" horiz-adv-x="1258" d="M164 0v1434h323v-211h183q542 0 542 -457q0 -216 -155.5 -350.5t-415.5 -134.5h-154v-281h-323zM487 528h127q258 0 258 226q0 221 -258 221h-127v-447z" />
<glyph unicode="&#xdf;" horiz-adv-x="1286" d="M133 0v1049q0 223 137 357t381 134q217 0 343 -109.5t126 -281.5q0 -122 -71.5 -214t-184.5 -126v-4q363 -69 363 -399q0 -180 -126.5 -305.5t-342.5 -125.5q-105 0 -213 33v262q83 -53 176 -53q83 0 132.5 52.5t49.5 144.5q0 116 -89 183.5t-251 72.5v221 q111 8 172.5 68t61.5 159q0 84 -44.5 132t-119.5 48q-184 0 -184 -245v-1053h-316z" />
<glyph unicode="&#xe0;" d="M57 285q0 298 353 344l278 37q0 168 -182 168q-183 0 -348 -109v238q66 34 180.5 60t208.5 26q438 0 438 -437v-612h-299v147h-4q-103 -172 -305 -172q-149 0 -234.5 84.5t-85.5 225.5zM234 1509h281l260 -323h-227zM348 322q0 -54 37.5 -88.5t101.5 -34.5q89 0 145 61.5 t56 155.5v69l-186 -24q-154 -20 -154 -139z" />
<glyph unicode="&#xe1;" d="M57 285q0 298 353 344l278 37q0 168 -182 168q-183 0 -348 -109v238q66 34 180.5 60t208.5 26q438 0 438 -437v-612h-299v147h-4q-103 -172 -305 -172q-149 0 -234.5 84.5t-85.5 225.5zM348 322q0 -54 37.5 -88.5t101.5 -34.5q89 0 145 61.5t56 155.5v69l-186 -24 q-154 -20 -154 -139zM350 1186l260 323h281l-313 -323h-228z" />
<glyph unicode="&#xe2;" d="M57 285q0 298 353 344l278 37q0 168 -182 168q-183 0 -348 -109v238q66 34 180.5 60t208.5 26q438 0 438 -437v-612h-299v147h-4q-103 -172 -305 -172q-149 0 -234.5 84.5t-85.5 225.5zM195 1186l235 325h248l236 -325h-207l-158 188l-147 -188h-207zM348 322 q0 -54 37.5 -88.5t101.5 -34.5q89 0 145 61.5t56 155.5v69l-186 -24q-154 -20 -154 -139z" />
<glyph unicode="&#xe3;" d="M57 285q0 298 353 344l278 37q0 168 -182 168q-183 0 -348 -109v238q66 34 180.5 60t208.5 26q438 0 438 -437v-612h-299v147h-4q-103 -172 -305 -172q-149 0 -234.5 84.5t-85.5 225.5zM188 1186q0 139 55 216t154 77q81 0 168 -49q79 -44 120 -44q78 0 78 111h144 q0 -140 -55.5 -216.5t-151.5 -76.5q-86 0 -168 43q-89 47 -123 47q-80 0 -80 -108h-141zM348 322q0 -54 37.5 -88.5t101.5 -34.5q89 0 145 61.5t56 155.5v69l-186 -24q-154 -20 -154 -139z" />
<glyph unicode="&#xe4;" d="M57 285q0 298 353 344l278 37q0 168 -182 168q-183 0 -348 -109v238q66 34 180.5 60t208.5 26q438 0 438 -437v-612h-299v147h-4q-103 -172 -305 -172q-149 0 -234.5 84.5t-85.5 225.5zM175 1323q0 60 44 98.5t110 38.5q68 0 110.5 -38.5t42.5 -98.5q0 -61 -42.5 -99 t-110.5 -38t-111 39.5t-43 97.5zM348 322q0 -54 37.5 -88.5t101.5 -34.5q89 0 145 61.5t56 155.5v69l-186 -24q-154 -20 -154 -139zM634 1323q0 61 43 99t110 38t110.5 -38.5t43.5 -98.5t-43 -98.5t-111 -38.5q-67 0 -110 39t-43 98z" />
<glyph unicode="&#xe5;" d="M57 285q0 298 353 344l278 37q0 168 -182 168q-183 0 -348 -109v238q66 34 180.5 60t208.5 26q438 0 438 -437v-612h-299v147h-4q-103 -172 -305 -172q-149 0 -234.5 84.5t-85.5 225.5zM338 1401q0 101 69.5 161t170.5 60q107 0 173 -59.5t66 -155.5q0 -98 -71.5 -159.5 t-172.5 -61.5q-102 0 -168.5 59.5t-66.5 155.5zM348 322q0 -54 37.5 -88.5t101.5 -34.5q89 0 145 61.5t56 155.5v69l-186 -24q-154 -20 -154 -139zM477 1405q0 -94 96 -94q45 0 74 27.5t29 66.5q0 41 -28.5 67.5t-74.5 26.5q-96 0 -96 -94z" />
<glyph unicode="&#xe6;" horiz-adv-x="1696" d="M57 287q0 146 96.5 234t276.5 102l256 20q0 191 -184 191q-174 0 -344 -107v236q187 86 370 86q234 0 324 -134h4q132 134 326 134q214 0 336 -133t122 -365v-129h-667q20 -223 282 -223q160 0 297 80v-226q-156 -78 -378 -78q-269 0 -398 179h-4q-141 -179 -362 -179 q-166 0 -259.5 82.5t-93.5 229.5zM346 315q0 -50 39 -83t102 -33q86 0 142.5 59.5t56.5 155.5v45l-156 -13q-184 -15 -184 -131zM973 616h375q0 220 -177 220q-75 0 -131.5 -62t-66.5 -158z" />
<glyph unicode="&#xe7;" horiz-adv-x="983" d="M72 487q0 261 156.5 411.5t418.5 150.5q181 0 262 -48v-268q-99 74 -221 74q-136 0 -215.5 -79.5t-79.5 -219.5q0 -136 76 -213.5t209 -77.5q118 0 231 74v-254q-107 -62 -309 -62q-236 0 -382 143t-146 369zM426 -313q35 -6 72 -6q123 0 123 73q0 66 -111 66 q-13 0 -37 -2v182h172v-82q187 -8 187 -166q0 -207 -318 -207q-46 0 -88 4v138z" />
<glyph unicode="&#xe8;" horiz-adv-x="1108" d="M72 496q0 255 148 404t364 149q224 0 346.5 -133t122.5 -361v-133h-668q16 -223 281 -223q169 0 297 80v-228q-142 -76 -369 -76q-248 0 -385 137.5t-137 383.5zM254 1509h281l260 -323h-227zM383 616h377q0 220 -178 220q-76 0 -131.5 -63t-67.5 -157z" />
<glyph unicode="&#xe9;" horiz-adv-x="1108" d="M72 496q0 255 148 404t364 149q224 0 346.5 -133t122.5 -361v-133h-668q16 -223 281 -223q169 0 297 80v-228q-142 -76 -369 -76q-248 0 -385 137.5t-137 383.5zM380 1186l260 323h281l-313 -323h-228zM383 616h377q0 220 -178 220q-76 0 -131.5 -63t-67.5 -157z" />
<glyph unicode="&#xea;" horiz-adv-x="1108" d="M72 496q0 255 148 404t364 149q224 0 346.5 -133t122.5 -361v-133h-668q16 -223 281 -223q169 0 297 80v-228q-142 -76 -369 -76q-248 0 -385 137.5t-137 383.5zM230 1186l235 325h248l236 -325h-207l-158 188l-147 -188h-207zM383 616h377q0 220 -178 220 q-76 0 -131.5 -63t-67.5 -157z" />
<glyph unicode="&#xeb;" horiz-adv-x="1108" d="M72 496q0 255 148 404t364 149q224 0 346.5 -133t122.5 -361v-133h-668q16 -223 281 -223q169 0 297 80v-228q-142 -76 -369 -76q-248 0 -385 137.5t-137 383.5zM196 1323q0 60 44 98.5t110 38.5q68 0 110.5 -38.5t42.5 -98.5q0 -61 -42.5 -99t-110.5 -38t-111 39.5 t-43 97.5zM383 616h377q0 220 -178 220q-76 0 -131.5 -63t-67.5 -157zM655 1323q0 61 43 99t110 38t110.5 -38.5t43.5 -98.5t-43 -98.5t-111 -38.5q-67 0 -110 39t-43 98z" />
<glyph unicode="&#xec;" horiz-adv-x="582" d="M-27 1509h281l260 -323h-227zM133 0v1024h316v-1024h-316z" />
<glyph unicode="&#xed;" horiz-adv-x="582" d="M71 1186l260 323h281l-313 -323h-228zM133 0v1024h316v-1024h-316z" />
<glyph unicode="&#xee;" horiz-adv-x="582" d="M-62 1186l235 325h248l236 -325h-207l-158 188l-147 -188h-207zM133 0v1024h316v-1024h-316z" />
<glyph unicode="&#xef;" horiz-adv-x="582" d="M-86 1323q0 60 44 98.5t110 38.5q68 0 110.5 -38.5t42.5 -98.5q0 -61 -42.5 -99t-110.5 -38t-111 39.5t-43 97.5zM133 0v1024h316v-1024h-316zM373 1323q0 61 43 99t110 38t110.5 -38.5t43.5 -98.5t-43 -98.5t-111 -38.5q-67 0 -110 39t-43 98z" />
<glyph unicode="&#xf0;" horiz-adv-x="1215" d="M72 514q0 231 132.5 378.5t346.5 147.5q117 0 205 -75l4 2q-84 147 -195 237l-291 -143l-81 141l241 115q-157 125 -270 199h352q11 -6 131 -97l273 133l77 -137l-215 -104q361 -291 361 -748q0 -260 -150 -424t-395 -164q-248 0 -387 144.5t-139 394.5zM393 514 q0 -140 57 -218.5t158 -78.5q98 0 155.5 81.5t57.5 221.5q0 287 -209 287q-103 0 -161 -78.5t-58 -214.5z" />
<glyph unicode="&#xf1;" horiz-adv-x="1239" d="M133 0v1024h316v-162h4q113 187 329 187q340 0 340 -422v-627h-315v569q0 238 -170 238q-82 0 -135 -63t-53 -160v-584h-316zM263 1186q0 139 55 216t154 77q81 0 168 -49q79 -44 120 -44q78 0 78 111h144q0 -140 -55.5 -216.5t-151.5 -76.5q-86 0 -168 43 q-89 47 -123 47q-80 0 -80 -108h-141z" />
<glyph unicode="&#xf2;" horiz-adv-x="1251" d="M72 508q0 254 152 397.5t411 143.5q255 0 400 -143.5t145 -379.5q0 -255 -149.5 -403t-409.5 -148q-256 0 -402.5 143.5t-146.5 389.5zM311 1509h281l260 -323h-227zM393 512q0 -295 238 -295q227 0 227 303q0 287 -229 287q-112 0 -174 -77t-62 -218z" />
<glyph unicode="&#xf3;" horiz-adv-x="1251" d="M72 508q0 254 152 397.5t411 143.5q255 0 400 -143.5t145 -379.5q0 -255 -149.5 -403t-409.5 -148q-256 0 -402.5 143.5t-146.5 389.5zM393 512q0 -295 238 -295q227 0 227 303q0 287 -229 287q-112 0 -174 -77t-62 -218zM427 1186l260 323h281l-313 -323h-228z" />
<glyph unicode="&#xf4;" horiz-adv-x="1251" d="M72 508q0 254 152 397.5t411 143.5q255 0 400 -143.5t145 -379.5q0 -255 -149.5 -403t-409.5 -148q-256 0 -402.5 143.5t-146.5 389.5zM269 1186l235 325h248l236 -325h-207l-158 188l-147 -188h-207zM393 512q0 -295 238 -295q227 0 227 303q0 287 -229 287 q-112 0 -174 -77t-62 -218z" />
<glyph unicode="&#xf5;" horiz-adv-x="1251" d="M72 508q0 254 152 397.5t411 143.5q255 0 400 -143.5t145 -379.5q0 -255 -149.5 -403t-409.5 -148q-256 0 -402.5 143.5t-146.5 389.5zM266 1186q0 139 55 216t154 77q81 0 168 -49q79 -44 120 -44q78 0 78 111h144q0 -140 -55.5 -216.5t-151.5 -76.5q-86 0 -168 43 q-89 47 -123 47q-80 0 -80 -108h-141zM393 512q0 -295 238 -295q227 0 227 303q0 287 -229 287q-112 0 -174 -77t-62 -218z" />
<glyph unicode="&#xf6;" horiz-adv-x="1251" d="M72 508q0 254 152 397.5t411 143.5q255 0 400 -143.5t145 -379.5q0 -255 -149.5 -403t-409.5 -148q-256 0 -402.5 143.5t-146.5 389.5zM247 1323q0 60 44 98.5t110 38.5q68 0 110.5 -38.5t42.5 -98.5q0 -61 -42.5 -99t-110.5 -38t-111 39.5t-43 97.5zM393 512 q0 -295 238 -295q227 0 227 303q0 287 -229 287q-112 0 -174 -77t-62 -218zM706 1323q0 61 43 99t110 38t110.5 -38.5t43.5 -98.5t-43 -98.5t-111 -38.5q-67 0 -110 39t-43 98z" />
<glyph unicode="&#xf7;" horiz-adv-x="1448" d="M238 485v203h974v-203h-974zM586 182q0 62 39.5 104t101.5 42t99.5 -40.5t37.5 -103.5q0 -61 -40 -99t-97 -38q-59 0 -100 39t-41 96zM590 983q0 62 39.5 103.5t101.5 41.5t99.5 -40t37.5 -103q0 -61 -40.5 -100t-96.5 -39q-59 0 -100 40t-41 97z" />
<glyph unicode="&#xf8;" horiz-adv-x="1252" d="M39 29l137 143q-104 141 -104 338q0 253 152.5 397t412.5 144q179 0 311 -82l139 147l119 -106l-139 -146q113 -143 113 -338q0 -259 -148 -404t-411 -145q-198 0 -328 86l-135 -141zM373 514q0 -73 18 -121l381 398q-56 40 -141 40q-258 0 -258 -317zM469 242 q61 -45 160 -45q252 0 252 323q0 74 -19 131z" />
<glyph unicode="&#xf9;" horiz-adv-x="1239" d="M117 406v618h315v-590q0 -217 172 -217q85 0 136 59.5t51 161.5v586h315v-1024h-315v156h-5q-117 -181 -313 -181q-356 0 -356 431zM243 1509h281l260 -323h-227z" />
<glyph unicode="&#xfa;" horiz-adv-x="1239" d="M117 406v618h315v-590q0 -217 172 -217q85 0 136 59.5t51 161.5v586h315v-1024h-315v156h-5q-117 -181 -313 -181q-356 0 -356 431zM436 1186l260 323h281l-313 -323h-228z" />
<glyph unicode="&#xfb;" horiz-adv-x="1239" d="M117 406v618h315v-590q0 -217 172 -217q85 0 136 59.5t51 161.5v586h315v-1024h-315v156h-5q-117 -181 -313 -181q-356 0 -356 431zM251 1186l235 325h248l236 -325h-207l-158 188l-147 -188h-207z" />
<glyph unicode="&#xfc;" horiz-adv-x="1239" d="M117 406v618h315v-590q0 -217 172 -217q85 0 136 59.5t51 161.5v586h315v-1024h-315v156h-5q-117 -181 -313 -181q-356 0 -356 431zM232 1323q0 60 44 98.5t110 38.5q68 0 110.5 -38.5t42.5 -98.5q0 -61 -42.5 -99t-110.5 -38t-111 39.5t-43 97.5zM691 1323q0 61 43 99 t110 38t110.5 -38.5t43.5 -98.5t-43 -98.5t-111 -38.5q-67 0 -110 39t-43 98z" />
<glyph unicode="&#xfd;" d="M-4 1024h350l191 -623q18 -58 28 -137h4q9 58 33 135l193 625h313l-416 -1106q-150 -399 -452 -399q-115 0 -189 26v252q63 -37 137 -37q122 0 170 115l54 127zM293 1186l260 323h281l-313 -323h-228z" />
<glyph unicode="&#xfe;" horiz-adv-x="1270" d="M133 -471v1987h316v-646h4q117 179 329 179q199 0 307.5 -136.5t108.5 -371.5q0 -256 -126.5 -411t-336.5 -155q-185 0 -282 144h-4v-590h-316zM444 457q0 -106 56 -173t147 -67q108 0 167.5 83.5t59.5 236.5q0 270 -210 270q-97 0 -158.5 -73.5t-61.5 -194.5v-82z" />
<glyph unicode="&#xff;" d="M-4 1024h350l191 -623q18 -58 28 -137h4q9 58 33 135l193 625h313l-416 -1106q-150 -399 -452 -399q-115 0 -189 26v252q63 -37 137 -37q122 0 170 115l54 127zM181 1323q0 60 44 98.5t110 38.5q68 0 110.5 -38.5t42.5 -98.5q0 -61 -42.5 -99t-110.5 -38t-111 39.5 t-43 97.5zM640 1323q0 61 43 99t110 38t110.5 -38.5t43.5 -98.5t-43 -98.5t-111 -38.5q-67 0 -110 39t-43 98z" />
<glyph unicode="&#x100;" horiz-adv-x="1440" d="M10 0l522 1434h383l510 -1434h-352l-102 319h-510l-101 -319h-350zM427 1567v172h586v-172h-586zM530 567h367l-154 482q-17 54 -24 129h-8q-5 -63 -25 -125z" />
<glyph unicode="&#x101;" d="M57 285q0 298 353 344l278 37q0 168 -182 168q-183 0 -348 -109v238q66 34 180.5 60t208.5 26q438 0 438 -437v-612h-299v147h-4q-103 -172 -305 -172q-149 0 -234.5 84.5t-85.5 225.5zM278 1186v172h586v-172h-586zM348 322q0 -54 37.5 -88.5t101.5 -34.5q89 0 145 61.5 t56 155.5v69l-186 -24q-154 -20 -154 -139z" />
<glyph unicode="&#x102;" horiz-adv-x="1440" d="M10 0l522 1434h383l510 -1434h-352l-102 319h-510l-101 -319h-350zM383 1874h179q17 -135 159 -135q137 0 156 135h180q-12 -141 -102.5 -224t-237.5 -83q-146 0 -238 85.5t-96 221.5zM530 567h367l-154 482q-17 54 -24 129h-8q-5 -63 -25 -125z" />
<glyph unicode="&#x103;" d="M57 285q0 298 353 344l278 37q0 168 -182 168q-183 0 -348 -109v238q66 34 180.5 60t208.5 26q438 0 438 -437v-612h-299v147h-4q-103 -172 -305 -172q-149 0 -234.5 84.5t-85.5 225.5zM234 1493h179q17 -135 159 -135q137 0 156 135h180q-12 -141 -102.5 -224 t-237.5 -83q-146 0 -238 85.5t-96 221.5zM348 322q0 -54 37.5 -88.5t101.5 -34.5q89 0 145 61.5t56 155.5v69l-186 -24q-154 -20 -154 -139z" />
<glyph unicode="&#x104;" horiz-adv-x="1440" d="M10 0l522 1434h383l510 -1434h-352l-102 319h-510l-101 -319h-350zM530 567h367l-154 482q-17 54 -24 129h-8q-5 -63 -25 -125zM908 -245q0 31 11 64.5t32 66t52 61.5t71 53h155q-78 -57 -115.5 -111.5t-37.5 -96.5q0 -33 17 -49.5t46 -16.5q19 0 40 3t41 9l1 -138 q-24 -8 -57.5 -13.5t-68.5 -5.5q-85 0 -136 44.5t-51 129.5z" />
<glyph unicode="&#x105;" d="M57 285q0 298 353 344l278 37q0 168 -182 168q-183 0 -348 -109v238q66 34 180.5 60t208.5 26q438 0 438 -437v-612h-299v147h-4q-103 -172 -305 -172q-149 0 -234.5 84.5t-85.5 225.5zM348 322q0 -54 37.5 -88.5t101.5 -34.5q89 0 145 61.5t56 155.5v69l-186 -24 q-154 -20 -154 -139zM521 -245q0 31 11 64.5t32 66t52 61.5t71 53h155q-78 -57 -115.5 -111.5t-37.5 -96.5q0 -33 17 -49.5t46 -16.5q19 0 40 3t41 9l1 -138q-24 -8 -57.5 -13.5t-68.5 -5.5q-85 0 -136 44.5t-51 129.5z" />
<glyph unicode="&#x106;" horiz-adv-x="1278" d="M74 686q0 344 212.5 558t551.5 214q210 0 354 -53v-311q-144 86 -328 86q-202 0 -326 -127t-124 -344q0 -208 117 -331.5t315 -123.5q189 0 346 92v-295q-157 -76 -410 -76q-330 0 -519 194t-189 517zM618 1567l260 323h281l-313 -323h-228z" />
<glyph unicode="&#x107;" horiz-adv-x="983" d="M72 487q0 261 156.5 411.5t418.5 150.5q181 0 262 -48v-268q-99 74 -221 74q-136 0 -215.5 -79.5t-79.5 -219.5q0 -136 76 -213.5t209 -77.5q118 0 231 74v-254q-107 -62 -309 -62q-236 0 -382 143t-146 369zM385 1186l260 323h281l-313 -323h-228z" />
<glyph unicode="&#x108;" horiz-adv-x="1278" d="M74 686q0 344 212.5 558t551.5 214q210 0 354 -53v-311q-144 86 -328 86q-202 0 -326 -127t-124 -344q0 -208 117 -331.5t315 -123.5q189 0 346 92v-295q-157 -76 -410 -76q-330 0 -519 194t-189 517zM440 1567l235 325h248l236 -325h-207l-158 188l-147 -188h-207z" />
<glyph unicode="&#x109;" horiz-adv-x="983" d="M72 487q0 261 156.5 411.5t418.5 150.5q181 0 262 -48v-268q-99 74 -221 74q-136 0 -215.5 -79.5t-79.5 -219.5q0 -136 76 -213.5t209 -77.5q118 0 231 74v-254q-107 -62 -309 -62q-236 0 -382 143t-146 369zM234 1186l235 325h248l236 -325h-207l-158 188l-147 -188 h-207z" />
<glyph unicode="&#x10a;" horiz-adv-x="1278" d="M74 686q0 344 212.5 558t551.5 214q210 0 354 -53v-311q-144 86 -328 86q-202 0 -326 -127t-124 -344q0 -208 117 -331.5t315 -123.5q189 0 346 92v-295q-157 -76 -410 -76q-330 0 -519 194t-189 517zM665 1704q0 60 44 97.5t110 37.5q67 0 109.5 -38t42.5 -97t-42.5 -98 t-109.5 -39t-110.5 40t-43.5 97z" />
<glyph unicode="&#x10b;" horiz-adv-x="983" d="M72 487q0 261 156.5 411.5t418.5 150.5q181 0 262 -48v-268q-99 74 -221 74q-136 0 -215.5 -79.5t-79.5 -219.5q0 -136 76 -213.5t209 -77.5q118 0 231 74v-254q-107 -62 -309 -62q-236 0 -382 143t-146 369zM456 1323q0 60 44 97.5t110 37.5q67 0 109.5 -38t42.5 -97 t-42.5 -98t-109.5 -39t-110.5 40t-43.5 97z" />
<glyph unicode="&#x10c;" horiz-adv-x="1278" d="M74 686q0 344 212.5 558t551.5 214q210 0 354 -53v-311q-144 86 -328 86q-202 0 -326 -127t-124 -344q0 -208 117 -331.5t315 -123.5q189 0 346 92v-295q-157 -76 -410 -76q-330 0 -519 194t-189 517zM442 1892h205l155 -188l156 188h205l-238 -325h-248z" />
<glyph unicode="&#x10d;" horiz-adv-x="983" d="M72 487q0 261 156.5 411.5t418.5 150.5q181 0 262 -48v-268q-99 74 -221 74q-136 0 -215.5 -79.5t-79.5 -219.5q0 -136 76 -213.5t209 -77.5q118 0 231 74v-254q-107 -62 -309 -62q-236 0 -382 143t-146 369zM229 1511h205l155 -188l156 188h205l-238 -325h-248z" />
<glyph unicode="&#x10e;" horiz-adv-x="1510" d="M164 0v1434h508q764 0 764 -699q0 -335 -208.5 -535t-555.5 -200h-508zM356 1892h205l155 -188l156 188h205l-238 -325h-248zM487 262h160q210 0 329.5 126t119.5 343q0 205 -118.5 322.5t-332.5 117.5h-158v-909z" />
<glyph unicode="&#x10f;" horiz-adv-x="1517" d="M72 489q0 254 129 407t338 153q198 0 276 -142h4v609h316v-1516h-316v141h-4q-108 -166 -317 -166q-192 0 -309 135.5t-117 378.5zM393 498q0 -135 57 -208t158 -73q96 0 156.5 77t60.5 204v77q0 100 -58 166t-151 66q-105 0 -164 -82.5t-59 -226.5zM1218 1164l90 352 h272l-168 -352h-194z" />
<glyph unicode="&#x110;" horiz-adv-x="1510" d="M0 586v266h164v582h508q764 0 764 -699q0 -335 -208.5 -535t-555.5 -200h-508v586h-164zM487 262h160q210 0 329.5 126t119.5 343q0 205 -118.5 322.5t-332.5 117.5h-158v-319h271v-266h-271v-324z" />
<glyph unicode="&#x111;" horiz-adv-x="1295" d="M72 489q0 254 129 407t338 153q198 0 276 -142h4v264h-330v205h330v140h316v-140h143v-205h-143v-1171h-316v141h-4q-108 -166 -317 -166q-192 0 -309 135.5t-117 378.5zM393 498q0 -135 57 -208t158 -73q96 0 156.5 77t60.5 204v77q0 100 -58 166t-151 66 q-105 0 -164 -82.5t-59 -226.5z" />
<glyph unicode="&#x112;" horiz-adv-x="1090" d="M164 0v1434h827v-263h-504v-319h469v-262h-469v-328h537v-262h-860zM278 1567v172h586v-172h-586z" />
<glyph unicode="&#x113;" horiz-adv-x="1108" d="M72 496q0 255 148 404t364 149q224 0 346.5 -133t122.5 -361v-133h-668q16 -223 281 -223q169 0 297 80v-228q-142 -76 -369 -76q-248 0 -385 137.5t-137 383.5zM281 1186v172h586v-172h-586zM383 616h377q0 220 -178 220q-76 0 -131.5 -63t-67.5 -157z" />
<glyph unicode="&#x114;" horiz-adv-x="1090" d="M164 0v1434h827v-263h-504v-319h469v-262h-469v-328h537v-262h-860zM252 1874h179q17 -135 159 -135q137 0 156 135h180q-12 -141 -102.5 -224t-237.5 -83q-146 0 -238 85.5t-96 221.5z" />
<glyph unicode="&#x115;" horiz-adv-x="1108" d="M72 496q0 255 148 404t364 149q224 0 346.5 -133t122.5 -361v-133h-668q16 -223 281 -223q169 0 297 80v-228q-142 -76 -369 -76q-248 0 -385 137.5t-137 383.5zM237 1493h179q17 -135 159 -135q137 0 156 135h180q-12 -141 -102.5 -224t-237.5 -83q-146 0 -238 85.5 t-96 221.5zM383 616h377q0 220 -178 220q-76 0 -131.5 -63t-67.5 -157z" />
<glyph unicode="&#x116;" horiz-adv-x="1090" d="M164 0v1434h827v-263h-504v-319h469v-262h-469v-328h537v-262h-860zM435 1704q0 60 44 97.5t110 37.5q67 0 109.5 -38t42.5 -97t-42.5 -98t-109.5 -39t-110.5 40t-43.5 97z" />
<glyph unicode="&#x117;" horiz-adv-x="1108" d="M72 496q0 255 148 404t364 149q224 0 346.5 -133t122.5 -361v-133h-668q16 -223 281 -223q169 0 297 80v-228q-142 -76 -369 -76q-248 0 -385 137.5t-137 383.5zM383 616h377q0 220 -178 220q-76 0 -131.5 -63t-67.5 -157zM442 1323q0 60 44 97.5t110 37.5 q67 0 109.5 -38t42.5 -97t-42.5 -98t-109.5 -39t-110.5 40t-43.5 97z" />
<glyph unicode="&#x118;" horiz-adv-x="1090" d="M164 0v1434h827v-263h-504v-319h469v-262h-469v-328h537v-262h-860zM607 -245q0 31 11 64.5t32 66t52 61.5t71 53h155q-78 -57 -115.5 -111.5t-37.5 -96.5q0 -33 17 -49.5t46 -16.5q19 0 40 3t41 9l1 -138q-24 -8 -57.5 -13.5t-68.5 -5.5q-85 0 -136 44.5t-51 129.5z" />
<glyph unicode="&#x119;" horiz-adv-x="1108" d="M72 496q0 255 148 404t364 149q224 0 346.5 -133t122.5 -361v-133h-668q16 -223 281 -223q169 0 297 80v-228q-142 -76 -369 -76q-248 0 -385 137.5t-137 383.5zM383 616h377q0 220 -178 220q-76 0 -131.5 -63t-67.5 -157zM495 -245q0 31 11 64.5t32 66t52 61.5t71 53 h155q-78 -57 -115.5 -111.5t-37.5 -96.5q0 -33 17 -49.5t46 -16.5q19 0 40 3t41 9l1 -138q-24 -8 -57.5 -13.5t-68.5 -5.5q-85 0 -136 44.5t-51 129.5z" />
<glyph unicode="&#x11a;" horiz-adv-x="1090" d="M164 0v1434h827v-263h-504v-319h469v-262h-469v-328h537v-262h-860zM233 1892h205l155 -188l156 188h205l-238 -325h-248z" />
<glyph unicode="&#x11b;" horiz-adv-x="1108" d="M72 496q0 255 148 404t364 149q224 0 346.5 -133t122.5 -361v-133h-668q16 -223 281 -223q169 0 297 80v-228q-142 -76 -369 -76q-248 0 -385 137.5t-137 383.5zM214 1511h205l155 -188l156 188h205l-238 -325h-248zM383 616h377q0 220 -178 220q-76 0 -131.5 -63 t-67.5 -157z" />
<glyph unicode="&#x11c;" horiz-adv-x="1456" d="M74 694q0 338 218 551t580 213q228 0 402 -63v-303q-166 96 -406 96q-201 0 -327.5 -130.5t-126.5 -348.5q0 -221 113.5 -342t306.5 -121q116 0 184 33v280h-287v258h610v-721q-210 -121 -522 -121q-346 0 -545.5 191.5t-199.5 527.5zM477 1567l235 325h248l236 -325 h-207l-158 188l-147 -188h-207z" />
<glyph unicode="&#x11d;" horiz-adv-x="1268" d="M72 483q0 260 128 413t337 153q187 0 280 -144h4v119h316v-907q0 -285 -165 -441.5t-478 -156.5q-207 0 -328 59v266q158 -92 319 -92q160 0 248 84.5t88 229.5v81h-4q-108 -172 -319 -172q-196 0 -311 138t-115 370zM274 1186l235 325h248l236 -325h-207l-158 188 l-147 -188h-207zM393 494q0 -128 57 -202.5t156 -74.5q98 0 158.5 75.5t60.5 199.5v81q0 97 -57.5 165.5t-149.5 68.5q-105 0 -165 -82t-60 -231z" />
<glyph unicode="&#x11e;" horiz-adv-x="1456" d="M74 694q0 338 218 551t580 213q228 0 402 -63v-303q-166 96 -406 96q-201 0 -327.5 -130.5t-126.5 -348.5q0 -221 113.5 -342t306.5 -121q116 0 184 33v280h-287v258h610v-721q-210 -121 -522 -121q-346 0 -545.5 191.5t-199.5 527.5zM469 1874h179q17 -135 159 -135 q137 0 156 135h180q-12 -141 -102.5 -224t-237.5 -83q-146 0 -238 85.5t-96 221.5z" />
<glyph unicode="&#x11f;" horiz-adv-x="1268" d="M72 483q0 260 128 413t337 153q187 0 280 -144h4v119h316v-907q0 -285 -165 -441.5t-478 -156.5q-207 0 -328 59v266q158 -92 319 -92q160 0 248 84.5t88 229.5v81h-4q-108 -172 -319 -172q-196 0 -311 138t-115 370zM297 1493h179q17 -135 159 -135q137 0 156 135h180 q-12 -141 -102.5 -224t-237.5 -83q-146 0 -238 85.5t-96 221.5zM393 494q0 -128 57 -202.5t156 -74.5q98 0 158.5 75.5t60.5 199.5v81q0 97 -57.5 165.5t-149.5 68.5q-105 0 -165 -82t-60 -231z" />
<glyph unicode="&#x120;" horiz-adv-x="1456" d="M74 694q0 338 218 551t580 213q228 0 402 -63v-303q-166 96 -406 96q-201 0 -327.5 -130.5t-126.5 -348.5q0 -221 113.5 -342t306.5 -121q116 0 184 33v280h-287v258h610v-721q-210 -121 -522 -121q-346 0 -545.5 191.5t-199.5 527.5zM665 1704q0 60 44 97.5t110 37.5 q67 0 109.5 -38t42.5 -97t-42.5 -98t-109.5 -39t-110.5 40t-43.5 97z" />
<glyph unicode="&#x121;" horiz-adv-x="1268" d="M72 483q0 260 128 413t337 153q187 0 280 -144h4v119h316v-907q0 -285 -165 -441.5t-478 -156.5q-207 0 -328 59v266q158 -92 319 -92q160 0 248 84.5t88 229.5v81h-4q-108 -172 -319 -172q-196 0 -311 138t-115 370zM393 494q0 -128 57 -202.5t156 -74.5 q98 0 158.5 75.5t60.5 199.5v81q0 97 -57.5 165.5t-149.5 68.5q-105 0 -165 -82t-60 -231zM480 1323q0 60 44 97.5t110 37.5q67 0 109.5 -38t42.5 -97t-42.5 -98t-109.5 -39t-110.5 40t-43.5 97z" />
<glyph unicode="&#x122;" horiz-adv-x="1456" d="M74 694q0 338 218 551t580 213q228 0 402 -63v-303q-166 96 -406 96q-201 0 -327.5 -130.5t-126.5 -348.5q0 -221 113.5 -342t306.5 -121q116 0 184 33v280h-287v258h610v-721q-210 -121 -522 -121q-346 0 -545.5 191.5t-199.5 527.5zM610 -469l90 352h272l-168 -352 h-194z" />
<glyph unicode="&#x123;" horiz-adv-x="1268" d="M72 483q0 260 128 413t337 153q187 0 280 -144h4v119h316v-907q0 -285 -165 -441.5t-478 -156.5q-207 0 -328 59v266q158 -92 319 -92q160 0 248 84.5t88 229.5v81h-4q-108 -172 -319 -172q-196 0 -311 138t-115 370zM393 494q0 -128 57 -202.5t156 -74.5 q98 0 158.5 75.5t60.5 199.5v81q0 97 -57.5 165.5t-149.5 68.5q-105 0 -165 -82t-60 -231zM459 1186l168 352h194l-90 -352h-272z" />
<glyph unicode="&#x124;" horiz-adv-x="1569" d="M164 0v1434h323v-572h594v572h324v-1434h-324v584h-594v-584h-323zM425 1567l235 325h248l236 -325h-207l-158 188l-147 -188h-207z" />
<glyph unicode="&#x125;" horiz-adv-x="1233" d="M133 0v1516h316v-644h4q116 177 315 177q348 0 348 -420v-629h-315v582q0 225 -164 225q-84 0 -136 -63t-52 -160v-584h-316zM293 1567l235 325h248l236 -325h-207l-158 188l-147 -188h-207z" />
<glyph unicode="&#x126;" horiz-adv-x="1569" d="M0 1018v205h164v211h323v-211h594v211h324v-211h164v-205h-164v-1018h-324v584h-594v-584h-323v1018h-164zM487 862h594v156h-594v-156z" />
<glyph unicode="&#x127;" horiz-adv-x="1262" d="M27 1179v159h143v178h315v-178h330v-159h-330v-329h4q116 176 316 176q344 0 344 -420v-606h-311v553q0 225 -164 225q-88 0 -138.5 -61t-50.5 -158v-559h-315v1179h-143z" />
<glyph unicode="&#x128;" horiz-adv-x="649" d="M-35 1549q0 139 55 216t154 77q81 0 168 -49q79 -44 120 -44q78 0 78 111h144q0 -140 -55.5 -216.5t-151.5 -76.5q-86 0 -168 43q-89 47 -123 47q-80 0 -80 -108h-141zM44 0v250h120v934h-120v250h563v-250h-120v-934h120v-250h-563z" />
<glyph unicode="&#x129;" horiz-adv-x="582" d="M-69 1186q0 139 55 216t154 77q81 0 168 -49q79 -44 120 -44q78 0 78 111h144q0 -140 -55.5 -216.5t-151.5 -76.5q-86 0 -168 43q-89 47 -123 47q-80 0 -80 -108h-141zM133 0v1024h316v-1024h-316z" />
<glyph unicode="&#x12a;" horiz-adv-x="649" d="M31 1567v172h586v-172h-586zM44 0v250h120v934h-120v250h563v-250h-120v-934h120v-250h-563z" />
<glyph unicode="&#x12b;" horiz-adv-x="582" d="M-2 1186v172h586v-172h-586zM133 0v1024h316v-1024h-316z" />
<glyph unicode="&#x12c;" horiz-adv-x="649" d="M-12 1874h179q17 -135 159 -135q137 0 156 135h180q-12 -141 -102.5 -224t-237.5 -83q-146 0 -238 85.5t-96 221.5zM44 0v250h120v934h-120v250h563v-250h-120v-934h120v-250h-563z" />
<glyph unicode="&#x12d;" horiz-adv-x="582" d="M-46 1493h179q17 -135 159 -135q137 0 156 135h180q-12 -141 -102.5 -224t-237.5 -83q-146 0 -238 85.5t-96 221.5zM133 0v1024h316v-1024h-316z" />
<glyph unicode="&#x12e;" horiz-adv-x="649" d="M44 0v250h120v934h-120v250h563v-250h-120v-934h120v-250h-563zM165 -245q0 31 11 64.5t32 66t52 61.5t71 53h155q-78 -57 -115.5 -111.5t-37.5 -96.5q0 -33 17 -49.5t46 -16.5q19 0 40 3t41 9l1 -138q-24 -8 -57.5 -13.5t-68.5 -5.5q-85 0 -136 44.5t-51 129.5z" />
<glyph unicode="&#x12f;" horiz-adv-x="582" d="M111 1350q0 71 51 116t131 45q81 0 131.5 -45t50.5 -116q0 -72 -50.5 -118t-131.5 -46q-80 0 -131 47.5t-51 116.5zM128 -245q0 31 11 64.5t32 66t52 61.5t71 53h155q-78 -57 -115.5 -111.5t-37.5 -96.5q0 -33 17 -49.5t46 -16.5q19 0 40 3t41 9l1 -138 q-24 -8 -57.5 -13.5t-68.5 -5.5q-85 0 -136 44.5t-51 129.5zM133 0v1024h316v-1024h-316z" />
<glyph unicode="&#x130;" horiz-adv-x="649" d="M44 0v250h120v934h-120v250h563v-250h-120v-934h120v-250h-563zM171 1704q0 60 44 97.5t110 37.5q67 0 109.5 -38t42.5 -97t-42.5 -98t-109.5 -39t-110.5 40t-43.5 97z" />
<glyph unicode="&#x131;" horiz-adv-x="582" d="M133 0v1024h316v-1024h-316z" />
<glyph unicode="&#x132;" horiz-adv-x="1561" d="M44 0v250h120v934h-120v250h563v-250h-120v-934h120v-250h-563zM683 14v303q83 -63 186 -63q221 0 221 328v852h322v-865q0 -288 -133.5 -441t-386.5 -153q-113 0 -209 39z" />
<glyph unicode="&#x133;" horiz-adv-x="1238" d="M111 1350q0 71 51 116t131 45q81 0 131.5 -45t50.5 -116q0 -72 -50.5 -118t-131.5 -46q-80 0 -131 47.5t-51 116.5zM133 0v1024h316v-1024h-316zM523 -203q66 -37 117 -37q149 0 149 234v1030h316v-1006q0 -227 -111 -363t-320 -136q-69 0 -151 30v248zM767 1350 q0 71 51 116t131 45q81 0 131.5 -45t50.5 -116q0 -72 -50.5 -118t-131.5 -46q-80 0 -131 47.5t-51 116.5z" />
<glyph unicode="&#x134;" horiz-adv-x="912" d="M33 14v303q83 -63 186 -63q221 0 221 328v852h322v-865q0 -288 -133.5 -441t-386.5 -153q-113 0 -209 39zM240 1567l235 325h248l236 -325h-207l-158 188l-147 -188h-207z" />
<glyph unicode="&#x135;" horiz-adv-x="582" d="M-133 -203q66 -37 117 -37q149 0 149 234v1030h316v-1006q0 -227 -111 -363t-320 -136q-69 0 -151 30v248zM-70 1186l235 325h248l236 -325h-207l-158 188l-147 -188h-207z" />
<glyph unicode="&#x136;" horiz-adv-x="1329" d="M164 0v1434h323v-678h5q12 28 40 80l396 598h385l-500 -684l543 -750h-408l-418 623q-12 18 -38 79h-5v-702h-323zM524 -469l90 352h272l-168 -352h-194z" />
<glyph unicode="&#x137;" horiz-adv-x="1145" d="M133 0v1516h316v-965h4l305 473h375l-367 -481l393 -543h-379l-327 508h-4v-508h-316zM403 -469l90 352h272l-168 -352h-194z" />
<glyph unicode="&#x138;" horiz-adv-x="1145" d="M133 0v1024h316v-473h4l305 473h375l-367 -481l393 -543h-379l-327 508h-4v-508h-316z" />
<glyph unicode="&#x139;" horiz-adv-x="1047" d="M164 0v1434h323v-1172h531v-262h-854zM362 1567l260 323h281l-313 -323h-228z" />
<glyph unicode="&#x13a;" horiz-adv-x="582" d="M111 1649l260 323h281l-313 -323h-228zM133 0v1516h316v-1516h-316z" />
<glyph unicode="&#x13b;" horiz-adv-x="1047" d="M164 0v1434h323v-1172h531v-262h-854zM434 -313q35 -6 72 -6q123 0 123 73q0 66 -111 66q-13 0 -37 -2v182h172v-82q187 -8 187 -166q0 -207 -318 -207q-46 0 -88 4v138z" />
<glyph unicode="&#x13c;" horiz-adv-x="582" d="M127 -313q35 -6 72 -6q123 0 123 73q0 66 -111 66q-13 0 -37 -2v182h172v-82q187 -8 187 -166q0 -207 -318 -207q-46 0 -88 4v138zM133 0v1516h316v-1516h-316z" />
<glyph unicode="&#x13d;" horiz-adv-x="1047" d="M164 0v1434h323v-1172h531v-262h-854zM692 1084l90 352h272l-168 -352h-194z" />
<glyph unicode="&#x13e;" horiz-adv-x="746" d="M133 0v1516h316v-1516h-316zM555 1164l90 352h272l-168 -352h-194z" />
<glyph unicode="&#x13f;" horiz-adv-x="1047" d="M164 0v1434h323v-1172h531v-262h-854zM673 788q0 60 44 97.5t110 37.5q67 0 109.5 -38t42.5 -97t-42.5 -98t-109.5 -39t-110.5 40t-43.5 97z" />
<glyph unicode="&#x140;" horiz-adv-x="887" d="M133 0v1516h316v-1516h-316zM581 727q0 60 44 97.5t110 37.5q67 0 109.5 -38t42.5 -97t-42.5 -98t-109.5 -39t-110.5 40t-43.5 97z" />
<glyph unicode="&#x141;" horiz-adv-x="1047" d="M2 381v264l162 84v705h323v-549l283 149v-262l-283 -149v-361h531v-262h-854v467z" />
<glyph unicode="&#x142;" horiz-adv-x="643" d="M29 389v258l131 82v787h315v-592l135 86v-256l-135 -86v-668h-315v473z" />
<glyph unicode="&#x143;" horiz-adv-x="1618" d="M164 0v1434h348l569 -873q39 -59 72 -117h4q-8 50 -8 197v793h305v-1434h-326l-591 901q-52 79 -72 119h-4q8 -76 8 -232v-788h-305zM602 1567l260 323h281l-313 -323h-228z" />
<glyph unicode="&#x144;" horiz-adv-x="1239" d="M133 0v1024h316v-162h4q113 187 329 187q340 0 340 -422v-627h-315v569q0 238 -170 238q-82 0 -135 -63t-53 -160v-584h-316zM431 1186l260 323h281l-313 -323h-228z" />
<glyph unicode="&#x145;" horiz-adv-x="1618" d="M164 0v1434h348l569 -873q39 -59 72 -117h4q-8 50 -8 197v793h305v-1434h-326l-591 901q-52 79 -72 119h-4q8 -76 8 -232v-788h-305zM628 -469l90 352h272l-168 -352h-194z" />
<glyph unicode="&#x146;" horiz-adv-x="1239" d="M133 0v1024h316v-162h4q113 187 329 187q340 0 340 -422v-627h-315v569q0 238 -170 238q-82 0 -135 -63t-53 -160v-584h-316zM438 -469l90 352h272l-168 -352h-194z" />
<glyph unicode="&#x147;" horiz-adv-x="1618" d="M164 0v1434h348l569 -873q39 -59 72 -117h4q-8 50 -8 197v793h305v-1434h-326l-591 901q-52 79 -72 119h-4q8 -76 8 -232v-788h-305zM449 1892h205l155 -188l156 188h205l-238 -325h-248z" />
<glyph unicode="&#x148;" horiz-adv-x="1239" d="M133 0v1024h316v-162h4q113 187 329 187q340 0 340 -422v-627h-315v569q0 238 -170 238q-82 0 -135 -63t-53 -160v-584h-316zM280 1511h205l155 -188l156 188h205l-238 -325h-248z" />
<glyph unicode="&#x149;" horiz-adv-x="1403" d="M-61 1024l114 444h273l-193 -444h-194zM297 0v1024h315v-162h4q113 187 330 187q340 0 340 -422v-627h-315v569q0 238 -170 238q-84 0 -136.5 -63.5t-52.5 -159.5v-584h-315z" />
<glyph unicode="&#x14a;" horiz-adv-x="1618" d="M164 0v1434h348l569 -840q57 -84 72 -117h4q-8 50 -8 197v760h305v-1354q0 -500 -397 -500q-119 0 -203 31v248q66 -37 139 -37q152 0 156 181l-612 898q-46 68 -72 119h-4q8 -76 8 -232v-788h-305z" />
<glyph unicode="&#x14b;" horiz-adv-x="1239" d="M133 0v1024h316v-162h4q113 187 329 187q340 0 340 -422v-564q0 -485 -409 -485q-88 0 -172 31v248q66 -37 116 -37q150 0 150 233v516q0 238 -170 238q-82 0 -135 -63t-53 -160v-584h-316z" />
<glyph unicode="&#x14c;" horiz-adv-x="1553" d="M74 698q0 340 197 550t522 210q307 0 496.5 -201t189.5 -530q0 -338 -196.5 -545t-512.5 -207q-308 0 -502 200.5t-194 522.5zM414 715q0 -213 100 -337t262 -124q167 0 265 120.5t98 334.5q0 223 -95 347t-260 124q-170 0 -270 -127.5t-100 -337.5zM483 1567v172h586 v-172h-586z" />
<glyph unicode="&#x14d;" horiz-adv-x="1252" d="M72 508q0 254 152 397.5t411 143.5q255 0 400 -143.5t145 -379.5q0 -255 -149.5 -403t-409.5 -148q-256 0 -402.5 143.5t-146.5 389.5zM333 1186v172h586v-172h-586zM393 512q0 -295 238 -295q227 0 227 303q0 287 -229 287q-112 0 -174 -77t-62 -218z" />
<glyph unicode="&#x14e;" horiz-adv-x="1553" d="M74 698q0 340 197 550t522 210q307 0 496.5 -201t189.5 -530q0 -338 -196.5 -545t-512.5 -207q-308 0 -502 200.5t-194 522.5zM414 715q0 -213 100 -337t262 -124q167 0 265 120.5t98 334.5q0 223 -95 347t-260 124q-170 0 -270 -127.5t-100 -337.5zM439 1874h179 q17 -135 159 -135q137 0 156 135h180q-12 -141 -102.5 -224t-237.5 -83q-146 0 -238 85.5t-96 221.5z" />
<glyph unicode="&#x14f;" horiz-adv-x="1252" d="M72 508q0 254 152 397.5t411 143.5q255 0 400 -143.5t145 -379.5q0 -255 -149.5 -403t-409.5 -148q-256 0 -402.5 143.5t-146.5 389.5zM289 1493h179q17 -135 159 -135q137 0 156 135h180q-12 -141 -102.5 -224t-237.5 -83q-146 0 -238 85.5t-96 221.5zM393 512 q0 -295 238 -295q227 0 227 303q0 287 -229 287q-112 0 -174 -77t-62 -218z" />
<glyph unicode="&#x150;" horiz-adv-x="1553" d="M74 698q0 340 197 550t522 210q307 0 496.5 -201t189.5 -530q0 -338 -196.5 -545t-512.5 -207q-308 0 -502 200.5t-194 522.5zM414 715q0 -213 100 -337t262 -124q167 0 265 120.5t98 334.5q0 223 -95 347t-260 124q-170 0 -270 -127.5t-100 -337.5zM440 1567l211 319 h248l-248 -319h-211zM815 1567l213 319h249l-252 -319h-210z" />
<glyph unicode="&#x151;" horiz-adv-x="1252" d="M72 508q0 254 152 397.5t411 143.5q255 0 400 -143.5t145 -379.5q0 -255 -149.5 -403t-409.5 -148q-256 0 -402.5 143.5t-146.5 389.5zM269 1186l211 319h248l-248 -319h-211zM393 512q0 -295 238 -295q227 0 227 303q0 287 -229 287q-112 0 -174 -77t-62 -218zM644 1186 l213 319h249l-252 -319h-210z" />
<glyph unicode="&#x152;" horiz-adv-x="1925" d="M74 698q0 342 194 551t516 209q63 0 151 -12q89 -12 109 -12h783v-263h-504v-323h469v-264h-469v-322h537v-262h-828q-26 0 -117 -12q-90 -13 -157 -13q-307 0 -495.5 203t-188.5 520zM416 711q0 -208 101 -332.5t261 -124.5q116 0 213 51v823q-86 52 -209 52 q-168 0 -267 -129.5t-99 -339.5z" />
<glyph unicode="&#x153;" horiz-adv-x="1893" d="M72 508q0 251 147 397t389 146q134 0 238.5 -49.5t154.5 -127.5h5q118 175 376 175q213 0 334 -134t121 -358v-135h-670q14 -223 283 -223q167 0 295 80v-228q-142 -76 -346 -76q-252 0 -391 189h-4q-137 -187 -408 -187q-234 0 -379 143t-145 388zM393 512 q0 -293 236 -293q229 0 229 297q0 138 -59.5 214.5t-167.5 76.5q-113 0 -175.5 -77.5t-62.5 -217.5zM1167 616h375q0 220 -174 220q-80 0 -135 -63.5t-66 -156.5z" />
<glyph unicode="&#x154;" horiz-adv-x="1337" d="M164 0v1434h512q522 0 522 -390q0 -75 -23 -138.5t-65 -114.5t-101.5 -88t-132.5 -58v-4q32 -10 62 -32.5t58 -52.5t53.5 -64.5t46.5 -67.5l271 -424h-371l-223 369q-25 42 -48 75t-46.5 56.5t-49 36t-55.5 12.5h-87v-549h-323zM438 1567l260 323h281l-313 -323h-228z M487 793h140q104 0 167 60q64 61 64 151q0 188 -225 188h-146v-399z" />
<glyph unicode="&#x155;" horiz-adv-x="815" d="M133 0v1024h316v-190h4q75 208 270 208q50 0 78 -12v-291q-57 31 -133 31q-103 0 -161 -75.5t-58 -205.5v-489h-316zM231 1186l260 323h281l-313 -323h-228z" />
<glyph unicode="&#x156;" horiz-adv-x="1337" d="M164 0v1434h512q522 0 522 -390q0 -75 -23 -138.5t-65 -114.5t-101.5 -88t-132.5 -58v-4q32 -10 62 -32.5t58 -52.5t53.5 -64.5t46.5 -67.5l271 -424h-371l-223 369q-25 42 -48 75t-46.5 56.5t-49 36t-55.5 12.5h-87v-549h-323zM487 -469l90 352h272l-168 -352h-194z M487 793h140q104 0 167 60q64 61 64 151q0 188 -225 188h-146v-399z" />
<glyph unicode="&#x157;" horiz-adv-x="815" d="M133 0v1024h316v-190h4q75 208 270 208q50 0 78 -12v-291q-57 31 -133 31q-103 0 -161 -75.5t-58 -205.5v-489h-316zM231 -469l90 352h272l-168 -352h-194z" />
<glyph unicode="&#x158;" horiz-adv-x="1337" d="M164 0v1434h512q522 0 522 -390q0 -75 -23 -138.5t-65 -114.5t-101.5 -88t-132.5 -58v-4q32 -10 62 -32.5t58 -52.5t53.5 -64.5t46.5 -67.5l271 -424h-371l-223 369q-25 42 -48 75t-46.5 56.5t-49 36t-55.5 12.5h-87v-549h-323zM276 1892h205l155 -188l156 188h205 l-238 -325h-248zM487 793h140q104 0 167 60q64 61 64 151q0 188 -225 188h-146v-399z" />
<glyph unicode="&#x159;" horiz-adv-x="815" d="M68 1511h205l155 -188l156 188h205l-238 -325h-248zM133 0v1024h316v-190h4q75 208 270 208q50 0 78 -12v-291q-57 31 -133 31q-103 0 -161 -75.5t-58 -205.5v-489h-316z" />
<glyph unicode="&#x15a;" horiz-adv-x="1148" d="M92 1032q0 112 45 192.5t122.5 132.5t179.5 76.5t216 24.5q112 0 198.5 -13.5t159.5 -41.5v-299q-36 25 -78.5 44t-87.5 31.5t-89.5 18.5t-84.5 6q-55 0 -100 -10.5t-76 -29.5t-48 -45.5t-17 -59.5q0 -36 19 -64.5t54 -54t85 -50t113 -50.5q86 -36 154.5 -76.5 t117.5 -91.5t75 -116.5t26 -152.5q0 -120 -45.5 -201.5t-123.5 -132t-181.5 -72.5t-218.5 -22q-118 0 -224.5 20t-184.5 60v320q87 -73 189 -109.5t206 -36.5q61 0 106.5 11t76 30.5t45.5 46t15 57.5q0 42 -24 75t-65.5 61t-98.5 54t-123 53q-168 70 -250.5 171t-82.5 244z M338 1567l260 323h281l-313 -323h-228z" />
<glyph unicode="&#x15b;" horiz-adv-x="901" d="M66 27v256q78 -47 155.5 -70t146.5 -23q84 0 132.5 23t48.5 70q0 30 -22 50t-56.5 35t-75.5 27t-79 27q-61 23 -107.5 49.5t-78 61.5t-48 81t-16.5 109q0 86 37.5 148t100 101.5t143 58t167.5 18.5q68 0 138 -10.5t138 -30.5v-244q-60 35 -128.5 52.5t-134.5 17.5 q-31 0 -58.5 -5.5t-48.5 -16t-33 -27t-12 -37.5q0 -28 18 -48t47 -34.5t64.5 -26t70.5 -23.5q63 -22 114 -48t87.5 -61t56 -82t19.5 -112q0 -91 -39.5 -155.5t-105 -105t-151 -59t-177.5 -18.5q-169 0 -313 52zM252 1186l260 323h281l-313 -323h-228z" />
<glyph unicode="&#x15c;" horiz-adv-x="1148" d="M92 1032q0 112 45 192.5t122.5 132.5t179.5 76.5t216 24.5q112 0 198.5 -13.5t159.5 -41.5v-299q-36 25 -78.5 44t-87.5 31.5t-89.5 18.5t-84.5 6q-55 0 -100 -10.5t-76 -29.5t-48 -45.5t-17 -59.5q0 -36 19 -64.5t54 -54t85 -50t113 -50.5q86 -36 154.5 -76.5 t117.5 -91.5t75 -116.5t26 -152.5q0 -120 -45.5 -201.5t-123.5 -132t-181.5 -72.5t-218.5 -22q-118 0 -224.5 20t-184.5 60v320q87 -73 189 -109.5t206 -36.5q61 0 106.5 11t76 30.5t45.5 46t15 57.5q0 42 -24 75t-65.5 61t-98.5 54t-123 53q-168 70 -250.5 171t-82.5 244z M203 1567l235 325h248l236 -325h-207l-158 188l-147 -188h-207z" />
<glyph unicode="&#x15d;" horiz-adv-x="901" d="M66 27v256q78 -47 155.5 -70t146.5 -23q84 0 132.5 23t48.5 70q0 30 -22 50t-56.5 35t-75.5 27t-79 27q-61 23 -107.5 49.5t-78 61.5t-48 81t-16.5 109q0 86 37.5 148t100 101.5t143 58t167.5 18.5q68 0 138 -10.5t138 -30.5v-244q-60 35 -128.5 52.5t-134.5 17.5 q-31 0 -58.5 -5.5t-48.5 -16t-33 -27t-12 -37.5q0 -28 18 -48t47 -34.5t64.5 -26t70.5 -23.5q63 -22 114 -48t87.5 -61t56 -82t19.5 -112q0 -91 -39.5 -155.5t-105 -105t-151 -59t-177.5 -18.5q-169 0 -313 52zM106 1186l235 325h248l236 -325h-207l-158 188l-147 -188h-207 z" />
<glyph unicode="&#x15e;" horiz-adv-x="1148" d="M92 1032q0 112 45 192.5t122.5 132.5t179.5 76.5t216 24.5q112 0 198.5 -13.5t159.5 -41.5v-299q-36 25 -78.5 44t-87.5 31.5t-89.5 18.5t-84.5 6q-55 0 -100 -10.5t-76 -29.5t-48 -45.5t-17 -59.5q0 -36 19 -64.5t54 -54t85 -50t113 -50.5q86 -36 154.5 -76.5 t117.5 -91.5t75 -116.5t26 -152.5q0 -120 -45.5 -201.5t-123.5 -132t-181.5 -72.5t-218.5 -22q-118 0 -224.5 20t-184.5 60v320q87 -73 189 -109.5t206 -36.5q61 0 106.5 11t76 30.5t45.5 46t15 57.5q0 42 -24 75t-65.5 61t-98.5 54t-123 53q-168 70 -250.5 171t-82.5 244z M417 -313q35 -6 72 -6q123 0 123 73q0 66 -111 66q-13 0 -37 -2v182h172v-82q187 -8 187 -166q0 -207 -318 -207q-46 0 -88 4v138z" />
<glyph unicode="&#x15f;" horiz-adv-x="901" d="M66 27v256q78 -47 155.5 -70t146.5 -23q84 0 132.5 23t48.5 70q0 30 -22 50t-56.5 35t-75.5 27t-79 27q-61 23 -107.5 49.5t-78 61.5t-48 81t-16.5 109q0 86 37.5 148t100 101.5t143 58t167.5 18.5q68 0 138 -10.5t138 -30.5v-244q-60 35 -128.5 52.5t-134.5 17.5 q-31 0 -58.5 -5.5t-48.5 -16t-33 -27t-12 -37.5q0 -28 18 -48t47 -34.5t64.5 -26t70.5 -23.5q63 -22 114 -48t87.5 -61t56 -82t19.5 -112q0 -91 -39.5 -155.5t-105 -105t-151 -59t-177.5 -18.5q-169 0 -313 52zM279 -313q35 -6 72 -6q123 0 123 73q0 66 -111 66 q-13 0 -37 -2v182h172v-82q187 -8 187 -166q0 -207 -318 -207q-46 0 -88 4v138z" />
<glyph unicode="&#x160;" horiz-adv-x="1148" d="M92 1032q0 112 45 192.5t122.5 132.5t179.5 76.5t216 24.5q112 0 198.5 -13.5t159.5 -41.5v-299q-36 25 -78.5 44t-87.5 31.5t-89.5 18.5t-84.5 6q-55 0 -100 -10.5t-76 -29.5t-48 -45.5t-17 -59.5q0 -36 19 -64.5t54 -54t85 -50t113 -50.5q86 -36 154.5 -76.5 t117.5 -91.5t75 -116.5t26 -152.5q0 -120 -45.5 -201.5t-123.5 -132t-181.5 -72.5t-218.5 -22q-118 0 -224.5 20t-184.5 60v320q87 -73 189 -109.5t206 -36.5q61 0 106.5 11t76 30.5t45.5 46t15 57.5q0 42 -24 75t-65.5 61t-98.5 54t-123 53q-168 70 -250.5 171t-82.5 244z M252 1861h205l155 -188l156 188h205l-238 -325h-248z" />
<glyph unicode="&#x161;" horiz-adv-x="901" d="M66 27v256q78 -47 155.5 -70t146.5 -23q84 0 132.5 23t48.5 70q0 30 -22 50t-56.5 35t-75.5 27t-79 27q-61 23 -107.5 49.5t-78 61.5t-48 81t-16.5 109q0 86 37.5 148t100 101.5t143 58t167.5 18.5q68 0 138 -10.5t138 -30.5v-244q-60 35 -128.5 52.5t-134.5 17.5 q-31 0 -58.5 -5.5t-48.5 -16t-33 -27t-12 -37.5q0 -28 18 -48t47 -34.5t64.5 -26t70.5 -23.5q63 -22 114 -48t87.5 -61t56 -82t19.5 -112q0 -91 -39.5 -155.5t-105 -105t-151 -59t-177.5 -18.5q-169 0 -313 52zM90 1511h205l155 -188l156 188h205l-238 -325h-248z" />
<glyph unicode="&#x162;" horiz-adv-x="1200" d="M31 1171v263h1140v-263h-409v-1171h-324v1171h-407zM426 -313q35 -6 72 -6q123 0 123 73q0 66 -111 66q-13 0 -37 -2v182h172v-82q187 -8 187 -166q0 -207 -318 -207q-46 0 -88 4v138z" />
<glyph unicode="&#x163;" horiz-adv-x="797" d="M41 791v233h166v221l315 90v-311h230v-233h-230v-414q0 -160 127 -160q50 0 103 29v-234q-70 -37 -211 -37q-334 0 -334 347v469h-166zM338 -313q35 -6 72 -6q123 0 123 73q0 66 -111 66q-13 0 -37 -2v182h172v-82q187 -8 187 -166q0 -207 -318 -207q-46 0 -88 4v138z " />
<glyph unicode="&#x164;" horiz-adv-x="1200" d="M31 1171v263h1140v-263h-409v-1171h-324v1171h-407zM240 1892h205l155 -188l156 188h205l-238 -325h-248z" />
<glyph unicode="&#x165;" horiz-adv-x="1050" d="M41 791v233h166v221l315 90v-311h230v-233h-230v-414q0 -160 127 -160q50 0 103 29v-234q-70 -37 -211 -37q-334 0 -334 347v469h-166zM751 1164l90 352h272l-168 -352h-194z" />
<glyph unicode="&#x166;" horiz-adv-x="1200" d="M31 1171v263h1140v-263h-409v-366h237v-266h-237v-539h-324v539h-237v266h237v366h-407z" />
<glyph unicode="&#x167;" horiz-adv-x="797" d="M41 791v233h166v221l315 90v-311h230v-233h-230v-144h219v-205h-219v-65q0 -160 127 -160q50 0 103 29v-234q-70 -37 -211 -37q-334 0 -334 347v120h-146v205h146v144h-166z" />
<glyph unicode="&#x168;" horiz-adv-x="1481" d="M147 606v828h324v-832q0 -348 272 -348q267 0 267 336v844h323v-813q0 -646 -602 -646q-584 0 -584 631zM381 1518q0 139 55 216t154 77q81 0 168 -49q79 -44 120 -44q78 0 78 111h144q0 -140 -55.5 -216.5t-151.5 -76.5q-86 0 -168 43q-89 47 -123 47q-80 0 -80 -108 h-141z" />
<glyph unicode="&#x169;" horiz-adv-x="1239" d="M117 406v618h315v-590q0 -217 172 -217q85 0 136 59.5t51 161.5v586h315v-1024h-315v156h-5q-117 -181 -313 -181q-356 0 -356 431zM260 1186q0 139 55 216t154 77q81 0 168 -49q79 -44 120 -44q78 0 78 111h144q0 -140 -55.5 -216.5t-151.5 -76.5q-86 0 -168 43 q-89 47 -123 47q-80 0 -80 -108h-141z" />
<glyph unicode="&#x16a;" horiz-adv-x="1481" d="M147 606v828h324v-832q0 -348 272 -348q267 0 267 336v844h323v-813q0 -646 -602 -646q-584 0 -584 631zM447 1567v172h586v-172h-586z" />
<glyph unicode="&#x16b;" horiz-adv-x="1239" d="M117 406v618h315v-590q0 -217 172 -217q85 0 136 59.5t51 161.5v586h315v-1024h-315v156h-5q-117 -181 -313 -181q-356 0 -356 431zM326 1186v172h586v-172h-586z" />
<glyph unicode="&#x16c;" horiz-adv-x="1481" d="M147 606v828h324v-832q0 -348 272 -348q267 0 267 336v844h323v-813q0 -646 -602 -646q-584 0 -584 631zM403 1874h179q17 -135 159 -135q137 0 156 135h180q-12 -141 -102.5 -224t-237.5 -83q-146 0 -238 85.5t-96 221.5z" />
<glyph unicode="&#x16d;" horiz-adv-x="1239" d="M117 406v618h315v-590q0 -217 172 -217q85 0 136 59.5t51 161.5v586h315v-1024h-315v156h-5q-117 -181 -313 -181q-356 0 -356 431zM282 1493h179q17 -135 159 -135q137 0 156 135h180q-12 -141 -102.5 -224t-237.5 -83q-146 0 -238 85.5t-96 221.5z" />
<glyph unicode="&#x16e;" horiz-adv-x="1481" d="M147 606v828h324v-832q0 -348 272 -348q267 0 267 336v844h323v-813q0 -646 -602 -646q-584 0 -584 631zM501 1782q0 101 69.5 161t170.5 60q107 0 173 -59.5t66 -155.5q0 -98 -71.5 -159.5t-172.5 -61.5q-102 0 -168.5 59.5t-66.5 155.5zM640 1786q0 -94 96 -94 q45 0 74 27.5t29 66.5q0 41 -28.5 67.5t-74.5 26.5q-96 0 -96 -94z" />
<glyph unicode="&#x16f;" horiz-adv-x="1239" d="M117 406v618h315v-590q0 -217 172 -217q85 0 136 59.5t51 161.5v586h315v-1024h-315v156h-5q-117 -181 -313 -181q-356 0 -356 431zM380 1401q0 101 69.5 161t170.5 60q107 0 173 -59.5t66 -155.5q0 -98 -71.5 -159.5t-172.5 -61.5q-102 0 -168.5 59.5t-66.5 155.5z M519 1405q0 -94 96 -94q45 0 74 27.5t29 66.5q0 41 -28.5 67.5t-74.5 26.5q-96 0 -96 -94z" />
<glyph unicode="&#x170;" horiz-adv-x="1481" d="M147 606v828h324v-832q0 -348 272 -348q267 0 267 336v844h323v-813q0 -646 -602 -646q-584 0 -584 631zM384 1567l211 319h248l-248 -319h-211zM759 1567l213 319h249l-252 -319h-210z" />
<glyph unicode="&#x171;" horiz-adv-x="1239" d="M117 406v618h315v-590q0 -217 172 -217q85 0 136 59.5t51 161.5v586h315v-1024h-315v156h-5q-117 -181 -313 -181q-356 0 -356 431zM253 1186l211 319h248l-248 -319h-211zM628 1186l213 319h249l-252 -319h-210z" />
<glyph unicode="&#x172;" horiz-adv-x="1481" d="M147 606v828h324v-832q0 -348 272 -348q267 0 267 336v844h323v-813q0 -646 -602 -646q-584 0 -584 631zM611 -245q0 31 11 64.5t32 66t52 61.5t71 53h155q-78 -57 -115.5 -111.5t-37.5 -96.5q0 -33 17 -49.5t46 -16.5q19 0 40 3t41 9l1 -138q-24 -8 -57.5 -13.5 t-68.5 -5.5q-85 0 -136 44.5t-51 129.5z" />
<glyph unicode="&#x173;" horiz-adv-x="1239" d="M117 406v618h315v-590q0 -217 172 -217q85 0 136 59.5t51 161.5v586h315v-1024h-315v156h-5q-117 -181 -313 -181q-356 0 -356 431zM627 -245q0 31 11 64.5t32 66t52 61.5t71 53h155q-78 -57 -115.5 -111.5t-37.5 -96.5q0 -33 17 -49.5t46 -16.5q19 0 40 3t41 9l1 -138 q-24 -8 -57.5 -13.5t-68.5 -5.5q-85 0 -136 44.5t-51 129.5z" />
<glyph unicode="&#x174;" horiz-adv-x="2058" d="M18 1434h353l202 -955q13 -61 19 -164h6q4 77 29 168l260 951h346l235 -963q13 -53 23 -154h4q4 79 21 160l198 957h326l-379 -1434h-358l-238 920q-19 72 -23 161h-4q-9 -98 -26 -161l-244 -920h-373zM670 1567l235 325h248l236 -325h-207l-158 188l-147 -188h-207z" />
<glyph unicode="&#x175;" horiz-adv-x="1633" d="M16 1024h322l141 -668q10 -47 15 -114h6q5 70 18 118l176 664h301l158 -668q6 -25 14 -116h7q5 58 16 116l133 668h293l-295 -1024h-332l-151 600q-15 60 -17 131h-6q-7 -78 -20 -127l-162 -604h-328zM457 1186l235 325h248l236 -325h-207l-158 188l-147 -188h-207z" />
<glyph unicode="&#x176;" horiz-adv-x="1243" d="M0 1434h369l231 -535q6 -15 33 -117h4q13 72 31 113l235 539h342l-467 -924v-510h-323v504zM262 1567l235 325h248l236 -325h-207l-158 188l-147 -188h-207z" />
<glyph unicode="&#x177;" d="M-4 1024h350l191 -623q18 -58 28 -137h4q9 58 33 135l193 625h313l-416 -1106q-150 -399 -452 -399q-115 0 -189 26v252q63 -37 137 -37q122 0 170 115l54 127zM191 1186l235 325h248l236 -325h-207l-158 188l-147 -188h-207z" />
<glyph unicode="&#x178;" horiz-adv-x="1243" d="M0 1434h369l231 -535q6 -15 33 -117h4q13 72 31 113l235 539h342l-467 -924v-510h-323v504zM246 1704q0 60 44 98.5t110 38.5q68 0 110.5 -38.5t42.5 -98.5q0 -61 -42.5 -99t-110.5 -38t-111 39.5t-43 97.5zM705 1704q0 61 43 99t110 38t110.5 -38.5t43.5 -98.5 t-43 -98.5t-111 -38.5q-67 0 -110 39t-43 98z" />
<glyph unicode="&#x179;" horiz-adv-x="1243" d="M41 0v186l735 985h-682v263h1100v-181l-719 -991h721v-262h-1155zM426 1567l260 323h281l-313 -323h-228z" />
<glyph unicode="&#x17a;" horiz-adv-x="981" d="M25 0v131l514 660h-463v233h864v-156l-487 -635h491v-233h-919zM295 1186l260 323h281l-313 -323h-228z" />
<glyph unicode="&#x17b;" horiz-adv-x="1243" d="M41 0v186l735 985h-682v263h1100v-181l-719 -991h721v-262h-1155zM487 1704q0 60 44 97.5t110 37.5q67 0 109.5 -38t42.5 -97t-42.5 -98t-109.5 -39t-110.5 40t-43.5 97z" />
<glyph unicode="&#x17c;" horiz-adv-x="981" d="M25 0v131l514 660h-463v233h864v-156l-487 -635h491v-233h-919zM358 1323q0 60 44 97.5t110 37.5q67 0 109.5 -38t42.5 -97t-42.5 -98t-109.5 -39t-110.5 40t-43.5 97z" />
<glyph unicode="&#x17d;" horiz-adv-x="1243" d="M41 0v186l735 985h-682v263h1100v-181l-719 -991h721v-262h-1155zM269 1858h205l155 -188l156 188h205l-238 -325h-248z" />
<glyph unicode="&#x17e;" horiz-adv-x="981" d="M25 0v131l514 660h-463v233h864v-156l-487 -635h491v-233h-919zM151 1511h205l155 -188l156 188h205l-238 -325h-248z" />
<glyph unicode="&#x17f;" horiz-adv-x="613" d="M133 0v1151q0 175 114 282t310 107q96 0 160 -20v-246q-61 24 -117 24q-151 0 -151 -165v-1133h-316z" />
<glyph unicode="&#x180;" horiz-adv-x="1270" d="M-18 1171v205h151v140h316v-140h233v-205h-233v-301h4q117 179 333 179q198 0 305 -136t107 -372q0 -256 -125 -411t-334 -155q-189 0 -286 144h-4v-119h-316v1171h-151zM444 446q0 -99 57 -164t146 -65q108 0 167.5 83.5t59.5 236.5q0 127 -54.5 198.5t-155.5 71.5 q-95 0 -157.5 -71t-62.5 -185v-105z" />
<glyph unicode="&#x181;" horiz-adv-x="1622" d="M-51 1020q0 180 131.5 297t357.5 117h555q240 0 369 -88t129 -248q0 -117 -79 -204t-200 -120v-4q153 -19 244.5 -113t91.5 -229q0 -197 -141 -312.5t-385 -115.5h-551v1196h-45q-84 0 -136 -53.5t-52 -134.5q0 -68 22 -136h-287q-24 65 -24 148zM795 238h174 q112 0 175.5 52t63.5 142q0 86 -62.5 135t-174.5 49h-176v-378zM795 856h141q100 0 157.5 48.5t57.5 133.5q0 158 -236 158h-120v-340z" />
<glyph unicode="&#x182;" horiz-adv-x="1315" d="M164 0v1434h923v-267h-600v-311h279q228 0 353.5 -106t125.5 -295q0 -216 -133.5 -335.5t-378.5 -119.5h-569zM487 236h189q227 0 227 198q0 187 -215 187h-201v-385z" />
<glyph unicode="&#x183;" horiz-adv-x="1270" d="M133 0v1516h920v-205h-604v-441h4q117 179 333 179q198 0 305 -136t107 -372q0 -256 -125 -411t-334 -155q-189 0 -286 144h-4v-119h-316zM444 446q0 -99 57 -164t146 -65q108 0 167.5 83.5t59.5 236.5q0 127 -54.5 198.5t-155.5 71.5q-95 0 -157.5 -71t-62.5 -185v-105z " />
<glyph unicode="&#x184;" horiz-adv-x="1315" d="M-41 1182v26l502 250h26v-602h279q228 0 353.5 -106t125.5 -295q0 -217 -133.5 -336t-378.5 -119h-569v1001zM487 236h189q227 0 227 198q0 187 -215 187h-201v-385z" />
<glyph unicode="&#x185;" horiz-adv-x="1270" d="M-72 1239v26l496 250h26l-1 -645h4q117 179 333 179q198 0 305 -136t107 -372q0 -256 -125 -411t-334 -155q-189 0 -286 144h-4v-119h-316v1058zM444 446q0 -99 57 -164t146 -65q108 0 167.5 83.5t59.5 236.5q0 127 -54.5 198.5t-155.5 71.5q-95 0 -157.5 -71t-62.5 -185 v-105z" />
<glyph unicode="&#x186;" horiz-adv-x="1280" d="M88 29v311q145 -86 328 -86q202 0 326 127t124 344q0 208 -117 331.5t-315 123.5q-187 0 -346 -93v295q158 76 410 76q330 0 519 -193.5t189 -516.5q0 -345 -213 -559t-551 -214q-207 0 -354 54z" />
<glyph unicode="&#x187;" horiz-adv-x="1280" d="M74 686q0 344 208.5 558t539.5 214q83 0 165 -24q28 99 112.5 161t201.5 62q74 0 133 -23v-248q-52 27 -101 27q-68 0 -106.5 -49t-38.5 -129q0 -77 12 -141l-8 -7q-178 93 -358 93q-194 0 -307 -128t-113 -343q0 -208 117 -331.5t315 -123.5q189 0 346 92v-295 q-157 -76 -410 -76q-330 0 -519 194t-189 517z" />
<glyph unicode="&#x188;" horiz-adv-x="985" d="M72 487q0 261 155 411.5t416 150.5q45 0 94 -9q20 86 99.5 146.5t181.5 60.5q69 0 121 -20v-226q-44 23 -90 23q-64 0 -102 -48.5t-38 -121.5q0 -57 9 -111l-9 -6q-105 70 -225 70q-135 0 -213 -79t-78 -220q0 -136 76 -213.5t209 -77.5q118 0 231 74v-254 q-107 -62 -309 -62q-236 0 -382 143t-146 369z" />
<glyph unicode="&#x189;" horiz-adv-x="1510" d="M0 586v266h164v582h508q764 0 764 -699q0 -335 -208.5 -535t-555.5 -200h-508v586h-164zM487 262h160q210 0 329.5 126t119.5 343q0 205 -118.5 322.5t-332.5 117.5h-158v-319h271v-266h-271v-324z" />
<glyph unicode="&#x18a;" horiz-adv-x="1817" d="M-51 1020q0 175 133 294.5t356 119.5h541q764 0 764 -699q0 -335 -208.5 -535t-555.5 -200h-508v1171h-45q-85 0 -136.5 -49t-51.5 -125q0 -62 22 -125h-287q-24 65 -24 148zM795 262h159q210 0 329.5 126t119.5 343q0 205 -118.5 322.5t-332.5 117.5h-157v-909z" />
<glyph unicode="&#x18b;" horiz-adv-x="1315" d="M70 401q0 217 133.5 336t378.5 119h245v311h-600v267h924v-1434h-602q-228 0 -353.5 106t-125.5 295zM412 422q0 -186 215 -186h200v385h-188q-108 0 -167.5 -53t-59.5 -146z" />
<glyph unicode="&#x18c;" horiz-adv-x="1270" d="M72 489q0 254 129 407t338 153q200 0 278 -142h4v404h-604v205h920v-1516h-316v141h-4q-108 -166 -317 -166q-192 0 -310 135.5t-118 378.5zM393 498q0 -135 57 -208t158 -73q96 0 156.5 77t60.5 204v77q0 100 -58 166t-151 66q-105 0 -164 -82.5t-59 -226.5z" />
<glyph unicode="&#x18d;" horiz-adv-x="1252" d="M72 545q0 221 152 362.5t413 141.5q251 0 397 -136.5t146 -349.5q0 -261 -306 -436q160 -114 160 -274q0 -145 -129.5 -239.5t-320.5 -94.5q-195 0 -363 82v286q156 -116 338 -116q152 0 152 92q0 43 -45.5 78.5t-227.5 124.5q-366 179 -366 479zM393 559q0 -82 51 -150 t203 -151q211 115 211 301q0 111 -62.5 179.5t-168.5 68.5t-170 -70t-64 -178z" />
<glyph unicode="&#x18e;" horiz-adv-x="1090" d="M66 0v262h536v322h-469v264h469v323h-504v263h828v-1434h-860z" />
<glyph unicode="&#x18f;" horiz-adv-x="1557" d="M78 707v143h1055q-60 344 -447 344q-214 0 -444 -152v287q207 129 491 129q361 0 555.5 -190t194.5 -533q0 -339 -198.5 -549.5t-524.5 -210.5q-306 0 -494 201t-188 531zM428 594q17 -165 106.5 -259.5t227.5 -94.5q146 0 244 95t127 259h-705z" />
<glyph unicode="&#x190;" horiz-adv-x="1143" d="M78 397q0 132 76 225.5t213 129.5v6q-240 77 -240 301q0 184 155.5 291.5t426.5 107.5q181 0 338 -61v-283q-149 66 -318 66q-264 0 -264 -158t303 -158h119v-268h-129q-177 0 -258.5 -39t-81.5 -133q0 -170 301 -170q194 0 352 74v-285q-168 -68 -379 -68 q-294 0 -454 110.5t-160 311.5z" />
<glyph unicode="&#x191;" horiz-adv-x="1067" d="M-113 -104q56 -27 119 -27q158 0 158 188v1377h829v-263h-506v-352h465v-262h-465v-504q0 -219 -116 -341t-320 -122q-90 0 -164 27v279z" />
<glyph unicode="&#x192;" horiz-adv-x="1178" d="M78 -43q39 -20 92 -20q123 0 154 202l88 576h-105v215h142l22 149q25 167 135 267t279 100q82 0 159 -23v-249q-64 30 -133 30q-124 0 -147 -137l-23 -137h158v-215h-192l-91 -594q-30 -196 -140 -311t-277 -115q-50 0 -121 20v242z" />
<glyph unicode="&#x193;" horiz-adv-x="1458" d="M74 694q0 338 217.5 551t578.5 213q115 0 197 -24q28 99 112.5 161t201.5 62q73 0 132 -23v-248q-52 27 -100 27q-68 0 -106.5 -49t-38.5 -129q0 -77 12 -141l-8 -7q-185 101 -404 101q-201 0 -326.5 -130t-125.5 -349q0 -222 113 -342.5t305 -120.5q116 0 184 33v280 h-287v258h610v-721q-210 -121 -522 -121q-346 0 -545.5 191.5t-199.5 527.5z" />
<glyph unicode="&#x194;" horiz-adv-x="1368" d="M10 1434h357l262 -736q18 -51 57 -202h4q16 63 60 202l264 736h344l-461 -1145l37 -60q133 -216 133 -364q0 -142 -109 -244t-280 -102q-169 0 -273 100.5t-104 245.5q0 75 26.5 146t108.5 212l35 60zM612 -127q0 -100 72 -100t72 100q0 61 -72 186q-72 -126 -72 -186z " />
<glyph unicode="&#x195;" horiz-adv-x="1913" d="M133 0v1516h316v-644h4q116 177 315 177q348 0 348 -420v-150q0 -252 187 -252q90 0 141 67.5t51 186.5q0 247 -129 543h326q118 -271 118 -539q0 -240 -138 -375t-382 -135q-239 0 -364 124t-125 356v127q0 225 -164 225q-84 0 -136 -63t-52 -160v-584h-316z" />
<glyph unicode="&#x196;" horiz-adv-x="772" d="M164 399v1035h323v-1010q0 -170 140 -170q56 0 104 29v-271q-101 -37 -213 -37q-354 0 -354 424z" />
<glyph unicode="&#x197;" horiz-adv-x="733" d="M41 584v278h164v572h323v-572h164v-278h-164v-584h-323v584h-164z" />
<glyph unicode="&#x198;" horiz-adv-x="1329" d="M164 0v1434h323v-666h5q16 32 36 63l201 308q131 201 218 260t202 59q70 0 137 -26v-283q-48 31 -100 31q-82 0 -189 -160l-184 -277l543 -743h-408l-420 618q-8 12 -36 72h-5v-690h-323z" />
<glyph unicode="&#x199;" horiz-adv-x="1145" d="M133 0v1137q0 403 379 403q93 0 168 -24v-242q-48 24 -107 24q-124 0 -124 -161v-586h4l305 473h375l-367 -481l393 -543h-379l-327 508h-4v-508h-316z" />
<glyph unicode="&#x19a;" horiz-adv-x="668" d="M20 688v205h156v623h316v-623h155v-205h-155v-688h-316v688h-156z" />
<glyph unicode="&#x19b;" horiz-adv-x="1125" d="M6 0l443 1012l-224 -109l-73 146l241 116q-45 84 -133 84q-69 0 -141 -37v271q77 26 198 26q233 0 345 -217l194 94l70 -143l-205 -98l381 -1145h-330l-199 709l-229 -709h-338z" />
<glyph unicode="&#x19c;" horiz-adv-x="1991" d="M160 451v983h323v-922q0 -258 168 -258q79 0 129.5 75.5t50.5 192.5v912h324v-930q0 -250 166 -250q82 0 132 73.5t50 200.5v906h324v-1434h-324v188h-4q-51 -95 -141.5 -154t-198.5 -59q-215 0 -305 220q-120 -220 -352 -220q-342 0 -342 476z" />
<glyph unicode="&#x19d;" horiz-adv-x="1618" d="M-113 -98q56 -27 119 -27q158 0 158 188v1371h348l569 -873q39 -59 72 -117h4q-8 50 -8 197v793h305v-1434h-326l-591 901q-52 79 -72 119h-4q8 -76 8 -232v-729q0 -220 -110 -341t-308 -121q-93 0 -164 26v279z" />
<glyph unicode="&#x19e;" horiz-adv-x="1235" d="M133 0v1024h316v-162h4q113 187 329 187q340 0 340 -422v-1098h-317v1040q0 238 -168 238q-82 0 -135 -63t-53 -160v-584h-316z" />
<glyph unicode="&#x19f;" horiz-adv-x="1553" d="M74 698q0 340 197 550t522 210q307 0 496.5 -201t189.5 -530q0 -338 -196.5 -545t-512.5 -207q-308 0 -502 200.5t-194 522.5zM426 594q26 -160 120 -250t230 -90q142 0 235.5 89t118.5 251h-704zM426 838h702q-26 164 -115.5 253t-228.5 89q-142 0 -236 -91t-122 -251z " />
<glyph unicode="&#x1a0;" horiz-adv-x="1592" d="M74 698q0 340 197 550t522 210q198 0 351 -87q58 -14 91 -14q191 0 191 131q0 50 -18 111h192q23 -69 23 -135q0 -120 -67.5 -187t-192.5 -67q-6 0 -18 1l-18 1q152 -195 152 -485q0 -338 -196.5 -545t-512.5 -207q-308 0 -502 200.5t-194 522.5zM414 715 q0 -213 100 -337t262 -124q167 0 265 120.5t98 334.5q0 223 -95 347t-260 124q-170 0 -270 -127.5t-100 -337.5z" />
<glyph unicode="&#x1a1;" horiz-adv-x="1290" d="M72 508q0 254 152 397.5t411 143.5q68 0 153 -15q57 -10 110 -10q177 0 177 141q0 50 -18 111h192q23 -69 23 -131q0 -226 -229 -248q137 -142 137 -371q0 -255 -149.5 -403t-409.5 -148q-256 0 -402.5 143.5t-146.5 389.5zM393 512q0 -295 238 -295q227 0 227 303 q0 287 -229 287q-112 0 -174 -77t-62 -218z" />
<glyph unicode="&#x1a2;" horiz-adv-x="2165" d="M74 698q0 337 207 548.5t546 211.5q131 0 348 -39q218 -39 353 -39q256 0 473 78v-1458h-324v1118q-83 -12 -166 -12q-81 0 -174 10v-1020q-210 -121 -532 -121q-338 0 -534.5 193.5t-196.5 529.5zM416 711q0 -220 110.5 -342.5t292.5 -122.5q127 0 195 33v884 q-120 17 -193 17q-187 0 -296 -128.5t-109 -340.5z" />
<glyph unicode="&#x1a3;" horiz-adv-x="1745" d="M72 506q0 249 157 396t414 147q135 0 298 -32t271 -32q214 0 400 64v-1049h-307v750q-60 -7 -105 -7q-77 0 -162 11v-693q-181 -86 -413 -86q-263 0 -408 141t-145 390zM387 512q0 -141 67 -218t185 -77q56 0 92 10v576q-39 4 -94 4q-115 0 -182.5 -78.5t-67.5 -216.5z " />
<glyph unicode="&#x1a4;" horiz-adv-x="1567" d="M-51 1020q0 175 133 294.5t356 119.5h539q543 0 543 -457q0 -216 -155.5 -349.5t-416.5 -133.5h-153v-494h-324v1186h-45q-86 0 -137 -54t-51 -135q0 -62 22 -125h-287q-24 65 -24 148zM795 739h127q258 0 258 226q0 221 -258 221h-127v-447z" />
<glyph unicode="&#x1a5;" horiz-adv-x="1270" d="M133 -471v1608q0 403 379 403q93 0 168 -24v-242q-48 24 -107 24q-124 0 -124 -161v-267h4q117 179 329 179q199 0 307.5 -136.5t108.5 -371.5q0 -256 -126.5 -411t-336.5 -155q-185 0 -282 144h-4v-590h-316zM444 457q0 -106 56 -173t147 -67q108 0 167.5 83.5 t59.5 236.5q0 270 -210 270q-97 0 -158.5 -73.5t-61.5 -194.5v-82z" />
<glyph unicode="&#x1a6;" horiz-adv-x="1303" d="M164 0v1434h323v-195h181q524 0 524 -387q0 -279 -322 -369v-4q131 -60 209 -233l199 -441h-371l-157 385q-78 191 -211 191h-52v-381h-323zM487 625h131q110 0 171 49.5t61 134.5q0 184 -229 184h-134v-368z" />
<glyph unicode="&#x1a7;" horiz-adv-x="1148" d="M72 403q0 87 26 152.5t75 116.5t118 91.5t154 76.5q63 26 113 50.5t85 50t54 54t19 64.5q0 33 -17 59.5t-48 45.5t-75.5 29.5t-100.5 10.5q-40 0 -84.5 -6t-89.5 -18.5t-87.5 -31.5t-78.5 -44v299q73 28 159.5 41.5t198.5 13.5q114 0 216 -24.5t179.5 -76.5t122.5 -132.5 t45 -192.5q0 -143 -82.5 -244t-250.5 -171q-66 -27 -123 -53t-98.5 -54t-65.5 -61t-24 -75q0 -31 15 -57.5t45.5 -46t76 -30.5t106.5 -11q104 0 206 36.5t189 109.5v-320q-78 -40 -184.5 -60t-224.5 -20q-115 0 -218.5 22t-181.5 72.5t-123.5 132t-45.5 201.5z" />
<glyph unicode="&#x1a8;" horiz-adv-x="901" d="M49 313q0 65 19.5 112t56 82t87.5 61t114 48q35 12 70.5 23.5t64.5 26t47 34.5t18 48q0 21 -12 37.5t-33 27t-48.5 16t-58.5 5.5q-66 0 -134.5 -17.5t-128.5 -52.5v244q68 20 138 30.5t138 10.5q87 0 167.5 -18.5t143 -58t100 -101.5t37.5 -148q0 -63 -16.5 -109t-48 -81 t-78 -61.5t-107.5 -49.5q-38 -15 -79 -27t-75.5 -27t-56.5 -35t-22 -50q0 -47 48.5 -70t132.5 -23q69 0 146.5 23t155.5 70v-256q-144 -52 -313 -52q-92 0 -177.5 18.5t-151 59t-105 105t-39.5 155.5z" />
<glyph unicode="&#x1a9;" horiz-adv-x="1165" d="M42 0v172l462 554l-437 523v185h996v-265h-540l353 -429l-384 -480h633v-260h-1083z" />
<glyph unicode="&#x1aa;" horiz-adv-x="934" d="M-123 1190q0 153 109.5 251.5t283.5 98.5q208 0 321.5 -120.5t113.5 -342.5v-1157q0 -160 126 -160q55 0 103 29v-233q-70 -37 -211 -37q-334 0 -334 346v1022q-80 -33 -170 -33q-145 0 -243.5 94t-98.5 242zM156 1200q0 -46 31.5 -75t80.5 -29q67 0 121 28v15 q0 164 -127 164q-49 0 -77.5 -29.5t-28.5 -73.5z" />
<glyph unicode="&#x1ab;" horiz-adv-x="797" d="M41 791v233h166v221l313 90v-311h232v-233h-232v-414q0 -160 129 -160q50 0 103 29v-275q0 -169 -104.5 -275t-264.5 -106q-83 0 -156 31v225q61 -32 131 -32q152 0 152 161q-144 0 -223.5 91.5t-79.5 255.5v469h-166z" />
<glyph unicode="&#x1ac;" horiz-adv-x="1305" d="M-20 1026q0 182 126.5 295t354.5 113h813v-263h-410v-1171h-323v1171h-92q-87 0 -139 -46.5t-52 -120.5q0 -54 16 -109h-274q-20 64 -20 131z" />
<glyph unicode="&#x1ad;" horiz-adv-x="797" d="M41 791v233h166v109q0 189 92 298t256 109q106 0 197 -35v-237q-54 30 -107 30q-125 0 -125 -174v-100h232v-233h-232v-414q0 -160 129 -160q50 0 103 29v-234q-70 -37 -211 -37q-334 0 -334 347v469h-166z" />
<glyph unicode="&#x1ae;" horiz-adv-x="1202" d="M31 1171v263h1140v-263h-409v-1114q0 -188 158 -188q62 0 118 27v-273q-82 -33 -178 -33q-204 0 -313 119t-109 338v1124h-407z" />
<glyph unicode="&#x1af;" horiz-adv-x="1604" d="M147 606v828h324v-832q0 -348 272 -348q267 0 267 336v844h301q64 0 103.5 42t39.5 105q0 44 -18 105h190q19 -57 19 -119q0 -120 -82.5 -196t-229.5 -82v-668q0 -646 -602 -646q-584 0 -584 631z" />
<glyph unicode="&#x1b0;" horiz-adv-x="1368" d="M117 406v618h315v-590q0 -217 172 -217q85 0 136 59.5t51 161.5v586h288q125 0 125 148q0 43 -18 104h184q16 -48 16 -117q0 -117 -73.5 -189.5t-206.5 -79.5v-890h-315v156h-5q-117 -181 -313 -181q-356 0 -356 431z" />
<glyph unicode="&#x1b1;" horiz-adv-x="1567" d="M82 600q0 381 348 574h-348v260h602v-260q-262 -226 -262 -525q0 -180 101.5 -288.5t254.5 -108.5q159 0 262 108t103 299q0 282 -258 515v260h600v-260h-340q338 -196 338 -570q0 -285 -195.5 -457t-503.5 -172q-316 0 -509 173.5t-193 451.5z" />
<glyph unicode="&#x1b2;" horiz-adv-x="1602" d="M164 602v832h323v-816q0 -364 289 -364q184 0 299 152t115 393q0 184 -63.5 286.5t-178.5 102.5q-88 0 -164 -35v272q98 33 207 33q248 0 388.5 -171.5t140.5 -477.5q0 -355 -212 -594.5t-546 -239.5q-598 0 -598 627z" />
<glyph unicode="&#x1b3;" horiz-adv-x="1268" d="M0 1434h342l236 -539q18 -41 31 -113h4q29 111 32 117l125 270q72 156 162.5 222.5t235.5 66.5q80 0 151 -26v-281q-50 29 -98 29q-107 0 -189 -172l-241 -504v-504h-324v510z" />
<glyph unicode="&#x1b4;" horiz-adv-x="1219" d="M-4 1024h350l191 -623q18 -58 28 -137h4q13 78 31 135l86 265q67 207 162.5 296t245.5 89q81 0 155 -27v-248q-58 33 -120 33q-103 0 -173 -189l-258 -702q-146 -397 -458 -397q-115 0 -189 26v252q63 -37 137 -37q123 0 177 129l47 113z" />
<glyph unicode="&#x1b5;" horiz-adv-x="1243" d="M41 0v186l307 412h-176v262h373l231 311h-682v263h1100v-181l-285 -393h221v-262h-411l-244 -336h721v-262h-1155z" />
<glyph unicode="&#x1b6;" horiz-adv-x="981" d="M25 0v131l225 289h-113v194h264l138 177h-463v233h864v-156l-195 -254h138v-194h-287l-143 -187h491v-233h-919z" />
<glyph unicode="&#x1b7;" horiz-adv-x="1370" d="M41 -43q213 -160 487 -160q196 0 312 92t116 246q0 157 -129.5 244.5t-361.5 87.5h-143v186l460 518h-725v263h1155v-181l-477 -538q258 -38 409.5 -190.5t151.5 -383.5q0 -274 -216.5 -448t-551.5 -174q-260 0 -487 119v319z" />
<glyph unicode="&#x1b8;" horiz-adv-x="1370" d="M74 121q0 231 154.5 392t406.5 202l-477 538v181h1155v-263h-719l455 -518v-186h-144q-232 0 -361.5 -87.5t-129.5 -244.5q0 -154 116 -246t312 -92q291 0 487 148v-307q-231 -119 -504 -119q-333 0 -542 166.5t-209 435.5z" />
<glyph unicode="&#x1b9;" horiz-adv-x="1016" d="M20 -14q0 173 118 299t317 170l-363 413v156h914v-233h-533l346 -408v-131h-125q-167 0 -261.5 -66.5t-94.5 -181.5q0 -113 86.5 -178.5t230.5 -65.5q224 0 383 115v-262q-181 -94 -407 -94q-276 0 -443.5 127t-167.5 340z" />
<glyph unicode="&#x1ba;" horiz-adv-x="912" d="M-31 -197q0 118 74.5 197.5t247.5 138.5q160 54 204 90t44 84q0 67 -59.5 92t-190.5 25h-84v141l229 230h-403v223h790v-166l-266 -252q305 -42 305 -287q0 -134 -90.5 -223t-323.5 -162q-125 -39 -151.5 -61.5t-26.5 -52.5q0 -72 158 -72q149 0 297 72v-246 q-150 -55 -324 -55q-201 0 -315.5 75t-114.5 209z" />
<glyph unicode="&#x1bb;" horiz-adv-x="1178" d="M109 0v246l266 293h-182v241h397q112 137 112 234q0 192 -215 192q-181 0 -350 -147v278q187 121 398 121q222 0 355.5 -113t133.5 -294q0 -124 -113 -271h142v-241h-338l-244 -271v-6h582v-262h-944z" />
<glyph unicode="&#x1bc;" horiz-adv-x="1178" d="M131 1176v258h868v-258h-438l-51 -287q63 6 94 6q215 0 338 -117t123 -311q0 -217 -149 -354.5t-404 -137.5q-207 0 -348 62v270q147 -90 313 -90q125 0 195.5 59.5t70.5 161.5q0 100 -79.5 156.5t-225.5 56.5q-80 0 -248 -18l98 543h-157z" />
<glyph unicode="&#x1bd;" horiz-adv-x="910" d="M51 795v229h766v-229h-389l-16 -160q56 6 88 6q162 0 255 -82t93 -221q0 -160 -120.5 -261.5t-330.5 -101.5q-170 0 -295 41v230q117 -56 242 -56q182 0 182 117t-213 117q-102 0 -190 -16l43 387h-115z" />
<glyph unicode="&#x1be;" horiz-adv-x="901" d="M35 791v233h135v221l315 90v-311h230v-233h-230v-43q0 -36 22 -63t105 -68q134 -67 184 -137.5t50 -172.5q0 -153 -118.5 -242.5t-330.5 -89.5q-159 0 -297 52v256q156 -93 293 -93q150 0 150 93q0 29 -19 54.5t-121 73.5q-130 61 -181.5 132t-51.5 180v68h-135z" />
<glyph unicode="&#x1bf;" horiz-adv-x="1225" d="M133 -471v1495h316v-106h4q126 131 331 131q175 0 282.5 -115.5t107.5 -300.5q0 -229 -197.5 -414t-527.5 -274v-416h-316zM449 221q192 63 297.5 165.5t105.5 223.5q0 79 -48 132t-124 53q-109 0 -231 -121v-453z" />
<glyph unicode="&#x1c0;" horiz-adv-x="668" d="M209 -481v2048h252v-2048h-252z" />
<glyph unicode="&#x1c1;" horiz-adv-x="1127" d="M209 -481v2048h252v-2048h-252zM668 -481v2048h252v-2048h-252z" />
<glyph unicode="&#x1c2;" horiz-adv-x="1059" d="M61 233v234h342v268h-342v234h342v598h252v-598h342v-234h-342v-268h342v-234h-342v-714h-252v714h-342z" />
<glyph unicode="&#x1c3;" horiz-adv-x="670" d="M152 143q0 72 52.5 118t131.5 46q80 0 131 -46.5t51 -117.5q0 -72 -50.5 -119t-131.5 -47q-80 0 -132 48.5t-52 117.5zM168 1434h332l-39 -988h-256z" />
<glyph unicode="&#x1c4;" horiz-adv-x="2661" d="M164 0v1434h508q764 0 764 -699q0 -335 -208.5 -535t-555.5 -200h-508zM487 262h160q210 0 329.5 126t119.5 343q0 205 -118.5 322.5t-332.5 117.5h-158v-909zM1458 0v186l735 985h-682v263h1100v-181l-719 -991h721v-262h-1155zM1709 1891h205l155 -188l156 188h205 l-238 -325h-248z" />
<glyph unicode="&#x1c5;" horiz-adv-x="2476" d="M164 0v1434h508q764 0 764 -699q0 -335 -208.5 -535t-555.5 -200h-508zM487 262h160q210 0 329.5 126t119.5 343q0 205 -118.5 322.5t-332.5 117.5h-158v-909zM1520 0v131l514 660h-463v233h864v-156l-487 -635h491v-233h-919zM1661 1511h205l155 -188l156 188h205 l-238 -325h-248z" />
<glyph unicode="&#x1c6;" horiz-adv-x="2224" d="M72 489q0 254 129 407t338 153q198 0 276 -142h4v609h316v-1516h-316v141h-4q-108 -166 -317 -166q-192 0 -309 135.5t-117 378.5zM393 498q0 -135 57 -208t158 -73q96 0 156.5 77t60.5 204v77q0 100 -58 166t-151 66q-105 0 -164 -82.5t-59 -226.5zM1268 0v131l514 660 h-463v233h864v-156l-487 -635h491v-233h-919zM1410 1511h205l155 -188l156 188h205l-238 -325h-248z" />
<glyph unicode="&#x1c7;" horiz-adv-x="1958" d="M164 0v1434h323v-1172h510v-262h-833zM1079 14v303q83 -63 187 -63q221 0 221 328v852h321v-865q0 -288 -133.5 -441t-386.5 -153q-113 0 -209 39z" />
<glyph unicode="&#x1c8;" horiz-adv-x="1606" d="M164 0v1434h323v-1172h510v-262h-833zM891 -203q66 -37 117 -37q149 0 149 234v1030h316v-1006q0 -227 -111 -363t-320 -136q-69 0 -151 30v248zM1135 1350q0 71 51 116t131 45q81 0 131.5 -45t50.5 -116q0 -72 -50.5 -118t-131.5 -46q-80 0 -131 47.5t-51 116.5z" />
<glyph unicode="&#x1c9;" horiz-adv-x="1164" d="M133 0v1516h316v-1516h-316zM448 -203q66 -37 117 -37q149 0 149 234v1030h316v-1006q0 -227 -111 -363t-320 -136q-69 0 -151 30v248zM692 1350q0 71 51 116t131 45q81 0 131.5 -45t50.5 -116q0 -72 -50.5 -118t-131.5 -46q-80 0 -131 47.5t-51 116.5z" />
<glyph unicode="&#x1ca;" horiz-adv-x="2466" d="M164 0v1434h348l569 -873q39 -59 72 -117h4q-8 50 -8 197v793h305v-1434h-326l-591 901q-52 79 -72 119h-4q8 -76 8 -232v-788h-305zM1587 14v303q83 -63 186 -63q221 0 221 328v852h322v-865q0 -288 -133.5 -441t-386.5 -153q-113 0 -209 39z" />
<glyph unicode="&#x1cb;" horiz-adv-x="2169" d="M164 0v1434h348l569 -873q39 -59 72 -117h4q-8 50 -8 197v793h305v-1434h-326l-591 901q-52 79 -72 119h-4q8 -76 8 -232v-788h-305zM1454 -203q66 -37 117 -37q149 0 149 234v1030h316v-1006q0 -227 -111 -363t-320 -136q-69 0 -151 30v248zM1698 1350q0 71 51 116 t131 45q81 0 131.5 -45t50.5 -116q0 -72 -50.5 -118t-131.5 -46q-80 0 -131 47.5t-51 116.5z" />
<glyph unicode="&#x1cc;" horiz-adv-x="1837" d="M133 0v1024h316v-162h4q113 187 329 187q340 0 340 -422v-627h-315v569q0 238 -170 238q-82 0 -135 -63t-53 -160v-584h-316zM1123 -203q66 -37 117 -37q149 0 149 234v1030h316v-1006q0 -227 -111 -363t-320 -136q-69 0 -151 30v248zM1367 1350q0 71 51 116t131 45 q81 0 131.5 -45t50.5 -116q0 -72 -50.5 -118t-131.5 -46q-80 0 -131 47.5t-51 116.5z" />
<glyph unicode="&#x1cd;" horiz-adv-x="1440" d="M10 0l522 1434h383l510 -1434h-352l-102 319h-510l-101 -319h-350zM360 1883h205l155 -188l156 188h205l-238 -325h-248zM530 567h367l-154 482q-17 54 -24 129h-8q-5 -63 -25 -125z" />
<glyph unicode="&#x1ce;" d="M57 285q0 298 353 344l278 37q0 168 -182 168q-183 0 -348 -109v238q66 34 180.5 60t208.5 26q438 0 438 -437v-612h-299v147h-4q-103 -172 -305 -172q-149 0 -234.5 84.5t-85.5 225.5zM174 1499h205l155 -188l156 188h205l-238 -325h-248zM348 322q0 -54 37.5 -88.5 t101.5 -34.5q89 0 145 61.5t56 155.5v69l-186 -24q-154 -20 -154 -139z" />
<glyph unicode="&#x1cf;" horiz-adv-x="649" d="M-33 1883h205l155 -188l156 188h205l-238 -325h-248zM44 0v250h120v934h-120v250h563v-250h-120v-934h120v-250h-563z" />
<glyph unicode="&#x1d0;" horiz-adv-x="582" d="M-70 1499h205l155 -188l156 188h205l-238 -325h-248zM133 0v1024h316v-1024h-316z" />
<glyph unicode="&#x1d1;" horiz-adv-x="1553" d="M74 698q0 340 197 550t522 210q307 0 496.5 -201t189.5 -530q0 -338 -196.5 -545t-512.5 -207q-308 0 -502 200.5t-194 522.5zM414 715q0 -213 100 -337t262 -124q167 0 265 120.5t98 334.5q0 223 -95 347t-260 124q-170 0 -270 -127.5t-100 -337.5zM416 1883h205 l155 -188l156 188h205l-238 -325h-248z" />
<glyph unicode="&#x1d2;" horiz-adv-x="1252" d="M72 508q0 254 152 397.5t411 143.5q255 0 400 -143.5t145 -379.5q0 -255 -149.5 -403t-409.5 -148q-256 0 -402.5 143.5t-146.5 389.5zM266 1499h205l155 -188l156 188h205l-238 -325h-248zM393 512q0 -295 238 -295q227 0 227 303q0 287 -229 287q-112 0 -174 -77 t-62 -218z" />
<glyph unicode="&#x1d3;" horiz-adv-x="1481" d="M147 606v828h324v-832q0 -348 272 -348q267 0 267 336v844h323v-813q0 -646 -602 -646q-584 0 -584 631zM416 1883h205l155 -188l156 188h205l-238 -325h-248z" />
<glyph unicode="&#x1d4;" horiz-adv-x="1239" d="M117 406v618h315v-590q0 -217 172 -217q85 0 136 59.5t51 161.5v586h315v-1024h-315v156h-5q-117 -181 -313 -181q-356 0 -356 431zM260 1499h205l155 -188l156 188h205l-238 -325h-248z" />
<glyph unicode="&#x1d5;" horiz-adv-x="1481" d="M147 606v828h324v-832q0 -348 272 -348q267 0 267 336v844h323v-813q0 -646 -602 -646q-584 0 -584 631zM422 1734q0 47 34.5 77t86.5 30q53 0 87 -30t34 -77t-33 -77t-88 -30q-53 0 -87 31t-34 76zM449 1913v172h586v-172h-586zM821 1734q0 47 33.5 77t86.5 30t87 -30 t34 -77t-33 -77t-88 -30q-52 0 -86 30.5t-34 76.5z" />
<glyph unicode="&#x1d6;" horiz-adv-x="1239" d="M117 406v618h315v-590q0 -217 172 -217q85 0 136 59.5t51 161.5v586h315v-1024h-315v156h-5q-117 -181 -313 -181q-356 0 -356 431zM301 1355q0 47 34.5 77t86.5 30q53 0 87 -30t34 -77t-33 -77t-88 -30q-53 0 -87 31t-34 76zM328 1534v172h586v-172h-586zM700 1355 q0 47 33.5 77t86.5 30t87 -30t34 -77t-33 -77t-88 -30q-52 0 -86 30.5t-34 76.5z" />
<glyph unicode="&#x1d7;" horiz-adv-x="1481" d="M147 606v828h324v-832q0 -348 272 -348q267 0 267 336v844h323v-813q0 -646 -602 -646q-584 0 -584 631zM362 1682q0 47 34.5 77t86.5 30q53 0 87 -30t34 -77t-33 -77t-88 -30q-53 0 -87 31t-34 76zM578 1861l260 323h280l-313 -323h-227zM802 1682q0 47 33.5 77t86.5 30 t87 -30t34 -77t-33 -77t-88 -30q-52 0 -86 30.5t-34 76.5z" />
<glyph unicode="&#x1d8;" horiz-adv-x="1239" d="M117 406v618h315v-590q0 -217 172 -217q85 0 136 59.5t51 161.5v586h315v-1024h-315v156h-5q-117 -181 -313 -181q-356 0 -356 431zM242 1303q0 47 34.5 77t86.5 30q53 0 87 -30t34 -77t-33 -77t-88 -30q-53 0 -87 31t-34 76zM458 1482l260 323h280l-313 -323h-227z M682 1303q0 47 33.5 77t86.5 30t87 -30t34 -77t-33 -77t-88 -30q-52 0 -86 30.5t-34 76.5z" />
<glyph unicode="&#x1d9;" horiz-adv-x="1481" d="M147 606v828h324v-832q0 -348 272 -348q267 0 267 336v844h323v-813q0 -646 -602 -646q-584 0 -584 631zM375 2188h204l156 -188l156 188h205l-238 -325h-248zM415 1684q0 47 34.5 77t86.5 30q53 0 87 -30t34 -77t-33 -77t-88 -30q-53 0 -87 31t-34 76zM814 1684 q0 47 33.5 77t86.5 30t87 -30t34 -77t-33 -77t-88 -30q-52 0 -86 30.5t-34 76.5z" />
<glyph unicode="&#x1da;" horiz-adv-x="1239" d="M117 406v618h315v-590q0 -217 172 -217q85 0 136 59.5t51 161.5v586h315v-1024h-315v156h-5q-117 -181 -313 -181q-356 0 -356 431zM255 1808h204l156 -188l156 188h205l-238 -325h-248zM295 1304q0 47 34.5 77t86.5 30q53 0 87 -30t34 -77t-33 -77t-88 -30q-53 0 -87 31 t-34 76zM694 1304q0 47 33.5 77t86.5 30t87 -30t34 -77t-33 -77t-88 -30q-52 0 -86 30.5t-34 76.5z" />
<glyph unicode="&#x1db;" horiz-adv-x="1481" d="M147 606v828h324v-832q0 -348 272 -348q267 0 267 336v844h323v-813q0 -646 -602 -646q-584 0 -584 631zM347 2184h280l261 -323h-228zM422 1682q0 47 34 77t87 30t86.5 -30t33.5 -77q0 -46 -34 -76.5t-86 -30.5q-55 0 -88 30t-33 77zM861 1682q0 47 34 77t87 30 q52 0 86.5 -30t34.5 -77q0 -45 -34 -76t-87 -31q-55 0 -88 30t-33 77z" />
<glyph unicode="&#x1dc;" horiz-adv-x="1239" d="M117 406v618h315v-590q0 -217 172 -217q85 0 136 59.5t51 161.5v586h315v-1024h-315v156h-5q-117 -181 -313 -181q-356 0 -356 431zM227 1805h280l261 -323h-228zM302 1303q0 47 34 77t87 30t86.5 -30t33.5 -77q0 -46 -34 -76.5t-86 -30.5q-55 0 -88 30t-33 77zM741 1303 q0 47 34 77t87 30q52 0 86.5 -30t34.5 -77q0 -45 -34 -76t-87 -31q-55 0 -88 30t-33 77z" />
<glyph unicode="&#x1dd;" horiz-adv-x="1108" d="M55 469v133h668q-15 223 -281 223q-168 0 -297 -80v228q143 76 369 76q248 0 385 -137.5t137 -383.5q0 -255 -148 -404t-364 -149q-224 0 -346.5 133t-122.5 361zM348 408q0 -220 178 -220q76 0 131.5 63t67.5 157h-377z" />
<glyph unicode="&#x1de;" horiz-adv-x="1440" d="M10 0l522 1434h383l510 -1434h-352l-102 319h-510l-101 -319h-350zM396 1703q0 47 34.5 77t86.5 30q53 0 87 -30t34 -77t-33 -77t-88 -30q-53 0 -87 31t-34 76zM423 1882v172h586v-172h-586zM530 567h367l-154 482q-17 54 -24 129h-8q-5 -63 -25 -125zM795 1703 q0 47 33.5 77t86.5 30t87 -30t34 -77t-33 -77t-88 -30q-52 0 -86 30.5t-34 76.5z" />
<glyph unicode="&#x1df;" d="M57 285q0 298 353 344l278 37q0 168 -182 168q-183 0 -348 -109v238q66 34 180.5 60t208.5 26q438 0 438 -437v-612h-299v147h-4q-103 -172 -305 -172q-149 0 -234.5 84.5t-85.5 225.5zM238 1323q0 47 34.5 77t86.5 30q53 0 87 -30t34 -77t-33 -77t-88 -30q-53 0 -87 31 t-34 76zM265 1502v172h586v-172h-586zM348 322q0 -54 37.5 -88.5t101.5 -34.5q89 0 145 61.5t56 155.5v69l-186 -24q-154 -20 -154 -139zM637 1323q0 47 33.5 77t86.5 30t87 -30t34 -77t-33 -77t-88 -30q-52 0 -86 30.5t-34 76.5z" />
<glyph unicode="&#x1e0;" horiz-adv-x="1440" d="M10 0l522 1434h383l510 -1434h-352l-102 319h-510l-101 -319h-350zM428 1884v172h586v-172h-586zM530 567h367l-154 482q-17 54 -24 129h-8q-5 -63 -25 -125zM600 1705q0 47 34.5 77t86.5 30q53 0 87 -30t34 -77t-33 -77t-88 -30q-53 0 -87 31t-34 76z" />
<glyph unicode="&#x1e1;" d="M57 285q0 298 353 344l278 37q0 168 -182 168q-183 0 -348 -109v238q66 34 180.5 60t208.5 26q438 0 438 -437v-612h-299v147h-4q-103 -172 -305 -172q-149 0 -234.5 84.5t-85.5 225.5zM260 1509v172h586v-172h-586zM348 322q0 -54 37.5 -88.5t101.5 -34.5q89 0 145 61.5 t56 155.5v69l-186 -24q-154 -20 -154 -139zM432 1330q0 47 34.5 77t86.5 30q53 0 87 -30t34 -77t-33 -77t-88 -30q-53 0 -87 31t-34 76z" />
<glyph unicode="&#x1e2;" horiz-adv-x="1915" d="M-2 0l725 1434h1094v-263h-504v-319h469v-262h-469v-328h536v-262h-858v319h-471l-147 -319h-375zM631 567h360v604h-78zM966 1585v172h586v-172h-586z" />
<glyph unicode="&#x1e3;" horiz-adv-x="1696" d="M57 287q0 146 96.5 234t276.5 102l256 20q0 191 -184 191q-174 0 -344 -107v236q187 86 370 86q234 0 324 -134h4q132 134 326 134q214 0 336 -133t122 -365v-129h-667q20 -223 282 -223q160 0 297 80v-226q-156 -78 -378 -78q-269 0 -398 179h-4q-141 -179 -362 -179 q-166 0 -259.5 82.5t-93.5 229.5zM346 315q0 -50 39 -83t102 -33q86 0 142.5 59.5t56.5 155.5v45l-156 -13q-184 -15 -184 -131zM555 1210v172h586v-172h-586zM973 616h375q0 220 -177 220q-75 0 -131.5 -62t-66.5 -158z" />
<glyph unicode="&#x1e4;" horiz-adv-x="1456" d="M74 694q0 338 218 551t580 213q228 0 402 -63v-303q-166 96 -406 96q-201 0 -327.5 -130.5t-126.5 -348.5q0 -224 115 -348.5t305 -124.5q106 0 184 28v78h-287v190h287v98h-287v217h610v-315h136v-190h-136v-246q-210 -121 -522 -121q-346 0 -545.5 191.5t-199.5 527.5z " />
<glyph unicode="&#x1e5;" horiz-adv-x="1268" d="M72 535q0 235 125 374.5t340 139.5q187 0 280 -144h4v119h316v-1008h131v-190h-160q-105 -307 -588 -307q-233 0 -354 59v260q148 -86 362 -86q192 0 252 74h-141v190h182v197h-4q-91 -172 -299 -172q-196 0 -321 137t-125 357zM393 539q0 -119 58.5 -187.5t154.5 -68.5 q97 0 158 75.5t61 194.5v20q0 102 -57 168t-150 66q-107 0 -166 -70t-59 -198z" />
<glyph unicode="&#x1e6;" horiz-adv-x="1456" d="M74 694q0 338 218 551t580 213q228 0 402 -63v-303q-166 96 -406 96q-201 0 -327.5 -130.5t-126.5 -348.5q0 -221 113.5 -342t306.5 -121q116 0 184 33v280h-287v258h610v-721q-210 -121 -522 -121q-346 0 -545.5 191.5t-199.5 527.5zM436 1883h205l155 -188l156 188h205 l-238 -325h-248z" />
<glyph unicode="&#x1e7;" horiz-adv-x="1268" d="M72 483q0 260 128 413t337 153q187 0 280 -144h4v119h316v-907q0 -285 -165 -441.5t-478 -156.5q-207 0 -328 59v266q158 -92 319 -92q160 0 248 84.5t88 229.5v81h-4q-108 -172 -319 -172q-196 0 -311 138t-115 370zM246 1499h205l155 -188l156 188h205l-238 -325h-248z M393 494q0 -128 57 -202.5t156 -74.5q98 0 158.5 75.5t60.5 199.5v81q0 97 -57.5 165.5t-149.5 68.5q-105 0 -165 -82t-60 -231z" />
<glyph unicode="&#x1e8;" horiz-adv-x="1329" d="M164 0v1434h323v-678h5q12 28 40 80l396 598h385l-500 -684l543 -750h-408l-418 623q-12 18 -38 79h-5v-702h-323zM326 1883h205l155 -188l156 188h205l-238 -325h-248z" />
<glyph unicode="&#x1e9;" horiz-adv-x="1145" d="M133 0v1516h316v-965h4l305 473h375l-367 -481l393 -543h-379l-327 508h-4v-508h-316zM250 1883h205l155 -188l156 188h205l-238 -325h-248z" />
<glyph unicode="&#x1ea;" horiz-adv-x="1553" d="M74 698q0 340 197 550t522 210q307 0 496.5 -201t189.5 -530q0 -338 -196.5 -545t-512.5 -207q-308 0 -502 200.5t-194 522.5zM414 715q0 -213 100 -337t262 -124q167 0 265 120.5t98 334.5q0 223 -95 347t-260 124q-170 0 -270 -127.5t-100 -337.5zM642 -245 q0 31 11 64.5t32 66t52 61.5t71 53h155q-78 -57 -115.5 -111.5t-37.5 -96.5q0 -33 17 -49.5t46 -16.5q19 0 40 3t41 9l1 -138q-24 -8 -57.5 -13.5t-68.5 -5.5q-85 0 -136 44.5t-51 129.5z" />
<glyph unicode="&#x1eb;" horiz-adv-x="1252" d="M72 508q0 254 152 397.5t411 143.5q255 0 400 -143.5t145 -379.5q0 -255 -149.5 -403t-409.5 -148q-256 0 -402.5 143.5t-146.5 389.5zM393 512q0 -295 238 -295q227 0 227 303q0 287 -229 287q-112 0 -174 -77t-62 -218zM488 -245q0 31 11 64.5t32 66t52 61.5t71 53h155 q-78 -57 -115.5 -111.5t-37.5 -96.5q0 -33 17 -49.5t46 -16.5q19 0 40 3t41 9l1 -138q-24 -8 -57.5 -13.5t-68.5 -5.5q-85 0 -136 44.5t-51 129.5z" />
<glyph unicode="&#x1ec;" horiz-adv-x="1553" d="M74 698q0 340 197 550t522 210q307 0 496.5 -201t189.5 -530q0 -338 -196.5 -545t-512.5 -207q-308 0 -502 200.5t-194 522.5zM414 715q0 -213 100 -337t262 -124q167 0 265 120.5t98 334.5q0 223 -95 347t-260 124q-170 0 -270 -127.5t-100 -337.5zM483 1585v172h586 v-172h-586zM642 -245q0 31 11 64.5t32 66t52 61.5t71 53h155q-78 -57 -115.5 -111.5t-37.5 -96.5q0 -33 17 -49.5t46 -16.5q19 0 40 3t41 9l1 -138q-24 -8 -57.5 -13.5t-68.5 -5.5q-85 0 -136 44.5t-51 129.5z" />
<glyph unicode="&#x1ed;" horiz-adv-x="1252" d="M72 508q0 254 152 397.5t411 143.5q255 0 400 -143.5t145 -379.5q0 -255 -149.5 -403t-409.5 -148q-256 0 -402.5 143.5t-146.5 389.5zM334 1210v172h586v-172h-586zM393 512q0 -295 238 -295q227 0 227 303q0 287 -229 287q-112 0 -174 -77t-62 -218zM488 -245 q0 31 11 64.5t32 66t52 61.5t71 53h155q-78 -57 -115.5 -111.5t-37.5 -96.5q0 -33 17 -49.5t46 -16.5q19 0 40 3t41 9l1 -138q-24 -8 -57.5 -13.5t-68.5 -5.5q-85 0 -136 44.5t-51 129.5z" />
<glyph unicode="&#x1ee;" horiz-adv-x="1370" d="M41 -43q213 -160 487 -160q196 0 312 92t116 246q0 157 -129.5 244.5t-361.5 87.5h-143v186l460 518h-725v263h1155v-181l-477 -538q258 -38 409.5 -190.5t151.5 -383.5q0 -274 -216.5 -448t-551.5 -174q-260 0 -487 119v319zM244 1883h205l155 -188l156 188h205 l-238 -325h-248z" />
<glyph unicode="&#x1ef;" horiz-adv-x="1016" d="M-23 -115q157 -125 355 -125q164 0 255 65.5t91 182.5q0 115 -94 179.5t-262 64.5h-125v131l350 408h-537v233h914v-156l-363 -413q205 -32 319.5 -146t114.5 -293q0 -219 -183 -358t-462 -139q-208 0 -373 92v274zM92 1499h205l155 -188l156 188h205l-238 -325h-248z " />
<glyph unicode="&#x1f0;" horiz-adv-x="582" d="M-133 -203q66 -37 117 -37q149 0 149 234v1030h316v-1006q0 -227 -111 -363t-320 -136q-69 0 -151 30v248zM-70 1499h205l155 -188l156 188h205l-238 -325h-248z" />
<glyph unicode="&#x1f1;" horiz-adv-x="2654" d="M164 0v1434h508q764 0 764 -699q0 -335 -208.5 -535t-555.5 -200h-508zM487 262h160q210 0 329.5 126t119.5 343q0 205 -118.5 322.5t-332.5 117.5h-158v-909zM1452 0v186l735 985h-682v263h1100v-181l-719 -991h721v-262h-1155z" />
<glyph unicode="&#x1f2;" horiz-adv-x="2476" d="M164 0v1434h508q764 0 764 -699q0 -335 -208.5 -535t-555.5 -200h-508zM487 262h160q210 0 329.5 126t119.5 343q0 205 -118.5 322.5t-332.5 117.5h-158v-909zM1520 0v131l514 660h-463v233h864v-156l-487 -635h491v-233h-919z" />
<glyph unicode="&#x1f3;" horiz-adv-x="2224" d="M72 489q0 254 129 407t338 153q198 0 276 -142h4v609h316v-1516h-316v141h-4q-108 -166 -317 -166q-192 0 -309 135.5t-117 378.5zM393 498q0 -135 57 -208t158 -73q96 0 156.5 77t60.5 204v77q0 100 -58 166t-151 66q-105 0 -164 -82.5t-59 -226.5zM1268 0v131l514 660 h-463v233h864v-156l-487 -635h491v-233h-919z" />
<glyph unicode="&#x1f4;" horiz-adv-x="1456" d="M74 694q0 338 218 551t580 213q228 0 402 -63v-303q-166 96 -406 96q-201 0 -327.5 -130.5t-126.5 -348.5q0 -221 113.5 -342t306.5 -121q116 0 184 33v280h-287v258h610v-721q-210 -121 -522 -121q-346 0 -545.5 191.5t-199.5 527.5zM672 1564l260 323h281l-313 -323 h-228z" />
<glyph unicode="&#x1f5;" horiz-adv-x="1268" d="M72 483q0 260 128 413t337 153q187 0 280 -144h4v119h316v-907q0 -285 -165 -441.5t-478 -156.5q-207 0 -328 59v266q158 -92 319 -92q160 0 248 84.5t88 229.5v81h-4q-108 -172 -319 -172q-196 0 -311 138t-115 370zM393 494q0 -128 57 -202.5t156 -74.5 q98 0 158.5 75.5t60.5 199.5v81q0 97 -57.5 165.5t-149.5 68.5q-105 0 -165 -82t-60 -231zM461 1188l260 323h281l-313 -323h-228z" />
<glyph unicode="&#x1f6;" horiz-adv-x="2216" d="M164 0v1434h323v-572h553v572h324v-940q0 -240 203 -240q202 0 202 240v530h324v-528q0 -253 -138 -387t-394 -134q-247 0 -384 133t-137 381v95h-553v-584h-323z" />
<glyph unicode="&#x1f7;" horiz-adv-x="1526" d="M223 -471v1905h324v-146h4q163 170 428 170q210 0 341.5 -137t131.5 -348q0 -284 -245.5 -550.5t-659.5 -446.5v-447h-324zM547 300q250 123 408.5 299.5t158.5 348.5q0 95 -60.5 163.5t-152.5 68.5q-172 0 -354 -199v-681z" />
<glyph unicode="&#x1f8;" horiz-adv-x="1618" d="M164 0v1434h348l569 -873q39 -59 72 -117h4q-8 50 -8 197v793h305v-1434h-326l-591 901q-52 79 -72 119h-4q8 -76 8 -232v-788h-305zM383 1893h281l260 -323h-227z" />
<glyph unicode="&#x1f9;" horiz-adv-x="1239" d="M133 0v1024h316v-162h4q113 187 329 187q340 0 340 -422v-627h-315v569q0 238 -170 238q-82 0 -135 -63t-53 -160v-584h-316zM223 1511h281l260 -323h-227z" />
<glyph unicode="&#x1fa;" horiz-adv-x="1440" d="M10 0l512 1407q-53 54 -53 137q0 106 73.5 169t180.5 63q114 0 184 -63.5t70 -164.5q0 -80 -53 -137l501 -1411h-352l-102 319h-510l-101 -319h-350zM496 1858l260 323h281l-313 -323h-228zM535 584h358l-152 465q-13 40 -22 120h-8q-7 -68 -23 -116zM616 1546 q0 -98 103 -98q48 0 77 28.5t29 69.5q0 43 -29.5 71t-76.5 28t-75 -28.5t-28 -70.5z" />
<glyph unicode="&#x1fb;" d="M57 285q0 298 353 344l278 37q0 168 -182 168q-183 0 -348 -109v238q66 34 180.5 60t208.5 26q438 0 438 -437v-612h-299v147h-4q-103 -172 -305 -172q-149 0 -234.5 84.5t-85.5 225.5zM338 1350q0 101 69.5 161t170.5 60q107 0 173 -59.5t66 -155.5q0 -98 -71.5 -159.5 t-172.5 -61.5q-102 0 -168.5 59.5t-66.5 155.5zM348 322q0 -54 37.5 -88.5t101.5 -34.5q89 0 145 61.5t56 155.5v69l-186 -24q-154 -20 -154 -139zM350 1659l260 323h281l-313 -323h-228zM477 1354q0 -94 96 -94q45 0 74 27.5t29 66.5q0 41 -28.5 67.5t-74.5 26.5 q-96 0 -96 -94z" />
<glyph unicode="&#x1fc;" horiz-adv-x="1915" d="M-2 0l725 1434h1094v-263h-504v-319h469v-262h-469v-328h536v-262h-858v319h-471l-147 -319h-375zM631 567h360v604h-78zM985 1567l260 323h281l-313 -323h-228z" />
<glyph unicode="&#x1fd;" horiz-adv-x="1696" d="M57 287q0 146 96.5 234t276.5 102l256 20q0 191 -184 191q-174 0 -344 -107v236q187 86 370 86q234 0 324 -134h4q132 134 326 134q214 0 336 -133t122 -365v-129h-667q20 -223 282 -223q160 0 297 80v-226q-156 -78 -378 -78q-269 0 -398 179h-4q-141 -179 -362 -179 q-166 0 -259.5 82.5t-93.5 229.5zM346 315q0 -50 39 -83t102 -33q86 0 142.5 59.5t56.5 155.5v45l-156 -13q-184 -15 -184 -131zM639 1186l260 323h281l-313 -323h-228zM973 616h375q0 220 -177 220q-75 0 -131.5 -62t-66.5 -158z" />
<glyph unicode="&#x1fe;" horiz-adv-x="1553" d="M74 698q0 340 196.5 550t522.5 210q234 0 401 -119l129 150l125 -103l-135 -157q166 -196 166 -502q0 -338 -196.5 -545t-512.5 -207q-240 0 -422 134l-143 -170l-125 104l149 176q-155 192 -155 479zM391 709q0 -146 47 -252l578 673q-97 76 -232 76q-181 0 -287 -136.5 t-106 -360.5zM532 319q101 -92 244 -92q175 0 281 128.5t106 351.5q0 164 -53 288zM608 1567l260 323h281l-313 -323h-228z" />
<glyph unicode="&#x1ff;" horiz-adv-x="1252" d="M39 29l137 143q-104 141 -104 338q0 253 152.5 397t412.5 144q179 0 311 -82l139 147l119 -106l-139 -146q113 -143 113 -338q0 -259 -148 -404t-411 -145q-198 0 -328 86l-135 -141zM373 514q0 -73 18 -121l381 398q-56 40 -141 40q-258 0 -258 -317zM417 1186l260 323 h281l-313 -323h-228zM469 242q61 -45 160 -45q252 0 252 323q0 74 -19 131z" />
<glyph unicode="&#x200;" horiz-adv-x="1440" d="M10 0l522 1434h383l510 -1434h-352l-102 319h-510l-101 -319h-350zM181 1888h250l213 -319h-211zM530 567h367l-154 482q-17 54 -24 129h-8q-5 -63 -25 -125zM560 1888h247l211 -319h-211z" />
<glyph unicode="&#x201;" d="M44 1505h250l213 -319h-211zM57 285q0 298 353 344l278 37q0 168 -182 168q-183 0 -348 -109v238q66 34 180.5 60t208.5 26q438 0 438 -437v-612h-299v147h-4q-103 -172 -305 -172q-149 0 -234.5 84.5t-85.5 225.5zM348 322q0 -54 37.5 -88.5t101.5 -34.5q89 0 145 61.5 t56 155.5v69l-186 -24q-154 -20 -154 -139zM423 1505h247l211 -319h-211z" />
<glyph unicode="&#x202;" horiz-adv-x="1440" d="M10 0l522 1434h383l510 -1434h-352l-102 319h-510l-101 -319h-350zM383 1553q12 141 102.5 224t237.5 83q146 0 238 -85.5t96 -221.5h-180q-17 135 -158 135q-136 0 -156 -135h-180zM530 567h367l-154 482q-17 54 -24 129h-8q-5 -63 -25 -125z" />
<glyph unicode="&#x203;" d="M57 285q0 298 353 344l278 37q0 168 -182 168q-183 0 -348 -109v238q66 34 180.5 60t208.5 26q438 0 438 -437v-612h-299v147h-4q-103 -172 -305 -172q-149 0 -234.5 84.5t-85.5 225.5zM215 1176q12 141 102.5 224t237.5 83q146 0 238 -85.5t96 -221.5h-180 q-17 135 -158 135q-136 0 -156 -135h-180zM348 322q0 -54 37.5 -88.5t101.5 -34.5q89 0 145 61.5t56 155.5v69l-186 -24q-154 -20 -154 -139z" />
<glyph unicode="&#x204;" horiz-adv-x="1090" d="M44 1888h250l213 -319h-211zM164 0v1434h827v-263h-504v-319h469v-262h-469v-328h537v-262h-860zM423 1888h247l211 -319h-211z" />
<glyph unicode="&#x205;" horiz-adv-x="1108" d="M54 1505h250l213 -319h-211zM72 496q0 255 148 404t364 149q224 0 346.5 -133t122.5 -361v-133h-668q16 -223 281 -223q169 0 297 80v-228q-142 -76 -369 -76q-248 0 -385 137.5t-137 383.5zM383 616h377q0 220 -178 220q-76 0 -131.5 -63t-67.5 -157zM433 1505h247 l211 -319h-211z" />
<glyph unicode="&#x206;" horiz-adv-x="1090" d="M164 0v1434h827v-263h-504v-319h469v-262h-469v-328h537v-262h-860zM241 1553q12 141 102.5 224t237.5 83q146 0 238 -85.5t96 -221.5h-180q-17 135 -158 135q-136 0 -156 -135h-180z" />
<glyph unicode="&#x207;" horiz-adv-x="1108" d="M72 496q0 255 148 404t364 149q224 0 346.5 -133t122.5 -361v-133h-668q16 -223 281 -223q169 0 297 80v-228q-142 -76 -369 -76q-248 0 -385 137.5t-137 383.5zM217 1176q12 141 102.5 224t237.5 83q146 0 238 -85.5t96 -221.5h-180q-17 135 -158 135q-136 0 -156 -135 h-180zM383 616h377q0 220 -178 220q-76 0 -131.5 -63t-67.5 -157z" />
<glyph unicode="&#x208;" horiz-adv-x="649" d="M-197 1888h250l213 -319h-211zM44 0v250h120v934h-120v250h563v-250h-120v-934h120v-250h-563zM182 1888h247l211 -319h-211z" />
<glyph unicode="&#x209;" horiz-adv-x="582" d="M-223 1505h250l213 -319h-211zM133 0v1024h316v-1024h-316zM156 1505h247l211 -319h-211z" />
<glyph unicode="&#x20a;" horiz-adv-x="649" d="M-11 1553q12 141 102.5 224t237.5 83q146 0 238 -85.5t96 -221.5h-180q-17 135 -158 135q-136 0 -156 -135h-180zM44 0v250h120v934h-120v250h563v-250h-120v-934h120v-250h-563z" />
<glyph unicode="&#x20b;" horiz-adv-x="582" d="M-46 1176q12 141 102.5 224t237.5 83q146 0 238 -85.5t96 -221.5h-180q-17 135 -158 135q-136 0 -156 -135h-180zM133 0v1024h316v-1024h-316z" />
<glyph unicode="&#x20c;" horiz-adv-x="1553" d="M74 698q0 340 197 550t522 210q307 0 496.5 -201t189.5 -530q0 -338 -196.5 -545t-512.5 -207q-308 0 -502 200.5t-194 522.5zM263 1888h250l213 -319h-211zM414 715q0 -213 100 -337t262 -124q167 0 265 120.5t98 334.5q0 223 -95 347t-260 124q-170 0 -270 -127.5 t-100 -337.5zM642 1888h247l211 -319h-211z" />
<glyph unicode="&#x20d;" horiz-adv-x="1252" d="M72 508q0 254 152 397.5t411 143.5q255 0 400 -143.5t145 -379.5q0 -255 -149.5 -403t-409.5 -148q-256 0 -402.5 143.5t-146.5 389.5zM121 1505h250l213 -319h-211zM393 512q0 -295 238 -295q227 0 227 303q0 287 -229 287q-112 0 -174 -77t-62 -218zM500 1505h247 l211 -319h-211z" />
<glyph unicode="&#x20e;" horiz-adv-x="1553" d="M74 698q0 340 197 550t522 210q307 0 496.5 -201t189.5 -530q0 -338 -196.5 -545t-512.5 -207q-308 0 -502 200.5t-194 522.5zM414 715q0 -213 100 -337t262 -124q167 0 265 120.5t98 334.5q0 223 -95 347t-260 124q-170 0 -270 -127.5t-100 -337.5zM440 1553 q12 141 102.5 224t237.5 83q146 0 238 -85.5t96 -221.5h-180q-17 135 -158 135q-136 0 -156 -135h-180z" />
<glyph unicode="&#x20f;" horiz-adv-x="1252" d="M72 508q0 254 152 397.5t411 143.5q255 0 400 -143.5t145 -379.5q0 -255 -149.5 -403t-409.5 -148q-256 0 -402.5 143.5t-146.5 389.5zM289 1176q12 141 102.5 224t237.5 83q146 0 238 -85.5t96 -221.5h-180q-17 135 -158 135q-136 0 -156 -135h-180zM393 512 q0 -295 238 -295q227 0 227 303q0 287 -229 287q-112 0 -174 -77t-62 -218z" />
<glyph unicode="&#x210;" horiz-adv-x="1337" d="M109 1888h250l213 -319h-211zM164 0v1434h512q522 0 522 -390q0 -75 -23 -138.5t-65 -114.5t-101.5 -88t-132.5 -58v-4q32 -10 62 -32.5t58 -52.5t53.5 -64.5t46.5 -67.5l271 -424h-371l-223 369q-25 42 -48 75t-46.5 56.5t-49 36t-55.5 12.5h-87v-549h-323zM487 793h140 q104 0 167 60q64 61 64 151q0 188 -225 188h-146v-399zM488 1888h247l211 -319h-211z" />
<glyph unicode="&#x211;" horiz-adv-x="815" d="M-102 1505h250l213 -319h-211zM133 0v1024h316v-190h4q75 208 270 208q50 0 78 -12v-291q-57 31 -133 31q-103 0 -161 -75.5t-58 -205.5v-489h-316zM277 1505h247l211 -319h-211z" />
<glyph unicode="&#x212;" horiz-adv-x="1337" d="M164 0v1434h512q522 0 522 -390q0 -75 -23 -138.5t-65 -114.5t-101.5 -88t-132.5 -58v-4q32 -10 62 -32.5t58 -52.5t53.5 -64.5t46.5 -67.5l271 -424h-371l-223 369q-25 42 -48 75t-46.5 56.5t-49 36t-55.5 12.5h-87v-549h-323zM291 1553q12 141 102.5 224t237.5 83 q146 0 238 -85.5t96 -221.5h-180q-17 135 -158 135q-136 0 -156 -135h-180zM487 793h140q104 0 167 60q64 61 64 151q0 188 -225 188h-146v-399z" />
<glyph unicode="&#x213;" horiz-adv-x="815" d="M133 0v1024h316v-190h4q75 208 270 208q50 0 78 -12v-291q-57 31 -133 31q-103 0 -161 -75.5t-58 -205.5v-489h-316zM133 1176q12 141 102.5 224t237.5 83q146 0 238 -85.5t96 -221.5h-180q-17 135 -158 135q-136 0 -156 -135h-180z" />
<glyph unicode="&#x214;" horiz-adv-x="1481" d="M147 606v828h324v-832q0 -348 272 -348q267 0 267 336v844h323v-813q0 -646 -602 -646q-584 0 -584 631zM205 1888h250l213 -319h-211zM584 1888h247l211 -319h-211z" />
<glyph unicode="&#x215;" horiz-adv-x="1239" d="M91 1505h250l213 -319h-211zM117 406v618h315v-590q0 -217 172 -217q85 0 136 59.5t51 161.5v586h315v-1024h-315v156h-5q-117 -181 -313 -181q-356 0 -356 431zM470 1505h247l211 -319h-211z" />
<glyph unicode="&#x216;" horiz-adv-x="1481" d="M147 606v828h324v-832q0 -348 272 -348q267 0 267 336v844h323v-813q0 -646 -602 -646q-584 0 -584 631zM403 1553q12 141 102.5 224t237.5 83q146 0 238 -85.5t96 -221.5h-180q-17 135 -158 135q-136 0 -156 -135h-180z" />
<glyph unicode="&#x217;" horiz-adv-x="1239" d="M117 406v618h315v-590q0 -217 172 -217q85 0 136 59.5t51 161.5v586h315v-1024h-315v156h-5q-117 -181 -313 -181q-356 0 -356 431zM282 1176q12 141 102.5 224t237.5 83q146 0 238 -85.5t96 -221.5h-180q-17 135 -158 135q-136 0 -156 -135h-180z" />
<glyph unicode="&#x218;" horiz-adv-x="1148" d="M92 1032q0 112 45 192.5t122.5 132.5t179.5 76.5t216 24.5q112 0 198.5 -13.5t159.5 -41.5v-299q-36 25 -78.5 44t-87.5 31.5t-89.5 18.5t-84.5 6q-55 0 -100 -10.5t-76 -29.5t-48 -45.5t-17 -59.5q0 -36 19 -64.5t54 -54t85 -50t113 -50.5q86 -36 154.5 -76.5 t117.5 -91.5t75 -116.5t26 -152.5q0 -120 -45.5 -201.5t-123.5 -132t-181.5 -72.5t-218.5 -22q-118 0 -224.5 20t-184.5 60v320q87 -73 189 -109.5t206 -36.5q61 0 106.5 11t76 30.5t45.5 46t15 57.5q0 42 -24 75t-65.5 61t-98.5 54t-123 53q-168 70 -250.5 171t-82.5 244z M367 -469l90 352h272l-168 -352h-194z" />
<glyph unicode="&#x219;" horiz-adv-x="901" d="M66 27v256q78 -47 155.5 -70t146.5 -23q84 0 132.5 23t48.5 70q0 30 -22 50t-56.5 35t-75.5 27t-79 27q-61 23 -107.5 49.5t-78 61.5t-48 81t-16.5 109q0 86 37.5 148t100 101.5t143 58t167.5 18.5q68 0 138 -10.5t138 -30.5v-244q-60 35 -128.5 52.5t-134.5 17.5 q-31 0 -58.5 -5.5t-48.5 -16t-33 -27t-12 -37.5q0 -28 18 -48t47 -34.5t64.5 -26t70.5 -23.5q63 -22 114 -48t87.5 -61t56 -82t19.5 -112q0 -91 -39.5 -155.5t-105 -105t-151 -59t-177.5 -18.5q-169 0 -313 52zM246 -469l90 352h272l-168 -352h-194z" />
<glyph unicode="&#x21a;" horiz-adv-x="1200" d="M31 1171v263h1140v-263h-409v-1171h-324v1171h-407zM410 -469l90 352h272l-168 -352h-194z" />
<glyph unicode="&#x21b;" horiz-adv-x="797" d="M41 791v233h166v221l315 90v-311h230v-233h-230v-414q0 -160 127 -160q50 0 103 29v-234q-70 -37 -211 -37q-334 0 -334 347v469h-166zM280 -469l90 352h272l-168 -352h-194z" />
<glyph unicode="&#x21c;" horiz-adv-x="1176" d="M0 -176q97 -27 238 -27q232 0 378 97t146 253q0 121 -85 197t-226 76q-106 0 -226 -41v276l125 35q334 94 334 279q0 95 -80.5 153t-218.5 58q-188 0 -356 -95v293q169 80 393 80q276 0 436 -129t160 -338q0 -254 -260 -368v-5q161 -41 252.5 -157.5t91.5 -286.5 q0 -275 -240.5 -465t-617.5 -190q-159 0 -244 20v285z" />
<glyph unicode="&#x21d;" horiz-adv-x="1012" d="M10 -217q86 -23 211 -23q191 0 309.5 70t118.5 186q0 90 -68.5 144.5t-187.5 54.5q-77 0 -182 -35v240l100 24q273 66 273 203q0 160 -244 160q-160 0 -303 -76v254q146 64 340 64q239 0 378.5 -103t139.5 -270q0 -201 -215 -291v-2q134 -29 212.5 -120.5t78.5 -225.5 q0 -220 -208.5 -369t-535.5 -149q-139 0 -217 18v246z" />
<glyph unicode="&#x21e;" horiz-adv-x="1569" d="M164 0v1434h323v-572h594v572h324v-1434h-324v584h-594v-584h-323zM424 1883h205l155 -188l156 188h205l-238 -325h-248z" />
<glyph unicode="&#x21f;" horiz-adv-x="1233" d="M133 0v1516h316v-644h4q116 177 315 177q348 0 348 -420v-629h-315v582q0 225 -164 225q-84 0 -136 -63t-52 -160v-584h-316zM250 1883h205l155 -188l156 188h205l-238 -325h-248z" />
<glyph unicode="&#x220;" horiz-adv-x="1600" d="M164 0v1434h323v-238h5q162 262 456 262q234 0 361 -155t127 -443v-1331h-324v1259q0 392 -289 392q-145 0 -240.5 -108t-95.5 -275v-797h-323z" />
<glyph unicode="&#x221;" horiz-adv-x="1377" d="M72 489q0 254 129 407t338 153q198 0 276 -142h4v609h316v-1430q0 -25 2 -55q99 47 202 47q146 0 245 -78.5t99 -192.5q0 -120 -100.5 -199t-261.5 -79t-281 80q-19 -41 -32 -90h-267q41 161 131 293q-53 118 -53 268v61h-4q-108 -166 -317 -166q-192 0 -309 135.5 t-117 378.5zM393 498q0 -135 57 -208t158 -73q96 0 156.5 77t60.5 204v77q0 100 -58 166t-151 66q-105 0 -164 -82.5t-59 -226.5zM1204 -186q52 -66 131 -66q92 0 92 55q0 56 -86 56q-72 0 -137 -45z" />
<glyph unicode="&#x222;" horiz-adv-x="1438" d="M74 494q0 319 280 438q-217 88 -217 315q0 96 35 187h309q-22 -72 -22 -154q0 -105 68 -167t190 -62q262 0 262 229q0 78 -23 154h310q34 -88 34 -187q0 -227 -217 -315q281 -111 281 -418q0 -240 -180 -389.5t-473 -149.5q-294 0 -465.5 142t-171.5 377zM414 510 q0 -118 80 -187t221 -69q146 0 227.5 70t81.5 192q0 115 -83.5 185.5t-225.5 70.5q-143 0 -222 -69.5t-79 -192.5z" />
<glyph unicode="&#x223;" horiz-adv-x="1295" d="M72 506q0 302 247 436q-192 98 -192 352q0 124 23 222h294q-16 -109 -16 -189q0 -278 219 -278t219 278q0 80 -16 189h295q22 -93 22 -216q0 -255 -196 -358q252 -113 252 -430q0 -241 -159 -389t-423 -148q-265 0 -417 144t-152 387zM393 512q0 -132 69 -213.5 t185 -81.5q119 0 186.5 79t67.5 216q0 132 -69 213.5t-185 81.5q-119 0 -186.5 -79t-67.5 -216z" />
<glyph unicode="&#x224;" horiz-adv-x="1243" d="M41 0v186l735 985h-682v263h1100v-181l-719 -991h365q452 0 452 -358q0 -130 -55 -252h-291q58 108 58 186q0 162 -207 162h-756z" />
<glyph unicode="&#x225;" horiz-adv-x="981" d="M25 0v131l514 660h-463v233h864v-156l-487 -635h241q367 0 367 -315q0 -109 -49 -227h-262q47 89 47 172q0 137 -162 137h-610z" />
<glyph unicode="&#x226;" horiz-adv-x="1440" d="M10 0l522 1434h383l510 -1434h-352l-102 319h-510l-101 -319h-350zM530 567h367l-154 482q-17 54 -24 129h-8q-5 -63 -25 -125zM566 1704q0 60 44 97.5t110 37.5q67 0 109.5 -38t42.5 -97t-42.5 -98t-109.5 -39t-110.5 40t-43.5 97z" />
<glyph unicode="&#x227;" d="M57 285q0 298 353 344l278 37q0 168 -182 168q-183 0 -348 -109v238q66 34 180.5 60t208.5 26q438 0 438 -437v-612h-299v147h-4q-103 -172 -305 -172q-149 0 -234.5 84.5t-85.5 225.5zM348 322q0 -54 37.5 -88.5t101.5 -34.5q89 0 145 61.5t56 155.5v69l-186 -24 q-154 -20 -154 -139zM399 1329q0 60 44 97.5t110 37.5q67 0 109.5 -38t42.5 -97t-42.5 -98t-109.5 -39t-110.5 40t-43.5 97z" />
<glyph unicode="&#x228;" horiz-adv-x="1090" d="M164 0v1434h827v-263h-504v-319h469v-262h-469v-328h537v-262h-860zM440 -313q35 -6 72 -6q123 0 123 73q0 66 -111 66q-13 0 -37 -2v182h172v-82q187 -8 187 -166q0 -207 -318 -207q-46 0 -88 4v138z" />
<glyph unicode="&#x229;" horiz-adv-x="1108" d="M72 496q0 255 148 404t364 149q224 0 346.5 -133t122.5 -361v-133h-668q16 -223 281 -223q169 0 297 80v-228q-142 -76 -369 -76q-248 0 -385 137.5t-137 383.5zM383 616h377q0 220 -178 220q-76 0 -131.5 -63t-67.5 -157zM408 -313q35 -6 72 -6q123 0 123 73 q0 66 -111 66q-13 0 -37 -2v182h172v-82q187 -8 187 -166q0 -207 -318 -207q-46 0 -88 4v138z" />
<glyph unicode="&#x22a;" horiz-adv-x="1553" d="M74 698q0 340 197 550t522 210q307 0 496.5 -201t189.5 -530q0 -338 -196.5 -545t-512.5 -207q-308 0 -502 200.5t-194 522.5zM414 715q0 -213 100 -337t262 -124q167 0 265 120.5t98 334.5q0 223 -95 347t-260 124q-170 0 -270 -127.5t-100 -337.5zM456 1703 q0 47 34.5 77t86.5 30q53 0 87 -30t34 -77t-33 -77t-88 -30q-53 0 -87 31t-34 76zM483 1882v172h586v-172h-586zM855 1703q0 47 33.5 77t86.5 30t87 -30t34 -77t-33 -77t-88 -30q-52 0 -86 30.5t-34 76.5z" />
<glyph unicode="&#x22b;" horiz-adv-x="1252" d="M72 508q0 254 152 397.5t411 143.5q255 0 400 -143.5t145 -379.5q0 -255 -149.5 -403t-409.5 -148q-256 0 -402.5 143.5t-146.5 389.5zM310 1323q0 47 34.5 77t86.5 30q53 0 87 -30t34 -77t-33 -77t-88 -30q-53 0 -87 31t-34 76zM337 1502v172h586v-172h-586zM393 512 q0 -295 238 -295q227 0 227 303q0 287 -229 287q-112 0 -174 -77t-62 -218zM709 1323q0 47 33.5 77t86.5 30t87 -30t34 -77t-33 -77t-88 -30q-52 0 -86 30.5t-34 76.5z" />
<glyph unicode="&#x22c;" horiz-adv-x="1553" d="M74 698q0 340 197 550t522 210q307 0 496.5 -201t189.5 -530q0 -338 -196.5 -545t-512.5 -207q-308 0 -502 200.5t-194 522.5zM414 715q0 -213 100 -337t262 -124q167 0 265 120.5t98 334.5q0 223 -95 347t-260 124q-170 0 -270 -127.5t-100 -337.5zM434 1582 q0 110 55.5 171t157.5 61q71 0 151 -35q85 -37 123 -37q76 0 76 76h143q0 -229 -209 -229q-60 0 -149 34q-96 37 -129 37q-76 0 -76 -78h-143zM494 1893v172h586v-172h-586z" />
<glyph unicode="&#x22d;" horiz-adv-x="1252" d="M72 508q0 254 152 397.5t411 143.5q255 0 400 -143.5t145 -379.5q0 -255 -149.5 -403t-409.5 -148q-256 0 -402.5 143.5t-146.5 389.5zM271 1201q0 110 55.5 171t157.5 61q71 0 151 -35q85 -37 123 -37q76 0 76 76h143q0 -229 -209 -229q-60 0 -149 34q-96 37 -129 37 q-76 0 -76 -78h-143zM331 1512v172h586v-172h-586zM393 512q0 -295 238 -295q227 0 227 303q0 287 -229 287q-112 0 -174 -77t-62 -218z" />
<glyph unicode="&#x22e;" horiz-adv-x="1553" d="M74 698q0 340 197 550t522 210q307 0 496.5 -201t189.5 -530q0 -338 -196.5 -545t-512.5 -207q-308 0 -502 200.5t-194 522.5zM414 715q0 -213 100 -337t262 -124q167 0 265 120.5t98 334.5q0 223 -95 347t-260 124q-170 0 -270 -127.5t-100 -337.5zM622 1704 q0 60 44 97.5t110 37.5q67 0 109.5 -38t42.5 -97t-42.5 -98t-109.5 -39t-110.5 40t-43.5 97z" />
<glyph unicode="&#x22f;" horiz-adv-x="1252" d="M72 508q0 254 152 397.5t411 143.5q255 0 400 -143.5t145 -379.5q0 -255 -149.5 -403t-409.5 -148q-256 0 -402.5 143.5t-146.5 389.5zM393 512q0 -295 238 -295q227 0 227 303q0 287 -229 287q-112 0 -174 -77t-62 -218zM471 1329q0 60 44 97.5t110 37.5q67 0 109.5 -38 t42.5 -97t-42.5 -98t-109.5 -39t-110.5 40t-43.5 97z" />
<glyph unicode="&#x230;" horiz-adv-x="1553" d="M74 698q0 340 197 550t522 210q307 0 496.5 -201t189.5 -530q0 -338 -196.5 -545t-512.5 -207q-308 0 -502 200.5t-194 522.5zM414 715q0 -213 100 -337t262 -124q167 0 265 120.5t98 334.5q0 223 -95 347t-260 124q-170 0 -270 -127.5t-100 -337.5zM483 1884v172h586 v-172h-586zM655 1705q0 47 34.5 77t86.5 30q53 0 87 -30t34 -77t-33 -77t-88 -30q-53 0 -87 31t-34 76z" />
<glyph unicode="&#x2c6;" horiz-adv-x="785" d="M31 1186l235 325h248l236 -325h-207l-158 188l-147 -188h-207z" />
<glyph unicode="&#x2c7;" horiz-adv-x="785" d="M33 1511h205l155 -188l156 188h205l-238 -325h-248z" />
<glyph unicode="&#x2d8;" horiz-adv-x="709" d="M18 1493h179q17 -135 159 -135q137 0 156 135h180q-12 -141 -102.5 -224t-237.5 -83q-146 0 -238 85.5t-96 221.5z" />
<glyph unicode="&#x2d9;" horiz-adv-x="518" d="M106 1323q0 60 44 97.5t110 37.5q67 0 109.5 -38t42.5 -97t-42.5 -98t-109.5 -39t-110.5 40t-43.5 97z" />
<glyph unicode="&#x2da;" horiz-adv-x="555" d="M39 1401q0 101 69.5 161t170.5 60q107 0 173 -59.5t66 -155.5q0 -98 -71.5 -159.5t-172.5 -61.5q-102 0 -168.5 59.5t-66.5 155.5zM178 1405q0 -94 96 -94q45 0 74 27.5t29 66.5q0 41 -28.5 67.5t-74.5 26.5q-96 0 -96 -94z" />
<glyph unicode="&#x2db;" horiz-adv-x="545" d="M98 -245q0 31 11 64.5t32 66t52 61.5t71 53h155q-78 -57 -115.5 -111.5t-37.5 -96.5q0 -33 17 -49.5t46 -16.5q19 0 40 3t41 9l1 -138q-24 -8 -57.5 -13.5t-68.5 -5.5q-85 0 -136 44.5t-51 129.5z" />
<glyph unicode="&#x2dc;" horiz-adv-x="785" d="M35 1186q0 139 55 216t154 77q81 0 168 -49q79 -44 120 -44q78 0 78 111h144q0 -140 -55.5 -216.5t-151.5 -76.5q-86 0 -168 43q-89 47 -123 47q-80 0 -80 -108h-141z" />
<glyph unicode="&#x2dd;" horiz-adv-x="832" d="M33 1186l211 319h248l-248 -319h-211zM408 1186l213 319h249l-252 -319h-210z" />
<glyph unicode="&#x3a9;" horiz-adv-x="1568" d="M82 0v262h340q-338 196 -338 567q0 285 195 457t503 172q317 0 510 -173t193 -451q0 -378 -348 -572h346v-262h-600v260q262 226 262 526q0 179 -101.5 286.5t-255.5 107.5q-159 0 -261.5 -107.5t-102.5 -298.5q0 -139 55.5 -260t202.5 -254v-260h-600z" />
<glyph unicode="&#x3c0;" horiz-adv-x="1418" d="M10 707v254q87 63 246 63h1096v-233h-222v-414q0 -144 87 -144q45 0 94 23v-242q-82 -32 -176 -32q-320 0 -320 342v467h-248v-480q0 -211 -41 -311h-321q47 121 47 328v463q-121 -2 -242 -84z" />
<glyph unicode="&#x400;" horiz-adv-x="1090" d="M164 0v1434h827v-263h-504v-319h469v-262h-469v-328h537v-262h-860zM311 1858h281l260 -323h-227z" />
<glyph unicode="&#x401;" horiz-adv-x="1090" d="M164 0v1434h827v-263h-504v-319h469v-262h-469v-328h537v-262h-860zM225 1671q0 60 44 98.5t110 38.5q68 0 110.5 -38.5t42.5 -98.5q0 -61 -42.5 -99t-110.5 -38t-111 39.5t-43 97.5zM684 1671q0 61 43 99t110 38t110.5 -38.5t43.5 -98.5t-43 -98.5t-111 -38.5 q-67 0 -110 39t-43 98z" />
<glyph unicode="&#x402;" horiz-adv-x="1545" d="M31 1169v265h1140v-265h-438v-305h232q235 0 370 -121.5t135 -332.5q0 -200 -106 -312t-299 -112q-123 0 -193 28v236q63 -29 134 -29q69 0 111 50.5t42 136.5q0 219 -248 219h-178v-627h-323v1169h-379z" />
<glyph unicode="&#x403;" horiz-adv-x="1048" d="M164 0v1434h854v-267h-531v-1167h-323zM383 1567l260 323h281l-313 -323h-228z" />
<glyph unicode="&#x404;" horiz-adv-x="1277" d="M74 686q0 357 200 564.5t541 207.5q218 0 375 -53v-297q-151 86 -352 86q-174 0 -281 -92.5t-131 -261.5h553v-256h-551q21 -164 126.5 -254t279.5 -90q199 0 356 92v-281q-157 -76 -410 -76q-333 0 -519.5 194t-186.5 517z" />
<glyph unicode="&#x405;" horiz-adv-x="1148" d="M92 1032q0 112 45 192.5t122.5 132.5t179.5 76.5t216 24.5q112 0 198.5 -13.5t159.5 -41.5v-299q-36 25 -78.5 44t-87.5 31.5t-89.5 18.5t-84.5 6q-55 0 -100 -10.5t-76 -29.5t-48 -45.5t-17 -59.5q0 -36 19 -64.5t54 -54t85 -50t113 -50.5q86 -36 154.5 -76.5 t117.5 -91.5t75 -116.5t26 -152.5q0 -120 -45.5 -201.5t-123.5 -132t-181.5 -72.5t-218.5 -22q-118 0 -224.5 20t-184.5 60v320q87 -73 189 -109.5t206 -36.5q61 0 106.5 11t76 30.5t45.5 46t15 57.5q0 42 -24 75t-65.5 61t-98.5 54t-123 53q-168 70 -250.5 171t-82.5 244z " />
<glyph unicode="&#x406;" horiz-adv-x="649" d="M44 0v250h120v934h-120v250h563v-250h-120v-934h120v-250h-563z" />
<glyph unicode="&#x407;" horiz-adv-x="649" d="M-53 1671q0 60 44 98.5t110 38.5q68 0 110.5 -38.5t42.5 -98.5q0 -61 -42.5 -99t-110.5 -38t-111 39.5t-43 97.5zM44 0v250h120v934h-120v250h563v-250h-120v-934h120v-250h-563zM406 1671q0 61 43 99t110 38t110.5 -38.5t43.5 -98.5t-43 -98.5t-111 -38.5q-67 0 -110 39 t-43 98z" />
<glyph unicode="&#x408;" horiz-adv-x="912" d="M33 14v303q83 -63 186 -63q221 0 221 328v852h322v-865q0 -288 -133.5 -441t-386.5 -153q-113 0 -209 39z" />
<glyph unicode="&#x409;" horiz-adv-x="2118" d="M23 10v264q56 -28 106 -28q28 0 50.5 12.5t45.5 49t65.5 196.5t86 397.5t82.5 532.5h872v-549h211q518 0 518 -418q0 -221 -140 -344t-394 -123h-518v1165h-287q-32 -233 -72 -449t-76 -360.5t-70 -207.5t-78 -98.5t-99 -52.5t-123 -17q-100 0 -180 30zM1331 246h146 q243 0 243 198q0 197 -237 197h-152v-395z" />
<glyph unicode="&#x40a;" horiz-adv-x="2142" d="M164 0v1434h323v-553h547v553h322v-541h213q516 0 516 -422q0 -224 -139.5 -347.5t-395.5 -123.5h-516v606h-547v-606h-323zM1356 248h147q242 0 242 201q0 192 -236 192h-153v-393z" />
<glyph unicode="&#x40b;" horiz-adv-x="1637" d="M31 1169v265h1140v-265h-409v-309h274q248 0 377 -122t129 -353v-385h-321v360q0 228 -242 228h-217v-588h-324v1169h-407z" />
<glyph unicode="&#x40c;" horiz-adv-x="1329" d="M164 0v1434h323v-678h5q12 28 40 80l396 598h385l-500 -684l543 -750h-408l-418 623q-12 18 -38 79h-5v-702h-323zM506 1567l260 323h281l-313 -323h-228z" />
<glyph unicode="&#x40d;" horiz-adv-x="1619" d="M164 0v1434h305v-793q0 -147 -8 -197h4q5 12 74 117l569 873h346v-1434h-305v788q0 136 10 232h-6q-21 -41 -72 -119l-592 -901h-325zM529 1858h281l260 -323h-227z" />
<glyph unicode="&#x40e;" horiz-adv-x="1259" d="M23 1434h368l238 -574q21 -52 33 -117h2q11 54 34 113l230 578h340l-449 -983q-126 -276 -238 -376t-284 -100q-114 0 -186 33v295q82 -53 170 -53q121 0 213 196zM225 1913h230q5 -77 63 -126.5t137 -49.5q78 0 135 50t63 126h230q-18 -159 -137 -253t-295 -94 q-179 0 -298 94t-128 253z" />
<glyph unicode="&#x40f;" horiz-adv-x="1566" d="M164 0v1434h323v-1158h594v1158h324v-1434h-482v-391h-284v391h-475z" />
<glyph unicode="&#x410;" horiz-adv-x="1440" d="M10 0l522 1434h383l510 -1434h-352l-102 319h-510l-101 -319h-350zM530 567h367l-154 482q-17 54 -24 129h-8q-5 -63 -25 -125z" />
<glyph unicode="&#x411;" horiz-adv-x="1315" d="M164 0v1434h923v-265h-600v-313h277q230 0 355.5 -106.5t125.5 -294.5q0 -216 -133.5 -335.5t-378.5 -119.5h-569zM487 236h189q227 0 227 198q0 187 -217 187h-199v-385z" />
<glyph unicode="&#x412;" horiz-adv-x="1313" d="M164 0v1434h522q240 0 369 -88t129 -248q0 -116 -78.5 -203t-200.5 -121v-4q153 -19 244.5 -113t91.5 -229q0 -197 -141 -312.5t-385 -115.5h-551zM487 238h175q112 0 175.5 52t63.5 142q0 86 -62.5 135t-174.5 49h-177v-378zM487 856h142q100 0 157.5 48.5t57.5 133.5 q0 158 -236 158h-121v-340z" />
<glyph unicode="&#x413;" horiz-adv-x="1048" d="M164 0v1434h854v-267h-531v-1167h-323z" />
<glyph unicode="&#x414;" horiz-adv-x="1587" d="M39 264h133q278 503 307 1170h830v-1170h204v-655h-284v391h-910v-391h-280v655zM504 264h481v901h-244q-11 -199 -76 -448t-161 -453z" />
<glyph unicode="&#x415;" horiz-adv-x="1090" d="M164 0v1434h827v-263h-504v-319h469v-262h-469v-328h537v-262h-860z" />
<glyph unicode="&#x416;" horiz-adv-x="2033" d="M-10 0l547 748l-506 686h385l399 -600q25 -38 39 -66h4v666h316v-666h4q14 29 39 66l399 600h385l-506 -686l547 -748h-402l-423 618q-17 24 -39 72h-4v-690h-316v690h-4q-10 -23 -39 -72l-424 -618h-401z" />
<glyph unicode="&#x417;" horiz-adv-x="1144" d="M72 53v283q171 -115 389 -115q270 0 270 195q0 198 -297 198h-184v242h176q264 0 264 186q0 170 -225 170q-161 0 -344 -102v264q184 84 407 84q235 0 364.5 -97.5t129.5 -264.5q0 -131 -73.5 -222.5t-209.5 -123.5v-5q153 -20 239.5 -110.5t86.5 -224.5 q0 -207 -150 -321t-432 -114q-268 0 -411 78z" />
<glyph unicode="&#x418;" horiz-adv-x="1619" d="M164 0v1434h305v-793q0 -147 -8 -197h4q5 12 74 117l569 873h346v-1434h-305v788q0 136 10 232h-6q-21 -41 -72 -119l-592 -901h-325z" />
<glyph unicode="&#x419;" horiz-adv-x="1619" d="M164 0v1434h305v-793q0 -147 -8 -197h4q5 12 74 117l569 873h346v-1434h-305v788q0 136 10 232h-6q-21 -41 -72 -119l-592 -901h-325zM393 1913h230q5 -77 63 -126.5t137 -49.5q78 0 135 50t63 126h230q-18 -159 -137 -253t-295 -94q-179 0 -298 94t-128 253z" />
<glyph unicode="&#x41a;" horiz-adv-x="1329" d="M164 0v1434h323v-678h5q12 28 40 80l396 598h385l-500 -684l543 -750h-408l-418 623q-12 18 -38 79h-5v-702h-323z" />
<glyph unicode="&#x41b;" horiz-adv-x="1495" d="M23 8v258q58 -20 100 -20q41 0 72.5 26t69.5 138t91.5 386.5t102.5 637.5h872v-1434h-323v1165h-287q-116 -824 -217 -1004.5t-307 -180.5q-87 0 -174 28z" />
<glyph unicode="&#x41c;" horiz-adv-x="1960" d="M164 0v1434h473l293 -850q35 -102 51 -205h6q27 119 57 207l293 848h461v-1434h-319v858q0 139 12 307h-8q-25 -132 -45 -190l-336 -975h-264l-342 965q-14 39 -45 200h-9q13 -212 13 -372v-793h-291z" />
<glyph unicode="&#x41d;" horiz-adv-x="1569" d="M164 0v1434h323v-572h594v572h324v-1434h-324v584h-594v-584h-323z" />
<glyph unicode="&#x41e;" horiz-adv-x="1553" d="M74 698q0 340 197 550t522 210q307 0 496.5 -201t189.5 -530q0 -338 -196.5 -545t-512.5 -207q-308 0 -502 200.5t-194 522.5zM414 715q0 -213 100 -337t262 -124q167 0 265 120.5t98 334.5q0 223 -95 347t-260 124q-170 0 -270 -127.5t-100 -337.5z" />
<glyph unicode="&#x41f;" horiz-adv-x="1567" d="M164 0v1434h1240v-1434h-323v1152h-594v-1152h-323z" />
<glyph unicode="&#x420;" horiz-adv-x="1258" d="M164 0v1434h506q542 0 542 -457q0 -216 -155.5 -349.5t-415.5 -133.5h-154v-494h-323zM487 739h127q258 0 258 226q0 221 -258 221h-127v-447z" />
<glyph unicode="&#x421;" horiz-adv-x="1278" d="M74 686q0 344 212.5 558t551.5 214q210 0 354 -53v-311q-144 86 -328 86q-202 0 -326 -127t-124 -344q0 -208 117 -331.5t315 -123.5q189 0 346 92v-295q-157 -76 -410 -76q-330 0 -519 194t-189 517z" />
<glyph unicode="&#x422;" horiz-adv-x="1200" d="M31 1171v263h1140v-263h-409v-1171h-324v1171h-407z" />
<glyph unicode="&#x423;" horiz-adv-x="1259" d="M23 1434h368l238 -574q21 -52 33 -117h2q11 54 34 113l230 578h340l-449 -983q-126 -276 -238 -376t-284 -100q-114 0 -186 33v295q82 -53 170 -53q121 0 213 196z" />
<glyph unicode="&#x424;" horiz-adv-x="1718" d="M70 739q0 252 158.5 405.5t435.5 153.5h38v164h314v-164h37q279 0 437.5 -153t158.5 -406q0 -258 -162 -420.5t-438 -162.5h-33v-164h-314v164h-34q-275 0 -436.5 162.5t-161.5 420.5zM401 731q0 -150 75.5 -240t209.5 -90h16v656h-18q-130 0 -206.5 -89t-76.5 -237z M1016 401h14q134 0 210.5 90.5t76.5 239.5t-76.5 237.5t-208.5 88.5h-16v-656z" />
<glyph unicode="&#x425;" horiz-adv-x="1342" d="M6 0l457 717l-418 717h393l205 -430q24 -51 43 -121h4q12 42 45 125l228 426h360l-430 -711l442 -723h-383l-247 467q-14 26 -29 96h-4q-7 -33 -33 -100l-248 -463h-385z" />
<glyph unicode="&#x426;" horiz-adv-x="1682" d="M164 0v1434h323v-1158h594v1158h324v-1158h205v-667h-284v391h-1162z" />
<glyph unicode="&#x427;" horiz-adv-x="1487" d="M139 887v547h322v-519q0 -186 205 -186q162 0 325 98v607h324v-1434h-324v569q-201 -110 -407 -110q-445 0 -445 428z" />
<glyph unicode="&#x428;" horiz-adv-x="2071" d="M164 0v1434h323v-1158h387v1158h322v-1158h387v1158h324v-1434h-1743z" />
<glyph unicode="&#x429;" horiz-adv-x="2184" d="M164 0v1434h323v-1158h387v1158h322v-1158h387v1158h324v-1158h204v-667h-264v391h-1683z" />
<glyph unicode="&#x42a;" horiz-adv-x="1551" d="M31 1169v265h731v-537h211q518 0 518 -422q0 -225 -140 -350t-395 -125h-518v1169h-407zM762 246h145q244 0 244 207q0 200 -238 200h-151v-407z" />
<glyph unicode="&#x42b;" horiz-adv-x="1840" d="M164 0v1434h323v-537h211q519 0 519 -422q0 -225 -140 -350t-395 -125h-518zM487 246h146q244 0 244 207q0 200 -238 200h-152v-407zM1354 0v1434h321v-1434h-321z" />
<glyph unicode="&#x42c;" horiz-adv-x="1276" d="M164 0v1434h323v-537h211q519 0 519 -422q0 -225 -140 -350t-395 -125h-518zM487 246h146q244 0 244 207q0 200 -238 200h-152v-407z" />
<glyph unicode="&#x42d;" horiz-adv-x="1277" d="M88 51v281q157 -92 354 -92q361 0 408 344h-553v256h555q-62 354 -408 354q-197 0 -356 -84v291q167 57 389 57q341 0 533 -196.5t192 -548.5q0 -333 -191 -535.5t-522 -202.5q-243 0 -401 76z" />
<glyph unicode="&#x42e;" horiz-adv-x="2179" d="M164 0v1434h323v-570h283q45 275 225 434.5t449 159.5q298 0 479.5 -200t181.5 -531q0 -342 -188 -547t-496 -205q-266 0 -445.5 168t-211.5 451h-277v-594h-323zM1098 719q0 -226 85.5 -345.5t243.5 -119.5q159 0 247.5 118t88.5 337q0 225 -84.5 348t-238.5 123 q-163 0 -252.5 -122t-89.5 -339z" />
<glyph unicode="&#x42f;" horiz-adv-x="1311" d="M12 0l201 428q85 181 223 225v4q-317 75 -317 367q0 193 140 301.5t394 108.5h494v-1434h-324v557h-86q-120 0 -196 -182l-156 -375h-373zM461 999q0 -90 61.5 -145t165.5 -55h135v389h-135q-227 0 -227 -189z" />
<glyph unicode="&#x430;" d="M57 285q0 298 353 344l278 37q0 168 -182 168q-183 0 -348 -109v238q66 34 180.5 60t208.5 26q438 0 438 -437v-612h-299v147h-4q-103 -172 -305 -172q-149 0 -234.5 84.5t-85.5 225.5zM348 322q0 -54 37.5 -88.5t101.5 -34.5q89 0 145 61.5t56 155.5v69l-186 -24 q-154 -20 -154 -139z" />
<glyph unicode="&#x431;" horiz-adv-x="1247" d="M78 637q0 154 23 278.5t69 220t113.5 159.5t138 93.5t138.5 44t341 56.5q90 23 139 51v-250q-48 -37 -128 -49q-225 -35 -269 -45q-91 -21 -132.5 -57t-68 -105t-36.5 -168h4q114 131 305 131q218 0 339.5 -129.5t121.5 -357.5q0 -244 -149 -389.5t-404 -145.5 q-267 0 -406 170t-139 492zM399 551q0 -153 61.5 -243.5t170.5 -90.5q99 0 161 76t62 203q0 129 -62.5 201.5t-168.5 72.5q-69 0 -130.5 -36t-91.5 -89q-2 -24 -2 -94z" />
<glyph unicode="&#x432;" horiz-adv-x="1187" d="M133 0v1024h572q366 0 366 -250q0 -89 -57.5 -150.5t-149.5 -80.5q113 -14 177.5 -78.5t64.5 -157.5q0 -139 -99 -223t-272 -84h-602zM449 197h182q151 0 151 122q0 111 -155 111h-178v-233zM449 616h155q144 0 144 113q0 102 -136 102h-163v-215z" />
<glyph unicode="&#x433;" horiz-adv-x="840" d="M133 0v1024h668v-240h-352v-784h-316z" />
<glyph unicode="&#x434;" horiz-adv-x="1269" d="M18 223h91q217 340 229 801h719v-801h162v-596h-258v373h-689v-373h-254v596zM416 223h325v580h-157q-23 -324 -168 -580z" />
<glyph unicode="&#x435;" horiz-adv-x="1108" d="M72 496q0 255 148 404t364 149q224 0 346.5 -133t122.5 -361v-133h-668q16 -223 281 -223q169 0 297 80v-228q-142 -76 -369 -76q-248 0 -385 137.5t-137 383.5zM383 616h377q0 220 -178 220q-76 0 -131.5 -63t-67.5 -157z" />
<glyph unicode="&#x436;" horiz-adv-x="1736" d="M8 0l389 537l-379 487h371l320 -485h4v485h311v-485h4l320 485h370l-379 -487l392 -537h-373l-330 512h-4v-512h-311v512h-4l-328 -512h-373z" />
<glyph unicode="&#x437;" horiz-adv-x="984" d="M80 27v229q148 -68 295 -68q213 0 213 117q0 121 -232 121h-143v195h145q199 0 199 116q0 103 -178 103q-134 0 -268 -60v217q180 52 325 52q447 0 447 -277q0 -192 -238 -237v-5q126 -11 197 -76t71 -165q0 -309 -501 -309q-191 0 -332 47z" />
<glyph unicode="&#x438;" horiz-adv-x="1285" d="M133 0v1024h289v-649q32 67 70 125l348 524h311v-1024h-287v670q-39 -79 -84 -146l-348 -524h-299z" />
<glyph unicode="&#x439;" horiz-adv-x="1285" d="M133 0v1024h289v-649q32 67 70 125l348 524h311v-1024h-287v670q-39 -79 -84 -146l-348 -524h-299zM219 1513h230q5 -77 63 -126.5t137 -49.5q78 0 135 50t63 126h230q-18 -159 -137 -253t-295 -94q-179 0 -298 94t-128 253z" />
<glyph unicode="&#x43a;" horiz-adv-x="1145" d="M133 0v1024h316v-481h4l315 481h375l-377 -487l389 -537h-379l-323 500h-4v-500h-316z" />
<glyph unicode="&#x43b;" horiz-adv-x="1235" d="M16 8v215q35 -16 74 -16q94 0 156 175t112 642h744v-1024h-318v801h-174q-55 -465 -164.5 -639t-306.5 -174q-68 0 -123 20z" />
<glyph unicode="&#x43c;" horiz-adv-x="1591" d="M133 0v1024h416l194 -584q45 -135 50 -182q7 45 51 180l192 586h422v-1024h-295v797q-10 -56 -53 -189l-199 -608h-278l-199 608q-49 150 -53 187v-795h-248z" />
<glyph unicode="&#x43d;" horiz-adv-x="1253" d="M133 0v1024h316v-379h354v379h317v-1024h-317v428h-354v-428h-316z" />
<glyph unicode="&#x43e;" horiz-adv-x="1252" d="M72 508q0 254 152 397.5t411 143.5q255 0 400 -143.5t145 -379.5q0 -255 -149.5 -403t-409.5 -148q-256 0 -402.5 143.5t-146.5 389.5zM393 512q0 -295 238 -295q227 0 227 303q0 287 -229 287q-112 0 -174 -77t-62 -218z" />
<glyph unicode="&#x43f;" horiz-adv-x="1253" d="M133 0v1024h987v-1024h-317v801h-354v-801h-316z" />
<glyph unicode="&#x440;" horiz-adv-x="1270" d="M133 -471v1495h316v-154h4q117 179 329 179q199 0 307.5 -136.5t108.5 -371.5q0 -256 -126.5 -411t-336.5 -155q-185 0 -282 144h-4v-590h-316zM444 457q0 -106 56 -173t147 -67q108 0 167.5 83.5t59.5 236.5q0 270 -210 270q-97 0 -158.5 -73.5t-61.5 -194.5v-82z" />
<glyph unicode="&#x441;" horiz-adv-x="983" d="M72 487q0 261 156.5 411.5t418.5 150.5q181 0 262 -48v-268q-99 74 -221 74q-136 0 -215.5 -79.5t-79.5 -219.5q0 -136 76 -213.5t209 -77.5q118 0 231 74v-254q-107 -62 -309 -62q-236 0 -382 143t-146 369z" />
<glyph unicode="&#x442;" horiz-adv-x="931" d="M31 784v240h868v-240h-274v-784h-318v784h-276z" />
<glyph unicode="&#x443;" d="M-4 1024h350l191 -623q18 -58 28 -137h4q9 58 33 135l193 625h313l-416 -1106q-150 -399 -452 -399q-115 0 -189 26v252q63 -37 137 -37q122 0 170 115l54 127z" />
<glyph unicode="&#x444;" horiz-adv-x="1606" d="M68 508q0 243 143.5 385.5t396.5 142.5h47v430h295v-430h45q255 0 399 -142t144 -386q0 -237 -144 -378.5t-395 -141.5h-49v-463h-295v463h-49q-250 0 -394 142t-144 378zM389 508q0 -136 67.5 -216.5t186.5 -80.5h12v602h-16q-117 0 -183.5 -81t-66.5 -224zM950 211h13 q119 0 186.5 80.5t67.5 216.5q0 143 -66.5 224t-183.5 81h-17v-602z" />
<glyph unicode="&#x445;" horiz-adv-x="1131" d="M8 0l346 510l-325 514h366l146 -287q29 -57 41 -96h4q16 47 43 98l149 285h344l-338 -496l336 -528h-364l-148 276q-18 33 -43 93h-4q-15 -42 -41 -90l-149 -279h-363z" />
<glyph unicode="&#x446;" horiz-adv-x="1334" d="M133 0v1024h316v-801h354v801h317v-801h164v-596h-257v373h-894z" />
<glyph unicode="&#x447;" horiz-adv-x="1230" d="M121 616v408h303v-358q0 -158 141 -158q100 0 215 61v455h316v-1024h-316v354q-161 -90 -311 -90q-348 0 -348 352z" />
<glyph unicode="&#x448;" horiz-adv-x="1765" d="M133 0v1024h316v-801h274v801h317v-801h275v801h317v-1024h-1499z" />
<glyph unicode="&#x449;" horiz-adv-x="1846" d="M133 0v1024h316v-801h274v801h317v-801h275v801h317v-801h164v-596h-257v373h-1406z" />
<glyph unicode="&#x44a;" horiz-adv-x="1328" d="M27 784v240h606v-358h268q175 0 272 -84.5t97 -237.5q0 -156 -96.5 -250t-266.5 -94h-592v784h-288zM633 201h153q160 0 160 137q0 129 -155 129h-158v-266z" />
<glyph unicode="&#x44b;" horiz-adv-x="1669" d="M133 0v1024h316v-358h270q174 0 271 -84.5t97 -237.5q0 -157 -96 -250.5t-266 -93.5h-592zM449 201h153q160 0 160 137q0 129 -156 129h-157v-266zM1219 0v1024h317v-1024h-317z" />
<glyph unicode="&#x44c;" horiz-adv-x="1145" d="M133 0v1024h316v-358h270q174 0 271 -84.5t97 -237.5q0 -157 -96 -250.5t-266 -93.5h-592zM449 201h153q160 0 160 137q0 129 -156 129h-157v-266z" />
<glyph unicode="&#x44d;" horiz-adv-x="981" d="M76 43v225q109 -73 246 -73q238 0 270 219h-381v186h383q-31 227 -279 227q-133 0 -231 -69v235q122 56 278 56q267 0 407 -139.5t140 -403.5q0 -236 -144 -383.5t-390 -147.5q-165 0 -299 68z" />
<glyph unicode="&#x44e;" horiz-adv-x="1810" d="M133 0v1024h316v-381h219q38 193 179.5 299.5t354.5 106.5q253 0 394 -142t141 -381q0 -257 -145.5 -404t-403.5 -147q-228 0 -365.5 115.5t-163.5 327.5h-210v-418h-316zM977 516q0 -299 221 -299q217 0 217 303q0 287 -221 287q-217 0 -217 -291z" />
<glyph unicode="&#x44f;" horiz-adv-x="1164" d="M35 0l149 291q68 132 191 168q-256 44 -256 266q0 299 438 299h475v-1024h-313v383h-72q-83 0 -151 -147l-109 -236h-352zM436 698q0 -127 164 -127h119v252h-119q-164 0 -164 -125z" />
<glyph unicode="&#x450;" horiz-adv-x="1108" d="M72 496q0 255 148 404t364 149q224 0 346.5 -133t122.5 -361v-133h-668q16 -223 281 -223q169 0 297 80v-228q-142 -76 -369 -76q-248 0 -385 137.5t-137 383.5zM284 1509h281l260 -323h-227zM383 616h377q0 220 -178 220q-76 0 -131.5 -63t-67.5 -157z" />
<glyph unicode="&#x451;" horiz-adv-x="1108" d="M72 496q0 255 148 404t364 149q224 0 346.5 -133t122.5 -361v-133h-668q16 -223 281 -223q169 0 297 80v-228q-142 -76 -369 -76q-248 0 -385 137.5t-137 383.5zM213 1323q0 60 44 98.5t110 38.5q68 0 110.5 -38.5t42.5 -98.5q0 -61 -42.5 -99t-110.5 -38t-111 39.5 t-43 97.5zM383 616h377q0 220 -178 220q-76 0 -131.5 -63t-67.5 -157zM672 1323q0 61 43 99t110 38t110.5 -38.5t43.5 -98.5t-43 -98.5t-111 -38.5q-67 0 -110 39t-43 98z" />
<glyph unicode="&#x452;" horiz-adv-x="1267" d="M27 1179v159h143v178h315v-178h330v-159h-330v-329h4q105 176 306 176q376 0 376 -664q0 -453 -120 -632t-385 -179q-66 0 -131 29v244q56 -37 110 -37q113 0 161 122.5t48 444.5q0 424 -180 424q-77 0 -133 -62.5t-56 -156.5v-559h-315v1179h-143z" />
<glyph unicode="&#x453;" horiz-adv-x="840" d="M133 0v1024h668v-240h-352v-784h-316zM249 1186l260 323h281l-313 -323h-228z" />
<glyph unicode="&#x454;" horiz-adv-x="983" d="M72 494q0 264 150 409.5t413 145.5q147 0 262 -50v-241q-93 69 -231 69q-244 0 -279 -227h383v-186h-381q32 -219 268 -219q134 0 246 75v-227q-133 -68 -301 -68q-242 0 -386 142.5t-144 376.5z" />
<glyph unicode="&#x455;" horiz-adv-x="901" d="M66 27v256q78 -47 155.5 -70t146.5 -23q84 0 132.5 23t48.5 70q0 30 -22 50t-56.5 35t-75.5 27t-79 27q-61 23 -107.5 49.5t-78 61.5t-48 81t-16.5 109q0 86 37.5 148t100 101.5t143 58t167.5 18.5q68 0 138 -10.5t138 -30.5v-244q-60 35 -128.5 52.5t-134.5 17.5 q-31 0 -58.5 -5.5t-48.5 -16t-33 -27t-12 -37.5q0 -28 18 -48t47 -34.5t64.5 -26t70.5 -23.5q63 -22 114 -48t87.5 -61t56 -82t19.5 -112q0 -91 -39.5 -155.5t-105 -105t-151 -59t-177.5 -18.5q-169 0 -313 52z" />
<glyph unicode="&#x456;" horiz-adv-x="582" d="M111 1350q0 71 51 116t131 45q81 0 131.5 -45t50.5 -116q0 -72 -50.5 -118t-131.5 -46q-80 0 -131 47.5t-51 116.5zM133 0v1024h316v-1024h-316z" />
<glyph unicode="&#x457;" horiz-adv-x="582" d="M-84 1323q0 60 44 98.5t110 38.5q68 0 110.5 -38.5t42.5 -98.5q0 -61 -42.5 -99t-110.5 -38t-111 39.5t-43 97.5zM133 0v1024h316v-1024h-316zM375 1323q0 61 43 99t110 38t110.5 -38.5t43.5 -98.5t-43 -98.5t-111 -38.5q-67 0 -110 39t-43 98z" />
<glyph unicode="&#x458;" horiz-adv-x="582" d="M-133 -203q66 -37 117 -37q149 0 149 234v1030h316v-1006q0 -227 -111 -363t-320 -136q-69 0 -151 30v248zM111 1350q0 71 51 116t131 45q81 0 131.5 -45t50.5 -116q0 -72 -50.5 -118t-131.5 -46q-80 0 -131 47.5t-51 116.5z" />
<glyph unicode="&#x459;" horiz-adv-x="1799" d="M16 8v215q35 -16 74 -16q94 0 156 175t112 642h744v-371h266q174 0 272.5 -82.5t98.5 -232.5q0 -155 -96 -246.5t-267 -91.5h-592v801h-174q-55 -465 -164.5 -639t-306.5 -174q-68 0 -123 20zM1102 205h151q162 0 162 127q0 117 -162 117h-151v-244z" />
<glyph unicode="&#x45a;" horiz-adv-x="1766" d="M133 0v1024h316v-367h303v367h317v-367h268q177 0 273 -82t96 -233q0 -156 -96.5 -249t-266.5 -93h-591v438h-303v-438h-316zM1069 203h154q159 0 159 133q0 121 -155 121h-158v-254z" />
<glyph unicode="&#x45b;" horiz-adv-x="1262" d="M27 1179v159h143v178h315v-178h330v-159h-330v-329h4q116 176 316 176q344 0 344 -420v-606h-311v553q0 225 -164 225q-88 0 -138.5 -61t-50.5 -158v-559h-315v1179h-143z" />
<glyph unicode="&#x45c;" horiz-adv-x="1145" d="M133 0v1024h316v-481h4l315 481h375l-377 -487l389 -537h-379l-323 500h-4v-500h-316zM408 1186l260 323h281l-313 -323h-228z" />
<glyph unicode="&#x45d;" horiz-adv-x="1285" d="M133 0v1024h289v-649q32 67 70 125l348 524h311v-1024h-287v670q-39 -79 -84 -146l-348 -524h-299zM330 1509h281l260 -323h-227z" />
<glyph unicode="&#x45e;" d="M-4 1024h350l191 -623q18 -58 28 -137h4q9 58 33 135l193 625h313l-416 -1106q-150 -399 -452 -399q-115 0 -189 26v252q63 -37 137 -37q122 0 170 115l54 127zM139 1513h230q5 -77 63 -126.5t137 -49.5q78 0 135 50t63 126h230q-18 -159 -137 -253t-295 -94 q-179 0 -298 94t-128 253z" />
<glyph unicode="&#x45f;" horiz-adv-x="1253" d="M133 0v1024h316v-801h354v801h317v-1024h-362v-374h-258v374h-367z" />
<glyph unicode="&#x460;" horiz-adv-x="2360" d="M74 715q0 324 183 533.5t513 209.5q161 0 279 -49v-295q-128 74 -281 74q-167 0 -260.5 -122t-93.5 -345q0 -224 115 -349.5t305 -125.5q116 0 184 33v280h-287v258h897v-258h-287v-280q68 -33 185 -33q190 0 305 125.5t115 349.5q0 223 -94 345t-261 122 q-151 0 -280 -74v295q119 49 278 49q331 0 514 -210t183 -533q0 -339 -202 -539.5t-544 -200.5q-150 0 -360 62q-226 -62 -361 -62q-342 0 -543.5 200.5t-201.5 539.5z" />
<glyph unicode="&#x461;" horiz-adv-x="1526" d="M8 1024h295q3 -165 40.5 -318.5t135.5 -388.5l135 318q-65 219 -65 389h305q11 -268 174 -707l197 707h293l-338 -1024h-299l-146 369l-151 -369h-269q-196 439 -249.5 630t-57.5 394z" />
<glyph unicode="&#x462;" horiz-adv-x="1366" d="M49 1090v237h205v107h324v-107h266v-237h-266v-193h210q519 0 519 -422q0 -225 -140 -350t-395 -125h-518v1090h-205zM578 246h145q244 0 244 207q0 200 -238 200h-151v-407z" />
<glyph unicode="&#x463;" horiz-adv-x="1256" d="M27 1126v205h217v185h315v-185h240v-205h-240v-460h270q175 0 272 -84.5t97 -237.5q0 -157 -96 -250.5t-266 -93.5h-592v1126h-217zM559 201h154q159 0 159 137q0 129 -155 129h-158v-266z" />
<glyph unicode="&#x464;" horiz-adv-x="1960" d="M164 0v1434h323v-594h281q42 290 236 454t495 164q218 0 375 -53v-297q-151 86 -352 86q-174 0 -281 -92.5t-131 -261.5h553v-256h-551q21 -164 126.5 -254t279.5 -90q199 0 356 92v-281q-157 -76 -410 -76q-303 0 -486 162t-214 447h-277v-584h-323z" />
<glyph unicode="&#x465;" horiz-adv-x="1559" d="M133 0v1024h316v-414h206q32 210 178 324.5t377 114.5q148 0 263 -50v-241q-93 69 -232 69q-243 0 -278 -227h383v-186h-381q32 -219 268 -219q134 0 246 75v-227q-133 -68 -301 -68q-217 0 -357.5 116.5t-167.5 314.5h-204v-406h-316z" />
<glyph unicode="&#x466;" horiz-adv-x="1465" d="M14 0l523 1434h403l510 -1434h-330l-157 463l-117 -123v-340h-254v340l-98 123l-154 -463h-326zM586 733l139 -174l147 174l-106 350q-28 92 -33 156h-8q-6 -69 -31 -152z" />
<glyph unicode="&#x467;" horiz-adv-x="1157" d="M4 0l404 1020h348l397 -1020h-289l-114 317l-76 -73v-244h-213v244l-64 73l-112 -317h-281zM473 524l98 -112l105 112l-82 232q-6 17 -14 104h-9q-1 -34 -14 -100z" />
<glyph unicode="&#x468;" horiz-adv-x="2024" d="M164 0v1434h323v-586h396l213 586h403l510 -1434h-330l-157 463l-117 -123v-340h-254v340l-98 123l-154 -463h-326l213 586h-299v-586h-323zM1145 733l139 -174l148 174l-107 350q-28 90 -33 156h-8q-6 -69 -31 -152z" />
<glyph unicode="&#x469;" horiz-adv-x="1677" d="M133 0v1024h316v-399h321l158 399h348l397 -1024h-289l-114 317l-76 -73v-244h-213v244l-63 73l-113 -317h-281l164 416h-239v-416h-316zM993 524l99 -112l104 112l-82 232q-6 17 -14 104h-8q-2 -34 -15 -100z" />
<glyph unicode="&#x46a;" horiz-adv-x="1643" d="M16 0q97 334 202 473.5t319 241.5l-404 719h1385l-416 -717q216 -102 321.5 -241.5t202.5 -475.5h-309q-67 212 -124.5 309t-211.5 193v-502h-324v498q-144 -91 -202.5 -183.5t-128.5 -314.5h-310zM623 1196l172 -332q25 -49 41 -108h4q14 56 39 104l174 336h-430z" />
<glyph unicode="&#x46b;" horiz-adv-x="1321" d="M6 0q80 252 165.5 353.5t244.5 170.5l-320 500h1133l-328 -498q162 -69 248 -172t166 -354h-264q-47 135 -75 188.5t-72 92.5t-109 71v-352h-275v348q-104 -51 -147.5 -112t-104.5 -236h-262zM530 831l109 -206q19 -36 31 -78h4q9 33 31 76l106 208h-281z" />
<glyph unicode="&#x46c;" horiz-adv-x="2194" d="M164 0v1434h323v-594h545l-348 594h1384l-415 -709q210 -99 317.5 -240t206.5 -485h-307q-56 178 -95.5 259.5t-98.5 142.5t-144 114v-516h-324v512q-137 -87 -197 -182.5t-134 -329.5h-310q75 261 149.5 383.5t201.5 206.5h-431v-590h-323zM1174 1196l172 -324 q23 -43 40 -108h5q15 58 39 104l174 328h-430z" />
<glyph unicode="&#x46d;" horiz-adv-x="1833" d="M133 0v1024h316v-391h425l-266 391h1133l-328 -492q159 -68 246 -172t168 -360h-264q-49 141 -76.5 194.5t-72 93t-107.5 70.5v-358h-275v354q-56 -27 -97 -61.5t-69.5 -81t-85.5 -211.5h-262q55 171 114 262.5t159 155.5h-342v-418h-316zM1042 831l109 -200 q18 -32 31 -78h4q10 36 31 76l106 202h-281z" />
<glyph unicode="&#x46e;" horiz-adv-x="1144" d="M25 -96q0 151 89 238t242 87q41 0 92 -7q52 -7 95 -7q188 0 188 201q0 198 -297 198h-184v242h176q264 0 264 186q0 170 -225 170q-161 0 -344 -102v264q122 55 261 74l-192 266h205l155 -188l156 188h205l-201 -274q108 -24 182 -80q130 -97 130 -264 q0 -131 -73.5 -222.5t-209.5 -123.5v-5q153 -20 239.5 -110.5t86.5 -224.5q0 -428 -477 -428q-40 0 -95 8q-54 8 -90 8q-42 0 -67 -25.5t-25 -62.5q0 -92 127 -92q58 0 176 30q119 29 181 29q114 0 176.5 -76.5t62.5 -210.5h-256q0 48 -65 48q-37 0 -164 -30 q-128 -30 -176 -30q-348 0 -348 326z" />
<glyph unicode="&#x46f;" horiz-adv-x="984" d="M18 -117q0 148 79 235t216 87q28 0 67 -5q38 -5 52 -5q156 0 156 116q0 62 -52.5 88.5t-179.5 26.5h-143v195h145q199 0 199 116q0 103 -178 103q-134 0 -268 -60v217q113 32 212 44l-188 261h205l155 -188l156 188h205l-202 -276q229 -29 229 -254q0 -192 -238 -237v-5 q126 -11 197 -76t71 -165q0 -141 -100 -225t-276 -84q-21 0 -65 5t-85 5q-106 0 -106 -90q0 -93 108 -93q51 0 144 29q94 29 165 29q107 0 166.5 -74.5t59.5 -200.5h-248q0 50 -58 50q-29 0 -128 -30q-98 -30 -152 -30q-154 0 -237 82t-83 221z" />
<glyph unicode="&#x470;" horiz-adv-x="1692" d="M45 1434h285l139 -609q25 -110 70.5 -156t140.5 -46h27v811h278v-811h25q264 0 264 295v516h285v-539q0 -243 -153 -392t-396 -149h-25v-354h-278v354h-25q-212 0 -329 105.5t-169 341.5z" />
<glyph unicode="&#x471;" horiz-adv-x="1620" d="M37 1024h299l149 -600q50 -203 166 -203h17v803h284v-803h15q106 0 170.5 88.5t64.5 249.5v465h297v-465q0 -270 -142.5 -427t-377.5 -157h-27v-456h-284v456h-19q-178 0 -286 86t-168 328z" />
<glyph unicode="&#x472;" horiz-adv-x="1553" d="M74 698q0 340 197 550t522 210q307 0 496.5 -201t189.5 -530q0 -338 -196.5 -545t-512.5 -207q-308 0 -502 200.5t-194 522.5zM424 586q28 -157 122.5 -244.5t229.5 -87.5q139 0 231.5 85t120.5 239q-129 -48 -184 -48q-53 0 -173 55q-120 54 -163 54q-31 0 -184 -53z M424 836q146 49 203 49q56 0 179 -54q124 -55 157 -55q37 0 167 51q-24 168 -114.5 260.5t-231.5 92.5q-143 0 -238 -92t-122 -252z" />
<glyph unicode="&#x473;" horiz-adv-x="1252" d="M72 508q0 254 152 397.5t411 143.5q255 0 400 -143.5t145 -379.5q0 -255 -149.5 -403t-409.5 -148q-256 0 -402.5 143.5t-146.5 389.5zM379 588q114 41 156 41q46 0 113 -28q68 -28 95 -28q26 0 125 41q-38 211 -239 211q-217 0 -250 -237zM387 393q46 -196 244 -196 q201 0 237 221q-100 -39 -141 -39q-28 0 -99 28q-72 27 -110 27q-21 0 -131 -41z" />
<glyph unicode="&#x474;" horiz-adv-x="1696" d="M10 1434h348l299 -998q24 -81 29 -143h6q7 65 31 147l203 686q98 332 399 332q162 0 255.5 -98t100.5 -275h-276q-5 109 -76 109q-63 0 -100 -109l-365 -1085h-366z" />
<glyph unicode="&#x475;" horiz-adv-x="1440" d="M4 1024h338l178 -631q30 -107 35 -182h4q6 64 37 176l90 328q92 334 389 334q326 0 359 -353h-279q-5 101 -80 101q-63 0 -102 -109l-246 -688h-360z" />
<glyph unicode="&#x476;" horiz-adv-x="1696" d="M10 1434h348l299 -998q24 -81 29 -143h6q7 65 31 147l203 686q98 332 399 332q162 0 255.5 -98t100.5 -275h-276q-5 109 -76 109q-63 0 -100 -109l-365 -1085h-366zM228 1886h250l213 -319h-211zM607 1886h247l211 -319h-211z" />
<glyph unicode="&#x477;" horiz-adv-x="1440" d="M4 1024h338l178 -631q30 -107 35 -182h4q6 64 37 176l90 328q92 334 389 334q326 0 359 -353h-279q-5 101 -80 101q-63 0 -102 -109l-246 -688h-360zM91 1505h250l213 -319h-211zM470 1505h247l211 -319h-211z" />
<glyph unicode="&#x478;" horiz-adv-x="2984" d="M74 739q0 342 194 551t518 209v-82q308 0 500.5 -201.5t192.5 -529.5q0 -338 -196 -545t-511 -207v82q-308 0 -503 200.5t-195 522.5zM414 756q0 -214 98.5 -337.5t259.5 -123.5v-82q168 0 267.5 121t99.5 334q0 223 -94 347t-259 124v82q-171 0 -271.5 -128t-100.5 -337 zM1540 1024h338l178 -602q30 -100 35 -182h4q8 76 37 176l90 303q98 330 385 330q330 0 363 -353h-279q-5 101 -80 101q-63 0 -102 -109l-391 -1098h-332l143 373z" />
<glyph unicode="&#x479;" horiz-adv-x="2669" d="M72 539q0 250 151 395t408 145v-61q259 0 404 -142.5t145 -379.5q0 -253 -149 -402t-406 -149v61q-257 0 -405 143t-148 390zM393 543q0 -295 232 -295v-62q233 0 233 303q0 287 -227 287v62q-238 0 -238 -295zM1225 1024h338l178 -602q30 -100 35 -182h4q8 76 37 176 l90 303q98 330 385 330q329 0 362 -353h-278q-5 101 -80 101q-64 0 -103 -109l-391 -1098h-332l144 373z" />
<glyph unicode="&#x47a;" horiz-adv-x="1696" d="M74 698q0 307 160 510.5t436 241.5q67 98 186 98t186 -98q264 -36 422 -231.5t158 -491.5q0 -305 -160 -505t-430 -238q-68 -93 -182 -93q-112 0 -180 91q-269 35 -432.5 230t-163.5 486zM414 715q0 -177 72 -294t196 -153q67 74 168 74q103 0 170 -76q262 69 262 443 q0 388 -262 458q-66 -69 -164 -69t-164 71q-131 -32 -204.5 -153t-73.5 -301z" />
<glyph unicode="&#x47b;" horiz-adv-x="1405" d="M72 508q0 227 121.5 366.5t338.5 167.5q59 99 175 99q114 0 172 -97q214 -25 334 -164.5t120 -353.5q0 -230 -123.5 -374t-343.5 -170q-60 -86 -164 -86q-103 0 -163 84q-220 23 -343.5 163t-123.5 365zM393 512q0 -233 158 -283q60 68 151 68q93 0 152 -70 q158 46 158 293q0 237 -162 279q-59 -60 -143 -60q-85 0 -144 60q-170 -43 -170 -287z" />
<glyph unicode="&#x47c;" horiz-adv-x="2360" d="M74 715q0 324 183 533.5t513 209.5q161 0 279 -49v-295q-128 74 -281 74q-167 0 -260.5 -122t-93.5 -345q0 -224 115 -349.5t305 -125.5q179 0 346 88q163 -88 346 -88q190 0 305 125.5t115 349.5q0 223 -94 345t-261 122q-151 0 -280 -74v295q119 49 278 49 q331 0 514 -210t183 -533q0 -339 -202 -539.5t-544 -200.5q-175 0 -360 72q-205 -72 -361 -72q-342 0 -543.5 200.5t-201.5 539.5zM818 1813q0 66 12 122.5t38.5 98t68 65.5t101.5 24q57 0 121 -19t129 -42t128.5 -42t120.5 -19h39v-188h-40q-61 0 -126.5 19t-127.5 42 t-117 42t-94 19q-21 0 -38 -9.5t-28 -26t-17 -39t-6 -47.5h-164zM1029 1561q78 12 111 51q-103 11 -103 104q0 46 35 76.5t90 30.5q66 0 107 -39.5t41 -99.5q0 -78 -63.5 -134t-170.5 -77z" />
<glyph unicode="&#x47d;" horiz-adv-x="1819" d="M72 512q0 243 140 390t366 147q130 0 200 -35v-248q-58 41 -151 41q-234 0 -234 -287q0 -140 72.5 -221.5t200.5 -81.5q133 0 243 72q110 -72 244 -72q127 0 199.5 81t72.5 222q0 287 -233 287q-94 0 -152 -41v248q70 35 201 35q226 0 366 -147t140 -390 q0 -232 -144.5 -384.5t-375.5 -152.5q-174 0 -318 74q-144 -74 -317 -74q-231 0 -375.5 152.5t-144.5 384.5zM581 1433q0 66 12 122.5t38.5 98t68 65.5t101.5 24q57 0 121 -19t129 -42t128.5 -42t120.5 -19h39v-188h-40q-61 0 -126.5 19t-127.5 42t-117 42t-94 19 q-21 0 -38 -9.5t-28 -26t-17 -39t-6 -47.5h-164zM792 1181q78 12 111 51q-103 11 -103 104q0 46 35 76.5t90 30.5q66 0 107 -39.5t41 -99.5q0 -78 -63.5 -134t-170.5 -77z" />
<glyph unicode="&#x47e;" horiz-adv-x="2360" d="M74 715q0 324 183 533.5t513 209.5q161 0 279 -49v-295q-128 74 -281 74q-167 0 -260.5 -122t-93.5 -345q0 -224 115 -349.5t305 -125.5q116 0 184 33v280h-287v258h897v-258h-287v-280q68 -33 185 -33q190 0 305 125.5t115 349.5q0 223 -94 345t-261 122 q-151 0 -280 -74v295q119 49 278 49q331 0 514 -210t183 -533q0 -339 -202 -539.5t-544 -200.5q-150 0 -360 62q-226 -62 -361 -62q-342 0 -543.5 200.5t-201.5 539.5zM690 1796h978l-109 -235h-60l-47 101h-196l-47 -101h-60l-47 101h-196l-47 -101h-60z" />
<glyph unicode="&#x47f;" horiz-adv-x="1526" d="M8 1024h295q3 -165 40.5 -318.5t135.5 -388.5l135 318q-65 219 -65 389h305q11 -268 174 -707l197 707h293l-338 -1024h-299l-146 369l-151 -369h-269q-196 439 -249.5 630t-57.5 394zM260 1448h978l-109 -235h-60l-47 101h-196l-47 -101h-60l-47 101h-196l-47 -101h-60z " />
<glyph unicode="&#x480;" horiz-adv-x="1223" d="M74 686q0 344 212.5 558t551.5 214q210 0 354 -53v-311q-144 86 -328 86q-202 0 -326 -127t-124 -344q0 -208 117 -331.5t315 -123.5q55 0 98 6v-670h-323v400q-258 45 -402.5 231t-144.5 465z" />
<glyph unicode="&#x481;" horiz-adv-x="940" d="M72 487q0 261 156.5 411.5t418.5 150.5q181 0 262 -48v-268q-99 74 -221 74q-136 0 -215.5 -79.5t-79.5 -219.5q0 -136 76 -213.5t209 -77.5q43 0 90 12v-639h-315v402q-176 42 -278.5 175t-102.5 320z" />
<glyph unicode="&#x482;" horiz-adv-x="1065" d="M37 524l76 181l266 -115l135 319l-266 113l76 180l266 -115l147 349h197l-176 -418l270 -117l-76 -178l-272 115l-135 -318l272 -117l-76 -178l-272 115l-143 -340h-197l174 412z" />
<glyph unicode="&#x483;" horiz-adv-x="830" d="M82 1335q0 48 33.5 84.5t79.5 36.5h329q25 80 111 80q47 0 80 -35t33 -82q0 -48 -33.5 -84.5t-79.5 -36.5h-332q-24 -79 -108 -79q-47 0 -80 34.5t-33 81.5z" />
<glyph unicode="&#x484;" horiz-adv-x="867" d="M94 1219v188h80q61 0 164 46t178 46q207 0 297 -280h-164q-44 122 -133 122q-46 0 -140 -61t-175 -61h-107z" />
<glyph unicode="&#x485;" horiz-adv-x="0" d="M-139 1430q0 63 38 102t103 39q56 0 90.5 -31.5t34.5 -81.5q0 -42 -31 -73.5t-75 -34.5q29 -75 120 -127l-53 -84q-100 42 -163.5 122t-63.5 169z" />
<glyph unicode="&#x486;" horiz-adv-x="0" d="M-139 1223q93 53 121 127q-44 3 -75.5 34.5t-31.5 73.5q0 50 34.5 81.5t90.5 31.5q65 0 103 -39t38 -102q0 -89 -63.5 -169t-163.5 -122z" />
<glyph unicode="&#x487;" horiz-adv-x="868" d="M48 1217q0 66 12 122.5t38.5 98t68 65.5t101.5 24q57 0 121 -19t129 -42t128.5 -42t120.5 -19h39v-188h-40q-61 0 -126.5 19t-127.5 42t-117 42t-94 19q-21 0 -38 -9.5t-28 -26t-17 -39t-6 -47.5h-164z" />
<glyph unicode="&#x488;" horiz-adv-x="2018" d="M41 428q9 101 65.5 158t143.5 57q91 0 147 -57.5t60 -157.5h-117q-8 102 -92 102q-77 0 -90 -102h-117zM170 -49q9 102 65.5 159.5t143.5 57.5q91 0 147 -58.5t60 -158.5h-117q-8 102 -90 102q-77 0 -90 -102h-119zM170 901q9 102 65.5 159.5t143.5 57.5q91 0 147 -58.5 t60 -158.5h-117q-8 105 -90 105q-77 0 -90 -105h-119zM784 -299q9 101 66.5 158t144.5 57q91 0 146 -57.5t59 -157.5h-115q-8 102 -92 102q-79 0 -92 -102h-117zM784 1149q9 101 66.5 158t144.5 57q91 0 146 -57.5t59 -157.5h-115q-8 102 -92 102q-79 0 -92 -102h-117z M1417 -49q9 101 66.5 159t144.5 58q90 0 145.5 -58t59.5 -159h-117q-8 102 -88 102q-79 0 -92 -102h-119zM1417 901q9 101 66.5 159t144.5 58q90 0 145.5 -58t59.5 -159h-117q-8 105 -88 105q-79 0 -92 -105h-119zM1556 428q9 101 66.5 158t144.5 57q91 0 146 -57.5 t59 -157.5h-117q-8 102 -88 102q-79 0 -92 -102h-119z" />
<glyph unicode="&#x489;" horiz-adv-x="1944" d="M63 535v153l353 -94v-203zM209 -14l315 182l144 -143l-351 -148zM350 1180l109 108l182 -315l-143 -144zM809 -410l94 353h203l-143 -353h-154zM864 1081l144 353h153l-94 -353h-203zM1303 999l350 148l108 -109l-315 -182zM1329 51l144 144l147 -351l-109 -108z M1554 430v203l353 -144v-153z" />
<glyph unicode="&#x48a;" horiz-adv-x="1788" d="M164 0v1434h305v-793q0 -147 -8 -197h4q5 12 74 117l569 873h346v-1158h276l-226 -663h-310l174 387h-219v788q0 136 10 232h-6q-21 -41 -72 -119l-592 -901h-325zM393 1913h230q5 -77 63 -126.5t137 -49.5q78 0 135 50t63 126h230q-18 -159 -137 -253t-295 -94 q-179 0 -298 94t-128 253z" />
<glyph unicode="&#x48b;" horiz-adv-x="1432" d="M133 0v1024h289v-649q32 67 70 125l348 524h311v-801h223l-184 -596h-293l161 373h-194v670q-39 -79 -84 -146l-348 -524h-299zM219 1513h230q5 -77 63 -126.5t137 -49.5q78 0 135 50t63 126h230q-18 -159 -137 -253t-295 -94q-179 0 -298 94t-128 253z" />
<glyph unicode="&#x48c;" horiz-adv-x="1276" d="M29 1090v237h135v107h323v-107h142v-237h-142v-193h211q519 0 519 -422q0 -225 -140 -350t-395 -125h-518v1090h-135zM487 246h146q244 0 244 207q0 200 -238 200h-152v-407z" />
<glyph unicode="&#x48d;" horiz-adv-x="1176" d="M27 1126v205h137v185h315v-185h146v-205h-146v-460h271q174 0 271 -84.5t97 -237.5q0 -157 -96 -250.5t-266 -93.5h-592v1126h-137zM479 201h154q160 0 160 137q0 129 -156 129h-158v-266z" />
<glyph unicode="&#x48e;" horiz-adv-x="1258" d="M164 0v1434h506q542 0 542 -457q0 -244 -194 -379l106 -156l-178 -120l-129 190q-80 -18 -176 -18h-154v-494h-323zM487 739h127q24 0 48 2l-89 131l179 121l96 -143q24 47 24 115q0 221 -258 221h-127v-447z" />
<glyph unicode="&#x48f;" horiz-adv-x="1270" d="M133 -471v1495h316v-154h4q117 179 329 179q199 0 307.5 -136.5t108.5 -371.5q0 -323 -190 -475l96 -154l-182 -115l-115 185q-47 -7 -72 -7q-185 0 -282 144h-4v-590h-316zM444 457q0 -106 56 -173t147 -67h12l-90 145l183 113l86 -137q36 75 36 199q0 270 -210 270 q-97 0 -158.5 -73.5t-61.5 -194.5v-82z" />
<glyph unicode="&#x490;" horiz-adv-x="1057" d="M164 0v1434h580v252h274v-517h-531v-1169h-323z" />
<glyph unicode="&#x491;" horiz-adv-x="890" d="M133 0v1024h449v250h252v-486h-385v-788h-316z" />
<glyph unicode="&#x492;" horiz-adv-x="1149" d="M31 567v262h235v605h854v-267h-530v-338h342v-262h-342v-567h-324v567h-235z" />
<glyph unicode="&#x493;" horiz-adv-x="918" d="M27 336v237h196v451h668v-240h-352v-211h231v-237h-231v-336h-316v336h-196z" />
<glyph unicode="&#x494;" horiz-adv-x="1340" d="M164 0v1434h854v-267h-531v-243h82q329 0 515 -186.5t186 -493.5q0 -300 -192.5 -484t-553.5 -184q-185 0 -360 57v289q196 -76 362 -76q195 0 298.5 104t103.5 292q0 185 -112 294t-298 109h-31v-645h-323z" />
<glyph unicode="&#x495;" horiz-adv-x="1174" d="M127 -90q179 -88 367 -88q294 0 294 266q0 299 -321 299h-21v-387h-315v1024h668v-240h-353v-155h58q274 0 440 -147t166 -392q0 -212 -158.5 -356t-425.5 -144q-230 0 -399 78v242z" />
<glyph unicode="&#x496;" horiz-adv-x="2136" d="M-10 0l547 748l-506 686h385l399 -600q25 -38 39 -66h4v666h316v-666h4q14 29 39 66l399 600h385l-506 -686l344 -472h232v-600h-265v324h-166l-423 618q-17 24 -39 72h-4v-690h-316v690h-4q-10 -23 -39 -72l-424 -618h-401z" />
<glyph unicode="&#x497;" horiz-adv-x="1837" d="M8 0l389 537l-379 487h371l320 -485h4v485h311v-485h4l320 485h370l-379 -487l230 -314h203v-473h-238v250h-176l-330 512h-4v-512h-311v512h-4l-328 -512h-373z" />
<glyph unicode="&#x498;" horiz-adv-x="1144" d="M72 53v283q171 -115 389 -115q270 0 270 195q0 198 -297 198h-184v242h176q264 0 264 186q0 170 -225 170q-161 0 -344 -102v264q184 84 407 84q235 0 364.5 -97.5t129.5 -264.5q0 -131 -73.5 -222.5t-209.5 -123.5v-5q153 -20 239.5 -110.5t86.5 -224.5 q0 -179 -113 -289.5t-327 -136.5q59 -81 59 -158q0 -78 -52.5 -126t-137.5 -48q-82 0 -154 24v138q74 -27 119 -27q57 0 57 53q0 56 -45 135q-260 3 -399 78z" />
<glyph unicode="&#x499;" horiz-adv-x="984" d="M80 27v229q148 -68 295 -68q213 0 213 117q0 121 -232 121h-143v195h145q199 0 199 116q0 103 -178 103q-134 0 -268 -60v217q180 52 325 52q447 0 447 -277q0 -192 -238 -237v-5q126 -11 197 -76t71 -165q0 -258 -358 -301q63 -84 63 -162t-52.5 -126t-137.5 -48 q-82 0 -154 24v138q74 -27 119 -27q58 0 58 53q0 57 -48 140q-186 1 -323 47z" />
<glyph unicode="&#x49a;" horiz-adv-x="1456" d="M164 0v1434h323v-678h5q12 28 40 80l396 598h385l-500 -684l342 -474h236v-600h-265v324h-178l-418 623q-12 18 -38 79h-5v-702h-323z" />
<glyph unicode="&#x49b;" horiz-adv-x="1252" d="M133 0v1024h316v-481h4l315 481h375l-377 -487l227 -314h193v-596h-258v373h-152l-323 500h-4v-500h-316z" />
<glyph unicode="&#x49c;" horiz-adv-x="1329" d="M164 0v1434h323v-689h5l67 109v356h94v-229l275 453h385l-445 -684l488 -750h-408l-295 487v-258h-94v385l-20 33q-47 77 -47 80h-5v-727h-323z" />
<glyph unicode="&#x49d;" horiz-adv-x="1182" d="M133 0v1024h316v-483h4l61 57v297h84v-213l213 342h369l-357 -487l369 -537h-371l-223 358v-243h-84v331l-61 54h-4v-500h-316z" />
<glyph unicode="&#x49e;" horiz-adv-x="1329" d="M29 1118v209h135v107h323v-107h175v-209h-175v-362h5q12 28 40 80l396 598h385l-500 -684l543 -750h-408l-418 623q-12 18 -38 79h-5v-702h-323v1118h-135z" />
<glyph unicode="&#x49f;" horiz-adv-x="1186" d="M27 1167v209h143v140h315v-140h330v-209h-330v-616h4l306 473h374l-366 -481l393 -543h-379l-328 508h-4v-508h-315v1167h-143z" />
<glyph unicode="&#x4a0;" horiz-adv-x="1604" d="M31 1169v265h731v-678h4q12 28 41 80l395 598h385l-500 -684l543 -750h-407l-418 623q-14 21 -39 79h-4v-702h-324v1169h-407z" />
<glyph unicode="&#x4a1;" horiz-adv-x="1329" d="M27 784v240h606v-481h4l315 481h375l-377 -487l389 -537h-378l-324 500h-4v-500h-318v784h-288z" />
<glyph unicode="&#x4a2;" horiz-adv-x="1676" d="M164 0v1434h323v-570h594v570h324v-1158h205v-667h-284v391h-245v582h-594v-582h-323z" />
<glyph unicode="&#x4a3;" horiz-adv-x="1350" d="M133 0v1024h316v-379h354v379h317v-801h164v-597h-257v374h-224v428h-354v-428h-316z" />
<glyph unicode="&#x4a4;" horiz-adv-x="1843" d="M164 0v1434h323v-570h594v570h731v-265h-407v-1169h-324v582h-594v-582h-323z" />
<glyph unicode="&#x4a5;" horiz-adv-x="1440" d="M133 0v1024h316v-379h354v379h606v-240h-289v-784h-317v428h-354v-428h-316z" />
<glyph unicode="&#x4a6;" horiz-adv-x="2257" d="M164 0v1434h1241v-510h82q329 0 514.5 -186.5t185.5 -493.5q0 -301 -192.5 -484.5t-552.5 -183.5q-186 0 -361 57v289q196 -76 363 -76q195 0 298 104t103 292q0 186 -112 294.5t-297 108.5h-31v-645h-324v1157h-594v-1157h-323z" />
<glyph unicode="&#x4a7;" horiz-adv-x="1848" d="M133 0v1024h987v-395h58q274 0 440 -147t166 -392q0 -212 -158.5 -356t-425.5 -144q-230 0 -399 78v242q179 -88 366 -88q295 0 295 266q0 299 -321 299h-21v-387h-317v801h-354v-801h-316z" />
<glyph unicode="&#x4a8;" horiz-adv-x="1578" d="M74 700q0 170 54.5 309.5t154 239t240.5 154.5t315 55q109 0 198.5 -13.5t155.5 -39.5v-298q-72 42 -149.5 63.5t-178.5 21.5q-104 0 -187 -33t-141.5 -94t-90 -148t-31.5 -194q0 -113 23.5 -200t64.5 -146.5t98.5 -90t124.5 -30.5q24 0 41.5 2t34.5 4q-88 47 -137 147 t-49 239q0 95 32 170t89.5 127.5t138.5 80.5t178 28q104 0 185.5 -28.5t138 -81.5t86.5 -128.5t30 -170.5q0 -75 -14 -136.5t-38 -109.5t-56 -81.5t-68 -53.5q15 -3 37.5 -5t37.5 -2q43 0 88 10t80 32v-279q-87 -40 -219 -40q-45 0 -82 4t-68 10.5t-57.5 16t-51.5 19.5 q-23 -12 -56 -22t-73.5 -17t-86 -11t-93.5 -4q-142 0 -269.5 47.5t-222.5 139t-151 227t-56 310.5zM932 595q0 -92 35.5 -153.5t92.5 -94.5q21 14 40.5 34.5t33.5 50t22.5 70t8.5 93.5q0 97 -29.5 152.5t-85.5 55.5q-31 0 -53.5 -16t-36.5 -43.5t-21 -65.5t-7 -83z" />
<glyph unicode="&#x4a9;" horiz-adv-x="1227" d="M72 504q0 122 39 222.5t113 172.5t181 111.5t242 39.5q85 0 157 -10t122 -28v-223q-44 16 -101 26t-128 10q-89 0 -149.5 -22.5t-97 -64.5t-52 -101.5t-15.5 -132.5q0 -77 16.5 -137t46.5 -100.5t71 -61.5t90 -21q17 0 30 1.5t25 3.5q-64 33 -99 105.5t-35 172.5 q0 68 23 122t64.5 92t99.5 58t128 20q75 0 134 -20.5t99.5 -58.5t62 -92.5t21.5 -123.5q0 -54 -10 -98t-27.5 -78.5t-40.5 -59t-49 -38.5q11 -2 27 -3.5t27 -1.5q31 0 63.5 7t57.5 23v-201q-66 -28 -167 -28q-69 0 -114.5 10t-83.5 26q-18 -9 -43 -16t-56 -12t-66 -8t-71 -3 q-121 0 -220 34t-169 100t-108 163.5t-38 223.5zM772 439q0 -60 20.5 -112.5t61.5 -76.5q15 10 27.5 29t21 44.5t13 55.5t4.5 60q0 62 -16.5 100.5t-56.5 38.5q-22 0 -37 -11t-23 -30t-11.5 -44.5t-3.5 -53.5z" />
<glyph unicode="&#x4aa;" horiz-adv-x="1278" d="M74 686q0 344 212.5 558t551.5 214q210 0 354 -53v-311q-144 86 -328 86q-202 0 -326 -127t-124 -344q0 -208 117 -331.5t315 -123.5q189 0 346 92v-295q-114 -55 -301 -71q57 -80 57 -154q0 -78 -52.5 -126.5t-137.5 -48.5q-76 0 -154 26v136q71 -26 119 -26q57 0 57 53 q0 58 -45 136q-310 14 -485.5 206.5t-175.5 503.5z" />
<glyph unicode="&#x4ab;" horiz-adv-x="983" d="M72 487q0 261 156.5 411.5t418.5 150.5q181 0 262 -48v-268q-99 74 -221 74q-136 0 -215.5 -79.5t-79.5 -219.5q0 -136 76 -213.5t209 -77.5q118 0 231 74v-254q-81 -46 -222 -58q56 -79 56 -153q0 -78 -52.5 -126.5t-137.5 -48.5q-76 0 -154 26v136q71 -26 119 -26 q57 0 57 53q0 60 -46 139q-207 22 -332 161.5t-125 346.5z" />
<glyph unicode="&#x4ac;" horiz-adv-x="1200" d="M31 1171v263h1140v-263h-409v-895h205v-667h-285v391h-244v1171h-407z" />
<glyph unicode="&#x4ad;" horiz-adv-x="930" d="M31 784v240h868v-240h-274v-561h163v-596h-257v373h-224v784h-276z" />
<glyph unicode="&#x4ae;" horiz-adv-x="1243" d="M0 1434h369l231 -535q6 -15 33 -117h4q13 72 31 113l235 539h342l-467 -924v-510h-323v504z" />
<glyph unicode="&#x4af;" d="M-4 1024h350l191 -623q18 -58 28 -137h4q9 58 33 135l193 625h313l-383 -1024v-471h-315v473z" />
<glyph unicode="&#x4b0;" horiz-adv-x="1243" d="M0 1434h369l229 -512q13 -29 35 -113h4q11 60 33 109l233 516h342l-465 -879h322v-262h-324v-293h-323v293h-316v262h312z" />
<glyph unicode="&#x4b1;" d="M-4 1024h350l191 -627q19 -61 28 -137h4q9 57 33 135l193 629h313l-381 -1024h295v-205h-297v-266h-315v266h-289v205h288z" />
<glyph unicode="&#x4b2;" horiz-adv-x="1454" d="M6 0l457 717l-418 717h393l205 -430q24 -49 43 -121h4q12 42 45 125l228 426h360l-430 -711l273 -447h223v-663h-285v387h-152l-247 467q-14 27 -29 96h-4q-7 -33 -33 -100l-248 -463h-385z" />
<glyph unicode="&#x4b3;" horiz-adv-x="1231" d="M8 0l346 510l-325 514h366l146 -287q29 -57 41 -96h4q16 47 43 98l149 285h344l-338 -496l194 -305h187v-597h-257v374h-152l-148 276q-19 36 -43 93h-4q-15 -42 -41 -90l-149 -279h-363z" />
<glyph unicode="&#x4b4;" horiz-adv-x="1948" d="M29 1171v263h1140v-263h-409v-895h594v1158h323v-1158h205v-663h-284v387h-1162v1171h-407z" />
<glyph unicode="&#x4b5;" horiz-adv-x="1526" d="M31 784v240h848v-240h-254v-561h354v801h317v-801h164v-597h-257v374h-896v784h-276z" />
<glyph unicode="&#x4b6;" horiz-adv-x="1585" d="M139 887v547h322v-519q0 -186 205 -186q162 0 325 98v607h324v-1158h205v-663h-285v387h-244v569q-201 -110 -407 -110q-445 0 -445 428z" />
<glyph unicode="&#x4b7;" horiz-adv-x="1325" d="M121 616v408h303v-358q0 -158 141 -158q100 0 215 61v455h316v-801h164v-596h-258v373h-222v354q-161 -90 -311 -90q-348 0 -348 352z" />
<glyph unicode="&#x4b8;" horiz-adv-x="1479" d="M139 887v547h322v-519q0 -180 192 -186v305h115v-295q114 22 223 88v607h324v-1434h-324v569q-118 -65 -223 -90v-282h-115v264q-24 -2 -69 -2q-445 0 -445 428z" />
<glyph unicode="&#x4b9;" horiz-adv-x="1229" d="M121 616v408h303v-358q0 -151 131 -158v246h115v-234q61 16 110 49v455h316v-1024h-316v354q-54 -30 -110 -51v-188h-115v157q-46 -8 -86 -8q-348 0 -348 352z" />
<glyph unicode="&#x4ba;" horiz-adv-x="1479" d="M164 0v1434h323v-570q203 111 408 111q444 0 444 -428v-547h-321v518q0 187 -205 187q-161 0 -326 -99v-606h-323z" />
<glyph unicode="&#x4bb;" horiz-adv-x="1233" d="M133 0v1516h316v-644h4q116 177 315 177q348 0 348 -420v-629h-315v582q0 225 -164 225q-84 0 -136 -63t-52 -160v-584h-316z" />
<glyph unicode="&#x4bc;" horiz-adv-x="1934" d="M41 920q0 91 41 184h219q-31 -66 -31 -125q0 -139 150 -139h41q41 283 232.5 450.5t480.5 167.5q306 0 493.5 -200.5t187.5 -530.5v-143h-1054q60 -344 446 -344q217 0 445 151v-287q-207 -129 -492 -129q-328 0 -519.5 158.5t-223.5 450.5h-39q-377 0 -377 336zM801 840 h704q-17 165 -106.5 259.5t-227.5 94.5q-146 0 -243.5 -95t-126.5 -259z" />
<glyph unicode="&#x4bd;" horiz-adv-x="1411" d="M41 692q0 86 37 164h180q-29 -62 -29 -115q0 -125 142 -125h14q34 202 175 317.5t327 115.5q224 0 346.5 -133t122.5 -361v-133h-668q16 -223 281 -223q169 0 297 80v-228q-142 -76 -369 -76q-228 0 -362.5 117t-155.5 330h-19q-319 0 -319 270zM686 616h377 q0 220 -178 220q-76 0 -131.5 -63t-67.5 -157z" />
<glyph unicode="&#x4be;" horiz-adv-x="1934" d="M41 920q0 91 41 184h219q-31 -66 -31 -125q0 -139 150 -139h41q41 283 232.5 450.5t480.5 167.5q306 0 493.5 -200.5t187.5 -530.5v-143h-1054q60 -344 446 -344q217 0 445 151v-287q-207 -129 -492 -129q-328 0 -519.5 158.5t-223.5 450.5h-39q-377 0 -377 336zM801 840 h704q-17 165 -106.5 259.5t-227.5 94.5q-146 0 -243.5 -95t-126.5 -259zM1056 0h284v-391h-284v391z" />
<glyph unicode="&#x4bf;" horiz-adv-x="1411" d="M41 692q0 86 37 164h180q-29 -62 -29 -115q0 -125 142 -125h14q34 202 175 317.5t327 115.5q224 0 346.5 -133t122.5 -361v-133h-668q16 -223 281 -223q169 0 297 80v-228q-142 -76 -369 -76q-228 0 -362.5 117t-155.5 330h-19q-319 0 -319 270zM686 616h377 q0 220 -178 220q-76 0 -131.5 -63t-67.5 -157zM762 0h258v-373h-258v373z" />
<glyph unicode="&#x4c0;" horiz-adv-x="649" d="M44 0v250h120v934h-120v250h563v-250h-120v-934h120v-250h-563z" />
<glyph unicode="&#x4c1;" horiz-adv-x="2033" d="M-10 0l547 748l-506 686h385l399 -600q25 -38 39 -66h4v666h316v-666h4q14 29 39 66l399 600h385l-506 -686l547 -748h-402l-423 618q-17 24 -39 72h-4v-690h-316v690h-4q-10 -23 -39 -72l-424 -618h-401zM682 1874h179q17 -135 159 -135q137 0 156 135h180 q-12 -141 -102.5 -224t-237.5 -83q-146 0 -238 85.5t-96 221.5z" />
<glyph unicode="&#x4c2;" horiz-adv-x="1736" d="M8 0l389 537l-379 487h371l320 -485h4v485h311v-485h4l320 485h370l-379 -487l392 -537h-373l-330 512h-4v-512h-311v512h-4l-328 -512h-373zM534 1493h179q17 -135 159 -135q137 0 156 135h180q-12 -141 -102.5 -224t-237.5 -83q-146 0 -238 85.5t-96 221.5z" />
<glyph unicode="&#x4c3;" horiz-adv-x="1344" d="M164 0v1434h323v-609h5q17 34 40 66l396 543h385l-496 -627h4q211 0 330 -171.5t119 -424.5q0 -284 -194.5 -459.5t-551.5 -175.5q-185 0 -360 57v289q196 -76 362 -76q193 0 297.5 95t104.5 268q0 172 -111.5 270.5t-298.5 98.5h-31v-578h-323z" />
<glyph unicode="&#x4c4;" horiz-adv-x="1184" d="M129 -90q179 -88 365 -88q135 0 211.5 68t76.5 184q0 127 -81.5 199.5t-231.5 72.5h-20v-346h-316v1024h316v-481h4l315 481h375l-377 -485q159 -43 252.5 -167t93.5 -296q0 -204 -161 -345t-423 -141q-230 0 -399 78v242z" />
<glyph unicode="&#x4c5;" horiz-adv-x="1612" d="M23 8v258q58 -20 100 -20q41 0 72.5 26t69.5 138t91.5 386.5t102.5 637.5h872v-1211h223l-184 -596h-293l161 373h-230v1165h-287q-116 -824 -217 -1004.5t-307 -180.5q-87 0 -174 28z" />
<glyph unicode="&#x4c6;" horiz-adv-x="1383" d="M16 8v215q35 -16 74 -16q94 0 156 175t112 642h744v-801h223l-184 -596h-293l161 373h-225v801h-174q-55 -465 -164.5 -639t-306.5 -174q-68 0 -123 20z" />
<glyph unicode="&#x4c7;" horiz-adv-x="1569" d="M164 0v1434h323v-570h594v570h324v-1223q0 -159 -57.5 -278.5t-158 -198.5t-236.5 -118.5t-294 -39.5q-184 0 -360 57v289q195 -76 362 -76q96 0 174 24t132.5 70.5t84 114t29.5 154.5v373h-594v-582h-323z" />
<glyph unicode="&#x4c8;" horiz-adv-x="1254" d="M133 0v1024h316v-379h354v379h317v-916q3 -122 -41.5 -218.5t-123 -163t-185 -101.5t-227.5 -35q-115 0 -218 19.5t-188 58.5v242q177 -88 366 -88q149 0 224.5 66t75.5 200v340h-354v-428h-316z" />
<glyph unicode="&#x4c9;" horiz-adv-x="1739" d="M164 0v1434h323v-570h594v570h324v-1158h276l-226 -663h-310l174 387h-238v582h-594v-582h-323z" />
<glyph unicode="&#x4ca;" horiz-adv-x="1401" d="M133 0v1024h316v-379h354v379h317v-801h223l-184 -596h-293l161 373h-224v428h-354v-428h-316z" />
<glyph unicode="&#x4cb;" horiz-adv-x="1479" d="M139 887v547h322v-519q0 -186 205 -186q162 0 325 98v607h324v-1434h-244v-388h-285v664h205v293q-201 -110 -407 -110q-445 0 -445 428z" />
<glyph unicode="&#x4cc;" horiz-adv-x="1229" d="M121 616v408h303v-358q0 -158 141 -158q100 0 215 61v455h316v-1024h-222v-373h-258v596h164v131q-161 -90 -311 -90q-348 0 -348 352z" />
<glyph unicode="&#x4cd;" horiz-adv-x="2132" d="M164 0v1434h473l293 -850q35 -102 51 -205h6q27 119 57 207l293 848h461v-1158h276l-226 -663h-310l174 387h-233v858q0 139 12 307h-8q-25 -132 -45 -190l-336 -975h-264l-342 965q-14 39 -45 200h-9q13 -212 13 -372v-793h-291z" />
<glyph unicode="&#x4ce;" horiz-adv-x="1739" d="M133 0v1024h416l194 -584q45 -135 50 -182q7 45 51 180l192 586h422v-801h223l-184 -596h-293l161 373h-202v797q-10 -56 -53 -189l-199 -608h-278l-199 608q-48 146 -53 185v-793h-248z" />
<glyph unicode="&#x4cf;" horiz-adv-x="582" d="M133 0v1516h316v-1516h-316z" />
<glyph unicode="&#x4d0;" horiz-adv-x="1440" d="M10 0l522 1434h383l510 -1434h-352l-102 319h-510l-101 -319h-350zM381 1840h179q17 -135 159 -135q137 0 156 135h180q-12 -141 -102.5 -224t-237.5 -83q-146 0 -238 85.5t-96 221.5zM530 567h367l-154 482q-17 54 -24 129h-8q-5 -63 -25 -125z" />
<glyph unicode="&#x4d1;" d="M57 285q0 298 353 344l278 37q0 168 -182 168q-183 0 -348 -109v238q66 34 180.5 60t208.5 26q438 0 438 -437v-612h-299v147h-4q-103 -172 -305 -172q-149 0 -234.5 84.5t-85.5 225.5zM194 1493h179q17 -135 159 -135q137 0 156 135h180q-12 -141 -102.5 -224 t-237.5 -83q-146 0 -238 85.5t-96 221.5zM348 322q0 -54 37.5 -88.5t101.5 -34.5q89 0 145 61.5t56 155.5v69l-186 -24q-154 -20 -154 -139z" />
<glyph unicode="&#x4d2;" horiz-adv-x="1440" d="M10 0l522 1434h383l510 -1434h-352l-102 319h-510l-101 -319h-350zM316 1670q0 60 44 98.5t110 38.5q68 0 110.5 -38.5t42.5 -98.5q0 -61 -42.5 -99t-110.5 -38t-111 39.5t-43 97.5zM530 567h367l-154 482q-17 54 -24 129h-8q-5 -63 -25 -125zM775 1670q0 61 43 99 t110 38t110.5 -38.5t43.5 -98.5t-43 -98.5t-111 -38.5q-67 0 -110 39t-43 98z" />
<glyph unicode="&#x4d3;" d="M57 285q0 298 353 344l278 37q0 168 -182 168q-183 0 -348 -109v238q66 34 180.5 60t208.5 26q438 0 438 -437v-612h-299v147h-4q-103 -172 -305 -172q-149 0 -234.5 84.5t-85.5 225.5zM184 1323q0 60 44 98.5t110 38.5q68 0 110.5 -38.5t42.5 -98.5q0 -61 -42.5 -99 t-110.5 -38t-111 39.5t-43 97.5zM348 322q0 -54 37.5 -88.5t101.5 -34.5q89 0 145 61.5t56 155.5v69l-186 -24q-154 -20 -154 -139zM643 1323q0 61 43 99t110 38t110.5 -38.5t43.5 -98.5t-43 -98.5t-111 -38.5q-67 0 -110 39t-43 98z" />
<glyph unicode="&#x4d4;" horiz-adv-x="1915" d="M-2 0l725 1434h1094v-263h-504v-319h469v-262h-469v-328h536v-262h-858v319h-471l-147 -319h-375zM631 567h360v604h-78z" />
<glyph unicode="&#x4d5;" horiz-adv-x="1696" d="M57 287q0 146 96.5 234t276.5 102l256 20q0 191 -184 191q-174 0 -344 -107v236q187 86 370 86q234 0 324 -134h4q132 134 326 134q214 0 336 -133t122 -365v-129h-667q20 -223 282 -223q160 0 297 80v-226q-156 -78 -378 -78q-269 0 -398 179h-4q-141 -179 -362 -179 q-166 0 -259.5 82.5t-93.5 229.5zM346 315q0 -50 39 -83t102 -33q86 0 142.5 59.5t56.5 155.5v45l-156 -13q-184 -15 -184 -131zM973 616h375q0 220 -177 220q-75 0 -131.5 -62t-66.5 -158z" />
<glyph unicode="&#x4d6;" horiz-adv-x="1090" d="M164 0v1434h827v-263h-504v-319h469v-262h-469v-328h537v-262h-860zM293 1842h179q17 -135 159 -135q137 0 156 135h180q-12 -141 -102.5 -224t-237.5 -83q-146 0 -238 85.5t-96 221.5z" />
<glyph unicode="&#x4d7;" horiz-adv-x="1108" d="M72 496q0 255 148 404t364 149q224 0 346.5 -133t122.5 -361v-133h-668q16 -223 281 -223q169 0 297 80v-228q-142 -76 -369 -76q-248 0 -385 137.5t-137 383.5zM247 1493h179q17 -135 159 -135q137 0 156 135h180q-12 -141 -102.5 -224t-237.5 -83q-146 0 -238 85.5 t-96 221.5zM383 616h377q0 220 -178 220q-76 0 -131.5 -63t-67.5 -157z" />
<glyph unicode="&#x4d8;" horiz-adv-x="1557" d="M78 707v143h1055q-60 344 -447 344q-214 0 -444 -152v287q207 129 491 129q361 0 555.5 -190t194.5 -533q0 -339 -198.5 -549.5t-524.5 -210.5q-306 0 -494 201t-188 531zM428 594q17 -165 106.5 -259.5t227.5 -94.5q146 0 244 95t127 259h-705z" />
<glyph unicode="&#x4d9;" horiz-adv-x="1108" d="M55 469v133h668q-15 223 -281 223q-168 0 -297 -80v228q143 76 369 76q248 0 385 -137.5t137 -383.5q0 -255 -148 -404t-364 -149q-224 0 -346.5 133t-122.5 361zM348 408q0 -220 178 -220q76 0 131.5 63t67.5 157h-377z" />
<glyph unicode="&#x4da;" horiz-adv-x="1557" d="M78 707v143h1055q-60 344 -447 344q-214 0 -444 -152v287q207 129 491 129q361 0 555.5 -190t194.5 -533q0 -339 -198.5 -549.5t-524.5 -210.5q-306 0 -494 201t-188 531zM377 1704q0 60 44 98.5t110 38.5q68 0 110.5 -38.5t42.5 -98.5q0 -61 -42.5 -99t-110.5 -38 t-111 39.5t-43 97.5zM428 594q17 -165 106.5 -259.5t227.5 -94.5q146 0 244 95t127 259h-705zM836 1704q0 61 43 99t110 38t110.5 -38.5t43.5 -98.5t-43 -98.5t-111 -38.5q-67 0 -110 39t-43 98z" />
<glyph unicode="&#x4db;" horiz-adv-x="1108" d="M55 469v133h668q-15 223 -281 223q-168 0 -297 -80v228q143 76 369 76q248 0 385 -137.5t137 -383.5q0 -255 -148 -404t-364 -149q-224 0 -346.5 133t-122.5 361zM176 1323q0 60 44 98.5t110 38.5q68 0 110.5 -38.5t42.5 -98.5q0 -61 -42.5 -99t-110.5 -38t-111 39.5 t-43 97.5zM348 408q0 -220 178 -220q76 0 131.5 63t67.5 157h-377zM635 1323q0 61 43 99t110 38t110.5 -38.5t43.5 -98.5t-43 -98.5t-111 -38.5q-67 0 -110 39t-43 98z" />
<glyph unicode="&#x4dc;" horiz-adv-x="2033" d="M-10 0l547 748l-506 686h385l399 -600q25 -38 39 -66h4v666h316v-666h4q14 29 39 66l399 600h385l-506 -686l547 -748h-402l-423 618q-17 24 -39 72h-4v-690h-316v690h-4q-10 -23 -39 -72l-424 -618h-401zM635 1704q0 60 44 98.5t110 38.5q68 0 110.5 -38.5t42.5 -98.5 q0 -61 -42.5 -99t-110.5 -38t-111 39.5t-43 97.5zM1094 1704q0 61 43 99t110 38t110.5 -38.5t43.5 -98.5t-43 -98.5t-111 -38.5q-67 0 -110 39t-43 98z" />
<glyph unicode="&#x4dd;" horiz-adv-x="1736" d="M8 0l389 537l-379 487h371l320 -485h4v485h311v-485h4l320 485h370l-379 -487l392 -537h-373l-330 512h-4v-512h-311v512h-4l-328 -512h-373zM485 1323q0 60 44 98.5t110 38.5q68 0 110.5 -38.5t42.5 -98.5q0 -61 -42.5 -99t-110.5 -38t-111 39.5t-43 97.5zM944 1323 q0 61 43 99t110 38t110.5 -38.5t43.5 -98.5t-43 -98.5t-111 -38.5q-67 0 -110 39t-43 98z" />
<glyph unicode="&#x4de;" horiz-adv-x="1144" d="M72 53v283q171 -115 389 -115q270 0 270 195q0 198 -297 198h-184v242h176q264 0 264 186q0 170 -225 170q-161 0 -344 -102v264q184 84 407 84q235 0 364.5 -97.5t129.5 -264.5q0 -131 -73.5 -222.5t-209.5 -123.5v-5q153 -20 239.5 -110.5t86.5 -224.5 q0 -207 -150 -321t-432 -114q-268 0 -411 78zM162 1704q0 60 44 98.5t110 38.5q68 0 110.5 -38.5t42.5 -98.5q0 -61 -42.5 -99t-110.5 -38t-111 39.5t-43 97.5zM621 1704q0 61 43 99t110 38t110.5 -38.5t43.5 -98.5t-43 -98.5t-111 -38.5q-67 0 -110 39t-43 98z" />
<glyph unicode="&#x4df;" horiz-adv-x="984" d="M80 27v229q148 -68 295 -68q213 0 213 117q0 121 -232 121h-143v195h145q199 0 199 116q0 103 -178 103q-134 0 -268 -60v217q180 52 325 52q447 0 447 -277q0 -192 -238 -237v-5q126 -11 197 -76t71 -165q0 -309 -501 -309q-191 0 -332 47zM104 1323q0 60 44 98.5 t110 38.5q68 0 110.5 -38.5t42.5 -98.5q0 -61 -42.5 -99t-110.5 -38t-111 39.5t-43 97.5zM563 1323q0 61 43 99t110 38t110.5 -38.5t43.5 -98.5t-43 -98.5t-111 -38.5q-67 0 -110 39t-43 98z" />
<glyph unicode="&#x4e0;" horiz-adv-x="1137" d="M72 53v283q171 -115 383 -115q276 0 276 217q0 211 -315 211h-129v135l313 387h-506v263h916v-181l-351 -405q190 -7 298 -113t108 -280q0 -228 -148 -354t-434 -126q-268 0 -411 78z" />
<glyph unicode="&#x4e1;" horiz-adv-x="1016" d="M-23 -115q157 -125 355 -125q164 0 255 65.5t91 182.5q0 115 -94 179.5t-262 64.5h-125v131l350 408h-537v233h914v-156l-363 -413q205 -32 319.5 -146t114.5 -293q0 -219 -183 -358t-462 -139q-208 0 -373 92v274z" />
<glyph unicode="&#x4e2;" horiz-adv-x="1619" d="M164 0v1434h305v-793q0 -147 -8 -197h4q5 12 74 117l569 873h346v-1434h-305v788q0 136 10 232h-6q-21 -41 -72 -119l-592 -901h-325zM501 1567v172h586v-172h-586z" />
<glyph unicode="&#x4e3;" horiz-adv-x="1285" d="M133 0v1024h289v-649q32 67 70 125l348 524h311v-1024h-287v670q-39 -79 -84 -146l-348 -524h-299zM338 1186v172h586v-172h-586z" />
<glyph unicode="&#x4e4;" horiz-adv-x="1619" d="M164 0v1434h305v-793q0 -147 -8 -197h4q5 12 74 117l569 873h346v-1434h-305v788q0 136 10 232h-6q-21 -41 -72 -119l-592 -901h-325zM440 1704q0 60 44 98.5t110 38.5q68 0 110.5 -38.5t42.5 -98.5q0 -61 -42.5 -99t-110.5 -38t-111 39.5t-43 97.5zM899 1704q0 61 43 99 t110 38t110.5 -38.5t43.5 -98.5t-43 -98.5t-111 -38.5q-67 0 -110 39t-43 98z" />
<glyph unicode="&#x4e5;" horiz-adv-x="1285" d="M133 0v1024h289v-649q32 67 70 125l348 524h311v-1024h-287v670q-39 -79 -84 -146l-348 -524h-299zM256 1323q0 60 44 98.5t110 38.5q68 0 110.5 -38.5t42.5 -98.5q0 -61 -42.5 -99t-110.5 -38t-111 39.5t-43 97.5zM715 1323q0 61 43 99t110 38t110.5 -38.5t43.5 -98.5 t-43 -98.5t-111 -38.5q-67 0 -110 39t-43 98z" />
<glyph unicode="&#x4e6;" horiz-adv-x="1553" d="M74 698q0 340 197 550t522 210q307 0 496.5 -201t189.5 -530q0 -338 -196.5 -545t-512.5 -207q-308 0 -502 200.5t-194 522.5zM391 1704q0 60 44 98.5t110 38.5q68 0 110.5 -38.5t42.5 -98.5q0 -61 -42.5 -99t-110.5 -38t-111 39.5t-43 97.5zM414 715q0 -213 100 -337 t262 -124q167 0 265 120.5t98 334.5q0 223 -95 347t-260 124q-170 0 -270 -127.5t-100 -337.5zM850 1704q0 61 43 99t110 38t110.5 -38.5t43.5 -98.5t-43 -98.5t-111 -38.5q-67 0 -110 39t-43 98z" />
<glyph unicode="&#x4e7;" horiz-adv-x="1252" d="M72 508q0 254 152 397.5t411 143.5q255 0 400 -143.5t145 -379.5q0 -255 -149.5 -403t-409.5 -148q-256 0 -402.5 143.5t-146.5 389.5zM248 1323q0 60 44 98.5t110 38.5q68 0 110.5 -38.5t42.5 -98.5q0 -61 -42.5 -99t-110.5 -38t-111 39.5t-43 97.5zM393 512 q0 -295 238 -295q227 0 227 303q0 287 -229 287q-112 0 -174 -77t-62 -218zM707 1323q0 61 43 99t110 38t110.5 -38.5t43.5 -98.5t-43 -98.5t-111 -38.5q-67 0 -110 39t-43 98z" />
<glyph unicode="&#x4e8;" horiz-adv-x="1553" d="M74 698q0 340 197 550t522 210q307 0 496.5 -201t189.5 -530q0 -338 -196.5 -545t-512.5 -207q-308 0 -502 200.5t-194 522.5zM418 840h717q-51 354 -351 354q-149 0 -244.5 -92.5t-121.5 -261.5zM420 584q27 -166 121 -255t235 -89q310 0 359 344h-715z" />
<glyph unicode="&#x4e9;" horiz-adv-x="1252" d="M72 508q0 254 152 397.5t411 143.5q255 0 400 -143.5t145 -379.5q0 -255 -149.5 -403t-409.5 -148q-256 0 -402.5 143.5t-146.5 389.5zM389 600h475q-31 227 -235 227t-240 -227zM391 414q39 -219 240 -219q192 0 229 219h-469z" />
<glyph unicode="&#x4ea;" horiz-adv-x="1553" d="M74 698q0 340 197 550t522 210q307 0 496.5 -201t189.5 -530q0 -338 -196.5 -545t-512.5 -207q-308 0 -502 200.5t-194 522.5zM391 1704q0 60 44 98.5t110 38.5q68 0 110.5 -38.5t42.5 -98.5q0 -61 -42.5 -99t-110.5 -38t-111 39.5t-43 97.5zM426 594q26 -160 120 -250 t230 -90q142 0 235.5 89t118.5 251h-704zM426 838h702q-26 164 -115.5 253t-228.5 89q-142 0 -236 -91t-122 -251zM850 1704q0 61 43 99t110 38t110.5 -38.5t43.5 -98.5t-43 -98.5t-111 -38.5q-67 0 -110 39t-43 98z" />
<glyph unicode="&#x4eb;" horiz-adv-x="1241" d="M72 508q0 254 150 397.5t409 143.5q254 0 396 -143t142 -380q0 -256 -147.5 -403.5t-407.5 -147.5q-253 0 -397.5 142.5t-144.5 390.5zM248 1323q0 60 44 98.5t110 38.5q68 0 110.5 -38.5t42.5 -98.5q0 -61 -42.5 -99t-110.5 -38t-111 39.5t-43 97.5zM397 416 q38 -199 228 -199q182 0 219 199h-447zM397 610h447q-36 197 -221 197q-186 0 -226 -197zM707 1323q0 61 43 99t110 38t110.5 -38.5t43.5 -98.5t-43 -98.5t-111 -38.5q-67 0 -110 39t-43 98z" />
<glyph unicode="&#x4ec;" horiz-adv-x="1277" d="M88 51v281q157 -92 354 -92q361 0 408 344h-553v256h555q-62 354 -408 354q-197 0 -356 -84v291q167 57 389 57q341 0 533 -196.5t192 -548.5q0 -333 -191 -535.5t-522 -202.5q-243 0 -401 76zM164 1704q0 60 44 98.5t110 38.5q68 0 110.5 -38.5t42.5 -98.5 q0 -61 -42.5 -99t-110.5 -38t-111 39.5t-43 97.5zM623 1704q0 61 43 99t110 38t110.5 -38.5t43.5 -98.5t-43 -98.5t-111 -38.5q-67 0 -110 39t-43 98z" />
<glyph unicode="&#x4ed;" horiz-adv-x="981" d="M74 1323q0 60 44 98.5t110 38.5q68 0 110.5 -38.5t42.5 -98.5q0 -61 -42.5 -99t-110.5 -38t-111 39.5t-43 97.5zM76 43v225q109 -73 246 -73q238 0 270 219h-381v186h383q-31 227 -279 227q-133 0 -231 -69v235q122 56 278 56q267 0 407 -139.5t140 -403.5 q0 -236 -144 -383.5t-390 -147.5q-165 0 -299 68zM533 1323q0 61 43 99t110 38t110.5 -38.5t43.5 -98.5t-43 -98.5t-111 -38.5q-67 0 -110 39t-43 98z" />
<glyph unicode="&#x4ee;" horiz-adv-x="1259" d="M23 1434h368l238 -574q21 -52 33 -117h2q11 54 34 113l230 578h340l-449 -983q-126 -276 -238 -376t-284 -100q-114 0 -186 33v295q82 -53 170 -53q121 0 213 196zM336 1567v172h586v-172h-586z" />
<glyph unicode="&#x4ef;" d="M-4 1024h350l191 -623q18 -58 28 -137h4q9 58 33 135l193 625h313l-416 -1106q-150 -399 -452 -399q-115 0 -189 26v252q63 -37 137 -37q122 0 170 115l54 127zM258 1186v172h586v-172h-586z" />
<glyph unicode="&#x4f0;" horiz-adv-x="1259" d="M23 1434h368l238 -574q21 -52 33 -117h2q11 54 34 113l230 578h340l-449 -983q-126 -276 -238 -376t-284 -100q-114 0 -186 33v295q82 -53 170 -53q121 0 213 196zM287 1704q0 60 44 98.5t110 38.5q68 0 110.5 -38.5t42.5 -98.5q0 -61 -42.5 -99t-110.5 -38t-111 39.5 t-43 97.5zM746 1704q0 61 43 99t110 38t110.5 -38.5t43.5 -98.5t-43 -98.5t-111 -38.5q-67 0 -110 39t-43 98z" />
<glyph unicode="&#x4f1;" d="M-4 1024h350l191 -623q18 -58 28 -137h4q9 58 33 135l193 625h313l-416 -1106q-150 -399 -452 -399q-115 0 -189 26v252q63 -37 137 -37q122 0 170 115l54 127zM174 1323q0 60 44 98.5t110 38.5q68 0 110.5 -38.5t42.5 -98.5q0 -61 -42.5 -99t-110.5 -38t-111 39.5 t-43 97.5zM633 1323q0 61 43 99t110 38t110.5 -38.5t43.5 -98.5t-43 -98.5t-111 -38.5q-67 0 -110 39t-43 98z" />
</font>
</defs>
</svg>
