<?xml version="1.0" standalone="no"?>
<!DOCTYPE svg PUBLIC "-//W3C//DTD SVG 1.1//EN" "http://www.w3.org/Graphics/SVG/1.1/DTD/svg11.dtd" >
<svg xmlns="http://www.w3.org/2000/svg">
<metadata></metadata>
<defs>
<font id="segoe_uisemibold" horiz-adv-x="1548" >
<font-face units-per-em="2048" ascent="1638" descent="-410" />
<missing-glyph horiz-adv-x="563" />
<glyph horiz-adv-x="2048" />
<glyph horiz-adv-x="2048" />
<glyph horiz-adv-x="682" />
<glyph unicode="&#xd;" horiz-adv-x="154" />
<glyph unicode=" "  horiz-adv-x="563" />
<glyph unicode="&#x09;" horiz-adv-x="563" />
<glyph unicode="&#xa0;" horiz-adv-x="563" />
<glyph unicode="!" horiz-adv-x="622" d="M167 112q0 57 42 97t102 40q58 0 100.5 -40t42.5 -97q0 -55 -42.5 -93.5t-100.5 -38.5q-60 0 -102 38.5t-42 93.5zM187 1434h235l-19 -1012h-190z" />
<glyph unicode="&#x22;" horiz-adv-x="896" d="M162 1442h212l-30 -447h-152zM522 1442h213l-30 -447h-153z" />
<glyph unicode="#" horiz-adv-x="1211" d="M34 493l28 140h232l55 276h-244l29 140h244l80 385h161l-79 -385h242l82 385h158l-80 -385h228l-31 -140h-227l-58 -276h248l-35 -140h-242l-82 -370h-159l80 370h-242l-78 -370h-159l78 370h-229zM450 633h245l59 276h-244z" />
<glyph unicode="$" horiz-adv-x="1137" d="M144 1048q0 149 106 257.5t269 130.5v180h123v-176q210 -6 290 -56v-214q-109 80 -290 86v-461q220 -102 301 -198t81 -217q0 -147 -101 -246t-281 -126v-217h-123v209q-222 0 -361 86v223q61 -53 165.5 -89t195.5 -36v445q-236 109 -305.5 201t-69.5 218zM356 1068 q0 -74 36 -121t127 -95v399q-75 -15 -119 -64t-44 -119zM642 190q170 36 170 177q0 118 -170 208v-385z" />
<glyph unicode="%" horiz-adv-x="1721" d="M84 1072q0 178 95.5 280.5t257.5 102.5q157 0 243.5 -95t86.5 -267t-97 -275.5t-254 -103.5q-152 0 -242 97.5t-90 260.5zM253 1079q0 -108 46.5 -168t127.5 -60t127 62.5t46 173.5q0 108 -45.5 168t-124.5 60q-82 0 -129.5 -63t-47.5 -173zM324 -10l919 1444h144 l-920 -1444h-143zM926 336q0 178 95.5 280.5t257.5 102.5q157 0 243.5 -95t86.5 -267t-97 -275.5t-254 -103.5q-152 0 -242 97.5t-90 260.5zM1095 343q0 -108 46.5 -168t127.5 -60t127 62.5t46 173.5q0 108 -45.5 168t-124.5 60q-82 0 -129.5 -63t-47.5 -173z" />
<glyph unicode="&#x26;" horiz-adv-x="1684" d="M99 390q0 153 88 261.5t247 177.5q-30 22 -60 51.5t-53.5 67t-38 83t-14.5 99.5q0 79 30.5 140t84.5 103t127.5 63.5t158.5 21.5q84 0 154 -21.5t120 -61.5t78 -96t28 -124q0 -121 -68.5 -200t-205.5 -135q69 -25 125 -60.5t103.5 -79.5t85 -94.5t73.5 -104.5 q75 108 113 237.5t38 271.5q0 36 -4.5 68t-12.5 63h208q10 -32 12 -60t5 -68q0 -87 -21 -175t-56 -171t-82 -166t-98 -160q35 -38 64 -66.5t59.5 -47.5t62 -28t71.5 -9q31 0 62 8t64 20v-185q-40 -18 -83.5 -27t-84.5 -9q-63 0 -111 14t-88.5 40t-78.5 63t-80 85 q-41 -39 -94.5 -75t-119 -64.5t-143 -45t-168.5 -16.5q-110 0 -202 27t-157.5 79.5t-101.5 129.5t-36 176zM335 410q0 -61 23 -107.5t63 -77.5t93 -46.5t115 -15.5q70 0 128.5 15t108 39.5t90 57t73.5 68.5q-58 85 -107 145.5t-98.5 104t-106 75t-130.5 58.5 q-55 -22 -101 -49.5t-79.5 -64.5t-52.5 -86.5t-19 -115.5zM482 1120q0 -35 10.5 -66.5t30 -58.5t45.5 -47.5t55 -35.5q108 38 161.5 89t53.5 128q0 43 -16 73.5t-40.5 50.5t-54.5 29t-59 9q-85 0 -135 -46t-51 -125z" />
<glyph unicode="'" horiz-adv-x="529" d="M158 1442h213l-30 -447h-153z" />
<glyph unicode="(" horiz-adv-x="680" d="M148 547q0 521 316 887h197q-310 -380 -310 -885q0 -501 309 -875h-196q-316 354 -316 873z" />
<glyph unicode=")" horiz-adv-x="680" d="M20 1434h198q317 -366 317 -887q0 -519 -318 -873h-196q310 374 310 875q0 505 -311 885z" />
<glyph unicode="*" horiz-adv-x="889" d="M73 1081l57 160l257 -103l-32 296h182l-32 -296l257 103l56 -160l-274 -47l192 -229l-142 -98l-148 260l-148 -260l-143 98l193 229z" />
<glyph unicode="+" horiz-adv-x="1422" d="M235 510v165h395v396h165v-396h395v-165h-395v-395h-165v395h-395z" />
<glyph unicode="," horiz-adv-x="494" d="M39 -260l110 499h219l-155 -499h-174z" />
<glyph unicode="-" horiz-adv-x="823" d="M144 474v171h546v-171h-546z" />
<glyph unicode="." horiz-adv-x="494" d="M103 112q0 56 42 96t102 40q61 0 103.5 -40t42.5 -96q0 -55 -42.5 -94.5t-103.5 -39.5q-60 0 -102 39.5t-42 94.5z" />
<glyph unicode="/" horiz-adv-x="847" d="M-37 -238l690 1672h214l-693 -1672h-211z" />
<glyph unicode="0" horiz-adv-x="1137" d="M78 688q0 380 131 575t378 195q473 0 473 -735q0 -364 -133.5 -555.5t-373.5 -191.5q-224 0 -349.5 183t-125.5 529zM315 698q0 -538 256 -538q252 0 252 547q0 566 -247 566q-261 0 -261 -575z" />
<glyph unicode="1" horiz-adv-x="1137" d="M165 1121v202l552 138v-1269h310v-192h-854v192h312v1014z" />
<glyph unicode="2" horiz-adv-x="1137" d="M101 0v191l397 385q152 147 217 244.5t65 208.5q0 114 -67.5 176.5t-192.5 62.5q-183 0 -350 -164v223q177 131 411 131q202 0 318 -101.5t116 -293.5q0 -129 -72 -252.5t-277 -323.5l-295 -283v-5h630v-199h-900z" />
<glyph unicode="3" horiz-adv-x="1137" d="M138 53v218q140 -111 316 -111q143 0 228.5 65t85.5 176q0 244 -373 244h-111v186h106q331 0 331 230q0 212 -258 212q-144 0 -271 -103v206q146 82 345 82q191 0 306 -96t115 -246q0 -283 -288 -364v-4q155 -15 245 -108.5t90 -233.5q0 -193 -145 -311.5t-382 -118.5 q-213 0 -340 77z" />
<glyph unicode="4" horiz-adv-x="1137" d="M25 346v150l622 938h248v-913h179v-175h-179v-346h-218v346h-652zM238 521h439v555q0 59 4 132h-4q-12 -32 -49 -98z" />
<glyph unicode="5" horiz-adv-x="1137" d="M164 33v223q141 -95 286 -95q146 0 235 74.5t89 198.5q0 122 -90.5 190t-259.5 68q-58 0 -215 -12v754h737v-198h-533v-359q65 4 121 4q228 0 352.5 -117t124.5 -320q0 -213 -142.5 -341.5t-391.5 -128.5q-210 0 -313 59z" />
<glyph unicode="6" horiz-adv-x="1137" d="M105 631q0 377 168.5 602t446.5 225q156 0 247 -41v-201q-107 57 -225 57q-183 0 -293 -148t-110 -397h4q97 180 320 180q183 0 291 -122t108 -326q0 -214 -133.5 -349t-338.5 -135q-227 0 -356 172t-129 483zM350 472q0 -129 67 -220.5t178 -91.5q105 0 170 79.5 t65 201.5q0 134 -62 209.5t-175 75.5q-108 0 -175.5 -75.5t-67.5 -178.5z" />
<glyph unicode="7" horiz-adv-x="1137" d="M90 1236v198h958v-94l-540 -1340h-244l525 1236h-699z" />
<glyph unicode="8" horiz-adv-x="1137" d="M91 350q0 276 301 402v4q-253 120 -253 347q0 156 127 255.5t327 99.5q181 0 297 -93t116 -239q0 -238 -266 -370v-4q308 -112 308 -388q0 -178 -135 -283t-376 -105q-195 0 -320.5 104t-125.5 270zM318 371q0 -95 70.5 -156t185.5 -61q109 0 178.5 60t69.5 151 q0 192 -262 286q-242 -97 -242 -280zM367 1093q0 -165 205 -249q208 86 208 247q0 87 -54.5 137.5t-148.5 50.5q-88 0 -149 -52.5t-61 -133.5z" />
<glyph unicode="9" horiz-adv-x="1137" d="M87 974q0 212 136 348t347 136q222 0 346.5 -167.5t124.5 -488.5q0 -396 -162 -611t-450 -215q-152 0 -263 51v201q116 -68 246 -68q189 0 294 137.5t105 390.5q-2 -1 -4 0q-89 -166 -310 -166q-179 0 -294.5 126.5t-115.5 325.5zM317 994q0 -134 66.5 -210t180.5 -76 q99 0 167.5 69.5t68.5 170.5q0 143 -68.5 234t-177.5 91q-101 0 -169 -79t-68 -200z" />
<glyph unicode=":" horiz-adv-x="494" d="M103 112q0 56 42 96t102 40q61 0 103.5 -40t42.5 -96q0 -55 -42.5 -94.5t-103.5 -39.5q-60 0 -102 39.5t-42 94.5zM103 903q0 56 42 96t102 40q61 0 103.5 -40t42.5 -96q0 -55 -42.5 -94.5t-103.5 -39.5q-60 0 -102 39.5t-42 94.5z" />
<glyph unicode=";" horiz-adv-x="494" d="M39 -264l109 503h220l-152 -503h-177zM107 908q0 56 40.5 95t99.5 39q57 0 98 -39t41 -95t-41 -96.5t-98 -40.5q-59 0 -99.5 40.5t-40.5 96.5z" />
<glyph unicode="&#x3c;" horiz-adv-x="1422" d="M266 527v106l893 466v-190l-653 -324v-4l653 -294v-189z" />
<glyph unicode="=" horiz-adv-x="1422" d="M235 295v164h955v-164h-955zM235 724v165h955v-165h-955z" />
<glyph unicode="&#x3e;" horiz-adv-x="1422" d="M266 104v189l654 291v6l-654 324v190l893 -465v-106z" />
<glyph unicode="?" horiz-adv-x="909" d="M99 1131v231q164 96 340 96q81 0 153 -21t126 -62t85 -102t31 -142q0 -77 -26 -137t-65.5 -110.5t-85 -89.5t-85 -78t-65.5 -81t-26 -93q0 -43 11 -78t22 -59h-211q-9 25 -16 65t-7 79q0 61 24.5 110.5t61 92.5t79 83t79 78t61 80t24.5 92q0 45 -18 78.5t-49.5 56 t-72 33.5t-86.5 11q-149 0 -284 -133zM274 115q0 57 42 94q43 40 101 40q57 0 100 -40q42 -37 42 -94q0 -56 -42 -94q-44 -39 -100 -39q-57 0 -101 39q-42 38 -42 94z" />
<glyph unicode="@" horiz-adv-x="1955" d="M155 606q0 366 238 607t608 241q347 0 574.5 -202t227.5 -527q0 -238 -123.5 -390.5t-301.5 -152.5q-230 0 -231 215h-5q-72 -215 -282 -215q-134 0 -216 100.5t-82 270.5q0 225 112.5 374t296.5 149q70 0 125 -38.5t71 -92.5h3q3 28 15 115h166q-47 -528 -47 -538 q0 -198 103 -198q94 0 156 110.5t62 286.5q0 260 -167.5 424.5t-464.5 164.5q-285 0 -472 -199t-187 -498q0 -295 180 -476t485 -181q240 0 411 82v-154q-175 -74 -437 -74q-368 0 -593 220t-225 576zM743 557q0 -108 45.5 -170.5t121.5 -62.5q110 0 174 113.5t64 300.5 q0 196 -160 196q-110 0 -177.5 -108t-67.5 -269z" />
<glyph unicode="A" horiz-adv-x="1375" d="M17 0l537 1434h268l533 -1434h-261l-129 365h-564l-124 -365h-260zM463 559h439l-199 572q-9 28 -19 90h-4q-9 -57 -20 -90z" />
<glyph unicode="B" horiz-adv-x="1237" d="M177 0v1434h455q208 0 329.5 -91t121.5 -237q0 -122 -69 -212t-191 -128v-4q148 -17 236.5 -109.5t88.5 -240.5q0 -184 -145 -298t-366 -114h-460zM414 190h203q133 0 205.5 61.5t72.5 169.5q0 223 -309 223h-172v-454zM414 835h154q124 0 194.5 58.5t70.5 165.5 q0 184 -246 184h-173v-408z" />
<glyph unicode="C" horiz-adv-x="1272" d="M86 690q0 344 211.5 556t534.5 212q208 0 345 -59v-236q-145 86 -320 86q-233 0 -377.5 -149t-144.5 -398q0 -237 135 -377.5t355 -140.5q203 0 352 96v-220q-162 -84 -403 -84q-312 0 -500 197t-188 517z" />
<glyph unicode="D" horiz-adv-x="1469" d="M177 0v1434h414q793 0 793 -699q0 -332 -220 -533.5t-590 -201.5h-397zM414 201h190q251 0 390.5 138t139.5 390q0 503 -521 503h-199v-1031z" />
<glyph unicode="E" horiz-adv-x="1060" d="M177 0v1434h773v-202h-535v-406h493v-201h-493v-424h567v-201h-805z" />
<glyph unicode="F" horiz-adv-x="1029" d="M177 0v1434h774v-202h-536v-431h494v-201h-494v-600h-238z" />
<glyph unicode="G" horiz-adv-x="1428" d="M85 698q0 333 215.5 546.5t547.5 213.5q239 0 402 -70v-245q-165 110 -393 110q-229 0 -375.5 -151t-146.5 -391q0 -247 126 -388.5t342 -141.5q148 0 256 57v341h-302v200h539v-681q-224 -122 -499 -122q-318 0 -515 198t-197 524z" />
<glyph unicode="H" horiz-adv-x="1506" d="M177 0v1434h238v-603h675v603h239v-1434h-239v622h-675v-622h-238z" />
<glyph unicode="I" horiz-adv-x="592" d="M46 0v192h131v1050h-131v192h500v-192h-131v-1050h131v-192h-500z" />
<glyph unicode="J" horiz-adv-x="812" d="M25 -1v224q57 -39 147 -39q238 0 238 368v882h238v-920q0 -255 -126 -396.5t-336 -141.5q-98 0 -161 23z" />
<glyph unicode="K" horiz-adv-x="1251" d="M177 0v1434h238v-674h4q12 22 34 49l481 625h285l-563 -688l606 -746h-310l-499 656q-28 37 -34 50h-4v-706h-238z" />
<glyph unicode="L" horiz-adv-x="1001" d="M177 0v1434h238v-1233h556v-201h-794z" />
<glyph unicode="M" horiz-adv-x="1893" d="M177 0v1434h335l377 -955q43 -110 56 -164h5q37 113 60 168l384 951h323v-1434h-236v928q0 114 14 279h-4q-22 -94 -39 -135l-428 -1072h-164l-429 1064q-18 47 -38 143h-4q8 -86 8 -281v-926h-220z" />
<glyph unicode="N" horiz-adv-x="1571" d="M177 0v1434h277l662 -1029q42 -64 54 -88h4q-10 57 -10 193v924h229v-1434h-260l-685 1054q-26 40 -43 83h-6q8 -46 8 -197v-940h-230z" />
<glyph unicode="O" d="M85 700q0 346 190 552t516 206q302 0 486.5 -200t184.5 -523q0 -351 -189 -555t-505 -204q-310 0 -496.5 201t-186.5 523zM335 715q0 -239 120 -385t314 -146q206 0 325 139t119 389q0 257 -115.5 397t-318.5 140q-197 0 -320.5 -147t-123.5 -387z" />
<glyph unicode="P" horiz-adv-x="1197" d="M177 0v1434h435q247 0 383 -115t136 -324t-142 -342t-384 -133h-191v-520h-237zM414 714h154q153 0 233 71t80 200q0 253 -294 253h-173v-524z" />
<glyph unicode="Q" d="M85 704q0 346 189 551q191 206 522 206q297 0 482 -200t185 -523q0 -134 -29 -253t-87.5 -215t-147 -162.5t-210.5 -95.5q53 -51 99.5 -90t92.5 -65.5t96 -40.5t110 -14q16 0 35 1.5t38 5t36.5 8t32.5 10.5v-212q-17 -6 -39 -10t-44 -7t-43.5 -4.5t-40.5 -1.5 q-104 0 -186.5 30t-154.5 82.5t-139 122.5t-141 150q-63 0 -128.5 12.5t-127 38t-117.5 63.5t-102 88q-181 201 -181 525zM334 715q0 -238 120 -386q121 -145 314 -145q207 0 326 139t119 389q0 258 -116 397q-115 140 -318 140q-198 0 -322 -147q-123 -147 -123 -387z" />
<glyph unicode="R" horiz-adv-x="1275" d="M177 0v1434h472q101 0 186 -24t148 -72.5t98.5 -121t35.5 -169.5q0 -76 -22.5 -139.5t-64 -113t-100 -84.5t-131.5 -54v-4q39 -22 68 -48.5t55 -54.5t51.5 -63.5t56.5 -82.5l255 -403h-278l-229 384q-31 53 -60.5 90.5t-60 61.5t-66.5 35t-81 11h-96v-582h-237zM414 775 h198q55 0 101.5 17t80.5 49t53 78t19 103q0 103 -65 161t-187 58h-200v-466z" />
<glyph unicode="S" horiz-adv-x="1115" d="M110 1064q0 101 45.5 175.5t120 123t169.5 72t194 23.5q225 0 328 -51v-235q-122 88 -314 88q-53 0 -105.5 -10t-94 -33t-67.5 -59t-26 -87q0 -48 20 -83t58.5 -64t94 -56.5t128.5 -59.5q75 -39 141.5 -82t117 -95t80 -115.5t29.5 -144.5q0 -109 -44 -184t-118.5 -122 t-171.5 -68t-205 -21q-36 0 -88.5 5.5t-107.5 16t-104 25.5t-79 34v245q33 -30 78.5 -54t96.5 -40.5t102 -25.5t94 -9q150 0 223.5 50t73.5 145q0 51 -24.5 88.5t-68.5 68.5t-103.5 59.5t-127.5 59.5q-73 39 -136 79t-109.5 88.5t-73 109.5t-26.5 143z" />
<glyph unicode="T" horiz-adv-x="1130" d="M36 1232v202h1061v-202h-412v-1232h-238v1232h-411z" />
<glyph unicode="U" horiz-adv-x="1440" d="M160 557v877h238v-828q0 -422 328 -422q316 0 316 407v843h238v-854q0 -604 -572 -604q-548 0 -548 581z" />
<glyph unicode="V" horiz-adv-x="1314" d="M14 1434h260l354 -1088q17 -52 26 -121h4q7 57 29 123l362 1086h252l-515 -1434h-266z" />
<glyph unicode="W" horiz-adv-x="1978" d="M22 1434h261l260 -1050q16 -66 20 -138h5q4 51 28 138l294 1050h245l272 -1058q14 -54 21 -128h4q3 50 23 132l255 1054h246l-393 -1434h-269l-273 1003q-17 64 -21 140h-4q-5 -71 -24 -138l-274 -1005h-275z" />
<glyph unicode="X" horiz-adv-x="1268" d="M17 0l470 721l-432 713h291l259 -484q25 -48 45 -96h3q29 63 50 100l269 480h268l-442 -711l451 -723h-285l-294 526q-13 24 -29 68h-4q-9 -22 -30 -68l-303 -526h-287z" />
<glyph unicode="Y" horiz-adv-x="1182" d="M10 1434h271l282 -615q5 -11 30 -83h3q9 32 33 83l295 615h252l-470 -913v-521h-238v516z" />
<glyph unicode="Z" horiz-adv-x="1202" d="M36 0v109l789 1123h-728v202h1058v-104l-786 -1129h776v-201h-1109z" />
<glyph unicode="[" horiz-adv-x="680" d="M208 -326v1760h413v-156h-216v-1448h216v-156h-413z" />
<glyph unicode="\" horiz-adv-x="829" d="M-13 1434h210l672 -1674h-206z" />
<glyph unicode="]" horiz-adv-x="680" d="M61 -170h216v1448h-216v156h413v-1760h-413v156z" />
<glyph unicode="^" horiz-adv-x="1422" d="M218 618l425 840h109l456 -840h-192l-312 604h-6l-291 -604h-189z" />
<glyph unicode="_" horiz-adv-x="850" d="M0 -178h850v-119h-850v119z" />
<glyph unicode="`" horiz-adv-x="591" d="M92 1532h214l221 -328h-173z" />
<glyph unicode="a" horiz-adv-x="1069" d="M75 275q0 290 334 338l304 43q0 219 -208 219q-183 0 -330 -126v203q162 96 374 96q388 0 388 -382v-666h-225v160h-4q-106 -184 -311 -184q-151 0 -236.5 82t-85.5 217zM297 300q0 -65 46.5 -106.5t124.5 -41.5q106 0 175.5 74.5t69.5 187.5v89l-215 -30 q-100 -13 -150.5 -48.5t-50.5 -124.5z" />
<glyph unicode="b" horiz-adv-x="1234" d="M151 0v1516h232v-672h4q119 204 348 204q194 0 303.5 -137.5t109.5 -368.5q0 -257 -123 -411.5t-336 -154.5q-200 0 -302 172h-4v-148h-232zM381 428q0 -112 71.5 -190t181.5 -78q129 0 202.5 100.5t73.5 280.5q0 151 -68.5 236.5t-185.5 85.5q-124 0 -199.5 -88 t-75.5 -220v-127z" />
<glyph unicode="c" horiz-adv-x="963" d="M85 488q0 253 150.5 406.5t402.5 153.5q140 0 247 -49v-216q-107 80 -228 80q-147 0 -241 -99.5t-94 -260.5q0 -159 88.5 -251t237.5 -92q125 0 236 89v-202q-123 -71 -291 -71q-228 0 -368 142.5t-140 369.5z" />
<glyph unicode="d" horiz-adv-x="1234" d="M85 488q0 254 125.5 407t334.5 153q207 0 301 -166h4v634h232v-1516h-232v174h-4q-112 -198 -345 -198q-189 0 -302.5 137.5t-113.5 374.5zM322 497q0 -156 71.5 -246.5t192.5 -90.5q119 0 193 87.5t74 220.5v134q0 109 -71 185t-181 76q-130 0 -204.5 -97t-74.5 -269z " />
<glyph unicode="e" horiz-adv-x="1088" d="M85 508q0 239 141.5 389.5t351.5 150.5t325 -135t115 -375v-89h-698q4 -142 87.5 -219t229.5 -77q164 0 301 98v-187q-140 -88 -370 -88q-226 0 -354.5 139.5t-128.5 392.5zM320 613h474q-1 125 -59 194.5t-160 69.5q-100 0 -169.5 -73t-85.5 -191z" />
<glyph unicode="f" horiz-adv-x="706" d="M48 842v182h175v166q0 162 106 255.5t265 93.5q86 0 136 -19v-193q-47 27 -107 27q-169 0 -169 -191v-139h238v-182h-237v-842h-232v842h-175z" />
<glyph unicode="g" horiz-adv-x="1234" d="M85 479q0 261 123 415t338 154q203 0 301 -166h4v142h232v-942q0 -564 -567 -564q-200 0 -349 67v212q168 -96 319 -96q365 0 365 359v112h-4q-115 -196 -346 -196q-187 0 -301.5 136.5t-114.5 366.5zM322 493q0 -151 71.5 -241.5t189.5 -90.5q120 0 195 86.5t75 221.5 v133q0 108 -71.5 184.5t-178.5 76.5q-132 0 -206.5 -97.5t-74.5 -272.5z" />
<glyph unicode="h" horiz-adv-x="1192" d="M151 0v1516h233v-662h4q116 194 332 194q341 0 341 -417v-631h-232v560q0 304 -203 304q-102 0 -172 -88t-70 -225v-551h-233z" />
<glyph unicode="i" horiz-adv-x="535" d="M130 1370q0 57 40.5 95t97.5 38q59 0 100 -38t41 -95q0 -54 -41 -92.5t-100 -38.5q-57 0 -97.5 37t-40.5 94zM151 0v1024h232v-1024h-232z" />
<glyph unicode="j" horiz-adv-x="535" d="M-168 -251q65 -45 123 -45q196 0 196 346v974h232v-981q0 -252 -106 -388.5t-303 -136.5q-73 0 -142 32v199zM131 1370q0 57 40.5 95t97.5 38q58 0 99 -38t41 -95q0 -54 -41 -92.5t-99 -38.5q-57 0 -97.5 37t-40.5 94z" />
<glyph unicode="k" horiz-adv-x="1075" d="M151 0v1516h233v-961h4l376 469h279l-423 -494l460 -530h-294l-398 492h-4v-492h-233z" />
<glyph unicode="l" horiz-adv-x="535" d="M151 0v1516h233v-1516h-233z" />
<glyph unicode="m" horiz-adv-x="1814" d="M151 0v1024h232v-162h4q111 186 323 186q106 0 185.5 -58.5t108.5 -153.5q114 212 340 212q338 0 338 -417v-631h-232v558q0 161 -45.5 233t-153.5 72q-91 0 -154.5 -91t-63.5 -218v-554h-233v577q0 286 -202 286q-94 0 -154.5 -86t-60.5 -223v-554h-232z" />
<glyph unicode="n" horiz-adv-x="1195" d="M151 0v1024h233v-170h4q115 194 332 194q167 0 255 -108.5t88 -313.5v-626h-232v577q0 287 -203 287q-106 0 -175 -79.5t-69 -200.5v-584h-233z" />
<glyph unicode="o" horiz-adv-x="1223" d="M85 500q0 258 147.5 403t397.5 145q240 0 374 -141t134 -391q0 -245 -144.5 -392.5t-388.5 -147.5q-237 0 -378.5 143.5t-141.5 380.5zM322 506q0 -161 80 -253.5t214 -92.5q137 0 210.5 91t73.5 259q0 169 -73.5 261t-210.5 92q-136 0 -215 -95t-79 -262z" />
<glyph unicode="p" horiz-adv-x="1234" d="M151 -471v1495h232v-180h4q119 204 348 204q195 0 304 -137t109 -368q0 -256 -123 -410t-336 -154q-196 0 -302 172h-4v-622h-232zM381 428q0 -112 71.5 -190t181.5 -78q129 0 202.5 100.5t73.5 280.5q0 151 -68.5 236.5t-185.5 85.5q-124 0 -199.5 -88t-75.5 -220v-127z " />
<glyph unicode="q" horiz-adv-x="1234" d="M85 488q0 255 125.5 407.5t337.5 152.5q206 0 298 -166h4v142h232v-1495h-232v647h-4q-105 -200 -343 -200q-189 0 -303.5 137.5t-114.5 374.5zM322 494q0 -156 72 -245t186 -89q125 0 199 87t74 219v132q0 111 -71.5 188t-181.5 77q-129 0 -203.5 -96.5t-74.5 -272.5z " />
<glyph unicode="r" horiz-adv-x="758" d="M151 0v1024h232v-211h4q34 108 104.5 168.5t157.5 60.5q63 0 96 -19v-220q-42 33 -121 33q-103 0 -172 -93t-69 -253v-490h-232z" />
<glyph unicode="s" horiz-adv-x="883" d="M87 32v215q130 -99 287 -99q210 0 210 124q0 35 -18 59.5t-48.5 43.5t-72 34t-92.5 34q-63 25 -113.5 53t-84 63.5t-50.5 80.5t-17 105q0 74 35 130.5t94 95t134 58t155 19.5q142 0 254 -43v-203q-108 74 -248 74q-44 0 -79.5 -9t-60.5 -25t-39 -38.5t-14 -49.5 q0 -33 14 -56t41.5 -40.5t66 -32t88.5 -31.5q66 -27 118.5 -55t89.5 -63.5t57 -82t20 -110.5q0 -78 -36 -136t-96 -96t-138.5 -56.5t-165.5 -18.5q-168 0 -291 56z" />
<glyph unicode="t" horiz-adv-x="740" d="M43 842v182h171v237l232 66v-303h245v-182h-245v-512q0 -91 33 -130t110 -39q59 0 102 34v-184q-68 -34 -179 -34q-298 0 -298 286v579h-171z" />
<glyph unicode="u" horiz-adv-x="1195" d="M131 412v612h232v-588q0 -276 213 -276q103 0 169.5 76t66.5 199v589h232v-1024h-232v162h-4q-101 -186 -314 -186q-363 0 -363 436z" />
<glyph unicode="v" horiz-adv-x="1039" d="M9 1024h252l227 -716q26 -79 32 -138h3q9 74 28 134l238 720h244l-396 -1024h-251z" />
<glyph unicode="w" horiz-adv-x="1549" d="M20 1024h240l186 -738q9 -33 12 -88h7q3 42 16 90l207 736h218l184 -741q9 -35 13 -88h7q2 37 15 88l182 741h221l-302 -1024h-243l-186 694q-11 40 -14 90h-4q-2 -34 -18 -88l-202 -696h-238z" />
<glyph unicode="x" horiz-adv-x="1026" d="M17 0l348 502l-330 522h270l177 -333q20 -37 39 -76h3l229 409h254l-341 -518l337 -506h-269l-180 317q-17 29 -40 74h-4q-4 -9 -42 -74l-183 -317h-268z" />
<glyph unicode="y" horiz-adv-x="1041" d="M6 1024h257l244 -744q4 -14 18 -74h5q5 23 18 72l256 746h234l-462 -1188q-144 -318 -404 -318q-73 0 -122 13v193q55 -18 100 -18q130 0 194 128l69 168z" />
<glyph unicode="z" horiz-adv-x="951" d="M29 0v87l565 756h-511v181h824v-97l-553 -746h551v-181h-876z" />
<glyph unicode="{" horiz-adv-x="680" d="M96 481v146q156 10 156 212v287q0 304 356 308v-155q-159 -4 -159 -191v-282q0 -202 -199 -249v-3q199 -44 199 -247v-279q0 -107 35.5 -152.5t123.5 -47.5v-154q-356 4 -356 304v295q0 198 -156 208z" />
<glyph unicode="|" horiz-adv-x="570" d="M189 -482v2048h194v-2048h-194z" />
<glyph unicode="}" horiz-adv-x="680" d="M74 -172q87 2 123.5 48t36.5 152v279q0 203 197 247v3q-197 47 -197 249v282q0 187 -160 191v155q354 -4 354 -308v-287q0 -202 155 -212v-146q-155 -10 -155 -208v-295q0 -300 -354 -304v154z" />
<glyph unicode="~" horiz-adv-x="1422" d="M203 421q5 155 79.5 245t201.5 90q113 0 236 -76q132 -91 197 -91q61 0 98 47t39 123h166q-7 -159 -80.5 -246.5t-199.5 -87.5q-109 0 -266 98q-97 67 -159 67q-140 0 -146 -169h-166z" />
<glyph unicode="&#xa1;" horiz-adv-x="622" d="M167 912q0 56 42.5 95.5t102.5 39.5q58 0 100 -39.5t42 -95.5t-42.5 -95t-100.5 -39q-60 0 -102 39t-42 95zM191 -406l27 1011h189l28 -1011h-244z" />
<glyph unicode="&#xa2;" horiz-adv-x="1137" d="M177 649q0 219 123 366.5t331 184.5v214h141v-203q113 -2 203 -52v-213q-93 67 -203 74v-690q112 12 203 86v-208q-88 -58 -203 -68v-189h-141v191q-208 22 -331 161t-123 346zM403 669q0 -132 61 -219t167 -111v670q-107 -27 -167.5 -117.5t-60.5 -222.5z" />
<glyph unicode="&#xa3;" horiz-adv-x="1137" d="M123 0v176q206 62 206 281v168h-185v175h185v245q0 181 115.5 297t299.5 116q124 0 226 -41v-201q-95 57 -201 57q-218 0 -218 -267v-206h284v-175h-284v-138q0 -215 -193 -301h697v-186h-932z" />
<glyph unicode="&#xa4;" horiz-adv-x="1138" d="M78 356l140 136q-72 111 -72 233q0 127 72 233l-140 138l114 118l141 -139q109 72 237 72t235 -72l141 139l114 -118l-139 -138q74 -110 74 -233q0 -119 -74 -233l139 -136l-114 -118l-140 139q-104 -71 -236 -71q-137 0 -241 68l-137 -136zM311 727q0 -106 76 -182 t183 -76q106 0 183 76t77 182t-78 182t-182 76q-109 0 -184 -76t-75 -182z" />
<glyph unicode="&#xa5;" horiz-adv-x="1137" d="M55 1434h250l231 -494q26 -56 43 -107h4q12 40 45 113l229 488h236l-355 -650h270v-161h-321v-183h321v-161h-321v-279h-228v279h-331v161h331v183h-331v161h275z" />
<glyph unicode="&#xa6;" horiz-adv-x="570" d="M189 390h194v-872h-194v872zM189 701v865h194v-865h-194z" />
<glyph unicode="&#xa7;" horiz-adv-x="952" d="M131 729q0 161 145 241q-106 84 -106 226q0 129 99.5 212t261.5 83q138 0 233 -43v-191q-100 62 -221 62q-166 0 -166 -128q0 -48 41 -88t206 -109q225 -107 225 -294q0 -170 -152 -276q90 -75 90 -189q0 -134 -107 -217.5t-273 -83.5q-140 0 -255 56v196 q132 -79 253 -79q85 0 131.5 35.5t46.5 90.5q0 47 -35.5 80t-181.5 103q-235 120 -235 313zM328 743q0 -64 53 -112t185 -104q83 60 83 152q0 64 -49.5 109t-176.5 96q-95 -45 -95 -141z" />
<glyph unicode="&#xa8;" horiz-adv-x="892" d="M107 1320q0 49 35.5 82t86.5 33t88.5 -33.5t37.5 -81.5q0 -49 -36 -83t-86 -34q-52 0 -89 34.5t-37 82.5zM526 1320q0 49 35 82t85 33q53 0 89.5 -33.5t36.5 -81.5q0 -49 -35 -83t-88 -34q-50 0 -86.5 33t-36.5 84z" />
<glyph unicode="&#xa9;" horiz-adv-x="1808" d="M148 717q0 309 221.5 527.5t535.5 218.5q313 0 534.5 -218.5t221.5 -527.5t-221.5 -527.5t-534.5 -218.5q-314 0 -535.5 218.5t-221.5 527.5zM256 717q0 -268 190 -457.5t459 -189.5t458.5 189.5t189.5 457.5t-189.5 457.5t-458.5 189.5t-459 -189.5t-190 -457.5z M450 693q0 241 143.5 384.5t373.5 143.5q132 0 235 -51v-190q-88 72 -234 72q-144 0 -237.5 -93t-93.5 -249q0 -152 95.5 -244t242.5 -92q135 0 231 78v-177q-113 -65 -268 -65q-207 0 -347.5 138t-140.5 345z" />
<glyph unicode="&#xaa;" horiz-adv-x="820" d="M77 912q0 204 243 237l224 31q0 143 -145 143q-134 0 -251 -82v150q115 64 276 64q135 0 211 -71.5t76 -201.5v-465h-167v100h-4q-77 -120 -225 -120q-107 0 -172.5 60.5t-65.5 154.5zM245 928q0 -46 34 -74.5t91 -28.5q69 0 121.5 53.5t52.5 128.5v59l-155 -22 q-144 -20 -144 -116z" />
<glyph unicode="&#xab;" horiz-adv-x="1105" d="M74 536l313 344h211l-317 -344l318 -336h-212zM507 536l311 344h214l-318 -344l318 -336h-214z" />
<glyph unicode="&#xac;" horiz-adv-x="1422" d="M235 671v164h955v-576h-164v412h-791z" />
<glyph unicode="&#xad;" horiz-adv-x="823" d="M144 474v171h546v-171h-546z" />
<glyph unicode="&#xae;" horiz-adv-x="1808" d="M148 717q0 309 221.5 527.5t535.5 218.5q313 0 534.5 -218.5t221.5 -527.5t-221.5 -527.5t-534.5 -218.5q-314 0 -535.5 218.5t-221.5 527.5zM256 717q0 -268 190 -457.5t459 -189.5t458.5 189.5t189.5 457.5t-189.5 457.5t-458.5 189.5t-459 -189.5t-190 -457.5z M594 255v940h282q176 0 271.5 -69t95.5 -187q0 -97 -58.5 -165t-172.5 -91v-4q79 -17 157 -174l124 -250h-210l-92 217q-70 163 -151 163h-78v-380h-168zM762 770h126q173 0 173 142q0 77 -46.5 109t-147.5 32h-105v-283z" />
<glyph unicode="&#xaf;" horiz-adv-x="850" d="M0 1396v120h850v-120h-850z" />
<glyph unicode="&#xb0;" horiz-adv-x="775" d="M111 1178q0 116 81 196t197 80q118 0 200.5 -80.5t82.5 -195.5q0 -118 -82 -200t-198 -82q-117 0 -199 82t-82 200zM247 1177q0 -61 41.5 -104.5t101.5 -43.5q59 0 102.5 44t43.5 104q0 61 -42.5 102.5t-101.5 41.5q-60 0 -102.5 -42t-42.5 -102z" />
<glyph unicode="&#xb1;" horiz-adv-x="1422" d="M235 0v164h954v-164h-954zM236 671v164h396v398h163v-398h395v-164h-395v-396h-163v396h-396z" />
<glyph unicode="&#xb2;" horiz-adv-x="785" d="M109 884v133l230 220q99 95 126 146t27 102t-33.5 83t-88.5 32q-117 0 -214 -102v179q87 77 242 77q126 0 199.5 -68.5t73.5 -180.5q0 -143 -193 -325l-155 -145v-4h363v-147h-577z" />
<glyph unicode="&#xb3;" horiz-adv-x="785" d="M130 916v160q104 -73 219 -73q75 0 118.5 33t43.5 89q0 124 -215 124h-82v140h78q192 0 192 117q0 106 -132 106q-97 0 -192 -67v155q92 54 225 54q122 0 194 -60.5t72 -157.5q0 -147 -144 -200v-4q174 -42 174 -200q0 -119 -90 -194t-241 -75q-140 0 -220 53z" />
<glyph unicode="&#xb4;" horiz-adv-x="597" d="M110 1218l242 328h216l-286 -328h-172z" />
<glyph unicode="&#xb5;" horiz-adv-x="1215" d="M151 -395v1419h232v-610q0 -112 59 -178.5t154 -66.5q103 0 167.5 78t64.5 210v567h235v-759q0 -188 35 -265h-239q-23 69 -23 161h-5q-73 -184 -244 -184q-141 0 -201 96h-3v-468h-232z" />
<glyph unicode="&#xb6;" horiz-adv-x="985" d="M84 1156q0 123 79.5 200.5t193.5 77.5h527v-130h-123v-1304h-136v1304h-140v-1304h-139v874q-113 0 -187.5 80t-74.5 202z" />
<glyph unicode="&#xb7;" horiz-adv-x="494" d="M103 635q0 57 42.5 96.5t102.5 39.5t102.5 -39.5t42.5 -96.5q0 -56 -43 -96t-105 -40q-59 0 -100.5 40t-41.5 96z" />
<glyph unicode="&#xb8;" horiz-adv-x="429" d="M51 -328q44 -6 71 -6q133 0 133 82q0 74 -121 74q-10 0 -39 -4v182h136v-94q87 0 138 -40.5t51 -113.5q0 -194 -288 -194q-47 0 -81 3v111z" />
<glyph unicode="&#xb9;" horiz-adv-x="759" d="M134 1516v149l361 90v-732h181v-139h-531v139h181v541z" />
<glyph unicode="&#xba;" horiz-adv-x="905" d="M74 1073q0 179 106 280t281 101q170 0 268.5 -99t98.5 -270q0 -178 -103.5 -283.5t-278.5 -105.5q-174 0 -273 101.5t-99 275.5zM253 1073q0 -111 51.5 -174t147.5 -63q91 0 144.5 65t53.5 176t-52.5 174.5t-144.5 63.5t-146 -64.5t-54 -177.5z" />
<glyph unicode="&#xbb;" horiz-adv-x="1105" d="M74 200l320 338l-320 342h214l312 -342l-312 -338h-214zM509 200l315 338l-315 342h211l313 -342l-313 -338h-211z" />
<glyph unicode="&#xbc;" horiz-adv-x="1898" d="M115 1216v149l361 90v-732h181v-139h-531v139h181v541zM383 0l873 1434h191l-875 -1434h-189zM1096 192v114l361 545h202v-529h110v-130h-110v-191h-169v191h-394zM1255 322h235v300q0 30 4 82h-5q-12 -31 -39 -74z" />
<glyph unicode="&#xbd;" horiz-adv-x="1938" d="M115 1216v149l361 90v-732h181v-139h-531v139h181v541zM381 0l873 1434h191l-875 -1434h-189zM1213 1v133l230 220q99 95 126 146t27 102t-33.5 83t-88.5 32q-117 0 -214 -102v179q87 77 242 77q126 0 199.5 -68.5t73.5 -180.5q0 -143 -193 -325l-155 -145v-4h363v-147 h-577z" />
<glyph unicode="&#xbe;" horiz-adv-x="1975" d="M130 616v160q104 -73 219 -73q75 0 118.5 33t43.5 89q0 124 -215 124h-82v140h78q192 0 192 117q0 106 -132 106q-97 0 -192 -67v155q92 54 225 54q122 0 194 -60.5t72 -157.5q0 -147 -144 -200v-4q174 -42 174 -200q0 -119 -90 -194t-241 -75q-140 0 -220 53zM447 0 l873 1434h191l-875 -1434h-189zM1152 192v114l361 545h202v-529h110v-130h-110v-191h-169v191h-394zM1311 322h235v300q0 30 4 82h-5q-12 -31 -39 -74z" />
<glyph unicode="&#xbf;" horiz-adv-x="909" d="M102 -94q0 73 26 130.5t65.5 106t85.5 90t85.5 82.5t65.5 85.5t26 98.5q0 38 -9.5 69t-18.5 53h206q9 -25 16 -64t7 -78q0 -60 -24 -109t-60 -91.5t-78 -81.5t-78 -79t-60 -84t-24 -97q0 -42 16 -74.5t43 -54.5t63 -33t76 -11q176 0 306 132v-232q-161 -94 -334 -94 q-83 0 -155.5 21.5t-127 63.5t-86.5 105t-32 146zM376 912q0 58 43 96q43 39 100 39t102 -39q43 -38 43 -96q0 -56 -43 -95q-43 -40 -102 -40q-58 0 -100 40q-43 39 -43 95z" />
<glyph unicode="&#xc0;" horiz-adv-x="1375" d="M17 0l537 1434h268l533 -1434h-261l-129 365h-564l-124 -365h-260zM393 1894h214l221 -328h-173zM463 559h439l-199 572q-9 28 -19 90h-4q-9 -57 -20 -90z" />
<glyph unicode="&#xc1;" horiz-adv-x="1375" d="M17 0l537 1434h268l533 -1434h-261l-129 365h-564l-124 -365h-260zM463 559h439l-199 572q-9 28 -19 90h-4q-9 -57 -20 -90zM496 1580l242 328h216l-286 -328h-172z" />
<glyph unicode="&#xc2;" horiz-adv-x="1375" d="M17 0l537 1434h268l533 -1434h-261l-129 365h-564l-124 -365h-260zM361 1566l224 328h184l225 -328h-160l-161 211l-157 -211h-155zM463 559h439l-199 572q-9 28 -19 90h-4q-9 -57 -20 -90z" />
<glyph unicode="&#xc3;" horiz-adv-x="1375" d="M17 0l537 1434h268l533 -1434h-261l-129 365h-564l-124 -365h-260zM345 1555q0 119 51 190.5t143 71.5q68 0 157 -51q72 -44 125 -44q81 0 81 114h119q0 -116 -51.5 -189.5t-139.5 -73.5q-72 0 -165 48q-78 45 -121 45q-84 0 -84 -111h-115zM463 559h439l-199 572 q-9 28 -19 90h-4q-9 -57 -20 -90z" />
<glyph unicode="&#xc4;" horiz-adv-x="1375" d="M17 0l537 1434h268l533 -1434h-261l-129 365h-564l-124 -365h-260zM344 1682q0 49 35.5 82t86.5 33t88.5 -33.5t37.5 -81.5q0 -49 -36 -83t-86 -34q-52 0 -89 34.5t-37 82.5zM463 559h439l-199 572q-9 28 -19 90h-4q-9 -57 -20 -90zM763 1682q0 49 35 82t85 33 q53 0 89.5 -33.5t36.5 -81.5q0 -49 -35 -83t-88 -34q-50 0 -86.5 33t-36.5 84z" />
<glyph unicode="&#xc5;" horiz-adv-x="1375" d="M17 0l537 1434h268l533 -1434h-261l-129 365h-564l-124 -365h-260zM462 1529q0 98 63 156t161 58q96 0 157.5 -58.5t61.5 -149.5q0 -87 -65.5 -144.5t-160.5 -57.5q-94 0 -155.5 54t-61.5 142zM463 559h439l-199 572q-9 28 -19 90h-4q-9 -57 -20 -90zM575 1539 q0 -104 104 -104q48 0 79.5 29.5t31.5 74.5t-31.5 74.5t-79.5 29.5q-45 0 -74.5 -30t-29.5 -74z" />
<glyph unicode="&#xc6;" horiz-adv-x="1831" d="M6 0l710 1434h1000v-202h-534v-406h497v-201h-497v-424h567v-201h-804v365h-492l-172 -365h-275zM541 559h404v673h-87z" />
<glyph unicode="&#xc7;" horiz-adv-x="1272" d="M86 690q0 344 211.5 556t534.5 212q208 0 345 -59v-236q-145 86 -320 86q-233 0 -377.5 -149t-144.5 -398q0 -237 135 -377.5t355 -140.5q203 0 352 96v-220q-162 -84 -403 -84q-312 0 -500 197t-188 517zM615 -328q44 -6 71 -6q133 0 133 82q0 74 -121 74q-10 0 -39 -4 v182h136v-94q87 0 138 -40.5t51 -113.5q0 -194 -288 -194q-47 0 -81 3v111z" />
<glyph unicode="&#xc8;" horiz-adv-x="1060" d="M177 0v1434h773v-202h-535v-406h493v-201h-493v-424h567v-201h-805zM296 1894h214l221 -328h-173z" />
<glyph unicode="&#xc9;" horiz-adv-x="1060" d="M177 0v1434h773v-202h-535v-406h493v-201h-493v-424h567v-201h-805zM415 1580l242 328h216l-286 -328h-172z" />
<glyph unicode="&#xca;" horiz-adv-x="1060" d="M177 0v1434h773v-202h-535v-406h493v-201h-493v-424h567v-201h-805zM240 1567l224 328h184l225 -328h-160l-161 211l-157 -211h-155z" />
<glyph unicode="&#xcb;" horiz-adv-x="1060" d="M177 0v1434h773v-202h-535v-406h493v-201h-493v-424h567v-201h-805zM234 1682q0 49 35.5 82t86.5 33t88.5 -33.5t37.5 -81.5q0 -49 -36 -83t-86 -34q-52 0 -89 34.5t-37 82.5zM653 1682q0 49 35 82t85 33q53 0 89.5 -33.5t36.5 -81.5q0 -49 -35 -83t-88 -34 q-50 0 -86.5 33t-36.5 84z" />
<glyph unicode="&#xcc;" horiz-adv-x="592" d="M34 1894h214l221 -328h-173zM46 0v192h131v1050h-131v192h500v-192h-131v-1050h131v-192h-500z" />
<glyph unicode="&#xcd;" horiz-adv-x="592" d="M46 0v192h131v1050h-131v192h500v-192h-131v-1050h131v-192h-500zM126 1580l242 328h216l-286 -328h-172z" />
<glyph unicode="&#xce;" horiz-adv-x="592" d="M-13 1567l224 328h184l225 -328h-160l-161 211l-157 -211h-155zM46 0v192h131v1050h-131v192h500v-192h-131v-1050h131v-192h-500z" />
<glyph unicode="&#xcf;" horiz-adv-x="592" d="M-31 1682q0 49 35.5 82t86.5 33t88.5 -33.5t37.5 -81.5q0 -49 -36 -83t-86 -34q-52 0 -89 34.5t-37 82.5zM46 0v192h131v1050h-131v192h500v-192h-131v-1050h131v-192h-500zM388 1682q0 49 35 82t85 33q53 0 89.5 -33.5t36.5 -81.5q0 -49 -35 -83t-88 -34q-50 0 -86.5 33 t-36.5 84z" />
<glyph unicode="&#xd0;" horiz-adv-x="1469" d="M15 616v205h162v613h414q793 0 793 -699q0 -334 -220 -534.5t-590 -200.5h-397v616h-162zM414 201h190q251 0 390.5 138t139.5 392q0 501 -521 501h-199v-411h307v-205h-307v-415z" />
<glyph unicode="&#xd1;" horiz-adv-x="1571" d="M177 0v1434h277l662 -1029q42 -64 54 -88h4q-10 57 -10 193v924h229v-1434h-260l-685 1054q-26 40 -43 83h-6q8 -46 8 -197v-940h-230zM478 1555q0 119 51 190.5t143 71.5q68 0 157 -51q72 -44 125 -44q81 0 81 114h119q0 -116 -51.5 -189.5t-139.5 -73.5q-72 0 -165 48 q-78 45 -121 45q-84 0 -84 -111h-115z" />
<glyph unicode="&#xd2;" d="M85 700q0 346 190 552t516 206q302 0 486.5 -200t184.5 -523q0 -351 -189 -555t-505 -204q-310 0 -496.5 201t-186.5 523zM335 715q0 -239 120 -385t314 -146q206 0 325 139t119 389q0 257 -115.5 397t-318.5 140q-197 0 -320.5 -147t-123.5 -387zM485 1894h214l221 -328 h-173z" />
<glyph unicode="&#xd3;" d="M85 700q0 346 190 552t516 206q302 0 486.5 -200t184.5 -523q0 -351 -189 -555t-505 -204q-310 0 -496.5 201t-186.5 523zM335 715q0 -239 120 -385t314 -146q206 0 325 139t119 389q0 257 -115.5 397t-318.5 140q-197 0 -320.5 -147t-123.5 -387zM618 1580l242 328h216 l-286 -328h-172z" />
<glyph unicode="&#xd4;" d="M85 700q0 346 190 552t516 206q302 0 486.5 -200t184.5 -523q0 -351 -189 -555t-505 -204q-310 0 -496.5 201t-186.5 523zM335 715q0 -239 120 -385t314 -146q206 0 325 139t119 389q0 257 -115.5 397t-318.5 140q-197 0 -320.5 -147t-123.5 -387zM468 1566l224 328h184 l225 -328h-160l-161 211l-157 -211h-155z" />
<glyph unicode="&#xd5;" d="M85 700q0 346 190 552t516 206q302 0 486.5 -200t184.5 -523q0 -351 -189 -555t-505 -204q-310 0 -496.5 201t-186.5 523zM335 715q0 -239 120 -385t314 -146q206 0 325 139t119 389q0 257 -115.5 397t-318.5 140q-197 0 -320.5 -147t-123.5 -387zM446 1554 q0 119 51 190.5t143 71.5q68 0 157 -51q72 -44 125 -44q81 0 81 114h119q0 -116 -51.5 -189.5t-139.5 -73.5q-72 0 -165 48q-78 45 -121 45q-84 0 -84 -111h-115z" />
<glyph unicode="&#xd6;" d="M85 700q0 346 190 552t516 206q302 0 486.5 -200t184.5 -523q0 -351 -189 -555t-505 -204q-310 0 -496.5 201t-186.5 523zM335 715q0 -239 120 -385t314 -146q206 0 325 139t119 389q0 257 -115.5 397t-318.5 140q-197 0 -320.5 -147t-123.5 -387zM441 1681q0 49 35.5 82 t86.5 33t88.5 -33.5t37.5 -81.5q0 -49 -36 -83t-86 -34q-52 0 -89 34.5t-37 82.5zM860 1681q0 49 35 82t85 33q53 0 89.5 -33.5t36.5 -81.5q0 -49 -35 -83t-88 -34q-50 0 -86.5 33t-36.5 84z" />
<glyph unicode="&#xd7;" horiz-adv-x="1422" d="M256 254l340 337l-340 340l115 117l341 -340l341 340l114 -119l-339 -338l340 -338l-116 -116l-340 340l-339 -340z" />
<glyph unicode="&#xd8;" d="M85 700q0 343 189.5 550.5t517.5 207.5q233 0 401 -125l132 157l99 -81l-137 -162q176 -194 176 -512q0 -351 -189 -555t-506 -204q-261 0 -433 145l-148 -177l-99 83l154 184q-157 193 -157 489zM324 715q0 -192 75 -321l658 777q-111 90 -276 90q-204 0 -330.5 -151.5 t-126.5 -394.5zM477 289q114 -117 291 -117q212 0 334 142.5t122 397.5q0 222 -88 357z" />
<glyph unicode="&#xd9;" horiz-adv-x="1440" d="M160 557v877h238v-828q0 -422 328 -422q316 0 316 407v843h238v-854q0 -604 -572 -604q-548 0 -548 581zM435 1894h214l221 -328h-173z" />
<glyph unicode="&#xda;" horiz-adv-x="1440" d="M160 557v877h238v-828q0 -422 328 -422q316 0 316 407v843h238v-854q0 -604 -572 -604q-548 0 -548 581zM571 1580l242 328h216l-286 -328h-172z" />
<glyph unicode="&#xdb;" horiz-adv-x="1440" d="M160 557v877h238v-828q0 -422 328 -422q316 0 316 407v843h238v-854q0 -604 -572 -604q-548 0 -548 581zM404 1567l224 328h184l225 -328h-160l-161 211l-157 -211h-155z" />
<glyph unicode="&#xdc;" horiz-adv-x="1440" d="M160 557v877h238v-828q0 -422 328 -422q316 0 316 407v843h238v-854q0 -604 -572 -604q-548 0 -548 581zM385 1683q0 49 35.5 82t86.5 33t88.5 -33.5t37.5 -81.5q0 -49 -36 -83t-86 -34q-52 0 -89 34.5t-37 82.5zM804 1683q0 49 35 82t85 33q53 0 89.5 -33.5t36.5 -81.5 q0 -49 -35 -83t-88 -34q-50 0 -86.5 33t-36.5 84z" />
<glyph unicode="&#xdd;" horiz-adv-x="1182" d="M10 1434h271l282 -615q5 -11 30 -83h3q9 32 33 83l295 615h252l-470 -913v-521h-238v516zM450 1566l242 328h216l-286 -328h-172z" />
<glyph unicode="&#xde;" horiz-adv-x="1197" d="M177 0v1434h238v-219h207q245 0 377 -115t132 -326q0 -209 -143 -341t-385 -132h-188v-301h-238zM415 496h154q151 0 231.5 69t80.5 198q0 257 -294 257h-172v-524z" />
<glyph unicode="&#xdf;" horiz-adv-x="1191" d="M151 0v1084q0 206 123.5 330t332.5 124q186 0 297.5 -96t111.5 -253q0 -129 -73 -231t-190 -141v-5q371 -74 371 -422q0 -176 -119.5 -295t-316.5 -119q-107 0 -190 26v206q70 -48 158 -48q102 0 166 64.5t64 172.5q0 131 -95.5 213t-263.5 99v171q109 18 180 92.5 t71 176.5q0 97 -50 150.5t-136 53.5q-209 0 -209 -280v-1073h-232z" />
<glyph unicode="&#xe0;" horiz-adv-x="1069" d="M75 275q0 290 334 338l304 43q0 219 -208 219q-183 0 -330 -126v203q162 96 374 96q388 0 388 -382v-666h-225v160h-4q-106 -184 -311 -184q-151 0 -236.5 82t-85.5 217zM284 1532h214l221 -328h-173zM297 300q0 -65 46.5 -106.5t124.5 -41.5q106 0 175.5 74.5 t69.5 187.5v89l-215 -30q-100 -13 -150.5 -48.5t-50.5 -124.5z" />
<glyph unicode="&#xe1;" horiz-adv-x="1069" d="M75 275q0 290 334 338l304 43q0 219 -208 219q-183 0 -330 -126v203q162 96 374 96q388 0 388 -382v-666h-225v160h-4q-106 -184 -311 -184q-151 0 -236.5 82t-85.5 217zM297 300q0 -65 46.5 -106.5t124.5 -41.5q106 0 175.5 74.5t69.5 187.5v89l-215 -30 q-100 -13 -150.5 -48.5t-50.5 -124.5zM370 1218l242 328h216l-286 -328h-172z" />
<glyph unicode="&#xe2;" horiz-adv-x="1069" d="M75 275q0 290 334 338l304 43q0 219 -208 219q-183 0 -330 -126v203q162 96 374 96q388 0 388 -382v-666h-225v160h-4q-106 -184 -311 -184q-151 0 -236.5 82t-85.5 217zM221 1204l224 328h184l225 -328h-160l-161 211l-157 -211h-155zM297 300q0 -65 46.5 -106.5 t124.5 -41.5q106 0 175.5 74.5t69.5 187.5v89l-215 -30q-100 -13 -150.5 -48.5t-50.5 -124.5z" />
<glyph unicode="&#xe3;" horiz-adv-x="1069" d="M75 275q0 290 334 338l304 43q0 219 -208 219q-183 0 -330 -126v203q162 96 374 96q388 0 388 -382v-666h-225v160h-4q-106 -184 -311 -184q-151 0 -236.5 82t-85.5 217zM196 1194q0 119 51 190.5t143 71.5q68 0 157 -51q72 -44 125 -44q81 0 81 114h119 q0 -116 -51.5 -189.5t-139.5 -73.5q-72 0 -165 48q-78 45 -121 45q-84 0 -84 -111h-115zM297 300q0 -65 46.5 -106.5t124.5 -41.5q106 0 175.5 74.5t69.5 187.5v89l-215 -30q-100 -13 -150.5 -48.5t-50.5 -124.5z" />
<glyph unicode="&#xe4;" horiz-adv-x="1069" d="M75 275q0 290 334 338l304 43q0 219 -208 219q-183 0 -330 -126v203q162 96 374 96q388 0 388 -382v-666h-225v160h-4q-106 -184 -311 -184q-151 0 -236.5 82t-85.5 217zM200 1320q0 49 35.5 82t86.5 33t88.5 -33.5t37.5 -81.5q0 -49 -36 -83t-86 -34q-52 0 -89 34.5 t-37 82.5zM297 300q0 -65 46.5 -106.5t124.5 -41.5q106 0 175.5 74.5t69.5 187.5v89l-215 -30q-100 -13 -150.5 -48.5t-50.5 -124.5zM619 1320q0 49 35 82t85 33q53 0 89.5 -33.5t36.5 -81.5q0 -49 -35 -83t-88 -34q-50 0 -86.5 33t-36.5 84z" />
<glyph unicode="&#xe5;" horiz-adv-x="1069" d="M75 275q0 290 334 338l304 43q0 219 -208 219q-183 0 -330 -126v203q162 96 374 96q388 0 388 -382v-666h-225v160h-4q-106 -184 -311 -184q-151 0 -236.5 82t-85.5 217zM297 300q0 -65 46.5 -106.5t124.5 -41.5q106 0 175.5 74.5t69.5 187.5v89l-215 -30 q-100 -13 -150.5 -48.5t-50.5 -124.5zM324 1376q0 98 63 156t161 58q96 0 157.5 -58.5t61.5 -149.5q0 -87 -65.5 -144.5t-160.5 -57.5q-94 0 -155.5 54t-61.5 142zM437 1386q0 -104 104 -104q48 0 79.5 29.5t31.5 74.5t-31.5 74.5t-79.5 29.5q-45 0 -74.5 -30t-29.5 -74z " />
<glyph unicode="&#xe6;" horiz-adv-x="1700" d="M75 279q0 306 379 331l259 16q0 250 -201 250q-178 0 -336 -115v196q152 91 357 91q240 0 311 -170h4q114 170 349 170q206 0 319.5 -135.5t113.5 -376.5v-87h-699q3 -142 85 -219.5t225 -77.5q171 0 310 99v-186q-135 -89 -367 -89q-275 0 -390 206h-4 q-140 -206 -372 -206q-160 0 -251.5 82.5t-91.5 220.5zM296 294q0 -64 46.5 -103t125.5 -39q103 0 174 74t71 186v55l-177 -11q-121 -7 -180.5 -43t-59.5 -119zM932 613h474q-2 127 -59 195.5t-160 68.5q-98 0 -168.5 -72t-86.5 -192z" />
<glyph unicode="&#xe7;" horiz-adv-x="963" d="M85 488q0 253 150.5 406.5t402.5 153.5q140 0 247 -49v-216q-107 80 -228 80q-147 0 -241 -99.5t-94 -260.5q0 -159 88.5 -251t237.5 -92q125 0 236 89v-202q-123 -71 -291 -71q-228 0 -368 142.5t-140 369.5zM432 -328q44 -6 71 -6q133 0 133 82q0 74 -121 74 q-10 0 -39 -4v182h136v-94q87 0 138 -40.5t51 -113.5q0 -194 -288 -194q-47 0 -81 3v111z" />
<glyph unicode="&#xe8;" horiz-adv-x="1088" d="M85 508q0 239 141.5 389.5t351.5 150.5t325 -135t115 -375v-89h-698q4 -142 87.5 -219t229.5 -77q164 0 301 98v-187q-140 -88 -370 -88q-226 0 -354.5 139.5t-128.5 392.5zM320 613h474q-1 125 -59 194.5t-160 69.5q-100 0 -169.5 -73t-85.5 -191zM321 1532h214 l221 -328h-173z" />
<glyph unicode="&#xe9;" horiz-adv-x="1088" d="M85 508q0 239 141.5 389.5t351.5 150.5t325 -135t115 -375v-89h-698q4 -142 87.5 -219t229.5 -77q164 0 301 98v-187q-140 -88 -370 -88q-226 0 -354.5 139.5t-128.5 392.5zM320 613h474q-1 125 -59 194.5t-160 69.5q-100 0 -169.5 -73t-85.5 -191zM405 1218l242 328h216 l-286 -328h-172z" />
<glyph unicode="&#xea;" horiz-adv-x="1088" d="M85 508q0 239 141.5 389.5t351.5 150.5t325 -135t115 -375v-89h-698q4 -142 87.5 -219t229.5 -77q164 0 301 98v-187q-140 -88 -370 -88q-226 0 -354.5 139.5t-128.5 392.5zM255 1204l224 328h184l225 -328h-160l-161 211l-157 -211h-155zM320 613h474q-1 125 -59 194.5 t-160 69.5q-100 0 -169.5 -73t-85.5 -191z" />
<glyph unicode="&#xeb;" horiz-adv-x="1088" d="M85 508q0 239 141.5 389.5t351.5 150.5t325 -135t115 -375v-89h-698q4 -142 87.5 -219t229.5 -77q164 0 301 98v-187q-140 -88 -370 -88q-226 0 -354.5 139.5t-128.5 392.5zM231 1320q0 49 35.5 82t86.5 33t88.5 -33.5t37.5 -81.5q0 -49 -36 -83t-86 -34q-52 0 -89 34.5 t-37 82.5zM320 613h474q-1 125 -59 194.5t-160 69.5q-100 0 -169.5 -73t-85.5 -191zM650 1320q0 49 35 82t85 33q53 0 89.5 -33.5t36.5 -81.5q0 -49 -35 -83t-88 -34q-50 0 -86.5 33t-36.5 84z" />
<glyph unicode="&#xec;" horiz-adv-x="535" d="M0 1532h214l221 -328h-173zM151 0v1024h233v-1024h-233z" />
<glyph unicode="&#xed;" horiz-adv-x="535" d="M93 1218l242 328h216l-286 -328h-172zM151 0v1024h233v-1024h-233z" />
<glyph unicode="&#xee;" horiz-adv-x="535" d="M-51 1204l224 328h184l225 -328h-160l-161 211l-157 -211h-155zM151 0v1024h233v-1024h-233z" />
<glyph unicode="&#xef;" horiz-adv-x="535" d="M-68 1320q0 49 35.5 82t86.5 33t88.5 -33.5t37.5 -81.5q0 -49 -36 -83t-86 -34q-52 0 -89 34.5t-37 82.5zM151 0v1024h233v-1024h-233zM351 1320q0 49 35 82t85 33q53 0 89.5 -33.5t36.5 -81.5q0 -49 -35 -83t-88 -34q-50 0 -86.5 33t-36.5 84z" />
<glyph unicode="&#xf0;" horiz-adv-x="1176" d="M85 506q0 239 129.5 388t349.5 149q122 0 208 -77l4 3q-90 154 -197 253l-295 -148l-65 118l257 123q-119 105 -266 201h280q67 -45 153 -119l282 139l65 -113l-242 -119q342 -307 342 -762q0 -247 -136 -405.5t-370 -158.5q-235 0 -367 141.5t-132 386.5zM322 509 q0 -161 71 -255t198 -94q121 0 191.5 96.5t70.5 257.5q0 349 -258 349q-127 0 -200 -95t-73 -259z" />
<glyph unicode="&#xf1;" horiz-adv-x="1195" d="M151 0v1024h233v-170h4q115 194 332 194q167 0 255 -108.5t88 -313.5v-626h-232v577q0 287 -203 287q-106 0 -175 -79.5t-69 -200.5v-584h-233zM265 1194q0 119 51 190.5t143 71.5q68 0 157 -51q72 -44 125 -44q81 0 81 114h119q0 -116 -51.5 -189.5t-139.5 -73.5 q-72 0 -165 48q-78 45 -121 45q-84 0 -84 -111h-115z" />
<glyph unicode="&#xf2;" horiz-adv-x="1223" d="M85 500q0 258 147.5 403t397.5 145q240 0 374 -141t134 -391q0 -245 -144.5 -392.5t-388.5 -147.5q-237 0 -378.5 143.5t-141.5 380.5zM322 506q0 -161 80 -253.5t214 -92.5q137 0 210.5 91t73.5 259q0 169 -73.5 261t-210.5 92q-136 0 -215 -95t-79 -262zM359 1532h214 l221 -328h-173z" />
<glyph unicode="&#xf3;" horiz-adv-x="1223" d="M85 500q0 258 147.5 403t397.5 145q240 0 374 -141t134 -391q0 -245 -144.5 -392.5t-388.5 -147.5q-237 0 -378.5 143.5t-141.5 380.5zM322 506q0 -161 80 -253.5t214 -92.5q137 0 210.5 91t73.5 259q0 169 -73.5 261t-210.5 92q-136 0 -215 -95t-79 -262zM454 1218 l242 328h216l-286 -328h-172z" />
<glyph unicode="&#xf4;" horiz-adv-x="1223" d="M85 500q0 258 147.5 403t397.5 145q240 0 374 -141t134 -391q0 -245 -144.5 -392.5t-388.5 -147.5q-237 0 -378.5 143.5t-141.5 380.5zM298 1204l224 328h184l225 -328h-160l-161 211l-157 -211h-155zM322 506q0 -161 80 -253.5t214 -92.5q137 0 210.5 91t73.5 259 q0 169 -73.5 261t-210.5 92q-136 0 -215 -95t-79 -262z" />
<glyph unicode="&#xf5;" horiz-adv-x="1223" d="M85 500q0 258 147.5 403t397.5 145q240 0 374 -141t134 -391q0 -245 -144.5 -392.5t-388.5 -147.5q-237 0 -378.5 143.5t-141.5 380.5zM279 1194q0 119 51 190.5t143 71.5q68 0 157 -51q72 -44 125 -44q81 0 81 114h119q0 -116 -51.5 -189.5t-139.5 -73.5q-72 0 -165 48 q-78 45 -121 45q-84 0 -84 -111h-115zM322 506q0 -161 80 -253.5t214 -92.5q137 0 210.5 91t73.5 259q0 169 -73.5 261t-210.5 92q-136 0 -215 -95t-79 -262z" />
<glyph unicode="&#xf6;" horiz-adv-x="1223" d="M85 500q0 258 147.5 403t397.5 145q240 0 374 -141t134 -391q0 -245 -144.5 -392.5t-388.5 -147.5q-237 0 -378.5 143.5t-141.5 380.5zM280 1320q0 49 35.5 82t86.5 33t88.5 -33.5t37.5 -81.5q0 -49 -36 -83t-86 -34q-52 0 -89 34.5t-37 82.5zM322 506q0 -161 80 -253.5 t214 -92.5q137 0 210.5 91t73.5 259q0 169 -73.5 261t-210.5 92q-136 0 -215 -95t-79 -262zM699 1320q0 49 35 82t85 33q53 0 89.5 -33.5t36.5 -81.5q0 -49 -35 -83t-88 -34q-50 0 -86.5 33t-36.5 84z" />
<glyph unicode="&#xf7;" horiz-adv-x="1422" d="M234 509v165h956v-165h-956zM592 200q0 51 34.5 88.5t87.5 37.5q117 0 117 -124q0 -51 -33.5 -85.5t-83.5 -34.5q-51 0 -86.5 34.5t-35.5 83.5zM597 977q0 52 33.5 88.5t87.5 36.5q118 0 118 -123q0 -53 -33.5 -87t-79.5 -34q-53 0 -89.5 34.5t-36.5 84.5z" />
<glyph unicode="&#xf8;" horiz-adv-x="1223" d="M44 10l144 155q-103 137 -103 341q0 256 147 399.5t395 143.5q185 0 310 -91l151 163l100 -91l-155 -164q105 -137 105 -344q0 -252 -145.5 -399t-387.5 -147q-194 0 -322 95l-140 -151zM313 509q0 -105 35 -178l450 484q-67 59 -181 59q-141 0 -222.5 -97t-81.5 -268z M421 213q76 -62 194 -62q145 0 221 94.5t76 266.5q0 110 -35 189z" />
<glyph unicode="&#xf9;" horiz-adv-x="1195" d="M131 412v612h232v-588q0 -276 213 -276q103 0 169.5 76t66.5 199v589h232v-1024h-232v162h-4q-101 -186 -314 -186q-363 0 -363 436zM305 1532h214l221 -328h-173z" />
<glyph unicode="&#xfa;" horiz-adv-x="1195" d="M131 412v612h232v-588q0 -276 213 -276q103 0 169.5 76t66.5 199v589h232v-1024h-232v162h-4q-101 -186 -314 -186q-363 0 -363 436zM455 1218l242 328h216l-286 -328h-172z" />
<glyph unicode="&#xfb;" horiz-adv-x="1195" d="M131 412v612h232v-588q0 -276 213 -276q103 0 169.5 76t66.5 199v589h232v-1024h-232v162h-4q-101 -186 -314 -186q-363 0 -363 436zM272 1204l224 328h184l225 -328h-160l-161 211l-157 -211h-155z" />
<glyph unicode="&#xfc;" horiz-adv-x="1195" d="M131 412v612h232v-588q0 -276 213 -276q103 0 169.5 76t66.5 199v589h232v-1024h-232v162h-4q-101 -186 -314 -186q-363 0 -363 436zM260 1320q0 49 35.5 82t86.5 33t88.5 -33.5t37.5 -81.5q0 -49 -36 -83t-86 -34q-52 0 -89 34.5t-37 82.5zM679 1320q0 49 35 82t85 33 q53 0 89.5 -33.5t36.5 -81.5q0 -49 -35 -83t-88 -34q-50 0 -86.5 33t-36.5 84z" />
<glyph unicode="&#xfd;" horiz-adv-x="1041" d="M6 1024h257l244 -744q4 -14 18 -74h5q5 23 18 72l256 746h234l-462 -1188q-144 -318 -404 -318q-73 0 -122 13v193q55 -18 100 -18q130 0 194 128l69 168zM387 1218l242 328h216l-286 -328h-172z" />
<glyph unicode="&#xfe;" horiz-adv-x="1234" d="M151 -471v1987h232v-661h4q117 193 343 193q197 0 307.5 -137.5t110.5 -368.5q0 -257 -124.5 -411.5t-340.5 -154.5q-194 0 -300 158v-605h-232zM381 435q0 -115 71 -195t181 -80q130 0 203.5 102t73.5 283q0 149 -69 233.5t-187 84.5q-123 0 -198 -89t-75 -223v-116z " />
<glyph unicode="&#xff;" horiz-adv-x="1041" d="M6 1024h257l244 -744q4 -14 18 -74h5q5 23 18 72l256 746h234l-462 -1188q-144 -318 -404 -318q-73 0 -122 13v193q55 -18 100 -18q130 0 194 128l69 168zM193 1320q0 49 35.5 82t86.5 33t88.5 -33.5t37.5 -81.5q0 -49 -36 -83t-86 -34q-52 0 -89 34.5t-37 82.5z M612 1320q0 49 35 82t85 33q53 0 89.5 -33.5t36.5 -81.5q0 -49 -35 -83t-88 -34q-50 0 -86.5 33t-36.5 84z" />
<glyph unicode="&#x100;" horiz-adv-x="1375" d="M17 0l537 1434h268l533 -1434h-261l-129 365h-564l-124 -365h-260zM414 1567v137h543v-137h-543zM463 559h439l-199 572q-9 28 -19 90h-4q-9 -57 -20 -90z" />
<glyph unicode="&#x101;" horiz-adv-x="1069" d="M75 275q0 290 334 338l304 43q0 219 -208 219q-183 0 -330 -126v203q162 96 374 96q388 0 388 -382v-666h-225v160h-4q-106 -184 -311 -184q-151 0 -236.5 82t-85.5 217zM285 1204v137h543v-137h-543zM297 300q0 -65 46.5 -106.5t124.5 -41.5q106 0 175.5 74.5 t69.5 187.5v89l-215 -30q-100 -13 -150.5 -48.5t-50.5 -124.5z" />
<glyph unicode="&#x102;" horiz-adv-x="1375" d="M17 0l537 1434h268l533 -1434h-261l-129 365h-564l-124 -365h-260zM382 1843h136q12 -146 166 -146q65 0 111 39.5t56 106.5h137q-11 -124 -97.5 -200t-209.5 -76q-130 0 -211.5 75.5t-87.5 200.5zM463 559h439l-199 572q-9 28 -19 90h-4q-9 -57 -20 -90z" />
<glyph unicode="&#x103;" horiz-adv-x="1069" d="M75 275q0 290 334 338l304 43q0 219 -208 219q-183 0 -330 -126v203q162 96 374 96q388 0 388 -382v-666h-225v160h-4q-106 -184 -311 -184q-151 0 -236.5 82t-85.5 217zM245 1480h136q12 -146 166 -146q65 0 111 39.5t56 106.5h137q-11 -124 -97.5 -200t-209.5 -76 q-130 0 -211.5 75.5t-87.5 200.5zM297 300q0 -65 46.5 -106.5t124.5 -41.5q106 0 175.5 74.5t69.5 187.5v89l-215 -30q-100 -13 -150.5 -48.5t-50.5 -124.5z" />
<glyph unicode="&#x104;" horiz-adv-x="1375" d="M17 0l537 1434h268l533 -1434h-261l-129 365h-564l-124 -365h-260zM463 559h439l-199 572q-9 28 -19 90h-4q-9 -57 -20 -90zM931 -250q0 122 161 250h135q-151 -137 -151 -216q0 -68 65 -68q36 0 68 13v-121q-38 -16 -105 -16q-78 0 -125.5 42t-47.5 116z" />
<glyph unicode="&#x105;" horiz-adv-x="1069" d="M75 275q0 290 334 338l304 43q0 219 -208 219q-183 0 -330 -126v203q162 96 374 96q388 0 388 -382v-666h-225v160h-4q-106 -184 -311 -184q-151 0 -236.5 82t-85.5 217zM297 300q0 -65 46.5 -106.5t124.5 -41.5q106 0 175.5 74.5t69.5 187.5v89l-215 -30 q-100 -13 -150.5 -48.5t-50.5 -124.5zM549 -250q0 122 161 250h135q-151 -137 -151 -216q0 -68 65 -68q36 0 68 13v-121q-38 -16 -105 -16q-78 0 -125.5 42t-47.5 116z" />
<glyph unicode="&#x106;" horiz-adv-x="1272" d="M86 690q0 344 211.5 556t534.5 212q208 0 345 -59v-236q-145 86 -320 86q-233 0 -377.5 -149t-144.5 -398q0 -237 135 -377.5t355 -140.5q203 0 352 96v-220q-162 -84 -403 -84q-312 0 -500 197t-188 517zM621 1580l242 328h216l-286 -328h-172z" />
<glyph unicode="&#x107;" horiz-adv-x="963" d="M85 488q0 253 150.5 406.5t402.5 153.5q140 0 247 -49v-216q-107 80 -228 80q-147 0 -241 -99.5t-94 -260.5q0 -159 88.5 -251t237.5 -92q125 0 236 89v-202q-123 -71 -291 -71q-228 0 -368 142.5t-140 369.5zM418 1218l242 328h216l-286 -328h-172z" />
<glyph unicode="&#x108;" horiz-adv-x="1272" d="M86 690q0 344 211.5 556t534.5 212q208 0 345 -59v-236q-145 86 -320 86q-233 0 -377.5 -149t-144.5 -398q0 -237 135 -377.5t355 -140.5q203 0 352 96v-220q-162 -84 -403 -84q-312 0 -500 197t-188 517zM464 1567l224 328h184l225 -328h-160l-161 211l-157 -211h-155z " />
<glyph unicode="&#x109;" horiz-adv-x="963" d="M85 488q0 253 150.5 406.5t402.5 153.5q140 0 247 -49v-216q-107 80 -228 80q-147 0 -241 -99.5t-94 -260.5q0 -159 88.5 -251t237.5 -92q125 0 236 89v-202q-123 -71 -291 -71q-228 0 -368 142.5t-140 369.5zM257 1204l224 328h184l225 -328h-160l-161 211l-157 -211 h-155z" />
<glyph unicode="&#x10a;" horiz-adv-x="1272" d="M86 690q0 344 211.5 556t534.5 212q208 0 345 -59v-236q-145 86 -320 86q-233 0 -377.5 -149t-144.5 -398q0 -237 135 -377.5t355 -140.5q203 0 352 96v-220q-162 -84 -403 -84q-312 0 -500 197t-188 517zM667 1682q0 48 36 81t87 33t87 -32.5t36 -81.5q0 -48 -36 -82 t-87 -34q-50 0 -86.5 33.5t-36.5 82.5z" />
<glyph unicode="&#x10b;" horiz-adv-x="963" d="M85 488q0 253 150.5 406.5t402.5 153.5q140 0 247 -49v-216q-107 80 -228 80q-147 0 -241 -99.5t-94 -260.5q0 -159 88.5 -251t237.5 -92q125 0 236 89v-202q-123 -71 -291 -71q-228 0 -368 142.5t-140 369.5zM477 1319q0 48 36 81t87 33t87 -32.5t36 -81.5 q0 -48 -36 -82t-87 -34q-50 0 -86.5 33.5t-36.5 82.5z" />
<glyph unicode="&#x10c;" horiz-adv-x="1272" d="M86 690q0 344 211.5 556t534.5 212q208 0 345 -59v-236q-145 86 -320 86q-233 0 -377.5 -149t-144.5 -398q0 -237 135 -377.5t355 -140.5q203 0 352 96v-220q-162 -84 -403 -84q-312 0 -500 197t-188 517zM469 1893h155l160 -210l161 210h157l-224 -327h-185z" />
<glyph unicode="&#x10d;" horiz-adv-x="963" d="M85 488q0 253 150.5 406.5t402.5 153.5q140 0 247 -49v-216q-107 80 -228 80q-147 0 -241 -99.5t-94 -260.5q0 -159 88.5 -251t237.5 -92q125 0 236 89v-202q-123 -71 -291 -71q-228 0 -368 142.5t-140 369.5zM265 1531h155l160 -210l161 210h157l-224 -327h-185z" />
<glyph unicode="&#x10e;" horiz-adv-x="1469" d="M177 0v1434h414q793 0 793 -699q0 -332 -220 -533.5t-590 -201.5h-397zM380 1893h155l160 -210l161 210h157l-224 -327h-185zM414 201h190q251 0 390.5 138t139.5 390q0 503 -521 503h-199v-1031z" />
<glyph unicode="&#x10f;" horiz-adv-x="1442" d="M85 488q0 254 125.5 407t334.5 153q207 0 301 -166h4v634h232v-1516h-232v174h-4q-112 -198 -345 -198q-189 0 -302.5 137.5t-113.5 374.5zM322 497q0 -156 71.5 -246.5t192.5 -90.5q119 0 193 87.5t74 220.5v134q0 109 -71 185t-181 76q-130 0 -204.5 -97t-74.5 -269z M1191 1214l105 302h217l-167 -302h-155z" />
<glyph unicode="&#x110;" horiz-adv-x="1469" d="M15 616v205h162v613h414q793 0 793 -699q0 -334 -220 -534.5t-590 -200.5h-397v616h-162zM414 201h190q251 0 390.5 138t139.5 392q0 501 -521 501h-199v-411h307v-205h-307v-415z" />
<glyph unicode="&#x111;" horiz-adv-x="1246" d="M85 488q0 254 127.5 407t340.5 153q199 0 293 -155h4v295h-331v166h331v162h232v-162h139v-166h-139v-1188h-232v159h-4q-107 -183 -330 -183q-196 0 -313.5 137.5t-117.5 374.5zM322 496q0 -156 71.5 -246t192.5 -90q118 0 192.5 88.5t74.5 223.5v124q0 112 -72 189.5 t-182 77.5q-129 0 -203 -97.5t-74 -269.5z" />
<glyph unicode="&#x112;" horiz-adv-x="1060" d="M177 0v1434h773v-202h-535v-406h493v-201h-493v-424h567v-201h-805zM298 1566v137h543v-137h-543z" />
<glyph unicode="&#x113;" horiz-adv-x="1088" d="M85 508q0 239 141.5 389.5t351.5 150.5t325 -135t115 -375v-89h-698q4 -142 87.5 -219t229.5 -77q164 0 301 98v-187q-140 -88 -370 -88q-226 0 -354.5 139.5t-128.5 392.5zM298 1204v137h543v-137h-543zM320 613h474q-1 125 -59 194.5t-160 69.5q-100 0 -169.5 -73 t-85.5 -191z" />
<glyph unicode="&#x114;" horiz-adv-x="1060" d="M177 0v1434h773v-202h-535v-406h493v-201h-493v-424h567v-201h-805zM266 1843h136q12 -146 166 -146q65 0 111 39.5t56 106.5h137q-11 -124 -97.5 -200t-209.5 -76q-130 0 -211.5 75.5t-87.5 200.5z" />
<glyph unicode="&#x115;" horiz-adv-x="1088" d="M85 508q0 239 141.5 389.5t351.5 150.5t325 -135t115 -375v-89h-698q4 -142 87.5 -219t229.5 -77q164 0 301 98v-187q-140 -88 -370 -88q-226 0 -354.5 139.5t-128.5 392.5zM261 1480h136q12 -146 166 -146q65 0 111 39.5t56 106.5h137q-11 -124 -97.5 -200t-209.5 -76 q-130 0 -211.5 75.5t-87.5 200.5zM320 613h474q-1 125 -59 194.5t-160 69.5q-100 0 -169.5 -73t-85.5 -191z" />
<glyph unicode="&#x116;" horiz-adv-x="1060" d="M177 0v1434h773v-202h-535v-406h493v-201h-493v-424h567v-201h-805zM443 1682q0 48 36 81t87 33t87 -32.5t36 -81.5q0 -48 -36 -82t-87 -34q-50 0 -86.5 33.5t-36.5 82.5z" />
<glyph unicode="&#x117;" horiz-adv-x="1088" d="M85 508q0 239 141.5 389.5t351.5 150.5t325 -135t115 -375v-89h-698q4 -142 87.5 -219t229.5 -77q164 0 301 98v-187q-140 -88 -370 -88q-226 0 -354.5 139.5t-128.5 392.5zM320 613h474q-1 125 -59 194.5t-160 69.5q-100 0 -169.5 -73t-85.5 -191zM461 1319q0 48 36 81 t87 33t87 -32.5t36 -81.5q0 -48 -36 -82t-87 -34q-50 0 -86.5 33.5t-36.5 82.5z" />
<glyph unicode="&#x118;" horiz-adv-x="1060" d="M177 0v1434h773v-202h-535v-406h493v-201h-493v-424h567v-201h-805zM596 -250q0 122 161 250h135q-151 -137 -151 -216q0 -68 65 -68q36 0 68 13v-121q-38 -16 -105 -16q-78 0 -125.5 42t-47.5 116z" />
<glyph unicode="&#x119;" horiz-adv-x="1088" d="M85 508q0 239 141.5 389.5t351.5 150.5t325 -135t115 -375v-89h-698q4 -142 87.5 -219t229.5 -77q164 0 301 98v-187q-140 -88 -370 -88q-226 0 -354.5 139.5t-128.5 392.5zM320 613h474q-1 125 -59 194.5t-160 69.5q-100 0 -169.5 -73t-85.5 -191zM486 -250 q0 122 161 250h135q-151 -137 -151 -216q0 -68 65 -68q36 0 68 13v-121q-38 -16 -105 -16q-78 0 -125.5 42t-47.5 116z" />
<glyph unicode="&#x11a;" horiz-adv-x="1060" d="M177 0v1434h773v-202h-535v-406h493v-201h-493v-424h567v-201h-805zM258 1893h155l160 -210l161 210h157l-224 -327h-185z" />
<glyph unicode="&#x11b;" horiz-adv-x="1088" d="M85 508q0 239 141.5 389.5t351.5 150.5t325 -135t115 -375v-89h-698q4 -142 87.5 -219t229.5 -77q164 0 301 98v-187q-140 -88 -370 -88q-226 0 -354.5 139.5t-128.5 392.5zM251 1531h155l160 -210l161 210h157l-224 -327h-185zM320 613h474q-1 125 -59 194.5t-160 69.5 q-100 0 -169.5 -73t-85.5 -191z" />
<glyph unicode="&#x11c;" horiz-adv-x="1428" d="M85 698q0 333 215.5 546.5t547.5 213.5q239 0 402 -70v-245q-165 110 -393 110q-229 0 -375.5 -151t-146.5 -391q0 -247 126 -388.5t342 -141.5q148 0 256 57v341h-302v200h539v-681q-224 -122 -499 -122q-318 0 -515 198t-197 524zM488 1567l224 328h184l225 -328h-160 l-161 211l-157 -211h-155z" />
<glyph unicode="&#x11d;" horiz-adv-x="1234" d="M85 479q0 261 123 415t338 154q203 0 301 -166h4v142h232v-942q0 -564 -567 -564q-200 0 -349 67v212q168 -96 319 -96q365 0 365 359v112h-4q-115 -196 -346 -196q-187 0 -301.5 136.5t-114.5 366.5zM289 1204l224 328h184l225 -328h-160l-161 211l-157 -211h-155z M322 493q0 -151 71.5 -241.5t189.5 -90.5q120 0 195 86.5t75 221.5v133q0 108 -71.5 184.5t-178.5 76.5q-132 0 -206.5 -97.5t-74.5 -272.5z" />
<glyph unicode="&#x11e;" horiz-adv-x="1428" d="M85 698q0 333 215.5 546.5t547.5 213.5q239 0 402 -70v-245q-165 110 -393 110q-229 0 -375.5 -151t-146.5 -391q0 -247 126 -388.5t342 -141.5q148 0 256 57v341h-302v200h539v-681q-224 -122 -499 -122q-318 0 -515 198t-197 524zM496 1842h136q12 -146 166 -146 q65 0 111 39.5t56 106.5h137q-11 -124 -97.5 -200t-209.5 -76q-130 0 -211.5 75.5t-87.5 200.5z" />
<glyph unicode="&#x11f;" horiz-adv-x="1234" d="M85 479q0 261 123 415t338 154q203 0 301 -166h4v142h232v-942q0 -564 -567 -564q-200 0 -349 67v212q168 -96 319 -96q365 0 365 359v112h-4q-115 -196 -346 -196q-187 0 -301.5 136.5t-114.5 366.5zM308 1480h136q12 -146 166 -146q65 0 111 39.5t56 106.5h137 q-11 -124 -97.5 -200t-209.5 -76q-130 0 -211.5 75.5t-87.5 200.5zM322 493q0 -151 71.5 -241.5t189.5 -90.5q120 0 195 86.5t75 221.5v133q0 108 -71.5 184.5t-178.5 76.5q-132 0 -206.5 -97.5t-74.5 -272.5z" />
<glyph unicode="&#x120;" horiz-adv-x="1428" d="M85 698q0 333 215.5 546.5t547.5 213.5q239 0 402 -70v-245q-165 110 -393 110q-229 0 -375.5 -151t-146.5 -391q0 -247 126 -388.5t342 -141.5q148 0 256 57v341h-302v200h539v-681q-224 -122 -499 -122q-318 0 -515 198t-197 524zM683 1682q0 48 36 81t87 33t87 -32.5 t36 -81.5q0 -48 -36 -82t-87 -34q-50 0 -86.5 33.5t-36.5 82.5z" />
<glyph unicode="&#x121;" horiz-adv-x="1234" d="M85 479q0 261 123 415t338 154q203 0 301 -166h4v142h232v-942q0 -564 -567 -564q-200 0 -349 67v212q168 -96 319 -96q365 0 365 359v112h-4q-115 -196 -346 -196q-187 0 -301.5 136.5t-114.5 366.5zM322 493q0 -151 71.5 -241.5t189.5 -90.5q120 0 195 86.5t75 221.5 v133q0 108 -71.5 184.5t-178.5 76.5q-132 0 -206.5 -97.5t-74.5 -272.5zM477 1319q0 48 36 81t87 33t87 -32.5t36 -81.5q0 -48 -36 -82t-87 -34q-50 0 -86.5 33.5t-36.5 82.5z" />
<glyph unicode="&#x122;" horiz-adv-x="1428" d="M85 698q0 333 215.5 546.5t547.5 213.5q239 0 402 -70v-245q-165 110 -393 110q-229 0 -375.5 -151t-146.5 -391q0 -247 126 -388.5t342 -141.5q148 0 256 57v341h-302v200h539v-681q-224 -122 -499 -122q-318 0 -515 198t-197 524zM602 -420l105 302h217l-167 -302h-155 z" />
<glyph unicode="&#x123;" horiz-adv-x="1234" d="M85 479q0 261 123 415t338 154q203 0 301 -166h4v142h232v-942q0 -564 -567 -564q-200 0 -349 67v212q168 -96 319 -96q365 0 365 359v112h-4q-115 -196 -346 -196q-187 0 -301.5 136.5t-114.5 366.5zM322 493q0 -151 71.5 -241.5t189.5 -90.5q120 0 195 86.5t75 221.5 v133q0 108 -71.5 184.5t-178.5 76.5q-132 0 -206.5 -97.5t-74.5 -272.5zM465 1203l167 302h155l-105 -302h-217z" />
<glyph unicode="&#x124;" horiz-adv-x="1506" d="M177 0v1434h238v-603h675v603h239v-1434h-239v622h-675v-622h-238zM434 1566l224 328h184l225 -328h-160l-161 211l-157 -211h-155z" />
<glyph unicode="&#x125;" horiz-adv-x="1192" d="M151 0v1516h233v-662h4q116 194 332 194q341 0 341 -417v-631h-232v560q0 304 -203 304q-102 0 -172 -88t-70 -225v-551h-233zM323 1611l224 328h184l225 -328h-160l-161 211l-157 -211h-155z" />
<glyph unicode="&#x126;" horiz-adv-x="1506" d="M15 1023v176h162v235h237v-235h676v235h238v-235h162v-176h-162v-1023h-238v622h-676v-622h-237v1023h-162zM414 830h676v193h-676v-193z" />
<glyph unicode="&#x127;" horiz-adv-x="1205" d="M29 1192v145h139v179h232v-179h331v-145h-331v-340h4q117 186 327 186q168 0 256.5 -107.5t88.5 -310.5v-620h-230v567q0 284 -205 284q-102 0 -171.5 -78.5t-69.5 -201.5v-571h-232v1192h-139z" />
<glyph unicode="&#x128;" horiz-adv-x="592" d="M-41 1547q0 119 51 190.5t143 71.5q68 0 157 -51q72 -44 125 -44q81 0 81 114h119q0 -116 -51.5 -189.5t-139.5 -73.5q-72 0 -165 48q-78 45 -121 45q-84 0 -84 -111h-115zM46 0v192h131v1050h-131v192h500v-192h-131v-1050h131v-192h-500z" />
<glyph unicode="&#x129;" horiz-adv-x="535" d="M-75 1194q0 119 51 190.5t143 71.5q68 0 157 -51q72 -44 125 -44q81 0 81 114h119q0 -116 -51.5 -189.5t-139.5 -73.5q-72 0 -165 48q-78 45 -121 45q-84 0 -84 -111h-115zM151 0v1024h233v-1024h-233z" />
<glyph unicode="&#x12a;" horiz-adv-x="592" d="M26 1566v137h543v-137h-543zM46 0v192h131v1050h-131v192h500v-192h-131v-1050h131v-192h-500z" />
<glyph unicode="&#x12b;" horiz-adv-x="535" d="M-9 1204v137h543v-137h-543zM151 0v1024h233v-1024h-233z" />
<glyph unicode="&#x12c;" horiz-adv-x="592" d="M-5 1842h136q12 -146 166 -146q65 0 111 39.5t56 106.5h137q-11 -124 -97.5 -200t-209.5 -76q-130 0 -211.5 75.5t-87.5 200.5zM46 0v192h131v1050h-131v192h500v-192h-131v-1050h131v-192h-500z" />
<glyph unicode="&#x12d;" horiz-adv-x="535" d="M-40 1480h136q12 -146 166 -146q65 0 111 39.5t56 106.5h137q-11 -124 -97.5 -200t-209.5 -76q-130 0 -211.5 75.5t-87.5 200.5zM151 0v1024h233v-1024h-233z" />
<glyph unicode="&#x12e;" horiz-adv-x="592" d="M46 0v192h131v1050h-131v192h500v-192h-131v-1050h131v-192h-500zM157 -250q0 122 161 250h135q-151 -137 -151 -216q0 -68 65 -68q36 0 68 13v-121q-38 -16 -105 -16q-78 0 -125.5 42t-47.5 116z" />
<glyph unicode="&#x12f;" horiz-adv-x="535" d="M87 -250q0 122 161 250h135q-151 -137 -151 -216q0 -68 65 -68q36 0 68 13v-121q-38 -16 -105 -16q-78 0 -125.5 42t-47.5 116zM130 1370q0 57 40.5 95t97.5 38q59 0 100 -38t41 -95q0 -54 -41 -92.5t-100 -38.5q-57 0 -97.5 37t-40.5 94zM151 0v1024h232v-1024h-232z " />
<glyph unicode="&#x130;" horiz-adv-x="592" d="M46 0v192h131v1050h-131v192h500v-192h-131v-1050h131v-192h-500zM172 1682q0 48 36 81t87 33t87 -32.5t36 -81.5q0 -48 -36 -82t-87 -34q-50 0 -86.5 33.5t-36.5 82.5z" />
<glyph unicode="&#x131;" horiz-adv-x="535" d="M151 0v1024h233v-1024h-233z" />
<glyph unicode="&#x132;" horiz-adv-x="1404" d="M46 0v192h131v1050h-131v192h500v-192h-131v-1050h131v-192h-500zM618 -1v224q57 -39 147 -39q238 0 238 368v882h238v-920q0 -255 -126 -396.5t-336 -141.5q-98 0 -161 23z" />
<glyph unicode="&#x133;" horiz-adv-x="1115" d="M130 1370q0 57 40.5 95t97.5 38q59 0 100 -38t41 -95q0 -54 -41 -92.5t-100 -38.5q-57 0 -97.5 37t-40.5 94zM151 0v1024h232v-1024h-232zM412 -251q65 -45 123 -45q196 0 196 346v974h232v-981q0 -252 -106 -388.5t-303 -136.5q-73 0 -142 32v199zM711 1370 q0 57 40.5 95t97.5 38q58 0 99 -38t41 -95q0 -54 -41 -92.5t-99 -38.5q-57 0 -97.5 37t-40.5 94z" />
<glyph unicode="&#x134;" horiz-adv-x="812" d="M25 -1v224q57 -39 147 -39q238 0 238 368v882h238v-920q0 -255 -126 -396.5t-336 -141.5q-98 0 -161 23zM212 1566l224 328h184l225 -328h-160l-161 211l-157 -211h-155z" />
<glyph unicode="&#x135;" horiz-adv-x="535" d="M-168 -254q68 -42 129 -42q190 0 190 302v1018h232v-993q0 -246 -106 -379t-303 -133q-73 0 -142 31v196zM-50 1204l224 328h184l225 -328h-160l-161 211l-157 -211h-155z" />
<glyph unicode="&#x136;" horiz-adv-x="1251" d="M177 0v1434h238v-674h4q12 22 34 49l481 625h285l-563 -688l606 -746h-310l-499 656q-28 37 -34 50h-4v-706h-238zM460 -420l105 302h217l-167 -302h-155z" />
<glyph unicode="&#x137;" horiz-adv-x="1075" d="M151 0v1516h233v-961h4l376 469h279l-423 -494l460 -530h-294l-398 492h-4v-492h-233zM376 -420l105 302h217l-167 -302h-155z" />
<glyph unicode="&#x138;" horiz-adv-x="1075" d="M151 0v1024h233v-471h4l376 471h284l-426 -488l459 -536h-295l-398 499h-4v-499h-233z" />
<glyph unicode="&#x139;" horiz-adv-x="1001" d="M177 0v1434h238v-1233h556v-201h-794zM430 1580l242 328h216l-286 -328h-172z" />
<glyph unicode="&#x13a;" horiz-adv-x="535" d="M139 1664l242 328h216l-286 -328h-172zM151 0v1516h233v-1516h-233z" />
<glyph unicode="&#x13b;" horiz-adv-x="1001" d="M177 0v1434h238v-1233h556v-201h-794zM429 -328q44 -6 71 -6q133 0 133 82q0 74 -121 74q-10 0 -39 -4v182h136v-94q87 0 138 -40.5t51 -113.5q0 -194 -288 -194q-47 0 -81 3v111z" />
<glyph unicode="&#x13c;" horiz-adv-x="535" d="M132 -328q44 -6 71 -6q133 0 133 82q0 74 -121 74q-10 0 -39 -4v182h136v-94q87 0 138 -40.5t51 -113.5q0 -194 -288 -194q-47 0 -81 3v111zM151 0v1516h233v-1516h-233z" />
<glyph unicode="&#x13d;" horiz-adv-x="1001" d="M177 0v1434h238v-1233h556v-201h-794zM650 1133l105 302h217l-167 -302h-155z" />
<glyph unicode="&#x13e;" horiz-adv-x="682" d="M151 0v1516h233v-1516h-233zM479 1210l105 302h217l-167 -302h-155z" />
<glyph unicode="&#x13f;" horiz-adv-x="1001" d="M177 0v1434h238v-1233h556v-201h-794zM653 776q0 48 36 81t87 33t87 -32.5t36 -81.5q0 -48 -36 -82t-87 -34q-50 0 -86.5 33.5t-36.5 82.5z" />
<glyph unicode="&#x140;" horiz-adv-x="754" d="M151 0v1516h233v-1516h-233zM508 749q0 48 36 81t87 33t87 -32.5t36 -81.5q0 -48 -36 -82t-87 -34q-50 0 -86.5 33.5t-36.5 82.5z" />
<glyph unicode="&#x141;" horiz-adv-x="1001" d="M19 419v202l158 91v722h238v-594l308 179v-203l-308 -177v-438h556v-201h-794v511z" />
<glyph unicode="&#x142;" horiz-adv-x="598" d="M25 427v202l152 103v784h232v-635l157 105v-201l-157 -106v-679h-232v530z" />
<glyph unicode="&#x143;" horiz-adv-x="1571" d="M177 0v1434h277l662 -1029q42 -64 54 -88h4q-10 57 -10 193v924h229v-1434h-260l-685 1054q-26 40 -43 83h-6q8 -46 8 -197v-940h-230zM652 1580l242 328h216l-286 -328h-172z" />
<glyph unicode="&#x144;" horiz-adv-x="1195" d="M151 0v1024h233v-170h4q115 194 332 194q167 0 255 -108.5t88 -313.5v-626h-232v577q0 287 -203 287q-106 0 -175 -79.5t-69 -200.5v-584h-233zM450 1218l242 328h216l-286 -328h-172z" />
<glyph unicode="&#x145;" horiz-adv-x="1571" d="M177 0v1434h277l662 -1029q42 -64 54 -88h4q-10 57 -10 193v924h229v-1434h-260l-685 1054q-26 40 -43 83h-6q8 -46 8 -197v-940h-230zM602 -420l105 302h217l-167 -302h-155z" />
<glyph unicode="&#x146;" horiz-adv-x="1195" d="M151 0v1024h233v-170h4q115 194 332 194q167 0 255 -108.5t88 -313.5v-626h-232v577q0 287 -203 287q-106 0 -175 -79.5t-69 -200.5v-584h-233zM419 -420l105 302h217l-167 -302h-155z" />
<glyph unicode="&#x147;" horiz-adv-x="1571" d="M177 0v1434h277l662 -1029q42 -64 54 -88h4q-10 57 -10 193v924h229v-1434h-260l-685 1054q-26 40 -43 83h-6q8 -46 8 -197v-940h-230zM468 1893h155l160 -210l161 210h157l-224 -327h-185z" />
<glyph unicode="&#x148;" horiz-adv-x="1195" d="M151 0v1024h233v-170h4q115 194 332 194q167 0 255 -108.5t88 -313.5v-626h-232v577q0 287 -203 287q-106 0 -175 -79.5t-69 -200.5v-584h-233zM302 1531h155l160 -210l161 210h157l-224 -327h-185z" />
<glyph unicode="&#x149;" horiz-adv-x="1241" d="M-77 1017l113 445h203l-163 -445h-153zM197 0v1024h233v-170h4q115 194 332 194q167 0 255 -108.5t88 -313.5v-626h-232v577q0 287 -203 287q-106 0 -175 -79.5t-69 -200.5v-584h-233z" />
<glyph unicode="&#x14a;" horiz-adv-x="1571" d="M177 0v1434h276l662 -979q2 -2 53 -96h4q-9 66 -9 202v873h229v-1357q0 -499 -378 -499q-93 0 -167 32v203q77 -41 140 -41q174 0 174 229l-715 1053q-21 30 -43 83h-6q9 -49 9 -182v-955h-229z" />
<glyph unicode="&#x14b;" horiz-adv-x="1195" d="M151 0v1024h233v-170h4q116 194 332 194q344 0 344 -415v-590q0 -465 -381 -465q-85 0 -154 31v202q72 -41 131 -41q172 0 172 254v539q0 301 -208 301q-103 0 -171.5 -79.5t-68.5 -200.5v-584h-233z" />
<glyph unicode="&#x14c;" d="M85 700q0 346 190 552t516 206q302 0 486.5 -200t184.5 -523q0 -351 -189 -555t-505 -204q-310 0 -496.5 201t-186.5 523zM335 715q0 -239 120 -385t314 -146q206 0 325 139t119 389q0 257 -115.5 397t-318.5 140q-197 0 -320.5 -147t-123.5 -387zM505 1566v137h543v-137 h-543z" />
<glyph unicode="&#x14d;" horiz-adv-x="1223" d="M85 500q0 258 147.5 403t397.5 145q240 0 374 -141t134 -391q0 -245 -144.5 -392.5t-388.5 -147.5q-237 0 -378.5 143.5t-141.5 380.5zM322 506q0 -161 80 -253.5t214 -92.5q137 0 210.5 91t73.5 259q0 169 -73.5 261t-210.5 92q-136 0 -215 -95t-79 -262zM345 1204v137 h543v-137h-543z" />
<glyph unicode="&#x14e;" d="M85 700q0 346 190 552t516 206q302 0 486.5 -200t184.5 -523q0 -351 -189 -555t-505 -204q-310 0 -496.5 201t-186.5 523zM335 715q0 -239 120 -385t314 -146q206 0 325 139t119 389q0 257 -115.5 397t-318.5 140q-197 0 -320.5 -147t-123.5 -387zM476 1843h136 q12 -146 166 -146q65 0 111 39.5t56 106.5h137q-11 -124 -97.5 -200t-209.5 -76q-130 0 -211.5 75.5t-87.5 200.5z" />
<glyph unicode="&#x14f;" horiz-adv-x="1223" d="M85 500q0 258 147.5 403t397.5 145q240 0 374 -141t134 -391q0 -245 -144.5 -392.5t-388.5 -147.5q-237 0 -378.5 143.5t-141.5 380.5zM319 1480h136q12 -146 166 -146q65 0 111 39.5t56 106.5h137q-11 -124 -97.5 -200t-209.5 -76q-130 0 -211.5 75.5t-87.5 200.5z M322 506q0 -161 80 -253.5t214 -92.5q137 0 210.5 91t73.5 259q0 169 -73.5 261t-210.5 92q-136 0 -215 -95t-79 -262z" />
<glyph unicode="&#x150;" d="M85 700q0 346 190 552t516 206q302 0 486.5 -200t184.5 -523q0 -351 -189 -555t-505 -204q-310 0 -496.5 201t-186.5 523zM335 715q0 -239 120 -385t314 -146q206 0 325 139t119 389q0 257 -115.5 397t-318.5 140q-197 0 -320.5 -147t-123.5 -387zM497 1567l208 318h183 l-243 -318h-148zM798 1567l211 318h185l-248 -318h-148z" />
<glyph unicode="&#x151;" horiz-adv-x="1223" d="M85 500q0 258 147.5 403t397.5 145q240 0 374 -141t134 -391q0 -245 -144.5 -392.5t-388.5 -147.5q-237 0 -378.5 143.5t-141.5 380.5zM322 506q0 -161 80 -253.5t214 -92.5q137 0 210.5 91t73.5 259q0 169 -73.5 261t-210.5 92q-136 0 -215 -95t-79 -262zM331 1204 l208 318h183l-243 -318h-148zM632 1204l211 318h185l-248 -318h-148z" />
<glyph unicode="&#x152;" horiz-adv-x="1915" d="M85 700q0 346 192 552t522 206q92 0 182 -10q114 -14 116 -14h703v-202h-535v-408h496v-202h-496v-421h567v-201h-735q-17 0 -141 -14q-100 -10 -186 -10q-316 0 -500.5 201t-184.5 523zM336 715q0 -233 121.5 -382t318.5 -149q105 0 247 41v985q-144 39 -241 39 q-199 0 -322.5 -150t-123.5 -384z" />
<glyph unicode="&#x153;" horiz-adv-x="1897" d="M85 498q0 258 145 404t390 146q287 0 393 -208h4q122 208 394 208q198 0 308.5 -136.5t110.5 -371.5v-92h-700q3 -142 85.5 -219t225.5 -77q169 0 308 98v-187q-134 -87 -353 -87q-272 0 -385 214h-4q-130 -213 -413 -213q-234 0 -371.5 142.5t-137.5 378.5zM322 502 q0 -158 79.5 -249.5t213.5 -91.5q136 0 210.5 90.5t74.5 256.5q0 171 -74 263t-209 92q-136 0 -215.5 -96t-79.5 -265zM1131 612h474q-2 125 -59.5 194.5t-157.5 69.5q-102 0 -172.5 -75t-84.5 -189z" />
<glyph unicode="&#x154;" horiz-adv-x="1275" d="M177 0v1434h472q101 0 186 -24t148 -72.5t98.5 -121t35.5 -169.5q0 -76 -22.5 -139.5t-64 -113t-100 -84.5t-131.5 -54v-4q39 -22 68 -48.5t55 -54.5t51.5 -63.5t56.5 -82.5l255 -403h-278l-229 384q-31 53 -60.5 90.5t-60 61.5t-66.5 35t-81 11h-96v-582h-237zM414 775 h198q55 0 101.5 17t80.5 49t53 78t19 103q0 103 -65 161t-187 58h-200v-466zM475 1580l242 328h216l-286 -328h-172z" />
<glyph unicode="&#x155;" horiz-adv-x="758" d="M151 0v1024h232v-211h4q34 108 104.5 168.5t157.5 60.5q63 0 96 -19v-220q-42 33 -121 33q-103 0 -172 -93t-69 -253v-490h-232zM279 1218l242 328h216l-286 -328h-172z" />
<glyph unicode="&#x156;" horiz-adv-x="1275" d="M177 0v1434h472q101 0 186 -24t148 -72.5t98.5 -121t35.5 -169.5q0 -76 -22.5 -139.5t-64 -113t-100 -84.5t-131.5 -54v-4q39 -22 68 -48.5t55 -54.5t51.5 -63.5t56.5 -82.5l255 -403h-278l-229 384q-31 53 -60.5 90.5t-60 61.5t-66.5 35t-81 11h-96v-582h-237zM414 775 h198q55 0 101.5 17t80.5 49t53 78t19 103q0 103 -65 161t-187 58h-200v-466zM479 -420l105 302h217l-167 -302h-155z" />
<glyph unicode="&#x157;" horiz-adv-x="758" d="M151 0v1024h232v-211h4q34 108 104.5 168.5t157.5 60.5q63 0 96 -19v-220q-42 33 -121 33q-103 0 -172 -93t-69 -253v-490h-232zM240 -420l105 302h217l-167 -302h-155z" />
<glyph unicode="&#x158;" horiz-adv-x="1275" d="M177 0v1434h472q101 0 186 -24t148 -72.5t98.5 -121t35.5 -169.5q0 -76 -22.5 -139.5t-64 -113t-100 -84.5t-131.5 -54v-4q39 -22 68 -48.5t55 -54.5t51.5 -63.5t56.5 -82.5l255 -403h-278l-229 384q-31 53 -60.5 90.5t-60 61.5t-66.5 35t-81 11h-96v-582h-237zM305 1893 h155l160 -210l161 210h157l-224 -327h-185zM414 775h198q55 0 101.5 17t80.5 49t53 78t19 103q0 103 -65 161t-187 58h-200v-466z" />
<glyph unicode="&#x159;" horiz-adv-x="758" d="M113 1531h155l160 -210l161 210h157l-224 -327h-185zM151 0v1024h232v-211h4q34 108 104.5 168.5t157.5 60.5q63 0 96 -19v-220q-42 33 -121 33q-103 0 -172 -93t-69 -253v-490h-232z" />
<glyph unicode="&#x15a;" horiz-adv-x="1115" d="M110 1064q0 101 45.5 175.5t120 123t169.5 72t194 23.5q225 0 328 -51v-235q-122 88 -314 88q-53 0 -105.5 -10t-94 -33t-67.5 -59t-26 -87q0 -48 20 -83t58.5 -64t94 -56.5t128.5 -59.5q75 -39 141.5 -82t117 -95t80 -115.5t29.5 -144.5q0 -109 -44 -184t-118.5 -122 t-171.5 -68t-205 -21q-36 0 -88.5 5.5t-107.5 16t-104 25.5t-79 34v245q33 -30 78.5 -54t96.5 -40.5t102 -25.5t94 -9q150 0 223.5 50t73.5 145q0 51 -24.5 88.5t-68.5 68.5t-103.5 59.5t-127.5 59.5q-73 39 -136 79t-109.5 88.5t-73 109.5t-26.5 143zM400 1580l242 328h216 l-286 -328h-172z" />
<glyph unicode="&#x15b;" horiz-adv-x="883" d="M87 32v215q130 -99 287 -99q210 0 210 124q0 35 -18 59.5t-48.5 43.5t-72 34t-92.5 34q-63 25 -113.5 53t-84 63.5t-50.5 80.5t-17 105q0 74 35 130.5t94 95t134 58t155 19.5q142 0 254 -43v-203q-108 74 -248 74q-44 0 -79.5 -9t-60.5 -25t-39 -38.5t-14 -49.5 q0 -33 14 -56t41.5 -40.5t66 -32t88.5 -31.5q66 -27 118.5 -55t89.5 -63.5t57 -82t20 -110.5q0 -78 -36 -136t-96 -96t-138.5 -56.5t-165.5 -18.5q-168 0 -291 56zM303 1218l242 328h216l-286 -328h-172z" />
<glyph unicode="&#x15c;" horiz-adv-x="1115" d="M110 1064q0 101 45.5 175.5t120 123t169.5 72t194 23.5q225 0 328 -51v-235q-122 88 -314 88q-53 0 -105.5 -10t-94 -33t-67.5 -59t-26 -87q0 -48 20 -83t58.5 -64t94 -56.5t128.5 -59.5q75 -39 141.5 -82t117 -95t80 -115.5t29.5 -144.5q0 -109 -44 -184t-118.5 -122 t-171.5 -68t-205 -21q-36 0 -88.5 5.5t-107.5 16t-104 25.5t-79 34v245q33 -30 78.5 -54t96.5 -40.5t102 -25.5t94 -9q150 0 223.5 50t73.5 145q0 51 -24.5 88.5t-68.5 68.5t-103.5 59.5t-127.5 59.5q-73 39 -136 79t-109.5 88.5t-73 109.5t-26.5 143zM253 1566l224 328h184 l225 -328h-160l-161 211l-157 -211h-155z" />
<glyph unicode="&#x15d;" horiz-adv-x="883" d="M87 32v215q130 -99 287 -99q210 0 210 124q0 35 -18 59.5t-48.5 43.5t-72 34t-92.5 34q-63 25 -113.5 53t-84 63.5t-50.5 80.5t-17 105q0 74 35 130.5t94 95t134 58t155 19.5q142 0 254 -43v-203q-108 74 -248 74q-44 0 -79.5 -9t-60.5 -25t-39 -38.5t-14 -49.5 q0 -33 14 -56t41.5 -40.5t66 -32t88.5 -31.5q66 -27 118.5 -55t89.5 -63.5t57 -82t20 -110.5q0 -78 -36 -136t-96 -96t-138.5 -56.5t-165.5 -18.5q-168 0 -291 56zM129 1204l224 328h184l225 -328h-160l-161 211l-157 -211h-155z" />
<glyph unicode="&#x15e;" horiz-adv-x="1115" d="M110 1064q0 101 45.5 175.5t120 123t169.5 72t194 23.5q225 0 328 -51v-235q-122 88 -314 88q-53 0 -105.5 -10t-94 -33t-67.5 -59t-26 -87q0 -48 20 -83t58.5 -64t94 -56.5t128.5 -59.5q75 -39 141.5 -82t117 -95t80 -115.5t29.5 -144.5q0 -109 -44 -184t-118.5 -122 t-171.5 -68t-205 -21q-36 0 -88.5 5.5t-107.5 16t-104 25.5t-79 34v245q33 -30 78.5 -54t96.5 -40.5t102 -25.5t94 -9q150 0 223.5 50t73.5 145q0 51 -24.5 88.5t-68.5 68.5t-103.5 59.5t-127.5 59.5q-73 39 -136 79t-109.5 88.5t-73 109.5t-26.5 143zM421 -328q44 -6 71 -6 q133 0 133 82q0 74 -121 74q-10 0 -39 -4v182h136v-94q87 0 138 -40.5t51 -113.5q0 -194 -288 -194q-47 0 -81 3v111z" />
<glyph unicode="&#x15f;" horiz-adv-x="883" d="M87 32v215q130 -99 287 -99q210 0 210 124q0 35 -18 59.5t-48.5 43.5t-72 34t-92.5 34q-63 25 -113.5 53t-84 63.5t-50.5 80.5t-17 105q0 74 35 130.5t94 95t134 58t155 19.5q142 0 254 -43v-203q-108 74 -248 74q-44 0 -79.5 -9t-60.5 -25t-39 -38.5t-14 -49.5 q0 -33 14 -56t41.5 -40.5t66 -32t88.5 -31.5q66 -27 118.5 -55t89.5 -63.5t57 -82t20 -110.5q0 -78 -36 -136t-96 -96t-138.5 -56.5t-165.5 -18.5q-168 0 -291 56zM296 -328q44 -6 71 -6q133 0 133 82q0 74 -121 74q-10 0 -39 -4v182h136v-94q87 0 138 -40.5t51 -113.5 q0 -194 -288 -194q-47 0 -81 3v111z" />
<glyph unicode="&#x160;" horiz-adv-x="1115" d="M110 1064q0 101 45.5 175.5t120 123t169.5 72t194 23.5q225 0 328 -51v-235q-122 88 -314 88q-53 0 -105.5 -10t-94 -33t-67.5 -59t-26 -87q0 -48 20 -83t58.5 -64t94 -56.5t128.5 -59.5q75 -39 141.5 -82t117 -95t80 -115.5t29.5 -144.5q0 -109 -44 -184t-118.5 -122 t-171.5 -68t-205 -21q-36 0 -88.5 5.5t-107.5 16t-104 25.5t-79 34v245q33 -30 78.5 -54t96.5 -40.5t102 -25.5t94 -9q150 0 223.5 50t73.5 145q0 51 -24.5 88.5t-68.5 68.5t-103.5 59.5t-127.5 59.5q-73 39 -136 79t-109.5 88.5t-73 109.5t-26.5 143zM258 1881h155 l160 -210l161 210h157l-224 -327h-185z" />
<glyph unicode="&#x161;" horiz-adv-x="883" d="M87 32v215q130 -99 287 -99q210 0 210 124q0 35 -18 59.5t-48.5 43.5t-72 34t-92.5 34q-63 25 -113.5 53t-84 63.5t-50.5 80.5t-17 105q0 74 35 130.5t94 95t134 58t155 19.5q142 0 254 -43v-203q-108 74 -248 74q-44 0 -79.5 -9t-60.5 -25t-39 -38.5t-14 -49.5 q0 -33 14 -56t41.5 -40.5t66 -32t88.5 -31.5q66 -27 118.5 -55t89.5 -63.5t57 -82t20 -110.5q0 -78 -36 -136t-96 -96t-138.5 -56.5t-165.5 -18.5q-168 0 -291 56zM159 1531h155l160 -210l161 210h157l-224 -327h-185z" />
<glyph unicode="&#x162;" horiz-adv-x="1130" d="M36 1232v202h1061v-202h-412v-1232h-238v1232h-411zM424 -328q44 -6 71 -6q133 0 133 82q0 74 -121 74q-10 0 -39 -4v182h136v-94q87 0 138 -40.5t51 -113.5q0 -194 -288 -194q-47 0 -81 3v111z" />
<glyph unicode="&#x163;" horiz-adv-x="740" d="M43 842v182h171v237l232 66v-303h245v-182h-245v-512q0 -91 33 -130t110 -39q59 0 102 34v-184q-68 -34 -179 -34q-298 0 -298 286v579h-171zM331 -328q44 -6 71 -6q133 0 133 82q0 74 -121 74q-10 0 -39 -4v182h136v-94q87 0 138 -40.5t51 -113.5q0 -194 -288 -194 q-47 0 -81 3v111z" />
<glyph unicode="&#x164;" horiz-adv-x="1130" d="M36 1232v202h1061v-202h-412v-1232h-238v1232h-411zM250 1893h155l160 -210l161 210h157l-224 -327h-185z" />
<glyph unicode="&#x165;" horiz-adv-x="846" d="M43 842v182h171v237l232 66v-303h245v-182h-245v-512q0 -91 33 -130t110 -39q59 0 102 34v-184q-68 -34 -179 -34q-298 0 -298 286v579h-171zM637 1132l105 302h217l-167 -302h-155z" />
<glyph unicode="&#x166;" horiz-adv-x="1130" d="M36 1232v202h1061v-202h-412v-432h242v-205h-242v-595h-238v595h-244v205h244v432h-411z" />
<glyph unicode="&#x167;" horiz-adv-x="740" d="M42 842v182h171v234q0 2 113 36l119 36v-306h245v-182h-245v-177h235v-166h-235v-169q0 -91 32 -130t108 -39q59 0 105 32v-183q-68 -33 -179 -33q-298 0 -298 286v236h-155v166h155v177h-171z" />
<glyph unicode="&#x168;" horiz-adv-x="1440" d="M160 557v877h238v-828q0 -422 328 -422q316 0 316 407v843h238v-854q0 -604 -572 -604q-548 0 -548 581zM383 1534q0 119 51 190.5t143 71.5q68 0 157 -51q72 -44 125 -44q81 0 81 114h119q0 -116 -51.5 -189.5t-139.5 -73.5q-72 0 -165 48q-78 45 -121 45 q-84 0 -84 -111h-115z" />
<glyph unicode="&#x169;" horiz-adv-x="1195" d="M131 412v612h232v-588q0 -276 213 -276q103 0 169.5 76t66.5 199v589h232v-1024h-232v162h-4q-101 -186 -314 -186q-363 0 -363 436zM253 1194q0 119 51 190.5t143 71.5q68 0 157 -51q72 -44 125 -44q81 0 81 114h119q0 -116 -51.5 -189.5t-139.5 -73.5q-72 0 -165 48 q-78 45 -121 45q-84 0 -84 -111h-115z" />
<glyph unicode="&#x16a;" horiz-adv-x="1440" d="M160 557v877h238v-828q0 -422 328 -422q316 0 316 407v843h238v-854q0 -604 -572 -604q-548 0 -548 581zM446 1566v137h543v-137h-543z" />
<glyph unicode="&#x16b;" horiz-adv-x="1195" d="M131 412v612h232v-588q0 -276 213 -276q103 0 169.5 76t66.5 199v589h232v-1024h-232v162h-4q-101 -186 -314 -186q-363 0 -363 436zM317 1204v137h543v-137h-543z" />
<glyph unicode="&#x16c;" horiz-adv-x="1440" d="M160 557v877h238v-828q0 -422 328 -422q316 0 316 407v843h238v-854q0 -604 -572 -604q-548 0 -548 581zM414 1842h136q12 -146 166 -146q65 0 111 39.5t56 106.5h137q-11 -124 -97.5 -200t-209.5 -76q-130 0 -211.5 75.5t-87.5 200.5z" />
<glyph unicode="&#x16d;" horiz-adv-x="1195" d="M131 412v612h232v-588q0 -276 213 -276q103 0 169.5 76t66.5 199v589h232v-1024h-232v162h-4q-101 -186 -314 -186q-363 0 -363 436zM285 1480h136q12 -146 166 -146q65 0 111 39.5t56 106.5h137q-11 -124 -97.5 -200t-209.5 -76q-130 0 -211.5 75.5t-87.5 200.5z" />
<glyph unicode="&#x16e;" horiz-adv-x="1440" d="M160 557v877h238v-828q0 -422 328 -422q316 0 316 407v843h238v-854q0 -604 -572 -604q-548 0 -548 581zM488 1762q0 98 63 156t161 58q96 0 157.5 -58.5t61.5 -149.5q0 -87 -65.5 -144.5t-160.5 -57.5q-94 0 -155.5 54t-61.5 142zM601 1772q0 -104 104 -104 q48 0 79.5 29.5t31.5 74.5t-31.5 74.5t-79.5 29.5q-45 0 -74.5 -30t-29.5 -74z" />
<glyph unicode="&#x16f;" horiz-adv-x="1195" d="M131 412v612h232v-588q0 -276 213 -276q103 0 169.5 76t66.5 199v589h232v-1024h-232v162h-4q-101 -186 -314 -186q-363 0 -363 436zM369 1376q0 98 63 156t161 58q96 0 157.5 -58.5t61.5 -149.5q0 -87 -65.5 -144.5t-160.5 -57.5q-94 0 -155.5 54t-61.5 142zM482 1386 q0 -104 104 -104q48 0 79.5 29.5t31.5 74.5t-31.5 74.5t-79.5 29.5q-45 0 -74.5 -30t-29.5 -74z" />
<glyph unicode="&#x170;" horiz-adv-x="1440" d="M160 557v877h238v-828q0 -422 328 -422q316 0 316 407v843h238v-854q0 -604 -572 -604q-548 0 -548 581zM463 1566l208 318h183l-243 -318h-148zM764 1566l211 318h185l-248 -318h-148z" />
<glyph unicode="&#x171;" horiz-adv-x="1195" d="M131 412v612h232v-588q0 -276 213 -276q103 0 169.5 76t66.5 199v589h232v-1024h-232v162h-4q-101 -186 -314 -186q-363 0 -363 436zM315 1204l208 318h183l-243 -318h-148zM616 1204l211 318h185l-248 -318h-148z" />
<glyph unicode="&#x172;" horiz-adv-x="1440" d="M160 557v877h238v-828q0 -422 328 -422q316 0 316 407v843h238v-854q0 -604 -572 -604q-548 0 -548 581zM599 -250q0 122 161 250h135q-151 -137 -151 -216q0 -68 65 -68q36 0 68 13v-121q-38 -16 -105 -16q-78 0 -125.5 42t-47.5 116z" />
<glyph unicode="&#x173;" horiz-adv-x="1195" d="M131 412v612h232v-588q0 -276 213 -276q103 0 169.5 76t66.5 199v589h232v-1024h-232v162h-4q-101 -186 -314 -186q-363 0 -363 436zM653 -250q0 122 161 250h135q-151 -137 -151 -216q0 -68 65 -68q36 0 68 13v-121q-38 -16 -105 -16q-78 0 -125.5 42t-47.5 116z" />
<glyph unicode="&#x174;" horiz-adv-x="1978" d="M22 1434h261l260 -1050q16 -66 20 -138h5q4 51 28 138l294 1050h245l272 -1058q14 -54 21 -128h4q3 50 23 132l255 1054h246l-393 -1434h-269l-273 1003q-17 64 -21 140h-4q-5 -71 -24 -138l-274 -1005h-275zM684 1566l224 328h184l225 -328h-160l-161 211l-157 -211 h-155z" />
<glyph unicode="&#x175;" horiz-adv-x="1549" d="M20 1024h240l186 -738q9 -33 12 -88h7q3 42 16 90l207 736h218l184 -741q9 -35 13 -88h7q2 37 15 88l182 741h221l-302 -1024h-243l-186 694q-11 40 -14 90h-4q-2 -34 -18 -88l-202 -696h-238zM467 1204l224 328h184l225 -328h-160l-161 211l-157 -211h-155z" />
<glyph unicode="&#x176;" horiz-adv-x="1182" d="M10 1434h271l282 -615q5 -11 30 -83h3q9 32 33 83l295 615h252l-470 -913v-521h-238v516zM277 1566l224 328h184l225 -328h-160l-161 211l-157 -211h-155z" />
<glyph unicode="&#x177;" horiz-adv-x="1041" d="M6 1024h257l244 -744q4 -14 18 -74h5q5 23 18 72l256 746h234l-462 -1188q-144 -318 -404 -318q-73 0 -122 13v193q55 -18 100 -18q130 0 194 128l69 168zM214 1204l224 328h184l225 -328h-160l-161 211l-157 -211h-155z" />
<glyph unicode="&#x178;" horiz-adv-x="1182" d="M10 1434h271l282 -615q5 -11 30 -83h3q9 32 33 83l295 615h252l-470 -913v-521h-238v516zM260 1682q0 49 35.5 82t86.5 33t88.5 -33.5t37.5 -81.5q0 -49 -36 -83t-86 -34q-52 0 -89 34.5t-37 82.5zM679 1682q0 49 35 82t85 33q53 0 89.5 -33.5t36.5 -81.5q0 -49 -35 -83 t-88 -34q-50 0 -86.5 33t-36.5 84z" />
<glyph unicode="&#x179;" horiz-adv-x="1202" d="M36 0v109l789 1123h-728v202h1058v-104l-786 -1129h776v-201h-1109zM482 1581l242 328h216l-286 -328h-172z" />
<glyph unicode="&#x17a;" horiz-adv-x="951" d="M29 0v87l565 756h-511v181h824v-97l-553 -746h551v-181h-876zM357 1218l242 328h216l-286 -328h-172z" />
<glyph unicode="&#x17b;" horiz-adv-x="1202" d="M36 0v109l789 1123h-728v202h1058v-104l-786 -1129h776v-201h-1109zM491 1681q0 48 36 81t87 33t87 -32.5t36 -81.5q0 -48 -36 -82t-87 -34q-50 0 -86.5 33.5t-36.5 82.5z" />
<glyph unicode="&#x17c;" horiz-adv-x="951" d="M29 0v87l565 756h-511v181h824v-97l-553 -746h551v-181h-876zM373 1319q0 48 36 81t87 33t87 -32.5t36 -81.5q0 -48 -36 -82t-87 -34q-50 0 -86.5 33.5t-36.5 82.5z" />
<glyph unicode="&#x17d;" horiz-adv-x="1202" d="M36 0v109l789 1123h-728v202h1058v-104l-786 -1129h776v-201h-1109zM307 1878h155l160 -210l161 210h157l-224 -327h-185z" />
<glyph unicode="&#x17e;" horiz-adv-x="951" d="M29 0v87l565 756h-511v181h824v-97l-553 -746h551v-181h-876zM189 1531h155l160 -210l161 210h157l-224 -327h-185z" />
<glyph unicode="&#x17f;" horiz-adv-x="548" d="M151 0v1172q0 168 103 267q103 100 267 100q82 0 137 -19v-192q-54 26 -112 26q-162 0 -162 -194v-1160h-233z" />
<glyph unicode="&#x180;" horiz-adv-x="1234" d="M10 1189v169h141v158h231v-158h241v-169h-241v-334h4q116 191 339 191q197 0 310 -136t113 -369q0 -257 -122 -410.5t-336 -153.5q-197 0 -304 157h-4v-134h-231v1189h-141zM380 430q0 -113 71 -191.5t181 -78.5q129 0 203.5 100t74.5 276q0 153 -69 240t-188 87 q-123 0 -198 -87.5t-75 -219.5v-126z" />
<glyph unicode="&#x181;" horiz-adv-x="1421" d="M-67 1067q0 158 113 262.5t300 104.5h461q211 0 335 -92t124 -240q0 -120 -69.5 -208t-192.5 -125v-4q148 -17 237 -108.5t89 -237.5q0 -187 -139.5 -303t-352.5 -116h-478v1243h-26q-89 0 -137.5 -48.5t-48.5 -129.5q0 -62 21 -120h-215q-21 56 -21 122zM598 190h204 q132 0 205 62t73 170q0 222 -296 222h-186v-454zM598 835h158q121 0 190 58t69 164q0 186 -245 186h-172v-408z" />
<glyph unicode="&#x182;" horiz-adv-x="1236" d="M177 0v1434h836v-204h-598v-391h278q218 0 339.5 -104t121.5 -295q0 -204 -130.5 -322t-355.5 -118h-491zM415 190h215q131 0 202 62t71 173q0 225 -277 225h-211v-460z" />
<glyph unicode="&#x183;" horiz-adv-x="1234" d="M151 0v1516h856v-170h-625v-491h4q118 193 345 193q195 0 306 -137t111 -370q0 -256 -124 -410.5t-340 -154.5q-193 0 -298 158h-4v-134h-231zM380 429q0 -112 70.5 -190.5t181.5 -78.5q128 0 203 100.5t75 275.5q0 150 -69 238.5t-188 88.5q-121 0 -197 -89.5 t-76 -224.5v-120z" />
<glyph unicode="&#x184;" horiz-adv-x="1242" d="M10 1231v25l381 202h24v-620h275q220 0 342 -103t122 -295q0 -204 -130.5 -322t-355.5 -118h-491v1085zM415 189h215q131 0 201.5 62.5t70.5 173.5q0 226 -267 226h-220v-462z" />
<glyph unicode="&#x185;" horiz-adv-x="1234" d="M-14 1287v28l372 200h24v-660h4q119 190 347 190q194 0 304.5 -136t110.5 -368q0 -255 -124.5 -409t-341.5 -154q-192 0 -296 156h-4v-134h-231v1146zM380 430q0 -113 71 -191.5t181 -78.5q129 0 203.5 100t74.5 276q0 153 -69 240t-188 87q-123 0 -198 -87.5t-75 -219.5 v-126z" />
<glyph unicode="&#x186;" horiz-adv-x="1274" d="M98 32v238q151 -86 334 -86q226 0 367 149t141 396q0 239 -132.5 379.5t-348.5 140.5q-209 0 -361 -94v223q162 80 404 80q311 0 499 -196.5t188 -515.5q0 -345 -209.5 -557.5t-535.5 -212.5q-209 0 -346 56z" />
<glyph unicode="&#x187;" horiz-adv-x="1274" d="M85 688q0 344 208.5 557t530.5 213q87 0 176 -24q3 93 79 160.5t194 67.5q57 0 113 -20v-189q-48 23 -89 23q-127 0 -127 -167q0 -59 14 -145l-9 -6q-167 91 -353 91q-216 0 -351.5 -149t-135.5 -396q0 -238 132.5 -379t347.5 -141q209 0 362 94v-222q-162 -80 -403 -80 q-313 0 -501 196.5t-188 515.5z" />
<glyph unicode="&#x188;" horiz-adv-x="968" d="M85 489q0 240 148 399.5t384 159.5q65 0 122 -15q2 87 70.5 147.5t171.5 60.5q47 0 102 -19v-173q-40 21 -77 21q-119 0 -119 -155q0 -78 9 -121l-8 -5q-136 74 -251 74q-140 0 -227.5 -98t-87.5 -261q0 -160 86.5 -252t232.5 -92q129 0 243 82v-200q-123 -66 -293 -66 q-229 0 -367.5 142.5t-138.5 370.5z" />
<glyph unicode="&#x189;" horiz-adv-x="1469" d="M15 616v205h162v613h414q793 0 793 -699q0 -334 -220 -534.5t-590 -200.5h-397v616h-162zM414 201h190q251 0 390.5 138t139.5 392q0 501 -521 501h-199v-411h307v-205h-307v-415z" />
<glyph unicode="&#x18a;" horiz-adv-x="1653" d="M-69 1079q0 153 113.5 254t301.5 101h418q803 0 803 -699q0 -332 -209 -533.5t-561 -201.5h-437v1232h-26q-89 0 -137.5 -47t-48.5 -125q0 -60 21 -115h-215q-23 62 -23 134zM598 201h190q251 0 390 138t139 392q0 501 -520 501h-199v-1031z" />
<glyph unicode="&#x18b;" horiz-adv-x="1236" d="M82 400q0 200 135.5 319t364.5 119h238v391h-599v205h837v-1434h-502q-230 0 -352 103t-122 297zM333 413q0 -226 268 -226h219v463h-212q-275 0 -275 -237z" />
<glyph unicode="&#x18c;" horiz-adv-x="1234" d="M85 488q0 254 127.5 407t340.5 153q202 0 294 -155h4v453h-625v170h856v-1516h-231v159h-4q-109 -183 -336 -183q-194 0 -310 137.5t-116 374.5zM322 496q0 -156 71.5 -246t192.5 -90q119 0 193 86.5t74 217.5v132q0 112 -72 189.5t-182 77.5q-129 0 -203 -97.5 t-74 -269.5z" />
<glyph unicode="&#x18d;" horiz-adv-x="1230" d="M85 557q0 212 151 351.5t388 139.5q231 0 375.5 -134t144.5 -336q0 -273 -348 -482q108 -81 146 -142t38 -139q0 -126 -115.5 -211t-298.5 -85q-184 0 -337 79v223q153 -112 328 -112q188 0 188 112q0 46 -43 87.5t-238 147.5q-205 122 -292 241t-87 260zM322 571 q0 -95 57 -177.5t244 -193.5q163 96 223.5 183.5t60.5 187.5q0 134 -79.5 213t-212.5 79q-132 0 -212.5 -79.5t-80.5 -212.5z" />
<glyph unicode="&#x18e;" horiz-adv-x="1061" d="M79 0v201h567v414h-496v202h496v415h-534v202h772v-1434h-805z" />
<glyph unicode="&#x18f;" horiz-adv-x="1512" d="M82 819h1090q-16 202 -148.5 319t-337.5 117q-235 0 -405 -121v219q178 105 432 105q333 0 523.5 -195t190.5 -538q0 -325 -190 -537t-505 -212q-312 0 -481 214t-169 629zM338 620q4 -202 110.5 -322.5t289.5 -120.5q185 0 300.5 120t133.5 323h-834z" />
<glyph unicode="&#x190;" horiz-adv-x="1124" d="M96 388q0 130 81 226.5t225 133.5v6q-256 78 -256 311q0 170 148 281.5t383 111.5q182 0 330 -66v-221q-151 78 -324 78q-131 0 -210 -54t-79 -145q0 -92 96 -152.5t258 -60.5h99v-204h-102q-398 0 -398 -227q0 -104 89 -163t242 -59q196 0 360 84v-220 q-167 -72 -376 -72q-263 0 -414.5 112.5t-151.5 299.5z" />
<glyph unicode="&#x191;" horiz-adv-x="1030" d="M-106 -146q51 -29 114 -29q169 0 169 229v1380h773v-202h-536v-432h495v-201h-495v-546q0 -436 -382 -436q-75 0 -138 23v214z" />
<glyph unicode="&#x192;" horiz-adv-x="1137" d="M87 -84q34 -21 82 -21q144 0 181 270l88 590h-104v172h133l20 148q20 165 119 264.5t252 99.5q74 0 135 -24v-190q-53 28 -119 28q-138 0 -160 -150l-27 -176h162v-172h-189l-97 -635q-62 -410 -373 -410q-35 0 -103 18v188z" />
<glyph unicode="&#x193;" horiz-adv-x="1435" d="M85 696q0 334 217 548t550 214q111 0 220 -30q3 96 79.5 165t194.5 69q56 0 112 -20v-189q-46 23 -87 23q-130 0 -130 -167q0 -72 15 -155l-8 -6q-191 105 -402 105q-225 0 -367.5 -150.5t-142.5 -392.5q0 -247 129.5 -388t350.5 -141q140 0 243 57v341h-302v200h541 v-682q-224 -121 -500 -121q-319 0 -516 197.5t-197 522.5z" />
<glyph unicode="&#x194;" horiz-adv-x="1315" d="M14 1434h264l334 -927q31 -81 42 -157h6q18 77 45 152l341 932h255l-490 -1250l7 -13q135 -250 135 -370q0 -119 -77.5 -201t-227.5 -82q-125 0 -209.5 80t-84.5 203q0 66 24 130t113 232l9 17zM584 -194q0 -93 69 -93q70 0 70 93q0 64 -70 199q-69 -135 -69 -199z" />
<glyph unicode="&#x195;" horiz-adv-x="1845" d="M151 0v1516h232v-650h4q102 177 313 177q336 0 336 -413v-161q0 -302 220 -302q112 0 179 84.5t67 226.5q0 280 -138 546h245q124 -266 124 -540q0 -229 -135 -368.5t-350 -139.5q-444 0 -444 472v137q0 147 -45 212.5t-152 65.5q-98 0 -161 -77.5t-63 -201.5v-584h-232z " />
<glyph unicode="&#x196;" horiz-adv-x="672" d="M175 329v1105h238v-1110q0 -137 120 -137q51 0 98 25v-204q-81 -29 -161 -29q-295 0 -295 350z" />
<glyph unicode="&#x197;" horiz-adv-x="643" d="M41 622v209h161v603h238v-603h162v-209h-162v-622h-238v622h-161z" />
<glyph unicode="&#x198;" horiz-adv-x="1251" d="M177 0v1434h237v-671h5l308 418q137 187 209 232t162 45q62 0 123 -26v-214q-50 30 -105 30q-71 0 -175 -140l-281 -366l602 -742h-312l-497 649q-28 36 -34 49h-5v-698h-237z" />
<glyph unicode="&#x199;" horiz-adv-x="1076" d="M151 0v1172q0 167 97 266.5t248 99.5q85 0 141 -20v-192q-55 27 -108 27q-146 0 -146 -186v-614h4l374 471h287l-427 -489l459 -535h-294l-399 499h-4v-499h-232z" />
<glyph unicode="&#x19a;" horiz-adv-x="573" d="M20 699v169h150v648h233v-648h149v-169h-149v-699h-233v699h-150z" />
<glyph unicode="&#x19b;" horiz-adv-x="1067" d="M1 0l456 1011l-17 45l-249 -122l-65 128l267 128q-50 124 -146 124q-66 0 -130 -27v206q74 20 160 20q114 0 184 -50.5t129 -177.5l222 108l63 -127l-233 -113l398 -1153h-245l-244 774l-299 -774h-251z" />
<glyph unicode="&#x19c;" horiz-adv-x="1901" d="M173 438v996h237v-939q0 -157 44.5 -231.5t153.5 -74.5q92 0 156.5 86.5t64.5 207.5v951h238v-972q0 -270 189 -270q99 0 163.5 82t64.5 212v948h239v-1434h-236v173h-4q-111 -197 -328 -197q-221 0 -295 215q-115 -215 -346 -215q-341 0 -341 462z" />
<glyph unicode="&#x19d;" horiz-adv-x="1571" d="M-106 -144q51 -28 114 -28q169 0 169 258v1348h276l662 -1030q41 -64 53 -88h4q-9 57 -9 193v925h231v-1434h-261l-687 1054q-26 40 -43 83h-6q9 -42 9 -181v-901q0 -435 -374 -435q-75 0 -138 23v213z" />
<glyph unicode="&#x19e;" horiz-adv-x="1204" d="M131 1024h235q17 -69 17 -169h2q110 193 335 193q166 0 254.5 -107.5t88.5 -311.5v-1063h-234v1004q0 287 -205 287q-106 0 -173.5 -84.5t-67.5 -211.5v-561h-232v669q0 257 -20 355z" />
<glyph unicode="&#x19f;" d="M85 699q0 346 189.5 552.5t515.5 206.5q303 0 488 -201t185 -526q0 -349 -189.5 -552t-507.5 -203q-309 0 -495 200.5t-186 522.5zM342 617q18 -199 134.5 -316t293.5 -117q190 0 306 113.5t132 319.5h-866zM342 812h865q-16 209 -128 323t-299 114q-181 0 -300 -119 t-138 -318z" />
<glyph unicode="&#x1a0;" horiz-adv-x="1575" d="M85 700q0 346 189.5 552t515.5 206q213 0 371 -102q48 -10 80 -10q204 0 204 131q0 67 -20 121h161q21 -54 21 -134q0 -110 -70 -178.5t-192 -68.5h-34q152 -192 152 -482q0 -351 -189.5 -555t-507.5 -204q-309 0 -495 201t-186 523zM334 715q0 -239 120 -385t312 -146 q208 0 327.5 139t119.5 389q0 257 -116 397t-319 140q-198 0 -321 -147.5t-123 -386.5z" />
<glyph unicode="&#x1a1;" horiz-adv-x="1253" d="M85 500q0 258 146 403t394 145q45 0 126 -14q57 -10 160 -10q66 0 110.5 38t44.5 92q0 68 -19 122h160q21 -55 21 -134q0 -198 -223 -239q133 -139 133 -387q0 -245 -144.5 -392.5t-387.5 -147.5q-237 0 -379 143.5t-142 380.5zM323 506q0 -161 80 -253.5t214 -92.5 q137 0 210.5 91t73.5 259q0 169 -73.5 261t-211.5 92q-135 0 -214 -95t-79 -262z" />
<glyph unicode="&#x1a2;" horiz-adv-x="2065" d="M85 699q0 332 200.5 545.5t522.5 213.5q120 0 325 -36q204 -37 320 -37q233 0 435 73v-1458h-238v1200q-112 -18 -236 -18q-52 0 -127 9v-1094q-260 -121 -503 -121q-318 0 -508.5 199.5t-190.5 523.5zM336 713q0 -241 126.5 -386.5t333.5 -145.5q135 0 254 48v995 q-170 25 -249 25q-206 0 -335.5 -148t-129.5 -388z" />
<glyph unicode="&#x1a3;" horiz-adv-x="1675" d="M85 503q0 250 152.5 397.5t396.5 147.5q92 0 258 -33t258 -33q189 0 374 66v-1048h-229v813q-80 -16 -153 -16q-71 0 -140 9v-748q-189 -82 -388 -82q-241 0 -385 142t-144 385zM319 508q0 -163 84.5 -255.5t228.5 -92.5q86 0 144 25v660q-97 18 -151 18 q-137 0 -221.5 -94.5t-84.5 -260.5z" />
<glyph unicode="&#x1a4;" horiz-adv-x="1382" d="M-69 1079q0 153 113.5 254t301.5 101h410q266 0 412 -116t146 -326q0 -206 -142.5 -339t-383.5 -133h-190v-520h-238v1238h-26q-89 0 -137.5 -48.5t-48.5 -129.5q0 -60 20 -115h-214q-23 62 -23 134zM598 714h154q313 0 313 269q0 255 -294 255h-173v-524z" />
<glyph unicode="&#x1a5;" horiz-adv-x="1234" d="M151 -471v1643q0 166 94.5 266t243.5 100q89 0 148 -20v-192q-55 27 -108 27q-146 0 -146 -186v-312h4q114 193 343 193q196 0 307 -137t111 -370q0 -257 -124.5 -411t-340.5 -154q-194 0 -296 158h-4v-605h-232zM381 435q0 -114 71 -194.5t181 -80.5q130 0 203.5 100.5 t73.5 280.5q0 151 -69 236.5t-187 85.5q-121 0 -197 -88.5t-76 -223.5v-116z" />
<glyph unicode="&#x1a6;" horiz-adv-x="1235" d="M177 0v1434h237v-172h225q224 0 350 -103.5t126 -280.5q0 -289 -321 -366v-4q100 -58 181 -215l217 -464h-277l-179 413q-81 200 -222 200h-100v-442h-237zM414 634h182q123 0 195.5 57t72.5 160q0 217 -251 217h-199v-434z" />
<glyph unicode="&#x1a7;" horiz-adv-x="1115" d="M87 381q0 82 30.5 144.5t82 114.5t120 94.5t144.5 81.5q71 33 124.5 60t91 56t57 65t19.5 84q0 49 -24.5 83t-63.5 55.5t-88 31t-100 9.5q-203 0 -332 -88v235q105 51 331 51q98 0 193 -24t169 -73.5t119.5 -125.5t45.5 -179q0 -81 -26.5 -140.5t-73.5 -107t-110 -87 t-136 -77.5q-69 -32 -128.5 -61t-103 -61t-68 -70.5t-24.5 -90.5q0 -91 69.5 -139.5t209.5 -48.5q45 0 99 9t107 26t101 42t82 55v-248q-30 -19 -79 -34t-104.5 -25.5t-108 -16t-89.5 -5.5q-106 0 -203 21.5t-171.5 69.5t-118 125.5t-43.5 188.5z" />
<glyph unicode="&#x1a8;" horiz-adv-x="883" d="M69 292q0 62 20 107t57 79.5t90.5 62t118.5 53.5q49 17 88 32t66 33t41 41t14 58q0 26 -13 48t-36.5 37.5t-56.5 24t-74 8.5q-148 0 -261 -72v201q113 43 255 43q80 0 155 -20t133.5 -59t93.5 -97t35 -133q0 -59 -16.5 -103t-49.5 -79t-82.5 -62.5t-114.5 -54.5 q-49 -17 -91.5 -32t-74 -34t-50 -44t-18.5 -61q0 -121 200 -121q164 0 298 96v-212q-123 -56 -291 -56q-85 0 -164 19t-139.5 58.5t-96.5 98.5t-36 140z" />
<glyph unicode="&#x1a9;" horiz-adv-x="1106" d="M44 0v120l464 613l-429 568v133h920v-205h-581l368 -487l-404 -544h679v-198h-1017z" />
<glyph unicode="&#x1aa;" horiz-adv-x="754" d="M-124 1245q0 123 90 208.5t225 85.5q162 0 254 -102.5t92 -281.5v-1269q0 -182 137 -182q56 0 102 31v-182q-68 -35 -177 -35q-293 0 -293 326v1149q-67 -30 -145 -30q-120 0 -202.5 80t-82.5 202zM84 1253q0 -43 32.5 -72.5t83.5 -29.5q56 0 106 26v13q0 166 -119 166 q-44 0 -73.5 -30t-29.5 -73z" />
<glyph unicode="&#x1ab;" horiz-adv-x="741" d="M42 842v182h171v236q108 32 231 70v-306h246v-182h-246v-505q0 -95 32 -136t109 -41q59 0 105 32v-244q0 -152 -87.5 -241.5t-231.5 -89.5q-71 0 -132 27v182q56 -32 121 -32q137 0 137 145v37q-284 0 -284 362v504h-171z" />
<glyph unicode="&#x1ac;" horiz-adv-x="1178" d="M-37 1082q0 153 112.5 252.5t299.5 99.5h768v-202h-412v-1232h-238v1232h-142q-83 0 -129.5 -45.5t-46.5 -123.5q0 -56 19 -107h-209q-22 58 -22 126z" />
<glyph unicode="&#x1ad;" horiz-adv-x="741" d="M42 842v182h172v192q0 148 84 235.5t228 87.5q88 0 165 -31v-187q-57 33 -117 33q-129 0 -129 -184v-146h246v-182h-246v-504q0 -95 32 -136t109 -41q59 0 105 32v-187q-68 -29 -179 -29q-298 0 -298 321v544h-172z" />
<glyph unicode="&#x1ae;" horiz-adv-x="1132" d="M35 1232v202h1062v-202h-412v-1177q0 -230 165 -230q69 0 120 23v-202q-66 -30 -155 -30q-368 0 -368 429v1187h-412z" />
<glyph unicode="&#x1af;" horiz-adv-x="1519" d="M159 579v855h238v-851q0 -399 327 -399q318 0 318 385v865h216q60 0 100 35.5t40 84.5q0 74 -19 132h161q18 -56 18 -136q0 -218 -278 -250v-702q0 -622 -574 -622q-547 0 -547 603z" />
<glyph unicode="&#x1b0;" horiz-adv-x="1278" d="M131 413v611h232v-588q0 -276 214 -276q103 0 169 76t66 199v589h197q56 0 94 39t38 94q0 66 -20 119h157q18 -53 18 -128q0 -212 -252 -250v-898h-232v159h-4q-100 -181 -318 -181q-359 0 -359 435z" />
<glyph unicode="&#x1b1;" horiz-adv-x="1555" d="M90 625q0 385 348 610h-348v199h556v-199q-307 -235 -307 -584q0 -219 120.5 -344t313.5 -125q196 0 319 127t123 347q0 344 -307 579v199h555v-199h-343q348 -227 348 -612q0 -298 -185.5 -472.5t-504.5 -174.5q-312 0 -500 173t-188 476z" />
<glyph unicode="&#x1b2;" horiz-adv-x="1523" d="M175 574v860h238v-836q0 -414 319 -414q201 0 330 181t129 446q0 442 -254 442q-79 0 -149 -31v207q86 29 184 29q211 0 336.5 -172.5t125.5 -462.5q0 -354 -202 -600.5t-511 -246.5q-546 0 -546 598z" />
<glyph unicode="&#x1b3;" horiz-adv-x="1212" d="M-63 1221v212q67 25 132 25q114 0 192.5 -52.5t147.5 -194.5l182 -391l32 -84h2q10 35 34 83l293 615h252l-471 -913v-521h-238v516l-294 599q-70 134 -162 134q-56 0 -102 -28z" />
<glyph unicode="&#x1b4;" horiz-adv-x="1131" d="M5 1024h258l244 -745q9 -27 19 -74h5q5 26 19 77l184 514q111 252 324 252q55 0 120 -21v-190q-51 25 -103 25q-97 0 -160 -161l-336 -864q-144 -316 -408 -316q-75 0 -122 17v194q60 -27 115 -27q124 0 186 143l70 158z" />
<glyph unicode="&#x1b5;" horiz-adv-x="1202" d="M36 0v109l363 519h-204v201h350l280 403h-729v202h1059v-104l-348 -501h238v-201h-380l-296 -427h776v-201h-1109z" />
<glyph unicode="&#x1b6;" horiz-adv-x="951" d="M29 0l1 89l262 350h-143v165h266l179 238h-511v182h824v-97l-240 -323h165v-165h-287l-191 -258h551v-181h-876z" />
<glyph unicode="&#x1b7;" horiz-adv-x="1304" d="M24 -126q233 -147 464 -147q214 0 347.5 108t133.5 281q0 183 -148.5 284.5t-410.5 101.5h-90v125l482 605h-755v202h1084v-123l-495 -620q265 -23 423.5 -176t158.5 -393q0 -263 -209 -433.5t-522 -170.5q-242 0 -463 113v243z" />
<glyph unicode="&#x1b8;" horiz-adv-x="1304" d="M85 106q0 238 162 400t420 185l-495 620v123h1084v-202h-751l480 -605v-125h-116q-247 0 -390.5 -103t-143.5 -283q0 -173 133 -281t346 -108q250 0 465 135v-231q-221 -113 -482 -113q-313 0 -512.5 162.5t-199.5 425.5z" />
<glyph unicode="&#x1b9;" horiz-adv-x="955" d="M25 -21q0 178 121.5 305.5t324.5 156.5l-380 485v98h858v-182h-554l364 -476v-87h-102q-185 0 -290.5 -76.5t-105.5 -211.5q0 -126 100 -206t256 -80q204 0 366 106v-204q-164 -87 -379 -87q-256 0 -417.5 126t-161.5 333z" />
<glyph unicode="&#x1ba;" horiz-adv-x="871" d="M-8 -223q0 209 325 317q148 46 205 92t57 122q0 74 -73 116.5t-205 42.5h-83v97l258 282h-457v178h756v-114l-282 -299q152 -17 236 -95.5t84 -203.5q0 -127 -86.5 -215t-290.5 -157q-136 -43 -177 -73t-41 -76q0 -92 172 -92q167 0 303 82v-198q-137 -64 -323 -64 q-179 0 -278.5 68.5t-99.5 189.5z" />
<glyph unicode="&#x1bb;" horiz-adv-x="1137" d="M101 0v191l331 356h-221v190h392q86 98 119.5 162.5t33.5 134.5q0 110 -65 172t-182 62q-186 0 -360 -157v220q163 127 394 127q208 0 327 -106.5t119 -287.5q0 -153 -138 -327h151v-190h-311l-318 -348h628v-199h-900z" />
<glyph unicode="&#x1bc;" horiz-adv-x="1137" d="M122 1236v198h824v-198h-459l-51 -360q61 5 103 5q226 0 349 -114.5t123 -315.5q0 -214 -141 -344.5t-387 -130.5q-203 0 -319 59v218q150 -93 305 -93q138 0 221.5 75t83.5 197q0 123 -88 191.5t-251 68.5q-52 0 -131 -6q-99 -8 -106 -8l82 558h-158z" />
<glyph unicode="&#x1bd;" horiz-adv-x="837" d="M62 843v181h677v-181h-368l-29 -211q56 4 78 4q155 0 255 -82t100 -227q0 -155 -114 -253t-304 -98q-175 0 -262 44v195q115 -67 239 -67q91 0 147.5 44.5t56.5 115.5q0 69 -61 111.5t-170 42.5q-23 0 -189 -12l53 393h-109z" />
<glyph unicode="&#x1be;" horiz-adv-x="849" d="M32 842v182h130v253l232 54v-307h246v-182h-246v-76q0 -58 25.5 -94.5t99.5 -74.5q149 -70 209 -143t60 -170q0 -135 -109.5 -221.5t-298.5 -86.5q-161 0 -273 56v212q123 -96 278 -96q175 0 175 121q0 41 -25 75t-137 90q-145 70 -190.5 141.5t-45.5 172.5v94h-130z" />
<glyph unicode="&#x1bf;" horiz-adv-x="1166" d="M151 -471v1495h232v-129q165 153 352 153q157 0 261 -107.5t104 -267.5q0 -214 -190.5 -405.5t-526.5 -316.5v-422h-232zM383 161q213 83 348 214t135 279q0 87 -52 144t-138 57q-135 0 -293 -153v-541z" />
<glyph unicode="&#x1c0;" horiz-adv-x="570" d="M189 -482v2048h194v-2048h-194z" />
<glyph unicode="&#x1c1;" horiz-adv-x="938" d="M189 -482v2048h194v-2048h-194zM557 -482v2048h195v-2048h-195z" />
<glyph unicode="&#x1c2;" horiz-adv-x="990" d="M55 284v181h342v275h-342v181h342v645h195v-645h342v-181h-342v-275h342v-181h-342v-766h-195v766h-342z" />
<glyph unicode="&#x1c3;" horiz-adv-x="622" d="M167 112q0 57 42 97t102 40q58 0 100.5 -40t42.5 -97q0 -55 -42.5 -93.5t-100.5 -38.5q-60 0 -102 38.5t-42 93.5zM187 1434h235l-19 -1012h-190z" />
<glyph unicode="&#x1c4;" horiz-adv-x="2592" d="M177 0v1434h414q793 0 793 -699q0 -332 -220 -533.5t-590 -201.5h-397zM414 201h190q251 0 390.5 138t139.5 390q0 503 -521 503h-199v-1031zM1426 0v109l789 1123h-728v202h1058v-104l-786 -1129h776v-201h-1109zM1706 1890h155l160 -210l161 210h157l-224 -327h-185z " />
<glyph unicode="&#x1c5;" horiz-adv-x="2397" d="M177 0v1434h414q793 0 793 -699q0 -332 -220 -533.5t-590 -201.5h-397zM414 201h190q251 0 390.5 138t139.5 390q0 503 -521 503h-199v-1031zM1475 0v87l565 756h-511v181h824v-97l-553 -746h551v-181h-876zM1642 1531h155l160 -210l161 210h157l-224 -327h-185z" />
<glyph unicode="&#x1c6;" horiz-adv-x="2155" d="M85 488q0 254 125.5 407t334.5 153q207 0 301 -166h4v634h232v-1516h-232v174h-4q-112 -198 -345 -198q-189 0 -302.5 137.5t-113.5 374.5zM322 497q0 -156 71.5 -246.5t192.5 -90.5q119 0 193 87.5t74 220.5v134q0 109 -71 185t-181 76q-130 0 -204.5 -97t-74.5 -269z M1233 0v87l565 756h-511v181h824v-97l-553 -746h551v-181h-876zM1401 1531h155l160 -210l161 210h157l-224 -327h-185z" />
<glyph unicode="&#x1c7;" horiz-adv-x="1753" d="M177 0v1434h238v-1233h556v-201h-794zM1047 -1v224q57 -39 147 -39q238 0 238 368v882h238v-920q0 -255 -126 -396.5t-336 -141.5q-98 0 -161 23z" />
<glyph unicode="&#x1c8;" horiz-adv-x="1474" d="M177 0v1434h238v-1233h556v-201h-794zM811 -251q65 -45 123 -45q196 0 196 346v974h232v-981q0 -252 -106 -388.5t-303 -136.5q-73 0 -142 32v199zM1110 1370q0 57 40.5 95t97.5 38q58 0 99 -38t41 -95q0 -54 -41 -92.5t-99 -38.5q-57 0 -97.5 37t-40.5 94z" />
<glyph unicode="&#x1c9;" horiz-adv-x="1088" d="M151 0v1516h233v-1516h-233zM384 -251q65 -45 123 -45q196 0 196 346v974h232v-981q0 -252 -106 -388.5t-303 -136.5q-73 0 -142 32v199zM683 1370q0 57 40.5 95t97.5 38q58 0 99 -38t41 -95q0 -54 -41 -92.5t-99 -38.5q-57 0 -97.5 37t-40.5 94z" />
<glyph unicode="&#x1ca;" horiz-adv-x="2317" d="M177 0v1434h277l662 -1029q42 -64 54 -88h4q-10 57 -10 193v924h229v-1434h-260l-685 1054q-26 40 -43 83h-6q8 -46 8 -197v-940h-230zM1530 -1v224q57 -39 147 -39q238 0 238 368v882h238v-920q0 -255 -126 -396.5t-336 -141.5q-98 0 -161 23z" />
<glyph unicode="&#x1cb;" horiz-adv-x="2066" d="M177 0v1434h277l662 -1029q42 -64 54 -88h4q-10 57 -10 193v924h229v-1434h-260l-685 1054q-26 40 -43 83h-6q8 -46 8 -197v-940h-230zM1363 -251q65 -45 123 -45q196 0 196 346v974h232v-981q0 -252 -106 -388.5t-303 -136.5q-73 0 -142 32v199zM1662 1370q0 57 40.5 95 t97.5 38q58 0 99 -38t41 -95q0 -54 -41 -92.5t-99 -38.5q-57 0 -97.5 37t-40.5 94z" />
<glyph unicode="&#x1cc;" horiz-adv-x="1737" d="M151 0v1024h233v-170h4q115 194 332 194q167 0 255 -108.5t88 -313.5v-626h-232v577q0 287 -203 287q-106 0 -175 -79.5t-69 -200.5v-584h-233zM1034 -251q65 -45 123 -45q196 0 196 346v974h232v-981q0 -252 -106 -388.5t-303 -136.5q-73 0 -142 32v199zM1333 1370 q0 57 40.5 95t97.5 38q58 0 99 -38t41 -95q0 -54 -41 -92.5t-99 -38.5q-57 0 -97.5 37t-40.5 94z" />
<glyph unicode="&#x1cd;" horiz-adv-x="1375" d="M17 0l537 1434h268l533 -1434h-261l-129 365h-564l-124 -365h-260zM368 1886h155l160 -210l161 210h157l-224 -327h-185zM463 559h439l-199 572q-9 28 -19 90h-4q-9 -57 -20 -90z" />
<glyph unicode="&#x1ce;" horiz-adv-x="1069" d="M75 275q0 290 334 338l304 43q0 219 -208 219q-183 0 -330 -126v203q162 96 374 96q388 0 388 -382v-666h-225v160h-4q-106 -184 -311 -184q-151 0 -236.5 82t-85.5 217zM208 1527h155l160 -210l161 210h157l-224 -327h-185zM297 300q0 -65 46.5 -106.5t124.5 -41.5 q106 0 175.5 74.5t69.5 187.5v89l-215 -30q-100 -13 -150.5 -48.5t-50.5 -124.5z" />
<glyph unicode="&#x1cf;" horiz-adv-x="592" d="M-18 1886h155l160 -210l161 210h157l-224 -327h-185zM46 0v192h131v1050h-131v192h500v-192h-131v-1050h131v-192h-500z" />
<glyph unicode="&#x1d0;" horiz-adv-x="535" d="M-48 1527h155l160 -210l161 210h157l-224 -327h-185zM151 0v1024h233v-1024h-233z" />
<glyph unicode="&#x1d1;" d="M85 700q0 346 190 552t516 206q302 0 486.5 -200t184.5 -523q0 -351 -189 -555t-505 -204q-310 0 -496.5 201t-186.5 523zM335 715q0 -239 120 -385t314 -146q206 0 325 139t119 389q0 257 -115.5 397t-318.5 140q-197 0 -320.5 -147t-123.5 -387zM457 1886h155l160 -210 l161 210h157l-224 -327h-185z" />
<glyph unicode="&#x1d2;" horiz-adv-x="1223" d="M85 500q0 258 147.5 403t397.5 145q240 0 374 -141t134 -391q0 -245 -144.5 -392.5t-388.5 -147.5q-237 0 -378.5 143.5t-141.5 380.5zM295 1527h155l160 -210l161 210h157l-224 -327h-185zM322 506q0 -161 80 -253.5t214 -92.5q137 0 210.5 91t73.5 259q0 169 -73.5 261 t-210.5 92q-136 0 -215 -95t-79 -262z" />
<glyph unicode="&#x1d3;" horiz-adv-x="1440" d="M160 557v877h238v-828q0 -422 328 -422q316 0 316 407v843h238v-854q0 -604 -572 -604q-548 0 -548 581zM419 1886h155l160 -210l161 210h157l-224 -327h-185z" />
<glyph unicode="&#x1d4;" horiz-adv-x="1195" d="M131 412v612h232v-588q0 -276 213 -276q103 0 169.5 76t66.5 199v589h232v-1024h-232v162h-4q-101 -186 -314 -186q-363 0 -363 436zM280 1527h155l160 -210l161 210h157l-224 -327h-185z" />
<glyph unicode="&#x1d5;" horiz-adv-x="1440" d="M160 557v877h238v-828q0 -422 328 -422q316 0 316 407v843h238v-854q0 -604 -572 -604q-548 0 -548 581zM409 1676q0 44 31.5 73t77.5 29q45 0 77.5 -29.5t32.5 -72.5t-30.5 -73t-74.5 -30q-46 0 -80 29.5t-34 73.5zM443 1849v137h543v-137h-543zM802 1676q0 44 32 73 t75 29q46 0 78 -29.5t32 -72.5t-32 -73t-80 -30q-43 0 -74 29t-31 74z" />
<glyph unicode="&#x1d6;" horiz-adv-x="1195" d="M131 412v612h232v-588q0 -276 213 -276q103 0 169.5 76t66.5 199v589h232v-1024h-232v162h-4q-101 -186 -314 -186q-363 0 -363 436zM294 1321q0 44 31.5 73t77.5 29q45 0 77.5 -29.5t32.5 -72.5t-30.5 -73t-74.5 -30q-46 0 -80 29.5t-34 73.5zM328 1494v137h543v-137 h-543zM687 1321q0 44 32 73t75 29q46 0 78 -29.5t32 -72.5t-32 -73t-80 -30q-43 0 -74 29t-31 74z" />
<glyph unicode="&#x1d7;" horiz-adv-x="1440" d="M160 557v877h238v-828q0 -422 328 -422q316 0 316 407v843h238v-854q0 -604 -572 -604q-548 0 -548 581zM389 1674q0 43 31.5 72.5t77.5 29.5q45 0 77.5 -29.5t32.5 -72.5t-32 -73t-77 -30t-77.5 29.5t-32.5 73.5zM604 1819l240 326h217l-286 -326h-171zM800 1674 q0 44 30.5 73t76.5 29t78 -29.5t32 -72.5t-31 -73t-78 -30q-44 0 -76 29t-32 74z" />
<glyph unicode="&#x1d8;" horiz-adv-x="1195" d="M131 412v612h232v-588q0 -276 213 -276q103 0 169.5 76t66.5 199v589h232v-1024h-232v162h-4q-101 -186 -314 -186q-363 0 -363 436zM265 1312q0 43 31.5 72.5t77.5 29.5q45 0 77.5 -29.5t32.5 -72.5t-32 -73t-77 -30t-77.5 29.5t-32.5 73.5zM480 1457l240 326h217 l-286 -326h-171zM676 1312q0 44 30.5 73t76.5 29t78 -29.5t32 -72.5t-31 -73t-78 -30q-44 0 -76 29t-32 74z" />
<glyph unicode="&#x1d9;" horiz-adv-x="1440" d="M160 557v877h238v-828q0 -422 328 -422q316 0 316 407v843h238v-854q0 -604 -572 -604q-548 0 -548 581zM404 2159h155l161 -211l160 211h157l-224 -328h-185zM415 1674q0 43 31.5 72.5t77.5 29.5q45 0 77.5 -29.5t32.5 -72.5t-32 -73t-77 -30t-77.5 29.5t-32.5 73.5z M808 1674q0 44 30.5 73t76.5 29t77.5 -29.5t31.5 -72.5t-31 -73t-77 -30q-44 0 -76 29t-32 74z" />
<glyph unicode="&#x1da;" horiz-adv-x="1195" d="M131 412v612h232v-588q0 -276 213 -276q103 0 169.5 76t66.5 199v589h232v-1024h-232v162h-4q-101 -186 -314 -186q-363 0 -363 436zM280 1797h155l161 -211l160 211h157l-224 -328h-185zM291 1312q0 43 31.5 72.5t77.5 29.5q45 0 77.5 -29.5t32.5 -72.5t-32 -73t-77 -30 t-77.5 29.5t-32.5 73.5zM684 1312q0 44 30.5 73t76.5 29t77.5 -29.5t31.5 -72.5t-31 -73t-77 -30q-44 0 -76 29t-32 74z" />
<glyph unicode="&#x1db;" horiz-adv-x="1440" d="M160 557v877h238v-828q0 -422 328 -422q316 0 316 407v843h238v-854q0 -604 -572 -604q-548 0 -548 581zM372 2145h217l241 -326h-172zM416 1674q0 43 32 72.5t78 29.5q43 0 75 -29t32 -73q0 -45 -32 -74t-76 -29q-46 0 -77.5 30t-31.5 73zM826 1674q0 43 32 72.5 t77 29.5q46 0 77.5 -29.5t31.5 -72.5q0 -44 -32.5 -73.5t-77.5 -29.5t-76.5 30t-31.5 73z" />
<glyph unicode="&#x1dc;" horiz-adv-x="1195" d="M131 412v612h232v-588q0 -276 213 -276q103 0 169.5 76t66.5 199v589h232v-1024h-232v162h-4q-101 -186 -314 -186q-363 0 -363 436zM250 1783h217l241 -326h-172zM294 1312q0 43 32 72.5t78 29.5q43 0 75 -29t32 -73q0 -45 -32 -74t-76 -29q-46 0 -77.5 30t-31.5 73z M704 1312q0 43 32 72.5t77 29.5q46 0 77.5 -29.5t31.5 -72.5q0 -44 -32.5 -73.5t-77.5 -29.5t-76.5 30t-31.5 73z" />
<glyph unicode="&#x1dd;" horiz-adv-x="1088" d="M70 486v89h698q-5 142 -85.5 219.5t-224.5 77.5q-168 0 -308 -99v187q136 88 360 88q230 0 361 -138t131 -389q0 -243 -140.5 -394t-348.5 -151q-213 0 -328 136t-115 374zM294 411q2 -126 59.5 -195t161.5 -69q99 0 168 73t85 191h-474z" />
<glyph unicode="&#x1de;" horiz-adv-x="1375" d="M17 0l537 1434h268l533 -1434h-261l-129 365h-564l-124 -365h-260zM375 1676q0 44 31.5 73t77.5 29q45 0 77.5 -29.5t32.5 -72.5t-30.5 -73t-74.5 -30q-46 0 -80 29.5t-34 73.5zM409 1849v137h543v-137h-543zM463 559h439l-199 572q-9 28 -19 90h-4q-9 -57 -20 -90z M768 1676q0 44 32 73t75 29q46 0 78 -29.5t32 -72.5t-32 -73t-80 -30q-43 0 -74 29t-31 74z" />
<glyph unicode="&#x1df;" horiz-adv-x="1069" d="M75 275q0 290 334 338l304 43q0 219 -208 219q-183 0 -330 -126v203q162 96 374 96q388 0 388 -382v-666h-225v160h-4q-106 -184 -311 -184q-151 0 -236.5 82t-85.5 217zM215 1321q0 44 31.5 73t77.5 29q45 0 77.5 -29.5t32.5 -72.5t-30.5 -73t-74.5 -30q-46 0 -80 29.5 t-34 73.5zM249 1494v137h543v-137h-543zM297 300q0 -65 46.5 -106.5t124.5 -41.5q106 0 175.5 74.5t69.5 187.5v89l-215 -30q-100 -13 -150.5 -48.5t-50.5 -124.5zM608 1321q0 44 32 73t75 29q46 0 78 -29.5t32 -72.5t-32 -73t-80 -30q-43 0 -74 29t-31 74z" />
<glyph unicode="&#x1e0;" horiz-adv-x="1375" d="M17 0l537 1434h268l533 -1434h-261l-129 365h-564l-124 -365h-260zM410 1846v137h543v-137h-543zM463 559h439l-199 572q-9 28 -19 90h-4q-9 -57 -20 -90zM573 1676q0 43 32 72t76 29q46 0 77.5 -29t31.5 -72t-31.5 -73t-77.5 -30q-44 0 -76 29.5t-32 73.5z" />
<glyph unicode="&#x1e1;" horiz-adv-x="1069" d="M75 275q0 290 334 338l304 43q0 219 -208 219q-183 0 -330 -126v203q162 96 374 96q388 0 388 -382v-666h-225v160h-4q-106 -184 -311 -184q-151 0 -236.5 82t-85.5 217zM234 1491v137h543v-137h-543zM297 300q0 -65 46.5 -106.5t124.5 -41.5q106 0 175.5 74.5 t69.5 187.5v89l-215 -30q-100 -13 -150.5 -48.5t-50.5 -124.5zM397 1321q0 43 32 72t76 29q46 0 77.5 -29t31.5 -72t-31.5 -73t-77.5 -30q-44 0 -76 29.5t-32 73.5z" />
<glyph unicode="&#x1e2;" horiz-adv-x="1831" d="M6 0l710 1434h1000v-202h-534v-406h497v-201h-497v-424h567v-201h-804v365h-492l-172 -365h-275zM541 559h404v673h-87zM940 1575v137h543v-137h-543z" />
<glyph unicode="&#x1e3;" horiz-adv-x="1700" d="M75 279q0 306 379 331l259 16q0 250 -201 250q-178 0 -336 -115v196q152 91 357 91q240 0 311 -170h4q114 170 349 170q206 0 319.5 -135.5t113.5 -376.5v-87h-699q3 -142 85 -219.5t225 -77.5q171 0 310 99v-186q-135 -89 -367 -89q-275 0 -390 206h-4 q-140 -206 -372 -206q-160 0 -251.5 82.5t-91.5 220.5zM296 294q0 -64 46.5 -103t125.5 -39q103 0 174 74t71 186v55l-177 -11q-121 -7 -180.5 -43t-59.5 -119zM583 1214v137h543v-137h-543zM932 613h474q-2 127 -59 195.5t-160 68.5q-98 0 -168.5 -72t-86.5 -192z" />
<glyph unicode="&#x1e4;" horiz-adv-x="1428" d="M85 696q0 334 217.5 548t550.5 214q236 0 397 -70v-239q-173 104 -409 104q-222 0 -364 -151t-142 -392q0 -249 129.5 -391.5t351.5 -142.5q140 0 243 49v97h-301v162h301v127h-302v182h539v-309h141v-162h-141v-225q-224 -121 -498 -121q-319 0 -516 197.5t-197 522.5z " />
<glyph unicode="&#x1e5;" horiz-adv-x="1234" d="M85 515q0 238 127.5 385.5t339.5 147.5q199 0 295 -156h4v132h232v-908q0 -78 -6 -147h156v-162h-192q-130 -288 -532 -288q-196 0 -342 66v207q180 -91 344 -91q199 0 284 106h-246v162h295q7 47 7 100v144h-4q-109 -186 -328 -186q-193 0 -313.5 133t-120.5 355z M322 523q0 -141 72.5 -225.5t188.5 -84.5q120 0 195 85.5t75 221.5v75q0 110 -72 189t-180 79q-130 0 -204.5 -91t-74.5 -249z" />
<glyph unicode="&#x1e6;" horiz-adv-x="1428" d="M85 698q0 333 215.5 546.5t547.5 213.5q239 0 402 -70v-245q-165 110 -393 110q-229 0 -375.5 -151t-146.5 -391q0 -247 126 -388.5t342 -141.5q148 0 256 57v341h-302v200h539v-681q-224 -122 -499 -122q-318 0 -515 198t-197 524zM443 1886h155l160 -210l161 210h157 l-224 -327h-185z" />
<glyph unicode="&#x1e7;" horiz-adv-x="1234" d="M85 479q0 261 123 415t338 154q203 0 301 -166h4v142h232v-942q0 -564 -567 -564q-200 0 -349 67v212q168 -96 319 -96q365 0 365 359v112h-4q-115 -196 -346 -196q-187 0 -301.5 136.5t-114.5 366.5zM273 1527h155l160 -210l161 210h157l-224 -327h-185zM322 493 q0 -151 71.5 -241.5t189.5 -90.5q120 0 195 86.5t75 221.5v133q0 108 -71.5 184.5t-178.5 76.5q-132 0 -206.5 -97.5t-74.5 -272.5z" />
<glyph unicode="&#x1e8;" horiz-adv-x="1251" d="M177 0v1434h238v-674h4q12 22 34 49l481 625h285l-563 -688l606 -746h-310l-499 656q-28 37 -34 50h-4v-706h-238zM324 1886h155l160 -210l161 210h157l-224 -327h-185z" />
<glyph unicode="&#x1e9;" horiz-adv-x="1075" d="M151 0v1516h233v-961h4l376 469h279l-423 -494l460 -530h-294l-398 492h-4v-492h-233zM239 1886h155l160 -210l161 210h157l-224 -327h-185z" />
<glyph unicode="&#x1ea;" d="M85 700q0 346 190 552t516 206q302 0 486.5 -200t184.5 -523q0 -351 -189 -555t-505 -204q-310 0 -496.5 201t-186.5 523zM335 715q0 -239 120 -385t314 -146q206 0 325 139t119 389q0 257 -115.5 397t-318.5 140q-197 0 -320.5 -147t-123.5 -387zM623 -250 q0 122 161 250h135q-151 -137 -151 -216q0 -68 65 -68q36 0 68 13v-121q-38 -16 -105 -16q-78 0 -125.5 42t-47.5 116z" />
<glyph unicode="&#x1eb;" horiz-adv-x="1223" d="M85 500q0 258 147.5 403t397.5 145q240 0 374 -141t134 -391q0 -245 -144.5 -392.5t-388.5 -147.5q-237 0 -378.5 143.5t-141.5 380.5zM322 506q0 -161 80 -253.5t214 -92.5q137 0 210.5 91t73.5 259q0 169 -73.5 261t-210.5 92q-136 0 -215 -95t-79 -262zM450 -250 q0 122 161 250h135q-151 -137 -151 -216q0 -68 65 -68q36 0 68 13v-121q-38 -16 -105 -16q-78 0 -125.5 42t-47.5 116z" />
<glyph unicode="&#x1ec;" d="M85 700q0 346 190 552t516 206q302 0 486.5 -200t184.5 -523q0 -351 -189 -555t-505 -204q-310 0 -496.5 201t-186.5 523zM335 715q0 -239 120 -385t314 -146q206 0 325 139t119 389q0 257 -115.5 397t-318.5 140q-197 0 -320.5 -147t-123.5 -387zM489 1567v153h588v-153 h-588zM623 -250q0 122 161 250h135q-151 -137 -151 -216q0 -68 65 -68q36 0 68 13v-121q-38 -16 -105 -16q-78 0 -125.5 42t-47.5 116z" />
<glyph unicode="&#x1ed;" horiz-adv-x="1223" d="M85 500q0 258 147.5 403t397.5 145q240 0 374 -141t134 -391q0 -245 -144.5 -392.5t-388.5 -147.5q-237 0 -378.5 143.5t-141.5 380.5zM320 1204v153h588v-153h-588zM322 506q0 -161 80 -253.5t214 -92.5q137 0 210.5 91t73.5 259q0 169 -73.5 261t-210.5 92 q-136 0 -215 -95t-79 -262zM450 -250q0 122 161 250h135q-151 -137 -151 -216q0 -68 65 -68q36 0 68 13v-121q-38 -16 -105 -16q-78 0 -125.5 42t-47.5 116z" />
<glyph unicode="&#x1ee;" horiz-adv-x="1304" d="M24 -126q233 -147 464 -147q214 0 347.5 108t133.5 281q0 183 -148.5 284.5t-410.5 101.5h-90v125l482 605h-755v202h1084v-123l-495 -620q265 -23 423.5 -176t158.5 -393q0 -263 -209 -433.5t-522 -170.5q-242 0 -463 113v243zM242 1886h155l160 -210l161 210h157 l-224 -327h-185z" />
<glyph unicode="&#x1ef;" horiz-adv-x="955" d="M-29 -181q167 -114 347 -114q164 0 269 81t105 210q0 133 -108 207.5t-309 74.5h-80v87l369 477h-560v182h858v-99l-379 -484q214 -26 329 -143t115 -297q0 -209 -171.5 -344.5t-432.5 -135.5q-191 0 -352 86v212zM93 1527h155l160 -210l161 210h157l-224 -327h-185z" />
<glyph unicode="&#x1f0;" horiz-adv-x="535" d="M-168 -254q68 -42 129 -42q190 0 190 302v1018h232v-993q0 -246 -106 -379t-303 -133q-73 0 -142 31v196zM-49 1527h155l160 -210l161 210h157l-224 -327h-185z" />
<glyph unicode="&#x1f1;" horiz-adv-x="2589" d="M177 0v1434h414q793 0 793 -699q0 -332 -220 -533.5t-590 -201.5h-397zM414 201h190q251 0 390.5 138t139.5 390q0 503 -521 503h-199v-1031zM1423 0v109l789 1123h-728v202h1058v-104l-786 -1129h776v-201h-1109z" />
<glyph unicode="&#x1f2;" horiz-adv-x="2397" d="M177 0v1434h414q793 0 793 -699q0 -332 -220 -533.5t-590 -201.5h-397zM414 201h190q251 0 390.5 138t139.5 390q0 503 -521 503h-199v-1031zM1476 0v87l565 756h-511v181h824v-97l-553 -746h551v-181h-876z" />
<glyph unicode="&#x1f3;" horiz-adv-x="2155" d="M85 488q0 254 125.5 407t334.5 153q207 0 301 -166h4v634h232v-1516h-232v174h-4q-112 -198 -345 -198q-189 0 -302.5 137.5t-113.5 374.5zM322 497q0 -156 71.5 -246.5t192.5 -90.5q119 0 193 87.5t74 220.5v134q0 109 -71 185t-181 76q-130 0 -204.5 -97t-74.5 -269z M1234 0v87l565 756h-511v181h824v-97l-553 -746h551v-181h-876z" />
<glyph unicode="&#x1f4;" horiz-adv-x="1428" d="M85 698q0 333 215.5 546.5t547.5 213.5q239 0 402 -70v-245q-165 110 -393 110q-229 0 -375.5 -151t-146.5 -391q0 -247 126 -388.5t342 -141.5q148 0 256 57v341h-302v200h539v-681q-224 -122 -499 -122q-318 0 -515 198t-197 524zM690 1580l242 328h216l-286 -328h-172 z" />
<glyph unicode="&#x1f5;" horiz-adv-x="1234" d="M85 479q0 261 123 415t338 154q203 0 301 -166h4v142h232v-942q0 -564 -567 -564q-200 0 -349 67v212q168 -96 319 -96q365 0 365 359v112h-4q-115 -196 -346 -196q-187 0 -301.5 136.5t-114.5 366.5zM322 493q0 -151 71.5 -241.5t189.5 -90.5q120 0 195 86.5t75 221.5 v133q0 108 -71.5 184.5t-178.5 76.5q-132 0 -206.5 -97.5t-74.5 -272.5zM480 1218l242 328h216l-286 -328h-172z" />
<glyph unicode="&#x1f6;" horiz-adv-x="2122" d="M177 0v1434h237v-604h635v604h238v-976q0 -274 234 -274t234 271v569h239v-566q0 -228 -127.5 -355t-352.5 -127q-223 0 -344 123t-121 349v174h-635v-622h-237z" />
<glyph unicode="&#x1f7;" horiz-adv-x="1463" d="M203 -471v1905h238v-190q217 214 481 214q200 0 328 -137.5t128 -339.5q0 -314 -247.5 -582t-689.5 -441v-429h-238zM441 195q309 129 498.5 332t189.5 433q0 123 -71 205t-189 82q-205 0 -428 -248v-804z" />
<glyph unicode="&#x1f8;" horiz-adv-x="1571" d="M177 0v1434h277l662 -1029q42 -64 54 -88h4q-10 57 -10 193v924h229v-1434h-260l-685 1054q-26 40 -43 83h-6q8 -46 8 -197v-940h-230zM493 1897h214l221 -328h-173z" />
<glyph unicode="&#x1f9;" horiz-adv-x="1195" d="M151 0v1024h233v-170h4q115 194 332 194q167 0 255 -108.5t88 -313.5v-626h-232v577q0 287 -203 287q-106 0 -175 -79.5t-69 -200.5v-584h-233zM304 1532h214l221 -328h-173z" />
<glyph unicode="&#x1fa;" horiz-adv-x="1375" d="M17 0l537 1434h268l533 -1434h-261l-129 365h-564l-124 -365h-260zM462 1529q0 98 63 156t161 58q96 0 157.5 -58.5t61.5 -149.5q0 -87 -65.5 -144.5t-160.5 -57.5q-94 0 -155.5 54t-61.5 142zM463 559h439l-199 572q-9 28 -19 90h-4q-9 -57 -20 -90zM516 1805l242 328 h216l-286 -328h-172zM575 1539q0 -104 104 -104q48 0 79.5 29.5t31.5 74.5t-31.5 74.5t-79.5 29.5q-45 0 -74.5 -30t-29.5 -74z" />
<glyph unicode="&#x1fb;" horiz-adv-x="1069" d="M75 275q0 290 334 338l304 43q0 219 -208 219q-183 0 -330 -126v203q162 96 374 96q388 0 388 -382v-666h-225v160h-4q-106 -184 -311 -184q-151 0 -236.5 82t-85.5 217zM297 300q0 -65 46.5 -106.5t124.5 -41.5q106 0 175.5 74.5t69.5 187.5v89l-215 -30 q-100 -13 -150.5 -48.5t-50.5 -124.5zM324 1320q0 98 63 156t161 58q96 0 157.5 -58.5t61.5 -149.5q0 -87 -65.5 -144.5t-160.5 -57.5q-94 0 -155.5 54t-61.5 142zM390 1622l242 328h216l-286 -328h-172zM437 1330q0 -104 104 -104q48 0 79.5 29.5t31.5 74.5t-31.5 74.5 t-79.5 29.5q-45 0 -74.5 -30t-29.5 -74z" />
<glyph unicode="&#x1fc;" horiz-adv-x="1831" d="M6 0l710 1434h1000v-202h-534v-406h497v-201h-497v-424h567v-201h-804v365h-492l-172 -365h-275zM541 559h404v673h-87zM977 1580l242 328h216l-286 -328h-172z" />
<glyph unicode="&#x1fd;" horiz-adv-x="1700" d="M75 279q0 306 379 331l259 16q0 250 -201 250q-178 0 -336 -115v196q152 91 357 91q240 0 311 -170h4q114 170 349 170q206 0 319.5 -135.5t113.5 -376.5v-87h-699q3 -142 85 -219.5t225 -77.5q171 0 310 99v-186q-135 -89 -367 -89q-275 0 -390 206h-4 q-140 -206 -372 -206q-160 0 -251.5 82.5t-91.5 220.5zM296 294q0 -64 46.5 -103t125.5 -39q103 0 174 74t71 186v55l-177 -11q-121 -7 -180.5 -43t-59.5 -119zM701 1218l242 328h216l-286 -328h-172zM932 613h474q-2 127 -59 195.5t-160 68.5q-98 0 -168.5 -72t-86.5 -192z " />
<glyph unicode="&#x1fe;" d="M85 700q0 343 189.5 550.5t517.5 207.5q233 0 401 -125l132 157l99 -81l-137 -162q176 -194 176 -512q0 -351 -189 -555t-506 -204q-261 0 -433 145l-148 -177l-99 83l154 184q-157 193 -157 489zM324 715q0 -192 75 -321l658 777q-111 90 -276 90q-204 0 -330.5 -151.5 t-126.5 -394.5zM477 289q114 -117 291 -117q212 0 334 142.5t122 397.5q0 222 -88 357zM637 1580l242 328h216l-286 -328h-172z" />
<glyph unicode="&#x1ff;" horiz-adv-x="1223" d="M44 10l144 155q-103 137 -103 341q0 256 147 399.5t395 143.5q185 0 310 -91l151 163l100 -91l-155 -164q105 -137 105 -344q0 -252 -145.5 -399t-387.5 -147q-194 0 -322 95l-140 -151zM313 509q0 -105 35 -178l450 484q-67 59 -181 59q-141 0 -222.5 -97t-81.5 -268z M421 213q76 -62 194 -62q145 0 221 94.5t76 266.5q0 110 -35 189zM462 1218l242 328h216l-286 -328h-172z" />
<glyph unicode="&#x200;" horiz-adv-x="1375" d="M17 0l537 1434h268l533 -1434h-261l-129 365h-564l-124 -365h-260zM205 1872h185l211 -318h-148zM463 559h439l-199 572q-9 28 -19 90h-4q-9 -57 -20 -90zM511 1872h183l208 -318h-148z" />
<glyph unicode="&#x201;" horiz-adv-x="1069" d="M64 1522h185l211 -318h-148zM75 275q0 290 334 338l304 43q0 219 -208 219q-183 0 -330 -126v203q162 96 374 96q388 0 388 -382v-666h-225v160h-4q-106 -184 -311 -184q-151 0 -236.5 82t-85.5 217zM297 300q0 -65 46.5 -106.5t124.5 -41.5q106 0 175.5 74.5t69.5 187.5 v89l-215 -30q-100 -13 -150.5 -48.5t-50.5 -124.5zM370 1522h183l208 -318h-148z" />
<glyph unicode="&#x202;" horiz-adv-x="1375" d="M17 0l537 1434h268l533 -1434h-261l-129 365h-564l-124 -365h-260zM375 1561q11 120 95.5 194.5t211.5 74.5q126 0 209.5 -75t94.5 -194h-139q-23 137 -167 137q-143 0 -166 -137h-139zM463 559h439l-199 572q-9 28 -19 90h-4q-9 -57 -20 -90z" />
<glyph unicode="&#x203;" horiz-adv-x="1069" d="M75 275q0 290 334 338l304 43q0 219 -208 219q-183 0 -330 -126v203q162 96 374 96q388 0 388 -382v-666h-225v160h-4q-106 -184 -311 -184q-151 0 -236.5 82t-85.5 217zM233 1184q11 120 95.5 194.5t211.5 74.5q126 0 209.5 -75t94.5 -194h-139q-23 137 -167 137 q-143 0 -166 -137h-139zM297 300q0 -65 46.5 -106.5t124.5 -41.5q106 0 175.5 74.5t69.5 187.5v89l-215 -30q-100 -13 -150.5 -48.5t-50.5 -124.5z" />
<glyph unicode="&#x204;" horiz-adv-x="1060" d="M119 1872h185l211 -318h-148zM177 0v1434h773v-202h-535v-406h493v-201h-493v-424h567v-201h-805zM425 1872h183l208 -318h-148z" />
<glyph unicode="&#x205;" horiz-adv-x="1088" d="M85 508q0 239 141.5 389.5t351.5 150.5t325 -135t115 -375v-89h-698q4 -142 87.5 -219t229.5 -77q164 0 301 98v-187q-140 -88 -370 -88q-226 0 -354.5 139.5t-128.5 392.5zM103 1522h185l211 -318h-148zM320 613h474q-1 125 -59 194.5t-160 69.5q-100 0 -169.5 -73 t-85.5 -191zM409 1522h183l208 -318h-148z" />
<glyph unicode="&#x206;" horiz-adv-x="1060" d="M177 0v1434h773v-202h-535v-406h493v-201h-493v-424h567v-201h-805zM259 1561q11 120 95.5 194.5t211.5 74.5q126 0 209.5 -75t94.5 -194h-139q-23 137 -167 137q-143 0 -166 -137h-139z" />
<glyph unicode="&#x207;" horiz-adv-x="1088" d="M85 508q0 239 141.5 389.5t351.5 150.5t325 -135t115 -375v-89h-698q4 -142 87.5 -219t229.5 -77q164 0 301 98v-187q-140 -88 -370 -88q-226 0 -354.5 139.5t-128.5 392.5zM235 1184q11 120 95.5 194.5t211.5 74.5q126 0 209.5 -75t94.5 -194h-139q-23 137 -167 137 q-143 0 -166 -137h-139zM320 613h474q-1 125 -59 194.5t-160 69.5q-100 0 -169.5 -73t-85.5 -191z" />
<glyph unicode="&#x208;" horiz-adv-x="592" d="M-156 1872h185l211 -318h-148zM46 0v192h131v1050h-131v192h500v-192h-131v-1050h131v-192h-500zM150 1872h183l208 -318h-148z" />
<glyph unicode="&#x209;" horiz-adv-x="535" d="M-191 1522h185l211 -318h-148zM115 1522h183l208 -318h-148zM151 0v1024h233v-1024h-233z" />
<glyph unicode="&#x20a;" horiz-adv-x="592" d="M-3 1561q11 120 95.5 194.5t211.5 74.5q126 0 209.5 -75t94.5 -194h-139q-23 137 -167 137q-143 0 -166 -137h-139zM46 0v192h131v1050h-131v192h500v-192h-131v-1050h131v-192h-500z" />
<glyph unicode="&#x20b;" horiz-adv-x="535" d="M-33 1184q11 120 95.5 194.5t211.5 74.5q126 0 209.5 -75t94.5 -194h-139q-23 137 -167 137q-143 0 -166 -137h-139zM151 0v1024h233v-1024h-233z" />
<glyph unicode="&#x20c;" d="M85 700q0 346 190 552t516 206q302 0 486.5 -200t184.5 -523q0 -351 -189 -555t-505 -204q-310 0 -496.5 201t-186.5 523zM319 1872h185l211 -318h-148zM335 715q0 -239 120 -385t314 -146q206 0 325 139t119 389q0 257 -115.5 397t-318.5 140q-197 0 -320.5 -147 t-123.5 -387zM625 1872h183l208 -318h-148z" />
<glyph unicode="&#x20d;" horiz-adv-x="1223" d="M85 500q0 258 147.5 403t397.5 145q240 0 374 -141t134 -391q0 -245 -144.5 -392.5t-388.5 -147.5q-237 0 -378.5 143.5t-141.5 380.5zM147 1522h185l211 -318h-148zM322 506q0 -161 80 -253.5t214 -92.5q137 0 210.5 91t73.5 259q0 169 -73.5 261t-210.5 92 q-136 0 -215 -95t-79 -262zM453 1522h183l208 -318h-148z" />
<glyph unicode="&#x20e;" d="M85 700q0 346 190 552t516 206q302 0 486.5 -200t184.5 -523q0 -351 -189 -555t-505 -204q-310 0 -496.5 201t-186.5 523zM335 715q0 -239 120 -385t314 -146q206 0 325 139t119 389q0 257 -115.5 397t-318.5 140q-197 0 -320.5 -147t-123.5 -387zM457 1561 q11 120 95.5 194.5t211.5 74.5q126 0 209.5 -75t94.5 -194h-139q-23 137 -167 137q-143 0 -166 -137h-139z" />
<glyph unicode="&#x20f;" horiz-adv-x="1223" d="M85 500q0 258 147.5 403t397.5 145q240 0 374 -141t134 -391q0 -245 -144.5 -392.5t-388.5 -147.5q-237 0 -378.5 143.5t-141.5 380.5zM306 1184q11 120 95.5 194.5t211.5 74.5q126 0 209.5 -75t94.5 -194h-139q-23 137 -167 137q-143 0 -166 -137h-139zM322 506 q0 -161 80 -253.5t214 -92.5q137 0 210.5 91t73.5 259q0 169 -73.5 261t-210.5 92q-136 0 -215 -95t-79 -262z" />
<glyph unicode="&#x210;" horiz-adv-x="1275" d="M139 1872h185l211 -318h-148zM177 0v1434h472q101 0 186 -24t148 -72.5t98.5 -121t35.5 -169.5q0 -76 -22.5 -139.5t-64 -113t-100 -84.5t-131.5 -54v-4q39 -22 68 -48.5t55 -54.5t51.5 -63.5t56.5 -82.5l255 -403h-278l-229 384q-31 53 -60.5 90.5t-60 61.5t-66.5 35 t-81 11h-96v-582h-237zM414 775h198q55 0 101.5 17t80.5 49t53 78t19 103q0 103 -65 161t-187 58h-200v-466zM445 1872h183l208 -318h-148z" />
<glyph unicode="&#x211;" horiz-adv-x="758" d="M-41 1522h185l211 -318h-148zM151 0v1024h232v-211h4q34 108 104.5 168.5t157.5 60.5q63 0 96 -19v-220q-42 33 -121 33q-103 0 -172 -93t-69 -253v-490h-232zM265 1522h183l208 -318h-148z" />
<glyph unicode="&#x212;" horiz-adv-x="1275" d="M177 0v1434h472q101 0 186 -24t148 -72.5t98.5 -121t35.5 -169.5q0 -76 -22.5 -139.5t-64 -113t-100 -84.5t-131.5 -54v-4q39 -22 68 -48.5t55 -54.5t51.5 -63.5t56.5 -82.5l255 -403h-278l-229 384q-31 53 -60.5 90.5t-60 61.5t-66.5 35t-81 11h-96v-582h-237zM308 1561 q11 120 95.5 194.5t211.5 74.5q126 0 209.5 -75t94.5 -194h-139q-23 137 -167 137q-143 0 -166 -137h-139zM414 775h198q55 0 101.5 17t80.5 49t53 78t19 103q0 103 -65 161t-187 58h-200v-466z" />
<glyph unicode="&#x213;" horiz-adv-x="758" d="M151 0v1024h232v-211h4q34 108 104.5 168.5t157.5 60.5q63 0 96 -19v-220q-42 33 -121 33q-103 0 -172 -93t-69 -253v-490h-232zM151 1184q11 120 95.5 194.5t211.5 74.5q126 0 209.5 -75t94.5 -194h-139q-23 137 -167 137q-143 0 -166 -137h-139z" />
<glyph unicode="&#x214;" horiz-adv-x="1440" d="M160 557v877h238v-828q0 -422 328 -422q316 0 316 407v843h238v-854q0 -604 -572 -604q-548 0 -548 581zM266 1872h185l211 -318h-148zM572 1872h183l208 -318h-148z" />
<glyph unicode="&#x215;" horiz-adv-x="1195" d="M131 412v612h232v-588q0 -276 213 -276q103 0 169.5 76t66.5 199v589h232v-1024h-232v162h-4q-101 -186 -314 -186q-363 0 -363 436zM139 1522h185l211 -318h-148zM445 1522h183l208 -318h-148z" />
<glyph unicode="&#x216;" horiz-adv-x="1440" d="M160 557v877h238v-828q0 -422 328 -422q316 0 316 407v843h238v-854q0 -604 -572 -604q-548 0 -548 581zM416 1561q11 120 95.5 194.5t211.5 74.5q126 0 209.5 -75t94.5 -194h-139q-23 137 -167 137q-143 0 -166 -137h-139z" />
<glyph unicode="&#x217;" horiz-adv-x="1195" d="M131 412v612h232v-588q0 -276 213 -276q103 0 169.5 76t66.5 199v589h232v-1024h-232v162h-4q-101 -186 -314 -186q-363 0 -363 436zM300 1184q11 120 95.5 194.5t211.5 74.5q126 0 209.5 -75t94.5 -194h-139q-23 137 -167 137q-143 0 -166 -137h-139z" />
<glyph unicode="&#x218;" horiz-adv-x="1115" d="M110 1064q0 101 45.5 175.5t120 123t169.5 72t194 23.5q225 0 328 -51v-235q-122 88 -314 88q-53 0 -105.5 -10t-94 -33t-67.5 -59t-26 -87q0 -48 20 -83t58.5 -64t94 -56.5t128.5 -59.5q75 -39 141.5 -82t117 -95t80 -115.5t29.5 -144.5q0 -109 -44 -184t-118.5 -122 t-171.5 -68t-205 -21q-36 0 -88.5 5.5t-107.5 16t-104 25.5t-79 34v245q33 -30 78.5 -54t96.5 -40.5t102 -25.5t94 -9q150 0 223.5 50t73.5 145q0 51 -24.5 88.5t-68.5 68.5t-103.5 59.5t-127.5 59.5q-73 39 -136 79t-109.5 88.5t-73 109.5t-26.5 143zM353 -420l105 302h217 l-167 -302h-155z" />
<glyph unicode="&#x219;" horiz-adv-x="883" d="M87 32v215q130 -99 287 -99q210 0 210 124q0 35 -18 59.5t-48.5 43.5t-72 34t-92.5 34q-63 25 -113.5 53t-84 63.5t-50.5 80.5t-17 105q0 74 35 130.5t94 95t134 58t155 19.5q142 0 254 -43v-203q-108 74 -248 74q-44 0 -79.5 -9t-60.5 -25t-39 -38.5t-14 -49.5 q0 -33 14 -56t41.5 -40.5t66 -32t88.5 -31.5q66 -27 118.5 -55t89.5 -63.5t57 -82t20 -110.5q0 -78 -36 -136t-96 -96t-138.5 -56.5t-165.5 -18.5q-168 0 -291 56zM238 -420l105 302h217l-167 -302h-155z" />
<glyph unicode="&#x21a;" horiz-adv-x="1130" d="M36 1232v202h1061v-202h-412v-1232h-238v1232h-411zM385 -420l105 302h217l-167 -302h-155z" />
<glyph unicode="&#x21b;" horiz-adv-x="740" d="M43 842v182h171v237l232 66v-303h245v-182h-245v-512q0 -91 33 -130t110 -39q59 0 102 34v-184q-68 -34 -179 -34q-298 0 -298 286v579h-171zM269 -420l105 302h217l-167 -302h-155z" />
<glyph unicode="&#x21c;" horiz-adv-x="1097" d="M9 -249q88 -23 205 -23q241 0 403.5 120t162.5 302q0 142 -101.5 232t-264.5 90q-94 0 -215 -36v207l105 23q400 85 400 324q0 118 -89.5 188.5t-243.5 70.5q-177 0 -344 -92v222q164 79 366 79q262 0 409 -122.5t147 -324.5q0 -271 -280 -381v-9q167 -40 264 -162 t97 -294q0 -267 -231.5 -456t-579.5 -189q-119 0 -210 17v214z" />
<glyph unicode="&#x21d;" horiz-adv-x="939" d="M30 -275q78 -20 178 -20q196 0 322 87t126 225q0 109 -76 176t-206 67q-88 0 -182 -32v185l90 16q149 27 231.5 93t82.5 154t-69 138t-197 50q-153 0 -297 -80v198q140 66 324 66q217 0 343 -98.5t126 -255.5q0 -193 -224 -299v-7q132 -29 211.5 -125.5t79.5 -232.5 q0 -220 -189 -365t-489 -145q-114 0 -185 16v189z" />
<glyph unicode="&#x21e;" horiz-adv-x="1506" d="M177 0v1434h238v-603h675v603h239v-1434h-239v622h-675v-622h-238zM436 1886h155l160 -210l161 210h157l-224 -327h-185z" />
<glyph unicode="&#x21f;" horiz-adv-x="1192" d="M151 0v1516h233v-662h4q116 194 332 194q341 0 341 -417v-631h-232v560q0 304 -203 304q-102 0 -172 -88t-70 -225v-551h-233zM239 1886h155l160 -210l161 210h157l-224 -327h-185z" />
<glyph unicode="&#x220;" horiz-adv-x="1547" d="M177 0v1434h238v-251h5q155 275 467 275q235 0 360 -154.5t125 -440.5v-1334h-239v1277q0 443 -324 443q-171 0 -282.5 -126.5t-111.5 -317.5v-805h-238z" />
<glyph unicode="&#x221;" horiz-adv-x="1345" d="M85 488q0 254 127.5 407t340.5 153q202 0 293 -155h4v623h232v-1467q0 -56 12 -102q95 85 235 85q127 0 207.5 -65t80.5 -168q0 -106 -90 -176.5t-232 -70.5q-135 0 -233 64q-21 -60 -24 -97h-200q13 123 84 243q-72 114 -72 285v112h-4q-109 -183 -336 -183 q-193 0 -309 137.5t-116 374.5zM322 496q0 -156 71.5 -246t192.5 -90q119 0 193 90t74 228v118q0 112 -72 189.5t-182 77.5q-129 0 -203 -97.5t-74 -269.5zM1165 -219q60 -55 140 -55q118 0 118 71q0 67 -101 67q-96 0 -157 -83z" />
<glyph unicode="&#x222;" horiz-adv-x="1311" d="M67 469q0 294 280 425q-209 106 -209 329q0 105 45 211h233q-42 -95 -42 -198q0 -109 76.5 -179.5t204.5 -70.5q130 0 208 70.5t78 179.5q0 100 -42 198h232q44 -109 44 -212q0 -206 -211 -328q133 -53 208 -161.5t75 -249.5q0 -226 -168 -366.5t-426 -140.5 q-263 0 -424.5 133.5t-161.5 359.5zM317 479q0 -134 99 -214.5t239 -80.5q147 0 245 80.5t98 216.5q0 135 -101 214.5t-242 79.5q-145 0 -241.5 -80t-96.5 -216z" />
<glyph unicode="&#x223;" horiz-adv-x="1221" d="M72 481q0 298 257 429q-92 47 -145.5 144t-53.5 218q0 119 34 244h220q-29 -107 -29 -224q0 -134 68.5 -216.5t187.5 -82.5t186 83t67 216q0 117 -28 224h221q33 -124 33 -242q0 -241 -200 -364q259 -128 259 -424q0 -224 -157 -367t-388 -143q-236 0 -384 139t-148 366z M308 485q0 -145 89 -235t213 -90q128 0 215 89.5t87 235.5q0 143 -88 233.5t-212 90.5q-130 0 -217 -88.5t-87 -235.5z" />
<glyph unicode="&#x224;" horiz-adv-x="1202" d="M37 0v110l788 1122h-728v202h1058v-103l-785 -1130h479q363 0 363 -299q0 -95 -43 -193h-221q48 83 48 155q0 136 -173 136h-786z" />
<glyph unicode="&#x225;" horiz-adv-x="951" d="M29 0v87l565 755h-510v182h823v-96l-552 -746h319q313 0 313 -270q0 -85 -39 -175h-200q40 76 40 143q0 120 -146 120h-613z" />
<glyph unicode="&#x226;" horiz-adv-x="1375" d="M17 0l537 1434h268l533 -1434h-261l-129 365h-564l-124 -365h-260zM463 559h439l-199 572q-9 28 -19 90h-4q-9 -57 -20 -90zM564 1686q0 48 36 81t87 33t87 -32.5t36 -81.5q0 -48 -36 -82t-87 -34q-50 0 -86.5 33.5t-36.5 82.5z" />
<glyph unicode="&#x227;" horiz-adv-x="1069" d="M75 275q0 290 334 338l304 43q0 219 -208 219q-183 0 -330 -126v203q162 96 374 96q388 0 388 -382v-666h-225v160h-4q-106 -184 -311 -184q-151 0 -236.5 82t-85.5 217zM297 300q0 -65 46.5 -106.5t124.5 -41.5q106 0 175.5 74.5t69.5 187.5v89l-215 -30 q-100 -13 -150.5 -48.5t-50.5 -124.5zM414 1321q0 48 36 81t87 33t87 -32.5t36 -81.5q0 -48 -36 -82t-87 -34q-50 0 -86.5 33.5t-36.5 82.5z" />
<glyph unicode="&#x228;" horiz-adv-x="1060" d="M177 0v1434h773v-202h-535v-406h493v-201h-493v-424h567v-201h-805zM442 -328q44 -6 71 -6q133 0 133 82q0 74 -121 74q-10 0 -39 -4v182h136v-94q87 0 138 -40.5t51 -113.5q0 -194 -288 -194q-47 0 -81 3v111z" />
<glyph unicode="&#x229;" horiz-adv-x="1088" d="M85 508q0 239 141.5 389.5t351.5 150.5t325 -135t115 -375v-89h-698q4 -142 87.5 -219t229.5 -77q164 0 301 98v-187q-140 -88 -370 -88q-226 0 -354.5 139.5t-128.5 392.5zM320 613h474q-1 125 -59 194.5t-160 69.5q-100 0 -169.5 -73t-85.5 -191zM421 -328q44 -6 71 -6 q133 0 133 82q0 74 -121 74q-10 0 -39 -4v182h136v-94q87 0 138 -40.5t51 -113.5q0 -194 -288 -194q-47 0 -81 3v111z" />
<glyph unicode="&#x22a;" d="M85 700q0 346 190 552t516 206q302 0 486.5 -200t184.5 -523q0 -351 -189 -555t-505 -204q-310 0 -496.5 201t-186.5 523zM335 715q0 -239 120 -385t314 -146q206 0 325 139t119 389q0 257 -115.5 397t-318.5 140q-197 0 -320.5 -147t-123.5 -387zM479 1663q0 44 31.5 73 t77.5 29q45 0 77.5 -29.5t32.5 -72.5t-30.5 -73t-74.5 -30q-46 0 -80 29.5t-34 73.5zM513 1836v137h543v-137h-543zM872 1663q0 44 32 73t75 29q46 0 78 -29.5t32 -72.5t-32 -73t-80 -30q-43 0 -74 29t-31 74z" />
<glyph unicode="&#x22b;" horiz-adv-x="1223" d="M85 500q0 258 147.5 403t397.5 145q240 0 374 -141t134 -391q0 -245 -144.5 -392.5t-388.5 -147.5q-237 0 -378.5 143.5t-141.5 380.5zM312 1321q0 44 31.5 73t77.5 29q45 0 77.5 -29.5t32.5 -72.5t-30.5 -73t-74.5 -30q-46 0 -80 29.5t-34 73.5zM322 506 q0 -161 80 -253.5t214 -92.5q137 0 210.5 91t73.5 259q0 169 -73.5 261t-210.5 92q-136 0 -215 -95t-79 -262zM346 1494v137h543v-137h-543zM705 1321q0 44 32 73t75 29q46 0 78 -29.5t32 -72.5t-32 -73t-80 -30q-43 0 -74 29t-31 74z" />
<glyph unicode="&#x22c;" d="M85 700q0 346 190 552t516 206q302 0 486.5 -200t184.5 -523q0 -351 -189 -555t-505 -204q-310 0 -496.5 201t-186.5 523zM335 715q0 -239 120 -385t314 -146q206 0 325 139t119 389q0 257 -115.5 397t-318.5 140q-197 0 -320.5 -147t-123.5 -387zM430 1562 q0 119 51 190.5t143 71.5q68 0 157 -51q72 -44 125 -44q81 0 81 114h119q0 -116 -51.5 -189.5t-139.5 -73.5q-72 0 -165 48q-78 45 -121 45q-84 0 -84 -111h-115zM492 1934v128h543v-128h-543z" />
<glyph unicode="&#x22d;" horiz-adv-x="1223" d="M85 500q0 258 147.5 403t397.5 145q240 0 374 -141t134 -391q0 -245 -144.5 -392.5t-388.5 -147.5q-237 0 -378.5 143.5t-141.5 380.5zM280 1182q0 119 51 190.5t143 71.5q68 0 157 -51q72 -44 125 -44q81 0 81 114h119q0 -116 -51.5 -189.5t-139.5 -73.5q-72 0 -165 48 q-78 45 -121 45q-84 0 -84 -111h-115zM322 506q0 -161 80 -253.5t214 -92.5q137 0 210.5 91t73.5 259q0 169 -73.5 261t-210.5 92q-136 0 -215 -95t-79 -262zM342 1554v128h543v-128h-543z" />
<glyph unicode="&#x22e;" d="M85 700q0 346 190 552t516 206q302 0 486.5 -200t184.5 -523q0 -351 -189 -555t-505 -204q-310 0 -496.5 201t-186.5 523zM335 715q0 -239 120 -385t314 -146q206 0 325 139t119 389q0 257 -115.5 397t-318.5 140q-197 0 -320.5 -147t-123.5 -387zM650 1686q0 48 36 81 t87 33t87 -32.5t36 -81.5q0 -48 -36 -82t-87 -34q-50 0 -86.5 33.5t-36.5 82.5z" />
<glyph unicode="&#x22f;" horiz-adv-x="1223" d="M85 500q0 258 147.5 403t397.5 145q240 0 374 -141t134 -391q0 -245 -144.5 -392.5t-388.5 -147.5q-237 0 -378.5 143.5t-141.5 380.5zM322 506q0 -161 80 -253.5t214 -92.5q137 0 210.5 91t73.5 259q0 169 -73.5 261t-210.5 92q-136 0 -215 -95t-79 -262zM487 1321 q0 48 36 81t87 33t87 -32.5t36 -81.5q0 -48 -36 -82t-87 -34q-50 0 -86.5 33.5t-36.5 82.5z" />
<glyph unicode="&#x230;" d="M85 700q0 346 190 552t516 206q302 0 486.5 -200t184.5 -523q0 -351 -189 -555t-505 -204q-310 0 -496.5 201t-186.5 523zM335 715q0 -239 120 -385t314 -146q206 0 325 139t119 389q0 257 -115.5 397t-318.5 140q-197 0 -320.5 -147t-123.5 -387zM537 1848v137h543v-137 h-543zM700 1678q0 43 32 72t76 29q46 0 77.5 -29t31.5 -72t-31.5 -73t-77.5 -30q-44 0 -76 29.5t-32 73.5z" />
<glyph unicode="&#x2c6;" horiz-adv-x="771" d="M65 1204l224 328h184l225 -328h-160l-161 211l-157 -211h-155z" />
<glyph unicode="&#x2c7;" horiz-adv-x="771" d="M71 1531h155l160 -210l161 210h157l-224 -327h-185z" />
<glyph unicode="&#x2d8;" horiz-adv-x="661" d="M28 1480h136q12 -146 166 -146q65 0 111 39.5t56 106.5h137q-11 -124 -97.5 -200t-209.5 -76q-130 0 -211.5 75.5t-87.5 200.5z" />
<glyph unicode="&#x2d9;" horiz-adv-x="460" d="M107 1319q0 48 36 81t87 33t87 -32.5t36 -81.5q0 -48 -36 -82t-87 -34q-50 0 -86.5 33.5t-36.5 82.5z" />
<glyph unicode="&#x2da;" horiz-adv-x="565" d="M62 1376q0 98 63 156t161 58q96 0 157.5 -58.5t61.5 -149.5q0 -87 -65.5 -144.5t-160.5 -57.5q-94 0 -155.5 54t-61.5 142zM175 1386q0 -104 104 -104q48 0 79.5 29.5t31.5 74.5t-31.5 74.5t-79.5 29.5q-45 0 -74.5 -30t-29.5 -74z" />
<glyph unicode="&#x2db;" horiz-adv-x="454" d="M78 -250q0 122 161 250h135q-151 -137 -151 -216q0 -68 65 -68q36 0 68 13v-121q-38 -16 -105 -16q-78 0 -125.5 42t-47.5 116z" />
<glyph unicode="&#x2dc;" horiz-adv-x="733" d="M35 1194q0 119 51 190.5t143 71.5q68 0 157 -51q72 -44 125 -44q81 0 81 114h119q0 -116 -51.5 -189.5t-139.5 -73.5q-72 0 -165 48q-78 45 -121 45q-84 0 -84 -111h-115z" />
<glyph unicode="&#x2dd;" horiz-adv-x="740" d="M50 1204l208 318h183l-243 -318h-148zM351 1204l211 318h185l-248 -318h-148z" />
<glyph unicode="&#x3a9;" horiz-adv-x="1556" d="M92 0v198h344q-343 224 -343 607q0 304 188 478.5t495 174.5q314 0 501.5 -173t187.5 -478q0 -383 -347 -609h347v-198h-556v198q308 235 308 584q0 217 -121.5 343.5t-313.5 126.5q-194 0 -317.5 -127t-123.5 -347q0 -346 307 -580v-198h-556z" />
<glyph unicode="&#x3c0;" horiz-adv-x="1344" d="M14 759v197q80 68 260 68h994v-178h-222v-533q0 -136 95 -136q35 0 90 21v-186q-73 -27 -146 -27q-272 0 -272 307v554h-325v-580q0 -182 -36 -266h-237q41 83 41 266v580q-122 -3 -242 -87z" />
<glyph unicode="&#x400;" horiz-adv-x="1060" d="M177 0v1434h773v-202h-535v-406h493v-201h-493v-424h567v-201h-805zM293 1881h214l221 -328h-173z" />
<glyph unicode="&#x401;" horiz-adv-x="1060" d="M177 0v1434h773v-202h-535v-406h493v-201h-493v-424h567v-201h-805zM246 1668q0 49 35.5 82t86.5 33t88.5 -33.5t37.5 -81.5q0 -49 -36 -83t-86 -34q-52 0 -89 34.5t-37 82.5zM665 1668q0 49 35 82t85 33q53 0 89.5 -33.5t36.5 -81.5q0 -49 -35 -83t-88 -34 q-50 0 -86.5 33t-36.5 84z" />
<glyph unicode="&#x402;" horiz-adv-x="1484" d="M36 1231v203h1060v-203h-454v-388h252q226 0 357 -117t131 -329q0 -196 -102.5 -304.5t-289.5 -108.5q-99 0 -177 25v191q64 -31 154 -31q82 0 131 61t49 165q0 123 -75 191.5t-209 68.5h-221v-655h-238v1231h-368z" />
<glyph unicode="&#x403;" horiz-adv-x="1003" d="M177 0v1434h794v-206h-556v-1228h-238zM433 1566l242 328h216l-286 -328h-172z" />
<glyph unicode="&#x404;" horiz-adv-x="1270" d="M85 688q0 348 200 559t517 211q216 0 369 -57v-232q-160 86 -360 86q-195 0 -321 -118t-148 -325h597v-198h-597q15 -204 139.5 -320.5t320.5 -116.5q217 0 369 95v-217q-161 -79 -400 -79q-310 0 -498 197t-188 515z" />
<glyph unicode="&#x405;" horiz-adv-x="1115" d="M110 1064q0 101 45.5 175.5t120 123t169.5 72t194 23.5q225 0 328 -51v-235q-122 88 -314 88q-53 0 -105.5 -10t-94 -33t-67.5 -59t-26 -87q0 -48 20 -83t58.5 -64t94 -56.5t128.5 -59.5q75 -39 141.5 -82t117 -95t80 -115.5t29.5 -144.5q0 -109 -44 -184t-118.5 -122 t-171.5 -68t-205 -21q-36 0 -88.5 5.5t-107.5 16t-104 25.5t-79 34v245q33 -30 78.5 -54t96.5 -40.5t102 -25.5t94 -9q150 0 223.5 50t73.5 145q0 51 -24.5 88.5t-68.5 68.5t-103.5 59.5t-127.5 59.5q-73 39 -136 79t-109.5 88.5t-73 109.5t-26.5 143z" />
<glyph unicode="&#x406;" horiz-adv-x="592" d="M46 0v192h131v1050h-131v192h500v-192h-131v-1050h131v-192h-500z" />
<glyph unicode="&#x407;" horiz-adv-x="592" d="M-31 1668q0 49 35.5 82t86.5 33t88.5 -33.5t37.5 -81.5q0 -49 -36 -83t-86 -34q-52 0 -89 34.5t-37 82.5zM46 0v192h131v1050h-131v192h500v-192h-131v-1050h131v-192h-500zM388 1668q0 49 35 82t85 33q53 0 89.5 -33.5t36.5 -81.5q0 -49 -35 -83t-88 -34q-50 0 -86.5 33 t-36.5 84z" />
<glyph unicode="&#x408;" horiz-adv-x="812" d="M25 -1v224q57 -39 147 -39q238 0 238 368v882h238v-920q0 -255 -126 -396.5t-336 -141.5q-98 0 -161 23z" />
<glyph unicode="&#x409;" horiz-adv-x="2058" d="M19 3v206q50 -29 110 -29t113 71t107.5 369.5t121.5 813.5h781v-582h273q216 0 334.5 -105.5t118.5 -301.5q0 -204 -132.5 -324.5t-363.5 -120.5h-468v1229h-348q-72 -519 -114 -733.5t-85 -316t-116 -151t-176 -49.5q-90 0 -156 24zM1252 194h204q131 0 201.5 62.5 t70.5 172.5q0 230 -272 230h-204v-465z" />
<glyph unicode="&#x40a;" horiz-adv-x="2072" d="M177 0v1434h237v-585h615v585h237v-578h246q227 0 353.5 -106t126.5 -303q0 -207 -134.5 -327t-368.5 -120h-460v642h-615v-642h-237zM1266 195h205q130 0 200.5 62.5t70.5 173.5q0 228 -271 228h-205v-464z" />
<glyph unicode="&#x40b;" horiz-adv-x="1551" d="M36 1231v203h1061v-203h-412v-386h278q476 0 476 -458v-387h-237v376q0 265 -266 265h-251v-641h-238v1231h-411z" />
<glyph unicode="&#x40c;" horiz-adv-x="1251" d="M177 0v1434h238v-674h4q12 22 34 49l481 625h285l-563 -688l606 -746h-310l-499 656q-28 37 -34 50h-4v-706h-238zM531 1580l242 328h216l-286 -328h-172z" />
<glyph unicode="&#x40d;" horiz-adv-x="1572" d="M177 0v1434h230v-912q0 -157 -8 -205h4q20 40 52 88l664 1029h274v-1434h-229v955q0 129 10 182h-6q-17 -45 -42 -83l-688 -1054h-261zM484 1881h214l221 -328h-173z" />
<glyph unicode="&#x40e;" horiz-adv-x="1206" d="M43 1434h271l296 -680q9 -21 35 -104h2q3 10 38 104l279 680h252l-446 -993q-124 -271 -239.5 -368.5t-252.5 -97.5q-109 0 -182 31v227q87 -52 167 -52q71 0 130.5 54t128.5 190zM251 1888h193q14 -182 195 -182q80 0 132.5 48t64.5 134h193q-16 -150 -123.5 -236.5 t-269.5 -86.5q-166 0 -270.5 86.5t-114.5 236.5z" />
<glyph unicode="&#x40f;" horiz-adv-x="1503" d="M177 0v1434h238v-1226h675v1226h239v-1434h-473v-387h-212v387h-467z" />
<glyph unicode="&#x410;" horiz-adv-x="1375" d="M17 0l537 1434h268l533 -1434h-261l-129 365h-564l-124 -365h-260zM463 559h439l-199 572q-9 28 -19 90h-4q-9 -57 -20 -90z" />
<glyph unicode="&#x411;" horiz-adv-x="1236" d="M177 0v1434h837v-203h-599v-392h274q220 0 342.5 -104t122.5 -295q0 -204 -130.5 -322t-355.5 -118h-491zM415 190h215q131 0 202 62t71 173q0 225 -269 225h-219v-460z" />
<glyph unicode="&#x412;" horiz-adv-x="1237" d="M177 0v1434h455q208 0 329.5 -91t121.5 -237q0 -122 -69 -212t-191 -128v-4q148 -17 236.5 -109.5t88.5 -240.5q0 -184 -145 -298t-366 -114h-460zM414 190h203q133 0 205.5 61.5t72.5 169.5q0 223 -309 223h-172v-454zM414 835h154q124 0 194.5 58.5t70.5 165.5 q0 184 -246 184h-173v-408z" />
<glyph unicode="&#x413;" horiz-adv-x="1003" d="M177 0v1434h794v-206h-556v-1228h-238z" />
<glyph unicode="&#x414;" horiz-adv-x="1495" d="M25 202h121q135 253 229 590.5t106 641.5h745v-1232h198v-589h-213v387h-974v-387h-212v589zM396 202h592v1027h-310q-14 -224 -97 -525t-185 -502z" />
<glyph unicode="&#x415;" horiz-adv-x="1060" d="M177 0v1434h773v-202h-535v-406h493v-201h-493v-424h567v-201h-805z" />
<glyph unicode="&#x416;" horiz-adv-x="1891" d="M-17 0l608 746l-565 688h287l475 -612q23 -29 38 -56h4v668h230v-668h4q13 25 38 56l475 612h286l-564 -688l607 -746h-305l-504 649q-21 28 -33 50h-4v-699h-230v699h-4q-13 -25 -33 -50l-504 -649h-306z" />
<glyph unicode="&#x417;" horiz-adv-x="1123" d="M85 56v228q169 -120 384 -120q141 0 224.5 65.5t83.5 175.5q0 240 -339 240h-165v186h155q144 0 223 60t79 169q0 94 -67 150.5t-184 56.5q-178 0 -347 -108v212q166 87 383 87q216 0 340 -98.5t124 -258.5q0 -277 -277 -350v-4q148 -17 235.5 -110t87.5 -230 q0 -197 -147 -314t-402 -117q-253 0 -391 80z" />
<glyph unicode="&#x418;" horiz-adv-x="1572" d="M177 0v1434h230v-912q0 -157 -8 -205h4q20 40 52 88l664 1029h274v-1434h-229v955q0 129 10 182h-6q-17 -45 -42 -83l-688 -1054h-261z" />
<glyph unicode="&#x419;" horiz-adv-x="1572" d="M177 0v1434h230v-912q0 -157 -8 -205h4q20 40 52 88l664 1029h274v-1434h-229v955q0 129 10 182h-6q-17 -45 -42 -83l-688 -1054h-261zM407 1888h193q14 -182 195 -182q80 0 132.5 48t64.5 134h193q-16 -150 -123.5 -236.5t-269.5 -86.5q-166 0 -270.5 86.5t-114.5 236.5 z" />
<glyph unicode="&#x41a;" horiz-adv-x="1251" d="M177 0v1434h238v-674h4q12 22 34 49l481 625h285l-563 -688l606 -746h-310l-499 656q-28 37 -34 50h-4v-706h-238z" />
<glyph unicode="&#x41b;" horiz-adv-x="1431" d="M19 2v203q48 -25 107 -25q61 0 114 71t108.5 369.5t122.5 813.5h781v-1434h-238v1229h-348q-73 -519 -115 -733.5t-85 -316t-117 -151t-177 -49.5q-88 0 -153 23z" />
<glyph unicode="&#x41c;" horiz-adv-x="1893" d="M177 0v1434h335l377 -955q43 -110 56 -164h5q37 113 60 168l384 951h323v-1434h-236v928q0 114 14 279h-4q-22 -94 -39 -135l-428 -1072h-164l-429 1064q-18 47 -38 143h-4q8 -86 8 -281v-926h-220z" />
<glyph unicode="&#x41d;" horiz-adv-x="1506" d="M177 0v1434h238v-603h675v603h239v-1434h-239v622h-675v-622h-238z" />
<glyph unicode="&#x41e;" d="M85 700q0 346 190 552t516 206q302 0 486.5 -200t184.5 -523q0 -351 -189 -555t-505 -204q-310 0 -496.5 201t-186.5 523zM335 715q0 -239 120 -385t314 -146q206 0 325 139t119 389q0 257 -115.5 397t-318.5 140q-197 0 -320.5 -147t-123.5 -387z" />
<glyph unicode="&#x41f;" horiz-adv-x="1508" d="M177 0v1434h1157v-1434h-239v1221h-680v-1221h-238z" />
<glyph unicode="&#x420;" horiz-adv-x="1197" d="M177 0v1434h435q247 0 383 -115t136 -324t-142 -342t-384 -133h-191v-520h-237zM414 714h154q153 0 233 71t80 200q0 253 -294 253h-173v-524z" />
<glyph unicode="&#x421;" horiz-adv-x="1272" d="M86 690q0 344 211.5 556t534.5 212q208 0 345 -59v-236q-145 86 -320 86q-233 0 -377.5 -149t-144.5 -398q0 -237 135 -377.5t355 -140.5q203 0 352 96v-220q-162 -84 -403 -84q-312 0 -500 197t-188 517z" />
<glyph unicode="&#x422;" horiz-adv-x="1130" d="M36 1232v202h1061v-202h-412v-1232h-238v1232h-411z" />
<glyph unicode="&#x423;" horiz-adv-x="1206" d="M43 1434h271l296 -680q9 -21 35 -104h2q3 10 38 104l279 680h252l-446 -993q-124 -271 -239.5 -368.5t-252.5 -97.5q-109 0 -182 31v227q87 -52 167 -52q71 0 130.5 54t128.5 190z" />
<glyph unicode="&#x424;" horiz-adv-x="1591" d="M83 747q0 232 159 390.5t407 158.5h38v173h227v-173h30q254 0 413.5 -156t159.5 -393q0 -239 -163 -406t-413 -167h-27v-178h-227v178h-28q-250 0 -413 165.5t-163 407.5zM329 743q0 -173 91.5 -275.5t242.5 -102.5h24v745h-22q-151 0 -243.5 -102.5t-92.5 -264.5z M914 365h23q152 0 243 103t91 275q0 165 -91 266t-245 101h-21v-745z" />
<glyph unicode="&#x425;" horiz-adv-x="1268" d="M17 0l470 721l-432 713h291l259 -484q25 -48 45 -96h3q29 63 50 100l269 480h268l-442 -711l451 -723h-285l-294 526q-13 24 -29 68h-4q-9 -22 -30 -68l-303 -526h-287z" />
<glyph unicode="&#x426;" horiz-adv-x="1593" d="M177 0v1434h238v-1226h675v1226h239v-1226h197v-596h-213v388h-1136z" />
<glyph unicode="&#x427;" horiz-adv-x="1414" d="M154 878v556h237v-513q0 -223 228 -223q162 0 369 104v632h238v-1434h-238v611q-225 -116 -418 -116q-199 0 -307.5 100.5t-108.5 282.5z" />
<glyph unicode="&#x428;" horiz-adv-x="2001" d="M177 0v1434h238v-1226h466v1226h237v-1226h466v1226h238v-1434h-1645z" />
<glyph unicode="&#x429;" horiz-adv-x="2087" d="M177 0v1434h238v-1226h466v1226h237v-1226h466v1226h238v-1226h198v-596h-204v388h-1639z" />
<glyph unicode="&#x42a;" horiz-adv-x="1493" d="M36 1230v204h649v-577h245q227 0 354 -105.5t127 -302.5q0 -208 -133.5 -328.5t-363.5 -120.5h-468v1230h-410zM685 194h205q129 0 200 63.5t71 175.5q0 231 -271 231h-205v-470z" />
<glyph unicode="&#x42b;" horiz-adv-x="1710" d="M177 0v1434h237v-577h245q228 0 355 -106t127 -302q0 -208 -133.5 -328.5t-363.5 -120.5h-467zM414 194h206q130 0 200.5 63t70.5 176q0 231 -271 231h-206v-470zM1295 0v1434h237v-1434h-237z" />
<glyph unicode="&#x42c;" horiz-adv-x="1223" d="M177 0v1434h237v-577h245q228 0 355 -106t127 -302q0 -208 -133.5 -328.5t-363.5 -120.5h-467zM414 194h206q130 0 200.5 63t70.5 176q0 231 -278 231h-199v-470z" />
<glyph unicode="&#x42d;" horiz-adv-x="1269" d="M96 55v217q152 -95 370 -95q196 0 320.5 115.5t139.5 321.5h-598v198h598q-24 210 -147 326.5t-320 116.5q-200 0 -363 -85v228q157 60 377 60q316 0 513 -205.5t197 -549.5q0 -322 -189.5 -524.5t-499.5 -202.5q-236 0 -398 79z" />
<glyph unicode="&#x42e;" horiz-adv-x="2128" d="M177 0v1434h237v-594h315q30 291 206.5 454.5t459.5 163.5q294 0 470 -198.5t176 -528.5q0 -353 -180 -554t-490 -201q-289 0 -464.5 180.5t-183.5 478.5h-309v-635h-237zM970 720q0 -255 106 -395.5t298 -140.5q199 0 308 137.5t109 388.5q0 261 -105 400t-296 139 q-197 0 -308.5 -141t-111.5 -388z" />
<glyph unicode="&#x42f;" horiz-adv-x="1255" d="M38 0l211 456q25 53 76.5 111.5t119.5 83.5v4q-148 31 -230.5 130.5t-82.5 241.5q0 184 137 295.5t360 111.5h448v-1434h-238v586h-154q-59 0 -103.5 -33t-95.5 -147l-170 -406h-278zM384 1013q0 -109 71.5 -172t192.5 -63h191v461h-199q-122 0 -189 -59t-67 -167z" />
<glyph unicode="&#x430;" horiz-adv-x="1069" d="M75 275q0 290 334 338l304 43q0 219 -208 219q-183 0 -330 -126v203q162 96 374 96q388 0 388 -382v-666h-225v160h-4q-106 -184 -311 -184q-151 0 -236.5 82t-85.5 217zM297 300q0 -65 46.5 -106.5t124.5 -41.5q106 0 175.5 74.5t69.5 187.5v89l-215 -30 q-100 -13 -150.5 -48.5t-50.5 -124.5z" />
<glyph unicode="&#x431;" horiz-adv-x="1213" d="M100 628q0 242 49 410t136 253t193 117t364 75q102 22 152 50v-197q-40 -27 -129 -40q-220 -31 -307.5 -59.5t-143.5 -121t-72 -270.5h4q114 154 326 154q205 0 330 -136.5t125 -360.5q0 -238 -138.5 -382t-373.5 -144q-248 0 -381.5 169t-133.5 483zM339 528 q1 -71 21 -140.5t57 -122.5t88 -79t116 -26q120 0 194.5 91.5t74.5 234.5q0 153 -75.5 243.5t-204.5 90.5q-180 0 -271 -164v-128z" />
<glyph unicode="&#x432;" horiz-adv-x="1131" d="M151 0v1024h489q165 0 261 -67t96 -183q0 -196 -201 -238q239 -30 239 -236q0 -127 -101 -213.5t-251 -86.5h-532zM383 165h238q178 0 178 144q0 135 -193 135h-223v-279zM383 605h205q174 0 174 135q0 120 -152 120h-227v-255z" />
<glyph unicode="&#x433;" horiz-adv-x="809" d="M151 0v1024h614v-185h-381v-839h-233z" />
<glyph unicode="&#x434;" horiz-adv-x="1187" d="M18 177h91q245 362 249 847h616v-847h157v-550h-193v373h-729v-373h-191v550zM343 177h399v671h-195q-24 -372 -204 -671z" />
<glyph unicode="&#x435;" horiz-adv-x="1088" d="M85 508q0 239 141.5 389.5t351.5 150.5t325 -135t115 -375v-89h-698q4 -142 87.5 -219t229.5 -77q164 0 301 98v-187q-140 -88 -370 -88q-226 0 -354.5 139.5t-128.5 392.5zM320 613h474q-1 125 -59 194.5t-160 69.5q-100 0 -169.5 -73t-85.5 -191z" />
<glyph unicode="&#x436;" horiz-adv-x="1622" d="M6 0l454 532l-433 492h282l385 -482h4v482h226v-482h4l385 482h282l-434 -492l457 -532h-290l-400 509h-4v-509h-226v509h-3l-401 -509h-288z" />
<glyph unicode="&#x437;" horiz-adv-x="945" d="M80 28v191q130 -72 304 -72q245 0 245 148t-289 148h-98v164h94q257 0 257 141q0 59 -54.5 94t-148.5 35q-143 0 -286 -68v182q173 58 318 58q407 0 407 -276q0 -89 -58.5 -153t-164.5 -85v-5q117 -9 188 -76t71 -170q0 -140 -122 -223t-336 -83t-327 50z" />
<glyph unicode="&#x438;" horiz-adv-x="1233" d="M151 0v1024h213v-736q11 26 47 90l437 646h233v-1024h-210v751q-20 -40 -61 -111l-431 -640h-228z" />
<glyph unicode="&#x439;" horiz-adv-x="1233" d="M151 0v1024h213v-736q11 26 47 90l437 646h233v-1024h-210v751q-20 -40 -61 -111l-431 -640h-228zM236 1517h193q14 -182 195 -182q80 0 132.5 48t64.5 134h193q-16 -150 -123.5 -236.5t-269.5 -86.5q-166 0 -270.5 86.5t-114.5 236.5z" />
<glyph unicode="&#x43a;" horiz-adv-x="1075" d="M151 0v1024h233v-471h4l376 471h284l-426 -488l459 -536h-295l-398 499h-4v-499h-233z" />
<glyph unicode="&#x43b;" horiz-adv-x="1149" d="M16 4v173q35 -17 75 -17q215 0 276 864h631v-1024h-233v847h-209q-44 -475 -150.5 -667.5t-286.5 -192.5q-60 0 -103 17z" />
<glyph unicode="&#x43c;" horiz-adv-x="1507" d="M151 0v1024h302l235 -632q25 -69 64 -191l64 187l230 636h310v-1024h-222v820q-20 -62 -61 -183l-231 -637h-206l-235 639q-19 52 -61 183v-822h-189z" />
<glyph unicode="&#x43d;" horiz-adv-x="1214" d="M151 0v1024h233v-402h446v402h233v-1024h-233v448h-446v-448h-233z" />
<glyph unicode="&#x43e;" horiz-adv-x="1223" d="M85 500q0 258 147.5 403t397.5 145q240 0 374 -141t134 -391q0 -245 -144.5 -392.5t-388.5 -147.5q-237 0 -378.5 143.5t-141.5 380.5zM322 506q0 -161 80 -253.5t214 -92.5q137 0 210.5 91t73.5 259q0 169 -73.5 261t-210.5 92q-136 0 -215 -95t-79 -262z" />
<glyph unicode="&#x43f;" horiz-adv-x="1214" d="M151 0v1024h912v-1024h-233v847h-446v-847h-233z" />
<glyph unicode="&#x440;" horiz-adv-x="1234" d="M151 -471v1495h232v-180h4q119 204 348 204q195 0 304 -137t109 -368q0 -256 -123 -410t-336 -154q-196 0 -302 172h-4v-622h-232zM381 428q0 -112 71.5 -190t181.5 -78q129 0 202.5 100.5t73.5 280.5q0 151 -68.5 236.5t-185.5 85.5q-124 0 -199.5 -88t-75.5 -220v-127z " />
<glyph unicode="&#x441;" horiz-adv-x="963" d="M85 488q0 253 150.5 406.5t402.5 153.5q140 0 247 -49v-216q-107 80 -228 80q-147 0 -241 -99.5t-94 -260.5q0 -159 88.5 -251t237.5 -92q125 0 236 89v-202q-123 -71 -291 -71q-228 0 -368 142.5t-140 369.5z" />
<glyph unicode="&#x442;" horiz-adv-x="881" d="M30 839v185h819v-185h-292v-839h-233v839h-294z" />
<glyph unicode="&#x443;" horiz-adv-x="1041" d="M6 1024h257l244 -744q4 -14 18 -74h5q5 23 18 72l256 746h234l-462 -1188q-144 -318 -404 -318q-73 0 -122 13v193q55 -18 100 -18q130 0 194 128l69 168z" />
<glyph unicode="&#x444;" horiz-adv-x="1495" d="M83 503q0 245 146 392t386 147h25v419h214v-419h23q242 0 388 -146t146 -393q0 -233 -143.5 -377t-376.5 -144h-37v-460h-214v460h-34q-234 0 -378.5 144t-144.5 377zM320 506q0 -159 82 -254t220 -95h18v709h-21q-135 0 -217 -96t-82 -264zM854 157h19q137 0 219 94 t82 255q0 169 -80.5 264.5t-215.5 95.5h-24v-709z" />
<glyph unicode="&#x445;" horiz-adv-x="1026" d="M17 0l348 502l-330 522h270l177 -333q20 -37 39 -76h3l229 409h254l-341 -518l337 -506h-269l-180 317q-17 29 -40 74h-4q-4 -9 -42 -74l-183 -317h-268z" />
<glyph unicode="&#x446;" horiz-adv-x="1276" d="M151 0v1024h233v-847h446v847h233v-847h157v-550h-194v373h-875z" />
<glyph unicode="&#x447;" horiz-adv-x="1190" d="M138 667v357h227v-325q0 -217 170 -217q126 0 271 75v467h232v-1024h-232v386q-175 -95 -322 -95q-346 0 -346 376z" />
<glyph unicode="&#x448;" horiz-adv-x="1695" d="M151 0v1024h233v-847h347v847h233v-847h347v847h233v-1024h-1393z" />
<glyph unicode="&#x449;" horiz-adv-x="1759" d="M151 0v1024h233v-847h347v847h233v-847h348v847h233v-847h157v-550h-194v373h-1357z" />
<glyph unicode="&#x44a;" horiz-adv-x="1263" d="M28 839v185h535v-378h280q159 0 252.5 -83t93.5 -233q0 -153 -102.5 -241.5t-258.5 -88.5h-499v839h-301zM563 167h204q184 0 184 161q0 151 -183 151h-205v-312z" />
<glyph unicode="&#x44b;" horiz-adv-x="1550" d="M151 0v1024h232v-378h280q159 0 253 -83.5t94 -232.5q0 -153 -97.5 -241.5t-245.5 -88.5h-516zM383 167h212q176 0 176 161q0 151 -178 151h-210v-312zM1166 0v1024h232v-1024h-232z" />
<glyph unicode="&#x44c;" horiz-adv-x="1083" d="M151 0v1024h232v-378h273q163 0 258.5 -83.5t95.5 -232.5q0 -153 -95.5 -241.5t-241.5 -88.5h-522zM383 167h212q176 0 176 161q0 151 -178 151h-210v-312z" />
<glyph unicode="&#x44d;" horiz-adv-x="962" d="M83 44v186q112 -80 257 -80q133 0 215 76t89 205h-411v161h412q-11 131 -93 205.5t-218 74.5q-139 0 -241 -74v195q112 55 263 55q253 0 388.5 -142.5t135.5 -401.5q0 -241 -139 -384.5t-374 -143.5q-164 0 -284 68z" />
<glyph unicode="&#x44e;" horiz-adv-x="1730" d="M151 0v1024h233v-402h259q27 201 161.5 313.5t344.5 112.5q235 0 364.5 -137t129.5 -391q0 -251 -136.5 -397.5t-376.5 -146.5q-227 0 -354 123t-138 345h-254v-444h-233zM872 513q0 -353 270 -353q264 0 264 354q0 350 -268 350q-266 0 -266 -351z" />
<glyph unicode="&#x44f;" horiz-adv-x="1090" d="M49 0l162 304q69 118 166 156q-122 16 -186.5 87.5t-64.5 179.5q0 137 109.5 217t294.5 80h410v-1024h-231v405h-119q-86 0 -156 -154l-122 -251h-263zM361 713q0 -148 185 -148h163v291h-160q-188 0 -188 -143z" />
<glyph unicode="&#x450;" horiz-adv-x="1088" d="M85 508q0 239 141.5 389.5t351.5 150.5t325 -135t115 -375v-89h-698q4 -142 87.5 -219t229.5 -77q164 0 301 98v-187q-140 -88 -370 -88q-226 0 -354.5 139.5t-128.5 392.5zM290 1532h214l221 -328h-173zM320 613h474q-1 125 -59 194.5t-160 69.5q-100 0 -169.5 -73 t-85.5 -191z" />
<glyph unicode="&#x451;" horiz-adv-x="1088" d="M85 508q0 239 141.5 389.5t351.5 150.5t325 -135t115 -375v-89h-698q4 -142 87.5 -219t229.5 -77q164 0 301 98v-187q-140 -88 -370 -88q-226 0 -354.5 139.5t-128.5 392.5zM234 1320q0 49 35.5 82t86.5 33t88.5 -33.5t37.5 -81.5q0 -49 -36 -83t-86 -34q-52 0 -89 34.5 t-37 82.5zM320 613h474q-1 125 -59 194.5t-160 69.5q-100 0 -169.5 -73t-85.5 -191zM653 1320q0 49 35 82t85 33q53 0 89.5 -33.5t36.5 -81.5q0 -49 -35 -83t-88 -34q-50 0 -86.5 33t-36.5 84z" />
<glyph unicode="&#x452;" horiz-adv-x="1220" d="M34 1192v145l138 -1v180h231v-179h332v-145h-332v-354h4q104 186 312 186q382 0 382 -647q0 -424 -115.5 -615.5t-360.5 -191.5q-59 0 -126 27v196q63 -36 118 -36q129 0 189.5 140.5t60.5 474.5q0 463 -225 463q-101 0 -170 -79.5t-69 -197.5v-558h-232v1192h-137z" />
<glyph unicode="&#x453;" horiz-adv-x="809" d="M151 0v1024h614v-185h-381v-839h-233zM278 1218l242 328h216l-286 -328h-172z" />
<glyph unicode="&#x454;" horiz-adv-x="963" d="M85 496q0 259 143.5 405.5t394.5 146.5q143 0 250 -50v-198q-97 72 -239 72q-135 0 -218.5 -76t-95.5 -204h412v-161h-412q7 -128 88 -204.5t216 -76.5q141 0 257 84v-190q-121 -68 -289 -68q-235 0 -371 141t-136 379z" />
<glyph unicode="&#x455;" horiz-adv-x="883" d="M87 32v215q130 -99 287 -99q210 0 210 124q0 35 -18 59.5t-48.5 43.5t-72 34t-92.5 34q-63 25 -113.5 53t-84 63.5t-50.5 80.5t-17 105q0 74 35 130.5t94 95t134 58t155 19.5q142 0 254 -43v-203q-108 74 -248 74q-44 0 -79.5 -9t-60.5 -25t-39 -38.5t-14 -49.5 q0 -33 14 -56t41.5 -40.5t66 -32t88.5 -31.5q66 -27 118.5 -55t89.5 -63.5t57 -82t20 -110.5q0 -78 -36 -136t-96 -96t-138.5 -56.5t-165.5 -18.5q-168 0 -291 56z" />
<glyph unicode="&#x456;" horiz-adv-x="535" d="M130 1370q0 57 40.5 95t97.5 38q59 0 100 -38t41 -95q0 -54 -41 -92.5t-100 -38.5q-57 0 -97.5 37t-40.5 94zM151 0v1024h232v-1024h-232z" />
<glyph unicode="&#x457;" horiz-adv-x="535" d="M-62 1320q0 49 35.5 82t86.5 33t88.5 -33.5t37.5 -81.5q0 -49 -36 -83t-86 -34q-52 0 -89 34.5t-37 82.5zM151 0v1024h233v-1024h-233zM357 1320q0 49 35 82t85 33q53 0 89.5 -33.5t36.5 -81.5q0 -49 -35 -83t-88 -34q-50 0 -86.5 33t-36.5 84z" />
<glyph unicode="&#x458;" horiz-adv-x="535" d="M-168 -251q65 -45 123 -45q196 0 196 346v974h232v-981q0 -252 -106 -388.5t-303 -136.5q-73 0 -142 32v199zM131 1370q0 57 40.5 95t97.5 38q58 0 99 -38t41 -95q0 -54 -41 -92.5t-99 -38.5q-57 0 -97.5 37t-40.5 94z" />
<glyph unicode="&#x459;" horiz-adv-x="1699" d="M16 3v174q35 -17 75 -17q215 0 276 864h631v-384h272q163 0 259 -82.5t96 -230.5q0 -150 -98 -238.5t-246 -88.5h-516v847h-209q-44 -475 -150.5 -667.5t-286.5 -192.5q-60 0 -103 16zM998 168h203q185 0 185 156q0 147 -186 147h-202v-303z" />
<glyph unicode="&#x45a;" horiz-adv-x="1703" d="M151 0v1024h233v-388h380v388h233v-388h272q167 0 260.5 -80.5t93.5 -228.5q0 -153 -96.5 -240t-246.5 -87h-516v459h-380v-459h-233zM997 168h205q183 0 183 156q0 144 -183 144h-205v-300z" />
<glyph unicode="&#x45b;" horiz-adv-x="1207" d="M34 1192v145h137v179h232v-179h332v-145h-332v-353h4q116 186 327 186q345 0 345 -418v-607h-230v558q0 278 -204 278q-104 0 -173 -78.5t-69 -204.5v-553h-232v1192h-137z" />
<glyph unicode="&#x45c;" horiz-adv-x="1075" d="M151 0v1024h233v-471h4l376 471h284l-426 -488l459 -536h-295l-398 499h-4v-499h-233zM364 1218l242 328h216l-286 -328h-172z" />
<glyph unicode="&#x45d;" horiz-adv-x="1233" d="M151 0v1024h213v-736q11 26 47 90l437 646h233v-1024h-210v751q-20 -40 -61 -111l-431 -640h-228zM333 1532h214l221 -328h-173z" />
<glyph unicode="&#x45e;" horiz-adv-x="1041" d="M6 1024h257l244 -744q4 -14 18 -74h5q5 23 18 72l256 746h234l-462 -1188q-144 -318 -404 -318q-73 0 -122 13v193q55 -18 100 -18q130 0 194 128l69 168zM147 1517h193q14 -182 195 -182q80 0 132.5 48t64.5 134h193q-16 -150 -123.5 -236.5t-269.5 -86.5 q-166 0 -270.5 86.5t-114.5 236.5z" />
<glyph unicode="&#x45f;" horiz-adv-x="1214" d="M151 0v1024h233v-847h446v847h233v-1024h-358v-373h-194v373h-360z" />
<glyph unicode="&#x460;" horiz-adv-x="2334" d="M85 710q0 330 183 539t495 209q161 0 273 -46v-230q-108 71 -275 71q-195 0 -310.5 -147t-115.5 -391q0 -254 124 -394t345 -140q140 0 243 51v347h-301v200h841v-200h-302v-347q102 -51 244 -51q221 0 345.5 139.5t124.5 394.5q0 243 -115 390.5t-312 147.5 q-167 0 -275 -71v230q112 46 273 46q312 0 495.5 -208t183.5 -539q0 -333 -192.5 -534t-509.5 -201q-202 0 -380 73q-177 -73 -380 -73q-317 0 -509.5 200t-192.5 534z" />
<glyph unicode="&#x461;" horiz-adv-x="1450" d="M20 1024h225q23 -194 62 -338t148 -431l154 358q-60 195 -83 411h232q27 -212 77 -371.5t149 -397.5l233 769h221l-340 -1024h-226l-167 400l-168 -400h-202q-177 411 -233 598t-82 426z" />
<glyph unicode="&#x462;" horiz-adv-x="1342" d="M44 1117v191h252v126h239v-126h310v-191h-310v-260h273q213 0 332.5 -105t119.5 -303q0 -208 -134.5 -328.5t-368.5 -120.5h-461v1117h-252zM535 194h204q131 0 201 63.5t70 175.5q0 231 -271 231h-204v-470z" />
<glyph unicode="&#x463;" horiz-adv-x="1219" d="M34 1167v166h251v183h232v-183h280v-166h-280v-521h272q162 0 259 -83t97 -233q0 -152 -98 -241t-246 -89h-516v1167h-251zM517 167h212q177 0 177 161q0 151 -179 151h-210v-312z" />
<glyph unicode="&#x464;" horiz-adv-x="1905" d="M177 0v1434h237v-622h313q30 298 225 472t485 174q217 0 370 -57v-232q-160 86 -360 86q-195 0 -321 -118t-148 -325h597v-198h-598q15 -204 139.5 -321t320.5 -117q218 0 370 94v-215q-162 -79 -401 -79q-296 0 -481.5 173.5t-200.5 464.5h-310v-614h-237z" />
<glyph unicode="&#x465;" horiz-adv-x="1507" d="M151 0v1024h232v-428h251q25 214 165 333t368 119q143 0 250 -50v-198q-98 72 -240 72q-135 0 -218 -76t-95 -204h412v-161h-412q7 -128 88 -204.5t216 -76.5q141 0 257 84v-190q-119 -68 -286 -68q-221 0 -356.5 120.5t-150.5 331.5h-249v-428h-232z" />
<glyph unicode="&#x466;" horiz-adv-x="1408" d="M18 0l551 1434h282l538 -1434h-251l-209 568l-131 -156v-412h-207v410l-116 155l-210 -565h-247zM552 779l148 -196l154 193l-116 336q-19 52 -31 141h-4q-10 -76 -34 -140z" />
<glyph unicode="&#x467;" horiz-adv-x="1083" d="M8 0l418 1022h245l403 -1022h-227l-134 360l-87 -97v-263h-179v263l-84 99l-136 -362h-219zM431 537l111 -128l106 123l-79 220q-19 65 -25 125h-7q-8 -74 -24 -121z" />
<glyph unicode="&#x468;" horiz-adv-x="1894" d="M177 0v1434h238v-601h409l231 601h282l538 -1434h-251l-209 568l-132 -156v-412h-206v410l-117 155l-210 -565h-246l244 632h-333v-632h-238zM1038 779l145 -192l158 189l-121 342q-15 44 -27 135h-6q-9 -75 -31 -138z" />
<glyph unicode="&#x469;" horiz-adv-x="1533" d="M151 0v1024h233v-413h323l169 413h246l402 -1024h-226l-135 360l-87 -97v-263h-178v263l-84 99l-136 -362h-219l181 445h-256v-445h-233zM880 537l113 -128l106 123l-73 205q-25 72 -32 140h-6q-10 -84 -31 -137z" />
<glyph unicode="&#x46a;" horiz-adv-x="1559" d="M29 0q50 326 175 500t355 241l-409 693h1274l-424 -693q233 -70 355.5 -244t173.5 -497h-245q-45 476 -384 569v-569h-239v568q-181 -52 -272 -188.5t-114 -379.5h-246zM530 1243l229 -401q11 -32 30 -82h3q14 49 33 82l233 401h-528z" />
<glyph unicode="&#x46b;" horiz-adv-x="1231" d="M19 0q41 240 134.5 365t269.5 176l-319 483h1032l-328 -484q175 -53 269 -178t134 -362h-215q-31 326 -276 397v-397h-209v396q-245 -68 -278 -396h-214zM452 862l158 -276q3 -5 12 -28q3 9 14 28l163 276h-347z" />
<glyph unicode="&#x46c;" horiz-adv-x="2034" d="M177 0v1434h237v-601h574l-363 601h1274l-424 -689q232 -70 355 -244t174 -501h-244q-43 480 -385 575v-575h-238v574q-181 -52 -272 -190t-115 -384h-246q80 497 374 635h-464v-635h-237zM1005 1243l230 -398l31 -81h2q14 49 33 81l232 398h-528z" />
<glyph unicode="&#x46d;" horiz-adv-x="1669" d="M151 0v1024h232v-410h436l-276 410h1031l-328 -481q175 -53 268 -178t134 -365h-214q-33 329 -277 399v-399h-209v399q-246 -70 -277 -399h-214q60 350 281 448h-355v-448h-232zM890 862l159 -273q6 -10 12 -28l14 28l162 273h-347z" />
<glyph unicode="&#x46e;" horiz-adv-x="1123" d="M38 -108q0 138 83.5 216.5t244.5 78.5q22 0 96 -6q73 -7 96 -7q103 0 161 62.5t58 168.5q0 240 -360 240h-144v186h133q154 0 239 60t85 169q0 94 -67 150.5t-184 56.5q-178 0 -347 -108v212q166 87 383 87q216 0 340 -98.5t124 -258.5q0 -277 -277 -350v-4 q148 -17 235.5 -110t87.5 -230q0 -184 -118 -299.5t-321 -115.5q-22 0 -103 6q-81 7 -103 7q-122 0 -122 -114q0 -53 39 -86.5t107 -33.5q43 0 165 33q122 34 195 34q239 0 239 -248h-216q0 64 -71 64q-44 0 -156 -35q-113 -34 -182 -34q-340 0 -340 307z" />
<glyph unicode="&#x46f;" horiz-adv-x="949" d="M26 -122q0 123 78.5 207t210.5 84q17 0 70 -6q52 -7 69 -7q175 0 175 141q0 145 -268 145h-119v164h118q232 0 232 142q0 59 -54 94.5t-148 35.5q-143 0 -286 -69v182q173 57 318 57q407 0 407 -275q0 -91 -59.5 -154.5t-162.5 -84.5v-4q115 -9 187 -75.5t72 -170.5 q0 -141 -92 -219t-264 -78q-19 0 -83 6q-65 6 -82 6q-121 0 -121 -113q0 -55 33.5 -89t91.5 -34q46 0 135 33q89 34 160 34q210 0 210 -240h-193q0 67 -60 67q-47 0 -133 -36q-86 -35 -143 -35q-137 0 -218 79t-81 213z" />
<glyph unicode="&#x470;" horiz-adv-x="1644" d="M76 1434h218l151 -645q27 -116 77 -164.5t153 -48.5h45v858h211v-858h42q317 0 317 333v525h221v-535q0 -228 -146 -377t-392 -149h-42v-373h-211v373h-58q-336 0 -432 394z" />
<glyph unicode="&#x471;" horiz-adv-x="1585" d="M72 1024h226l149 -599q35 -144 88 -201.5t144 -57.5h14v1026h209v-1026h21q128 0 213.5 107.5t85.5 282.5v468h224v-467q0 -269 -143 -424.5t-376 -155.5h-25v-458h-209v458h-21q-175 0 -282 101t-168 347z" />
<glyph unicode="&#x472;" d="M85 699q0 346 189.5 552.5t515.5 206.5q303 0 488 -201t185 -526q0 -349 -189.5 -552t-507.5 -203q-309 0 -495 200.5t-186 522.5zM340 797q210 67 268 67t189 -56q130 -56 165 -56q48 0 243 74q-23 204 -134 313.5t-291 109.5q-186 0 -307 -124t-133 -328zM342 601 q23 -192 138.5 -304.5t289.5 -112.5q197 0 313 118t125 328q-192 -70 -258 -70q-56 0 -185 56q-128 55 -173 55q-34 0 -250 -70z" />
<glyph unicode="&#x473;" horiz-adv-x="1223" d="M85 503q0 257 146 401t394 144q242 0 377.5 -140t135.5 -388q0 -247 -144.5 -395.5t-387.5 -148.5q-237 0 -379 144.5t-142 382.5zM317 586q130 46 178 46q42 0 136 -41q93 -42 119 -42q30 0 153 50q-30 272 -287 272q-123 0 -203 -75t-96 -210zM321 417 q16 -126 94.5 -196t201.5 -70q258 0 286 279q-118 -46 -165 -46q-42 0 -132 42q-91 41 -124 41q-26 0 -161 -50z" />
<glyph unicode="&#x474;" horiz-adv-x="1574" d="M14 1434h260l357 -1088q17 -52 26 -121h4q6 45 28 115l268 863q80 255 317 255q261 0 288 -301h-209q-12 104 -80 104q-63 0 -104 -118l-380 -1143h-269z" />
<glyph unicode="&#x475;" horiz-adv-x="1299" d="M9 1024h252l227 -716q25 -79 32 -138h3q6 60 26 122l154 491q80 265 308 265q254 0 282 -279h-208q-8 91 -77 91q-59 0 -103 -124l-264 -736h-255z" />
<glyph unicode="&#x476;" horiz-adv-x="1574" d="M14 1434h260l357 -1088q17 -52 26 -121h4q6 45 28 115l268 863q80 255 317 255q261 0 288 -301h-209q-12 104 -80 104q-63 0 -104 -118l-380 -1143h-269zM254 1884h185l211 -318h-148zM560 1884h183l208 -318h-148z" />
<glyph unicode="&#x477;" horiz-adv-x="1299" d="M9 1024h252l227 -716q25 -79 32 -138h3q6 60 26 122l154 491q80 265 308 265q254 0 282 -279h-208q-8 91 -77 91q-59 0 -103 -124l-264 -736h-255zM124 1522h185l211 -318h-148zM430 1522h183l208 -318h-148z" />
<glyph unicode="&#x478;" horiz-adv-x="2821" d="M85 741q0 338 194.5 548t505.5 210v-82q317 0 497.5 -198t180.5 -529q0 -350 -187.5 -555t-506.5 -205v86q-309 0 -496.5 201t-187.5 524zM335 756q0 -239 120 -385t314 -146v-82q206 0 325 141t119 386q0 256 -112.5 397.5t-315.5 141.5v82q-202 0 -326 -150.5 t-124 -384.5zM1538 1024h252l223 -680q28 -91 35 -161h5q6 61 34 156l134 445q81 264 306 264q257 0 284 -279h-207q-10 91 -77 91q-59 0 -104 -124l-393 -1146h-244l143 380z" />
<glyph unicode="&#x479;" horiz-adv-x="2461" d="M80 534q0 248 146.5 396.5t389.5 148.5v-61q247 0 382 -140t135 -388q0 -247 -144.5 -396t-383.5 -149v61q-242 0 -383.5 145t-141.5 383zM317 539q0 -164 77 -256t211 -92v-62q139 0 215 93t76 261q0 349 -280 349v62q-139 0 -219 -92.5t-80 -262.5zM1178 1024h251 l229 -705q24 -77 30 -136h4q5 42 24 107l125 432q95 326 325 326q256 0 284 -280h-208q-8 92 -69 92q-68 0 -133 -190l-372 -1080h-244l144 381z" />
<glyph unicode="&#x47a;" horiz-adv-x="1694" d="M85 699q0 326 162.5 523.5t463.5 228.5q49 79 145 79q95 0 143 -78q288 -27 448.5 -218.5t160.5 -502.5q0 -330 -162 -525.5t-463 -223.5q-51 -72 -139 -72q-87 0 -139 71q-294 27 -457 217.5t-163 500.5zM334 715q0 -223 99.5 -360t277.5 -162q49 64 133 64 q85 0 134 -65q183 24 282 157.5t99 360.5q0 481 -375 530q-49 -58 -128 -58q-80 0 -129 59q-185 -22 -289 -161.5t-104 -364.5z" />
<glyph unicode="&#x47b;" horiz-adv-x="1364" d="M85 503q0 485 469 539q49 77 138 77q88 0 136 -77q451 -50 451 -522q0 -224 -121.5 -364.5t-340.5 -171.5q-46 -74 -134 -74q-85 0 -133 72q-228 25 -346.5 161.5t-118.5 359.5zM322 508q0 -295 234 -338q46 61 127 61t127 -62q232 42 232 345q0 292 -228 340 q-44 -58 -122 -58q-81 0 -125 60q-245 -41 -245 -348z" />
<glyph unicode="&#x47c;" horiz-adv-x="2334" d="M85 710q0 331 183 539q183 209 495 209q162 0 273 -46v-231q-109 71 -275 71q-196 0 -312 -147q-115 -146 -115 -391q0 -255 124 -394q125 -140 346 -140q213 0 362 92q149 -92 363 -92q221 0 345 139t124 395q0 244 -115 390q-115 148 -312 148q-165 0 -274 -71v231 q111 46 272 46q312 0 495 -208q184 -208 184 -539q0 -334 -193 -534q-192 -201 -509 -201q-193 0 -379 79q-184 -78 -377 -78q-318 0 -512 200q-193 199 -193 533zM819 1848q0 47 15 95t44.5 86.5t74 63t102.5 24.5q56 0 113 -19t115 -42t118 -42t123 -19h38v-147h-41 q-63 0 -126.5 19t-123.5 42t-115 42t-101 19q-24 0 -44 -9.5t-34.5 -26t-22 -39t-7.5 -47.5h-128zM1057 1594q94 18 101 67q-99 0 -99 91q0 93 105 93q27 0 50.5 -9.5t40.5 -26t26.5 -39t9.5 -49.5q0 -154 -201 -195z" />
<glyph unicode="&#x47d;" horiz-adv-x="1826" d="M85 508q0 239 134.5 389.5t360.5 150.5q124 0 217 -42v-205q-88 58 -197 58q-130 0 -204 -92t-74 -254q0 -161 83 -256.5t237 -95.5q150 0 270 87q120 -87 270 -87q154 0 237 94.5t83 257.5q0 162 -73.5 254t-202.5 92q-110 0 -199 -58v205q93 42 218 42 q227 0 360.5 -151t133.5 -389q0 -237 -136 -384.5t-372 -147.5q-170 0 -318 82q-149 -82 -319 -82q-236 0 -372.5 147t-136.5 385zM565 1419q0 47 15 95t44.5 86.5t74 63t102.5 24.5q56 0 113 -19t115 -42t118 -42t123 -19h38v-147h-41q-63 0 -126.5 19t-123.5 42t-115 42 t-101 19q-24 0 -44 -9.5t-34.5 -26t-22 -39t-7.5 -47.5h-128zM803 1165q94 18 101 67q-99 0 -99 91q0 93 105 93q27 0 50.5 -9.5t40.5 -26t26.5 -39t9.5 -49.5q0 -154 -201 -195z" />
<glyph unicode="&#x47e;" horiz-adv-x="2334" d="M85 710q0 330 183 539t495 209q161 0 273 -46v-230q-108 71 -275 71q-195 0 -310.5 -147t-115.5 -391q0 -254 124 -394t345 -140q140 0 243 51v347h-301v200h841v-200h-302v-347q102 -51 244 -51q221 0 345.5 139.5t124.5 394.5q0 243 -115 390.5t-312 147.5 q-167 0 -275 -71v230q112 46 273 46q312 0 495.5 -208t183.5 -539q0 -333 -192.5 -534t-509.5 -201q-202 0 -380 73q-177 -73 -380 -73q-317 0 -509.5 200t-192.5 534zM694 1773h942l-98 -213h-46l-47 100h-210l-47 -100h-46l-47 100h-210l-47 -100h-46z" />
<glyph unicode="&#x47f;" horiz-adv-x="1450" d="M20 1024h225q23 -194 62 -338t148 -431l154 358q-60 195 -83 411h232q27 -212 77 -371.5t149 -397.5l233 769h221l-340 -1024h-226l-167 400l-168 -400h-202q-177 411 -233 598t-82 426zM240 1427h942l-98 -213h-46l-47 100h-210l-47 -100h-46l-47 100h-210l-47 -100h-46 z" />
<glyph unicode="&#x480;" horiz-adv-x="1213" d="M85 688q0 345 211 557.5t535 212.5q209 0 346 -56v-239q-152 86 -335 86q-226 0 -366.5 -148.5t-140.5 -396.5q0 -238 132.5 -379t347.5 -141q36 0 87 5v-599h-238v392q-268 22 -423.5 214t-155.5 492z" />
<glyph unicode="&#x481;" horiz-adv-x="916" d="M85 487q0 253 148.5 407t396.5 154q145 0 255 -49v-213q-109 77 -234 77q-144 0 -236.5 -99t-92.5 -260q0 -160 86.5 -252t232.5 -92q34 0 79 10v-580h-231v397q-183 21 -293.5 158.5t-110.5 341.5z" />
<glyph unicode="&#x482;" horiz-adv-x="1042" d="M41 550l65 150l266 -117l145 339l-264 114l65 151l263 -117l155 365h169l-181 -426l278 -123l-64 -147l-278 121l-145 -339l275 -121l-65 -148l-274 120l-159 -372h-171l188 434z" />
<glyph unicode="&#x483;" horiz-adv-x="817" d="M82 1321q0 44 29.5 74.5t71.5 30.5h352q12 80 100 80q42 0 71.5 -30t29.5 -73t-29.5 -74t-71.5 -31h-353q-11 -80 -102 -80q-40 0 -69 30t-29 73z" />
<glyph unicode="&#x484;" horiz-adv-x="854" d="M94 1218v170h79q61 0 166 48q105 47 180 47q162 0 275 -265h-141q-48 130 -143 130q-50 0 -148 -65t-165 -65h-103z" />
<glyph unicode="&#x485;" horiz-adv-x="868" d="M110 1218v327h141v-84h514v-148h-514v-95h-141z" />
<glyph unicode="&#x486;" horiz-adv-x="868" d="M110 1313v148h515v84h140v-327h-140v95h-515z" />
<glyph unicode="&#x487;" horiz-adv-x="868" d="M63 1217q0 47 15 95t44.5 86.5t74 63t102.5 24.5q56 0 113 -19t115 -42t118 -42t123 -19h38v-147h-41q-63 0 -126.5 19t-123.5 42t-115 42t-101 19q-24 0 -44 -9.5t-34.5 -26t-22 -39t-7.5 -47.5h-128z" />
<glyph unicode="&#x488;" horiz-adv-x="2018" d="M36 436q7 90 63.5 143.5t137.5 53.5q85 0 139.5 -53t58.5 -144h-97q-7 105 -103 105q-90 0 -103 -105h-96zM167 -47q8 88 63.5 142t137.5 54q85 0 140 -53.5t58 -142.5h-96q-7 103 -102 103q-90 0 -102 -103h-99zM167 919q8 89 63.5 143t137.5 54q85 0 140 -53.5 t58 -143.5h-96q-7 105 -102 105q-90 0 -102 -105h-99zM793 -302q7 90 63.5 143.5t138.5 53.5q85 0 139 -53.5t58 -143.5h-96q-7 105 -103 105q-91 0 -104 -105h-96zM793 1170q7 90 63.5 143.5t138.5 53.5q85 0 139 -53.5t58 -143.5h-96q-7 104 -103 104q-91 0 -104 -104h-96 zM1436 -47q8 88 63.5 142t137.5 54q85 0 140 -53.5t58 -142.5h-97q-7 103 -101 103q-90 0 -103 -103h-98zM1436 919q8 89 63.5 143t137.5 54q85 0 140 -53.5t58 -143.5h-97q-7 105 -101 105q-90 0 -103 -105h-98zM1578 436q7 89 62.5 143t138.5 54q85 0 139.5 -53t57.5 -144 h-97q-7 105 -100 105q-92 0 -103 -105h-98z" />
<glyph unicode="&#x489;" horiz-adv-x="1944" d="M57 537v123l353 -93v-159zM224 -34l314 183l113 -113l-342 -158zM346 1182l87 86l183 -314l-113 -113zM832 -410l92 352h159l-128 -352h-123zM875 1082l130 352h122l-92 -352h-160zM1308 988l341 158l86 -88l-314 -183zM1343 70l113 113l157 -341l-87 -86zM1548 457v159 l353 -129v-123z" />
<glyph unicode="&#x48a;" horiz-adv-x="1688" d="M177 0v1434h229v-913q0 -157 -8 -205h4q20 40 52 88l665 1030h274v-1228h240l-203 -592h-246l173 386h-194v955q0 129 10 182h-6q-17 -45 -42 -83l-688 -1054h-260zM407 1889h193q14 -183 196 -183q80 0 132 48t64 135h193q-16 -150 -123.5 -236.5t-268.5 -86.5 q-167 0 -271.5 86.5t-114.5 236.5z" />
<glyph unicode="&#x48b;" horiz-adv-x="1356" d="M151 0v1024h212v-736q11 26 47 90l437 646h234v-842h220l-180 -555h-231l163 373h-183v750q-20 -39 -61 -111l-430 -639h-228zM237 1517h192q14 -182 196 -182q80 0 132.5 48t64.5 134h192q-16 -150 -123.5 -236.5t-268.5 -86.5q-166 0 -270.5 86.5t-114.5 236.5z" />
<glyph unicode="&#x48c;" horiz-adv-x="1223" d="M35 1117v191h142v126h237v-126h153v-191h-153v-260h273q215 0 334.5 -106t119.5 -302q0 -208 -135 -328.5t-369 -120.5h-460v1117h-142zM414 194h206q130 0 200.5 63t70.5 176q0 231 -271 231h-206v-470z" />
<glyph unicode="&#x48d;" horiz-adv-x="1099" d="M36 1184v166h129v166h232v-166h136v-166h-136v-538h280q159 0 253 -83.5t94 -232.5q0 -153 -102 -241.5t-258 -88.5h-499v1184h-129zM397 167h212q176 0 176 161q0 151 -178 151h-210v-312z" />
<glyph unicode="&#x48e;" horiz-adv-x="1197" d="M177 0v1434h429q250 0 387.5 -115.5t137.5 -326.5q0 -233 -180 -366l112 -167l-143 -97l-127 188q-93 -30 -208 -30h-171v-520h-237zM414 714h140q65 0 120 12l-97 142l144 98l104 -155q56 62 56 172q0 255 -294 255h-173v-524z" />
<glyph unicode="&#x48f;" horiz-adv-x="1234" d="M151 -474v1498h232v-169h4q112 193 343 193q191 0 304.5 -136.5t113.5 -365.5q0 -314 -177 -469l105 -161l-145 -95l-114 177q-60 -22 -134 -22q-208 0 -296 158h-4v-608h-232zM381 433q0 -116 71.5 -194.5t181.5 -78.5q39 0 70 11l-106 163l146 93l101 -155 q66 94 66 266q0 148 -70.5 236.5t-186.5 88.5q-121 0 -197 -89.5t-76 -225.5v-115z" />
<glyph unicode="&#x490;" horiz-adv-x="1004" d="M177 0v1434h591v259h203v-462h-556v-1231h-238z" />
<glyph unicode="&#x491;" horiz-adv-x="840" d="M151 0v1024h439v261h193v-445h-400v-840h-232z" />
<glyph unicode="&#x492;" horiz-adv-x="1097" d="M36 624v202h232v608h794v-204h-556v-404h345v-202h-345v-624h-238v624h-232z" />
<glyph unicode="&#x493;" horiz-adv-x="875" d="M29 407v180h203v437h614v-185h-381v-252h246v-180h-246v-407h-233v407h-203z" />
<glyph unicode="&#x494;" horiz-adv-x="1243" d="M177 0v1434h780v-205h-542v-359h77q307 0 489 -184t182 -481q0 -269 -169 -445t-477 -176q-183 0 -339 67v231q174 -93 338 -93q191 0 293.5 108t102.5 304q0 194 -116 327t-317 133h-64v-661h-238z" />
<glyph unicode="&#x495;" horiz-adv-x="1094" d="M148 -146q140 -82 306 -82q155 0 239.5 82.5t84.5 231.5q0 164 -98 259.5t-269 95.5h-29v-441h-232v1024h647v-185h-415v-211h62q260 0 415.5 -145.5t155.5 -394.5q0 -215 -147.5 -356.5t-400.5 -141.5q-192 0 -319 67v197z" />
<glyph unicode="&#x496;" horiz-adv-x="1986" d="M-17 0l608 746l-565 688h287l480 -619q21 -27 33 -49h4v668h230v-668h4q12 22 33 49l480 619h286l-564 -688l443 -539h181v-564h-203v357h-119l-504 649q-21 28 -33 50h-4v-699h-230v699h-4q-13 -25 -33 -50l-504 -649h-306z" />
<glyph unicode="&#x497;" horiz-adv-x="1706" d="M6 0l454 532l-433 492h282l385 -482h4v482h226v-482h4l385 482h282l-434 -492l316 -361h165v-489h-184v318h-130l-400 509h-4v-509h-226v509h-4l-400 -509h-288z" />
<glyph unicode="&#x498;" horiz-adv-x="1123" d="M85 56v228q169 -120 384 -120q141 0 224.5 65.5t83.5 175.5q0 240 -360 240h-144v186h155q144 0 223 60t79 169q0 94 -67 150.5t-184 56.5q-178 0 -347 -108v212q166 87 383 87q216 0 340 -98.5t124 -258.5q0 -277 -277 -350v-4q148 -17 235.5 -110t87.5 -230 q0 -171 -112 -284t-309 -139q56 -88 56 -153q0 -79 -48 -126t-129 -47q-78 0 -139 23v122q55 -26 107 -26q63 0 63 60q0 61 -45 139q-248 0 -384 80z" />
<glyph unicode="&#x499;" horiz-adv-x="954" d="M84 27v192q126 -76 296 -76q254 0 254 151q0 148 -290 148h-98v165h94q257 0 257 141q0 58 -54 94t-149 36q-142 0 -285 -69v182q173 57 318 57q407 0 407 -275q0 -189 -223 -239v-4q115 -9 187 -75.5t72 -170.5q0 -119 -90 -199.5t-249 -99.5q56 -86 56 -154 q0 -79 -48 -126t-128 -47q-79 0 -140 23v122q55 -26 108 -26q63 0 63 60q0 62 -46 141q-207 4 -312 49z" />
<glyph unicode="&#x49a;" horiz-adv-x="1345" d="M177 0v1434h238v-676h4q7 13 39 63l473 613h288l-563 -687l442 -540h184v-564h-204v357h-125l-496 641q-21 27 -38 63h-4v-704h-238z" />
<glyph unicode="&#x49b;" horiz-adv-x="1161" d="M151 0v1024h233v-473h4l376 473h290l-432 -492l313 -361h162v-544h-193v373h-124l-392 494h-4v-494h-233z" />
<glyph unicode="&#x49c;" horiz-adv-x="1251" d="M177 0v1434h237v-681h5q12 22 33 48l48 62v347h84v-240l347 464h288l-538 -687l581 -747h-310l-368 494v-265h-84v371l-48 65q-33 47 -33 50h-5v-715h-237z" />
<glyph unicode="&#x49d;" horiz-adv-x="1090" d="M151 0v1024h233v-474h4l78 81v264h79v-181l240 310h286l-423 -492l445 -532h-292l-256 330v-216h-79v301l-78 79h-4v-494h-233z" />
<glyph unicode="&#x49e;" horiz-adv-x="1251" d="M23 1152v167h154v115h238v-115h206v-167h-206v-394h4q13 22 34 49l478 627h288l-563 -686l606 -748h-310l-499 654q-28 37 -34 50h-4v-704h-238v1152h-154z" />
<glyph unicode="&#x49f;" horiz-adv-x="1094" d="M34 1186v168h134v162h232v-162h335v-168h-335v-633h4l374 471h286l-425 -488l458 -536h-297l-396 499h-4v-499h-232v1186h-134z" />
<glyph unicode="&#x4a0;" horiz-adv-x="1521" d="M36 1230v204h649v-676h4q12 22 34 49l478 627h288l-563 -686l606 -748h-312l-497 654q-24 32 -34 50h-4v-704h-238v1230h-411z" />
<glyph unicode="&#x4a1;" horiz-adv-x="1253" d="M29 839v185h534v-473h4l378 473h288l-432 -492l455 -532h-296l-393 494h-4v-494h-233v839h-301z" />
<glyph unicode="&#x4a2;" horiz-adv-x="1590" d="M177 0v1434h238v-602h675v602h239v-1226h197v-595h-213v387h-223v622h-675v-622h-238z" />
<glyph unicode="&#x4a3;" horiz-adv-x="1283" d="M151 0v1024h234v-402h445v402h233v-847h157v-550h-194v373h-196v448h-445v-448h-234z" />
<glyph unicode="&#x4a4;" horiz-adv-x="1775" d="M177 0v1434h238v-602h675v602h649v-204h-410v-1230h-239v622h-675v-622h-238z" />
<glyph unicode="&#x4a5;" horiz-adv-x="1395" d="M151 0v1024h233v-402h446v402h534v-185h-301v-839h-233v448h-446v-448h-233z" />
<glyph unicode="&#x4a6;" horiz-adv-x="2154" d="M177 0v1434h1151v-565h77q305 0 485.5 -181.5t180.5 -476.5q0 -274 -170.5 -450.5t-469.5 -176.5q-184 0 -340 68v225q175 -93 338 -93q189 0 292.5 110.5t103.5 306.5q0 191 -117 326t-316 135h-64v-662h-238v1226h-676v-1226h-237z" />
<glyph unicode="&#x4a7;" horiz-adv-x="1773" d="M151 0v1024h911v-396h69q257 0 410 -146.5t153 -393.5q0 -213 -146.5 -355.5t-399.5 -142.5q-192 0 -319 67v200q136 -82 305 -82q155 0 239.5 81t84.5 230q0 164 -98 259.5t-269 95.5h-29v-441h-233v846h-446v-846h-232z" />
<glyph unicode="&#x4a8;" horiz-adv-x="1551" d="M85 700q0 170 51.5 309.5t146.5 239t229 154.5t299 55q104 0 189 -13.5t148 -39.5v-236q-74 42 -156 63.5t-187 21.5q-109 0 -196 -37.5t-148 -106.5t-94 -167t-33 -220q0 -127 37.5 -225.5t98.5 -166t138.5 -102t156.5 -34.5q35 0 54.5 2t36.5 4q-39 26 -73.5 65.5 t-60 91t-40.5 114.5t-15 136q0 99 28 178.5t79 134.5t121.5 84.5t155.5 29.5q90 0 160.5 -30t119 -85.5t73.5 -135t25 -179.5q0 -75 -14 -137.5t-37 -112.5t-51.5 -87.5t-58.5 -62.5q14 -3 35 -5t35 -2q41 0 84.5 10t78.5 32v-220q-45 -20 -92.5 -30t-110.5 -10 q-80 0 -139 19t-106 40q-22 -12 -55 -23.5t-73 -20t-85 -14t-90 -5.5q-136 0 -256.5 47.5t-211.5 139t-144 227t-53 310.5zM904 584q0 -55 12.5 -102t34 -85t50 -67t60.5 -49q26 19 49 47t41 65.5t28.5 85t10.5 105.5q0 118 -36 184.5t-105 66.5q-38 0 -65.5 -19t-45 -52.5 t-26 -79.5t-8.5 -100z" />
<glyph unicode="&#x4a9;" horiz-adv-x="1219" d="M80 504q0 122 36 222.5t103.5 172.5t165 111.5t221.5 39.5q77 0 143.5 -10t111.5 -28v-194q-46 20 -104 36.5t-139 16.5q-85 0 -143.5 -24.5t-94.5 -71t-51.5 -112.5t-15.5 -150q0 -83 20 -147.5t55 -109t81.5 -67.5t99.5 -23q17 0 34 1.5t29 3.5q-32 17 -58 46.5 t-45 67.5t-29 83t-10 92q0 68 23.5 123t65.5 94t101 60.5t130 21.5q77 0 137 -22t101 -62.5t63 -97.5t22 -126q0 -51 -11 -97t-29 -83.5t-41.5 -64.5t-48.5 -42q11 -2 30 -3.5t29 -1.5q30 0 62 7t57 23v-176q-67 -27 -163 -27q-67 0 -110.5 12.5t-81.5 28.5 q-34 -17 -95.5 -30.5t-132.5 -13.5q-117 0 -213 34t-163.5 100t-104.5 163.5t-37 223.5zM697 443q0 -33 7.5 -67t22 -65t37 -55.5t52.5 -37.5q24 11 43.5 35t33 55.5t20.5 66.5t7 68q0 68 -25 110.5t-85 42.5q-34 0 -55.5 -12t-34.5 -33t-18 -49t-5 -59z" />
<glyph unicode="&#x4aa;" horiz-adv-x="1272" d="M85 688q0 345 211 557.5t535 212.5q208 0 345 -57v-238q-151 86 -334 86q-226 0 -367 -148.5t-141 -396.5q0 -238 132.5 -379t348.5 -141q208 0 361 94v-223q-119 -57 -294 -73q55 -86 55 -151q0 -78 -48 -125.5t-129 -47.5q-78 0 -139 23v121q54 -25 107 -25q63 0 63 60 q0 61 -40 140q-305 4 -485.5 199.5t-180.5 511.5z" />
<glyph unicode="&#x4ab;" horiz-adv-x="963" d="M85 487q0 253 150 407t401 154q141 0 249 -49v-213q-109 77 -234 77q-144 0 -236.5 -99t-92.5 -260q0 -160 86.5 -252t232.5 -92q129 0 243 82v-200q-92 -49 -211 -62q52 -86 52 -149q0 -79 -47.5 -126t-128.5 -47q-78 0 -139 23v121q54 -25 108 -25q63 0 63 60 q0 63 -46 142q-203 14 -326.5 154t-123.5 354z" />
<glyph unicode="&#x4ac;" horiz-adv-x="1132" d="M36 1232v202h1061v-202h-412v-1024h198v-595h-213v387h-223v1232h-411z" />
<glyph unicode="&#x4ad;" horiz-adv-x="880" d="M30 839v185h819v-185h-292v-662h157v-551h-193v374h-197v839h-294z" />
<glyph unicode="&#x4ae;" horiz-adv-x="1182" d="M10 1434h271l282 -615q5 -11 30 -83h3q9 32 33 83l295 615h252l-470 -913v-521h-238v516z" />
<glyph unicode="&#x4af;" horiz-adv-x="1041" d="M6 1024h257l234 -701l29 -116h5q9 39 30 118l243 699h234l-396 -1021v-474h-232v476z" />
<glyph unicode="&#x4b0;" horiz-adv-x="1182" d="M9 1434h272l279 -587q6 -14 36 -100h3q9 38 35 98l290 589h252l-471 -897h332v-191h-332v-346h-237v346h-323v191h321v2z" />
<glyph unicode="&#x4b1;" horiz-adv-x="1041" d="M5 1024h258l234 -703l29 -116h2q10 38 33 117l242 702h235l-396 -1024h320v-165h-321v-306h-231v306h-313v165h312z" />
<glyph unicode="&#x4b2;" horiz-adv-x="1360" d="M17 0l470 719l-432 715h291l253 -471q27 -50 47 -100h4q29 66 51 104l271 467h268l-442 -711l323 -516h176v-592h-212v385h-121l-293 512q-15 25 -32 71h-4q-10 -23 -33 -73l-298 -510h-287z" />
<glyph unicode="&#x4b3;" horiz-adv-x="1109" d="M17 0l348 505l-330 519h270l178 -333q19 -36 39 -76h4l227 409h254l-341 -509l225 -344h154v-544h-192v373h-119l-181 317q-18 33 -40 74h-4q-4 -9 -42 -74l-182 -317h-268z" />
<glyph unicode="&#x4b4;" horiz-adv-x="1859" d="M36 1232v202h1060v-202h-412v-1024h675v1226h238v-1226h198v-593h-213v385h-1136v1232h-410z" />
<glyph unicode="&#x4b5;" horiz-adv-x="1457" d="M30 839v185h810v-185h-283v-662h447v847h233v-847h157v-550h-194v373h-876v839h-294z" />
<glyph unicode="&#x4b6;" horiz-adv-x="1487" d="M154 891v543h237v-526q0 -210 228 -210q162 0 369 104v632h238v-1226h198v-593h-214v385h-222v611q-225 -116 -418 -116q-199 0 -307.5 104t-108.5 292z" />
<glyph unicode="&#x4b7;" horiz-adv-x="1258" d="M138 650v374h227v-347q0 -195 170 -195q126 0 271 75v467h232v-847h158v-550h-194v373h-196v386q-175 -95 -322 -95q-346 0 -346 359z" />
<glyph unicode="&#x4b8;" horiz-adv-x="1404" d="M153 891v543h238v-526q0 -212 213 -212h23v338h93v-328q118 19 267 96v632h238v-1434h-238v610q-147 -80 -267 -101v-313h-93v300q-222 -15 -348 89t-126 306z" />
<glyph unicode="&#x4b9;" horiz-adv-x="1189" d="M138 650v374h226v-347q0 -195 166 -195h12v272h93v-274q86 20 171 76v468h232v-1024h-232v385q-92 -52 -171 -70v-201h-93v182q-404 -28 -404 354z" />
<glyph unicode="&#x4ba;" horiz-adv-x="1410" d="M165 0v1434h238v-612q224 117 418 117q197 0 306.5 -100t109.5 -284v-555h-237v512q0 224 -227 224q-164 0 -370 -105v-631h-238z" />
<glyph unicode="&#x4bb;" horiz-adv-x="1192" d="M151 0v1516h233v-662h4q116 194 332 194q341 0 341 -417v-631h-232v560q0 304 -203 304q-102 0 -172 -88t-70 -225v-551h-233z" />
<glyph unicode="&#x4bc;" horiz-adv-x="1811" d="M41 910q0 98 39 175h178q-37 -65 -37 -140q0 -133 149 -133h20q30 294 218 470t473 176q646 0 646 -844h-1089q15 -201 148 -319t338 -118q262 0 453 159v-223q-199 -137 -486 -137q-308 0 -498 174t-206 464h-35q-148 0 -229.5 78t-81.5 218zM639 812h832 q-7 203 -110 323t-282 120q-185 0 -302.5 -122t-137.5 -321z" />
<glyph unicode="&#x4bd;" horiz-adv-x="1348" d="M41 704q0 86 38 161h150q-30 -64 -30 -131q0 -122 137 -122h20q29 199 164 317.5t318 118.5q212 0 327.5 -135t115.5 -376v-89h-698q4 -142 85 -219t225 -77q167 0 308 98v-187q-137 -87 -362 -87q-219 0 -349.5 124t-139.5 348h-29q-128 0 -204 70t-76 186zM583 612h473 q-1 124 -58 194t-162 70q-99 0 -168.5 -73t-84.5 -191z" />
<glyph unicode="&#x4be;" horiz-adv-x="1811" d="M41 910q0 98 39 175h178q-37 -65 -37 -140q0 -133 149 -133h20q30 294 218 470t473 176q646 0 646 -844h-1089q15 -201 148 -319t338 -118q262 0 453 159v-223q-199 -137 -486 -137q-308 0 -498 174t-206 464h-35q-148 0 -229.5 78t-81.5 218zM639 812h832 q-7 203 -110 323t-282 120q-185 0 -302.5 -122t-137.5 -321zM992 0h213v-388h-213v388z" />
<glyph unicode="&#x4bf;" horiz-adv-x="1348" d="M41 704q0 86 38 161h150q-30 -64 -30 -131q0 -122 137 -122h20q29 199 164 317.5t318 118.5q212 0 327.5 -135t115.5 -376v-89h-698q4 -142 85 -219t225 -77q167 0 308 98v-187q-137 -87 -362 -87q-219 0 -349.5 124t-139.5 348h-29q-128 0 -204 70t-76 186zM583 612h473 q-1 124 -58 194t-162 70q-99 0 -168.5 -73t-84.5 -191zM755 0h194v-373h-194v373z" />
<glyph unicode="&#x4c0;" horiz-adv-x="592" d="M46 0v192h131v1050h-131v192h500v-192h-131v-1050h131v-192h-500z" />
<glyph unicode="&#x4c1;" horiz-adv-x="1891" d="M-17 0l608 746l-565 688h287l475 -612q23 -29 38 -56h4v668h230v-668h4q13 25 38 56l475 612h286l-564 -688l607 -746h-305l-504 649q-21 28 -33 50h-4v-699h-230v699h-4q-13 -25 -33 -50l-504 -649h-306zM643 1842h136q12 -146 166 -146q65 0 111 39.5t56 106.5h137 q-11 -124 -97.5 -200t-209.5 -76q-130 0 -211.5 75.5t-87.5 200.5z" />
<glyph unicode="&#x4c2;" horiz-adv-x="1622" d="M6 0l454 532l-433 492h282l385 -482h4v482h226v-482h4l385 482h282l-434 -492l457 -532h-290l-400 509h-4v-509h-226v509h-3l-401 -509h-288zM510 1480h136q12 -146 166 -146q65 0 111 39.5t56 106.5h137q-11 -124 -97.5 -200t-209.5 -76q-130 0 -211.5 75.5t-87.5 200.5 z" />
<glyph unicode="&#x4c3;" horiz-adv-x="1258" d="M178 0v1434h236v-609l491 606l290 3l-532 -622q233 -32 365.5 -201.5t132.5 -420.5q0 -265 -171 -435.5t-473 -170.5q-183 0 -339 68v225q174 -93 338 -93q190 0 293.5 108t103.5 294q0 187 -117.5 316t-317.5 129h-64v-631h-236z" />
<glyph unicode="&#x4c4;" horiz-adv-x="1103" d="M149 -143q136 -82 305 -82q154 0 237.5 79.5t83.5 225.5q0 159 -97 251t-266 92h-29v-423h-232v1024h232v-435h3l357 435h289l-409 -441q182 -30 287 -163.5t105 -337.5q0 -211 -147.5 -351.5t-399.5 -140.5q-192 0 -319 67v200z" />
<glyph unicode="&#x4c5;" horiz-adv-x="1523" d="M19 2v203q48 -25 107 -25q55 0 100 56.5t108.5 362.5t140.5 835h777v-1252h216l-184 -562h-238l166 380h-198v1229h-348q-76 -518 -116.5 -733t-83.5 -316.5t-117 -151t-177 -49.5q-88 0 -153 23z" />
<glyph unicode="&#x4c6;" horiz-adv-x="1273" d="M16 3v174q35 -17 75 -17q215 0 276 864h631v-842h220l-179 -555h-231l162 373h-205v847h-209q-44 -475 -150.5 -667.5t-286.5 -192.5q-60 0 -103 16z" />
<glyph unicode="&#x4c7;" horiz-adv-x="1506" d="M177 0v1434h237v-603h676v603h238v-1264q0 -257 -171 -420q-170 -166 -473 -166q-185 0 -339 68v225q174 -93 338 -93q97 0 173 27t128 81q106 107 106 294v435h-676v-621h-237z" />
<glyph unicode="&#x4c8;" horiz-adv-x="1214" d="M151 0v1024h232v-402h446v402h233v-918q0 -114 -36.5 -208.5t-110.5 -165.5q-146 -142 -397 -142q-196 0 -323 67v197q139 -82 306 -82q157 0 242.5 86.5t85.5 242.5v347h-446v-448h-232z" />
<glyph unicode="&#x4c9;" horiz-adv-x="1623" d="M177 0v1434h238v-602h675v602h239v-1227h239l-203 -593h-245l172 386h-202v622h-675v-622h-238z" />
<glyph unicode="&#x4ca;" horiz-adv-x="1338" d="M151 0v1024h233v-402h446v402h233v-841h221l-180 -556h-231l162 373h-205v448h-446v-448h-233z" />
<glyph unicode="&#x4cb;" horiz-adv-x="1404" d="M154 891v543h237v-526q0 -210 228 -210q162 0 369 104v632h238v-1434h-228v-386h-214v594h204v403q-225 -116 -418 -116q-199 0 -307.5 104t-108.5 292z" />
<glyph unicode="&#x4cc;" horiz-adv-x="1189" d="M138 650v374h227v-347q0 -195 170 -195q126 0 271 75v467h232v-1024h-196v-374h-193v551h157v209q-175 -95 -322 -95q-346 0 -346 359z" />
<glyph unicode="&#x4cd;" horiz-adv-x="2011" d="M177 0v1434h335l374 -933q46 -124 59 -186h6q40 127 64 190l379 929h323v-1227h239l-203 -593h-245l172 386h-199v936q0 111 13 271h-6q-24 -113 -43 -162l-421 -1045h-164l-421 1032q-22 57 -46 175h-4q8 -84 8 -273v-934h-220z" />
<glyph unicode="&#x4ce;" horiz-adv-x="1631" d="M151 0v1024h302l235 -632q25 -69 64 -191l64 187l230 636h310v-841h220l-179 -556h-231l162 373h-194v823q-20 -62 -61 -183l-231 -640h-206l-235 638q-19 52 -61 183v-821h-189z" />
<glyph unicode="&#x4cf;" horiz-adv-x="535" d="M151 0v1516h233v-1516h-233z" />
<glyph unicode="&#x4d0;" horiz-adv-x="1375" d="M17 0l537 1434h268l533 -1434h-261l-129 365h-564l-124 -365h-260zM378 1827h136q12 -146 166 -146q65 0 111 39.5t56 106.5h137q-11 -124 -97.5 -200t-209.5 -76q-130 0 -211.5 75.5t-87.5 200.5zM463 559h439l-199 572q-9 28 -19 90h-4q-9 -57 -20 -90z" />
<glyph unicode="&#x4d1;" horiz-adv-x="1069" d="M75 275q0 290 334 338l304 43q0 219 -208 219q-183 0 -330 -126v203q162 96 374 96q388 0 388 -382v-666h-225v160h-4q-106 -184 -311 -184q-151 0 -236.5 82t-85.5 217zM216 1480h136q12 -146 166 -146q65 0 111 39.5t56 106.5h137q-11 -124 -97.5 -200t-209.5 -76 q-130 0 -211.5 75.5t-87.5 200.5zM297 300q0 -65 46.5 -106.5t124.5 -41.5q106 0 175.5 74.5t69.5 187.5v89l-215 -30q-100 -13 -150.5 -48.5t-50.5 -124.5z" />
<glyph unicode="&#x4d2;" horiz-adv-x="1375" d="M17 0l537 1434h268l533 -1434h-261l-129 365h-564l-124 -365h-260zM351 1667q0 49 35.5 82t86.5 33t88.5 -33.5t37.5 -81.5q0 -49 -36 -83t-86 -34q-52 0 -89 34.5t-37 82.5zM463 559h439l-199 572q-9 28 -19 90h-4q-9 -57 -20 -90zM770 1667q0 49 35 82t85 33 q53 0 89.5 -33.5t36.5 -81.5q0 -49 -35 -83t-88 -34q-50 0 -86.5 33t-36.5 84z" />
<glyph unicode="&#x4d3;" horiz-adv-x="1069" d="M75 275q0 290 334 338l304 43q0 219 -208 219q-183 0 -330 -126v203q162 96 374 96q388 0 388 -382v-666h-225v160h-4q-106 -184 -311 -184q-151 0 -236.5 82t-85.5 217zM205 1320q0 49 35.5 82t86.5 33t88.5 -33.5t37.5 -81.5q0 -49 -36 -83t-86 -34q-52 0 -89 34.5 t-37 82.5zM297 300q0 -65 46.5 -106.5t124.5 -41.5q106 0 175.5 74.5t69.5 187.5v89l-215 -30q-100 -13 -150.5 -48.5t-50.5 -124.5zM624 1320q0 49 35 82t85 33q53 0 89.5 -33.5t36.5 -81.5q0 -49 -35 -83t-88 -34q-50 0 -86.5 33t-36.5 84z" />
<glyph unicode="&#x4d4;" horiz-adv-x="1831" d="M6 0l710 1434h1000v-202h-534v-406h497v-201h-497v-424h567v-201h-804v365h-492l-172 -365h-275zM541 559h404v673h-87z" />
<glyph unicode="&#x4d5;" horiz-adv-x="1700" d="M75 279q0 306 379 331l259 16q0 250 -201 250q-178 0 -336 -115v196q152 91 357 91q240 0 311 -170h4q114 170 349 170q206 0 319.5 -135.5t113.5 -376.5v-87h-699q3 -142 85 -219.5t225 -77.5q171 0 310 99v-186q-135 -89 -367 -89q-275 0 -390 206h-4 q-140 -206 -372 -206q-160 0 -251.5 82.5t-91.5 220.5zM296 294q0 -64 46.5 -103t125.5 -39q103 0 174 74t71 186v55l-177 -11q-121 -7 -180.5 -43t-59.5 -119zM932 613h474q-2 127 -59 195.5t-160 68.5q-98 0 -168.5 -72t-86.5 -192z" />
<glyph unicode="&#x4d6;" horiz-adv-x="1060" d="M177 0v1434h773v-202h-535v-406h493v-201h-493v-424h567v-201h-805zM261 1829h136q12 -146 166 -146q65 0 111 39.5t56 106.5h137q-11 -124 -97.5 -200t-209.5 -76q-130 0 -211.5 75.5t-87.5 200.5z" />
<glyph unicode="&#x4d7;" horiz-adv-x="1088" d="M85 508q0 239 141.5 389.5t351.5 150.5t325 -135t115 -375v-89h-698q4 -142 87.5 -219t229.5 -77q164 0 301 98v-187q-140 -88 -370 -88q-226 0 -354.5 139.5t-128.5 392.5zM268 1480h136q12 -146 166 -146q65 0 111 39.5t56 106.5h137q-11 -124 -97.5 -200t-209.5 -76 q-130 0 -211.5 75.5t-87.5 200.5zM320 613h474q-1 125 -59 194.5t-160 69.5q-100 0 -169.5 -73t-85.5 -191z" />
<glyph unicode="&#x4d8;" horiz-adv-x="1512" d="M82 819h1090q-16 202 -148.5 319t-337.5 117q-235 0 -405 -121v219q178 105 432 105q333 0 523.5 -195t190.5 -538q0 -325 -189 -537t-502 -212q-314 0 -484 214t-170 629zM338 620q4 -202 110.5 -322.5t289.5 -120.5q185 0 300.5 120t133.5 323h-834z" />
<glyph unicode="&#x4d9;" horiz-adv-x="1088" d="M70 486v89h698q-5 142 -85.5 219.5t-224.5 77.5q-168 0 -308 -99v187q136 88 360 88q230 0 361 -138t131 -389q0 -243 -140.5 -394t-348.5 -151q-213 0 -328 136t-115 374zM294 411q2 -126 59.5 -195t161.5 -69q99 0 168 73t85 191h-474z" />
<glyph unicode="&#x4da;" horiz-adv-x="1512" d="M82 819h1090q-16 202 -148.5 319t-337.5 117q-235 0 -405 -121v219q178 105 432 105q333 0 523.5 -195t190.5 -538q0 -325 -189 -537t-502 -212q-314 0 -484 214t-170 629zM338 620q4 -202 110.5 -322.5t289.5 -120.5q185 0 300.5 120t133.5 323h-834zM401 1683 q0 49 35.5 82t86.5 33t88.5 -33.5t37.5 -81.5q0 -49 -36 -83t-86 -34q-52 0 -89 34.5t-37 82.5zM820 1683q0 49 35 82t85 33q53 0 89.5 -33.5t36.5 -81.5q0 -49 -35 -83t-88 -34q-50 0 -86.5 33t-36.5 84z" />
<glyph unicode="&#x4db;" horiz-adv-x="1088" d="M70 486v89h698q-5 142 -85.5 219.5t-224.5 77.5q-168 0 -308 -99v187q136 88 360 88q230 0 361 -138t131 -389q0 -243 -140.5 -394t-348.5 -151q-213 0 -328 136t-115 374zM216 1320q0 49 35.5 82t86.5 33t88.5 -33.5t37.5 -81.5q0 -49 -36 -83t-86 -34q-52 0 -89 34.5 t-37 82.5zM294 411q2 -126 59.5 -195t161.5 -69q99 0 168 73t85 191h-474zM635 1320q0 49 35 82t85 33q53 0 89.5 -33.5t36.5 -81.5q0 -49 -35 -83t-88 -34q-50 0 -86.5 33t-36.5 84z" />
<glyph unicode="&#x4dc;" horiz-adv-x="1891" d="M-17 0l608 746l-565 688h287l475 -612q23 -29 38 -56h4v668h230v-668h4q13 25 38 56l475 612h286l-564 -688l607 -746h-305l-504 649q-21 28 -33 50h-4v-699h-230v699h-4q-13 -25 -33 -50l-504 -649h-306zM612 1683q0 49 35.5 82t86.5 33t88.5 -33.5t37.5 -81.5 q0 -49 -36 -83t-86 -34q-52 0 -89 34.5t-37 82.5zM1031 1683q0 49 35 82t85 33q53 0 89.5 -33.5t36.5 -81.5q0 -49 -35 -83t-88 -34q-50 0 -86.5 33t-36.5 84z" />
<glyph unicode="&#x4dd;" horiz-adv-x="1622" d="M6 0l454 532l-433 492h282l385 -482h4v482h226v-482h4l385 482h282l-434 -492l457 -532h-290l-400 509h-4v-509h-226v509h-3l-401 -509h-288zM473 1320q0 49 35.5 82t86.5 33t88.5 -33.5t37.5 -81.5q0 -49 -36 -83t-86 -34q-52 0 -89 34.5t-37 82.5zM892 1320q0 49 35 82 t85 33q53 0 89.5 -33.5t36.5 -81.5q0 -49 -35 -83t-88 -34q-50 0 -86.5 33t-36.5 84z" />
<glyph unicode="&#x4de;" horiz-adv-x="1123" d="M85 56v228q169 -120 384 -120q141 0 224.5 65.5t83.5 175.5q0 240 -339 240h-165v186h155q144 0 223 60t79 169q0 94 -67 150.5t-184 56.5q-178 0 -347 -108v212q166 87 383 87q216 0 340 -98.5t124 -258.5q0 -277 -277 -350v-4q148 -17 235.5 -110t87.5 -230 q0 -197 -147 -314t-402 -117q-253 0 -391 80zM194 1683q0 49 35.5 82t86.5 33t88.5 -33.5t37.5 -81.5q0 -49 -36 -83t-86 -34q-52 0 -89 34.5t-37 82.5zM613 1683q0 49 35 82t85 33q53 0 89.5 -33.5t36.5 -81.5q0 -49 -35 -83t-88 -34q-50 0 -86.5 33t-36.5 84z" />
<glyph unicode="&#x4df;" horiz-adv-x="945" d="M80 28v191q130 -72 304 -72q245 0 245 148t-289 148h-98v164h94q257 0 257 141q0 59 -54.5 94t-148.5 35q-143 0 -286 -68v182q173 58 318 58q407 0 407 -276q0 -89 -58.5 -153t-164.5 -85v-5q117 -9 188 -76t71 -170q0 -140 -122 -223t-336 -83t-327 50zM124 1320 q0 49 35.5 82t86.5 33t88.5 -33.5t37.5 -81.5q0 -49 -36 -83t-86 -34q-52 0 -89 34.5t-37 82.5zM543 1320q0 49 35 82t85 33q53 0 89.5 -33.5t36.5 -81.5q0 -49 -35 -83t-88 -34q-50 0 -86.5 33t-36.5 84z" />
<glyph unicode="&#x4e0;" horiz-adv-x="1101" d="M77 56v228q168 -120 382 -120q146 0 228 72.5t82 187.5q0 266 -366 266h-145l399 542h-557v202h882v-104l-372 -495q191 0 299 -109t108 -289q0 -208 -144 -334.5t-405 -126.5q-253 0 -391 80z" />
<glyph unicode="&#x4e1;" horiz-adv-x="955" d="M-29 -181q167 -114 347 -114q164 0 269 81t105 210q0 133 -108 207.5t-309 74.5h-80v87l369 477h-560v182h858v-99l-379 -484q214 -26 329 -143t115 -297q0 -209 -171.5 -344.5t-432.5 -135.5q-191 0 -352 86v212z" />
<glyph unicode="&#x4e2;" horiz-adv-x="1572" d="M177 0v1434h230v-912q0 -157 -8 -205h4q20 40 52 88l664 1029h274v-1434h-229v955q0 129 10 182h-6q-17 -45 -42 -83l-688 -1054h-261zM518 1567v137h543v-137h-543z" />
<glyph unicode="&#x4e3;" horiz-adv-x="1233" d="M151 0v1024h213v-736q11 26 47 90l437 646h233v-1024h-210v751q-20 -40 -61 -111l-431 -640h-228zM343 1204v137h543v-137h-543z" />
<glyph unicode="&#x4e4;" horiz-adv-x="1572" d="M177 0v1434h230v-912q0 -157 -8 -205h4q20 40 52 88l664 1029h274v-1434h-229v955q0 129 10 182h-6q-17 -45 -42 -83l-688 -1054h-261zM468 1683q0 49 35.5 82t86.5 33t88.5 -33.5t37.5 -81.5q0 -49 -36 -83t-86 -34q-52 0 -89 34.5t-37 82.5zM887 1683q0 49 35 82t85 33 q53 0 89.5 -33.5t36.5 -81.5q0 -49 -35 -83t-88 -34q-50 0 -86.5 33t-36.5 84z" />
<glyph unicode="&#x4e5;" horiz-adv-x="1233" d="M151 0v1024h213v-736q11 26 47 90l437 646h233v-1024h-210v751q-20 -40 -61 -111l-431 -640h-228zM296 1320q0 49 35.5 82t86.5 33t88.5 -33.5t37.5 -81.5q0 -49 -36 -83t-86 -34q-52 0 -89 34.5t-37 82.5zM715 1320q0 49 35 82t85 33q53 0 89.5 -33.5t36.5 -81.5 q0 -49 -35 -83t-88 -34q-50 0 -86.5 33t-36.5 84z" />
<glyph unicode="&#x4e6;" d="M85 700q0 346 190 552t516 206q302 0 486.5 -200t184.5 -523q0 -351 -189 -555t-505 -204q-310 0 -496.5 201t-186.5 523zM335 715q0 -239 120 -385t314 -146q206 0 325 139t119 389q0 257 -115.5 397t-318.5 140q-197 0 -320.5 -147t-123.5 -387zM441 1683q0 49 35.5 82 t86.5 33t88.5 -33.5t37.5 -81.5q0 -49 -36 -83t-86 -34q-52 0 -89 34.5t-37 82.5zM860 1683q0 49 35 82t85 33q53 0 89.5 -33.5t36.5 -81.5q0 -49 -35 -83t-88 -34q-50 0 -86.5 33t-36.5 84z" />
<glyph unicode="&#x4e7;" horiz-adv-x="1223" d="M85 500q0 258 147.5 403t397.5 145q240 0 374 -141t134 -391q0 -245 -144.5 -392.5t-388.5 -147.5q-237 0 -378.5 143.5t-141.5 380.5zM280 1320q0 49 35.5 82t86.5 33t88.5 -33.5t37.5 -81.5q0 -49 -36 -83t-86 -34q-52 0 -89 34.5t-37 82.5zM322 506q0 -161 80 -253.5 t214 -92.5q137 0 210.5 91t73.5 259q0 169 -73.5 261t-210.5 92q-136 0 -215 -95t-79 -262zM699 1320q0 49 35 82t85 33q53 0 89.5 -33.5t36.5 -81.5q0 -49 -35 -83t-88 -34q-50 0 -86.5 33t-36.5 84z" />
<glyph unicode="&#x4e8;" d="M85 699q0 346 189 552.5t515 206.5q303 0 488.5 -201t185.5 -526q0 -349 -189.5 -552t-506.5 -203q-310 0 -496 200.5t-186 522.5zM338 813h871q-16 211 -129 326.5t-300 115.5q-182 0 -302.5 -120.5t-139.5 -321.5zM339 613q18 -200 135.5 -318t295.5 -118 q192 0 307 114t132 322h-870z" />
<glyph unicode="&#x4e9;" horiz-adv-x="1223" d="M85 503q0 257 146 401t394 144q242 0 377.5 -140t135.5 -388q0 -247 -144.5 -395.5t-388.5 -148.5q-238 0 -379 145t-141 382zM322 442q9 -136 88 -214t207 -78q265 0 283 292h-578zM323 602h577q-36 270 -284 270q-119 0 -196 -70.5t-97 -199.5z" />
<glyph unicode="&#x4ea;" d="M85 699q0 346 189.5 552.5t515.5 206.5q303 0 488 -201t185 -526q0 -349 -189.5 -552t-507.5 -203q-309 0 -495 200.5t-186 522.5zM342 617q18 -199 134.5 -316t293.5 -117q190 0 306 113.5t132 319.5h-866zM342 812h865q-16 209 -128 323t-299 114q-181 0 -300 -119 t-138 -318zM441 1683q0 49 35.5 82t86.5 33t88.5 -33.5t37.5 -81.5q0 -49 -36 -83t-86 -34q-52 0 -89 34.5t-37 82.5zM860 1683q0 49 35 82t85 33q53 0 89.5 -33.5t36.5 -81.5q0 -49 -35 -83t-88 -34q-50 0 -86.5 33t-36.5 84z" />
<glyph unicode="&#x4eb;" horiz-adv-x="1218" d="M85 503q0 257 145.5 401t392.5 144q240 0 375 -140t135 -388q0 -247 -144 -395.5t-386 -148.5q-236 0 -377 144.5t-141 382.5zM281 1320q0 49 35.5 82t86.5 33t88.5 -33.5t37.5 -81.5q0 -49 -36 -83t-86 -34q-52 0 -89 34.5t-37 82.5zM326 435q9 -129 85.5 -202 t202.5 -73q262 0 279 275h-567zM327 600h565q-26 263 -279 263q-120 0 -195.5 -68.5t-90.5 -194.5zM700 1320q0 49 35 82t85 33q53 0 89.5 -33.5t36.5 -81.5q0 -49 -35 -83t-88 -34q-50 0 -86.5 33t-36.5 84z" />
</font>
</defs>
</svg>
