<?xml version="1.0" encoding="utf-8"?>
<!-- Generator: Adobe Illustrator 16.0.0, SVG Export Plug-In . SVG Version: 6.00 Build 0)  -->
<!DOCTYPE svg PUBLIC "-//W3C//DTD SVG 1.1//EN" "http://www.w3.org/Graphics/SVG/1.1/DTD/svg11.dtd">
<svg version="1.1" id="Layer_1" xmlns="http://www.w3.org/2000/svg" xmlns:xlink="http://www.w3.org/1999/xlink" x="0px" y="0px"
	 width="1920px" height="1080px" viewBox="0 0 1920 1080" enable-background="new 0 0 1920 1080" xml:space="preserve">
<path fill-rule="evenodd" clip-rule="evenodd" fill="#ED1F24" stroke="#000000" stroke-width="2" stroke-miterlimit="10" d="
	M1377,164c-2.667,0.333-5.333,0.667-8,1c-1.618,4.108-1.713,6.519-6,8c-1.333,0-2.667,0-4,0c-1,3-2,6-3,9
	c-5.933-0.035-7.685,1.199-12,2c-0.658,13.16-5.333,22.457-7,34c-8.333,1-16.667,2-25,3c-2.354,4.236-3.21,7.739-10,8
	c-4.98-7.399-20.122-10.374-31-9c0,0.667,0,1.333,0,2c-2.124,3.203-5.605,18.686-6,23c-3,0-6,0-9,0c-1.531,2.604-3.014,7.306-5,10
	c-3.846,3.759-19.109,8.19-26,9c0.675-5.072,4.908-16.742,3-20c-1.919-1.772-3.136-1.896-7-2c-0.605-4.468-2.313-5.754-4-9
	c-14.335-1.829-13.128,2.671-23,4c-0.072-4.271-0.817-6.164-2-9c-0.667,0-1.333,0-2,0c0,1,0,2,0,3c2.089,2.129,2.714,3.882,3,8
	c-1.833,1.285-1.712,1.968-4,3c-4.777,3.558-10.892,0.449-16-1c-0.536-1.516-0.675-1.693-1-4c1.519-1.02,1.967-1.498,3-3
	c-4.613-2.274-3.829-3.501-3-9c-1.257-0.65-2.071-1.089-3-2c-2.771,1.067-3.456,3.2-6,4c-2.992,0.94-9.958-1.455-11-1
	c-1,1.333-2,2.667-3,4c-2.398,1.029-13.605,1.312-15,1c-4.099-0.916-6.125-5.556-9-7c-5.516-2.771-10.511-0.532-15-2c0,1,0,2,0,3
	c3.905,3.212,2.463,7.111,2,13c-0.667,0-1.333,0-2,0c-3.113,2.065-19.477,4.75-22,4c-0.281,3.571-0.107,3.334-2,5
	c-6.678,5.023-11.97-2.964-21,1c0,0.667,0,1.333,0,2c-2.969,1.285-5.087-1.772-7-1c-0.372,0.15-0.33,2.253-5,3
	c-2.645-4.251-4.548-8.093-5-15c1.778-1.41,0.55-2.316,2-4c2.374-2.757,10.139-4.164,11-6c-2.883-1.834-3.607-2.421-4-7
	c2.315-1.615,2.352-1.461,3-5c-2.694-1.865-2.86-2.377-3-7c3.684-0.803,5.717-1.635,7-5c-0.961-1.417-0.977-3.273-1-6
	c1.667-0.333,3.333-0.667,5-1c1.406-2.937,0.347-5.988,1-7c2.285-3.543,12.134-6.622,14-11c-4.624-1.556-5.287-4.665-7-9
	c-1,0-2,0-3,0c0.744-6.219,4.444-4.713,6-9c0.333-6,0.667-12,1-18c0.58-1.16,3.054-2.339,4-4c2.665,1.154,2.104,1.916,5,3
	c5.57-6.935,15.407-4.885,23-10c2.922-4.914,1.516-13.247,5-18c1.18-0.803,1.681-0.773,4-1c1.073,0.752,0.945,0.601,3,1c0,1,0,2,0,3
	c2.718,1.807,3.543,3.777,7,5c1.927-2.291,11.361-3.935,13-3c4.357,3.058,7.533,8.059,13,10c0-0.333,0-0.667,0-1
	c0.682-0.771,1.311-2.231,2-3c5.218,3.266,6.177-1.745,9-3c4.243-1.886,7.334,4.497,10,2c0.752-1.073,0.602-0.946,1-3
	c2.333-0.333,4.667-0.667,7-1c0.836,2.9,1.391,2.574,2,6c5.452-1.4,5.598-4.551,13-5c0,1,0,2,0,3c4.045,0.034,14.718-0.723,17,0
	c1.638,0.519,6.62,4.665,8,5c2.41,0.585,6.476-2.589,10-2c2.612,0.437,19.613,3.141,22,2c0.667-1.333,1.333-2.667,2-4
	c3.333,0,6.667,0,10,0c10.984-3.819,19.493-1.093,31-1c0.404-3.505,1.257-4.912,2-8c4.554-0.246,7.481-1.746,9-5
	c1.753-2.464,2.342-7.641,3-11c2.448-0.85,6.184-1.039,10-1c2.639,1.486,14.313-0.833,21-1c0,0.667,0,1.333,0,2
	c1.915,2.847,2.289,9.286,3,13c3.28-0.117,7.184-0.236,9,1c2.681,3.729,3.222,7.379,7,10c3.604,2.555,4.83-0.041,7,1
	c4.424,4.409,11.145,8.186,12,16C1380.148,145.077,1377.913,156.905,1377,164z"/>
<path fill-rule="evenodd" clip-rule="evenodd" fill="#ED1F24" stroke="#000000" stroke-width="2" stroke-miterlimit="10" d="
	M1015,149c0.372,2.076,0.242,1.925,1,3c3.652,3.087,9.349,3.74,13,7c3.055,2.728,0.245,5.127,5,7c8.671,6.426,18.835-4.813,30,0
	c0,0.667,0,1.333,0,2c4.666,0,9.334,0,14,0c0.437,8.375,4.592,6.247,6,13c-12.02,3.702-11.456,13.684-17,16
	c-1.073,0.752-0.946,0.601-3,1c0.333,2.667,0.667,5.333,1,8c-3.379,1.409-5.977,1.903-7,6c2.933,1.474,3.223,1.082,4,5
	c-1.514,1.411-2.208,2.764-4,4c1.927,3.457,3.496,3.695,4,9c-2.532,0.074-3.716,0.121-5,1c-4.048,1.63-5.025,4.545-8,7
	c1.333,4.666,2.667,9.334,4,14c-2.091,1.121-1.832,1.435-5,2c-1.387-0.696-4.559-0.241-7-1c-0.672,4.05-1.835,6.19-6,7
	c-1.545-1.93-2.458-2.783-4-2c-2.396,0.708-5.355,1.458-8,3c-0.333,1-0.667,2-1,3c-6.091,4.672-14.11,0.831-16,10
	c2.542,1.456,1.128-0.217,2,3c-3.681,0.759-2.806,1.46-7,2c-0.376,5.819-2.007,2.916-3,5c0.333,2,0.667,4,1,6
	c-0.334,0.861-3.769,4.151-4,5c-0.742,2.729,1.819,1.243,2,2c1.302,5.454-3.971,8.826-9,9c-6.195-6.043-8.875,2.813-18-1
	c-2.927-1.223-1.773-3.422-7-4c-2.206,2.508-7.742,3.719-12,4c-4.853-10.273-19.084-13.202-20-26c1.32-2.74-0.196-2.411-1-6
	c2.837-0.293,4.364-0.666,6-2c0.804-1.021,0.355-0.274,1-2c-1.627-2.372-3.794-9.335-4-13c2.868-1.078,4.622-1.221,6-4
	c0.751-1.073,0.601-0.946,1-3c-0.913-0.932-1.331-1.755-2-3c-4.88,1.566-5.971,3.769-13,4c-2.214-2.777-7.07-4.228-9-7
	c-2.539-3.646,0.126-8.29-1-11c-2.333-1.333-4.667-2.667-7-4c-1-2-2-4-3-6c-3.942-4.367-11.895-1.539-13-9
	c1.025-1.117,2.12-2.833,3-4c-1.333,0-2.667,0-4,0c0-1.333,0-2.667,0-4c0.333,0,0.667,0,1,0c0-0.333,0-0.667,0-1
	c3-0.667,6-1.333,9-2c0.536-1.516,0.675-1.693,1-4c1.667,0,3.333,0,5,0c0-0.333,0-0.667,0-1c-1.914-1.148-3.309-4.177-5-5
	c-6.321-3.077-8.177,1.681-9-7c3.434-2.204,2.305-3.371,3-8c7.898-0.607,6.859-2.075,14,0c-0.156-4.485-0.849-12.221,1-15
	c1.18-0.803,1.681-0.773,4-1c5.125,3.862,6.722,1.421,14,1c0,0.667,0,1.333,0,2c3.252,5.261,0.086,19.107,2,25c0.333,0,0.667,0,1,0
	c1.023-0.639,0.204-2.169,1-1c6.214,1.866,5.447,7.925,5,16c0.333,0,0.667,0,1,0c0-0.333,0-0.667,0-1c2.863-4.561,0.359-6.716,8-7
	c0-13.332,0-26.668,0-40c6.626-0.629,3.167-1.82,6-3c1.77-0.737,14.106,1.68,17,2c0-0.333,0-0.667,0-1c0.333,0,0.667,0,1,0
	c-0.177-5.725,0.268-9.771,2-13c8.477,1.776,22.754,3.754,34,5c0.739,3.956,0.094,3.212,4,4
	C1012.18,149.197,1012.681,149.227,1015,149z"/>
<path fill-rule="evenodd" clip-rule="evenodd" fill="#ED1F24" stroke="#000000" stroke-width="2" stroke-miterlimit="10" d="
	M895,163c0,1,0,2,0,3c1.433,0.559,10.313,7.56,11,9c0.333,0,0.667,0,1,0c0,0.333,0,0.667,0,1c-4.798,0.453-4.817,1.643-10,2
	c0.579,6.855-0.893,4.812-3,10c5.479,3.018,13.578,3.643,15,11c-2,0-4,0-6,0c0,1,0,2,0,3c-2.927,1.488-7.71,2.676-11,4
	c1.15,3.36,1.376,4.356,1,8c0,0.667,0,1.333,0,2c3.666,0.667,7.333,1.333,11,2c2.527,1.842,2.083,5.308,4,8
	c1.617,2.27,6.718,2.288,8,5c1.294,2.737-0.946,6.698,2,11c2.87,3.101,6.996,6.121,12,7c2.551-2.578,4.924-3.79,10-4
	c0,0.667,0,1.333,0,2c1.659,2.453,0.616,5.25,0,8c-2.333,0.667-4.667,1.333-7,2c1.238,3.333,3.917,2.811,5,5c0,0.333,0,0.667,0,1
	c-0.333,1.333-0.667,2.667-1,4c0.289,1.03,1.586,1.415,2,4c-2.131,1.104-6.067,2.427-8,4c1,0,2,0,3,0c-0.598,4.156-3.097,5.951-1,10
	c1.569,3.03,2.091-0.76,3,5c-4,0.333-8,0.667-12,1c-1.085-2.456-2.65-6.649-5-8c-3.186-2.337-9.374-4.784-13-6c-2.667,1-5.333,2-8,3
	c0.045,6.338-1.693,8.18-7,9c-1.935-0.985-15.672,0.644-19,2c3.193,4.699,0.342,8.597,0,16c-3.09-0.086-16-4-16-4
	c-0.376,0.22-1.262,2.664-2,3c-4.76,2.168-9.482,1.43-14,4c0,0.667,0,1.333,0,2c-4.713,2.345-9.698,0.06-14,2
	c-0.595,0.269-2.183,2.729-3,3c-2-0.333-4-0.667-6-1c-0.451,0.202-2.258,3.746-3,4c-4.039,1.38-15.427-2.413-20-2
	c0.084-3.1,0.59-4.023,0-5c-0.74-0.872-1.26-1.128-2-2c-3.612,0.686-12.692,2.165-14,3c-0.803,1.179-0.773,1.681-1,4c1,0,2,0,3,0
	c-0.333,3.667-0.667,7.334-1,11c-3.333,0.333-6.667,0.667-10,1c0,0.333,0,0.667,0,1c2.525,1.466,1.544,0.44,2,4
	c-2.918,1.051-2.346,1.818-5,3c1.441,2.056,1.553,1.301,2,5c-6.081,1.555-6.822,5.689-13,7c-0.737-0.406-15.14-2.286-18-1
	c-3.246,1.46-2.05,3.461-8,4c-2.374-2.75-8.629-6.533-13-7c-1.568,1.829-0.882,1.396-4,2c-1.104-3.189-0.744-4.639-4-6
	c-2.76-1.193-6.277,2.896-12,1c-1.596-0.529-2.327-1.8-6-2c-0.867,1.191-0.823,1.125-2,2c0.636,3.79,0.316,4.492,0,9
	c-5.412-0.569-4.607-2.319-10-3c0,0.333,0,0.667,0,1c-0.333,0-0.667,0-1,0c0.558,1.604,0.8,2.404,1,5c-2.658,1.271-1.243,2.729-3,4
	c-1.853,1.341-4.571-0.644-6,1c-1.014,1.167,0.36,3.161-1,4c-1.667,0-3.333,0-5,0c0,0.667,0,1.333,0,2
	c-4.666,0.333-9.334,0.667-14,1c-3.422,1.824-1.646,4.801-7,6c-1.457-2.54-4.984,0.612-7-3c0,0.667,0,1.333,0,2
	c-1.875,0.652-3.913,0.952-7,1c-3.782-2.433-12.634-0.858-16-3c-0.945-0.601-1.678-3.108-3-4c-1.012,3.677-0.657,3.518-5,4
	c-2.594-2.804-10.632-1.249-17-1c-1.428-4.329-4.123-6.834-10-7c-1.065,0.778-3.692,1.489-5,2c0,1,0,2,0,3c-1.792-0.207-23-7-23-7
	c-1.049-1.549-1.031-4.085-1-7c-1.737-2.749-0.263-6.638,0-11c2.546-1.397,6.682-3.077,9-5c-1.218-1.579-1.749-4.443-3-6
	c-1.807-1.625-4.406-2.111-6-4c-3.947-5.703-12.662-35.963-13-45c8.287-2.829,7.699-11.501,18-12c7.947,7.607,8.211-0.8,17,2
	c2.65,0.844,6.72,2.057,12,2c4.935-7.542,11.041-11.069,20-13c0.829,2.963,0.443,2.733,3,4c1.959-8.188,11.016-7.212,17-9
	c-0.4-2.266-0.918-1.084,0-3c2.402-1.368,2.395,0.701,5,0c0.744-0.2,2.501-2.805,3-3c2.166-0.847,2.964,1.355,4,1
	c1.436-0.492,1.96-3.549,3-4c2,0.333,4,0.667,6,1c2.284-1.158,4.345-6.466,7-8c0.85-0.491,12.723-2.062,13-2
	c1.119,0.249,0.898,2.745,4,2c1.248-0.3,2.599-1.812,6-2c0.854,1.46,1.812,2.867,3,4c-0.306-4.509-0.645-5.208,0-9
	c5.533-1.934,6.465-3.196,7-10c5.202-0.779,5.622-1.519,11-1c2.387-4.497,6.293-8.776,8-13c-1.629-2.319-1.919-6.191-2-10
	c4.876-3.153,6.999-6.74,15-7c1.295,0.877,2.467,0.894,5,1c1.766-2.505,4.233-3.495,6-6c7.856,3.962,24.413,9.258,33,10
	c1.03-3.405,0.997-7.323,4-9c3.754-2.147,8.856,1.422,12,2c2.874,0.529,5.897-1.903,10-2c2.987-4.272,3.766-3.921,6-10
	c6.43-0.479,11.871-4.541,15-5c4.879-0.716,12.132,5.943,17,3c0.333-1.333,0.667-2.667,1-4c2,0.333,4,0.667,6,1
	c7.62-2.673,13.496-4.677,23-5c0-1,0-2,0-3c3.443-2.206,5.635-6.14,9-8c1.417-0.961,3.273-0.976,6-1c0-2,0-4,0-6
	c6.358-0.779,8.072-0.736,13-2c0.773,1.16,2.432,1.197,3,2c1.576,2.228,0.601,6.895,2,9C888.47,160.967,891.239,162.509,895,163z"/>
<path fill-rule="evenodd" clip-rule="evenodd" fill="#ED1F24" stroke="#000000" stroke-width="2" stroke-miterlimit="10" d="
	M685,461c-8.059,0.401-26.81-4.887-32,5c-0.236,0.382-2,9-2,9c1.283,2.072,2.077,2.303,3,5c-1.624,1.254-2.007,2.102-3,4
	c-1,0-2,0-3,0c0,2,0,4,0,6c-2.121,0.451-3.647,0.896-5,2c0.223,1.027-0.083,4.659-1,6c-2.478,1.498-5.349,0.396-7,3
	c2.252,2.377,1.092,0.351,1,4c-4.163,0.766-3.636,0.519-4,5c-5.692,0.272-3.625-0.097-8-2c-0.71,4.982-2.3,5.263-6,7
	c1.339,2.151,2.753,3.583,4,6c-2.67,0.979-1.718,1.282-5,2c-0.867-1.191-0.823-1.125-2-2c-0.567,3.579-1.171,7.451-4,9
	c-2.24-1.4-3.276-0.545-6,0c-1.664,6.453-7.75,8.444-13,11c0.501,3.858-2.097,10.896-6,13c-1.737-1.322-1.607-1.728-3-1
	c-6.763,1.781-5.689,4.974-9,10c-5.992-3.038-7.983,4.084-14,2c-0.727,5.817-4.978,9.533-11,10c-0.713,0.565-0.042,1.442-2,1
	c0-0.333,0-0.667,0-1c-3.425-4.022-3.731-9.664-6-15c-5.904-13.885-10.89-28.283-17-43c-3.584-8.634-9.504-17.104-13-25
	c-8.94-20.191-15.559-40.953-24-61c3.514-2.307,7.216-5.872,8-11c2,0,4,0,6,0c1.496-3.037,1.062-3.879,2-7c3.1,0.42,2.383,0.713,5,0
	c-0.927-2.997,0.755-4.822,0-8c-1.43-6.017-5.397-9.275-4-17c9.344-2.115,10.426-16.684,12-23c4.001-1.892,7.622-6.341,12-7
	c2,0.667,4,1.333,6,2c15.858,0.899,21.625-2.485,37,6c0.294-2.329,0.451-2.477,1-4c5.475-0.647,7.894-3.155,12,0
	c1.111,2.015,0.273,4.446,1,7c8.563-1.785,16.884-3.059,22,0c1.012-3.676,0.656-3.518,5-4c0.535,1.516,0.675,1.693,1,4
	c-2.873,1.12-1.842,0.174-3,3c0.333,0,0.667,0,1,0c4.487-5.987,12.275-1.069,18,0c3.969,0.741,10.581-2.435,14-3
	c0.372,2.076,0.242,1.924,1,3c2.642-4.388,6.597-7.58,13-8c1.667,0.333,3.333,0.667,5,1c0-0.667,0-1.333,0-2c1.667,0,3.333,0,5,0
	c0.667-1.667,1.333-3.333,2-5c1.466-0.909,3.96-0.273,5-1c3.359-4.424-0.369-8.927,9-9c0.87,1.048,1.956,2.125,3,3
	c0.552-3.136,0.21-2.434,2-4c-1.341-1.902-1.283-0.875-2-4c2.725-1.708,2.498-2.536,7-3c2.749-1.296,4.611,1.537,8,2
	c3.128,0.428,4.848-2.241,11-1c0.188,3.479,0.376,4.238,2,6c1.615-2.315,1.461-2.352,5-3c4.116,3.667,7.567,6.542,14,8
	c4.901-7.572,14.081-3.84,23-4c2.708,4.219,4.944,9.521,8,14c0.667,0,1.333,0,2,0c0,0.333,0,0.667,0,1
	c-0.333,3.333-0.667,6.667-1,10c0.694,2.23,2.36,2.514,3,6c-2,0.667-4,1.333-6,2c2.302,7.073-2.017,13.242-3,19
	c-0.597,3.492,3.801,5.438,4,11c-5.838,4.083-9.763,12.963-16,16c-1.345-2.305-1.22-1.823-2-2c-6.216,2.034-10.768,6.892-15,11
	c1.304,3.464,4.058,4.242,3,7c-1.795,1.734-15.877,8.491-19,8c-3.124-0.492-7.008-2.424-11-3c0,0.667,0,1.333,0,2
	c3.562,1.112,4.31,1.924,5,6c-8.145,3.625,2.264,8.126-13,8c-3.16-1.751-6.548,1.006-9,0C685.248,462.927,685.399,463.055,685,461z"
	/>
<path fill-rule="evenodd" clip-rule="evenodd" fill="#ED1F24" stroke="#000000" stroke-width="2" stroke-miterlimit="10" d="
	M1007,367c0.372-2.076,0.242-1.924,1-3c3.823-2.5,13.586-4.055,20-4c2.517,10.233,8.191,9.744,10,16c1.708,3.205-0.843,3.879,0,6
	c2.894,4.182,6.567,0.499,8,7c-4.985,2.985-0.114,6.276,1,12c-1.262,1.358-1.365,1.769-2,4c-2.786,1.229-6.576,4.069-9,5
	c-4.691,1.801-8.675-0.406-12,2c-1.495,1.397-2.886,3.244-4,5c0.667,0,1.333,0,2,0c1.737-1.322,1.607-1.728,3-1
	c2.502,1.457,2.156,0.586,3,4c-1.428,1.55-2.118,3.874-3,6c-2.733-0.662-6.9-0.554-11-1c-1.962,5.176-6.239,2.477-9,6
	c0,1.333,0,2.667,0,4c-0.728,1.412-3.339,1.859-4,3c-2.645,4.565-2.015,10.001-5,12c-1.774,1.215-1.749,0.015-3,1
	c-0.961,1.417-0.977,3.273-1,6c-8.21-0.164-9.056,1.391-15,3c-0.975,0.264-6.157-1.187-10-1c-0.123,4.014-0.081,3.171-2,5
	c-1.493,1.423,1.919,0.929,2,1c0.943,3.895-2.665,4.769-1,6c4.095,3.455,8.432,0.318,10,7c-3.033,0.983-2.988,1.966-6,3
	c-1.358-1.262-1.769-1.365-4-2c-0.829,2.963-0.443,2.732-3,4c-1.073-0.752-0.946-0.601-3-1c-0.084,3.817,0.053,5.365-1,7
	c-1.18,0.803-1.681,0.773-4,1c-2.412-2.629-8.215-3.89-11-6c0.877-2.72,1.707-2.938,3-5c-4.701-3.043-6.139-7.357-8-14
	c6.084-0.149,6.986-1.938,7-8c-1.604-0.558-2.404-0.8-5-1c-1.684,0.563-6.891-0.111-11,1c-2.776-3.839-6.113-5.151-11-7
	c1.023-3.744-1.911-8.844-5-10c-2.423-1.463-5.786-0.245-10,0c0,0.333,0,0.667,0,1c-0.333,0-0.667,0-1,0
	c0.521,2.243,1.163,2.899,0,5c-1.33,4.029-2.641,4.092-8,4c-1.549-1.049-4.085-1.031-7-1c0-1.667,0-3.333,0-5
	c-2.951-1.106-2.662-1.489-4-4c-5.491,0.199-11.829,0.273-15-2c-1.398-2.66,0.954-3.198,0-7c-0.868-3.459-3.812-5.57-5-9
	c1.624-1.35,1.121-0.64,2-3c-2.057-1.224-2.913-1.648-4-4c1.754-0.631,0.971-0.193,2-1c-3.743-0.531-4.675-1.099-6-4
	c-0.752-1.073-0.602-0.945-1-3c-5.118,0.676-6.083,3.945-9,3c-5.012-2.791-2.52-4.116-12-4c0.642-2.185,1.277-2.931,0-5
	c-1.073-0.752-0.946-0.601-3-1c-2.692,2.97-6.714,1.878-9,3c-2.728,2.921-5.12,6.265-7,10c-4.279-2.156-23.199-6.58-26-5
	c-6.708-4.364-1.523-4.059-10-4c-1-0.333-2-0.667-3-1c-5.252,1.851-2.491,4.833-14,5c-1.483-1.746-2.874-2.836-5-4
	c-0.242-8.74,3.866-14.455,3-24c3.542-0.344,4.609-0.436,6-3c-5.117-3.937-2.867-8.337-2-14c-1,0-2,0-3,0
	c-0.827-6.135-4.26-8.862-6-14c3.32-1.952,9.484-5.196,11-9c0.333,0,0.667,0,1,0c0-0.333,0-0.667,0-1c-2.076-0.372-1.924-0.242-3-1
	c2.002-1.715,3.942-3.244,5-6c-1.191-0.868-1.125-0.822-2-2c0.667,0,1.333,0,2,0c2.334-1.529,6.23-1.394,7-2
	c1.424-2.241,2.365-8.765,3-11c-2.185,0.642-2.931,1.277-5,0c0.913-0.932,1.331-1.755,2-3c5.401,0.022,8.809-3.394,17-2c0,1,0,2,0,3
	c-0.804,1.021-0.355,0.274-1,2c9.624-0.168,13.099,1.449,20,4c2.156-7.426,4.686-1.889,11-5c1.404-0.692,5.349-4.469,7-5
	c2,0.333,4,0.667,6,1c1.464-0.376,5.448-1.874,8-3c3.898-1.72,6.899-5.062,12-6c2.813,2.035,8.139,3.442,12,4
	c4.25-7.967,2.204-11.721,2-16c2.667-2.423,17.166-2.843,22-2c1.015-2.863,1.873-1.34,3-3c1.781-2.623,0.189-4.622,1-7
	c3.666-0.667,7.333-1.333,11-2c3.038,3.962,6.729,2.124,11,5c1.503,1.012,4.065,7.403,5,9c2.811-1.02,10.472-1.852,12-1
	c3.261,1.037,3.917,1.784,5,5c-3.245,0.828-1.528-0.49-3,2c1.295,1.795,2.327,6.72,2,7c-1.732,1.724-2.783,1.499-4,4
	c1.855,1.386,5.872,5.002,7,7c-1.001,2.176,0.231,7.973,0,14c1.8,0.779,4.532,1.774,6,3c-1.501,2.695,3.457,15.201,4,16
	c2.885,1.741,3.628-0.888,7,0c6.845,1.802,5.819,6.978,17,3c1.482,6.34,4.677,8.321,13,8c1.545,0.708,0.135,0.129,3,0
	c0.807,3.717,1.133,5.072,5,6C1001.082,363.889,1003.703,366.224,1007,367z"/>
<path fill-rule="evenodd" clip-rule="evenodd" fill="#ED1F24" stroke="#000000" stroke-width="2" stroke-miterlimit="10" d="
	M873,347c0,0.667,0,1.333,0,2c0.333,0,0.667,0,1,0c0-0.667,0-1.333,0-2C873.667,347,873.333,347,873,347z"/>
<path fill-rule="evenodd" clip-rule="evenodd" fill="#ED1F24" stroke="#000000" stroke-width="2" stroke-miterlimit="10" d="
	M909,368c0.333-2.333,0.667-4.667,1-7c-5.393-1.792-5.452-4.692-13-5c-3.155-2.044-9.583,0.622-13,2c2.754,4.019,1.181,5.712,1,11
	c3.185,2.58,6.783,7.525,9,11c4.702-1.533,10.917-1.835,14-5c2.011-2.064,1.534-4.196,4-6c0-0.333,0-0.667,0-1
	C911,368,910,368,909,368z"/>
<path fill-rule="evenodd" clip-rule="evenodd" fill="#ED1F24" stroke="#000000" stroke-width="2" stroke-miterlimit="10" d="
	M882,374c1.021,0.804,0.274,0.355,2,1C882.979,374.196,883.726,374.645,882,374z"/>
<path fill-rule="evenodd" clip-rule="evenodd" fill="#ED1F24" stroke="#000000" stroke-width="2" stroke-miterlimit="10" d="
	M1151,311c10.258-0.92,13.4,2.922,27,3c1.375,3.274,5.705,12.543,9,14c3.482,1.54,5.694,0.525,8,2c-1.667,8.666-3.333,17.334-5,26
	c-2.287,3.637-7.265,3.462-9,5c-1.91,1.693,0.227,5.415-1,8c-1.998,4.209-7.243,4.418-12,6c0.072,4.166-0.229,6.829-2,9
	c-2.059,1.946-5.148,2.832-8,4c0.104,9.893-1.759,26.826-8,31c-1.895,1.521-3.589,1.789-7,2c-1.141-2.178-2.624-5.077-4-7
	c-2.102,0.379-18.548,1.924-21,1c-1.602-0.604-1.792-3.22-3-4c-5.961-3.854-6.99-2.798-13-2c0,2,0,4,0,6
	c-2.076-0.372-1.925-0.242-3-1c-3.728-3.864-3.836-8.267-11-9c-0.333,1.667-0.667,3.333-1,5c-1.333,0-2.667,0-4,0
	c-0.333-0.667-0.667-1.333-1-2c-1.751-1.075-0.711,1.54-1,2c-4,0-8,0-12,0c-0.973-3.303-1.85-4.127-2-9
	c-2.329-0.294-2.477-0.451-4-1c-1.271,4.553-3.176,4.301-9,4c0.505-3.188,0.872-2.919,2-5c-1.667,0-3.333,0-5,0
	c-1.18,0.803-1.681,0.773-4,1c-1.428-3.413-3.13-5.312-4-9c1.521-1.313,2.113-1.895,3-4c-4.142-1.867-8.328-0.94-9-7
	c2.108-2.063,2.147-3.331,0-6c-2.132-2.239-4.331-4.255-8-5c-0.023-3.578-0.462-5.414-1-8c-2.241-0.779-5.431-1.021-9-1
	c-2.376,3.251-7.348,3.191-12,4c0,1,0,2,0,3c-4.017-0.856-6.095-1.977-12-2c-0.333-1.667-0.667-3.333-1-5c-4-0.333-8-0.667-12-1
	c-3.179-5.678-1.301-7.13-11-7c-4.14,2.437-10.521-2.711-18-3c0.318-6.784-3.6-8.803-4-18c-1.667-0.333-3.333-0.667-5-1
	c0-3.333,0-6.667,0-10c0.714-1.643-0.651-2.824-1-7c-1,0-2,0-3,0c-1.013-3.531-2.12-3.297-3-7c1.333-0.667,2.667-1.333,4-2
	c-0.667-3-1.333-6-2-9c3.269-0.328,3.817-1.24,6,0c5.211,1.795,4.031,5.622,8,8c2.087,1.159,10.237-2.791,16-3
	c2.255,3.549,3.906,4.122,10,4c4.406-4.785,9.484,1.263,13,0c4.023-4.366,0.978-10.731,6-15c6.872-3.094,14.464-3.172,24-1
	c0.652,1.875,0.952,3.913,1,7c-1.954,1.521-2.221,2.172-3,5c5.373,0.11,6.504,1.228,8,5c0.994,1.68,0.103,2.291,1,4
	c2.666,2.308,10.514,4.099,14,5c2.424-7.54,16.937-12.557,29-13c1.892,2.023,5.365,7.113,8,8c0.667-0.333,1.333-0.667,2-1
	c4.093,0.095,5.785,2.171,8,4c0.816-0.931,2.874-3.633,4-4l20,3c0,0.667,0,1.333,0,2c1.635,0.52,17.844-4.389,21-5
	c0.596,3.703,1.082,7.392,5,9c1.417,0.961,3.273,0.977,6,1c1.341-1.773,3.07-2.852,5-4C1151,313,1151,312,1151,311z"/>
<path fill-rule="evenodd" clip-rule="evenodd" fill="#ED1F24" stroke="#000000" stroke-width="2" stroke-miterlimit="10" d="
	M1108,221c5.867,0.265,14.82-0.606,20,3c0,0.667,0,1.333,0,2c0.956,0.818,6.257,3.825,7,4c0.65,0.153,11.144-0.208,13-1
	c1-1.333,2-2.667,3-4c3.666,0.333,7.333,0.667,11,1c5.943-1.769,1.922-3.878,11-3c-0.069,4.751-0.344,5.899,0,9c1,0,2,0,3,0
	c-0.741,4.685-4.24,5.943-2,7c1.462,2.521,1.255,1.828,5,2c3.469,2.694,6.481,1.1,11,0c0.708-2.347,1.024-2.234,2-4
	c-2.441-2.48-2.983-4.896-3-10c1.516-0.535,1.693-0.675,4-1c0,0.333,0,0.667,0,1c0.333,0,0.667,0,1,0c0.667,3,1.333,6,2,9
	c3.441-2.334,12.354-8.44,19-4c5.159,1.541,6.115,4.237,8,9c2.333,0.333,4.667,0.667,7,1c-0.833,18.932-10.116,46.016-17,60
	c-7.166,0.192-22.099,1.748-23,9c-2.575,4.327-0.745,13.328-5,16c-3.05-4.392-2.985-12.348-12-13c-6.023,3.199-15.382-7.779-21-2
	c-2.261,2.026-5.251,4.488-7,7c-2.163-0.753-5.55-1.491-8-2c-0.416-4.75-0.293-6.594-3-10c-8.542,9.468-28.924,2.544-37,1
	c-4.413-0.844-6.029,5.141-8,3c-3.637-1.89-9.992-1.579-12-3c-3.157-2.234-0.854-4.648-6-6c-7.786-4.045-19.547,7.853-24,5
	c-3.186,2.557-1.822,5.844-7,7c-3.333-3.145-7.088-3.068-12-4c0.22-5.962-1.063-5.025-3-10c-2.402,0.307-3.317,1.054-5-2
	c3.119-2.896,3.003-5.313,2-10c-3.507-0.431-9.286-3.498-12-3c-5.451,1-6.427,4.042-12,4c-0.423-6.225,0.14-3.108,3-7
	c-0.308-2.161-1.394-1.949,0-4c2.478,1.109,4.635-0.163,6-3c-2.189-0.899-1.443-0.862-3-2c0-0.333,0-0.667,0-1c0.333,0,0.667,0,1,0
	c1.406-1.609,3.311-1.715,5-3c-0.333,0-0.667,0-1,0c-0.488-2.757,0.558-1.18,2-2c2.285-1.617,4.948-0.64,8-2
	c1.739-0.775,2.48-4.411,4-5c1,0.333,2,0.667,3,1c2.686-1.271,2.466-3.271,7-4c1.743,1.962,2.035,2.801,4,2
	c2.729-1.598,0.824,0.157,1-3c2.328-0.195,2.826-0.193,4-1c-1.191-0.867-1.125-0.823-2-2c1.083-0.909,0.085,0.078,1-1
	c4.742,2.228,10.139,1.953,16-2c0-0.667,0-1.333,0-2c2.858-1.489,5.093,1.746,7,1c0-0.667,0-1.333,0-2c8.818-3.57,14.63,1.896,22-1
	c0.558-1.604,0.8-2.404,1-5c7.105,0.535,15.681-2.213,24-4c0-1.667,0-3.333,0-5C1112.103,229.212,1108.811,225.689,1108,221z"/>
<path fill-rule="evenodd" clip-rule="evenodd" fill="#ED1F24" stroke="#000000" stroke-width="2" stroke-miterlimit="10" d="
	M889,347c-0.275,4.114-1.139,4.761-2,8c0.333,0,0.667,0,1,0c2.176-2.363,4.256-5.167,8-6c3.467,7.243,12.331,4.687,16,10
	c2.316,3.354-2.688,3.931,2,7c1.073,0.752,0.945,0.602,3,1c-0.372,2.076-0.242,1.924-1,3c-1.35,1.214-3.878,1.567-5,3
	c-1.751,2.237-1.631,4.468-4,6c-3.216,2.08-10,2-10,2c-3.363,2.448-0.185,4.82-6,6c-1.456-2.542,0.217-1.128-3-2
	c0.725-3.818,1.139-2.836,3-5c-10.233-7.158-10.294-19.789-8-32C884.725,347.401,886.152,347.11,889,347z"/>
<path fill-rule="evenodd" clip-rule="evenodd" fill="#ED1F24" stroke="#000000" stroke-width="2" stroke-miterlimit="10" d="
	M678,517c0,1.333,0,2.667,0,4c1.667,0,3.333,0,5,0c0,1.333,0,2.667,0,4c1,0,2,0,3,0c0,2,0,4,0,6c1.667,0.333,3.333,0.667,5,1
	c0,0.667,0,1.333,0,2c2.175,3.583,0.434,18.215,0,22c4.899,1.001,1.857,1.789,4,3c2.667,0,5.333,0,8,0c7.957,4.062,6.525,3.999,19,4
	c0,1.667,0,3.333,0,5c2.355,0.572,3.142,1.14,5,2c-2.004,5.865-2.288,9.933-4,14c4.881,0.687,9.412,3.766,10,9
	c-3.032,1.129-4.047,1.936-9,2c-0.068,2.856-0.391,4.279-1,6c-4.541-1.336-5.434-0.071-11-3c0,1.333,0,2.667,0,4
	c-3.326-0.263-5.338-1.866-6-1c-1.247,2.041-0.415,3.045-1,5c-2.606,0.812-4.041,0.425-6,1c1.408,2.639,2.737,5.936,4,9
	c2.055-1.441,1.301-1.553,5-2c1.681,3.682,4.041,1.941,6,5c-2.004,2.094-0.856,5.439-1,9c-0.333,0-0.667,0-1,0c0-0.333,0-0.667,0-1
	c-2.638,0.022-1.179,0.369-4-1c0,0.667,0,1.333,0,2c2.236,3.849-1.802,4.991-1,8c0.224,0.84,2.308,1.231,3,3
	c-5.651,1.456-8.356,5.414-13,8c-0.257,3.196-0.994,3.191,0,5c1.94,1.177,4.205,1.33,7,3c0,0.667,0,1.333,0,2
	c-4.923,3.09-6.992,10.188-12,13c-3.383,1.996-5.859-0.747-8,0c-3.1,1.224-2.261,0.375-3,4c2.006,1.396,2.066,1.346,3,4
	c-4.117,3.42-3.447,5.183-12,5c-4.453-3.132-12.416,1.859-14,5c-1.771,2.294-1.375,3.383-4,5c0.333,1,0.667,2,1,3
	c4.566,0.188,5.04,0.017,6,4c-2.69,0.894-4.818,2.604-6,5c2.698,3.524,3.913,7.941,4,14c-0.667,0-1.333,0-2,0
	c-1.69,1.142-4.896,1.066-8,1c-0.648-3.092-1.471-5.645-4-7c-0.751,0.356-0.043,1.056-2,1c-2.216-0.063-2.706-2.52-6-2
	c-2.184,0.345-8.299,4.359-10,4c-0.667-1-1.333-2-2-3c-4.045-1.982-13.235-4.377-19-3c-8.893,2.125-15.638,11.479-29,8
	c-6.748-1.757-13.558-8.869-20-6c-1.495,1.624-1.552,2.023-2,5c-1.333,0-2.667,0-4,0c0,3.333,0,6.667,0,10
	c-6.858,1.933-19.9,13.422-28,8c-14.218-10.504-21.482-33.683-31-52c-4.325-8.324-10.926-18.083-12-27c-0.289-2.401,2.491-4.178,3-6
	c0.943-3.38-0.658-13.697,0-15c0.281-0.557,3.691-1.074,4-2c0.755-2.267-2.771-11.387-3-16c1.333,0,2.667,0,4,0
	c-1.113-12.264-10.88-19.965-13-32c0.667,0,1.333,0,2,0c1.073,0.752,0.946,0.602,3,1c0-1,0-2,0-3c5.521-3.015,7.115-5.882,10-12
	c3.333,0.333,6.667,0.667,10,1c1.867-0.685,1.541-2.303,5-3c1.55,1.428,3.874,2.118,6,3c1.332,2.839,2.409,4.155,3,8
	c5.783,0.746,2.27,1.304,5,3c1.905,1.184,5.218-0.692,6-1c0.333,0.667,0.667,1.333,1,2c5.839,2.044,8.406-3.062,12-1
	c2.387-1.664,16.431-11.705,20-11c0-0.333,0-0.667,0-1c0,0,1.54-4.368,3-6c4.777,2.205,7.106-3.927,14-2
	c0.346-7.858,3.977-7.266,8-11c1.869,0.837,2.663,1.38,5,2c0.348-3.104,4.376-12.019,5-13c2.692-2.653,8.185-3.562,10-7
	c2.031-1.638-0.703-1.166,2-2c1.812-3.863,4.055-2.873,8-2c0.3-3.602,1.104-6.979,3-9c2.679,2.778,3.56,0.971,6,1
	c-1.291-2.688-2.883-4.313-4-7c3.98-1.984,4.644-5.07,8-7c1.693,3.911,1.603,2.504,6,2c-0.294-2.329-0.451-2.477-1-4
	c0.667,0,1.333,0,2,0c2.577-2.27,11.648-4.999,16-2c6.411,2.63,6.432,7.993,11,12C665.264,520.076,670.457,517.741,678,517z"/>
<path fill-rule="evenodd" clip-rule="evenodd" fill="#ED1F24" stroke="#000000" stroke-width="2" stroke-miterlimit="10" d="
	M837,400c0,2,0,4,0,6c3,0,6,0,9,0c0.946,3.393,0.385,3.111,4,4c1.865-2.694,2.377-2.86,7-3c0,1,0,2,0,3c3.91,2.301,4.232,4.658,7,8
	c0.667,0,1.333,0,2,0c1.552,2.859-2.263,4.484-2,5c7.159,14.053,4.614,14.959,3,33c-3.524,1.823-3.367,5.208-7,7
	c-1.962-2.666-3.558-3.635-8-4c-0.98,0.798-2.744,1.446-4,2c0.574,4.101-0.342,4.754-4,7c1,2.273,0.745,2.774,3,4
	c1.153,0.822,1.24,0.47,4,1c0,1.333,0,2.667,0,4c-1.422,2.063-1.414,5.086,0,8c-2.333,0-4.667,0-7,0c-4.88,2.317-12.957-2.263-14-2
	c0,0.667,0,1.333,0,2c-0.24,0.121-3,1-3,1c-1.667-0.333-3.333-0.667-5-1c-1.333,1.667-2.667,3.333-4,5c-3.281,1.474-6.923-1.564-9-1
	c-2.188,0.594-4.05,5.199-6,6c-4.602,1.89-5.887-3.485-9,1c3.245,0.828,1.528-0.49,3,2c0.144,1.124-0.067,1.788-1,4
	c0.333,0,0.667,0,1,0c0.715-0.492,4.529-1.75,7,0c-3.146,2.28-5.44,2.75-6,8c-0.803,1.18-0.773,1.681-1,4c-2.333,0-4.667,0-7,0
	c-1.971,5.6-4.399,5.562-7,10c2.344,3.244,0.634,2.748,0,8c5.443,0.907,6.08,1.117,7,6c-5.638,1.413-14.896,6.469-18,13
	c-1.104-0.315-8.763-2.244-9-2c-1.387,0.739-3.4,3.404-5,1c-1.251,1.743-0.013,4.126-2,5c-2.228,0.98-2.061-3.791-7,0
	c-2.209,2.253-3.444,5.052-4,9c-4.614,0.135-5.579,1.087-9,2c-0.474,1.299-1.214,3.959-2,5c-2.977-2.301-7.275-0.318-12-1
	c-0.558-1.604-0.8-2.404-1-5c-10.906-0.13-30.791-2.467-31-14c0.531-1.058,0.548-13.949,0-15c-1.41-3.532-3.45-1.738-5-4
	c0.333-1.667,0.667-3.333,1-5c-1.333-0.333-2.667-0.667-4-1c0-1,0-2,0-3c-1.77-2.273-4.293-2.107-6-5
	c-6.656,1.519-12.992,2.893-18-1c-1.928-2.316-3.391-5.497-4-9c-7.643-1.606-7.518-4.257-18-3c-0.395-3.979-1.977-4.031,1-6
	c1.397-1.11,2.66,0.192,4-1c1.274-1.828,1.707-5.257,2-8c2.402,0.307,3.318,1.054,5-2c-1.28-2.043-0.686-2.833,0-5
	c1,0.333,2,0.667,3,1c0.772-3.965,1.657-2.997,3-6c-3.364-1.121-3.313-1.133-4-5c3.701-3.288,2.026-4.805,2-9
	c7.137-1.415,12.759-4.775,17-6c3.678-1.062,6.648,2.881,11,4c0.148,0.038,2.354-1.203,5-1c0.294,2.329,0.451,2.477,1,4
	c5.449-2.199,9.446-1.186,17-1c1.321-6.777,3.142-6.081,4-12c-2.395-1.169-3.544-1.903-5-4c1.333,0,2.667,0,4,0
	c6.279,4.864,25.456-1.263,28-7c-2.126-1.358-3.623-2.892-5-5c1.896-1.437,2.316-4.743,4-6c1.333,0,2.667,0,4,0
	c2.244-1.075,5.289-4.173,7-6c2.31,1.012,2.163,1.712,4,3c2.961-8.769,12.733-9.815,14-20c3,0.333,6,0.667,9,1
	c4.448-1.538,9.213-7.961,16-5c1,1.333,2,2.667,3,4c3,0,6,0,9,0c3.862,1.623,12.012,6.64,18,4c1.546-1.133,0.843-1.084,3-2
	c0-1,0-2,0-3c1,0,2,0,3,0c0.372-2.076,0.242-1.924,1-3C826.823,401.137,833.271,400.22,837,400z"/>
<path fill-rule="evenodd" clip-rule="evenodd" fill="#ED1F24" stroke="#000000" stroke-width="2" stroke-miterlimit="10" d="
	M888,449c4.333,0.333,8.667,0.667,13,1c1.901-3.556,2.088-7.653,3-9c3.935-2.848,9.615-1.576,13,0c-0.333,1-0.667,2-1,3
	c1.333,0.667,2.667,1.333,4,2c1.002,1.911-1.443,3.291-1,4c0.333,0,0.667,0,1,0c2.738,2.063,8.896,5.959,12,7
	c2.582-2.73,8.329-1.065,13-1c0.599,1.725,0.89,3.152,1,6c-1.768,1.12-5.864,3.105-7,5c5.009,4.475,2.482,8.365,8,12
	c-1.551,2.488-2.977,2.522-2,5c1.294,2.468-0.429,0.681,2,2c2.725,2.16,7.802,3.616,12,4c0,1.667,0,3.333,0,5c0.667,0,1.333,0,2,0
	c1.18,0.803,1.681,0.773,4,1c0,1.333,0,2.667,0,4c-1,0.333-2,0.667-3,1c-1.18,0.803-1.681,0.773-4,1c0,1.333,0,2.667,0,4
	c3.393,0.946,3.111,0.385,4,4c1,0,2,0,3,0c0,1.667,0,3.333,0,5c0.333,0,0.667,0,1,0c0,0.333,0,0.667,0,1c1,0,2,0,3,0
	c-0.778,6.545,0.53,8.518,1,15c1.667,0.333,3.333,0.667,5,1c0,1.333,0,2.667,0,4c-2.791,3.14-3.089,10.099-4,15c-1,0-2,0-3,0
	c-1.764-0.883-2.862-0.761-4,0c-1.667,1-3.333,2-5,3c2.586,3.076,4.591,6.239,6,12c-3.602,0.758-5.543,3.291-8,4
	c-2.801,0.809-5.92-1.165-10,1c2.403,4.586,5.737,5.965,8,11c-2.121,0.451-3.647,0.896-5,2c5.514,0.562,6.834,2.164,8,7
	c-3.75,1.36-4.817,3.081-5,7c-1.667,0-3.333,0-5,0c-0.737-3.366,0.614-2.874-2-4c0-0.333,0-0.667,0-1c-0.333,0-0.667,0-1,0
	c-0.397,4.541,0.203,4.759-3,7c-1.343,0.973-5.647,3.404-10,4c-0.015-3.811-0.354-5.985-2-8c-0.74-0.872-1.26-1.128-2-2
	c-9.108,2.625-12.487,0.349-23,0c0.525,2.666,0.83,2.322,0,5c-4.607-2.438-6.971-7.059-10-11c-2,0.667-4,1.333-6,2
	c-3.42-4.118-5.183-3.447-5-12c0.043-1.423,0.798-2.451-2-4c0,0-12.282-3-14-2c-0.803,1.18-0.773,1.681-1,4
	c-3.912,0.578-30.688-2.053-35-5c-3.644-3.952-2.474-8.496-10-9c-4.935,3.244-13.755-1.02-17-5c-1.446-1.774-0.314-5.568-2-7
	c-2.917-2.478-11.751-3.661-16-4c-0.333-2.333-0.667-4.667-1-7c3.393-0.946,3.111-0.385,4-4c-0.804-1.021-0.355-0.274-1-2
	c-4.419-0.484-5.2-0.729-6-5c2.519-2.526,1.487-2.723,0-6c3.58-0.417,2.516,0.472,4-2c1.083-1.301,0.578-4.505,3-6
	c4.593-2.835,6.432,4.042,7-4c0.648-0.86,1.337-3.145,2-4c1.732-1.724,2.783-1.499,4-4c0.333,0,0.667,0,1,0c0-0.333,0-0.667,0-1
	c-3.089-0.005-5.134-0.339-7-1c0-0.333,0-0.667,0-1c1.191-0.868,1.125-0.822,2-2c-2.873-1.12-1.842-0.174-3-3c0.667,0,1.333,0,2,0
	c1.064,0.778,3.692,1.489,5,2c3.778-10.389,7.188-3.234,13-5c2.637-0.801,3.938-4.641,6-6c11.641,0.159,18.169,0.163,29,0
	c0-0.667,0-1.333,0-2c-1.464-2.423-0.245-5.786,0-10c-4.125-1.376-5.479-0.551-6-6c2.05-1.099,3.841-1.822,5-4
	c-0.752-1.073-0.602-0.945-1-3c3.068-0.213,4.953-1.972,7-1c1.136,0.54,3.76,6.623,5,4c5.732-5.613,7.033-14.517,9-24
	c1.333,0,2.667,0,4,0c1.42,2.363,6.383-0.19,10,2C886.636,443.267,887.723,444.055,888,449z"/>
<path fill-rule="evenodd" clip-rule="evenodd" fill="#ED1F24" stroke="#000000" stroke-width="2" stroke-miterlimit="10" d="
	M1057,398c-0.333,1.667-0.667,3.333-1,5c1.667,0,3.333,0,5,0c0.946-3.393,0.385-3.111,4-4c1.021,0.804,0.274,0.355,2,1
	c2.347,7.534,2.369,9.542,13,9c2.228-3.594,3.03-1.167,6,0c0-0.667,0-1.333,0-2c0.752-1.073,0.602-0.945,1-3c2.333,0,4.667,0,7,0
	c1.393,2.754,4.27,7.541,7,9c0-1.667,0-3.333,0-5c6.611-1.083,9.28-1.936,15,2c1.23,0.847,2.361,3.539,4,4
	c3.498,0.985,17.051-0.775,21-1c1.589,4.061,2.712,6.566,7,8c1.566-1.952,2.927-2.522,7-3c0,0.333,0,0.667,0,1c0.333,0,0.667,0,1,0
	c-0.482,2.473-0.862,3.684-1,7c4.666,0.667,9.334,1.333,14,2c6.998-1.891,6.384-4.688,16-3c0,1,0,2,0,3
	c-3.196,4.792-2.053,13.196-2,20c2.65,0.832,2.325,2.146,4,3c2.741-0.255,7.866,0.211,11,1c-0.797,2.722-0.546,2.91,0,6
	c4.059,0.514,4.079,0.203,5,4c-3.127,4.729-3.547,21.865-5,29c5.938-0.478,10.23,0.159,10,9c-3.119,4.652-1.803,13.348-5,18
	c-2.202,1.29-4.406,0.198-6,1c-2.944,3.988-1.185,11.557-4,16c-1,0.333-2,0.667-3,1c-2.999,2.54-4.32,6.058-6,10
	c-4.377,0.333-5.786,1.571-9,3c0-1,0-2,0-3c2.566-3.813,0.898-10.52,1-17c-1.257-0.65-2.071-1.089-3-2
	c-7.288,1.107-17.811,0.875-23,3c-2.799,1.146-7.858-1.315-9-1c-2.532,0.7-4.133,2.738-9,3c0.104,11.95-0.424,25.134-11,25
	c0,2,0,4,0,6c-8.683-0.668-10.734-6.758-19-9c-1.317,3.361-1.541,2.898-6,3c0-1,0-2,0-3c-2.789-1.839-2.825-3.185-7-4
	c-1.475,3.431-1.623,5.127-6,6c0,1.333,0,2.667,0,4c-1.333,0-2.667,0-4,0c-1.287-2.542-1.097-2.873-4-4
	c-0.909,1.083,0.078,0.085-1,1c1.574,2.237,1.918,2.655,2,7c-4.537,2.158-6.988,3.245-13,2c0,1.667,0,3.333,0,5
	c-8.368,0.14-24.35-6.631-25-14c-1.207-2.111-0.482-2.231,0-5c-4.171-0.586-4.606-1.881-8-3c-1.456,2.542,0.217,1.128-3,2
	c-0.333-1-0.667-2-1-3c-3.329,1.697-8.315,3.541-10,7c-1.521,1.895-1.789,3.589-2,7c-11.187,0.192-14.906,1.452-26,2
	c-2.53-5.729-5.856-10.039-9-15c-3.435,1.554-3.94,1.702-8,1c0-3,0-6,0-9c1.691-2.364,2.806-6.455,4-9c-2,0-4,0-6,0
	c-0.542-5.712-2.984-9.144-1-15c-1.333,0-2.667,0-4,0c0-1.667,0-3.333,0-5c-3.614-2.509-6.726-4.877-7-11c1.667,0,3.333,0,5,0
	c0.961-1.766,1.257-1.68,2-4c-6.39-0.055-6.341-1.55-6-8c1.088-1.628,1.593-5.859,2-8c5.296-0.063,9.537-1.951,15-3c0-1,0-2,0-3
	c-0.667,0-1.333,0-2,0c-1.628-1.088-5.859-1.593-8-2c0-1.333,0-2.667,0-4c2.375-3.376,0.708-1.455,0-6c1.857-1.51,1.715-2.775,4-4
	c3.012-1.835,4.91,1.151,8,0c0-0.667,0-1.333,0-2c4.666-0.333,9.334-0.667,14-1c0-2,0-4,0-6c2,0,4,0,6,0
	c0.298-8.956,5.155-13.174,8-20c2.667-1,5.333-2,8-3c0-1,0-2,0-3c5.887,0.587,5.793,1.347,12,1c0.446-3.247,1.743-5.679,1-7
	c-0.333-0.667-0.667-1.333-1-2c-1.516,0.536-1.693,0.675-4,1c0-1.333,0-2.667,0-4c2.744-1.939,2.02-2.677,7-3
	c3.212-2.063,8.549-1.24,12-3C1046.883,403.49,1045.244,398.199,1057,398z"/>
<path fill-rule="evenodd" clip-rule="evenodd" fill="#ED1F24" stroke="#000000" stroke-width="2" stroke-miterlimit="10" d="
	M738,646c2,0.333,4,0.667,6,1c0.415,6.75,3.737,11.13,2,17c5.507,0.377,4.25-0.561,8-2c5,0,10,0,15,0c0.973-0.393,3.027-3.611,4-4
	c3.333,0.333,6.667,0.667,10,1c4.753-1.39,8.183-3.882,16-4c0.466,3.301,4.156,10.663,6,13c3.045,2.501,7.705,2.556,12,4
	c0,1,0,2,0,3c11.46,0.057,13.727,6.507,23,9c4.666,0.333,9.334,0.667,14,1c3.681,2.085,2.339,5.681,8,7c0,1,0,2,0,3
	c2.712,1.194,3.904,3.239,6,5c1.021-0.804,0.274-0.355,2-1c1.915-5.236,2.452-8.027,10-8c1.625,2.493,3.967,4.885,7,6
	c0.104-5.43,1.288-7.174,6-8c1.358,1.262,1.768,1.365,4,2c0.457,8.121,3.781,8.079,8,12c17.876,0.092,41.651-11.029,39,18
	c2.071,0.44,7.875,1.86,8,2c0.333,0,0.667,0,1,0c-0.639,2.962-0.595,3.69-3,5c-5.203,4.043-4.999-1.725-11-1
	c-6.052,0.731-11.603,2.333-16,4c0.631,1.754,0.193,0.971,1,2c1.456,2.542-0.217,1.128,3,2c1.444,5.817,15.244,29.93,6,34
	c-7.861-6.359-14.785-6.472-22-15c-11.553,0.255-10.193,5.113-20,7c-10.329-7.442-30.861,0.813-45,4c-0.941,6.866-7.136,11.24-13,13
	c-11.226-8.534-24.608,15.487-31,10c-3.945-1.013-5.401-3.92-8-5c-2,0.667-4,1.333-6,2c-1.479-0.823-3.714-4.285-5-5
	c-5.536-3.081-6.852,4.784-10,2c-4.318-1.602-3.67-4.016-9-5c-1.796,2.589-3.05,2.26-4,6c2.315,1.615,2.352,1.461,3,5
	c-0.804,1.021-0.355,0.274-1,2c-9.081,0.57-6.838,6.297-14,8c-3.608-3.185-14.902,2.481-21,3c-1-2.333-2-4.667-3-7
	c-2.667-0.333-5.333-0.667-8-1c0,0.333,0,0.667,0,1c-0.333,0-0.667,0-1,0c-1.011,13.719,5.162,22.095,6,37
	c-2.329,0.294-2.477,0.451-4,1c-1-3-2-6-3-9c-7.032,0.121-15.909,2.453-26,3c-1.475-3.431-1.623-5.127-6-6
	c-3.835,1.635-14.478-1.738-21-2c-4.063-17.149-15.385-33.414-19-50c0-0.333,0-0.667,0-1c-0.258-3.262,3.046-3.826,2-8
	c-0.506-2.019-4.879-5.806-3-10c0.432-0.965,3.217,0.321,3-2c-3-7.666-6-15.334-9-23c0.667,0,1.333,0,2,0
	c6.299-4.604,16.057-3.404,22-6c-1.667-5-3.333-10-5-15c2.333-1.667,4.667-3.333,7-5c0-0.333,0-0.667,0-1
	c-2.994-0.255-5.202-0.448-6-1c-0.872-0.74-1.128-1.259-2-2c1.83-2.716,3.467-5.636,5-9c4.491-0.597,5.232-3.235,8-4
	c3.099-0.856,9.292,1.93,14,2c0.853-3.279,2.005-3.948,3-7c-2.315-1.615-2.352-1.461-3-5c2.355-1.135,4.557-2.8,6-2
	c2.091,1.122,1.832,1.435,5,2c1.021-0.804,0.274-0.355,2-1c0.595-3.719,1.331-3.299,2-7c1,0,2,0,3,0c1.386-2.529,4.552-7.796,7-9
	l19-4c0.333,0,0.667,0,1,0c2.32,1.201-0.769,2.154,5,3c0-1.667,0-3.333,0-5c0.667,0,1.333,0,2,0c1.073-0.751,0.946-0.601,3-1
	c1.103,2.356,0.958,1.78,3,3C738,648.667,738,647.333,738,646z"/>
<path fill-rule="evenodd" clip-rule="evenodd" fill="#ED1F24" stroke="#000000" stroke-width="2" stroke-miterlimit="10" d="
	M787,546c17.687-0.311,17.141,16.125,34,17c1.417-0.961,3.273-0.977,6-1c1.273,2.368,2.931,6.275,5,8c3.026,2.361,28.485,6.578,34,6
	c0.333-1.667,0.667-3.333,1-5c1,0,2,0,3,0c4.462,3.013,10.494,2.362,15,3c0,1.667,0,3.333,0,5c-1.049,1.549-1.031,4.085-1,7
	c1,0.333,2,0.667,3,1c3.276,2.907,4.21,1.179,8,0c1.857,2.647,7.123,7.106,8,10c0.464,1.531-1.762,6.827-2,8
	c-0.251,1.239,2.85,3.047,3,4c0.372,2.366-2.563,4.203-3,6c-0.187,0.766,2.677,5.587,3,8c-1.223,1.123-5.301,3.683-6,5
	c-1.742,3.28,2.39,1.652-1,4c-1.894,1.723-4.273,1.177-5,2c-0.804,1.021-0.355,0.274-1,2c5.696-0.129,9.419,0.983,11,5
	c1.396,2.62,0.226,2.617-1,5c3.762,0.192,5.4,0.917,8,2c-0.77,3.097-1.997,3.84-1,6c1.064,0.778,3.692,1.489,5,2
	c0.262,4.371,2.378,2.852,3,9c-1.231,1.341-1.825,3.583-3,5c-2.787,2.282-5.188,0.846-9,2c0,1,0,2,0,3c-2.328,0.195-2.826,0.193-4,1
	c-2.952,0.866-3.787,1.364-5,4c-1.604,2.906-0.446,7.374-1,11c-4.271-0.496-6.109-0.26-7,5c0.804,1.021,0.355,0.274,1,2
	c-1.333,0-2.667,0-4,0c-1.448-4.103-4.461-5.861-10-6c-1.479,3.604-2.07,6.581-6,8c0,0.333,0,0.667,0,1c-1.01,0.99-0.988-0.985-1-1
	c-5.455-2.87-9.927-11.512-14-14c-4.033-2.463-10.959-0.261-14-1c-5.676-1.38-9.138-5.467-13-8c-3-0.333-6-0.667-9-1
	c-0.667-1.333-1.333-2.667-2-4c-4.279-2.224-7.101,0.224-11-3c-3.8-5.829-2.242-12.789-12-13c-2.277,1.595-9.759,4.472-13,4
	c-0.516-0.075-3.913-1.951-6-1c-4.34,1.977-10.095,6.037-15,3c-4.935,1.094-6.22,5.335-11,2c-3.263-4.839-2.675-11.883-5-16
	c-1.073-0.751-0.946-0.601-3-1c-1,2.273-0.745,2.774-3,4c-2.509-2.74-1.449-1.953-5-2c-0.513,4.059-0.203,4.079-4,5
	c-1.804-1.992-5.227-3.944-7-3c-2.515,2.269-11.858,6.376-16,4c-1.8-1.231-2.48-2.592-4-4c-1.737,1.322-1.607,1.728-3,1
	c-0.804-1.021-0.355-0.274-1-2c0.798-0.98,1.446-2.744,2-4c1,0.333,2,0.667,3,1c-0.333-1-0.667-2-1-3c3.671-0.634,8.592-4.041,10-7
	c-2.873-1.12-1.842-0.174-3-3c2.745-2.34,1.808-4.372,1-8c0.333,0,0.667,0,1,0c1.777,2.387,1.88,0.522,3,2
	c0.872-0.74,1.128-1.259,2-2c-0.667-2-1.333-4-2-6c0.69-0.777,2.038-0.415,2-2c0-0.667,0-1.333,0-2c-0.667,0-1.333,0-2,0
	c-2.31,0.961-5.726-0.94-8-3c0,0.667,0,1.333,0,2c-0.667,0-1.333,0-2,0c-0.434-3.933-1.537-5.425-3-8c0.333,0,0.667,0,1,0
	c0-0.333,0-0.667,0-1c5.906,1.921,5.351-2.007,6-6c2.281,1.225,2.251,1.638,6,2c0-1.333,0-2.667,0-4c0.333,0,0.667,0,1,0
	c2.738,3.188,8.236,3.723,10,2c0.877-1.295,0.894-2.467,1-5c2.333,0,4.667,0,7,0c1.03-2.801,1.518-2.098,2-6
	c-3.634-1.083-6.756-3.407-8-7c0.823-1.615,0.915-6.924,1-11c1.604-0.558,2.404-0.8,5-1c1.124-0.144,1.788,0.067,4,1
	c0.33-4.164-0.185-3.676,3-5c1.919-1.772,3.136-1.896,7-2c0.566-4.463,2.346-6.654,4-10c1.667-0.333,3.333-0.667,5-1
	c0,0.333,0,0.667,0,1c-1.394,1.274-4.288,4.124-3,5c0,0.333,0,0.667,0,1c1.516-0.536,1.693-0.675,4-1c0.466-3.825,1.956-6.7,4-9
	c0.441,0.152,13,0,13,0c3.727-3.612,12.481-8.261,14-10C786.961,541.417,786.977,543.273,787,546z"/>
<path fill-rule="evenodd" clip-rule="evenodd" fill="#ED1F24" stroke="#000000" stroke-width="2" stroke-miterlimit="10" d="
	M888,449c4.333,0.333,8.667,0.667,13,1c1.901-3.556,2.088-7.653,3-9c3.935-2.848,9.615-1.576,13,0c-0.333,1-0.667,2-1,3
	c1.333,0.667,2.667,1.333,4,2c1.002,1.911-1.443,3.291-1,4c0.333,0,0.667,0,1,0c2.738,2.063,8.896,5.959,12,7
	c2.582-2.73,8.329-1.065,13-1c0.599,1.725,0.89,3.152,1,6c-1.768,1.12-5.864,3.105-7,5c5.009,4.475,2.482,8.365,8,12
	c-1.551,2.488-2.977,2.522-2,5c1.294,2.468-0.429,0.681,2,2c2.725,2.16,7.802,3.616,12,4c0,1.667,0,3.333,0,5c0.667,0,1.333,0,2,0
	c1.18,0.803,1.681,0.773,4,1c0,1.333,0,2.667,0,4c-1,0.333-2,0.667-3,1c-1.18,0.803-1.681,0.773-4,1c0,1.333,0,2.667,0,4
	c3.393,0.946,3.111,0.385,4,4c1,0,2,0,3,0c0,1.667,0,3.333,0,5c0.333,0,0.667,0,1,0c0,0.333,0,0.667,0,1c1,0,2,0,3,0
	c-0.778,6.545,0.53,8.518,1,15c1.667,0.333,3.333,0.667,5,1c0,1.333,0,2.667,0,4c-2.791,3.14-3.089,10.099-4,15c-1,0-2,0-3,0
	c-1.764-0.883-2.862-0.761-4,0c-1.667,1-3.333,2-5,3c2.586,3.076,4.591,6.239,6,12c-3.602,0.758-5.543,3.291-8,4
	c-2.801,0.809-5.92-1.165-10,1c2.403,4.586,5.737,5.965,8,11c-2.121,0.451-3.647,0.896-5,2c5.514,0.562,6.834,2.164,8,7
	c-3.75,1.36-4.817,3.081-5,7c-1.667,0-3.333,0-5,0c-0.737-3.366,0.614-2.874-2-4c0-0.333,0-0.667,0-1c-0.333,0-0.667,0-1,0
	c-0.397,4.541,0.203,4.759-3,7c-1.343,0.973-5.647,3.404-10,4c-0.015-3.811-0.354-5.985-2-8c-0.74-0.872-1.26-1.128-2-2
	c-9.108,2.625-12.487,0.349-23,0c0.525,2.666,0.83,2.322,0,5c-4.607-2.438-6.971-7.059-10-11c-2,0.667-4,1.333-6,2
	c-3.42-4.118-5.183-3.447-5-12c0.043-1.423,0.798-2.451-2-4c0,0-12.282-3-14-2c-0.803,1.18-0.773,1.681-1,4
	c-3.912,0.578-30.688-2.053-35-5c-3.644-3.952-2.474-8.496-10-9c-4.935,3.244-13.755-1.02-17-5c-1.446-1.774-0.314-5.568-2-7
	c-2.917-2.478-11.751-3.661-16-4c-0.333-2.333-0.667-4.667-1-7c3.393-0.946,3.111-0.385,4-4c-0.804-1.021-0.355-0.274-1-2
	c-4.419-0.484-5.2-0.729-6-5c2.519-2.526,1.487-2.723,0-6c3.58-0.417,2.516,0.472,4-2c1.083-1.301,0.578-4.505,3-6
	c4.593-2.835,6.432,4.042,7-4c0.648-0.86,1.337-3.145,2-4c1.732-1.724,2.783-1.499,4-4c0.333,0,0.667,0,1,0c0-0.333,0-0.667,0-1
	c-3.089-0.005-5.134-0.339-7-1c0-0.333,0-0.667,0-1c1.191-0.868,1.125-0.822,2-2c-2.873-1.12-1.842-0.174-3-3c0.667,0,1.333,0,2,0
	c1.064,0.778,3.692,1.489,5,2c3.778-10.389,7.188-3.234,13-5c2.637-0.801,3.938-4.641,6-6c11.641,0.159,18.169,0.163,29,0
	c0-0.667,0-1.333,0-2c-1.464-2.423-0.245-5.786,0-10c-4.125-1.376-5.479-0.551-6-6c2.05-1.099,3.841-1.822,5-4
	c-0.752-1.073-0.602-0.945-1-3c3.068-0.213,4.953-1.972,7-1c1.136,0.54,3.76,6.623,5,4c5.732-5.613,7.033-14.517,9-24
	c1.333,0,2.667,0,4,0c1.42,2.363,6.383-0.19,10,2C886.636,443.267,887.723,444.055,888,449z"/>
<path fill-rule="evenodd" clip-rule="evenodd" fill="#ED1F24" stroke="#000000" stroke-width="2" stroke-miterlimit="10" d="
	M1057,398c-0.333,1.667-0.667,3.333-1,5c1.667,0,3.333,0,5,0c0.946-3.393,0.385-3.111,4-4c1.021,0.804,0.274,0.355,2,1
	c2.347,7.534,2.369,9.542,13,9c2.228-3.594,3.03-1.167,6,0c0-0.667,0-1.333,0-2c0.752-1.073,0.602-0.945,1-3c2.333,0,4.667,0,7,0
	c1.393,2.754,4.27,7.541,7,9c0-1.667,0-3.333,0-5c6.611-1.083,9.28-1.936,15,2c1.23,0.847,2.361,3.539,4,4
	c3.498,0.985,17.051-0.775,21-1c1.589,4.061,2.712,6.566,7,8c1.566-1.952,2.927-2.522,7-3c0,0.333,0,0.667,0,1c0.333,0,0.667,0,1,0
	c-0.482,2.473-0.862,3.684-1,7c4.666,0.667,9.334,1.333,14,2c6.998-1.891,6.384-4.688,16-3c0,1,0,2,0,3
	c-3.196,4.792-2.053,13.196-2,20c2.65,0.832,2.325,2.146,4,3c2.741-0.255,7.866,0.211,11,1c-0.797,2.722-0.546,2.91,0,6
	c4.059,0.514,4.079,0.203,5,4c-3.127,4.729-3.547,21.865-5,29c5.938-0.478,10.23,0.159,10,9c-3.119,4.652-1.803,13.348-5,18
	c-2.202,1.29-4.406,0.198-6,1c-2.944,3.988-1.185,11.557-4,16c-1,0.333-2,0.667-3,1c-2.999,2.54-4.32,6.058-6,10
	c-4.377,0.333-5.786,1.571-9,3c0-1,0-2,0-3c2.566-3.813,0.898-10.52,1-17c-1.257-0.65-2.071-1.089-3-2
	c-7.288,1.107-17.811,0.875-23,3c-2.799,1.146-7.858-1.315-9-1c-2.532,0.7-4.133,2.738-9,3c0.104,11.95-0.424,25.134-11,25
	c0,2,0,4,0,6c-8.683-0.668-10.734-6.758-19-9c-1.317,3.361-1.541,2.898-6,3c0-1,0-2,0-3c-2.789-1.839-2.825-3.185-7-4
	c-1.475,3.431-1.623,5.127-6,6c0,1.333,0,2.667,0,4c-1.333,0-2.667,0-4,0c-1.287-2.542-1.097-2.873-4-4
	c-0.909,1.083,0.078,0.085-1,1c1.574,2.237,1.918,2.655,2,7c-4.537,2.158-6.988,3.245-13,2c0,1.667,0,3.333,0,5
	c-8.368,0.14-24.35-6.631-25-14c-1.207-2.111-0.482-2.231,0-5c-4.171-0.586-4.606-1.881-8-3c-1.456,2.542,0.217,1.128-3,2
	c-0.333-1-0.667-2-1-3c-3.329,1.697-8.315,3.541-10,7c-1.521,1.895-1.789,3.589-2,7c-11.187,0.192-14.906,1.452-26,2
	c-2.53-5.729-5.856-10.039-9-15c-3.435,1.554-3.94,1.702-8,1c0-3,0-6,0-9c1.691-2.364,2.806-6.455,4-9c-2,0-4,0-6,0
	c-0.542-5.712-2.984-9.144-1-15c-1.333,0-2.667,0-4,0c0-1.667,0-3.333,0-5c-3.614-2.509-6.726-4.877-7-11c1.667,0,3.333,0,5,0
	c0.961-1.766,1.257-1.68,2-4c-6.39-0.055-6.341-1.55-6-8c1.088-1.628,1.593-5.859,2-8c5.296-0.063,9.537-1.951,15-3c0-1,0-2,0-3
	c-0.667,0-1.333,0-2,0c-1.628-1.088-5.859-1.593-8-2c0-1.333,0-2.667,0-4c2.375-3.376,0.708-1.455,0-6c1.857-1.51,1.715-2.775,4-4
	c3.012-1.835,4.91,1.151,8,0c0-0.667,0-1.333,0-2c4.666-0.333,9.334-0.667,14-1c0-2,0-4,0-6c2,0,4,0,6,0
	c0.298-8.956,5.155-13.174,8-20c2.667-1,5.333-2,8-3c0-1,0-2,0-3c5.887,0.587,5.793,1.347,12,1c0.446-3.247,1.743-5.679,1-7
	c-0.333-0.667-0.667-1.333-1-2c-1.516,0.536-1.693,0.675-4,1c0-1.333,0-2.667,0-4c2.744-1.939,2.02-2.677,7-3
	c3.212-2.063,8.549-1.24,12-3C1046.883,403.49,1045.244,398.199,1057,398z"/>
<path fill-rule="evenodd" clip-rule="evenodd" fill="#ED1F24" stroke="#000000" stroke-width="2" stroke-miterlimit="10" d="
	M1190,568c3,0,6,0,9,0c3.122,4.513,9.174,7.527,12,12c1.759,2.785,0.436,7.079,3,9c1.667,0.333,3.333,0.667,5,1
	c2.602,1.609,4.424,6.156,7,8c3.996,2.861,8.735,3.195,13,6c9.252,6.085,16.964,16.442,25,24c-0.308,11.343-6.333,21.004-10,29
	c-2.699,5.887-1.188,14.079-5,19c-1.333,0.333-2.667,0.667-4,1c-1,5-2,10-3,15c-4.148,11.512-10.691,30.37-13,42
	c-7.448,0.159-8.428,2.585-15,0c-1.043-3.887,1.006-5.192-3-7c-1.417-0.961-3.273-0.977-6-1c0,2.333,0,4.667,0,7
	c-1.761-0.171-16.301-2.966-18-4c-1.333-1.667-2.667-3.333-4-5c-3.333,0.333-6.667,0.667-10,1c-2.062-0.734-5.996-4.326-8-5
	c-2.869-0.966-16.461-1.751-19-2c-1.586,6.967-6.361,6.516-15,6c-3.414,2.511-6.304,1.422-11,1c-0.599-1.725-0.891-3.152-1-6
	c1.142-1.69,1.066-4.896,1-8c-1.716-0.982-3.251-3.367-5-4c-8.933-3.233-23.778,1.922-25-9c3.205-4.492,2.502-13.45,6-18
	c2.085-1.43,3.563-0.627,5-3c0.752-1.073,0.602-0.946,1-3c-4.856-2.235-8.03-6.532-12-9c-7.319-4.55-18.396,0.713-19-11
	c0.804-1.021,0.355-0.274,1-2c-10.615-0.783-22.073-7.526-25-16c-3.31-9.581-4.362-16.423,8-16c-0.612-5.348-3.025-6.915-4-12
	c2.091-1.122,1.832-1.435,5-2c-1.139-4.529-2.19-1.99-3-4c0.333-2,0.667-4,1-6c-3.078-10.669-2.274-15.095,0-26
	c1.604-0.558,2.404-0.8,5-1c1.073,0.752,0.945,0.602,3,1c0-1.667,0-3.333,0-5c3,0.333,6,0.667,9,1c1.738-3.191,2.976-1.566,4-6
	c-1.829-1.568-1.396-0.882-2-4c1.725-0.599,3.152-0.89,6-1c0,1,0,2,0,3c1,0.333,2,0.667,3,1c-0.536-1.516-0.675-1.693-1-4
	c1.333,0,2.667,0,4,0c1.899-4.484,2.261-6.035,9-6c1.333,2.54,2.713,4.204,4,7c2.336-0.894,1.829-2.392,3-3
	c5.795-3.006,14.307,7.047,18,8c0-0.667,0-1.333,0-2c0.752-1.073,0.602-0.945,1-3c2,0,4,0,6,0c0-1.667,0-3.333,0-5
	c2.076-0.372,1.924-0.242,3-1c2.066-3.151,1.13-12.069,1-17c0.752-1.073,0.602-0.945,1-3c5.333,0.362,5.247-0.867,9-2
	c3,0.333,6,0.667,9,1c0.333-1,0.667-2,1-3c1.696-0.619,22.667,0.152,27,1c0,2.667,0,5.333,0,8c-0.583,1.307,0.051,15.56,1,18
	c3.636,1.438,10.125,2.602,12,6C1190.24,559.628,1190.083,564.56,1190,568z"/>
<path fill-rule="evenodd" clip-rule="evenodd" fill="#ED1F24" stroke="#000000" stroke-width="2" stroke-miterlimit="10" d="
	M1090,702c-16.161-0.354-29.49-0.432-44-1c-1.387,2.877-1.727,3.845-5,5c-1.832-1.494-16.514-3.998-21-5
	c-1.823-3.623-1.601-9.411-5-11c-5.035-3.946-19.456-2.639-24-3c0.007,3.465-1.033,4.235-1,11c-4.517,0.225-4.532-0.055-9-1
	c-2.48-4.328-4.51-9.386-11-10c0-0.333,0-0.667,0-1c-0.333,0-0.667,0-1,0c-0.288,0.012-3.529,2.612-4,3
	c-2.731-1.381-2.322-2.956-5-2c-0.667,0-1.333,0-2,0c0.574,2.474,0.852,3.673-1,6c-1.18,0.803-1.681,0.773-4,1
	c-9.184-6.675-18.721,7.885-26,10c-3-0.333-6-0.667-9-1c-8.504,0.994-15.401,3.985-21-4c-4.416-6.061-4.521-14.584-3-22c3-1,6-2,9-3
	c0.98-0.927-0.318-3.271,1-4c1.986-1.099,7.557-0.498,9-1c0.454-3.484,1.207-3.999,2-7c-2.862-1.675-3.488-1.642-4-6
	c-1.333,0-2.667,0-4,0c-0.558-1.604-0.8-2.404-1-5c0.751-1.073,0.601-0.946,1-3c-2.333-0.333-4.667-0.667-7-1
	c0.725-3.818,1.139-2.836,3-5c-4.72-2.137-5.551-4.764-13-5c0-1.333,0-2.667,0-4c1.39-0.467,4.848-1.177,6-2
	c1.601-2.065,5.166-6.901,6-9c0.58-2.053-1.46-2.953-2-5c-0.728-2.761,1.795-4.533,2-6c0.44-3.154-1.698-2.772-2-4
	c0.333-3,0.667-6,1-9c3.042,0.075,2.744,0.756,4,0c2.171-2.569-1.062-3.978,7-4c2.417,3.195,12.642-0.272,16,1c1,0.333,2,0.667,3,1
	c0.333,2.667,0.667,5.333,1,8c5.56-0.712,7.55-3.033,11-4c1.38-2.74,0.776-4.351,3-7c1.021,0.804,0.274,0.355,2,1
	c-0.15,2.039-0.728,2.726,1,5c1.982-1.118,1.808-0.596,4,0c0.273-6.87,2.81-4.371,5-10c-1.86-1.783-4.41-4.013-6-6
	c1.257-0.65,2.071-1.089,3-2c-2.771-3.247-4.818-6.209-8-9c0-0.333,0-0.667,0-1c0.333,0,0.667,0,1,0c4.552-4.937,15.135,0.615,17-7
	c-3.27-3.497-3.88-6.958-5-11c2.684-0.891,2.589-1.028,4-3c2.461,0.514,3.935,0.658,7,2c0.828-3.245-0.49-1.528,2-3
	c2.022,0.967,3.932-0.241,7-1c3.101,5.758,6.733,11.394,11,16c6.69-4.305,15.129-0.187,21-3c1.651-2.107,2.371-5.932,3-9
	c4.547-1.132,6.834-3.609,11-5c2.714,3.142,9.786-0.132,13,6c-1.578,2.326-0.927,5.843,1,7c4.558,5.922,12.235,3.442,15,11
	c-8.719,9.794,1.458,29.467,1,34c-0.612,1.879-2.437,2.391-5,4c2.391,4.125,3.822,5.108,5,10c-0.804,1.021-0.355,0.274-1,2
	c-1,0-2,0-3,0c-1.296-0.555-3.024-0.525-5,0c-0.997,2.229-1.526,2.847-2,6c2.148,2.523,0.635,4.002,2,8
	c1.184,3.467,5.381,8.641,8,11c5.023,4.524,13.853,2.806,17,6c0.333,0,0.667,0,1,0c-0.836,2.9-1.391,2.574-2,6
	c4.948,2.895,16.349,4.335,20,7c3.794,2.769,8.234,6.919,12,10c-0.631,1.754-0.193,0.971-1,2c-1.83,2.998-3.521,2.764-7,4
	C1094.145,689.609,1091.099,694.485,1090,702z"/>
<path fill-rule="evenodd" clip-rule="evenodd" fill="#ED1F24" stroke="#000000" stroke-width="2" stroke-miterlimit="10" d="
	M934,767c0.372,2.076,0.242,1.924,1,3c3.113,2.054,9.488,1.277,12,4c2.44,3.241,1.626,4.432,1,8c-4.595,0.999-5.294,2.464-8,5
	c0.923,3.287,1.859,4.819,5,6c3.422,2.391,8.883,3.774,14,4c2.244-3.786,4.238-6.51,10-7c2.048,4.729,5.142,2.582,6,9
	c-1.572,1.889-1.889,2.065-1,4c1.162,1.312,2.69,2.834,4,4c-0.631,1.754-0.193,0.971-1,2c-1.295,0.877-2.467,0.895-5,1
	c-1.568-1.829-0.882-1.396-4-2c0,0.333,0,0.667,0,1c-0.333,0-0.667,0-1,0c0.281,3.089,0.08,4.257,0,9c3.379,1.409,5.976,1.903,7,6
	c-0.803,1.18-0.773,1.681-1,4c2.79,1.288,4.195,5.374,7,6c0.893,0.199,2.917-2.163,5-1c6.307,3.52-0.969,6.808,12,7
	c1.796,2.589,3.05,2.259,4,6c-0.333,0-0.667,0-1,0c0,0.333,0,0.667,0,1c-1.787-0.61-5.048-2.026-7-1c-0.872,0.74-1.128,1.259-2,2
	c1.577,2.967,3.074,3.334,4,7c-3.546,1.67-4.576,1.939-5,7c1.551,1.896,5.23,6.063,6,8c0.335,0.844-2.962,3.701-2,7
	c0.805,2.758,6.657,17.624,5,19c5.395,3.928,9.007,3.403,10,12c-13.874,9.581-11.629,40.969-14,60c-0.333,0-0.667,0-1,0
	c-1.396-2.006-1.346-2.066-4-3c-3.527,4.597-11.125,5.529-17,5c0-1.333,0-2.667,0-4c-11.367-0.374-12.376-5.886-17-13c0,1,0,2,0,3
	c-10.348-0.446-15.799-1.885-23-5c0.043-4.405-0.122-6.441-3-8c-1.808,2.104-2.919,2.002-7,2c0,2.333,0,4.667,0,7
	c-4.33,2.75-7.767,5.916-14,7c0-1.667,0-3.333,0-5c-4.153-2.215-3.85-5.512-7-8c-6.131-4.842-15.09-5.041-19-12
	c-2.111-3.757,0.276-8.783-2-13c-1.606-2.977-8.412-3.795-10-7c-2.048-4.132,2.56-3.916-2-7c-1.516,0.74-5.575,0.178-8-1
	c-5.076,2.662-11.214,6.252-18,8c-6.285,1.619-10.504,0.194-16,2c-7.329,2.408-10.63,8.507-18,10c-1.454-4.898-4.514-6.386-7-10
	c-3.174,0.911-7.299,1.974-14,2c-2.204-6.613-4.977-14.249-13-15c-9.728-6.391-25.876,6.705-33,8c-9.235-21.173-28.851-54.282-26-80
	c2.962-0.639,3.69-0.595,5-3c-4.66-7.153-6.677-25.5-6-35c1.604-0.558,2.404-0.8,5-1c1.295,0.877,2.467,0.895,5,1
	c1.649,4.67,1.465,6.806,8,7c0.664-0.459,9-5,9-5c4.095-1.445,6.307,2.136,9,1c1.794-1.397,0.548-2.35,2-4
	c2.247-2.553,7.113-1.98,9-5c0.587-0.544-1.764-3.954-2-8c3.647-1.218,3.198-2.45,8-3c1.875,3.14,3.294,5.423,8,6
	c4.692-8.041,23.106,7.083,29,5c9.107-1.353,7.304-4.764,12-9c3.064-2.765,13.856-2.653,18-1c5.673-2.834,8.036-10.059,13-13
	c3.839-2.513,30.957-8.839,37-7c1.304,0.396,6.273,3.736,9,3c4.079-1.101,5.957-5.938,11-7c0.599,0.257,5.092-0.211,7,1
	C919.168,757.394,922.993,764.899,934,767z"/>
<path fill-rule="evenodd" clip-rule="evenodd" fill="#ED1F24" stroke="#000000" stroke-width="2" stroke-miterlimit="10" d="
	M990,698c-0.09-3.222-0.406-6.328,0-7c0.831-1.393,2.085-4.557,3-3c6.328-2.008,15.309-0.13,24,2c0.698,2.537-0.884,4.224,0,7
	c2.423,7.612,19.551,7.557,26,9c1.952-3.548,2.353-4.803,8-5c3.01,1.611,14.52-0.75,22,0c14.835,1.488,29.587,2.848,46,6
	c1.749,3.261,2.107,7.256,2,13c-1.243,1.567-0.642,0.51,0,2c1.568,1.829,0.882,1.396,4,2c1.87,0.675,12.025-0.895,18-1
	c0-0.667,0-1.333,0-2c1.495-1.624,1.552-2.023,2-5c3.839,0.425,6.518,2.254,9,3c4.333,0,8.667,0,13,0c2.181,0.74,5.536,4.391,8,5
	c4.579,1.133,3.985-2.992,8-2c3.138,0.775,4.941,5.896,8,7c3,0,6,0,9,0c0.833,0.339,2.712,2.361,4,3c0-2.333,0-4.667,0-7
	c3,0,6,0,9,0c0.981,2.076,1.911,6.708,4,8c4.139,2.016,4.151-2.308,9-1c4.489,1.211,6.373,6.853,10,9c12.129,7.18,22.37-2.237,22,21
	c4.964,3.814-0.181,19.194-4,24c-2.379,2.09-8.315,2.338-12,3c-1,2.333-2,4.667-3,7c-3.861,0.23-10.942-0.886-14,0
	c-1.622,0.47-4.383,3.49-6,4c-8.708,2.747-19.176-2.128-25-3c-3.182-0.476-5.268,1.396-8,2c-2.448,5.738-3.947,15.598-9,19
	c-5.276,3.515-16.125,3.534-17,11c2.875,2.729,4.61,7.93,8,10c3.659,2.235,4.208-0.262,6,4c2.656,5.056-3.949,11.509-3,18
	c2.289,15.654-5.252,29.053-10,41c-1.941,4.886-1.308,10.009-4,14c-4.341,6.435-14.188,7.678-18,15c-4.133,7.936-4.768,16.639-8,25
	c-6.616,2.532-14.006,2.882-21,6c-2.629,1.172-4.305,5.021-7,6c-10.117,3.675-18.922-6.308-26-3c-8.691,8.494-4.505,22.855-11,32
	c-1.784-2.387-2.446-4.099-6-5c-4.982,3.187-19.189,4.131-25,4c-4.925-6.452-11.931-5.889-13-17c-3.407-0.247-4.235-1.508-6-2
	c-7.725-2.151-9.128,3.095-17,0c-2.007-3.995-3.049-6.167-3-13c-2.045-5.469,1.473-34.574,2-36c0-0.667,0-1.333,0-2
	c0.85-1.253,4.262-2.357,5-4c-0.333-1-0.667-2-1-3c2.146-4.995,6.364-8.926,7-15c-2.812-3.235-9.418-8.741-11-12
	c-0.518-1.066-4-20-4-20c0.231-1.027,2.519-0.42,2-3c-0.359-1.789-5.059-4.355-6-11c2.907-1.62,4.194-1.96,5-6
	c-2.524-1.752-2.639-1.838-3-6c0.333,0,0.667,0,1,0c0-0.333,0-0.667,0-1c3.902,0.965,5.063,2.338,7,1c0.751-1.073,0.601-0.946,1-3
	c-1.172-0.664-2.129-2.601-3-3c-3-0.333-6-0.667-9-1c-1.753-1.035-1.543-4.98-3-6c-2.333,0-4.667,0-7,0
	c-2.532-1.249-5.336-5.563-6-9c0.751-1.073,0.601-0.946,1-3c-4.501-1.895-6.811-2.436-7-9c1.215-1.774,0.015-1.749,1-3
	c1.073-0.751,0.945-0.601,3-1c1.737,2.022,2.146,1.869,6,2c0.536-1.516,0.675-1.693,1-4c-5.466-4.294-3.639-3.916-3-12
	c-4.58-1.291-4.554-3.335-10-4c-2.305,3.435-4.557,6.478-10,7c-2.571-2.439-6.788-3.182-11-4c-2.204-3.717-3.201-3.852-3-8
	c2.55-1.292,5.646-2.289,7-5c1.514-2.305,0.624-5.061-1-7c-2.848-1.74-8.399-1.142-11-3c-0.872-0.74-1.128-1.259-2-2
	c5.554-12.019-4.221-23.2-7-33c-1,0-2,0-3,0c-0.631-1.754-0.193-0.971-1-2c0-0.667,0-1.333,0-2c0.333,0,0.667,0,1,0
	c0-0.333,0-0.667,0-1c4.924-0.532,10.724-2.427,15-3c4.654-0.624,6.141,3.039,9,2c3.393-0.946,3.111-0.385,4-4
	c0.804-1.021,0.355-0.274,1-2c-0.333,0-0.667,0-1,0c0-0.333,0-0.667,0-1c-3.566,1.001-4.27-0.011-8-1c0.535-6.383,0.304-9.527-1-15
	c-3.083-1.947-8.863-3.158-11-6c5.62-1.62,8.919-6.695,14-8c4.068-1.045,6.823,1.65,11,2c0-0.333,0-0.667,0-1c0.333,0,0.667,0,1,0
	c0.314-4.01-0.024-4.862,2-6c0-0.333,0-0.667,0-1c6.656,2.136,5.889,0.859,14,1C977.858,693.703,981.231,698.733,990,698z"/>
</svg>
