<?xml version="1.0" encoding="utf-8"?>
<!-- Generator: Adobe Illustrator 16.0.0, SVG Export Plug-In . SVG Version: 6.00 Build 0)  -->
<!DOCTYPE svg PUBLIC "-//W3C//DTD SVG 1.1//EN" "http://www.w3.org/Graphics/SVG/1.1/DTD/svg11.dtd">
<svg version="1.1" id="Layer_1" xmlns="http://www.w3.org/2000/svg" xmlns:xlink="http://www.w3.org/1999/xlink" x="0px" y="0px"
	 width="1920px" height="1080px" viewBox="0 0 1920 1080" enable-background="new 0 0 1920 1080" xml:space="preserve">
<path fill-rule="evenodd" clip-rule="evenodd" fill="#ED1F24" stroke="#000000" stroke-width="2" stroke-miterlimit="10" d="
	M151,779c4.058,0.872,12.798,4.362,16,7c-3.912,4.019-4.097,16.191-4,27c3.245,0.828,1.528-0.49,3,2c-10.709,6.995-13.163,17-17,29
	c-3.208,10.035,0.822,23.576-2,30c-7.78,10.391-20.086,8.859-34,7c-0.894-2.914-3.468-5.271-4-8c-0.858-4.402,4.1-10.446,1-19
	c-2.528-6.975-6.57-12.577-7-22c1,0,2,0,3,0c0.759-2.631,1.198-2.385,2-5c-0.795-0.992-1.156-2.957-2-4c-0.667,0-1.333,0-2,0
	c-1.65-2.989,3.12-4.243-1-7c-1.073-0.751-0.946-0.601-3-1c0.075-3.042,0.756-2.744,0-4c-2.219-1.51-6.74-1.452-9-3
	c-0.872-0.74-1.128-1.259-2-2c0.723-2.235,2.59-2.761,3-4c0-0.333,0-0.667,0-1c-0.333,0-0.667,0-1,0c-1.042-4.301-2.217-6.399-3-9
	c0.333-3.333,0.667-6.667,1-10c-1-0.333-2-0.667-3-1c0-1.667,0-3.333,0-5c-0.771-1.073-4.049-1.004-5-2
	c-3.958-4.145-5.857-16.49-6-23c4.051-2.247,6.257-6.884,11-9c0,0.667,0,1.333,0,2c1.276,1.486,0.72,4.86,3,6
	c1.179-0.803,1.681-0.773,4-1c1.223-4.041,3.601-5.374,5-9c-0.763-1.44-0.531-4.22-1-7c3.764-0.143,3.515,0.472,5-2
	c0.208-0.266,3.214-11.847,3-13c-0.077-0.418-2.907-0.845-2-4c0.633-2.201,2.935-8.13,4-11c3.5,1.048,2.585,3.895,4,1
	c0.333,0,0.667,0,1,0c0,0.333,0,0.667,0,1c0.775,1.923,1-2,1-2c0.643-0.902,0.3-1.976,1-4c2.282,1.251,3.88,2.248,7,3
	c0.007,1.137,0.325,4.747,2,7c0.947-2.927,1.764-3.511,4-5c0,0.667,0,1.333,0,2c-1.261,1.358-1.365,1.769-2,4c0.667,0,1.333,0,2,0
	c2.297,1.036,3.157-0.254,8-1c-1.521,6.575,2.29,10.063,4,16c2.179,7.562-4.452,8.198-2,15c2.758,7.652,5.885,13.163,6,25
	c2.773,0.005,6.605,3.411,7,9C149.929,775.031,150.504,775.798,151,779z"/>
<path fill-rule="evenodd" clip-rule="evenodd" fill="#ED1F24" stroke="#000000" stroke-width="2" stroke-miterlimit="10" d="
	M216,589c0.333,3.333,0.667,6.667,1,10c1.943-0.325,3.146-0.108,7,0c0.828,3.245-0.49,1.528,2,3c1.073-0.751,0.946-0.601,3-1
	c0.927,4.621,3.142,6.823,4,10c-1.501,3.893-4.41,11.148-8,12c0.667,0,1.333,0,2,0c1.254,1.624,2.102,2.007,4,3
	c1.063-3.276,1.486-3.075,3-3c0.877,1.295,0.894,2.467,1,5c-0.913,0.932-1.331,1.755-2,3c5.078,0.583,5.055,0.428,9-1
	c-0.249,1.155,0.013,11.99,0,12c1.756,1.503,4.01,0.7,5,3c1.72,3.998-1.544,10.643-2,15c-3.715,1.281-9.591,6.626-11,10
	c0,2.667,0,5.333,0,8c-2.859,5.126-13.985,2.496-16,16c5.511,6.154-2.252,11.256-3,18c3.97,1.839,6.004,6.136,9,9
	c-0.667,3.333-1.333,6.667-2,10c0.226,1.05,2.323,0.423,2,3c-0.218,1.742-3.458,7.009-4,9c-0.333,3.333-0.667,6.667-1,10
	c-1,0-2,0-3,0c-0.98-0.797-2.743-1.446-4-2c0,0.667,0,1.333,0,2c1.333,4.666,2.667,9.334,4,14c-3.895,2.192-9.506,5.299-12,9
	c-5.158-1.919-11.086-1.656-17-3c-3.91,5.696-9.243,12.191-18,13c-2.953-1.978-14.767-6.192-18-7c-0.76-5.073-1.069-3.401-1-9
	c-6.225-3.833-7.18-5.517-7-16c-4.232-5.6-4.324-15.688-6-21c0.74-1.784,3.157-4,2-8c-0.542-1.876-7.518-14.575-4-16c-1,0-2,0-3,0
	c-2.903,2.415-3.227,1.603-7,1c0-0.667,0-1.333,0-2c1.261-1.358,1.365-1.768,2-4c-0.333,0-0.667,0-1,0c-1.081,1.758-2.515,3.618-4,5
	c-0.081-4.91-0.72-6.243-3-7c-1.52-1.289-4.269-2.904-5-2c-1.061,1.755-0.601,2.183-1,5c-0.333,0-0.667,0-1,0c0-0.333,0-0.667,0-1
	c-0.775-1.923-1,2-1,2c-2.19-1.83-1.32-3.069-4-2c-5.262,7.523-3.025,20.28-5,29c-3.764,0.143-3.515-0.472-5,2
	c2.631,4.281-1.313,13.524-8,14c-1.021,0.804-0.274,0.355-2,1c0.749-3.642-0.186-4.232-1-8c-0.667,0-1.333,0-2,0
	c-1.227,2.897-6.678,6.949-9,10c-2.558-0.568-5.266-1.538-7-3c-1.142-1.69-1.066-4.896-1-8c5.74-8.971,1.926-37.342,0-45
	c-1.224-4.865,2.306-6.48,3-9c-0.667-4-1.333-8-2-12c1.333,0,2.667,0,4,0c-0.076-3.904-1.419-3.48,4-4c1.912,1.914,5.025,2.985,7,2
	c4.855-0.555,3.339-2.201,6-4c4.103-2.775,7.882,1.41,8-8c-1.698-2.835,1.01-8.136,5-9c3.901,3.003,11.411,3.509,15,4
	c0.708-2.347,1.025-2.234,2-4c-6.146-2.565-5.592-3.617-8-8c4.384-2.519,3.78-6.733,10-8c0,0.333,0,0.667,0,1c0.333,0,0.667,0,1,0
	c3.099,0.488,2.75-2.968,7-2c2.474,0.563,6.47,4.553,8,3c8.937-5.487,3.631-8.075,8-15c0.959-1.52,4.951-1.656,6-3
	c1.588-2.035,0.604-4.576,1-6c8.737,2.661,7.915-5.278,15-7c1.368,3.483,2.283,3.074,7,3c5.965-7.22,17.699-6.817,19-19
	c0.752-1.073,0.601-0.946,1-3c4.251-0.479,9.981-1.218,12-4C209.606,586.966,208.942,588.688,216,589z"/>
<path fill-rule="evenodd" clip-rule="evenodd" fill="#ED1F24" stroke="#000000" stroke-width="2" stroke-miterlimit="10" d="
	M303,479c-12.229,1.149-18.655,10.579-29,16c0.437,2.812-0.116,3.263,1,5c0.771,0.682,2.232,1.311,3,2
	c-8.614,5.411-2.735,6.946-6,11c-2.029,2.52-2.851-0.456-4,4c-2.333,0-4.667,0-7,0c0,0.667,0,1.333,0,2c2.329,0.294,2.477,0.451,4,1
	c0,0.667,0,1.333,0,2c-2-0.333-4-0.667-6-1c-0.33,4.164,0.185,3.676-3,5c-1.845,1.138-1.87,0.195-4,1c-2.67,4.501-5.409,11.15-7,17
	c-1.745,6.417,0.323,11.741-3,16c-7.02,5.729-23.333,11.675-24,23c0.565,0.713,1.442,0.042,1,2c-0.333,0-0.667,0-1,0
	c-1.256,3.816-2.028,3.914-7,4c-2.002-1.852-3.468-2.562-5-5c-3.451,1.973-6.76,3.387-12,4c-0.333,2.333-0.667,4.667-1,7
	c-7.708,5.53-12.005,14.533-25,15c-2.745-4.501-5.71-3.545-6-11c0.585-1.288,0.967,0.414,1-1c0.033-1.414-0.527,0.333-1-1
	c-0.443-1.248,0.181-3.639,0-4c-1-0.333-2-0.667-3-1c-1.034-2.017,2.322-6.263,0-9c-1.559-1.838-2.607-0.315-4-3
	c1.858-2.827,2.716-9.276,3-13c-12.596-3.041-4.316-7.177-7-12c-1.294-2.325-2.694,1.504-4-4c4.131-4.927,9.516-10.886,10-19
	c0.697-1.891-1.124-5.46-2-9c3.11-2.313,4.972-5.549,6-10c2.471,0.708,2.526,0.727,5,0c0.194-6.806,2.784-8.376,5-13
	c-4.81-2.596-13.261-6.26-14-13c6.794-7.301,11.073-16.868,18-24c2.698,0.877,9.189,6.276,10,5c1.326-1.737,0.733-3.764,2-6
	c1-0.333,2-0.667,3-1c2.245-3.875-3.07-5.617-2-8c0.308-0.687,4.404-2.049,5-3c2.981-4.75,2.093-10.467,5-15
	c4.912-7.658,14.875-14.788,22-23c2.45,0.604,2.965,2.35,4,1c9.717-6.274,12.723-14.866,20-24c0.333,0,0.667,0,1,0
	c0.572,2.355,1.14,3.142,2,5c3.803-1.521,15.251-3.642,19,0c2.26-2.553,15.77-11.151,18-9c1.43,2.085,0.627,3.563,3,5
	c0.867-1.191,0.823-1.125,2-2c0.333,1,0.667,2,1,3c7.834-3.293,5.683-0.067,12,1c3.666-1,7.334-2,11-3c0,2,0,4,0,6
	c-3.251,1.804-2.436,2.768-2,6c0.667,0,1.333,0,2,0c0.195-2.328,0.193-2.826,1-4c3.037,6.78,10.998,2.083,14,2
	c3.409,4.413-0.079,11.137,1,14c1.622,2.3,2.631,3.266,6,4c2.367-2.078,4.725-3.937,7-6c0-0.333,0-0.667,0-1
	c2.715-1.54,7.286,2.736,11,1c2.123-0.992,1.728-3.791,5-5c-0.527,4.629,1.825,3.531,0,9c9.208-1.871,12.473,12.389,27,15
	c0.799-0.878,9.897-5.581,11-6c1.412,1.695,2.829,2.058,5,3c-1.263,1.985-3.956,3.216-5,5c0.589,3.141-1.333,9.181-3,13
	c-10.7-0.786-19.594,5.188-27,12c-2.46-2.029-4.973-2.009-8-1c-0.499-4.416-1.32-5.739-5-7c-3.708,6.114-10.106,7.95-15,9
	c-2-0.667-4-1.333-6-2c-3.901,1.545-6.102,7.438-10,9c-2.845,1.619-6.557-1.074-8,0c-2.514,1.706-2.865,5.448-5,7
	c-3.334,2.425-1.741-2.449-4,1C303.35,474.79,303.254,475.512,303,479z"/>
<path fill-rule="evenodd" clip-rule="evenodd" fill="#ED1F24" stroke="#000000" stroke-width="2" stroke-miterlimit="10" d="
	M432,398c0.548,5.695,1.302,5.302,2,11c-1.683,1.7-4.859,5.083-6,7c0.333,1,0.667,2,1,3c-0.333,0-0.667,0-1,0
	c-1.444,1.146-3.395,0.86-5,2c-3.378,2.4-4.495,7.501-8,10c1.281,2.322,1.709,2.693,4,4c-0.809,1.429-2.265,1.869-3,3
	c0,0.333,0,0.667,0,1c0.333,0,0.667,0,1,0c4.124,4.083-1.143,6.404,0,9c0,0.333,0,0.667,0,1c0.667,0,1.333,0,2,0
	c2.108-3.621,9.189-12.329,12-12c1.592,0.187,8.171,2.427,10,2c2.119-0.495,2.559-2.473,6-3c-0.161,2.612-0.43,3.395-1,5
	c0.667,0,1.333,0,2,0c6.13-5.889,13.99-3.506,16-8c-1.191-0.868-1.125-0.822-2-2c1.754-0.631,0.971-0.193,2-1
	c-1.519-1.02-1.967-1.498-3-3c3.391-1.979,3.378-4.042,8-5c3.252,3.019,9.824,0.079,15,2c-0.979,2.67-1.282,1.718-2,5
	c2.842,0.814,4.532-1.086,8,0c1.992,0.624,3.423,4.4,5,5c3.868,1.472,7.316-2.599,9-3c3.162-0.753,3.834,1.508,7,2
	c0.708-2.347,1.025-2.234,2-4c1.048,0.87,2.125,1.956,3,3c3.95-1.438,6.049-3.812,11-5c2.664,3.591,13.336,7.201,20,9
	c4.746,1.281,4.552-2.137,7-1c1.754,0.631,0.971,0.193,2,1c-2.04,1.932-6.796,5.61-8,8c-2.196,4.357-0.969,9.697-4,13
	c-9.385,10.229-22.297,17.914-31,26c0.741,4.578,0.149,5.431,4,8c-4.325,8.099-4.21,9.469-6,19c-7.701,2.949-12.898,4.996-19,9
	c0.77,3.097,1.997,3.84,1,6c-1.737,2.022-2.145,1.869-6,2c-1.162-1.312-2.691-2.834-4-4c-2.648,2.963-5.28,6.064-9,8
	c1.571,14.415-8.314,6.858-14,10c-2.964,2.928-5.939,14.187-9,20c6.274,0.889,6.358,4.17,10,6c1.038,0.521,2.08-1.916,4-1
	c1.724,1.732,1.499,2.783,4,4c1.878-1.779,0.793-1.848,3-1c2.468,1.294,0.681-0.429,2,2c-3.331,1.611-5.582,3.489-7,7
	c1.723,2.464-0.653,2.231,0,5c0.075,0.316,3.118,2.892,3,3c-0.667,0-1.333,0-2,0c-3.2,3.358-3.253-0.858-7,1
	c-0.499,0.247-1.205,3.6-2,4c0,0-4.2-1.821-6-2c-0.899,2.189-0.862,1.443-2,3c2.252,2.377,1.092,0.351,1,4c-1.333,0-2.667,0-4,0
	c-1.241-2.759-0.596-5.43-3-7c-1.182,1.826-2.192,2.801-4,4c0-0.667,0-1.333,0-2c2.115-1.778,3.086-2.848,4-6
	c-4.395-1.213-4.946-2.772-11-3c-1.396,2.006-1.346,2.066-4,3c1.097,4.702-1.948,3.741-2,8c-0.036,2.921,2.798,9.197,3,15
	c4.425-0.513,3.588-1.413,8-2c1.224,2.057,1.648,2.913,4,4c3.173-4.815,8.461,0.861,13-2c2.366-1.491-0.771-2.933,5-4
	c0,0.667,0,1.333,0,2c0.752,1.073,0.601,0.946,1,3c-5.904,5.294-7.926,8.542-11,15c-2.488-1.551-2.522-2.977-5-2
	c-15.46,4.806-14.445,17.196-21,27c-0.746,1.116-3.227,1.059-4,2c-1.629,1.981-0.661,4.733-2,7c-0.667,0-1.333,0-2,0
	c-1.814,3.076,0.693,12.176,1,14c0.804-1.021,0.355-0.274,1-2c0.913-0.932,1.331-1.755,2-3c5.181,1.668,11.367,2.947,12,9
	c-2.648,2.24-5.711,4.336-7,8c0.333,0,0.667,0,1,0c3.426,3.691,8.16,4.043,9,8c-0.808,0.735,3.125,5.847,3,7
	c-1.133,1.546-1.085,0.843-2,3c7.402,3.375,2.707,1.865,6,8c1.993,3.712,5.133,0.858,6,7c0.804,1.021,0.355,0.274,1,2
	c-5.862,4.414-4.621,11.729-15,12c-4.829,2.822-13.486-3.701-17-6c-1.688,0.436-3,2.645-4,3c-4.542,1.611-14.191-3.927-16-6
	c-0.029-0.883,2.202-2.282,1-4c-1.245-1.78-5.371-2.432-7-4c-1.549-1.49-3.152-7.176-4-9c-7.208,0.44-11.53-7.354-20-8
	c-2.969,3.477-6.453,4.963-13,5c-6.133-5.337-24.787-7.597-26-16c2.101-1.574,3.109-3.156,4-6c-2.747-2.952,1.117-5.11,0-9
	c-1.778-6.188-3.869-1.13-3-12c-7.717-4.391-15.7-12.187-25-14c-3.752,4.436-10.627,3.39-15,2c-2.251,0.998-2.385,3.756-4,5
	c-3.546,2.731-10.995,1.768-13,3c-3.96,3.424-3.594,12.282-8,15c-6,4.093-15.946-2.927-20-5c-0.124-5.317,3.833-15.42,2-20
	c-0.898-2.243-3.688-1.457-5-3c-0.37-0.435,1.858-2.259,1-4c-0.667,0-1.333,0-2,0c-2.505-5.126,3.64-5.689-1-8
	c-1.721,3.04-4.737,1.953-7,0c1.772-1.919,1.896-3.136,2-7c-0.333,0-0.667,0-1,0c0-0.333,0-0.667,0-1c-1.8,1.231-2.481,2.592-4,4
	c-1.487-1.523-3.524-2.465-5-4c0.667,0,1.333,0,2,0c0.443-2.594,2.685-1.859,4-6c3.72-5.515-0.427-7.994-2-15
	c-1.667,0.333-3.333,0.667-5,1c0-1,0-2,0-3c-3.153-0.088-5.213-0.476-6,0c-0.804-1.021-0.355-0.274-1-2
	c-3.296-5.012,1.268-9.079,2-12c0.424-1.688-1.016-4.242-1-7c8.958-5.28,15.033-13.567,25-18c0.896-10.431,2.865-28.269,10-33
	c0.954-0.406,2.412-0.527,5-1c0.88-2.397,0.76-3.707,3-5c1.179,0.803,1.681,0.773,4,1c0-0.667,0-1.333,0-2c-2.273-1-2.774-0.745-4-3
	c2.333,0,4.667,0,7,0c1.14-4.476,1.914-1.48,4-4c2.13-2.573-0.866-3.648,0-6c0.781-2.121,4.589-3.943,6-6
	c-3.668-0.692-2.733,0.044-4-3c0.708-1.545,0.129-0.135,0-3c10.545-5.291,16.64-14.744,29-16c0.275-4.114,1.138-4.761,2-8
	c4.997,0.165,6.338-2.535,9-7c3.759,1.567,5.717,1.82,10,1c5.227-12.272,14.891-5.418,23-9c3.209-1.417,3.987-5.596,8-7
	c0,0.333,0,0.667,0,1c2.062,1.672,2.345,3.97,4,6c2.64-1.67,5.376-0.135,8,1c4.283-10.816,18.722-8.94,26-13
	c2.567-3.053,2.302-10.756,3-12c2.333-2,4.667-4,7-6c0.935-1.881-1.428-3.36-1-4c1.15-1.721,6.203-4.816,8-6c0-0.333,0-0.667,0-1
	c-0.667,0-1.333,0-2,0c-0.087,0.097-1.313,2.886-2,2c0-0.333,0-0.667,0-1c-0.872-0.74-1.128-1.259-2-2c1-2.273,0.745-2.774,3-4
	C413.815,413.695,421.875,398.011,432,398z"/>
<path fill-rule="evenodd" clip-rule="evenodd" fill="#ED1F24" stroke="#000000" stroke-width="2" stroke-miterlimit="10" d="
	M844,245c1,0,2,0,3,0c0.17-1.884,3-7,3-7c-0.313-0.55-3.671-2.446-4-3c-2.38-4.008-2.012-12.477-2-18c2.448-0.85,6.184-1.039,10-1
	c2.14,3.393,3.054,4.685,3,11c1.142,1.69,1.066,4.896,1,8c1.667,0.333,3.333,0.667,5,1c0.417,5.252,0.778,6.2,2,11
	c5.042,0.503,8.597,2.036,11,3c0.333,0.667,0.667,1.333,1,2c-0.333,0-0.667,0-1,0c-3.166,3.737-8.375,5.771-12,9
	c0,0.667,0,1.333,0,2c4.245,1.047,6.708,4.13,11,6c-0.813,3.121-1.926,10.679-1,14c-0.333,0-0.667,0-1,0c0-0.333,0-0.667,0-1
	c-2.47,0.296-1.827-1.12-4,0c-7.345,2.165-10.052,6.23-17,10c0.625,2.599,0.464,1.903,0,5c4.274,0.907,3.943-0.325,4,6
	c2.467,1.295,0.681-0.429,2,2c5.799-0.113,11.051,2.594,18,3c0.737-3.366-0.614-2.874,2-4c1.133,1.546,1.084,0.843,2,3
	c-2.468,1.295-0.681-0.429-2,2c3.37,0.907,3.714,0.971,6,2c-3.223,5.343,1.675,6.776,2,12c-0.667-0.333-1.333-0.667-2-1
	c0,0.333,0,0.667,0,1c-0.246,0.393-5.632,12.141-6,14c-4.176-0.221-3.352-0.183-8,0c0,0.333,0,0.667,0,1
	c3.612,3.656,1.678,5.227,6,8c-1.497,2.833-3.311,5.561-5,8c5.626,1.57,11.116,7.575,12,14c-1.333,0.667-2.667,1.333-4,2
	c1.849,3.649,3.849,5.375,5,10c-2.845,0.018-0.392-0.788-3,1c0.7,3.793,1.021,6.161,3,7c0.954,0.406,2.412,0.527,5,1
	c1.956,5.01,4.962,4.574,5,13c-3.957,0.844-3.426-0.987-4,4c0.745,1.216,0.137,0.992,0,4c8.509-2.669,5.061,1.48,10,3
	c2.885,0.888,3.097-1.991,5-1c1,0.667,2,1.333,3,2c-0.907,4.835-1.787,12.025,0,18c-7.046,0.927-10.855,6.334-13,12
	c5.051,1.807,1.391,3.009,6,4c-1.325,11.651-6.581,13.426-12,22c0.333,0.667,0.667,1.333,1,2c-3.804,3.056-6.359,2.455-7,9
	c-1.449,2.672,0.337,4.271,1,8c8.213,0.686,8.848,5.307,17,6c0,1,0,2,0,3c-1,0-2,0-3,0c-1.73,7.796-18.412,15.326-27,16
	c-3.796-4.208-6.941-5.247-12-6c-2.195,3.566-7.918,4.252-11,7c-1.384,1.234-2.799,4.604-4,6c-2.324-0.948-3.234-3.246-5-4
	c-3.409-1.456-7.266,0.751-12-1c0.333-1,0.667-2,1-3c-2.631-0.759-2.385-1.198-5-2c-5.717,3.899-13.227,2.346-21,2
	c0-1.333,0-2.667,0-4c-6.06-0.211-12.909,0.419-20-2c-2.906-0.991-10.633-2.385-11-2c-1.592,2.17-2,8-2,8
	c-0.8,1.092-4.154,0.532-5,2c-1.256,2.18-0.363,5.205,0,6c-0.892,1.323-3.273,2.367-4,4c-1.343,3.017-0.23,9.831-4,13
	c-2.667,0-5.333,0-8,0c-3.35,3.359-7.217,3.779-10,9c-0.704,1.008-0.846,2.343-1,6c-8.179,2.501-9.909,9.424-16,13
	c-2.469,1.45-7.798,2.914-9,2c-0.895,0.796-2.06,3.293-4,4c-3.666-1-7.334-2-11-3c-6.735-1.763-7.335,3.867-12,3
	c-9.984-1.856-12.58-6.314-22-5c0-0.333,0-0.667,0-1c1.662-2.483,2.678-6.681,4-9c-3.559-1.953-1.191-1.971-4-4c0-0.333,0-0.667,0-1
	c-1.01-0.99-0.989,0.985-1,1c-4.998,4.264-11.63,11.415-13,19c2.12,3.466-0.156,3.964,2,7c-4.49,0.612-5.117,2.132-8,4
	c0,0.333,0,0.667,0,1c0.333,0,0.667,0,1,0c0.854,1.46,1.812,2.867,3,4c0-0.333,0-0.667,0-1c2.298-1.605,1.51-2.142,5-3
	c0,0.333,0,0.667,0,1c0.333,0,0.667,0,1,0c0.214,8.587,3.184,9.493,3,18c-2.281,1.225-2.251,1.638-6,2c-0.98-0.797-2.744-1.446-4-2
	c-0.353,7.201-3.671,4.85-5,8c0.565,0.713,1.442,0.042,1,2c-0.333,0-0.667,0-1,0c-0.771,0.682-2.232,1.311-3,2
	c4.674,7.617-6.13,8.477-8,11c2.422-0.34,0.883-0.327,4,0c0,0.333,0,0.667,0,1c-3.916,0.639-3.826,0.688-5,4
	c2.25,1.595,2.097,1.638,2,3c-3.384,2.659-4.165,0.803-7,4c0.859,1.883,0.474,0.738,0,3c3.81,1.495,5.623,3.933,6,9
	c-2.667,0.333-5.333,0.667-8,1c-2.209-3.514-5.292-6.022-8-9c-8.9-0.227-10.091,1.45-19,1c0,1.333,0,2.667,0,4
	c-2.281,1.225-2.251,1.638-6,2c-1.028-0.512-43.494-0.545-46,0c0,0.333,0,0.667,0,1c-0.333,0-0.667,0-1,0c0,1,0,2,0,3
	c-9.112-0.572-22.255-4.993-33-4c-5.596,0.517-10.115,3.326-15,4c-3.183-4.599-11.936-7.248-17-7c-0.274,3.004-2.426,4.329-2,6
	c0.657,2.583,3.527,1.623,4,7c-0.667,0-1.333,0-2,0c-2.05,1.3-4.315,0.68-6,1c0,0.333,0,0.667,0,1c0.333,0,0.667,0,1,0
	c3.599,3.726,8.271,6.41,9,13c-2.281,1.225-2.251,1.638-6,2c-3.053-2.264-7.818-4.339-12-5c-1.432,2.937-4.115,3.673-7,5
	c0.442,5.22,2.075,9.606-2,12c-4.332,3.533-11.053,4.028-18,4c0-1,0-2,0-3c-2.796,0.03-8.633-2.543-10-7
	c3.936-2.299,6.572-3.907,7-10c-3.384-0.159-8.26-6.146-12-4c-1.261,1.358-1.365,1.769-2,4c-0.804-1.021-0.355-0.274-1-2
	c-1.461-2.228-1.258-5.681-1-12c2.719-1.501,5.309-6.51,7-9c0.667,0.333,1.333,0.667,2,1c0-0.333,0-0.667,0-1
	c-1.022-2.585,6.268-19,10-23c1.514-1.623,7.538-2.542,10-5c2.312,0.745,4.184,3.376,5,2c3.358-3.42,0.818-3.978,2-6
	c1.56-2.669,6.422-3.526,8-6c1.774-2.781,0.283-5.568,1-8c-0.333,0-0.667,0-1,0c-7.041,6.111-11.208,3.955-20,7
	c-1.187-3.597-1.51-3.657-6-4c-1.466,2.525-0.44,1.544-4,2c-0.69-10.609-7.767-25.793,9-26c1.752,2.185,3.651,2.282,5,5
	c-2.25,1.943-4.168,4.669-6,7c0.667,0,1.333,0,2,0c1.579-2.508,2.861-3.936,6-5c-0.257,3.196-0.994,3.191,0,5
	c1.667,1.938,1.439,1.668,5,2c0-0.667,0-1.333,0-2c1.416-1.288-0.095-1.171-1-3c2.801-1.03,2.098-1.518,6-2
	c0.087,0.097,1.313,2.886,2,2c0-0.333,0-0.667,0-1c3.74-2.448,6.086-2.666,11-4c-2.737-3.652-2.179-4.855-3-10
	c2.776-1.176,5.897-4.069,7-7c-1.754-0.631-0.971-0.193-2-1c-2.631,0.759-2.385,1.198-5,2c-0.572-2.355-1.14-3.142-2-5
	c-1.361,0.294-3.483,2.226-4,2c-0.272-0.119-8.432-5.663-10-7c3.372-3.184,7.235-16.459,9-20c5.926,1.468,8.675,0.65,13-1
	c1.679-5.854,3.08-11.944,11-16c1.004,2.748,1.44,2.195,3,4c-1.191,0.868-1.125,0.822-2,2c0.333,0,0.667,0,1,0
	c2.907-3.025,6.225-1.417,8-6c-1.261-1.358-1.365-1.769-2-4c2.04-1.217,3.316-3.898,5-5c5.31-3.476,11.33,0.231,14-6
	c2.953-4.626-1.941-2.98,0-8c0.794-2.053,3.597-4.15,5-8c-0.228-2.4-3.954-5.192-2-9c2.66-7.564,7.035-5.406,14-10
	c2.747-1.812,3.893-5.422,6-8c2.592-3.172,7.221-5.004,10-8c3.291-3.547,1.777-11.303,5-15c1.452-1.665,4.655-2.123,6-4
	c2.452-3.424,0.251-4.837,3-8c0.711-0.818,3.366-1.16,4-2c1.371-1.817,0.468-4.475,2-6c1.369-1.363,5.017-1.344,6-3
	c1.179-1.986-1.341-3.01-1-4c1.031-2.995,4.564-4.558,6-7c0.013-0.882-2.213-3.048-1-5c0.559-0.9,16.441-18.661,17-19
	c4.046-2.458,5.185-0.176,7-5c-2.468-1.294-0.681,0.429-2-2c7.066-3.709,7.183-14.409,20-16c0.829,2.963,0.443,2.732,3,4
	c1.204-1.308,19.052-12.307,21-13c5.132-1.827,8.987,0.306,13-2c1.665-0.957,1.677-3.708,3-5c2.963-2.896,24.643-10.381,33-11
	c0-1.333,0-2.667,0-4c4.429-0.923,12.336-3.354,16-6c1.207-2.111,0.483-2.231,0-5c3.1,0.42,2.383,0.713,5,0
	c-0.552-3.12-0.453-2.128,1-5c-4.401-0.159-4.988,0.34-6-2c-0.333,0-0.667,0-1,0c2.379-5.772,5.587-8.369,11-11
	c-0.213-2.966,0.167-2.523,0-7c-1,0-2,0-3,0c-0.667-3.304-0.995-2.339-2-5c0.333,0,0.667,0,1,0c0-0.333,0-0.667,0-1
	c0.667,0.333,1.333,0.667,2,1c0-0.333,0-0.667,0-1c0.798-0.98,1.446-2.743,2-4c2.079,0.652,2.254-0.138,4,1c3,2,6,4,9,6
	c1.359,2.009,0.233,3.577,2,5c1.333,0.333,2.667,0.667,4,1c3.172,3.883,0.511,9.306,5,12c2.101-2.711,5.027-4.048,7-7
	c-0.333,0-0.667,0-1,0c0-0.333,0-0.667,0-1c-2.95,0.573-3.103,2.032-5-1c-2.458-3.183-6.279-15.086-3-20
	c0.944-3.275,2.501-5.296,5-7c1.982-1.118,1.808-0.596,4,0c0.502-6.042,2.895-5.854,4-11c-1.521-1.895-1.789-3.589-2-7
	c3.455-2.121,6.388-6.515,10-8c6.583-2.705,11.982-2.195,17-6c8.494-6.441,9.606-20.329,24-21c0,0.333,0,0.667,0,1
	c0.333,0,0.667,0,1,0c0.613-6.127,2.825-9.096,10-9c2.111-1.207,2.231-0.483,5,0c1,5,2,10,3,15c0.802,1.426,3.081,2.021,4,5
	c1.225,3.969,0.027,8.084,2,11c1.073,0.752,0.945,0.601,3,1c2.44-2.519,4.66-3.164,6-7c-2.086-3.072-2.073-8.977-2-14
	c0.667,0,1.333,0,2,0c2.738-1.714,4.509-0.169,7,1C840.331,231.205,843.003,237.386,844,245z M839,260c0,0.667,0,1.333,0,2
	c-0.333,0-0.667,0-1,0c0-0.667,0-1.333,0-2C838.333,260,838.667,260,839,260z M812,270c-0.51,5.094-1.514,4.384-4,7
	c-0.333,0-0.667,0-1,0c0.958-2.856,0.971-7.332-1-10c1.071-1.194,2.005-1.64,3-3C810.391,265.525,810.772,268.27,812,270z M798,297
	c0,0.333,0,0.667,0,1c-0.333,0-0.667,0-1,0c0.333-1.333,0.667-2.667,1-4C798.889,295.722,798.881,295.28,798,297z M797,304
	c0.421,5.17-0.676,24.321-3,27c-1.631,4.438-4.942,4.246-8,7c-0.333,0-0.667,0-1,0c2.08-4.092,4.844-6.054,9-8
	c-1.346-14.967-4.041-13.861,1-27C795.667,303.333,796.333,303.667,797,304z M831,324c0,0.333,0,0.667,0,1c-0.667,0-1.333,0-2,0
	c0-0.667,0-1.333,0-2C829.667,323.333,830.333,323.667,831,324z"/>
<path fill-rule="evenodd" clip-rule="evenodd" fill="#ED1F24" stroke="#000000" stroke-width="2" stroke-miterlimit="10" d="
	M994,101c0,3,0,6,0,9c2.917,1.051,2.346,1.818,5,3c1.466-2.525,0.44-1.544,4-2c4.237,4.269,6.197,4.676,6,14
	c4.098,3.634,1.443,14.347,1,20c-2.963,1.569-2.982,2.701-5,5c0-1,0-2,0-3c-6.184-0.565-15.438-3.077-22-4
	c-0.836-2.9-1.391-2.574-2-6c-3.917-0.202-2.641-0.378-6,0c-0.352,2.045-0.947,5.538-2,7c-1.021-0.804-0.274-0.355-2-1
	c-1.499-9.257-5.508-2.7-8-7c0-5.333,0-10.667,0-16c2.207-1.988,1.409-1.507,2-5c-7.431-0.763-5.469-10.326-5-18
	c1.725-0.599,3.152-0.89,6-1c0.909,1.083-0.078,0.085,1,1c-0.263,4.522-0.82,9.267,2,11c0-0.333,0-0.667,0-1
	c2.448-2.213,2.9-6.461,5-9c3.376,1.515,5.746-2.028,10-3C986.162,98.231,989.234,100.321,994,101z M913,98c1.667,0,3.333,0,5,0
	c1.488,4.357,1.075,12.072,1,18c-1.667,0-3.333,0-5,0C912.512,111.643,912.925,103.928,913,98z M894,116c1.333,0,2.667,0,4,0
	c2.873,4.62,3.161,10.629,3,19c-1.667-0.333-3.333-0.667-5-1c0-0.667,0-1.333,0-2C894.068,129.007,894.094,120.063,894,116z
	 M1040,145c2.856,0.068,4.279,0.391,6,1c-0.037-5.689,1.015-8.7,2-13c0.333,0,0.667,0,1,0c2.077,3.62,2.757,2.875,7,2
	c0,3.666,0,7.334,0,11c-0.752,1.073-0.602,0.946-1,3c0.333,0,0.667,0,1,0c1.294-2.468-0.429-0.681,2-2c0,0.667,0,1.333,0,2
	c-0.877,1.295-0.895,2.467-1,5c1,0,2,0,3,0c0.333-1.667,0.667-3.333,1-5c1,0,2,0,3,0c-0.318,2.089,0.974,12.32,2,14
	c0-0.667,0-1.333,0-2c1.498-2.478,0.396-5.349,3-7c0,0.667,0,1.333,0,2c-0.961,1.417-0.977,3.273-1,6c0.333,0,0.667,0,1,0
	c0-0.333,0-0.667,0-1c0.752-1.073,0.602-0.946,1-3c10.718-0.859,24.762-7.952,31,1c1.51-0.86,0.742-2.848,2-1
	c3.918,1.471,3.985,5.028,7,7c10.605,6.935,8.329,11.345,7,25c3.647-0.211,3.125-0.467,5-2c1.807,1.917,0.995,1.917,5,2
	c1.225,2.281,1.638,2.251,2,6c-1.464,2.089-1.823,5.684-2,9c-4.671-0.293-5.561-1.423-8,0c-0.333,0-0.667,0-1,0c0,0.333,0,0.667,0,1
	c0.333,0,0.667,0,1,0c0.771,0.682,2.231,1.311,3,2c-2.525,1.466-1.544,0.44-2,4c-2.328,0.195-2.826,0.193-4,1
	c3.58,0.417,2.516-0.472,4,2c-0.251,0.968-0.784,0.379,0,1c0.917,0.474,2.293-0.089,4,1c3.853,4.352,2.999,7.888,10,11
	c-0.333,0.667-0.667,1.333-1,2c0.333,0,0.667,0,1,0c2.121,1.283,2.752-0.664,6,1c4.39,2.25,10.811,10.685,12,16
	c3.534,0.579,6.309,0.95,8,4c-0.708,1.545-0.129,0.135,0,3c-4.923,1.5-13.336,8.103-15,13c0.333,0,0.667,0,1,0
	c1.552,1.495,1.838,0.777,3,3c-0.667,0-1.333,0-2,0c-1.153,0.822-1.24,0.47-4,1c0,0.333,0,0.667,0,1c1.099,1.542,3.995,8.927,3,11
	c0,0-0.438,3.971-1,2c0-0.333,0-0.667,0-1c-2.576,0.024-5.674-0.984-10,1c0.333,0.667,0.667,1.333,1,2c-0.333,0-0.667,0-1,0
	c-4.909,4.309-8.363,5.912-14,5c-0.075,3.042-0.756,2.744,0,4c2.707,4.075,8.094,5.347,11,9c3.473,4.365,5.078,9.422,7,14
	c3.385,8.062,2.285,18.341,6,22c-1.505,1.117-4.456,2.163-6,3c0.058,2.906,0.964,1.389,0,3c-1.008,0.692-3.999,1.287-5,2
	c0.667,0,1.333,0,2,0c0.631,0.453,4.414,1.406,7,2c0.143,2.669,4.253,9.065,5,16c1.333,0,2.667,0,4,0c1.832,3.562,3.121,8.47,5,10
	c1.192,2.848,4,2.972,7,4c-6.55,8.121-6.048,13.113-7,25c0.667,0,1.333,0,2,0c1.216,0.745,0.992,0.137,4,0
	c0.278,2.588-0.467,1.775,4,2c1.183-2.067,0.684-1.882,3-3c3.399,6.124,18.142,3.853,24,3c0.667,2,1.333,4,2,6
	c2.906-0.058,1.389-0.964,3,0c1.495,1.624,1.552,2.023,2,5c-2.076,0.372-1.925,0.242-3,1c-1.495,1.624-1.552,2.023-2,5
	c1.083,0.909,0.085-0.078,1,1c3.293-1.034,5.604-1.097,12-1c1.818,2.689,5.1,3.613,7,6c3.887,4.882,0.013,5.551,7,9
	c-3.245,4.439-2.367,6.467-1,12c1.083-0.909,0.085,0.078,1-1c2.513,0.167,3.043-0.408,7-1c1.152,4.203,2.638,4.506,3,10
	c-2.022,1.737-1.869,2.146-2,6c3.949,2.718,7.167,6.061,8,12c6.639,0.278,3.757,2.837,12,2c0,0.667,0,1.333,0,2
	c2.409,4.109-0.256,8.812-2,11c2.489,3.446-0.147,6.752,0,12c0.067,2.401,1.381,5.611,3,9c-0.316,5.156-3.236,12.027-1,15
	c3.463,2.895,5.795,3.68,8,8c2.816-0.198,4.11,0.024,10,0c1.933-3.421,2.946-7.681,6-9c1.215-0.739,2.37,1.401,5,0
	c0.322-0.171,1.19-2.809,2-3c1.053-0.249,1.993,2.158,4,1c2.968-1.712,4.433-7.521,6-8c0.798,0.98,1.446,2.744,2,4
	c2.471-0.708,2.525-0.727,5,0c-1.157,2.401-2.04,1.735-1,4c0.648,3.092,1.471,5.645,4,7c0-0.333,0-0.667,0-1c0.333,0,0.667,0,1,0
	c0-0.333,0-0.667,0-1c-1.624-1.35-1.121-0.64-2-3c1.775-0.486,8.411-6.508,9-11c-4.092-2.604,4.851-17.136,5-27
	c2.871,0.024,2.591,0.931,3-4c-0.745-1.216-0.137-0.992,0-4c4.818-1.047,2.83-2.481,4-3c2.659-1.179,27,7,27,7c0,1.333,0,2.667,0,4
	c-1.238,0.707,4.188,8.721,9,9c1.762-1.561,2.433-1.374,7-1c-0.214-2.39-0.308-2.221,1-5c2.731,1.151,8.399,2.166,11,4
	c0.872,0.74,1.128,1.26,2,2c-0.667,1-1.333,2-2,3c2.378,0.114,7.949,7.548,10,11c0,1,0,2,0,3c2.333,0.667,4.667,1.333,7,2
	c0.269,3.115,9.264,20.798,14,23c0.387-2.53-0.581-1.578,3-2c0,1.333,0,2.667,0,4c5.473,2.847,7.21,9.394,13,11c0,1.667,0,3.333,0,5
	c3.941,0.889,6.355,3.519,8,6c2.252-0.876,2.58-1.778,4-1c2.26,1.767,3.239,1.424,6,4c-1.393,0.831-4.557,2.085-3,3
	c-0.779,3.086,0.497,6.395,4,8c3.577-3.229,6.974-7.425,13-8c2.325,4.369,5.888,6.393,7,12c2.076-0.372,1.924-0.242,3-1
	c0.333,0,0.667,0,1,0c0-1.333,0-2.667,0-4c1.667,0.333,3.333,0.667,5,1c1.378,4.26,5.615,8.398,6,10c-0.504,0.876,0.351,8.701,1,12
	c0.333,0,0.667,0,1,0c0.087-0.097,1.313-2.886,2-2c0,0.333,0,0.667,0,1c1.925,1.821,5.739,4.732,7,7c-0.804,1.021-0.355,0.274-1,2
	c-1,0-2,0-3,0c0.732,4.615,3.21,8.788,5,13c2.266-0.4,1.084-0.918,3,0c4.141,2.809,6.419,7.615,10,11c0,0.667,0,1.333,0,2
	c-5.316,1.69-13.692,9.083-14,16c-1.639,2.283-3.348,11.366-3,12c0.829,2.963,0.443,2.732,3,4c2.65-3.421,4.275-2.626,9-2
	c0.992,5.298,2.591,7.302,6,10c0.497,8.176-1.637,10.713-3,17c-1.333,6.152,2.21,13.917,3,18c-0.333,2-0.667,4-1,6
	c0.049,6.795,0.892,10.937,1,18c1.333,0,2.667,0,4,0c0.904,3.609,1.853,4.971,2,10c-7.575,4.623-13.246,12.899-15,23
	c-4.566,0.821-7.511,4.17-11,5c-2.683,0.638-5.364-1.765-7-2c-3.333,0.333-6.667,0.667-10,1c-2.968-0.804-6.272-4.438-9-5
	c-5.55,3.531-10.967,6.913-19,8c-3.645-3.673-7.599-5.973-15-6c-1.801,5.935-8.038,9.075-10,15c-0.716,2.162,1.202,6.573,1,7
	c-2,1.667-4,3.333-6,5c0,0.333,0,0.667,0,1c-7.748,5.253-17.783,6.247-25,12c-1,2-2,4-3,6c-9.334,7.283-27.202,8.375-38,6
	c-5.666,1-11.334,2-17,3c-1.581-0.505-3.507-3.203-5-4c-3.924-2.094-5.292-0.536-7-5c-1.344-1.681-1.637-3.144-2-6
	c-5,0.333-10,0.667-15,1c-3.624-1.229-5.383-6.749-9-8c-5.935-2.053-8.302,4.595-14,2c0-0.667,0-1.333,0-2c-0.556-0.242-14,0-14,0
	c-0.667,1-1.333,2-2,3c-3.333,1-6.667,2-10,3c-2.952,1.845-5.293,6.609-9,8c-13.215,4.957-26.279-3.399-38-8
	c0.137-4.23-4.394-19.916-8-23c-4.149-2.973-11.172,0.06-15-1c-7.603-2.104-14.74-8.16-26-5c-5.983-2.422-12.503-7.582-21-8
	c-1.577,7.414-5.872,6.14-8,10c0,2,0,4,0,6c-0.682,1.549-4.291,2.843-5,4c0,0-0.786,9.352-1,10c0.82,1.885,4.163,2.373,5,4
	c1.783,3.467-4.043,5.019,4,8c1.073,0.752,0.945,0.602,3,1c-1.087,16.343-2.187,15.948-12,23c-4.202,3.02-3.917,7.34-11,8
	c-3.373-4.42-8.528-4.647-13-6c-4.646,5.676-4.221-1.303-11,0c-2.268,0.436-9.938,4.113-12,4c-7.294-0.399-9.541-3.666-17-3
	c-8.675-15.813-3.762-16.833-29-16c-0.713,0.565-0.042,1.442-2,1c0-0.333,0-0.667,0-1c-2.542-1.475-2.006-2.119-2-6
	c-4.805,0.446-4.391,1.739-8,3c-0.963-1.959-4.617-4.669-5-4c-1.845,2.122-0.918,2.733-4,4c-2.507,1.348-4.492-1.7-8,0
	c-0.667,1.333-1.333,2.667-2,4c-4.26,4.013-9.296,4.085-18,4c0,0.333,0,0.667,0,1c0.877,1.295,0.895,2.467,1,5
	c-1.149,0.725-1.266,2.521-2,3c-2.052,1.337-5.21-0.287-7,1c-0.877,0.631-0.3,3.49-1,4c-1.352,0.985-10.302-1.127-13,3
	c1.938,1.667,1.668,1.439,2,5c-6.007,3.27-10.006,4.355-14,9c-2.347-0.708-2.234-1.025-4-2c-0.333,1-0.667,2-1,3
	c-4.147-1.777-6.776-1.521-12-2c-1.325,2.872-1.053,5.612-3,7c-2.873,3.154-11.01,5.358-16,6c-0.993-2.123-15.318-19.188-17-20
	c-1.718,2.27-5.146,4.951-8,6c-2.738-1.761-12.687-2.217-17-5c-4.003-4.171-3.616-11.021-7-16c-3.038-4.469-11.656-3.432-14-9
	c0-3,0-6,0-9c-2.677-7.995-10.066-10.06-18-13c-1.963,4.617-4.961,1.514-7,3c-1.845,2.122-0.918,2.733-4,4c0,0-20.139-0.799-22-2
	c-1.889-1.816-2.424-2.642-3-6c-1,0-2,0-3,0c-1.839-2.789-3.185-2.825-4-7c0.752-1.073,0.601-0.946,1-3
	c-1.516-0.536-1.693-0.675-4-1c-1.413,1.695-2.83,2.058-5,3c0.797,2.722,0.546,2.91,0,6c-5.012,1.969-6.549,4.22-11,4
	c-13.077-30.038-16.604-68.592-35-93c-3.761-4.99-9.624-17.266-16-19c-2.456,2.146-7.836,2.207-9,3c-0.752,1.073-0.601,0.946-1,3
	c-8.104,1.166-11.778,4.859-20,6c0,1,0,2,0,3c-1.191,0.868-1.125,0.822-2,2c-0.667,0-1.333,0-2,0c-1.878-2.825-3.881-4.317-8-5
	c-2.038-0.165-4.354,1.951-8,3c-1.97-5.214-5.884-5.167-7-12c2.302-1.917,3.952-3.742,5-7c-2.464-1.533-2.276-2.292-6-3
	c0,0.667,0,1.333,0,2c0.752,1.073,0.601,0.946,1,3c-0.333,0-0.667,0-1,0c-1.68-0.994-2.291-0.103-4-1c-5.152-2.125-3.961-7.378-8-10
	c-4.075,6.977-17.58-1.44-18-9c0.708-1.545,0.129-0.135,0-3c2.906,0.058,1.389,0.964,3,0c1.521-1.895,1.789-3.589,2-7
	c3.245-0.828,1.528,0.49,3-2c-5.086-3.551-1.798-8.123-1-14c-2.156-1.549-4.313-3.974-6-6c0.859-1.883,0.474-0.738,0-3
	c2.842-0.955,5.638-1.217,8-4c-2.006-1.396-2.066-1.346-3-4c1.458-0.787,3.728-1.898,5-3c-3.366-0.737-2.874,0.614-4-2
	c6.248,0.324,10.652-2.678,8-10c2.329-0.294,2.477-0.451,4-1c-0.333-1.333-0.667-2.667-1-4c4.599-0.033,3.198-1.756,6-6
	c1.895,1.521,3.589,1.789,7,2c1.225-2.281,1.638-2.251,2-6c0.074-0.426-2.791-12.366-4-14c-1.073-0.751-0.946-0.601-3-1
	c-0.708,2.347-1.025,2.234-2,4c-0.333,0-0.667,0-1,0c-0.877-2.72-1.707-2.938-3-5c2.302-1.384,5.829-3.185,8-5
	c-2.199-1.219-1.64-3.972-2-9c4.472-3.572,10.229-11.931,13-17c3.519,2.453,1.388,2.98,5,5c-1.6,2.877-2.656,6.301-4,10
	c0.667,0,1.333,0,2,0c4.685-2.859,12.953,3.531,20,5c4.579,0.955,5.291-4.596,12-3c3.666,1,7.334,2,11,3c0,0,16.724-8.539,18-10
	c0.979-1.122-0.121-3.047,1-4c4.221-3.589,8.966-1.84,10-9c0.822-1.153,0.47-1.24,1-4c8.095-1.694,4.304-7.003,18-7
	c3.146-13.177,9.732-21.256,15-34c11.795,5.1,22.758,4.746,31,5c0,1.333,0,2.667,0,4c9.606,0.383,14.603-0.221,23-2
	c1.35,1.624,0.64,1.121,3,2c-0.058,2.906-0.964,1.389,0,3c4.167,2.844,5.623-1.044,11,1c0.719,0.273,2.57,3.813,3,4
	c1.724,0.75,1.663-0.869,2-1c5.148-2.198,9.034-8.945,17-12c1.681,1.27,9.01,5.664,14,6c4.553-4.259,18.766-6.148,22-10
	c3.025-3.604-1.61-4.278,4-6c0-1,0-2,0-3c-8.132-0.471-8.854-5.105-17-6c-0.806-5.473-1.358-5.98-1-12
	c8.264-5.328,16.828-17.204,18-29c-1,0-2,0-3,0c-0.057-3.297-1.29-2.331-3-6c3.322-1.702,2.547-4.737,5-7
	c2.099-1.936,5.821-2.195,8-4c-2.439-4.388-0.745-13.158,0-17c-1.519-1.02-1.967-1.498-3-3c-7.077,3.121-14.023-6.125-15-1
	c0-1,0-2,0-3c0.589-0.962,0.107-1.913,0-5c3.449,0.066,4.134,0.162,4-6c-3.484-2.844-2.5-5.136-7-7c-1.755-1.061-2.183-0.602-5-1
	c0.368-2.09-0.905-5.094,0-7c1.098-3.435,1.13,0.499,2-3c-1.891-2.267-2.877-4.99-5-7c2.003-2.622,3.105-1.815,4-6
	c-1.625-1.573-2.326-4.545-4-6c-2.609-2.267-5.599-3.578-8-6c2.768-1.686,3.509-4.204,5-7c-3.886-2.477-3.823-4.384-6-9
	c1.333,0,2.667,0,4,0c1.216-0.745,0.992-0.137,4,0c0.905-5.083,4.709-6.133,6-10c0.276-0.828-0.552-3.396,0-5
	c2.53-0.387,1.578,0.581,2-3c-2.59,0.175-3.26-2.932-4-7c1.754-0.631,0.971-0.193,2-1c-2.575-0.932-4.264-0.176-6-4
	c2.467-1.294,0.681,0.429,2-2c-1.333-0.333-2.667-0.667-4-1c0.046,2.976,1.184,3.448-4,4c-2.771-1.836-12.154-1.796-14-5
	c-2.542-1.475-2.006-2.119-2-6c-2.598,0.036-2.274,1.298-4-2c1.215-1.774,0.015-1.749,1-3c5.529-5.7,10.807-5.662,16-11
	c2.283,0.778,3.401,1.246,4,2c0.804-1.021,0.355-0.274,1-2c-1.754-0.631-0.972-0.193-2-1c4.266-2.097,2.513-10.425,2-11
	c-3.616-2.806-7.836-3.738-10-8c0.333,0,0.667,0,1,0c1.956-4.935,8.888-5.816,12-10c-0.667-0.333-1.333-0.667-2-1
	c-1.24-1.038-8.116-1.608-10-5c-1.262-1.359-1.365-1.768-2-4c1.333,0,2.667,0,4,0c-0.164-10.655,0.851-8.833,4-17
	c0.667,0,1.333,0,2,0c1.588,2.95,2.075,5.721,2,11c1.673,2.711,0.867,7.964,1,12c4.004,0.982,4.146,3.039,7,5c0-1,0-2,0-3
	c-2.39-3.703-0.954-23.998-1-28c2.448-0.85,6.184-1.039,10-1c1.992-1.337,6.507-1.104,10-1c-0.065-3.562,0.214-6.774,1-9
	c3.558,0.5,3.591,0.261,8,0c0,0.333,0,0.667,0,1c0.333,0,0.667,0,1,0c-0.094,3.09-0.141,6.33,1,8c0-2,0-4,0-6c1.667,0,3.333,0,5,0
	c0.018-3.823-0.433-6.27-1-9c9.638,0.026,4.998-2.251,8-6c0.119-0.148,6.041,1.511,8-2c0.777-1.194,1.197-4.815,2-6
	c0,0.333,0,0.667,0,1c1.43,2.085,0.627,3.563,3,5c0-1,0-2,0-3c2.667,0,5.333,0,8,0c-0.117-3.28-0.236-7.184,1-9
	c-0.195,4.148-0.602,6.426,2,8c0.333-0.667,0.667-1.333,1-2c0.777-1.194,1.197-4.815,2-6c0.195,2.328,0.193,2.826,1,4
	c2.706-2.969,21.099-6.027,24-6c0-1.333,0-2.667,0-4c0.333,0,0.667,0,1,0c0.631,1.754,0.193,0.971,1,2c1.335-5.429,3.45-2.038,5-5
	c1.065-1.673-0.262-5.798,1-8c0.807-1.408,2.064-0.394,3-3c0.333,0,0.667,0,1,0c0.372,2.076,0.242,1.925,1,3
	c0.732-4.802,4.694-6.58,8-11c0.333,0,0.667,0,1,0c0,0.333,0,0.667,0,1c1.659,2.453,0.616,5.25,0,8c2.616-0.007,0.883-1.296,3,1
	c0.931,1.59-0.97,3.1,2,5c0-1.333,0-2.667,0-4c0.877-1.295,0.895-2.467,1-5c1.333,0,2.667,0,4,0c0.258,5.427,0.042,7.408,0,14
	c0.333,0,0.667,0,1,0c1.816-1.889,2.642-2.424,6-3c0.068-2.856,0.391-4.279,1-6c1,0.333,2,0.667,3,1c-0.125-4.543,0.098-9.37,2-12
	c-0.147,3.872-0.537,9.715,1,12c1.18-0.803,1.681-0.773,4-1c-0.037-5.689,1.015-8.7,2-13c-0.667,0-1.333,0-2,0
	c0.072,4.166-0.229,6.829-2,9c0-2.667,0-5.333,0-8c-6.903,0.406-6.365,3.246-13,4c-0.257-14.654,2.434-25.784,5-38
	c3.742,0.009,3.387-0.723,8,0c0.195,2.328,0.192,2.826,1,4c1.466-2.525,0.44-1.544,4-2C1039.525,134.31,1040.711,122.055,1040,145z
	 M980,141c1.779,2.509,1.757,13.488,0,16C980,151.667,980,146.333,980,141z M971,150c1.83,2.593,1.808,14.403,0,17
	C971,161.334,971,155.666,971,150z M915,151c0.667,0,1.333,0,2,0c0.333,5.333,0.667,10.667,1,16c-0.333,0-0.667,0-1,0
	c0,0.333,0,0.667,0,1c-0.804-1.021-0.355-0.274-1-2C914.146,163.189,914.872,155.513,915,151z M961,159c0,5.333,0,10.667,0,16
	c-0.667,0-1.333,0-2,0c-1.352-2.579-0.978-0.794-4-2c-0.417,3.58,0.472,2.516-2,4c0-0.333,0-0.667,0-1
	c-2.256-3.292-1.254-14.57,0-18c0.333,0,0.667,0,1,0c0.372,2.076,0.242,1.925,1,3c0.161-2.612,0.43-3.395,1-5
	c1.754,0.631,0.971,0.193,2,1C959.972,158.479,957.44,158.425,961,159z M964,156c1.779,2.509,1.757,13.488,0,16
	C964,166.667,964,161.333,964,156z M1023,157c1.263,1.786,1.224,4.218,0,6C1023,161,1023,159,1023,157z M1002,162
	c0.751,1.073,0.601,0.946,1,3c-0.333,0-0.667,0-1,0C1002,164,1002,163,1002,162z M915,177c0.333,5.666,0.667,11.334,1,17
	c-0.667,0-1.333,0-2,0c-2.239-1.4-3.276-0.545-6,0c0.316,6.342-0.031,10.917-4,13c0-0.333,0-0.667,0-1
	c-5.747-7.459,0.042-21.748,1-29C908.584,177.498,909.961,177.127,915,177z M972,177c0.804,1.021,0.355,0.274,1,2
	c-0.333,0-0.667,0-1,0C972,178.333,972,177.667,972,177z M882,199c2.104,1.808,2.002,2.919,2,7c1.337,1.992,1.104,6.507,1,10
	c-0.667,0-1.333,0-2,0c0-0.333,0-0.667,0-1c-1.541-2.312-1.119-8.105-1-12C880.882,201.017,881.404,201.192,882,199z M1107,208
	c-0.333,2.667-0.667,5.333-1,8c-2.393,1.337-4.267,3.044-6,5c-0.333,0-0.667,0-1,0c1.658-5.073,4.725-6.71,6-13
	C1105.667,208,1106.333,208,1107,208z M1292,635c-0.113,6.004,3.756,38.466,8,42c-0.342,9.341-5,7.631-8,13
	c-1.305,2.336-0.618,5.113-2,7c0,1,0,2,0,3c2.293-1.159,3.31-2.199,6-3c2.822,8.475-5.837,8.366-6,23
	c-10.919,4.839-18.206,15.575-28,22c0.355,3.64,1.481,5.587,0,8c0.148,14.331-7.525,11.296-13,19c-6.536,0.245-13.918,1.487-19-2
	c-1.726-0.645-0.979-0.196-2-1c11.374-2.371,23.069-8.311,28-17c2.369-4.174,0.911-12.291,4-16c1.368-1.643,4.654-2.191,6-4
	c6.121-8.228,10.734-17.075,19-23c0-2,0-4,0-6c-4.375,2.792-7.421,6.388-10,11c-0.667,0-1.333,0-2,0c1.551-5.807,6.226-6.956,8-11
	c0.85-1.938-0.888-4.9-1-7c1.535-2.476,5.851-5.5,7-8c0.333-7,0.667-14,1-21c3.319-13.208,2.205-17.391,1-31
	C1290,633.667,1291,634.333,1292,635z M765,737c0,0.667,0,1.333,0,2c-0.667,0-1.333,0-2,0c0-0.667,0-1.333,0-2
	C763.667,737,764.333,737,765,737z"/>
<path fill-rule="evenodd" clip-rule="evenodd" fill="#ED1F24" stroke="#000000" stroke-width="2" stroke-miterlimit="10" d="M858,90
	c-0.333-3-0.667-6-1-9c0.667,0,1.333,0,2,0c-0.06,2.903-0.048,5.469,1,7c0-2.667,0-5.333,0-8c1.333,0,2.667,0,4,0
	c0.652,1.875,0.952,3.913,1,7c2.946,4.489,0.206,13.901,0,20c-0.667,0.333-1.333,0.667-2,1c-2.522,2.023-6.21,2.095-11,2
	c-0.65-1.257-1.089-2.071-2-3c-2.965,4.581-10.656,5.657-13,3c-0.913-0.932-1.331-1.755-2-3c-0.333,0-0.667,0-1,0c0,1,0,2,0,3
	c1.077,1.738,1.035,2.271,0,4c-0.828-3.245,0.49-1.528-2-3c-0.068,2.856-0.391,4.279-1,6c-2.844-1.381-4.759-1.799-5-2
	c-0.798-0.98-1.446-2.743-2-4c-2.722,0.797-2.91,0.546-6,0c-0.245-2.739-0.722-5.314-2-7c-0.294,2.329-0.451,2.477-1,4
	c-3.7-0.616-3.57-0.521-7-1c-0.482-2.473-0.862-3.684-1-7c-1.333,0-2.667,0-4,0c-0.909,1.083,0.078,0.085-1,1
	c0.007,2.72-0.039,4.598-1,6c-1.073,0.752-0.946,0.601-3,1c-1.942-3.266-3.278-5.273-8-6c-0.457-9.437-4.065-18.616,1-26
	c2.135,1.427,21.323,3.277,22,3c0.086-0.035,1.489-2.229,4-3c0.2,5.089,1.358,10.426,3,14c0.333,0,0.667,0,1,0
	c-0.133-4.026-0.543-5.468,2-7c1.021,0.804,0.274,0.355,2,1c0-1,0-2,0-3c3.899,0.444,4.731,1.309,7,3c0-1.667,0-3.333,0-5
	c3.651,0.236,11.545,0.364,14-1c2.372-2.072,1.471-2.523,6-3c0.909,1.083-0.078,0.085,1,1c0.07,4.613,0.679,10.282,2,14
	C856,90,857,90,858,90z M829,79c0.804,1.021,0.355,0.274,1,2c-0.333,0-0.667,0-1,0C829,80.333,829,79.667,829,79z M682,249
	c1.333,0,2.667,0,4,0c0,0.333,0,0.667,0,1c0.333,0,0.667,0,1,0c0.753,6.116,3.343,8.717,4,15c8.403,1.866,24.497,11.005,26,20
	c-3.088-0.008-2.395,0.258-4,4c-0.667-0.333-1.333-0.667-2-1c0,0.333,0,0.667,0,1c-0.333,0-0.667,0-1,0c0.979,2.67,1.282,1.718,2,5
	c1,0,2,0,3,0c0.15,4.131,0.483,5.306-1,7c-3.568,3.467-7.828,3.905-9,10c-0.708,1.545-0.129,0.135,0,3c1.802-0.265,3.76-0.635,6,1
	c-2.181,1.961-0.982,2.698-2,4c-2.401,1.5-2.376-1.236-4,2c1.118,1.982,0.596,1.808,0,4c-6.693-0.047-15.249,2.845-16,9
	c-7.443,0.474-13.495,3.76-20,6c-1.003,0.346-1.984-2.151-4-1c-2.034,1.162-6.141,8.76-9,6c-1.256,1.617-1.278,3.979-3,5
	c-5.593,3.318-14.393,2.166-20,5c-2.383,1.205-2.175,4.489-4,6c-2.25,1.863-9.423,3.271-12,4c-1.012-3.676-0.657-3.518-5-4
	c-1.877,3.18-4.218,1.867-7,4c-3.35,2.568-7.449,10.262-9,14c2.468,1.294,0.681-0.429,2,2c-9.985,5.62-14.386,12.145-21,21
	c-1,0.333-2,0.667-3,1c-1.194,1.963,1.277,4.285,1,5c-0.928,2.394-5.374,4.029-6,7c-0.219,1.041,2.176,2.029,1,4
	c-0.986,1.654-4.639,1.634-6,3c-1.597,1.603-7.286,10.817-8,13c-3.85-0.28-4.162,2.149-9,1c-7.651-1.816-15.463-7.533-20-9
	c-4.803-1.553-8.061,5.274-11,4c-2.493-0.684-1.856-2.357-3-1c-2.298,1.605-1.51,2.142-5,3c-4.719-4.463-6.427,3.47-13,1
	c-1.57-0.59-3.018-4.373-5-5c-3.656-1.156-4.365,1.354-7,0c-0.752-1.073-0.601-0.945-1-3c2.468-1.294,0.681,0.429,2-2
	c-1-0.333-2-0.667-3-1c-2.059-0.678-7.641-0.247-11,1c-1.628-0.831-0.87-1.567-4-2c-1.437,2.421-2.496,3.592-5,5
	c2.673,4.579,1.662,2.774,3,8c-3.141-0.363,0.079,0.279-3,1c0,0.333,0,0.667,0,1c-0.333,0-0.667,0-1,0c0-0.333,0-0.667,0-1
	c-0.333,0-0.667,0-1,0c0.333-0.667,0.667-1.333,1-2c-0.333,0-0.667,0-1,0c-3.342,2.864-8.347,5.719-13,7c0-0.333,0-0.667,0-1
	c0.803-1.18,0.773-1.681,1-4c-3.387,0.575-3.91,2.508-6,3c-5.605,1.321-11.365-2.322-15,0c-4.104,2.621-3.63,7.988-9,10
	c0-0.333,0-0.667,0-1c-0.804-1.021-0.355-0.274-1-2c2.067-1.183,1.882-0.684,3-3c-1.281-1.662-2.315-4.689-2-5c0.667-1,1.333-2,2-3
	c-1.824-0.982-2.541-1.844-4-3c6.461-10.12,17.829-13.531,19-27c-2.249-1.471-1.764-2.994-2-7c-11.843-0.136-13.683,14.161-27,12
	c-0.075,3.042-0.756,2.745,0,4c0.333,1,0.667,2,1,3c1.766-0.961,1.68-1.257,4-2c0,0.333,0,0.667,0,1c-5.556,3.403-6.244,5.67-8,11
	c-2.667-1-5.333-2-8-3c-2.086,3.922-7.024,5.288-12,6c-3.579-4.795-5.622-1.699-8-3c-4.235-2.318-5.199-9.577-9-12
	c-0.814-0.519-4.048-0.208-5-1c-2.053-2.851-1.034-6.539-4-8c-6.09,10.16-8.573,1.127-14,4c0,0.667,0,1.333,0,2
	c-2.966,2.581-4.961,4.354-10,5c-1.351-2.942-2.786-2.697-4-6c3.294-3.444,1.67-9.176,0-13c-5.813,3.812-9.899,3.259-15-1
	c-0.417,3.58,0.472,2.516-2,4c-0.631-1.754-0.193-0.971-1-2c1.655-3.624,2.806-4.497,3-10c-0.667,0-1.333,0-2,0
	c-5.618,4.617-8.331,2.021-13,0c-3.388-1.467-6.761,2.629-8,2c-0.678-0.344-1.275-2.405-2-3c-1.35,1.624-0.64,1.121-3,2
	c-0.068-2.856-0.391-4.279-1-6c-6.14,1.599-13.161,5.854-18,10c-2.847-1.135-6.759-2.392-10-2c-3.088,0.374-7.7,1.624-9,1
	c-1.151-1.172-1.839-2.836-3-4c0,0.333,0,0.667,0,1c-7.908,3.757-6.12,9.637-9,14c-2.666,4.037-8.215,5.777-11,10
	c-2.834-1.314-4.55-0.875-6-3c1.495-1.624,1.552-2.023,2-5c-2.63-1.573-4.142-2.412-5-6c3.211-1.6,3.573-1.343,4-6
	c-2.411-2.359-1.548-5.497-1-9c7.194-3.669,8.674-9.432,13-16c3.333-2.333,6.667-4.667,10-7c1.364-2.186,0.372-5.091,2-7
	c4.01-4.7,10.466-1.228,14-7c-0.859-1.883-0.474-0.738,0-3c7.632-3.529,10.897-8.925,17-13c2.488-1.661,5.055-0.436,8-2
	c4.183-2.222,3.946-6.686,10-8c1.143,1.195,2.545,2.119,4,3c-1.928-3.816-4.76-5.661-7-9c0.667,0,1.333,0,2,0
	c2.341,3.648,6.37,7.637,10,10c0,0.667,0,1.333,0,2c-4.165,1.672-4.449,5.952-6,10c0.667,0,1.333,0,2,0c1.179-0.803,1.681-0.773,4-1
	c1.332-6.616,4.845-6.773,5-16c-0.333,0-0.667,0-1,0c-1.35,1.624-0.64,1.121-3,2c-1.857-5.365-7.036-7.616-10-12
	c0.333,0,0.667,0,1,0c0-0.333,0-0.667,0-1c4.078,2.74,6.011,7.216,11,9c-1.303-4.675,0.473-4.038,2-8c-1.624-1.35-1.121-0.64-2-3
	c16.962-3.788,53.209-11.427,65-20c6.128-4.456,5.384-13.91,10-20c2.232-2.946,7.848-1.906,11-4c3.3-2.193,3.851-7.709,7-10
	c1.983-1.442,4.662-1.011,6-3c1.617-2.403,0.73-4.435,3-6c8.648-5.963,16.559-7.291,24-13c6.286-4.823,9.995-15.036,17-19
	c6.333-1.667,12.667-3.333,19-5c5.274-4.972,6.56-15.295,13-19c8.571-4.931,32.952-9.426,37-8c0.333,1,0.667,2,1,3
	c2.926-0.815,4.806-1.44,7-1c2.465,4.667,12.734,19.504,2,22c-0.087-0.097-1.313-2.886-2-2c0,0.333,0,0.667,0,1
	c-0.565,0.713-1.442,0.042-1,2c0.333,0,0.667,0,1,0c2.959,9.054,7.869,16.529,4,28c-0.288,0.854-2.732,3.146-3,4
	c-1.471,4.681,1.515,8.917,2,11c0.173,0.743-2.74,4.126-3,5c0,2.333,0,4.667,0,7c-1.622,3.422-10.979,10.865-14,14
	c0.804,1.021,0.355,0.274,1,2c1.516,0.536,1.693,0.675,4,1c1.796-3.289,4.402-3.841,6-7c0.885-1.405,1.085-5.607,2-7
	c6.221-6.12,18.335-8.542,23-16c0.667-3.333,1.333-6.667,2-10c0.333,0,0.667,0,1,0c0,0.333,0,0.667,0,1
	c8.854,8.842,17.687,18.221,16,32c0.333,0,0.667,0,1,0c0-0.333,0-0.667,0-1c0.333,0,0.667,0,1,0c0.742-0.428,2.87,1.911,7,1
	c3.763-0.83,8.469-2.518,13-3c-0.727-7.663-5.141-9.187-6-17c6.316-4.271,8.309-9.537,19-10c4.092,6.977,9.658,15.458,8,25
	c1.333,0,2.667,0,4,0c4.963-3.495,12.819-1.245,18,0c1.074,3.835,4.09,9.748,7,12c-1.333-3-2.667-6-4-9c0.667,0,1.333,0,2,0
	c0,0.667,0,1.333,0,2c3.471,4.046,1.869,9.186,9,10c0.044-4.716,5.067-3.549,12-3c1.69-1.142,4.896-1.066,8-1
	c1.643,2.875,3.073,5.074,4,9c0.667,0,1.333,0,2,0c0-0.667,0-1.333,0-2c-3.342-4.196-3.73-11.371-4-17c0.333,0,0.667,0,1,0
	c0,0.333,0,0.667,0,1c2.968,3.704,5.256,10.49,6,16c1.667-0.333,3.333-0.667,5-1c0.599-1.725,0.89-3.152,1-6
	c3.145-4.477-0.678-15.937-3-19c-1.345-1.04-3.409-0.938-5-2c-0.887-0.592-1.288-3.543-2-4c-1.667,0.333-3.333,0.667-5,1
	c-1.001-0.619-1.115-4.075-2-5c-11.153-11.661-11.229-21.627-8-38c2.554-1.606,5.025-5.074,8-6c4.252-1.324,6.3,1.631,12-2
	c2.641-1.683,3.467-6.772,6-8c2,0,4,0,6,0c1.714-0.788,3.804-4.274,6-5c3.655-1.208,5.942,1.098,10-2c0.777-1.194,1.197-4.815,2-6
	c2.511,1.279,27.108-8.652,29-10c3.247-2.313,2.5-6.259,7-8c3.252,3.019,23.668-4.219,30-9c1.143,1.195,2.545,2.119,4,3
	c0.333-1,0.667-2,1-3c2.233-0.332,2.494,1.74,4,2c2.625,0.453,1.89-1.675,3-2c4.647-1.362,7.301,2.263,10,3
	c8.431,2.304,14.556-3.457,22-1c0.294-2.329,0.451-2.477,1-4c7.185-0.686,11.828-2.749,18,0c0.741,6.6,1.944,12.107,2,20
	c-5.238,2.162-10.501,5.904-17,8c-14.725,4.749-32.217,1.399-46,6c-5.156,1.721-6.071,4.97-11,7c-1.154,0.475-8.114-0.461-9,0
	c-0.333,1-0.667,2-1,3c-1.737,1.096-14.394,5.579-16,3c-1.551,2.578-6.611,11.629-11,7c-0.333,1-0.667,2-1,3
	c-1.928,1.288-6.611,2.439-8,1C703.313,222.778,682.196,224.503,682,249z M465,262c1.442,3.816,7.04,11.003,10,14
	c-2.944,2.03-8.774,0.943-12,3c-4.538,2.895-6.161,11.178-10,15c0,0.333,0,0.667,0,1c-1.133-1.761-0.154-4.263-1-7
	c-1.373-4.44-5.878-9.94-9-13c1.796-2.965,8.997-4.138,10-5c5.175-3.559,6.49-10.838,9-17C465.452,255.861,463.136,257.068,465,262z
	 M550,275c-1.601,4.182-5.156,5.174-8,8c-0.667,0-1.333,0-2,0c1.294-6.233,5.596-4.341,9-8C549.333,275,549.667,275,550,275z
	 M510,278c-0.333,1-0.667,2-1,3c-1,0.333-2,0.667-3,1c-0.669-1.245-1.087-2.068-2-3c1.162-2.223,1.448-1.505,3-3
	C508,276.667,509,277.333,510,278z M429,293c-0.581-0.549-2.328-0.616-2-2C427.276,291.301,429.699,291.937,429,293z M294,316
	c3.979,1.555,8.953,6.535,10,11c-0.333,0-0.667,0-1,0c0-0.333,0-0.667,0-1C299.571,323.847,295.42,320.146,294,316z M175,352
	c3.057,0.42,8.554,1.236,10,2c4.286,2.587,11.191,6.948,12,13c-3.186,4.229-2.742,10.771-4,16c-4.866,2.126-6.792,5.819-12,7
	c-2.26-3.1-4.943-3.678-8-6c-6.969-5.294-6.247-15.741-6-26C170.461,356.456,173.002,355.02,175,352z M301,337c-2,0.333-4,0.667-6,1
	c0-0.333,0-0.667,0-1c1.562-1.964,2.367-5.154,3-8c2.846-1.425,4.31-1.785,6-3c0.934-1.596,0.329-2.764,1-5c0.333,0,0.667,0,1,0
	c0,2.667,0,5.333,0,8C303.412,330.889,301.692,333.111,301,337z"/>
<path fill-rule="evenodd" clip-rule="evenodd" fill="#ED1F24" stroke="#000000" stroke-width="2" stroke-miterlimit="10" d="
	M1390,54c0.804,1.021,0.355,0.274,1,2c-0.333,0-0.667,0-1,0C1390,55.333,1390,54.667,1390,54z M1389,56c0.804,1.021,0.355,0.274,1,2
	c-0.333,0-0.667,0-1,0C1389,57.333,1389,56.667,1389,56z M1388,59c0.804,1.021,0.355,0.274,1,2c-0.333,0-0.667,0-1,0
	C1388,60.333,1388,59.667,1388,59z M1393,59c10.569-0.045,18.213,7.62,19,17c-3.03,3.237-5.039,8.861-7,13
	c-8.61-3.03-14.15-6.491-20-12C1386.489,70.531,1389.982,64.28,1393,59z M1387,61c0.804,1.021,0.355,0.274,1,2c-0.333,0-0.667,0-1,0
	C1387,62.333,1387,61.667,1387,61z M1386,63c0.804,1.021,0.355,0.274,1,2c-0.333,0-0.667,0-1,0C1386,64.333,1386,63.667,1386,63z
	 M1385,65c0.804,1.021,0.355,0.274,1,2c-0.333,0-0.667,0-1,0C1385,66.333,1385,65.667,1385,65z M1787,840
	c-2.739,0.245-5.314,0.722-7,2c-2.316,0.914-2.897,1.858-5,3c-0.161,2.612-0.431,3.395-1,5c2.328,0.195,2.826,0.193,4,1
	c-3.245,0.828-1.528-0.49-3,2c0.751,1.073,0.601,0.946,1,3c-1.333,0-2.667,0-4,0c-0.909,1.083,0.078,0.084-1,1
	c0.973,2.344,4.386,7.466,2,10c-3.206,2.126-10.529,2.726-15,3c-1.457-2.125-2.839-2.499-4-5c-0.751-1.073-0.601-0.946-1-3
	c-2.329-0.294-2.477-0.451-4-1c1.727-4.354,3.746-6.601,6-10c-1.763-2.335-1.824-12.833-5-17c-1.126-1.478-4.081-3.267-5-5
	c-1.333-4-2.667-8-4-12c-4.246-6.756-12.652-9.303-13-20c6.347-3.541,1.477-9,4-17c4.169-0.312,14.176-2.015,16-5
	c-4.67-5.011-1.362-8.914-4-17c-3.477-10.659-6.479-21.507-12-33c-0.667-3-1.333-6-2-9c-1-0.667-2-1.333-3-2
	c-3.58-8.596,6.965-17.247-7-20c-1.063,2.061-3.6,6.653-4,9c-0.551,3.228,2.069,4.511,1,7c-6.719,8.397-17.317,16.926-31,18
	c-2.071-3.071-7.948-5.233-9-7c-1.304-2.19,0.267-5.129-1-7c-3.318-4.9-6.242-2.086-10-11c-10.541,2.333-7.88-1.486-16-4
	c-5.789-1.792-21.702,4.108-29,5c-16.387-16.801-31.523-35.324-50-50c-3.645-2.896-5.397-9.076-9-12c-2.048-1.662-4.574-0.408-7-2
	c-2.324-1.526-0.597-3.544-4-5c-1.295-0.877-2.467-0.895-5-1c0-1,0-2,0-3c-0.667,0-1.333,0-2,0c-4.811-2.253-10.881,3.638-18,2
	c-2.776-0.639-9.279-4.443-14-3c-4.314,1.318-7.004,5.534-12,7c0-0.333,0-0.667,0-1c2.639-1.62,2.438-0.75,2-3
	c-3.892-11.649-14.893-10.618-17-24c1,0,2,0,3,0c0.333-1.333,0.667-2.667,1-4c-4.982-0.71-5.263-2.299-7-6c-1,0.667-2,1.333-3,2
	c0-0.667,0-1.333,0-2c-1.582-2.604-1.281-9.467-1-12c-4.435-0.242-2.994-5.669-8-8c-1.073-0.751-0.946-0.601-3-1
	c0,1.333,0,2.667,0,4c-0.333,0-0.667,0-1,0c0,0.333,0,0.667,0,1c-1,0-2,0-3,0c0-1,0-2,0-3c-4.292-3.275-4.006-8.155-11-9
	c-2.988,3.836-5.327,6.675-11,8c-0.854-3.279-2.005-3.948-3-7c0.628-0.575,2.522-2.858,4-5c-4.308-0.787-4.308-0.939-6-4
	c-2.252,0.876-2.58,1.779-4,1c-3.188-1.89-3.38-3.843-8-5c0-1.667,0-3.333,0-5c-1,0-2,0-3,0c-2.292-6.921-8.942-7.554-10-15
	c-1.333,0-2.667,0-4,0c0,0.333,0,0.667,0,1c0.333,0,0.667,0,1,0c1.923,0.775-2,1-2,1c-2.126-6.225-8.75-16.352-13-21
	c0.333-0.667,0.667-1.333,1-2c-2.333-0.667-4.667-1.333-7-2c-0.333-1.667-0.667-3.333-1-5c-4.034-5.543-6.501-9.376-9-15
	c-4.39-0.229-9.833-2.821-11-2c-2.713,2.959,0.433,2.973-4,4c-2.034-0.924-3.169,0.543-8,1c-1.541-2.873-4.598-5.579-6-8
	c-0.222-0.384,0.909-3.596,0-5c-3.041,0.821-6.879-3.86-11-5c-2.489-0.688-3.707,0.991-5,1c-1.118,0.008-7.574-3.994-10-3
	c-0.98,0.401,0.834,2.064-4,3c-0.222,4.176-0.183,3.352,0,8c-3.07,1.378-2.906-0.138-3,6c0.053,5.001-5.826,11.335-7,15
	c-1.058,3.301,3.848,7.452,1,11c-0.922,1.149-3.871,0.964-5,2c0,0-2.675,5.333-3,6c0.097,0.087,2.886,1.313,2,2
	c-0.333,0-0.667,0-1,0c-1.021,0.804-0.274,0.355-2,1c-0.396-3.454-1.154-5.126-3-7c0.708-2.347,1.024-2.234,2-4
	c-0.333,0-0.667,0-1,0c-1.801-1.155-3.022-0.341-4-1c-0.798-0.98-1.446-2.744-2-4c-1.376,1.551-0.557,4.187-2,6
	c-2.586,3.25-14.032,4.431-18,6c0.263,5.232-0.978,8.204-9,8c-0.719,0.683-3.457-0.465-4-1c-3.185-3.032-4.425-5.018-9-7
	c1.727-8.021,0.399-15.323-1-23c-1.976-10.838,4.111-14.539,2-26c-1,0-2,0-3,0c-4.346,1.985-2.42-1.202-5-3
	c-0.063-0.044-2.627,1.093-4,1c-1.337-8.543-7.277-7.846-8-17c2.022-1.737,1.868-2.146,2-6c-2.661-2.17-1.908-3.905-6-5
	c-1.953,1.751-2.979,1.075-4,2c-0.804-1.021-0.355-0.274-1-2c-2.829-3.537-1.354-6.83,1-10c-9.816-5.119-6.886-15.018-23-15
	c-1.725-0.787-0.528,1.511-3,0c-0.752-1.073-0.602-0.945-1-3c0.913-0.932,1.331-1.755,2-3c1,0,2,0,3,0c-0.401-3.162-0.985-3.795-2-6
	c-2.266,0.4-1.084,0.918-3,0c-2.203-3.057-0.266-3.946-5-5c-5.437,4.395-16.337-0.456-23-3c-1.317,3.361-1.541,2.898-6,3
	c-0.384-2.617,0.743-1.31-2-2c-1.545,0.708-0.135,0.129-3,0c0.65-6.174,1.44-8.598-1-13c2.918-1.428,5.875-9.489,8-12
	c-1.247-0.463-6.702-1.619-7-2c-3.331-4.266-0.036-11.048-9-12c-0.333-3.333-0.667-6.667-1-10c-1.719-1.273-4-6-4-6
	c-3.824-2.604-6.175-0.581-9-3c2.856-0.068,4.279-0.391,6-1c-0.828-5.017,3.639-4.093,4-6c0.597-4.5-1.708-7.668-3-11
	c-6.906-17.803-5.251-23.911-21-34c0.536-1.516,0.675-1.693,1-4c0.667,0,1.333,0,2,0c4.504,2.068,11.225-4.424,13-8
	c4.822-0.606,7.436-0.852,9,1c0.872-0.74,1.128-1.26,2-2c-1.138-5.151-2.542-7.788-4-12c0.667,0,1.333,0,2,0
	c1.397-1.253,2.392,0.394,4-3c-3.668-0.692-2.733,0.044-4-3c4.513-2.792,12.697-8.097,15-13c-0.708-1.545-0.129-0.135,0-3
	c-5.234-0.623-3.119-0.916-8-2c0-1,0-2,0-3c-4.546-2.079-4.399-7.263-8-10c-1.595-1.212-5.213-3.618-7-4c-1,0.333-2,0.667-3,1
	c-1.898-1.07,0.488-2.552,0-3c-5.66-5.193-7.061-5.188-10-12c-3.042,0.075-2.744,0.756-4,0c-0.708-1.545-0.129-0.135,0-3
	c-2.328-0.195-2.826-0.193-4-1c1.333,0,2.667,0,4,0c0.395-3.711,0.577-2.953,2-5c-3.136-0.552-2.434-0.21-4-2
	c1.083-0.909,0.085,0.078,1-1c2.934,0.434,5.014,1.868,8,0c0.803-1.179,0.773-1.681,1-4c2.076,0.372,1.924,0.242,3,1
	c4.756,1.439,5.264,3.74,8,7c0-0.667,0-1.333,0-2c6.098-2.932,2.506-13.672,8-17c0,1.333,0,2.667,0,4c-1.815,2.51-2.578,7.313-3,11
	c0.667,0,1.333,0,2,0c4.466-5.084,21.023-5.123,29-6c0.333,1,0.667,2,1,3c0.803,1.179,0.773,1.681,1,4c2.667,0,5.333,0,8,0
	c0.181-0.085,1.239-2.958,2-3c3.507-0.195,5.351,2.64,10,3c0.159-8.746,3.904-16.707,7-23c0.667,0,1.333,0,2,0c0,1,0,2,0,3
	c6.676-0.022,15.587,1.801,18,1c1.112-0.369,3.188-3.561,5-4c2.667,1,5.333,2,8,3c13.06,4.226,9.983,0,18,10
	c0.105,0.131,6.332,2.202,8,4c0.333,1.667,0.667,3.333,1,5c1.95,2.682,6.233,1.574,8,5c-0.251,0.968-0.784,0.379,0,1
	c0.932,0.913,1.755,1.331,3,2c0-1,0-2,0-3c3.245,0.828,1.528-0.49,3,2c-0.752,1.073-0.602,0.946-1,3c1.333,0.333,2.667,0.667,4,1
	c0-0.333,0-0.667,0-1c-2.529-3.236,2.028-17.831,8-19c1.021,0.804,0.274,0.355,2,1c-0.392,2.933-1.636,1.253,1,3
	c2.475,2.288,6.295,2.9,11,3c2.167-5.688,3.425-7.672,9-10c0-0.333,0-0.667,0-1c-0.333,0-0.667,0-1,0c-1.295-2.468,0.429-0.681-2-2
	c-1.466,2.525-0.44,1.544-4,2c-1.302-2.418-1.801-2.833-2-7c1.119-1.473,2.087-3.052,1-4c-1.44-1.157-3.666-1.744-5-3
	c2.006-2.484,3.188-6.438,4-10c-0.667,0-1.333,0-2,0c-2.857,2.518-13.415,5.135-17,6c1.702-5.874-2.099-5.771-3-12
	c5.189-7.181,1.783-16.225,15-16c5.852,3.419,11.909,0.522,13,9c-1.946,2.059-2.832,5.148-4,8c1,0,2,0,3,0
	c2.661-1.531,4.366,0.69,8-1c3.894-1.811,9.152-5.606,14-7c4-0.333,8-0.667,12-1c1.014-0.419,2.99-3.55,4-4
	c4.256-1.895,11.036-1.062,14,1c2.467,1.295,0.681-0.429,2,2c1.521,1.714-1.175,1.292,2,3c4.613-5.194,18.333-0.651,24,0
	c2.229-5.013,5.628-14.998,10-18c2-0.667,4-1.333,6-2c2.604-3.038,1.087-6.028,5-8c-0.4,2.266-0.918,1.084,0,3
	c1.595-2.25,1.638-2.097,3-2c0.333,0,0.667,0,1,0c-1.14,2.461-2.206,4.04-3,7c0.333,0,0.667,0,1,0c0-0.667,0-1.333,0-2
	c1.317-1.366,2.121-3.18,3-5c0.333,0,0.667,0,1,0c0,0.667,0,1.333,0,2c-1.68,1.713-2.668,3.692-2,5c3.711,2.639,13.907,7.664,18,9
	c1-3,2-6,3-9c-3.198-1.816-6.01-3.95-8-7c1.619-1.673,2.299-3.304,3-6c-2.962-0.639-3.69-0.595-5-3c5.013-4.104,4.42-9.506,3-15
	c1.967-4.818,5.65-10.03,8-15c6.178-0.696,3.7-2.844,7-5c1.858-1.214,15.663-1.91,19-3c3-1.333,6-2.667,9-4
	c1.413-1.676,0.955-5.049,3-6c0,0,10.202-0.894,11-1c3.76,5.436,9.722,5.05,15,9c1.224,0.916,1.596,4.049,3,5
	c2.872,1.946,12.62,5.682,14,5c4.022,2.903,8.966,6.339,13,9c0,0.667,0,1.333,0,2c-2.096,1.531-8.203,10.04-7,11
	c3.926,4.862,11.29,6.854,16,11c3.663,3.224,4.221,8.105,7,10c0.668,0.468,6.06-0.626,10,1c11.238,4.639,23.413,10.141,33,16
	c-1.122,2.091-1.435,1.832-2,5c9.02,8.524,16.064,18.322,24,28c5.212,6.356,14.019,10.412,19,17c5.798,7.668,10.511,13.988,19,19
	c0,0.667,0,1.333,0,2c-3.601,2.199-6.492,4.508-7,10c3.732,2.75,9.98,8.747,11,14c-0.667,0.333-1.333,0.667-2,1
	c-0.75,2.491,1.825,2.093,2,3c0.655,3.403-1.586,4.582-2,8c3.991,2.267,5.014,5.868,10,7c1-1.333,2-2.667,3-4
	c6.618,3.049,13.556,11.238,15,19c-2.25,1.594-2.098,1.638-2,3c2.51,4.155,6.37,6.102,9,10c2.825-1.647,3.424-2.611,8-3
	c3.333,4,6.667,8,10,12c7.82,5.701,19.858,5.583,22,17c-1.624,1.35-1.121,0.64-2,3c4.708,3.134,6.684,8.761,11,12
	c5.661,4.248,16.265,7.113,19,14c-0.333,3-0.667,6-1,9c2.702,10.028,16.182,21.544,25,26c-4.012,15.208,15.887,27.541,23,39
	c4.679,7.538,6,17.82,12,24c-0.631,1.754-0.193,0.972-1,2c-2.833,3.688-9.188,7.49-14,9c-3.328-4.94-9.333-5.737-13-10
	c-21.065-24.495-50.937-41.419-74-64c-3.667-3-7.333-6-11-9c-6.215-8.201-11.082-15.979-17-25c-1.913-2.916-11.028-7.192-12-9
	c0.333-1.667,0.667-3.333,1-5c-0.199-0.714-2.83-2.535-3-3c-0.904-2.466,1.596-3.063,0-6c-5.003-9.209-13.109-16.077-19-24
	c-7.311-9.833-12.894-20.145-21-29c-3.412,1.102-5.267,3.295-7,6c-1.758-1.081-3.618-2.515-5-4c-1,0.333-2,0.667-3,1
	c2.73,5.715,20.419,32.529,25,35c4.908,3.625,12.232-3.127,13,8c-3.337,6.516,0.116,17.41-4,24c-6.653,10.651-25.228,13.819-30,22
	c0.839,5.476-7.707,10.229-11,15c-2.962-0.753-3.826-1.724-6-3c-0.702,3.482-2.222,3.742-3,6c-3.04,8.821,4.435,14.812,6,20
	c0.333,4.333,0.667,8.667,1,13c1.37,2.77,5.901,6.228,7,9c-0.333,2.333-0.667,4.667-1,7c1.478,5.655,6.185,14.085,4,22
	c3.247,7.841,7.327,15.803,9,23c1.833,7.882-2.063,26.134,3,34c1.664-8.233,13.826-13.077,22-15c-1.573,4.61,1.514,10.944,3,13
	c0.713-0.565,0.042-1.442,2-1c0,0.333,0,0.667,0,1c-0.333,0-0.667,0-1,0c-2.381,2.441-5.45,3.678-7,7c0.333,0,0.667,0,1,0
	c2.278-2.325,5.12-3.193,9-4c0.587,2.245,0.748,2.655,2,4c0-0.333,0-0.667,0-1c5.219-3.379,9.736-8.815,16-11
	c2.745,2.37,12.472,6.491,16,8c0-1.667,0-3.333,0-5c-1.262-1.358-1.365-1.769-2-4c-3.514-1.979-7.179-4.163-11-6
	c0.603-1.901,0.702-5.529,1-6c1.728-2.39,12.515-10.527,14-9c6.509,3.778,5.864,6.398,10,10c9.039,7.873,19.954,13.208,27,23
	c3.182,4.422,4.236,10.228,8,14c3.665,3.673,8.99,5.667,13,9c8.68,7.215,14.993,18.208,24,25c10.542,7.951,21.179,16.153,31,25
	c0,0.667,0,1.333,0,2c-4.414,0.614-13.164,4.535-15,8c4.666,8.999,9.334,18.001,14,27c3.509,4.924,6.583,4.12,12,7
	c1.667,2.333,3.333,4.667,5,7c3.656,2.532,6.178-1.313,9,2c2.158,2.535,11.129,14.706,9,17c-3.18,2.355-8.97,2.438-11,6
	c2.483,1.797,4.318,6.537,3,9c-2.385,2.168-12.393,7.198-17,6c-1.228-0.319-0.835-2.559-4-2c-1.452,0.256-2.848,1.757-6,2
	c0-0.333,0-0.667,0-1c0.333,0,0.667,0,1,0c2.742-2.154,3.879-0.759,5-5c-7.278-5.011-7.166-12.465-12-20
	c-2.133-3.324-6.812-5.734-9-9c-5.95-8.877-5.792-19.39-17-23c0,0.667,0,1.333,0,2c10.303,10.592,9.444,35.989,15,54
	c2.506,8.123,7.63,17.831,10,26c3.89,13.41,0.557,28.736,4,43c1.333,5.521,1.967,8.146,3,12c1.693,6.316-1.986,10.169,0,17
	c0.987,3.394,5.369,14.276,4,22c-0.868,4.897-3.799,14.322-4,18c-0.125,2.303,1.282,5.225,0,9c-1.383,4.073-5.058,8.332-7,13
	c-3.772,0.174-6.254,0.927-9,2C1787,838,1787,839,1787,840z M1259,78c2.065,3.767-2.753,12.306-4,17c-0.333,0-0.667,0-1,0
	c0-1,0-2,0-3C1256.52,88.757,1257.996,82.409,1259,78z M1270,94c0.667,0,1.333,0,2,0c-0.333,6.484-2.828,11.909-5,17
	c-0.667,0-1.333,0-2,0c0-1,0-2,0-3C1267.528,105.173,1269.379,98.331,1270,94z M1249,96c1,0.333,2,0.667,3,1
	c-2.037,5.472-3.648,11.983-6,17c-0.667,0-1.333,0-2,0c0-1,0-2,0-3C1246.645,107.629,1248.35,100.966,1249,96z M1267,148
	c-2.333,0-4.667,0-7,0c-0.404,3.505-1.257,4.912-2,8c4.575,0.368,6.139,0.597,7,5c-3.363,4.791-1.557,11.963-9,13
	c-1.681-1.344-3.144-1.637-6-2c0.284-5.597,2.177-9.729,4-14c-6.51-0.185-23-7-23-7c-2.193,2.542-0.688,3.065-5,4
	c-2.269-3.264-5.482-3.937-7-8c2.566-3.448,1.577-9.069,4-13c1.333-0.667,2.667-1.333,4-2c1.689-2.758,1.868-7.505,3-10
	c3.306,1.252,5.663,2.169,7,0c2.835-3.324,2.307-4.098,9-4c3.413,2.002,4.785-0.153,7-1c4.666,0,9.334,0,14,0c0.333-1,0.667-2,1-3
	c2.906-1.117,2.003,2.857,5,2c4.399-1.258,1.513-6.116,9-2c2.597-1.492,5.496-4.796,9-3c4.029,1.33,4.092,2.641,4,8
	c-3.45,3.747-4.954,11.042-7,16c-6.225,0.499-10.255,0.159-17,0C1269.858,139.646,1267.776,142.696,1267,148z M1276,143
	c1.667,0.333,3.333,0.667,5,1c0.854,1.46,1.812,2.867,3,4c-2,5-4,10-6,15c-1.18,0.803-1.681,0.773-4,1c-2.721-2.648-3.659-1.419-4-7
	C1272.919,153.719,1274.253,147.243,1276,143z M1195,184c2.468,1.295,0.681-0.429,2,2c1.087,1.625-2.224,13.424-5,15
	c0-0.333,0-0.667,0-1c-0.803-1.179-0.773-1.681-1-4C1192.333,192,1193.667,188,1195,184z M1655,253c0.859,1.883,0.474,0.739,0,3
	c-0.333,0-0.667,0-1,0C1654.333,255,1654.667,254,1655,253z M1745,304c3.382,0.137,5.156,0.494,7,2c-2.271,1.469-3.009,2.103-4,5
	c0.097,0.087,2.886,1.313,2,2c-0.333,0-0.667,0-1,0c-3.484,3.788-8.808,9.192-14,11c-2.574-1.786-6.623-2.068-9-4
	c-0.751-1.073-0.601-0.945-1-3c4.371-2.793,10.146-7.637,13-12c1.578,0.952,2.998,3.633,4,2
	C1744.067,305.817,1743.882,306.316,1745,304z M1811,447c5.823,3.333,11.741,16.406,13,26c-6.98,1.81-9.42,6.707-17,8
	c-2.768-4.608-6.267-11.721-8-17c-3.523,0.427-3.027,1.998-5-1c5.114-2.864,1.297-4.932,5-8
	C1802.876,451.789,1807.936,450.997,1811,447z M1824,483c3.28,0.229,5.455,0.117,7,1c2.038,1.771,4.924,5.298,4,7
	c-4.666,3-9.334,6-14,9c-4.475-1.633-2.995-4.826-6-7c-1.262-0.913-4.028-0.273-5-1c0.333,0,0.667,0,1,0
	C1814.284,487.984,1820.384,486.695,1824,483z M1836,494c2.542,1.456,1.128-0.217,2,3c-6.894,1.783-9.661,6.702-17,8
	c0-0.667,0-1.333,0-2C1825.644,501.858,1833.328,497.45,1836,494z M1658,501c0.667,0,1.333,0,2,0c0,0.333,0,0.667,0,1
	c-0.333,0-0.667,0-1,0C1658.309,502.132,1657.056,502.053,1658,501z M1839,502c1,0.333,2,0.667,3,1c0.075,3.042,0.755,2.744,0,4
	c-2.036,2.182-13.534,9.482-15,8c-3.19-1.756-3.132-1.588-4-4C1827.952,509.578,1835.543,505.418,1839,502z M1633,516
	c0.667,0,1.333,0,2,0c0,0.667,0,1.333,0,2c-2.293,1.159-3.31,2.199-6,3c-1.393,0.728-1.263,0.322-3-1c-0.333,0-0.667,0-1,0
	c0.743-2.319,1.039-2.234,2-4C1631.67,516.77,1630.29,518.265,1633,516z M1850,525c2.468,1.294,0.681-0.429,2,2
	c-0.333,0-0.667,0-1,0c-3.608,3.409-10.757,6.606-16,8c0-0.667,0-1.333,0-2C1840.19,531.798,1846.658,528.365,1850,525z M1854,533
	c1,0.333,2,0.667,3,1c-0.631,1.754-0.193,0.972-1,2c-3.534,3.386-10.357,7.131-16,8c-0.631-1.754-0.193-0.971-1-2
	c0-0.333,0-0.667,0-1C1843.575,539.876,1850.88,536.083,1854,533z M1857,540c0.667,0,1.333,0,2,0c-0.909,1.083,0.078,0.085-1,1
	c-2.712,2.626-7.672,5.231-12,6c0-0.333,0-0.667,0-1c0.333,0,0.667,0,1,0C1849.769,543.458,1854.286,542.602,1857,540z M1859,546
	c3.245,0.828,1.528-0.49,3,2c-0.333,0-0.667,0-1,0c-2.687,2.693-13.156,8.336-16,7c-0.333,0-0.667,0-1,0c0-0.333,0-0.667,0-1
	C1849.186,552.805,1855.76,549.434,1859,546z M1850,572c-0.302-5.172-1.917-7.645-3-12c6.245-1.506,11.535-5.313,17-8
	c1.142,4.646,3.224,7.696,4,13C1860.867,566.571,1857.267,570.754,1850,572z M1862,575c0.667,0,1.333,0,2,0c0,0.333,0,0.667,0,1
	C1862.246,575.369,1863.028,575.807,1862,575z M1860,576c0.667,0,1.333,0,2,0c0,0.333,0,0.667,0,1
	C1860.246,576.369,1861.028,576.807,1860,576z M1858,577c0.667,0,1.333,0,2,0c0,0.333,0,0.667,0,1
	C1858.246,577.369,1859.028,577.807,1858,577z M1867,577c2.468,1.294,0.681-0.429,2,2c0.333,0,0.667,0,1,0c0,0.333,0,0.667,0,1
	c-4.132,1.116-6.289,2.915-10,2c0,0.333,0,0.667,0,1c0.333,0,0.667,0,1,0c1.923,0.775-2,1-2,1c-0.909-1.083,0.078-0.084-1-1
	c0,0.333,0,0.667,0,1c0.333,0,0.667,0,1,0c1.923,0.775-2,1-2,1c-0.909-1.083,0.078-0.084-1-1c-0.017,2.845,0.788,0.392-1,3
	c-1.754-0.631-0.972-0.193-2-1c-0.804-1.021-0.355-0.274-1-2C1856.435,582.982,1863.941,579.909,1867,577z M1745,581
	c-1.599-1.355-1.158-0.611-2-3C1743.911,578.929,1744.35,579.743,1745,581z M1856,578c0.667,0,1.333,0,2,0c0,0.333,0,0.667,0,1
	C1856.246,578.369,1857.028,578.807,1856,578z M1854,579c0.667,0,1.333,0,2,0c0,0.333,0,0.667,0,1
	C1854.246,579.369,1855.028,579.807,1854,579z M1852,580c0.667,0,1.333,0,2,0c0,0.333,0,0.667,0,1
	C1852.246,580.369,1853.028,580.807,1852,580z M1871,586c4.571,3.958,6.863,16.029,7,24c-4.014,1.963-13.344,7.748-17,6
	c-3.949-4.836-6.182-16.488-5-23C1860.703,591.933,1867.898,589.066,1871,586z M1757,596c-1-0.667-2-1.333-3-2c0-0.667,0-1.333,0-2
	C1755.604,593.25,1756.044,594.086,1757,596z M1766,609c0,0.667,0,1.333,0,2c-0.333,0-0.667,0-1,0c0-0.667,0-1.333,0-2
	C1765.333,609,1765.667,609,1766,609z M1857,633c1,0,2,0,3,0c-0.333-3.333-0.667-6.667-1-10c6.521-1.604,11.251-5.312,18-7
	c0.835,2.9,1.391,2.574,2,6c-4.269,8.941,7.085,28.697,4,36c-2.697,2.18-15.361,6.973-17,6
	C1862.599,659.438,1858.005,639.441,1857,633z M1893,671c0,2,0,4,0,6c-3.505,0.404-4.913,1.257-8,2c0,1.333,0,2.667,0,4
	c3.569,1.195-0.798,2.38,5,3c1.18-0.803,1.681-0.773,4-1c0,1.667,0,3.333,0,5c-5.045,2.61-11.634,5.108-18,6
	c-0.117-3.741,1.206-2.442-3-3c-1.295,0.877-2.467,0.895-5,1c-1.849-8.128-4.958-16.485-7-24c6.513-3.225,12.803-7.043,21-9
	c0.072,5.702,0.157,7.419,1,12c1,0,2,0,3,0C1887.895,671.479,1889.59,671.211,1893,671z M1890,681c0.667,0,1.333,0,2,0
	c-0.909,1.083,0.078,0.085-1,1c-1.18,0.803-1.681,0.773-4,1c0-0.333,0-0.667,0-1C1889.076,681.628,1888.924,681.758,1890,681z"/>
</svg>
