<?xml version="1.0" encoding="UTF-8" standalone="no"?>
<!-- Created with Inkscape (http://www.inkscape.org/) -->

<svg
   xmlns:dc="http://purl.org/dc/elements/1.1/"
   xmlns:cc="http://creativecommons.org/ns#"
   xmlns:rdf="http://www.w3.org/1999/02/22-rdf-syntax-ns#"
   xmlns:svg="http://www.w3.org/2000/svg"
   xmlns="http://www.w3.org/2000/svg"
   xmlns:sodipodi="http://sodipodi.sourceforge.net/DTD/sodipodi-0.dtd"
   xmlns:inkscape="http://www.inkscape.org/namespaces/inkscape"
   width="1920px"
   height="1080px"
   id="svg2985"
   version="1.1"
   inkscape:version="0.48.4 r9939"
   sodipodi:docname="Central_FD.svg">
  <defs
     id="defs2987" />
  <sodipodi:namedview
     id="base"
     pagecolor="#ffffff"
     bordercolor="#666666"
     borderopacity="1.0"
     inkscape:pageopacity="0.0"
     inkscape:pageshadow="2"
     inkscape:zoom="0.5"
     inkscape:cx="960"
     inkscape:cy="686.53747"
     inkscape:document-units="px"
     inkscape:current-layer="layer1"
     showgrid="false"
     inkscape:window-width="1920"
     inkscape:window-height="1137"
     inkscape:window-x="-4"
     inkscape:window-y="-4"
     inkscape:window-maximized="1" />
  <metadata
     id="metadata2990">
    <rdf:RDF>
      <cc:Work
         rdf:about="">
        <dc:format>image/svg+xml</dc:format>
        <dc:type
           rdf:resource="http://purl.org/dc/dcmitype/StillImage" />
        <dc:title></dc:title>
      </cc:Work>
    </rdf:RDF>
  </metadata>
  <g
     id="layer1"
     inkscape:label="Layer 1"
     inkscape:groupmode="layer">
    <path
       style="fill:#ff0000;stroke:#000000;stroke-width:1px;stroke-linecap:butt;stroke-linejoin:miter;stroke-opacity:1"
       d="m 731,312.5 c -0.50723,-1.18843 -0.5,-1.88969 -0.5,-3 0,-0.16667 -0.0745,-0.35093 0,-0.5 0.10541,-0.21082 0.39459,-0.28918 0.5,-0.5 0.0745,-0.14907 -0.0745,-0.35093 0,-0.5 0.10541,-0.21082 0.39459,-0.28918 0.5,-0.5 0.0745,-0.14907 -0.0745,-0.35093 0,-0.5 0.10541,-0.21082 0.39459,-0.28918 0.5,-0.5 0.0745,-0.14907 -0.0745,-0.35093 0,-0.5 0.10541,-0.21082 0.33333,-0.33333 0.5,-0.5 0.29407,-0.29407 1.88423,-1.76846 2,-2 0.0745,-0.14907 -0.11785,-0.38215 0,-0.5 0.11785,-0.11785 0.35093,0.0745 0.5,0 0.21082,-0.10541 0.28918,-0.39459 0.5,-0.5 0.29814,-0.14907 0.70186,0.14907 1,0 0.21082,-0.10541 0.28918,-0.39459 0.5,-0.5 0.34537,-0.17268 2.32449,0.17551 2.5,0 0.11785,-0.11785 -0.11785,-0.38215 0,-0.5 0.2357,-0.2357 0.7643,0.2357 1,0 0.11785,-0.11785 -0.11785,-0.38215 0,-0.5 0.11785,-0.11785 0.38215,0.11785 0.5,0 0.2357,-0.2357 -0.2357,-0.7643 0,-1 0.11785,-0.11785 0.38215,0.11785 0.5,0 0.25,-0.25 -0.25,-1.25 0,-1.5 0.11785,-0.11785 0.38215,0.11785 0.5,0 0.0161,-0.0161 0,-1.37874 0,-1.5 0,-0.3544 -0.0646,-2.87072 0,-3 0.10541,-0.21082 0.39459,-0.28918 0.5,-0.5 0.0745,-0.14907 -0.0745,-0.35093 0,-0.5 0.10541,-0.21082 0.39459,-0.28918 0.5,-0.5 0.0745,-0.14907 -0.11785,-0.38215 0,-0.5 0.11785,-0.11785 0.38215,0.11785 0.5,0 0.11785,-0.11785 -0.11785,-0.38215 0,-0.5 0.11785,-0.11785 0.38215,0.11785 0.5,0 0.11785,-0.11785 -0.11785,-0.38215 0,-0.5 0.11785,-0.11785 0.38215,0.11785 0.5,0 0.11785,-0.11785 -0.11785,-0.38215 0,-0.5 1.03452,-1.03452 -0.0404,1.58088 1,-0.5 0,-1.33333 -0.16667,0.16667 0.5,-0.5 0.11785,-0.11785 -0.11785,-0.38215 0,-0.5 0.11785,-0.11785 0.35093,0.0745 0.5,0 0.21082,-0.10541 0.28918,-0.39459 0.5,-0.5 0.14907,-0.0745 0.38215,0.11785 0.5,0 0.11785,-0.11785 -0.11785,-0.38215 0,-0.5 0.11785,-0.11785 0.35093,0.0745 0.5,0 0.42164,-0.21082 0.57836,-0.78918 1,-1 0.14907,-0.0745 0.35093,0.0745 0.5,0 0.21082,-0.10541 0.28918,-0.39459 0.5,-0.5 0.29814,-0.14907 0.7643,0.2357 1,0 0.11785,-0.11785 -0.11785,-0.38215 0,-0.5 0.12032,-0.12032 1.87968,0.12032 2,0 0.11785,-0.11785 -0.11785,-0.38215 0,-0.5 0.2357,-0.2357 0.70186,0.14907 1,0 0.21082,-0.10541 0.28918,-0.39459 0.5,-0.5 0.14907,-0.0745 0.38215,0.11785 0.5,0 0.11785,-0.11785 -0.11785,-0.38215 0,-0.5 0.11785,-0.11785 0.38215,0.11785 0.5,0 0.11785,-0.11785 -0.0745,-0.35093 0,-0.5 0.10541,-0.21082 0.39459,-0.28918 0.5,-0.5 0.2,-0.4 -0.2,-1.1 0,-1.5 0.10541,-0.21082 0.39459,-0.28918 0.5,-0.5 0.14907,-0.29814 -0.14907,-0.70186 0,-1 0.10541,-0.21082 0.42546,-0.27639 0.5,-0.5 0.10541,-0.31623 0,-0.66667 0,-1 0,-0.16667 -0.0745,-0.35093 0,-0.5 0.10541,-0.21082 0.39459,-0.28918 0.5,-0.5 0.0744,-0.14874 0,-2.78967 0,-3 0,-0.16667 -0.0745,-0.35093 0,-0.5 0.10541,-0.21082 0.39459,-0.28918 0.5,-0.5 0.0745,-0.14907 0,-0.33333 0,-0.5 0,-0.16667 0,-0.33333 0,-0.5 0,-0.83333 0,-1.66667 0,-2.5 0,-0.16667 0,-0.33333 0,-0.5 0,-0.16667 -0.0745,-0.35093 0,-0.5 0.10541,-0.21082 0.33333,-0.33333 0.5,-0.5 0.16667,-0.16667 0.28918,-0.39459 0.5,-0.5 0.29814,-0.14907 0.70186,0.14907 1,0 0.21082,-0.10541 0.28918,-0.39459 0.5,-0.5 0.15217,-0.0761 1.27482,0 1.5,0 1,0 2,0 3,0 0.44686,0 2.34066,-0.0797 2.5,0 0.21082,0.10541 0.28918,0.39459 0.5,0.5 0.14907,0.0745 0.35093,-0.0745 0.5,0 0.13276,0.0664 1.43362,1.36724 1.5,1.5 0.0745,0.14907 -0.11785,0.38215 0,0.5 0.11785,0.11785 0.35093,-0.0745 0.5,0 0.42164,0.21082 0.57836,0.78918 1,1 0.14907,0.0745 0.35093,-0.0745 0.5,0 0.21082,0.10541 0.28918,0.39459 0.5,0.5 0.14907,0.0745 0.38215,-0.11785 0.5,0 0.11785,0.11785 -0.11785,0.38215 0,0.5 0.1069,0.1069 1.72434,-0.0919 2,0 0.35355,0.11785 0.64645,0.38215 1,0.5 0.30505,0.10168 2.61383,0 3,0 0.26146,0 1.86853,-0.0657 2,0 0.21082,0.10541 0.28918,0.39459 0.5,0.5 0.27124,0.13562 1.86319,-0.13681 2,0 0.11785,0.11785 -0.11785,0.38215 0,0.5 0.10222,0.10222 1.30175,-0.0991 1.5,0 0.21082,0.10541 0.27639,0.42546 0.5,0.5 0.47434,0.15811 1,0 1.5,0 1.16667,0 2.33333,0 3.5,0 1.33333,0 2.66667,0 4,0 0.43329,0 1.71036,0.0965 2,0 0.35355,-0.11785 0.64645,-0.38215 1,-0.5 0.15811,-0.0527 0.35093,0.0745 0.5,0 0.21082,-0.10541 0.28918,-0.39459 0.5,-0.5 0.4,-0.2 1.1,0.2 1.5,0 0.21082,-0.10541 0.28918,-0.39459 0.5,-0.5 0.14907,-0.0745 0.35093,0.0745 0.5,0 0.21082,-0.10541 0.28918,-0.39459 0.5,-0.5 0.29814,-0.14907 0.70186,0.14907 1,0 0.21082,-0.10541 0.33333,-0.33333 0.5,-0.5 0.33333,0 0.68377,0.10541 1,0 0.22361,-0.0745 0.28918,-0.39459 0.5,-0.5 0.14907,-0.0745 0.34189,0.0527 0.5,0 0.35355,-0.11785 0.64645,-0.38215 1,-0.5 0.15811,-0.0527 0.34189,0.0527 0.5,0 0.35355,-0.11785 0.63845,-0.40961 1,-0.5 3.31658,0 -0.70711,0.2357 1.5,-0.5 0.31623,-0.10541 0.68377,0.10541 1,0 0.22361,-0.0745 0.27639,-0.42546 0.5,-0.5 0.31623,-0.10541 0.66667,0 1,0 0.16667,0 0.35093,0.0745 0.5,0 0.21082,-0.10541 0.28918,-0.39459 0.5,-0.5 0.31426,-0.15713 1.68574,0.15713 2,0 0.21082,-0.10541 0.27639,-0.42546 0.5,-0.5 0.31623,-0.10541 0.66667,0 1,0 0.16667,0 0.35093,0.0745 0.5,0 0.21082,-0.10541 0.28918,-0.39459 0.5,-0.5 0.14907,-0.0745 0.33333,0 0.5,0 0.16667,0 0.33333,0 0.5,0 1,0 2,0 3,0 0.16667,0 0.33333,0 0.5,0 0.16667,0 0.35093,0.0745 0.5,0 0.21082,-0.10541 0.28918,-0.39459 0.5,-0.5 0.31716,-0.15858 2.17519,0.16241 2.5,0 0.21082,-0.10541 0.33333,-0.33333 0.5,-0.5 0.33333,0 0.68377,0.10541 1,0 0.22361,-0.0745 0.27639,-0.42546 0.5,-0.5 0.31623,-0.10541 0.68377,0.10541 1,0 0.22361,-0.0745 0.30388,-0.36926 0.5,-0.5 0.31009,-0.20672 0.68991,-0.29328 1,-0.5 0.39223,-0.26149 0.57836,-0.78918 1,-1 0.14907,-0.0745 0.35093,0.0745 0.5,0 0.42164,-0.21082 0.57836,-0.78918 1,-1 0.14907,-0.0745 0.35093,0.0745 0.5,0 0.21082,-0.10541 0.27639,-0.42546 0.5,-0.5 0.31623,-0.10541 0.68377,0.10541 1,0 0.44721,-0.14907 0.57836,-0.78918 1,-1 0.14907,-0.0745 0.34189,0.0527 0.5,0 3.62171,-1.20724 -0.7883,0.14415 1.5,-1 0.14907,-0.0745 0.35093,0.0745 0.5,0 0.21082,-0.10541 0.28918,-0.39459 0.5,-0.5 0.29814,-0.14907 0.70186,0.14907 1,0 0.21082,-0.10541 0.28918,-0.39459 0.5,-0.5 0.13147,-0.0657 1.73854,0 2,0 0.22518,0 1.34783,-0.0761 1.5,0 0.21082,0.10541 0.28918,0.39459 0.5,0.5 0.29501,0.14751 1.15608,-0.11464 1.5,0 0.35355,0.11785 0.64645,0.38215 1,0.5 0.31623,0.10541 0.70186,-0.14907 1,0 0.21082,0.10541 0.28918,0.39459 0.5,0.5 0.14907,0.0745 0.34189,-0.0527 0.5,0 0.35355,0.11785 0.64645,0.38215 1,0.5 0.15811,0.0527 0.35093,-0.0745 0.5,0 0.21082,0.10541 0.28918,0.39459 0.5,0.5 0.14907,0.0745 0.35093,-0.0745 0.5,0 0.21082,0.10541 0.27639,0.42546 0.5,0.5 0.25759,0.0859 2.97109,0 3.5,0 0.26146,0 1.86853,0.0657 2,0 0.21082,-0.10541 0.28918,-0.39459 0.5,-0.5 0.14907,-0.0745 0.35093,0.0745 0.5,0 0.21082,-0.10541 0.28918,-0.39459 0.5,-0.5 0.14907,-0.0745 0.38215,0.11785 0.5,0 0.11785,-0.11785 -0.0745,-0.35093 0,-0.5 0.10541,-0.21082 0.39459,-0.28918 0.5,-0.5 0.0745,-0.14907 -0.0745,-0.35093 0,-0.5 0.10541,-0.21082 0.39459,-0.28918 0.5,-0.5 0.0745,-0.14907 -0.0745,-0.35093 0,-0.5 0.10541,-0.21082 0.39459,-0.28918 0.5,-0.5 0.0745,-0.14907 -0.0745,-0.35093 0,-0.5 0.10541,-0.21082 0.39459,-0.28918 0.5,-0.5 0.0666,-0.13325 0,-2.7738 0,-3 0,-0.26146 0.0657,-1.86853 0,-2 -0.10541,-0.21082 -0.39459,-0.28918 -0.5,-0.5 -0.0991,-0.19825 0.10222,-1.39778 0,-1.5 -0.11785,-0.11785 -0.38215,0.11785 -0.5,0 -0.11785,-0.11785 0,-0.33333 0,-0.5 0,-0.23575 -0.0227,-2.47734 0,-2.5 0.11785,-0.11785 0.38215,0.11785 0.5,0 0.11785,-0.11785 -0.0745,-0.35093 0,-0.5 0.0664,-0.13276 1.36724,-1.43362 1.5,-1.5 0.14907,-0.0745 0.35093,0.0745 0.5,0 0.42164,-0.21082 0.57836,-0.78918 1,-1 0.14907,-0.0745 0.34189,0.0527 0.5,0 0.35355,-0.11785 0.64645,-0.38215 1,-0.5 0.15811,-0.0527 0.38215,0.11785 0.5,0 0.11785,-0.11785 -0.11785,-0.38215 0,-0.5 0.11785,-0.11785 0.35093,0.0745 0.5,0 0.21082,-0.10541 0.28918,-0.39459 0.5,-0.5 0.12928,-0.0646 2.6456,0 3,0 2.33333,0 4.66667,0 7,0 0.3544,0 2.87072,0.0646 3,0 0.21082,-0.10541 0.28918,-0.39459 0.5,-0.5 0.29814,-0.14907 0.7643,0.2357 1,0 0.11785,-0.11785 -0.0745,-0.35093 0,-0.5 0.10541,-0.21082 0.33333,-0.33333 0.5,-0.5 0.16667,-0.16667 0.28918,-0.39459 0.5,-0.5 0.14907,-0.0745 0.35093,0.0745 0.5,0 0.26704,-0.13352 1.23677,-1.23677 1.5,-1.5 0.29407,-0.29407 1.76846,-1.88423 2,-2 0.14907,-0.0745 0.38215,0.11785 0.5,0 0.11785,-0.11785 -0.0745,-0.35093 0,-0.5 0.55276,-1.10553 0.31032,-0.15516 1,-0.5 2.08088,-1.04044 -0.53452,0.0345 0.5,-1 0.11785,-0.11785 0.35093,0.0745 0.5,0 0.21082,-0.10541 0.28918,-0.39459 0.5,-0.5 0.14907,-0.0745 0.38215,0.11785 0.5,0 1.03452,-1.03452 -1.58088,0.0404 0.5,-1 0.14907,-0.0745 0.35093,0.0745 0.5,0 0.42164,-0.21082 0.57836,-0.78918 1,-1 0.14907,-0.0745 0.35093,0.0745 0.5,0 0.49201,-0.24601 1.50799,-1.75399 2,-2 0.14907,-0.0745 0.35093,0.0745 0.5,0 0.21082,-0.10541 0.28918,-0.39459 0.5,-0.5 0.14907,-0.0745 0.38215,0.11785 0.5,0 0.11785,-0.11785 -0.11785,-0.38215 0,-0.5 0.0705,-0.0705 1.39744,-0.0513 1.5,0 0.21082,0.10541 0.28918,0.39459 0.5,0.5 0.14907,0.0745 0.35093,-0.0745 0.5,0 0.21082,0.10541 0.28918,0.39459 0.5,0.5 0.14907,0.0745 0.33333,0 0.5,0 0.33333,0.16667 0.68991,0.29328 1,0.5 0.57692,0.38462 0.92308,1.11538 1.5,1.5 0.2518,1.10158 1.0286,0.2643 1.5,0.5 0.26704,0.13352 1.23677,1.23677 1.5,1.5 0.16667,0.16667 0.33333,0.33333 0.5,0.5 0.16667,0.16667 0.39459,0.28918 0.5,0.5 0.0745,0.14907 -0.11785,0.38215 0,0.5 0.11785,0.11785 0.38215,-0.11785 0.5,0 1.03452,1.03452 -1.58088,-0.0404 0.5,1 0.14907,0.0745 0.38215,-0.11785 0.5,0 1.03452,1.03452 -1.58088,-0.0404 0.5,1 0.14907,0.0745 0.38215,-0.11785 0.5,0 0.11785,0.11785 -0.11785,0.38215 0,0.5 0.11785,0.11785 0.35093,-0.0745 0.5,0 0.21082,0.10541 0.28918,0.39459 0.5,0.5 0.14907,0.0745 0.35093,-0.0745 0.5,0 0.21082,0.10541 0.28918,0.39459 0.5,0.5 0.29814,0.14907 0.7643,-0.2357 1,0 0.11785,0.11785 -0.11785,0.38215 0,0.5 0.11785,0.11785 0.35093,-0.0745 0.5,0 0.21082,0.10541 0.28918,0.39459 0.5,0.5 0.14907,0.0745 0.35093,-0.0745 0.5,0 0.21082,0.10541 0.28918,0.39459 0.5,0.5 0.14907,0.0745 0.38215,-0.11785 0.5,0 0.11785,0.11785 -0.11785,0.38215 0,0.5 0.11785,0.11785 0.38215,-0.11785 0.5,0 0.11785,0.11785 -0.0745,0.35093 0,0.5 0.10541,0.21082 0.33333,0.33333 0.5,0.5 0.16667,0.16667 0.28918,0.39459 0.5,0.5 0.14907,0.0745 0.38215,-0.11785 0.5,0 0.11785,0.11785 -0.11785,0.38215 0,0.5 0.11785,0.11785 0.35093,-0.0745 0.5,0 0.21082,0.10541 0.28918,0.39459 0.5,0.5 0.14907,0.0745 0.35093,-0.0745 0.5,0 0.21082,0.10541 0.28918,0.39459 0.5,0.5 0.14907,0.0745 0.35093,-0.0745 0.5,0 0.21082,0.10541 0.28918,0.39459 0.5,0.5 0.29814,0.14907 0.70186,-0.14907 1,0 0.21082,0.10541 0.28918,0.39459 0.5,0.5 0.15217,0.0761 1.27482,0 1.5,0 0.83333,0 1.66667,0 2.5,0 0.33333,0 0.68377,0.10541 1,0 0.35355,-0.11785 0.64645,-0.38215 1,-0.5 0.15811,-0.0527 0.38215,0.11785 0.5,0 0.11785,-0.11785 -0.11785,-0.38215 0,-0.5 0.2357,-0.2357 0.7643,0.2357 1,0 0.11785,-0.11785 -0.11785,-0.38215 0,-0.5 0.11785,-0.11785 0.33333,0 0.5,0 0.34777,0 2.31918,-0.0904 2.5,0 0.42164,0.21082 0.57836,0.78918 1,1 0.14907,0.0745 0.35093,-0.0745 0.5,0 0.21082,0.10541 0.33333,0.33333 0.5,0.5 0.16667,0.16667 0.39459,0.28918 0.5,0.5 0.0745,0.14907 -0.0745,0.35093 0,0.5 0.10541,0.21082 0.33333,0.33333 0.5,0.5 0.16667,0.16667 0.33333,0.33333 0.5,0.5 0.16667,0.16667 0.33333,0.33333 0.5,0.5 0.16667,0.16667 0.39459,0.28918 0.5,0.5 0.0745,0.14907 -0.0745,0.35093 0,0.5 0.10541,0.21082 0.39459,0.28918 0.5,0.5 0.0761,0.15217 0,1.27482 0,1.5 0,1.16667 0,2.33333 0,3.5 0,0.83333 0,1.66667 0,2.5 0,0.16667 0,0.33333 0,0.5 0,0.16667 0.0745,0.35093 0,0.5 -0.10541,0.21082 -0.39459,0.28918 -0.5,0.5 -0.13562,0.27124 0.13681,1.86319 0,2 -0.11785,0.11785 -0.38215,-0.11785 -0.5,0 -0.11785,0.11785 0,0.33333 0,0.5 0,0.26146 -0.0657,1.86853 0,2 0.10541,0.21082 0.39459,0.28918 0.5,0.5 0.14907,0.29814 -0.2357,0.7643 0,1 0.11785,0.11785 0.38215,-0.11785 0.5,0 0.11785,0.11785 -0.0745,0.35093 0,0.5 0.10541,0.21082 0.39459,0.28918 0.5,0.5 0.0745,0.14907 -0.0745,0.35093 0,0.5 0.10541,0.21082 0.39459,0.28918 0.5,0.5 0.0745,0.14907 -0.0745,0.35093 0,0.5 0.10541,0.21082 0.39459,0.28918 0.5,0.5 0.0745,0.14907 -0.0745,0.35093 0,0.5 0.10541,0.21082 0.39459,0.28918 0.5,0.5 0.0745,0.14907 -0.0745,0.35093 0,0.5 0.21082,0.42164 0.78918,0.57836 1,1 0.2,0.4 -0.2,1.1 0,1.5 0.10541,0.21082 0.39459,0.28918 0.5,0.5 0.2,0.4 -0.2,1.1 0,1.5 0.10541,0.21082 0.39459,0.28918 0.5,0.5 0.14907,0.29814 -0.14907,0.70186 0,1 0.10541,0.21082 0.39459,0.28918 0.5,0.5 0.15713,0.31426 -0.15713,1.68574 0,2 0.10541,0.21082 0.39459,0.28918 0.5,0.5 0.14907,0.29814 -0.14907,0.70186 0,1 0.10541,0.21082 0.39459,0.28918 0.5,0.5 0.0745,0.14907 -0.0745,0.35093 0,0.5 0.10541,0.21082 0.39459,0.28918 0.5,0.5 0.0745,0.14907 -0.0745,0.35093 0,0.5 0.10541,0.21082 0.39459,0.28918 0.5,0.5 0.14907,0.29814 -0.14907,0.70186 0,1 0.10541,0.21082 0.39459,0.28918 0.5,0.5 0.15713,0.31426 -0.15713,1.68574 0,2 0.10541,0.21082 0.39459,0.28918 0.5,0.5 0.11124,0.22249 -0.0762,1.77131 0,2 0.0745,0.22361 0.39459,0.28918 0.5,0.5 0.14907,0.29814 -0.14907,0.70186 0,1 0.10541,0.21082 0.39459,0.28918 0.5,0.5 0.14907,0.29814 -0.14907,0.70186 0,1 0.10541,0.21082 0.39459,0.28918 0.5,0.5 0.0745,0.14907 -0.0745,0.35093 0,0.5 0.10541,0.21082 0.39459,0.28918 0.5,0.5 0.2,0.4 -0.2,1.1 0,1.5 0.10541,0.21082 0.39459,0.28918 0.5,0.5 0.0745,0.14907 -0.0745,0.35093 0,0.5 0.10541,0.21082 0.39459,0.28918 0.5,0.5 0.15772,0.31543 -0.15772,2.18457 0,2.5 0.10541,0.21082 0.39459,0.28918 0.5,0.5 0.2,0.4 -0.2,1.1 0,1.5 0.10541,0.21082 0.39459,0.28918 0.5,0.5 0.0745,0.14907 0,0.33333 0,0.5 0,0.83333 0,1.66667 0,2.5 0,0.16667 0,0.33333 0,0.5 0,0.16667 -0.0745,0.35093 0,0.5 0.10541,0.21082 0.39459,0.28918 0.5,0.5 0.0745,0.14907 -0.0745,0.35093 0,0.5 0.10541,0.21082 0.39459,0.28918 0.5,0.5 0.0745,0.14907 -0.11785,0.38215 0,0.5 0.11785,0.11785 0.38215,-0.11785 0.5,0 1.03452,1.03452 -1.58088,-0.0404 0.5,1 0.68968,0.34484 0.44724,-0.60553 1,0.5 0.0745,0.14907 -0.11785,0.38215 0,0.5 0.11785,0.11785 0.35093,-0.0745 0.5,0 0.13276,0.0664 1.43362,1.36724 1.5,1.5 0,1.33333 -0.16667,-0.16667 0.5,0.5 0.11785,0.11785 -0.11785,0.38215 0,0.5 0.11785,0.11785 0.35093,-0.0745 0.5,0 0.21082,0.10541 0.28918,0.39459 0.5,0.5 0.14907,0.0745 0.38215,-0.11785 0.5,0 1.03452,1.03452 -1.58088,-0.0404 0.5,1 0.29814,0.14907 0.70186,-0.14907 1,0 0.42164,0.21082 0.57836,0.78918 1,1 0.29814,0.14907 0.70186,-0.14907 1,0 0.21082,0.10541 0.27639,0.42546 0.5,0.5 0.31623,0.10541 0.66667,0 1,0 0.16667,0 0.35093,-0.0745 0.5,0 0.21082,0.10541 0.27639,0.42546 0.5,0.5 0.31623,0.10541 0.66667,0 1,0 0.16667,0 0.35093,-0.0745 0.5,0 0.21082,0.10541 0.28918,0.39459 0.5,0.5 0.29814,0.14907 0.70186,-0.14907 1,0 0.21082,0.10541 0.28918,0.39459 0.5,0.5 0.14907,0.0745 0.33333,0 0.5,0 0.33333,0 0.68377,-0.10541 1,0 0.22361,0.0745 0.28918,0.39459 0.5,0.5 0.14907,0.0745 0.34189,-0.0527 0.5,0 0.35355,0.11785 0.64645,0.38215 1,0.5 0.31623,0.10541 0.70186,-0.14907 1,0 0.21082,0.10541 0.27639,0.42546 0.5,0.5 0.31623,0.10541 0.66667,0 1,0 0.16667,0 0.35093,-0.0745 0.5,0 0.21082,0.10541 0.28918,0.39459 0.5,0.5 0.4,0.2 1.1,-0.2 1.5,0 0.21082,0.10541 0.28918,0.39459 0.5,0.5 0.29814,0.14907 0.7643,-0.2357 1,0 0.11785,0.11785 -0.11785,0.38215 0,0.5 0.2357,0.2357 0.70186,-0.14907 1,0 0.21082,0.10541 0.28918,0.39459 0.5,0.5 0.14907,0.0745 0.35093,-0.0745 0.5,0 0.21082,0.10541 0.28918,0.39459 0.5,0.5 0.14907,0.0745 0.35093,-0.0745 0.5,0 0.21082,0.10541 0.28918,0.39459 0.5,0.5 0.14907,0.0745 0.35093,-0.0745 0.5,0 0.21082,0.10541 0.28918,0.39459 0.5,0.5 0.14907,0.0745 0.35093,-0.0745 0.5,0 0.21082,0.10541 0.28918,0.39459 0.5,0.5 0.29814,0.14907 0.70186,-0.14907 1,0 0.21082,0.10541 0.28918,0.39459 0.5,0.5 0.29814,0.14907 0.70186,-0.14907 1,0 0.21082,0.10541 0.28918,0.39459 0.5,0.5 0.14907,0.0745 0.35093,-0.0745 0.5,0 0.42164,0.21082 0.57836,0.78918 1,1 0.29814,0.14907 0.70186,-0.14907 1,0 0.21082,0.10541 0.27639,0.42546 0.5,0.5 2.27614,0 0.0286,-0.2357 1.5,0.5 0.29814,0.14907 0.70186,-0.14907 1,0 0.21082,0.10541 0.28918,0.39459 0.5,0.5 0.29814,0.14907 0.70186,-0.14907 1,0 0.21082,0.10541 0.28918,0.39459 0.5,0.5 0.4,0.2 1.1,-0.2 1.5,0 0.21082,0.10541 0.28918,0.39459 0.5,0.5 0.27124,0.13562 1.86319,-0.13681 2,0 0.11785,0.11785 -0.11785,0.38215 0,0.5 0.10222,0.10222 1.30175,-0.0991 1.5,0 0.21082,0.10541 0.28918,0.39459 0.5,0.5 0.14907,0.0745 0.35093,-0.0745 0.5,0 0.21082,0.10541 0.28918,0.39459 0.5,0.5 0.14907,0.0745 0.35093,-0.0745 0.5,0 0.21082,0.10541 0.28918,0.39459 0.5,0.5 0.29814,0.14907 0.7643,-0.2357 1,0 0.11785,0.11785 -0.11785,0.38215 0,0.5 0.2357,0.2357 0.7643,-0.2357 1,0 0.11785,0.11785 -0.11785,0.38215 0,0.5 0.11785,0.11785 0.33333,0 0.5,0 1.3333,0 2.6667,0 4,0 0.6667,0 1.3333,0 2,0 0.3333,0 0.6838,0.10541 1,0 0.3536,-0.11785 0.6464,-0.38215 1,-0.5 0.3162,-0.10541 0.6838,0.10541 1,0 0.3536,-0.11785 0.6464,-0.38215 1,-0.5 0.1581,-0.0527 0.3419,0.0527 0.5,0 0.3536,-0.11785 0.6464,-0.38215 1,-0.5 0.487,-0.16234 2.0237,0.15877 2.5,0 0.3536,-0.11785 0.6464,-0.38215 1,-0.5 0.45,-0.15 1.05,0.15 1.5,0 0.2236,-0.0745 0.2764,-0.42546 0.5,-0.5 2.1648,-0.7216 -0.1838,0.95585 2,-0.5 0.1961,-0.13074 0.2764,-0.42546 0.5,-0.5 0.3162,-0.10541 0.6838,0.10541 1,0 0.4472,-0.14907 0.5784,-0.78918 1,-1 0.1491,-0.0745 0.3333,0 0.5,0 0.3333,0 0.6838,0.10541 1,0 0.2236,-0.0745 0.2892,-0.39459 0.5,-0.5 0.1315,-0.0657 1.7385,0 2,0 0.2252,0 1.3478,-0.0761 1.5,0 0.2108,0.10541 0.2892,0.39459 0.5,0.5 0.3248,0.16241 2.1828,-0.15858 2.5,0 0.2108,0.10541 0.2892,0.39459 0.5,0.5 0.2981,0.14907 0.7019,-0.14907 1,0 0.2108,0.10541 0.2892,0.39459 0.5,0.5 0.2981,0.14907 0.7643,-0.2357 1,0 0.1179,0.11785 -0.1179,0.38215 0,0.5 0.1179,0.11785 0.3821,-0.11785 0.5,0 0.1179,0.11785 -0.1179,0.38215 0,0.5 0.1179,0.11785 0.3821,-0.11785 0.5,0 0.1179,0.11785 -0.1179,0.38215 0,0.5 0.1179,0.11785 0.3821,-0.11785 0.5,0 0.1179,0.11785 -0.1179,0.38215 0,0.5 0.1179,0.11785 0.3509,-0.0745 0.5,0 0.2108,0.10541 0.3333,0.33333 0.5,0.5 0.1667,0.16667 0.3946,0.28918 0.5,0.5 0.074,0.14907 -0.074,0.35093 0,0.5 0.1054,0.21082 0.3946,0.28918 0.5,0.5 0.074,0.14907 -0.1179,0.38215 0,0.5 1.0345,1.03452 -0.04,-1.58088 1,0.5 0.074,0.14907 -0.074,0.35093 0,0.5 0.1054,0.21082 0.3946,0.28918 0.5,0.5 0.074,0.14907 -0.074,0.35093 0,0.5 0.1054,0.21082 0.3946,0.28918 0.5,0.5 0.074,0.14907 -0.074,0.35093 0,0.5 0.1054,0.21082 0.3946,0.28918 0.5,0.5 0.074,0.14907 -0.074,0.35093 0,0.5 0.1054,0.21082 0.3946,0.28918 0.5,0.5 0.074,0.14907 -0.074,0.35093 0,0.5 0.1335,0.26704 1.2368,1.23677 1.5,1.5 0.2941,0.29407 1.8842,1.76846 2,2 0.7357,1.4714 -1.1583,-0.65829 0.5,1 0.3929,0.39288 2.3408,2.18151 2.5,2.5 0.074,0.14907 -0.074,0.35093 0,0.5 0.1054,0.21082 0.3946,0.28918 0.5,0.5 0.074,0.14907 -0.074,0.35093 0,0.5 0.1054,0.21082 0.3946,0.28918 0.5,0.5 0.1491,0.29814 -0.2357,0.7643 0,1 0.1179,0.11785 0.3821,-0.11785 0.5,0 0.1179,0.11785 0,0.33333 0,0.5 0,0.16667 0,0.33333 0,0.5 0,1.16667 0,2.33333 0,3.5 0,0.22518 -0.076,1.34783 0,1.5 0.1054,0.21082 0.3946,0.28918 0.5,0.5 0.074,0.14907 -0.074,0.35093 0,0.5 0.2108,0.42164 0.7892,0.57836 1,1 0.074,0.14907 -0.074,0.35093 0,0.5 0.2108,0.42164 0.7892,0.57836 1,1 0.074,0.14907 -0.1179,0.38215 0,0.5 0.1179,0.11785 0.3821,-0.11785 0.5,0 0.1179,0.11785 -0.074,0.35093 0,0.5 0.2108,0.42164 0.7892,0.57836 1,1 0.074,0.14907 -0.074,0.35093 0,0.5 0.3,0.6 1.2,0.9 1.5,1.5 0.074,0.14907 -0.074,0.35093 0,0.5 0.1054,0.21082 0.3946,0.28918 0.5,0.5 0.074,0.14907 -0.074,0.35093 0,0.5 0.1054,0.21082 0.3946,0.28918 0.5,0.5 0.2,0.4 -0.2,1.1 0,1.5 0.1054,0.21082 0.3946,0.28918 0.5,0.5 0.2,0.4 -0.2,1.1 0,1.5 0.1054,0.21082 0.3946,0.28918 0.5,0.5 0.074,0.14907 0,0.33333 0,0.5 0,0.16667 0,0.33333 0,0.5 0,0.83333 0,1.66667 0,2.5 0,0.23575 0.023,2.47734 0,2.5 -0.1179,0.11785 -0.3821,-0.11785 -0.5,0 -0.2357,0.2357 0.1491,0.70186 0,1 -0.1054,0.21082 -0.3946,0.28918 -0.5,0.5 -0.3448,0.68968 0.6055,0.44724 -0.5,1 -0.2981,0.14907 -0.7019,-0.14907 -1,0 -0.2108,0.10541 -0.2892,0.39459 -0.5,0.5 -0.1491,0.0745 -0.3419,-0.0527 -0.5,0 -0.3536,0.11785 -0.6464,0.38215 -1,0.5 -0.1581,0.0527 -0.3509,-0.0745 -0.5,0 -0.2108,0.10541 -0.2892,0.39459 -0.5,0.5 -0.1491,0.0745 -0.3509,-0.0745 -0.5,0 -0.2108,0.10541 -0.2892,0.39459 -0.5,0.5 -0.2981,0.14907 -0.6838,-0.10541 -1,0 -0.3536,0.11785 -0.6464,0.38215 -1,0.5 -0.4791,0.1597 -2.0368,-0.1544 -2.5,0 -0.2236,0.0745 -0.2892,0.39459 -0.5,0.5 -0.1491,0.0745 -0.3509,-0.0745 -0.5,0 -0.2108,0.10541 -0.2892,0.39459 -0.5,0.5 -0.1491,0.0745 -0.3509,-0.0745 -0.5,0 -0.2108,0.10541 -0.2892,0.39459 -0.5,0.5 -0.1491,0.0745 -0.3509,-0.0745 -0.5,0 -0.2108,0.10541 -0.2892,0.39459 -0.5,0.5 -0.2981,0.14907 -0.7019,-0.14907 -1,0 -0.2108,0.10541 -0.2892,0.39459 -0.5,0.5 -0.1491,0.0745 -0.3821,-0.11785 -0.5,0 -0.1179,0.11785 0.1179,0.38215 0,0.5 -0.1179,0.11785 -0.3821,-0.11785 -0.5,0 -0.1179,0.11785 0.1179,0.38215 0,0.5 -1.0345,1.03452 0.04,-1.58088 -1,0.5 -0.074,0.14907 0.1179,0.38215 0,0.5 -0.1179,0.11785 -0.3821,-0.11785 -0.5,0 -1.0345,1.03452 1.5809,-0.0404 -0.5,1 -0.1491,0.0745 -0.3821,-0.11785 -0.5,0 -0.1179,0.11785 0.1179,0.38215 0,0.5 -0.1179,0.11785 -0.3509,-0.0745 -0.5,0 -0.2108,0.10541 -0.2892,0.39459 -0.5,0.5 -0.1491,0.0745 -0.3509,-0.0745 -0.5,0 -0.2108,0.10541 -0.2892,0.39459 -0.5,0.5 -0.1491,0.0745 -0.3509,-0.0745 -0.5,0 -0.096,0.0479 -1.9521,1.90429 -2,2 -0.021,0.0426 -0.021,1.95738 0,2 0.1054,0.21082 0.3946,0.28918 0.5,0.5 0.074,0.14907 -0.074,0.35093 0,0.5 0.066,0.13276 1.3672,1.43362 1.5,1.5 0.1491,0.0745 0.3509,-0.0745 0.5,0 2.0809,1.04044 -0.5345,-0.0345 0.5,1 0.1179,0.11785 0.3821,-0.11785 0.5,0 0.1179,0.11785 -0.1179,0.38215 0,0.5 0.1179,0.11785 0.3821,-0.11785 0.5,0 0.1179,0.11785 0,0.33333 0,0.5 0,0.16667 0,0.33333 0,0.5 0,1.27408 -0.5832,0.66643 -1,1.5 -0.074,0.14907 0.074,0.35093 0,0.5 -0.1054,0.21082 -0.3946,0.28918 -0.5,0.5 -0.074,0.14907 0.074,0.35093 0,0.5 -0.1054,0.21082 -0.4255,0.27639 -0.5,0.5 -0.1054,0.31623 0.1054,0.68377 0,1 -0.074,0.22361 -0.3946,0.28918 -0.5,0.5 -0.1491,0.29814 0.1491,0.70186 0,1 -0.1054,0.21082 -0.3946,0.28918 -0.5,0.5 -0.074,0.14907 0.074,0.35093 0,0.5 -0.1054,0.21082 -0.3946,0.28918 -0.5,0.5 -0.3448,0.68968 0.6055,0.44724 -0.5,1 -0.4,0.2 -1.1,-0.2 -1.5,0 -0.2108,0.10541 -0.2764,0.42546 -0.5,0.5 -0.2289,0.0763 -2.2209,0 -2.5,0 -1.6667,0 -3.3333,0 -5,0 -0.4469,0 -2.3407,-0.0797 -2.5,0 -2.2883,1.14415 2.1217,-0.20724 -1.5,1 -1.4884,0.49614 1.0259,-1.18394 -1.5,0.5 -0.1961,0.13074 -0.2892,0.39459 -0.5,0.5 -0.1491,0.0745 -0.3333,0 -0.5,0 -0.3333,0.16667 -0.6899,0.29328 -1,0.5 -0.5769,0.38462 -0.9231,1.11538 -1.5,1.5 -0.3101,0.20672 -0.6899,0.29328 -1,0.5 -0.7357,0.49049 -1.2643,1.50951 -2,2 -0.3101,0.20672 -0.6899,0.29328 -1,0.5 -0.6879,0.45857 -0.5142,0.77136 -1,1.5 -0.1307,0.19612 -0.3333,0.33333 -0.5,0.5 -0.1667,0.16667 -0.2892,0.39459 -0.5,0.5 -0.1491,0.0745 -0.3509,-0.0745 -0.5,0 -0.2108,0.10541 -0.3333,0.33333 -0.5,0.5 -0.1667,0.16667 -0.3333,0.33333 -0.5,0.5 -0.6667,0.66667 -1.3333,1.33333 -2,2 -0.3333,0.33333 -0.6078,0.73851 -1,1 -0.3101,0.20672 -0.6899,0.29328 -1,0.5 -0.2079,0.13862 -1.91059,1.82117 -2,2 -0.0745,0.14907 0.0527,0.34189 0,0.5 -1.20724,3.62171 0.14415,-0.7883 -1,1.5 -0.0745,0.14907 0.0745,0.35093 0,0.5 -1.04044,2.08088 0.0345,-0.53452 -1,0.5 -0.11785,0.11785 0.0745,0.35093 0,0.5 -0.10541,0.21082 -0.39459,0.28918 -0.5,0.5 -0.0745,0.14907 0.0745,0.35093 0,0.5 -0.10541,0.21082 -0.39459,0.28918 -0.5,0.5 -0.14907,0.29814 0.14907,0.70186 0,1 -0.10541,0.21082 -0.39459,0.28918 -0.5,0.5 -0.14907,0.29814 0.14907,0.70186 0,1 -0.10541,0.21082 -0.39459,0.28918 -0.5,0.5 -0.0745,0.14907 0.11785,0.38215 0,0.5 -0.11785,0.11785 -0.38215,-0.11785 -0.5,0 -0.11785,0.11785 0.0745,0.35093 0,0.5 -0.3,0.6 -1.2,0.9 -1.5,1.5 -0.0745,0.14907 0.0745,0.35093 0,0.5 -0.46025,0.92051 -1.03975,0.0795 -1.5,1 -0.0745,0.14907 0.0745,0.35093 0,0.5 -0.0479,0.0957 -1.90429,1.95214 -2,2 -0.14907,0.0745 -0.34189,-0.0527 -0.5,0 -3.62171,1.20724 0.7883,-0.14415 -1.5,1 -0.14907,0.0745 -0.35093,-0.0745 -0.5,0 -0.21082,0.10541 -0.33333,0.33333 -0.5,0.5 -0.29407,0.29407 -1.76846,1.88423 -2,2 -0.14907,0.0745 -0.34189,-0.0527 -0.5,0 -0.35355,0.11785 -0.64645,0.38215 -1,0.5 -0.15811,0.0527 -0.35093,-0.0745 -0.5,0 -0.21082,0.10541 -0.28918,0.39459 -0.5,0.5 -0.14907,0.0745 -0.35093,-0.0745 -0.5,0 -0.21082,0.10541 -0.28918,0.39459 -0.5,0.5 -0.29814,0.14907 -0.70186,-0.14907 -1,0 -0.21082,0.10541 -0.28918,0.39459 -0.5,0.5 -0.14907,0.0745 -0.33333,0 -0.5,0 -0.16667,0 -0.33333,0 -0.5,0 -0.83333,0 -1.66667,0 -2.5,0 -0.16667,0 -0.33333,0 -0.5,0 -0.16667,0 -0.35093,-0.0745 -0.5,0 -0.21082,0.10541 -0.28918,0.39459 -0.5,0.5 -0.4,0.2 -1.1,-0.2 -1.5,0 -0.21082,0.10541 -0.28918,0.39459 -0.5,0.5 -0.14907,0.0745 -0.35093,-0.0745 -0.5,0 -0.21082,0.10541 -0.28918,0.39459 -0.5,0.5 -0.29814,0.14907 -0.70186,-0.14907 -1,0 -0.42164,0.21082 -0.57836,0.78918 -1,1 -0.14907,0.0745 -0.38215,-0.11785 -0.5,0 -0.11785,0.11785 0.11785,0.38215 0,0.5 -0.11785,0.11785 -0.38215,-0.11785 -0.5,0 -0.11785,0.11785 0.11785,0.38215 0,0.5 -0.11785,0.11785 -0.38215,-0.11785 -0.5,0 -0.0161,0.0161 0,1.37874 0,1.5 0,0.3544 -0.0646,2.87072 0,3 0.10541,0.21082 0.36926,0.30388 0.5,0.5 0.20672,0.31009 0.29328,0.68991 0.5,1 0.26149,0.39223 0.78918,0.57836 1,1 0.0742,0.14829 0,2.51638 0,3 0,1.33333 0,2.66667 0,4 0,0.26146 0.0657,1.86853 0,2 -0.10541,0.21082 -0.39459,0.28918 -0.5,0.5 -0.0745,0.14907 0.0745,0.35093 0,0.5 -0.10541,0.21082 -0.39459,0.28918 -0.5,0.5 -0.0745,0.14907 0.0745,0.35093 0,0.5 -0.21082,0.42164 -0.78918,0.57836 -1,1 -0.0745,0.14907 0.0745,0.35093 0,0.5 -0.2866,0.57321 -1.04326,0.6955 -1.5,1 -0.19612,0.13074 -0.30388,0.36926 -0.5,0.5 -0.31009,0.20672 -0.68991,0.29328 -1,0.5 -0.19612,0.13074 -0.30388,0.36926 -0.5,0.5 -0.31009,0.20672 -0.68991,0.29328 -1,0.5 -0.19612,0.13074 -0.30388,0.36926 -0.5,0.5 -0.31009,0.20672 -0.68991,0.29328 -1,0.5 -0.19612,0.13074 -0.27639,0.42546 -0.5,0.5 -0.31623,0.10541 -0.68377,-0.10541 -1,0 -0.44721,0.14907 -0.60777,0.73851 -1,1 -0.2518,1.10158 -1.0286,0.2643 -1.5,0.5 -0.42164,0.21082 -0.57836,0.78918 -1,1 -0.29814,0.14907 -0.70186,-0.14907 -1,0 -0.42164,0.21082 -0.57836,0.78918 -1,1 -0.22249,0.11124 -1.77131,-0.0762 -2,0 -0.22361,0.0745 -0.28918,0.39459 -0.5,0.5 -0.0426,0.0213 -1.95738,0.0213 -2,0 -0.21082,-0.10541 -0.28918,-0.39459 -0.5,-0.5 -0.14907,-0.0745 -0.35093,0.0745 -0.5,0 -0.21082,-0.10541 -0.28918,-0.39459 -0.5,-0.5 -0.14907,-0.0745 -0.35093,0.0745 -0.5,0 -0.0957,-0.0479 -1.95214,-1.90429 -2,-2 -0.0745,-0.14907 0.0745,-0.35093 0,-0.5 -0.3,-0.6 -1.2,-0.9 -1.5,-1.5 -0.0745,-0.14907 0.0745,-0.35093 0,-0.5 -0.21082,-0.42164 -0.78918,-0.57836 -1,-1 -0.0745,-0.14907 0.0745,-0.35093 0,-0.5 -0.10541,-0.21082 -0.39459,-0.28918 -0.5,-0.5 -0.11124,-0.22249 0.0762,-1.77131 0,-2 -0.0745,-0.22361 -0.42546,-0.27639 -0.5,-0.5 -0.1544,-0.46321 0.1597,-2.02089 0,-2.5 -0.11785,-0.35355 -0.40961,-0.63845 -0.5,-1 -0.0809,-0.32338 0,-0.66667 0,-1 0,-1 0,-2 0,-3 0,-0.5 -0.15811,-1.02566 0,-1.5 0.0745,-0.22361 0.42546,-0.27639 0.5,-0.5 0.15,-0.45 -0.15,-1.05 0,-1.5 0.11785,-0.35355 0.38215,-0.64645 0.5,-1 0.11464,-0.34392 -0.14751,-1.20499 0,-1.5 0.10541,-0.21082 0.42546,-0.27639 0.5,-0.5 0.10541,-0.31623 -0.10541,-0.68377 0,-1 0.0745,-0.22361 0.39459,-0.28918 0.5,-0.5 0.2,-0.4 -0.2,-1.1 0,-1.5 0.10541,-0.21082 0.39459,-0.28918 0.5,-0.5 0.0761,-0.15217 0,-1.27482 0,-1.5 0,-0.34777 0.0904,-2.31918 0,-2.5 -0.10541,-0.21082 -0.28918,-0.39459 -0.5,-0.5 -0.14907,-0.0745 -0.35093,0.0745 -0.5,0 -0.42164,-0.21082 -0.57836,-0.78918 -1,-1 -0.14907,-0.0745 -0.35093,0.0745 -0.5,0 -0.42164,-0.21082 -0.57836,-0.78918 -1,-1 -0.14907,-0.0745 -0.34189,0.0527 -0.5,0 -0.35355,-0.11785 -0.64645,-0.38215 -1,-0.5 -0.15811,-0.0527 -0.35093,0.0745 -0.5,0 -0.42164,-0.21082 -0.55279,-0.85093 -1,-1 -0.31623,-0.10541 -0.68377,0.10541 -1,0 -0.22361,-0.0745 -0.28918,-0.39459 -0.5,-0.5 -0.14907,-0.0745 -0.33333,0 -0.5,0 -0.33333,-0.16667 -0.68991,-0.29328 -1,-0.5 -0.19612,-0.13074 -0.27639,-0.42546 -0.5,-0.5 -0.31623,-0.10541 -0.68377,0.10541 -1,0 -0.22361,-0.0745 -0.30388,-0.36926 -0.5,-0.5 -2.5259,-1.68394 -0.0116,-0.004 -1.5,-0.5 -1.81265,-0.60422 -0.35585,-0.23723 -1.5,-1 -0.31009,-0.20672 -0.68991,-0.29328 -1,-0.5 -0.91487,-0.60991 -0.0499,-0.63747 -1.5,-1 -0.32338,-0.0808 -0.67662,0.0808 -1,0 -0.36155,-0.0904 -0.63845,-0.40961 -1,-0.5 -0.32338,-0.0808 -0.68377,0.10541 -1,0 -0.22361,-0.0745 -0.28918,-0.39459 -0.5,-0.5 -0.14907,-0.0745 -0.35093,0.0745 -0.5,0 -0.21082,-0.10541 -0.28918,-0.39459 -0.5,-0.5 -0.14907,-0.0745 -0.35093,0.0745 -0.5,0 -0.21082,-0.10541 -0.28918,-0.39459 -0.5,-0.5 -0.14907,-0.0745 -0.35093,0.0745 -0.5,0 -0.21082,-0.10541 -0.27639,-0.42546 -0.5,-0.5 -0.31623,-0.10541 -0.68377,0.10541 -1,0 -0.22361,-0.0745 -0.28918,-0.39459 -0.5,-0.5 -0.14907,-0.0745 -0.35093,0.0745 -0.5,0 -0.21082,-0.10541 -0.28918,-0.39459 -0.5,-0.5 -0.14907,-0.0745 -0.33333,0 -0.5,0 -0.33333,0 -0.68377,0.10541 -1,0 -0.44721,-0.14907 -0.57836,-0.78918 -1,-1 -0.29814,-0.14907 -0.68377,0.10541 -1,0 -0.35355,-0.11785 -0.64645,-0.38215 -1,-0.5 -0.31623,-0.10541 -0.70186,0.14907 -1,0 -0.21082,-0.10541 -0.28918,-0.39459 -0.5,-0.5 -0.14907,-0.0745 -0.35093,0.0745 -0.5,0 -1.10553,-0.55276 -0.15516,-0.31032 -0.5,-1 -0.10541,-0.21082 -0.33333,-0.33333 -0.5,-0.5 -0.16667,-0.16667 -0.28918,-0.39459 -0.5,-0.5 -0.14907,-0.0745 -0.38215,0.11785 -0.5,0 -0.11785,-0.11785 0.0745,-0.35093 0,-0.5 -0.0664,-0.13276 -1.36724,-1.43362 -1.5,-1.5 -0.14907,-0.0745 -0.38215,0.11785 -0.5,0 -0.11785,-0.11785 0.0745,-0.35093 0,-0.5 -0.21082,-0.42164 -0.78918,-0.57836 -1,-1 -0.0745,-0.14907 0.0745,-0.35093 0,-0.5 -0.13352,-0.26704 -1.23677,-1.23677 -1.5,-1.5 -0.26323,-0.26323 -1.23296,-1.36648 -1.5,-1.5 -0.14907,-0.0745 -0.35093,0.0745 -0.5,0 -0.21082,-0.10541 -0.28918,-0.39459 -0.5,-0.5 -0.29814,-0.14907 -0.70186,0.14907 -1,0 -0.21082,-0.10541 -0.27639,-0.42546 -0.5,-0.5 -0.34015,-0.11338 -2.23488,0.13256 -2.5,0 -0.21082,-0.10541 -0.28918,-0.39459 -0.5,-0.5 -0.14907,-0.0745 -0.33333,0 -0.5,0 -0.16667,0 -0.33333,0 -0.5,0 -0.83333,0 -1.66667,0 -2.5,0 -0.33333,0 -0.66667,0 -1,0 -0.16667,0 -0.34189,-0.0527 -0.5,0 -0.35355,0.11785 -0.63845,0.40961 -1,0.5 -0.32338,0.0808 -0.68377,-0.10541 -1,0 -0.10537,0.0351 -1.40842,1.36263 -1.5,1.5 -0.20672,0.31009 -0.38215,0.64645 -0.5,1 -0.0527,0.15811 0,0.33333 0,0.5 0,0.33333 0,0.66667 0,1 0,0.83333 0,1.66667 0,2.5 0,0.33333 0.10541,0.68377 0,1 -1.20724,3.62171 0.14415,-0.7883 -1,1.5 -0.26667,0.53333 0.49497,0.66834 -0.5,1 -0.31623,0.10541 -0.68377,-0.10541 -1,0 -0.44721,0.14907 -0.57836,0.78918 -1,1 -0.31797,0.15899 -2.08589,-0.13804 -2.5,0 -0.22361,0.0745 -0.27639,0.42546 -0.5,0.5 -0.47434,0.15811 -1,0 -1.5,0 -0.40935,0 -2.17604,0.10799 -2.5,0 -0.35355,-0.11785 -0.64645,-0.38215 -1,-0.5 -0.15811,-0.0527 -0.35093,0.0745 -0.5,0 -0.42164,-0.21082 -0.55279,-0.85093 -1,-1 -0.31623,-0.10541 -0.68377,0.10541 -1,0 -0.22361,-0.0745 -0.28918,-0.39459 -0.5,-0.5 -0.14907,-0.0745 -0.35093,0.0745 -0.5,0 -0.21082,-0.10541 -0.28918,-0.39459 -0.5,-0.5 -0.14907,-0.0745 -0.35093,0.0745 -0.5,0 -0.42164,-0.21082 -0.57836,-0.78918 -1,-1 -0.14907,-0.0745 -0.38215,0.11785 -0.5,0 -0.11785,-0.11785 0.0745,-0.35093 0,-0.5 -0.10541,-0.21082 -0.33333,-0.33333 -0.5,-0.5 -0.16667,-0.16667 -0.28918,-0.39459 -0.5,-0.5 -0.14907,-0.0745 -0.35093,0.0745 -0.5,0 -0.0957,-0.0479 -1.95214,-1.90429 -2,-2 -0.0745,-0.14907 0.0745,-0.35093 0,-0.5 -0.45523,-0.91046 -0.37929,-0.2931 -1,-0.5 -0.35355,-0.11785 -0.68991,-0.29328 -1,-0.5 -0.19612,-0.13074 -0.27639,-0.42546 -0.5,-0.5 -0.22888,-0.0763 -2.22092,0 -2.5,0 -1.66667,0 -3.33333,0 -5,0 -0.12126,0 -1.48392,0.0161 -1.5,0 -0.11785,-0.11785 0.0745,-0.35093 0,-0.5 -0.3,-0.6 -1.2,-0.9 -1.5,-1.5 -0.0745,-0.14907 0.0745,-0.35093 0,-0.5 -1.14415,-2.2883 0.20724,2.12171 -1,-1.5 -0.0527,-0.15811 0.0745,-0.35093 0,-0.5 -0.21082,-0.42164 -0.73851,-0.60777 -1,-1 -0.20672,-0.31009 -0.29328,-0.68991 -0.5,-1 -0.13074,-0.19612 -0.39459,-0.28918 -0.5,-0.5 -0.0745,-0.14907 0.0527,-0.34189 0,-0.5 -0.11785,-0.35355 -0.40961,-0.63845 -0.5,-1 -0.0809,-0.32338 0.10541,-0.68377 0,-1 -0.0745,-0.22361 -0.42546,-0.27639 -0.5,-0.5 -0.10541,-0.31623 0.10541,-0.68377 0,-1 -0.0745,-0.22361 -0.42546,-0.27639 -0.5,-0.5 -0.10541,-0.31623 0.10541,-0.68377 0,-1 -0.0745,-0.22361 -0.36926,-0.30388 -0.5,-0.5 -2.24048,-2.5296 0.24503,-0.01 -0.5,-1.5 -0.21082,-0.42164 -0.85093,-0.55279 -1,-1 -0.10541,-0.31623 0.10541,-0.68377 0,-1 -0.14907,-0.44721 -0.78918,-0.57836 -1,-1 -0.0745,-0.14907 0.0745,-0.35093 0,-0.5 -0.10541,-0.21082 -0.39459,-0.28918 -0.5,-0.5 -0.0745,-0.14907 0.0527,-0.34189 0,-0.5 -0.11785,-0.35355 -0.38215,-0.64645 -0.5,-1 -0.0527,-0.15811 0.0745,-0.35093 0,-0.5 -0.21082,-0.42164 -0.78918,-0.57836 -1,-1 -0.0745,-0.14907 0.0745,-0.35093 0,-0.5 -0.10541,-0.21082 -0.33333,-0.33333 -0.5,-0.5 -0.16667,-0.16667 -0.33333,-0.33333 -0.5,-0.5 -1.65829,-1.65829 0.2357,0.4714 -0.5,-1 -0.21082,-0.42164 -0.78918,-0.57836 -1,-1 -0.0745,-0.14907 0.0745,-0.35093 0,-0.5 -0.10541,-0.21082 -0.39459,-0.28918 -0.5,-0.5 -0.0745,-0.14907 0.0745,-0.35093 0,-0.5 -0.10541,-0.21082 -0.39459,-0.28918 -0.5,-0.5 -0.0745,-0.14907 0.0745,-0.35093 0,-0.5 -0.10541,-0.21082 -0.39459,-0.28918 -0.5,-0.5 -0.0745,-0.14907 0.0745,-0.35093 0,-0.5 -0.10541,-0.21082 -0.39459,-0.28918 -0.5,-0.5 -0.14907,-0.29814 0.14907,-0.70186 0,-1 -0.10541,-0.21082 -0.39459,-0.28918 -0.5,-0.5 -0.0745,-0.14907 0.0745,-0.35093 0,-0.5 -0.10541,-0.21082 -0.39459,-0.28918 -0.5,-0.5 -0.0745,-0.14907 0.0745,-0.35093 0,-0.5 -0.3,-0.6 -1.2,-0.9 -1.5,-1.5 -0.0745,-0.14907 0.11785,-0.38215 0,-0.5 -0.11785,-0.11785 -0.35093,0.0745 -0.5,0 -1.10553,-0.55276 -0.15516,-0.31032 -0.5,-1 -1.04044,-2.08088 0.0345,0.53452 -1,-0.5 -0.11785,-0.11785 0.11785,-0.38215 0,-0.5 -0.11785,-0.11785 -0.35093,0.0745 -0.5,0 -0.21082,-0.10541 -0.28918,-0.39459 -0.5,-0.5 -0.0683,-0.0341 -2.93171,-0.0341 -3,0 -0.21082,0.10541 -0.28918,0.39459 -0.5,0.5 -0.29814,0.14907 -0.70186,-0.14907 -1,0 -0.21082,0.10541 -0.28918,0.39459 -0.5,0.5 -0.10256,0.0513 -1.42949,0.0705 -1.5,0 -0.11785,-0.11785 0.11785,-0.38215 0,-0.5 -0.11785,-0.11785 -0.38215,0.11785 -0.5,0 -0.11785,-0.11785 0.11785,-0.38215 0,-0.5 -0.11785,-0.11785 -0.35093,0.0745 -0.5,0 -0.42164,-0.21082 -0.57836,-0.78918 -1,-1 -0.14907,-0.0745 -0.38215,0.11785 -0.5,0 -0.11785,-0.11785 0.0745,-0.35093 0,-0.5 -0.55276,-1.10553 -0.31032,-0.15516 -1,-0.5 -0.6,-0.3 -0.9,-1.2 -1.5,-1.5 -0.14907,-0.0745 -0.35093,0.0745 -0.5,0 -0.42164,-0.21082 -0.57836,-0.78918 -1,-1 -0.14907,-0.0745 -0.33333,0 -0.5,0 -0.33333,-0.16667 -0.68991,-0.29328 -1,-0.5 -0.39223,-0.26149 -0.57836,-0.78918 -1,-1 -0.14907,-0.0745 -0.34189,0.0527 -0.5,0 -3.62171,-1.20724 0.7883,0.14415 -1.5,-1 -0.14907,-0.0745 -0.34189,0.0527 -0.5,0 -0.35355,-0.11785 -0.64645,-0.38215 -1,-0.5 -0.15811,-0.0527 -0.35093,0.0745 -0.5,0 -0.21082,-0.10541 -0.28918,-0.39459 -0.5,-0.5 -0.29814,-0.14907 -0.70186,0.14907 -1,0 -0.42164,-0.21082 -0.57836,-0.78918 -1,-1 -0.14907,-0.0745 -0.35093,0.0745 -0.5,0 -0.21082,-0.10541 -0.28918,-0.39459 -0.5,-0.5 -0.29814,-0.14907 -0.70186,0.14907 -1,0 -0.21082,-0.10541 -0.28918,-0.39459 -0.5,-0.5 -0.29814,-0.14907 -0.70186,0.14907 -1,0 -0.21082,-0.10541 -0.28918,-0.39459 -0.5,-0.5 -0.29814,-0.14907 -0.70186,0.14907 -1,0 -0.21082,-0.10541 -0.28918,-0.39459 -0.5,-0.5 -0.15217,-0.0761 -1.27482,0 -1.5,0 -0.26146,0 -1.86853,-0.0657 -2,0 -0.21082,0.10541 -0.28918,0.39459 -0.5,0.5 -0.14907,0.0745 -0.35093,-0.0745 -0.5,0 -2.08088,1.04044 0.53452,-0.0345 -0.5,1 -0.11785,0.11785 -0.35093,-0.0745 -0.5,0 -0.21082,0.10541 -0.33333,0.33333 -0.5,0.5 -0.16667,0.16667 -0.39459,0.28918 -0.5,0.5 -0.0745,0.14907 0.11785,0.38215 0,0.5 -0.11785,0.11785 -0.35093,-0.0745 -0.5,0 -0.21082,0.10541 -0.28918,0.39459 -0.5,0.5 -0.14907,0.0745 -0.38215,-0.11785 -0.5,0 -0.11785,0.11785 0.0745,0.35093 0,0.5 -0.10541,0.21082 -0.33333,0.33333 -0.5,0.5 -0.16667,0.16667 -0.28918,0.39459 -0.5,0.5 -0.14907,0.0745 -0.35093,-0.0745 -0.5,0 -0.92051,0.46025 -0.0795,1.03975 -1,1.5 -0.14907,0.0745 -0.35093,-0.0745 -0.5,0 -0.21082,0.10541 -0.28918,0.39459 -0.5,0.5 -0.14907,0.0745 -0.38215,-0.11785 -0.5,0 -0.11785,0.11785 0.11785,0.38215 0,0.5 -0.11785,0.11785 -0.35093,-0.0745 -0.5,0 -0.21082,0.10541 -0.28918,0.39459 -0.5,0.5 -0.14907,0.0745 -0.38215,-0.11785 -0.5,0 -0.11785,0.11785 0.11785,0.38215 0,0.5 -0.11785,0.11785 -0.35093,-0.0745 -0.5,0 -0.21082,0.10541 -0.28918,0.39459 -0.5,0.5 -0.14907,0.0745 -0.35093,-0.0745 -0.5,0 -0.21082,0.10541 -0.28918,0.39459 -0.5,0.5 -0.14907,0.0745 -0.34189,-0.0527 -0.5,0 -0.35355,0.11785 -0.64645,0.38215 -1,0.5 -0.31623,0.10541 -0.70186,-0.14907 -1,0 -0.21082,0.10541 -0.28918,0.39459 -0.5,0.5 -0.29814,0.14907 -0.70186,-0.14907 -1,0 -0.21082,0.10541 -0.28918,0.39459 -0.5,0.5 -0.14907,0.0745 -0.33333,0 -0.5,0 -0.16667,0 -0.33333,0 -0.5,0 -0.83333,0 -1.66667,0 -2.5,0 -0.18362,0 -1.97988,0.0201 -2,0 -0.11785,-0.11785 0.11785,-0.38215 0,-0.5 -0.10222,-0.10222 -1.30175,0.0991 -1.5,0 -0.21082,-0.10541 -0.28918,-0.39459 -0.5,-0.5 -0.29814,-0.14907 -0.70186,0.14907 -1,0 -0.42164,-0.21082 -0.57836,-0.78918 -1,-1 -0.14907,-0.0745 -0.38215,0.11785 -0.5,0 -0.11785,-0.11785 0.11785,-0.38215 0,-0.5 -0.11785,-0.11785 -0.35093,0.0745 -0.5,0 -0.21082,-0.10541 -0.28918,-0.39459 -0.5,-0.5 -0.14907,-0.0745 -0.35093,0.0745 -0.5,0 -0.21082,-0.10541 -0.28918,-0.39459 -0.5,-0.5 -0.4,-0.2 -1.1,0.2 -1.5,0 -0.21082,-0.10541 -0.27639,-0.42546 -0.5,-0.5 -0.6827,-0.22757 -2.3173,0.22757 -3,0 -0.22361,-0.0745 -0.27639,-0.42546 -0.5,-0.5 -0.45,-0.15 -1.05,0.15 -1.5,0 -0.35355,-0.11785 -0.64645,-0.38215 -1,-0.5 -0.15811,-0.0527 -0.34189,0.0527 -0.5,0 -0.35355,-0.11785 -0.63845,-0.40961 -1,-0.5 -0.32338,-0.0808 -0.68377,0.10541 -1,0 -0.22361,-0.0745 -0.27639,-0.42546 -0.5,-0.5 -0.31623,-0.10541 -0.68377,0.10541 -1,0 -0.22361,-0.0745 -0.27639,-0.42546 -0.5,-0.5 -0.31623,-0.10541 -0.68377,0.10541 -1,0 -0.22361,-0.0745 -0.27639,-0.42546 -0.5,-0.5 -2.27614,0 -0.0286,0.2357 -1.5,-0.5 -0.29814,-0.14907 -0.70186,0.14907 -1,0 -0.21082,-0.10541 -0.28918,-0.39459 -0.5,-0.5 -0.14907,-0.0745 -0.35093,0.0745 -0.5,0 -0.21082,-0.10541 -0.28918,-0.39459 -0.5,-0.5 -0.14907,-0.0745 -0.35093,0.0745 -0.5,0 -0.21082,-0.10541 -0.28918,-0.39459 -0.5,-0.5 -0.13147,-0.0657 -1.73854,0 -2,0 -0.16667,0 -0.33333,0 -0.5,0 -0.16667,0 -0.35093,-0.0745 -0.5,0 -0.21082,0.10541 -0.28918,0.39459 -0.5,0.5 -0.14907,0.0745 -0.33333,0 -0.5,0 -0.33333,0.16667 -0.68991,0.29328 -1,0.5 -0.39223,0.26149 -0.57836,0.78918 -1,1 -0.14907,0.0745 -0.35093,-0.0745 -0.5,0 -0.42164,0.21082 -0.57836,0.78918 -1,1 -0.14907,0.0745 -0.35093,-0.0745 -0.5,0 -0.21082,0.10541 -0.28918,0.39459 -0.5,0.5 -0.29814,0.14907 -0.70186,-0.14907 -1,0 -0.21082,0.10541 -0.28918,0.39459 -0.5,0.5 -0.4,0.2 -1.1,-0.2 -1.5,0 -0.21082,0.10541 -0.28918,0.39459 -0.5,0.5 -0.19825,0.0991 -1.39778,-0.10222 -1.5,0 -0.11785,0.11785 0.11785,0.38215 0,0.5 -0.2357,0.2357 -0.70186,-0.14907 -1,0 -0.21082,0.10541 -0.28918,0.39459 -0.5,0.5 -0.31426,0.15713 -1.68574,-0.15713 -2,0 -0.21082,0.10541 -0.28918,0.39459 -0.5,0.5 -0.0683,0.0341 -2.93171,0.0341 -3,0 -0.21082,-0.10541 -0.28918,-0.39459 -0.5,-0.5 -0.14907,-0.0745 -0.38215,0.11785 -0.5,0 -0.11785,-0.11785 0.0745,-0.35093 0,-0.5 -0.10541,-0.21082 -0.39459,-0.28918 -0.5,-0.5 -0.0745,-0.14907 0.11785,-0.38215 0,-0.5 -0.11785,-0.11785 -0.38215,0.11785 -0.5,0 -0.11785,-0.11785 0.0745,-0.35093 0,-0.5 -0.10541,-0.21082 -0.39459,-0.28918 -0.5,-0.5 -0.0745,-0.14907 0.11785,-0.38215 0,-0.5 -0.11785,-0.11785 -0.38215,0.11785 -0.5,0 -0.11785,-0.11785 0.11785,-0.38215 0,-0.5 -0.11785,-0.11785 -0.38215,0.11785 -0.5,0 -0.2357,-0.2357 0.14907,-0.70186 0,-1 -0.10541,-0.21082 -0.39459,-0.28918 -0.5,-0.5 -0.0745,-0.14907 0,-0.33333 0,-0.5 0,-0.16667 0,-0.33333 0,-0.5 0,-0.45068 -0.1049,-2.1853 0,-2.5 0.11785,-0.35355 0.38215,-0.64645 0.5,-1 0.0911,-0.27332 0,-3.10916 0,-3.5 0,-0.16667 -0.0745,-0.35093 0,-0.5 0.10541,-0.21082 0.39459,-0.28918 0.5,-0.5 0.2,-0.4 -0.2,-1.1 0,-1.5 0.10541,-0.21082 0.39459,-0.28918 0.5,-0.5 0.15181,-0.30361 -0.15181,-2.69639 0,-3 0.10541,-0.21082 0.39459,-0.28918 0.5,-0.5 0.0745,-0.14907 0,-0.33333 0,-0.5 0,-0.3544 -0.0646,-2.87072 0,-3 0.10541,-0.21082 0.39459,-0.28918 0.5,-0.5 0.0761,-0.15217 0,-1.27482 0,-1.5 0,-1.16667 0,-2.33333 0,-3.5 0,-0.22518 -0.0761,-1.34783 0,-1.5 1.04044,-2.08088 -0.0345,0.53452 1,-0.5 0.11785,-0.11785 -0.11785,-0.38215 0,-0.5 0.11785,-0.11785 0.38215,0.11785 0.5,0 0.11785,-0.11785 -0.11785,-0.38215 0,-0.5 0.2357,-0.2357 0.7643,0.2357 1,0 0.11785,-0.11785 -0.11785,-0.38215 0,-0.5 0.11785,-0.11785 0.38215,0.11785 0.5,0 0.2357,-0.2357 -0.14907,-0.70186 0,-1 0.10541,-0.21082 0.39459,-0.28918 0.5,-0.5 0.0513,-0.10256 0.0705,-1.42949 0,-1.5 -0.11785,-0.11785 -0.38215,0.11785 -0.5,0 -0.13681,-0.13681 0.13562,-1.72876 0,-2 -0.10541,-0.21082 -0.39459,-0.28918 -0.5,-0.5 -0.14907,-0.29814 0.14907,-0.70186 0,-1 -0.10541,-0.21082 -0.39459,-0.28918 -0.5,-0.5 -0.0904,-0.18082 0,-2.15223 0,-2.5 0,-1.17259 0.11785,0.2357 -0.5,-1 -0.0657,-0.13147 0,-1.73854 0,-2 0,-1.33333 0,-2.66667 0,-4 0,-0.22518 0.0761,-1.34783 0,-1.5 -0.10541,-0.21082 -0.39459,-0.28918 -0.5,-0.5 -0.15181,-0.30361 0.15181,-2.69639 0,-3 -0.10541,-0.21082 -0.39459,-0.28918 -0.5,-0.5 -0.2,-0.4 0.2,-1.1 0,-1.5 -0.10541,-0.21082 -0.39459,-0.28918 -0.5,-0.5 -0.34484,-0.68968 0.60553,-0.44724 -0.5,-1 -0.14907,-0.0745 -0.38215,0.11785 -0.5,0 -0.2357,-0.2357 0.2357,-0.7643 0,-1 -0.11785,-0.11785 -0.38215,0.11785 -0.5,0 -0.2357,-0.2357 0.2357,-0.7643 0,-1 -0.11785,-0.11785 -0.38215,0.11785 -0.5,0 -0.11785,-0.11785 0.11785,-0.38215 0,-0.5 -0.11785,-0.11785 -0.33333,0 -0.5,0 -0.66667,-0.83333 -1.33333,-1.66667 -2,-2.5 z"
       id="path3030"
       inkscape:connector-curvature="0" />
  </g>
</svg>
