<?xml version="1.0" encoding="utf-8"?>
<!-- Generator: Adobe Illustrator 16.0.0, SVG Export Plug-In . SVG Version: 6.00 Build 0)  -->
<!DOCTYPE svg PUBLIC "-//W3C//DTD SVG 1.1//EN" "http://www.w3.org/Graphics/SVG/1.1/DTD/svg11.dtd">
<svg version="1.1" id="Layer_1" xmlns="http://www.w3.org/2000/svg" xmlns:xlink="http://www.w3.org/1999/xlink" x="0px" y="0px"
	 width="960px" height="540px" viewBox="0 0 960 540" enable-background="new 0 0 960 540" xml:space="preserve">
<g>
	<path fill="#BF0000" d="M497.39,66.37c5.68-3.73,4.25,0.99,4.79,3.39c0.65,0.13,1.94,0.4,2.58,0.53c1.66,1.75,2.06,4.79,6.02,2.96
		c0.96,1.1,1.57,2.46,2.41,3.66c1.21,0.04,2.4-0.29,3.6-0.44c1.69,0.32,2.94,1.47,3.95,2.8c1.87,5.51,3.83,11.16,7.18,15.98
		c0.29,1.89-0.08,3.76-1.57,5.07c-0.28,2.13,1.96,5.01-0.54,6.57c-2.21,0.39-3.44-2.72-5.57-2.51c-2.271,1.09-4.49,2.29-6.91,3.04
		c-2.13,1.55-3.88,4.2-7.25,2.75c-2.22,0.77-4.47,2.42-5.06,4.83c0.54,1.92,2.16,3.27,2.94,5.06c-0.22,1.61-0.8,3.15-1.04,4.76
		c-2.21,1.52-4.96,2.26-6.71,4.39c-1.26,1.27-1.71,3.05-2.49,4.62c-2.62,0.92-4.49-2.05-6.65-2.93c-2.19-2.23-6.19-2.63-8.42-0.32
		c-1.79,0.5-3.58,1.12-5.43,1.29c-1.73-4.4-4.1-8.45-6.67-12.38c-3.57-2.48-5.13-6.86-7.88-10.08c-2.83-0.89-4.68-3.35-7.04-5.02
		c-1.52-0.85-2.07-2.67-3.53-3.56c-0.06,1.85-0.18,5.54-0.24,7.39c-2.87-3.15-5.17-7.38-3.57-11.81c1.15-0.94,2.12-2.18,3.65-2.51
		c3.37-0.92,5.41-5.03,9.63-2.68c1.2,2.96,4.92,2.7,7.5,3.63c1.87,0.84,2.09-1.72,3.19-2.58c1.85-0.92,3.82-1.6,5.81-2.17
		c1.89-0.72,2.77,2.37,4.63,1.72c2.09-4.03,5.55-7.83,4.36-12.81c-0.11-1.89-0.4-7.06,2.85-7.17c3.66-1.06,4.83-6.02,9.69-4.3
		C496.05,67.25,496.94,66.66,497.39,66.37z"/>
</g>
<g>
	<g>
		<path fill="#DF0000" d="M543.66,92.7c0.19-1.34,0.9-1.84,2.13-1.51c3.68,3.38,6.18,7.79,10.03,11.04
			c0.03,0.42,0.08,1.27,0.11,1.69c-1.17,2.73-2.15,5.56-3.88,7.99c-0.01,1.5-0.04,4.51-0.05,6.02c0.37,1.22,1.61,1.91,1.99,3.14
			c0.46,2.56-1.771,4.47-1.98,6.92c-0.07,1.54-1.13,2.62-1.96,3.81c0.43,0.09,1.28,0.26,1.71,0.34c-0.37,1.34-1.35,2.96,0.02,4.08
			c2.59,2.13-0.84,8.27,6.23,4.93c1.01,2.77-1.76,6.01,0.26,8.54c1.18,0.56,2.39,1.07,3.6,1.59c0.62,1.62-0.62,2.88-1.43,4.11
			c-0.33,1.41-0.99,4.21-1.32,5.61c0.38,1.13,1.35,1.92,1.84,3c-0.54,1.38-0.92,2.88-1.81,4.08c-1.97-0.5-2.22,1.08-2.56,2.57
			c-2.86,2.12-5.33,4.7-8.28,6.71c-2.64,3.13-6.34,4.96-9.14,7.9c-3.68-0.76-7.39-1.03-11.12-0.3c-1.85,0.32-1.47-2.77-3.19-2.79
			c-3.27-0.74-6.2-2.38-9.2-3.78c-3.19-0.35-6.6-0.95-9.62,0.45c-0.02-0.45-0.05-1.33-0.06-1.77l0.87-0.39
			c0.03-1.39,0.1-4.18,0.14-5.57c-1.33-0.08-2.65-0.15-3.97-0.22c-0.8-2.31,1.52-1.84,3.03-2.06c-0.24-1.79-1.41-3.23-2.04-4.88
			c-0.52-1.92,1.73-2.18,2.77-3.17c-0.58-4.19,3.29-7.94,1.72-12.04c-0.37-2.86,3.79-3.91,3.55-6.73c0.42-2.36-2.15-3.28-3.67-4.42
			c-1.68-3.98-2.43-8.27-3.56-12.41c-0.48-0.09-1.42-0.27-1.9-0.36c0.24-1.61,0.82-3.15,1.04-4.76c-0.78-1.79-2.4-3.14-2.94-5.06
			c0.59-2.41,2.84-4.06,5.06-4.83c3.37,1.45,5.12-1.2,7.25-2.75c2.42-0.75,4.64-1.95,6.91-3.04c2.13-0.21,3.36,2.9,5.57,2.51
			c2.5-1.56,0.26-4.44,0.54-6.57c1.49-1.31,1.86-3.18,1.57-5.07c2.07-0.21,4.25-0.16,6.15-1.17
			C537.25,93.77,540.52,93.49,543.66,92.7z M529,160v1h-1c0,0.5,0,1.5,0,2h1c0,0.75,0,2.25,0,3h1v1c0.5,0,1.5,0,2,0c0-0.5,0-1.5,0-2
			h1c0-0.75,0-2.25,0-3c-0.5,0-1.5,0-2,0v-1h-1v-1H529z"/>
	</g>
</g>
<g>
	<path fill="#00BFBF" d="M448.1,100.83c1.46,0.89,2.01,2.71,3.53,3.56c2.36,1.67,4.21,4.13,7.04,5.02c2.75,3.22,4.31,7.6,7.88,10.08
		c2.57,3.93,4.94,7.98,6.67,12.38c1.85-0.17,3.64-0.79,5.43-1.29c2.23-2.31,6.23-1.91,8.42,0.32c2.16,0.88,4.03,3.85,6.65,2.93
		c0.78-1.57,1.23-3.35,2.49-4.62c1.75-2.13,4.5-2.87,6.71-4.39c0.48,0.09,1.42,0.27,1.9,0.36c1.13,4.14,1.88,8.43,3.56,12.41
		c1.52,1.14,4.09,2.06,3.67,4.42c0.24,2.82-3.92,3.87-3.55,6.73c1.57,4.1-2.3,7.85-1.72,12.04c-1.04,0.99-3.29,1.25-2.77,3.17
		c0.63,1.65,1.8,3.09,2.04,4.88c-1.51,0.22-3.83-0.25-3.03,2.06c1.32,0.07,2.64,0.14,3.97,0.22c-0.04,1.39-0.11,4.18-0.14,5.57
		l-0.87,0.39c-0.69,0.03-2.05,0.1-2.74,0.14c-1.31,2.37-4.08,3.44-5.01,6.05c-0.5,1.59,0.67,3.09,0.62,4.68
		c-0.27,1.04-0.54,2.07-0.82,3.1c-1.57-0.04-3.15,0.05-4.69-0.25c-1.69-4.83-8.35-4.7-12.23-2.59c-0.29,3.96,1.91,8.64-1.07,11.92
		c-3.16,0.4-2.64,5.49-5.95,4.89c-1.98-1.8-4.23,0.05-6.42-0.46c-4.27,1.35-7.05-3.01-6.65-6.49c0.22-1.2,2.23-2.13,1.44-3.4
		c-0.56-3.58-7.96,0.58-3.49-6.69c-0.73-2.81,2.47-4.26,2.75-6.75c-1.94-1.78-3.58-3.81-4.93-6.06c-2.62-0.05-5.22-0.13-7.82-0.24
		c-0.79-2.42,2.13-3.57,1.97-5.75c-4.83-3.48-9.21-7.85-12.01-13.14c1.96,0.03,0.17-2.13,0.26-3.11c-0.61-2.27,1.51-4.4,0.66-6.72
		c-1.18-1.09-3.53-3.28-4.71-4.38c1.65-2,3.23-4.04,4.24-6.46c2.5-0.9,5.07-1.58,7.55-2.55c-0.48-2.25-2.37-3.06-4.35-3.74
		c0.77-1.5,2.29-0.61,3.41-0.23c0.16-5.82-0.29-11.66,0.34-17.47c0.7-0.95,1.74-1.82,1.53-3.15
		C447.92,106.37,448.04,102.68,448.1,100.83z"/>
</g>
<g>
	<g>
		<path fill="#7F00BF" d="M420.16,120.89c3.2-0.29,4.94,3.47,8.44,2.62c2.06,1.43,4.23,2.24,6.97,1.83
			c0.76,1.24,1.56,2.47,2.64,3.48c1.44,0.23,2.91,0.2,4.37,0.25c1.98,0.68,3.87,1.49,4.35,3.74c-2.48,0.97-5.05,1.65-7.55,2.55
			c-1.01,2.42-2.59,4.46-4.24,6.46c1.18,1.1,3.53,3.29,4.71,4.38c0.85,2.32-1.27,4.45-0.66,6.72c-0.09,0.98,1.7,3.14-0.26,3.11
			l-0.86,0.23c0.23,1.55,1.07,2.99,0.92,4.61c-0.75,0.06-2.26,0.19-3.02,0.25c1.22,1.41,2.38,2.94,2.1,4.94
			c-2.12-2.08-4.97-2.38-7.87-2.02c-0.11,0.67-0.34,2.02-0.45,2.69c-0.6,0.14-1.82,0.43-2.43,0.58c-0.87,2.82-2.33,5.46-2.61,8.45
			c-3.39,1.06-6.32,2.96-9.45,4.59c-0.28,1.43-0.85,4.28-1.13,5.71c-0.56,1.68,1.46,2.51,1.8,3.96c-0.56,1.96-1.7,4.27-4.07,4.22
			c-0.48-0.32-1.44-0.97-1.92-1.29c0.28,1.05,0.58,2.1,0.93,3.14c-1.62,0.01-3.19-0.33-4.7-0.85c-0.05,1.89-0.94,3.43-2.37,4.62
			c-1.71,0.8-2.5-2.36-4.1-1.19c-2.63,1.43-5.67,2.02-8.63,1.6c-3.65,0.63-7.61,0.06-11.01,1.69c-0.16-2.98-0.89-5.93-1.02-8.91
			c0.63-2,2.46-3.71,1.94-5.96c-2.23-1.17-4.47-2.28-6.75-3.33c-0.16-1.21-0.3-2.42-0.42-3.63c-1.39-0.07-4.17-0.21-5.56-0.28
			c-0.3-1.37-0.37-2.95-2.07-3.2c-0.88-1.91,1.46-2.29,2.7-2.92c-1.43-1.51-1.97-3.42-2.15-5.45c-2.31-0.18-4.82-1.72-4.77-4.3
			c0.28-1.88-1.62-2.24-2.75-3.19c-0.1-0.66-0.29-1.97-0.38-2.63c0.1-1.61,0.09-3.24,0.39-4.83c2.31-0.81,4.11-2.71,4-5.27
			c3.69,1.34,7.68,0.56,11.39-0.38c1.2-3.54,5.37-3.36,8.12-4.99c1.12-1.13,3.37-3.39,4.49-4.53c1.62,0.08,3.11,0.96,4.78,0.88
			c4.85,2.87,5.14-1.68,7.23-3.76c1.51-0.44,3.56-0.06,4.25-1.85c3.68,0.7,5.22-2.59,7.85-4.1c3.22-1.74,6.57-3.35,9.55-5.51
			C420.79,122.81,420.55,121.83,420.16,120.89z M405.01,157.96c-0.47,2.46,0.89,4.61,1.15,6.99c1.46,0.01,4.38,0.04,5.84,0.05
			l-0.09-4.8C409.61,159.45,407.39,158.37,405.01,157.96z"/>
	</g>
</g>
<g>
	<path fill="#3FBF00" d="M321.7,137.63c1.88-1.59,3.19,1.08,4.63,1.97c5.08,1.24,9.27,5.3,11.02,10.17
		c4.98,5.21,12.71,1.87,18.33,5.55c1.1,0.89,2.11,1.88,3.15,2.84c0.09,0.66,0.28,1.97,0.38,2.63c1.13,0.95,3.03,1.31,2.75,3.19
		c-1.31-0.01-2.61,0.02-3.91,0.09c-0.03,2.5-0.08,7.49-0.1,9.98c-1.58-0.34-3.09-1.21-4.75-0.99c-0.75,2.25-1.22,4.52-0.23,6.77
		c-2.57,0.28-5.09,0.86-7.59,1.51c-0.18,0.36-0.54,1.07-0.72,1.42c-3.61-0.17-7.32-1.61-10.75,0.05c-3.14,0.7-5.7,2.71-8.78,3.51
		c0.04,1.38,0.14,4.13,0.18,5.51c-0.06,1.56-3.1,1.65-3.37,0.22c-0.26-0.45-0.77-1.35-1.03-1.79c-1.17,0.21-2.36,0.95-3.56,0.54
		c-0.47-0.92-0.98-1.8-1.54-2.66c-1.7-0.05-5.09-0.14-6.79-0.19c0.62-1.31,1.33-2.58,1.96-3.89c-1.33-0.04-2.67-0.1-3.99-0.15
		c0.25-1.26,0.81-2.46,0.91-3.75c-2.14-1.54-4.44,0.3-6.74-0.26c-1.19-1.53-1.45-3.51-2.39-5.17c1.35-0.6,2.72-1.25,4.19-1.51
		c1.07,0.07,2.57,1.36,3.38,0.11c1.61-1.34,0.1-3.31-0.77-4.61c-0.71-4.22,1.27-8.26,0.33-12.52c-1.62-1.08-3.39-1.96-4.73-3.4
		c-0.26-2.47-1.87-7.09,1.77-7.02c-0.61-0.9-1.33-1.71-1.88-2.64c2.24-2.56,5.42-0.39,7.79,0.72c0.79-1.17,1.4-2.44,2.27-3.56
		c1.16,0.09,2.45,1.13,3.53,0.3C316.61,138.78,319.49,139.04,321.7,137.63z"/>
</g>
<g>
	<g>
		<path fill="#3FBFBF" d="M438.07,156.26l0.86-0.23c2.8,5.29,7.18,9.66,12.01,13.14c0.16,2.18-2.76,3.33-1.97,5.75
			c2.6,0.11,5.2,0.19,7.82,0.24c1.35,2.25,2.99,4.28,4.93,6.06c-0.28,2.49-3.48,3.94-2.75,6.75c-4.47,7.27,2.93,3.11,3.49,6.69
			c0.79,1.27-1.22,2.2-1.44,3.4c-0.4,3.48,2.38,7.84,6.65,6.49c2.19,0.51,4.44-1.34,6.42,0.46c-0.29,1.67-1.33,2.98-1.02,4.77
			c0.92,0.78,1.85,1.55,2.77,2.35l0.16,0.78c-0.48,0.05-1.45,0.15-1.93,0.19c-2.16,0.36-3.6,2.08-5.24,3.33
			c-3.93,0.43-7.88,0.52-11.81,0.63c0.36,0.88,0.74,1.75,1.15,2.62c0.91,0.1,2.73-1.41,2.83,0.28c0.33,1.69,2.74,0.67,3.95,1.2
			c0.01,0.68,0.02,2.04,0.03,2.72c-1.31,0.08-2.6,0.16-3.89,0.24c-0.02,0.7-0.05,2.09-0.06,2.79c-0.04,0.52-0.1,1.57-0.13,2.09
			c-2.72,0.21-4.97-1.65-7.45-2.46c-0.77-2.43-3.47-1.54-4.39,0.24c-1.18-1.86-4.25-2.12-4.16-4.73c-0.06-1.38-1.72-1.69-2.55-2.49
			c-0.12-1.36-0.35-4.07-0.47-5.43c-7.51,3.54-3.09-3.14-6.1-4.89c-4.09-1.14-8.75-0.17-12.41-2.54c-0.66-3.27-3.71-5.22-4.69-8.39
			c-2.65-0.32-5.9-1.31-6.82-4.07c2.37,0.05,3.51-2.26,4.07-4.22c-0.34-1.45-2.36-2.28-1.8-3.96c0.28-1.43,0.85-4.28,1.13-5.71
			c3.13-1.63,6.06-3.53,9.45-4.59c0.28-2.99,1.74-5.63,2.61-8.45c0.61-0.15,1.83-0.44,2.43-0.58c0.11-0.67,0.34-2.02,0.45-2.69
			c2.9-0.36,5.75-0.06,7.87,2.02c0.28-2-0.88-3.53-2.1-4.94c0.76-0.06,2.27-0.19,3.02-0.25
			C439.14,159.25,438.3,157.81,438.07,156.26z M429,183c0,0.5,0,1.5,0,2h-1c0.5,1.16-1.11,4.44,1,4v1c0.5,0,1.5,0,2,0v-1h1
			c0-0.5,0-1.5,0-2h1c0-0.75,0-2.25,0-3c-0.5,0-1.5,0-2,0v-1C430.5,183,429.5,183,429,183z M448.94,209.01
			c-0.05,1.43,1.21,2.53,1.04,3.98c-3.57,6.34,1.28,4.67,3.86,5.11c-0.14,1.6,0.56,2.23,2.11,1.9c-3.32-8.25,1.41-4.11,4.06-3.96
			c-0.05-0.71-0.14-2.12-0.18-2.82C457.1,210.23,453.39,207.47,448.94,209.01z"/>
	</g>
</g>
<g>
	<path fill="#0100BF" d="M405.01,157.96c2.38,0.41,4.6,1.49,6.9,2.24L412,165c-1.46-0.01-4.38-0.04-5.84-0.05
		C405.9,162.57,404.54,160.42,405.01,157.96z"/>
</g>
<g>
	<path fill="#620000" d="M529,160h1v1h1v1c0.5,0,1.5,0,2,0c0,0.75,0,2.25,0,3h-1c0,0.5,0,1.5,0,2c-0.5,0-1.5,0-2,0v-1h-1
		c0-0.75,0-2.25,0-3h-1c0-0.5,0-1.5,0-2h1V160z"/>
</g>
<g>
	<path fill="#7F7F7F" d="M358.05,164.07c1.3-0.07,2.6-0.1,3.91-0.09c-0.05,2.58,2.46,4.12,4.77,4.3c0.18,2.03,0.72,3.94,2.15,5.45
		c-1.24,0.63-3.58,1.01-2.7,2.92c1.7,0.25,1.77,1.83,2.07,3.2c1.39,0.07,4.17,0.21,5.56,0.28c0.12,1.21,0.26,2.42,0.42,3.63
		c2.28,1.05,4.52,2.16,6.75,3.33c0.52,2.25-1.31,3.96-1.94,5.96c0.13,2.98,0.86,5.93,1.02,8.91c-1.34,0.98-3.39,1.61-3.35-0.81
		c-2.54-0.14-7.41-1.44-3.63,4.77c1.08,1.73,3.22,5.2,4.3,6.93c-1.2,2.7-4.92,0.01-7.2,0.34c-1.39,0.74-1.22,2.31-1.17,3.65
		c0.75,0.08,2.24,0.25,2.98,0.33c-0.05,0.62-0.15,1.87-0.2,2.5c-1.72,0.98-3.42,2-5.07,3.08c-1.89,0.46,1.23,3.15-0.77,3.27
		c-1.91,0.25-0.57,2.58,0.93,2.27c0.5,4.47-8.61,3.48-5,9.67c-0.45,0.01-1.35,0.02-1.79,0.02l-0.21-5.11
		c-2.18,0.68-1.76,3.16-2.07,4.93c-3.33,0.93-7.67,0.02-10.06,2.94c-1.28,1.97-4.29,0.45-5.47,2.51c-0.58,1.87-1.08,3.77-1.49,5.7
		c-2.38,0.62-2.11-2.48-3.04-3.87c-1.72,0.02-3.3,0.97-4.6,2.03c0.46,1.51,2.75,1.78,3.94,2.81c1.61,0.35,0.44,1.96,0.04,2.79
		c-2.69-0.19-4.65,1.71-5.46,4.13c-1.87,0.8-2.25-1.46-3.07-2.56c-4.3,0.2-8.43-0.76-12.62-1.46c0.17-1.68,2.86-1.26,3-2.91
		c0.07-3.02-3.78-5.09-1.65-8.58c0.18-0.31,0.54-0.93,0.73-1.24c0.99-0.69,1.95-1.44,2.79-2.31c0.47-2.22-1.55-4.31-0.68-6.57
		c1.83-1.83,3.83-3.5,5.51-5.48c-1.42-4.42,4.43-6.13,2.27-10.66l0.01-0.87c-0.68-0.11-2.03-0.34-2.71-0.45
		c-1.09-2.5-1.38-5.11-0.25-7.64c-1.34-0.08-2.67-0.15-4.01-0.22c-0.16-3.08,2.29-5.5,2.36-8.6c1.35-1.48,3.86-3.33,1.96-5.46
		c-0.04-1.38-0.14-4.13-0.18-5.51c3.08-0.8,5.64-2.81,8.78-3.51c3.43-1.66,7.14-0.22,10.75-0.05c0.18-0.35,0.54-1.06,0.72-1.42
		c2.5-0.65,5.02-1.23,7.59-1.51c-0.99-2.25-0.52-4.52,0.23-6.77c1.66-0.22,3.17,0.65,4.75,0.99
		C357.97,171.56,358.02,166.57,358.05,164.07z"/>
</g>
<g>
	<path fill="#3F7F3F" d="M556.59,170.65c0.34-1.49,0.59-3.07,2.56-2.57c-1.89,1.59-0.35,3.79,0.18,5.63
		c0.86,1.07,1.85,2.02,2.83,2.98c-5.04,4.11-11.04,7.35-14.4,13.11c-3.56,2.72-7.18,5.46-9.75,9.19c-0.62,0.72-1.32,1.35-2.1,1.91
		c-1.68-0.52-1.97-2.14-2.18-3.65c-0.66-0.11-1.98-0.34-2.64-0.46c-0.03-0.69-0.07-2.08-0.1-2.77c1.34,0.1,2.9,1.27,3.95-0.13
		c-0.61-1.25-2.13-2.19-1.9-3.73c1.54-1.23,4.6-3.68,6.13-4.9c2.8-2.94,6.5-4.77,9.14-7.9
		C551.26,175.35,553.73,172.77,556.59,170.65z"/>
</g>
<g>
	<path fill="#1F007F" d="M290.96,176.14c2.59-0.19,5.27-0.77,7.81-1.41c0.94,1.66,1.2,3.64,2.39,5.17c2.3,0.56,4.6-1.28,6.74,0.26
		c-0.1,1.29-0.66,2.49-0.91,3.75c1.32,0.05,2.66,0.11,3.99,0.15c-0.63,1.31-1.34,2.58-1.96,3.89c1.7,0.05,5.09,0.14,6.79,0.19
		c0.56,0.86,1.07,1.74,1.54,2.66c1.2,0.41,2.39-0.33,3.56-0.54c0.26,0.44,0.77,1.34,1.03,1.79c0.27,1.43,3.31,1.34,3.37-0.22
		c1.9,2.13-0.61,3.98-1.96,5.46c-0.07,3.1-2.52,5.52-2.36,8.6c1.34,0.07,2.67,0.14,4.01,0.22c-1.13,2.53-0.84,5.14,0.25,7.64
		c0.68,0.11,2.03,0.34,2.71,0.45l-0.01,0.87c2.16,4.53-3.69,6.24-2.27,10.66c-1.68,1.98-3.68,3.65-5.51,5.48
		c-0.87,2.26,1.15,4.35,0.68,6.57c-0.84,0.87-1.8,1.62-2.79,2.31c-1.58-0.01-3.19-0.27-4.72,0.14c-1.04,3.12-4.15,4.74-7.28,4.9
		c-3.6,0.4-2.55,7.36-8.05,3.87c-2.3-0.07-2.07-2.56-1.15-3.99c-1.54-0.06-3.08-0.05-4.61-0.08c-1.36-3.84-8.33,0.55-5.71-6.45
		c-1.65-0.94-1.76-2.97-2.39-4.57c-0.2-1.83-1.76-2.88-2.81-4.22c-0.78-2.08-1.23-4.25-1.67-6.42c-1.21-1.47-2.62-2.74-3.98-4.05
		c0.32-3.39,2.36-6.42,4.66-8.8c2.06-1.01,3.77-2.67,4-5.05c1.87-0.26,2.9-1.61,3.91-3.05c0.62-0.15,1.86-0.45,2.49-0.6
		c0.31-1.47,0.61-2.95,0.9-4.42c-1.28-0.67-2.54-1.42-3.5-2.51c-0.56-1.27,0.97-2.1,1.41-3.14c0.28-1.08,0.55-2.17,0.81-3.25
		c1.24-0.77,2.46-1.58,3.49-2.63C296.01,181.5,290.98,179.8,290.96,176.14z"/>
</g>
<g>
	<g>
		<path fill="#DF7F7F" d="M503.24,177.21c0.69-0.04,2.05-0.11,2.74-0.14c0.01,0.44,0.04,1.32,0.06,1.77c3.02-1.4,6.43-0.8,9.62-0.45
			c3,1.4,5.93,3.04,9.2,3.78c1.72,0.02,1.34,3.11,3.19,2.79c3.73-0.73,7.44-0.46,11.12,0.3c-1.53,1.22-4.59,3.67-6.13,4.9
			c-0.23,1.54,1.29,2.48,1.9,3.73c-1.05,1.4-2.61,0.23-3.95,0.13c0.03,0.69,0.07,2.08,0.1,2.77c0.66,0.12,1.98,0.35,2.64,0.46
			c0.21,1.51,0.5,3.13,2.18,3.65c2.45,0.55,1.62,6.14-0.61,5.87c-0.24-3.22-3.24-0.24-5.07-0.87c-0.11-0.46-0.33-1.38-0.44-1.84
			c-1.53,1.48-3.47,2.03-5.54,2.2c-0.72,2.19-1.25,4.43-1.41,6.74c-1.32-0.27-2.58-0.75-3.87-1.05c0.271,0.51,0.81,1.53,1.09,2.04
			c-1.94-0.54-3.82-1.17-5.87-0.97c-0.52,1.32-1.08,2.62-1.23,4.03c2.21-1.25,4.27-0.14,6.32,0.83c0.22,0.48,0.66,1.44,0.87,1.92
			c-1.69-1.05-2.94-0.01-3.89,1.43c0.22,1.5-0.6,3.86,1.56,4.11c0.49,1.62,0.15,3.32-0.96,4.6c-3.19,0.68-7.51,3.57-10.29,0.86
			c1.04-0.4,2.08-0.8,3.14-1.18c3-0.98,0.99-8.24-3.71-3.72c-0.56-2.12,1.34-3.65,1.61-5.56c-2.1-1.69-4.46-4.09-3.47-7.04
			c0.43-0.16,1.28-0.49,1.71-0.65c1.42-4.4-2.73-6.85-5.72-8.84c-1.8-2.63-5-5.19-4.11-8.74c0.6-1.39,1.89-2.43,2.01-4.03
			c0.28-1.03,0.55-2.06,0.82-3.1c0.05-1.59-1.12-3.09-0.62-4.68C499.16,180.65,501.93,179.58,503.24,177.21z M510.22,220.12
			c-1.83,0.79-0.86,2.89,0.82,2.95C513.03,222.98,512.26,218.81,510.22,220.12z"/>
	</g>
</g>
<g>
	<g>
		<path fill="#1F0000" d="M547.76,189.8c3.36-5.76,9.36-9,14.4-13.11c1.89,0.94,3.55,2.31,5.72,2.58c0.45,1.86-1.31,3.57-0.49,5.43
			c1.47,4.22,0.91,9.03,2.71,13.12c-1.32,1.63-0.63,3.44-0.09,5.21c-1.62-0.29-3.19-0.83-4.76-1.28c-0.35-1.22,0.08-3.57-1.88-2.51
			l-0.43,0.63c-1.65,1.22-3.6,1.94-5.6,2.34c0.9,2.03-1.28,3.29-2.55,4.5c-3.13-0.37-6.1-1.16-8.83-2.68
			c-0.03,1.25,0.02,2.51,0.14,3.76c0.67,0.11,2,0.34,2.67,0.46c0.44,1.63,0.9,3.26,1.12,4.95c-1.28-0.29-2.51-0.63-3.77-0.92
			c-1.53,0.74-0.07,2.16-0.44,3.34c-1.85,0.67-1.51,3.19-3.45,3.76c-0.1,3.69,3.57,6.65,2.72,10.46c-0.46,0.07-1.38,0.19-1.84,0.26
			c0.15-1.81-1.1-3.53-3.04-3.13c-0.05,1.31-0.1,2.63-0.14,3.94c-0.73,0.05-2.2,0.14-2.94,0.19c-0.45,3.09,3.79,2.67,5.86,2.95
			c-0.37,1.28-0.75,2.54-1.11,3.82c-3.88-0.02-7.75,0.09-11.6,0.32l-0.32,0.94c-1.34-2.4-3.66-5.52-6.78-4.42
			c-1.69,0.46-1.2-3.04-3.08-2.61c-1.62-0.09-3.54,0.08-3.1-2.16c1.11-1.28,1.45-2.98,0.96-4.6c-2.16-0.25-1.34-2.61-1.56-4.11
			c0.95-1.44,2.2-2.48,3.89-1.43c-0.21-0.48-0.65-1.44-0.87-1.92l-0.3-0.73c0.5-0.07,1.5-0.22,2-0.29
			c-0.01-0.66-0.03-1.98-0.03-2.65l-0.89-0.22c-0.28-0.51-0.82-1.53-1.09-2.04c1.29,0.3,2.55,0.78,3.87,1.05
			c0.16-2.31,0.69-4.55,1.41-6.74c2.07-0.17,4.01-0.72,5.54-2.2c0.11,0.46,0.33,1.38,0.44,1.84c1.83,0.63,4.83-2.35,5.07,0.87
			c2.23,0.27,3.06-5.32,0.61-5.87c0.78-0.56,1.48-1.19,2.1-1.91C540.58,195.26,544.2,192.52,547.76,189.8z M560.21,196.15
			c-0.97,1.1-0.18,3.87,1.58,2.7C562.75,197.74,561.96,194.98,560.21,196.15z M527,214v1h-1v1h-1v1h1c0,0.5,0,1.5,0,2h1v1h1v1h1v-1
			h1c0-0.75,0-2.25,0-3h1c0-0.5,0-1.5,0-2c-0.5,0-1.5,0-2,0v-1C528.5,214,527.5,214,527,214z M533.15,229.21
			c-1.18,1.75,1.58,2.54,2.7,1.58C537.02,229.03,534.25,228.24,533.15,229.21z"/>
	</g>
</g>
<g>
	<path fill="#BF3FBF" d="M429,183c0.5,0,1.5,0,2,0v1c0.5,0,1.5,0,2,0c0,0.75,0,2.25,0,3h-1c0,0.5,0,1.5,0,2h-1v1c-0.5,0-1.5,0-2,0
		v-1c-2.11,0.44-0.5-2.84-1-4h1C429,184.5,429,183.5,429,183z"/>
</g>
<g>
	<path fill="#003F7F" d="M481.11,188.2c3.88-2.11,10.54-2.24,12.23,2.59c1.54,0.3,3.12,0.21,4.69,0.25
		c-0.12,1.6-1.41,2.64-2.01,4.03c-0.89,3.55,2.31,6.11,4.11,8.74c2.99,1.99,7.14,4.44,5.72,8.84c-0.43,0.16-1.28,0.49-1.71,0.65
		c-0.99,2.95,1.37,5.35,3.47,7.04c-0.27,1.91-2.17,3.44-1.61,5.56c4.7-4.52,6.71,2.74,3.71,3.72c-1.06,0.38-2.1,0.78-3.14,1.18
		c-1.35,0.28-2.66,0.7-3.84,1.43c-2.55-2.47-3.53-7.7-8.74-5.18c-2.55,0.25-4.85-0.76-7-1.99c-2.84-0.93,0.21-5.36-2.09-7.06
		c-0.68,0.61-1.33,1.23-1.97,1.88c-0.02-1.41-0.06-4.24-0.08-5.65c-0.27-0.27-0.81-0.79-1.08-1.06c-1.44-0.06-4.33-0.19-5.77-0.26
		l-0.16-0.78l0.13-1c1.7-0.33,3.84,0.33,4.99-1.32c-1.18-2.28,0.21-4.38,0.72-6.59c-0.55-1.05-1.1-2.07-1.64-3.1
		C483.02,196.84,480.82,192.16,481.11,188.2z"/>
</g>
<g>
	<g>
		<path fill="#BF00BF" d="M409.94,192.95c0.48,0.32,1.44,0.97,1.92,1.29c0.92,2.76,4.17,3.75,6.82,4.07
			c0.98,3.17,4.03,5.12,4.69,8.39c3.66,2.37,8.32,1.4,12.41,2.54c3.01,1.75-1.41,8.43,6.1,4.89c0.12,1.36,0.35,4.07,0.47,5.43
			c0.83,0.8,2.49,1.11,2.55,2.49c-0.09,2.61,2.98,2.87,4.16,4.73c-0.27,0.5-0.81,1.5-1.08,2c1.37,0.29,2.93,0.23,3.93,1.4
			c0.14,1.65,0.64,4.13-1.76,4.12c-0.57,2.14,1.71,4.2,0.54,6.3c-2.52,1.25-2.43,5-5.41,5.77c-0.13,0.67-0.39,2.02-0.52,2.69
			c-3.86,0.55-7.03-1.32-10.51-2.39c-1.62-1.08-2.26-3-3.47-4.45c-1.35-0.11-4.07-0.34-5.43-0.46c-0.9-3.89-6.22-0.32-8.57-2.53
			c-2.12-2.2-5.71-1.31-8.43-0.99c-0.99,2.26-2.82,3.98-4.97,5.15c-0.16,0.63-0.48,1.9-0.64,2.54c-1.64,0.49-2.92-0.59-4.08-1.56
			c-1.24-1.15-1.93,1.06-2.67,1.68c-1.28,0.28-2.53,0.69-3.81,0.92c-0.09-0.7-0.27-2.12-0.36-2.82c-1.27-0.1-2.53-0.2-3.79-0.28
			c-0.08-1.22-0.06-2.44,0.05-3.65c1.29-0.32,2.86-0.15,3.67-1.44c0.16-1.18,0.34-2.35,0.51-3.51c1.69-0.85,4.95-1.26,3.44-3.87
			c-2.29-1.19-2.75-4.01-4.02-6.06c-1.33-0.34-2.96-0.38-2.86-2.19c1.43-0.27,3.15,0.06,4.09-1.32c0.07-1.23,0.09-2.45,0.07-3.68
			c-2.29,0.41-2.02-1.54-2.09-3.16c-1.97-0.43-3.16,1.38-3.11,3.16c-0.89-2.81-4.25-2.3-6.56-3.09c-0.31,1.46-0.29,3.55-2.07,4.03
			c0.61-2.61,0.02-4.7-1.77-6.24c-1.08-1.73-3.22-5.2-4.3-6.93c-3.78-6.21,1.09-4.91,3.63-4.77c-0.04,2.42,2.01,1.79,3.35,0.81
			c3.4-1.63,7.36-1.06,11.01-1.69c2.96,0.42,6-0.17,8.63-1.6c1.6-1.17,2.39,1.99,4.1,1.19c1.43-1.19,2.32-2.73,2.37-4.62
			c1.51,0.52,3.08,0.86,4.7,0.85C410.52,195.05,410.22,194,409.94,192.95z M421,226v1h-1c0,0.75,0,2.25,0,3c0.5,0,1.5,0,2,0v1h1v-1
			c2.1,0.44,0.49-2.84,1-4C423.25,226,421.75,226,421,226z"/>
	</g>
</g>
<g>
	<path fill="#577070" d="M560.21,196.15c1.75-1.17,2.54,1.59,1.58,2.7C560.03,200.02,559.24,197.25,560.21,196.15z"/>
</g>
<g>
	<path fill="#3F5F7F" d="M570.1,197.82c0.75,1.28,1.01,2.84,2.12,3.91c0.66,0.12,1.97,0.37,2.63,0.5c0.1,1.36,0.31,4.07,0.41,5.43
		c0.43,0.15,1.31,0.46,1.74,0.61c-0.86,0.78-1.95,1.25-2.87,1.94c-0.39,1.3,0.72,2.42,1.09,3.6c0.64,0.05,1.92,0.14,2.56,0.19
		c0.12,1.6,0.16,3.21,0.42,4.8c1.03,1.08,2.21,2.03,3.67,2.48c-4.16,4.19-1.37,10.68-4.14,15.43c-1.78,1.75-4.08,2.93-6.45,3.65
		c-1.36,0.79-1.36,2.47-1.92,3.78c-0.99-2.33-2.48-4.29-4.48-5.87c-1.51,0.33-3.02,0.65-4.47,1.1c-1.47,2.37-4.43,4.25-3.32,7.46
		c2.8,1.88,6.59,2.35,9.83,1.31c0.76,1.6,2.21,2.93,2.72,4.6c-0.94,0.87-1.44,1.89-0.93,3.14c-0.65,0.07-1.95,0.21-2.6,0.28
		c-0.16,1.61-0.18,3.23-0.23,4.86c-2.28-1.09-4.88-1.26-6.87-2.93c-2.71,0.88-5.35,1.98-8.07,2.8c-1.7,0.49-3.2-0.9-4.86-0.69
		c-1.28,0.29-2.52,0.93-3.85,0.73c-0.13-0.67-0.4-1.99-0.53-2.65c-1.13-0.59-2.28-1.13-3.48-1.52c-0.979-0.38-1.96-0.75-2.93-1.1
		c-1.43-1.64-2.44-3.66-4.47-4.67c2.04-0.67,4.11-0.25,6.18,0.01c-0.01-0.47-0.03-1.42-0.04-1.9c-0.7-0.06-2.1-0.18-2.8-0.24
		c-0.03-2.81-2.73-3.03-4.89-2.98c0.2-2.26,0.38-4.51,0.55-6.75l0.32-0.94c3.85-0.23,7.72-0.34,11.6-0.32
		c0.36-1.28,0.74-2.54,1.11-3.82c0.11-1.32,0.2-2.64,0.26-3.95c0.46-0.07,1.38-0.19,1.84-0.26c0.85-3.81-2.82-6.77-2.72-10.46
		c1.94-0.57,1.6-3.09,3.45-3.76c0.37-1.18-1.09-2.6,0.44-3.34c1.26,0.29,2.49,0.63,3.77,0.92c1.76,2.22,5.47,0.11,7.67-0.61
		c0.89-2.31,3.94-0.99,5.35-2.76c0.18-1.18,0.15-2.35-0.11-3.51c-0.95-0.47-1.88-0.96-2.79-1.47c0.93-1.73,3.17-2.74,2.93-4.98
		l0.43-0.63c1.96-1.06,1.53,1.29,1.88,2.51c1.57,0.45,3.14,0.99,4.76,1.28C569.47,201.26,568.78,199.45,570.1,197.82z"/>
</g>
<g>
	<path fill="#BFBF00" d="M474.09,205.01c3.31,0.6,2.79-4.49,5.95-4.89c0.54,1.03,1.09,2.05,1.64,3.1c-0.51,2.21-1.9,4.31-0.72,6.59
		c-1.15,1.65-3.29,0.99-4.99,1.32l-0.13,1c-0.92-0.8-1.85-1.57-2.77-2.35C472.76,207.99,473.8,206.68,474.09,205.01z"/>
</g>
<g>
	<path fill="#7FBFBF" d="M557.34,202.21c2-0.4,3.95-1.12,5.6-2.34c0.24,2.24-2,3.25-2.93,4.98c0.91,0.51,1.84,1,2.79,1.47
		c0.26,1.16,0.29,2.33,0.11,3.51c-1.41,1.77-4.46,0.45-5.35,2.76c-2.2,0.72-5.91,2.83-7.67,0.61c-0.22-1.69-0.68-3.32-1.12-4.95
		c-0.67-0.12-2-0.35-2.67-0.46c-0.12-1.25-0.17-2.51-0.14-3.76c2.73,1.52,5.7,2.31,8.83,2.68
		C556.06,205.5,558.24,204.24,557.34,202.21z"/>
</g>
<g>
	<path fill="#BFDF00" d="M448.94,209.01c4.45-1.54,8.16,1.22,10.89,4.21c0.04,0.7,0.13,2.11,0.18,2.82
		c-2.65-0.15-7.38-4.29-4.06,3.96c-1.55,0.33-2.25-0.3-2.11-1.9c-2.58-0.44-7.43,1.23-3.86-5.11
		C450.15,211.54,448.89,210.44,448.94,209.01z"/>
	<path fill="#BFDF00" d="M468.83,216.43c1.64-1.25,3.08-2.97,5.24-3.33l-0.05,0.83c0.71,0.04,2.13,0.13,2.84,0.17
		c0.03,0.47,0.09,1.41,0.11,1.88c-1.42-0.12-1.51,2.46-2.95,1.81C472.28,217.38,470.57,216.84,468.83,216.43z"/>
	<path fill="#BFDF00" d="M482.93,219.88c0.64-0.65,1.29-1.27,1.97-1.88c2.3,1.7-0.75,6.13,2.09,7.06c2.15,1.23,4.45,2.24,7,1.99
		c5.21-2.52,6.19,2.71,8.74,5.18c2.62,2.38,5.84,4.07,7.59,7.33c1.25-0.2,2.48-0.5,3.76-0.6c-0.17,1.41-1.87,1.64-2.8,2.4
		c-0.25,1.13-0.37,2.28-0.36,3.45c-0.12,0.39-0.35,1.16-0.47,1.54c-4.22,5.92,1.42,5.16,3.57,3.64c-0.27,1.36-0.78,2.66-1.05,4.02
		c2.04,0.25,3.95-0.53,5.89-1c0.06,0.46,0.17,1.37,0.23,1.83c-2.78,0.16-4.45,2.64-6.95,3.38c-0.04,0.69-0.12,2.07-0.17,2.76
		c-0.93-0.58-1.93-0.92-3.02-1.03c0.26,1.68,1.18,3.09,0.96,4.86c-1.19,1.65-2.46,3.25-3.37,5.07c-3.26,1.86-5.59,4.94-8.89,6.77
		c-2.89,0.25-5.62,0.27-8.47,0.48c-1.44,4.19-0.76,8.53-0.15,12.78l-1.03,0.11c-1.24-0.12-2.3,0.14-3.19,0.78
		c-2.1-0.58-3-2.77-2.96-4.8c-0.45-1.67-3.61-1.48-2.82-3.78c1.97-0.45,3.92-0.97,5.89-1.44c-0.14-1.86-0.46-3.71-0.09-5.56
		c-0.65-0.13-1.95-0.37-2.6-0.49c-1.13-1.52-2.08-3.2-3.74-4.21c-0.73-2.41-2.66-4.1-3.85-6.26c-0.38-0.08-1.14-0.26-1.53-0.34
		c3.84,6.4-4.61,6.81-7,3.89c-0.02-1.32,0.65-2.5,0.96-3.74c1.97-0.35,5.65,0.77,5.93-2.11c0.66-2.36-1.3-3.77-2.7-5.25
		c-1.46-3.73-1.15-7.79-1.35-11.71l-0.82,0.09c-0.07,0.71-0.21,2.13-0.28,2.84c-1.35,0.04-2.69,0.04-4.02-0.01
		c0.94-1.09,1.95-2.13,2.92-3.2c0.09-1.24-1.02-2.71,0.44-3.5c1.24-0.15,2.49-0.28,3.74-0.38c0.03-0.68,0.1-2.05,0.14-2.73
		c-1.6,0.75-3.79,1.61-4.95-0.31c-2.99-4.19,1.06-5.42,3.58-5.7l0.3,0.88c0.17,2.05,1.83,0.19,1.9-0.78
		c-0.94-0.85-1.91-1.67-2.91-2.43c0.23-2.16,0.45-4.32,0.65-6.46c-0.87-0.47-1.71-0.96-2.53-1.49c-0.03-0.7-0.09-2.11-0.13-2.81
		c1.66,0.07,3.84-0.56,4.86,1.18c0.19,1.62-1.34,3.07-0.66,4.73c0.45,1.65,0.75,3.33,1.02,5.03c3.05-0.37,6.88-0.01,9.02-2.61
		c2.43-1.34,1.95-4.26,0.89-6.36C482.32,220.71,482.73,220.15,482.93,219.88z"/>
	<path fill="#BFDF00" d="M460.19,270.38c1.31,0.34,2.54-0.1,3.8-0.44c0.01,1.28-0.01,2.57-0.07,3.86c-1.23,0.81-3.77,0.57-3.97,2.34
		c-2.68,0.39-1.71-2.65-2.86-4.12C458.09,271.43,459.13,270.88,460.19,270.38z"/>
</g>
<g>
	<path fill="#DF7F00" d="M370.18,213.19c2.28-0.33,6,2.36,7.2-0.34c1.79,1.54,2.38,3.63,1.77,6.24c1.78-0.48,1.76-2.57,2.07-4.03
		c2.31,0.79,5.67,0.28,6.56,3.09c0.24,1.69,0.4,3.4,1.04,5c-0.1,1.81,1.53,1.85,2.86,2.19c1.27,2.05,1.73,4.87,4.02,6.06
		c1.51,2.61-1.75,3.02-3.44,3.87c-0.17,1.16-0.35,2.33-0.51,3.51c-0.81,1.29-2.38,1.12-3.67,1.44c-0.11,1.21-0.13,2.43-0.05,3.65
		c1.26,0.08,2.52,0.18,3.79,0.28c0.09,0.7,0.27,2.12,0.36,2.82c1.28-0.23,2.53-0.64,3.81-0.92c1.96,2.64,2.03,5.79,1.05,8.98
		c-0.92,3.01,2.45,4.23,3.41,6.61c0.87,1.02-0.76,1.9-1.12,2.75c-2.19,3.09,0.07,5.28,1.59,7.37c-3.18,0.87-5.84,2.94-7.34,5.89
		c-3.05,1.06-7.36,0.38-9.28,3.59c-0.35,1.52-0.66,3.06-1.05,4.58c2.72,0,4.59,2.14,5.91,4.3c-0.14,1.26-0.17,2.53-0.1,3.81
		c0.39,1.42,2.01,2.23,1.96,3.85c-1.34,0.31-2.97,0.1-3.78,1.45c2.61,6.49-3.84,4.9-7.24,5.72c-1.69-0.1-3.22-1.18-4.94-0.92
		c-1.3,0.5-2.49,1.24-3.77,1.78c-0.96-2.25-2.62-5.29-6.25-2.86c-1.56-0.18-2.26-1.94-3.26-2.95c0.09-1.28,0.23-2.54,0.41-3.8
		c1.05-1.52,3.03-1.04,4.59-1.45c0.68-1.46,1.11-3.01,1.48-4.57c1.23-0.13,2.47-0.25,3.72-0.34c0.57-3.5-0.91-7.02-3.47-9.31
		c-0.21-0.57-0.63-1.7-0.83-2.26c-1.16-0.19-2.31-0.36-3.46-0.52c-0.96-1.11-1.57-2.44-2.41-3.62c-1.25,0.01-2.79,1.2-3.57-0.33
		c-0.16-1.21-0.31-2.41-0.43-3.61c-0.7-0.09-2.09-0.27-2.78-0.37c0.24-1.23,0.69-2.41,0.94-3.63c-0.68-0.1-2.05-0.31-2.73-0.41
		c-0.12-0.65-0.35-1.94-0.47-2.59c-0.69-0.08-2.08-0.25-2.78-0.34c0.6-1.19,2.37-2.12,1.88-3.64c-1.61-1.11-3.18-2.33-4.93-3.2
		c-3.07,0.08-5.27,3.54-8.77,1.99c-0.26-1.32-0.78-3.96-1.04-5.29c0.4-0.83,1.57-2.44-0.04-2.79c-1.19-1.03-3.48-1.3-3.94-2.81
		c1.3-1.06,2.88-2.01,4.6-2.03c0.93,1.39,0.66,4.49,3.04,3.87c0.41-1.93,0.91-3.83,1.49-5.7c1.18-2.06,4.19-0.54,5.47-2.51
		c2.39-2.92,6.73-2.01,10.06-2.94c0.31-1.77-0.11-4.25,2.07-4.93l0.21,5.11c0.44,0,1.34-0.01,1.79-0.02c-3.61-6.19,5.5-5.2,5-9.67
		c-1.5,0.31-2.84-2.02-0.93-2.27c2-0.12-1.12-2.81,0.77-3.27c1.65-1.08,3.35-2.1,5.07-3.08c0.05-0.63,0.15-1.88,0.2-2.5
		c-0.74-0.08-2.23-0.25-2.98-0.33C368.96,215.5,368.79,213.93,370.18,213.19z"/>
</g>
<g>
	<path fill="#7F3FBF" d="M474.07,213.1c0.48-0.04,1.45-0.14,1.93-0.19c1.44,0.07,4.33,0.2,5.77,0.26c0.27,0.27,0.81,0.79,1.08,1.06
		c0.02,1.41,0.06,4.24,0.08,5.65c-0.2,0.27-0.61,0.83-0.82,1.1c1.06,2.1,1.54,5.02-0.89,6.36c-0.53-0.12-1.58-0.37-2.1-0.49
		c-0.39-2.86,0.18-5.69-0.34-8.5c-1.25-0.3-1.85-1.09-1.81-2.37c-0.02-0.47-0.08-1.41-0.11-1.88c-0.71-0.04-2.13-0.13-2.84-0.17
		L474.07,213.1z"/>
</g>
<g>
	<path fill="#BF7F40" d="M514.19,213.02c2.05-0.2,3.93,0.43,5.87,0.97l0.89,0.22c0,0.67,0.02,1.99,0.03,2.65
		c-0.5,0.07-1.5,0.22-2,0.29l0.3,0.73c-2.05-0.97-4.11-2.08-6.32-0.83C513.11,215.64,513.67,214.34,514.19,213.02z"/>
</g>
<g>
	<path fill="#3F7F00" d="M578.27,213.23c3.32-0.5,7.27-0.85,9.96,1.55c2.29,2.07,4.84,3.91,6.88,6.28c1.18,2.03,2.71,3.86,3.86,5.91
		c-0.16,0.29-0.49,0.86-0.65,1.15c-1.06-1.44-2.28-2.75-3.61-3.91c-1.42-0.06-4.26-0.17-5.68-0.22c-0.09,2.92-0.15,5.95,0.05,8.9
		c1.26,0.2,3.78,0.61,5.04,0.81c-2.21,0.32-3.13,2.64-4.1,4.36c-0.13,3.14,3.28,4.68,4.66,7.17c-0.42,2.49-2.33,4.85-1.46,7.44
		c0.9,0.46,1.79,0.94,2.68,1.46c-0.56,1.82-2.56,3.5-1.65,5.52c0.9,0.47,1.78,0.99,2.66,1.53c0.2,1.57,0.44,3.68-1.45,4.28
		c-0.6,2.17-1.98,3.97-3.75,5.34c-4.19,0.17-8.37,0.45-12.52-0.04c-1.24-0.22-3.74-0.68-4.99-0.91c-0.14-1.22-0.28-2.44-0.41-3.66
		c-2.3-1.51-4.95-2.5-7.5-3.53c-0.1-0.41-0.31-1.23-0.41-1.64c0.05-1.63,0.07-3.25,0.23-4.86c0.65-0.07,1.95-0.21,2.6-0.28
		c-0.51-1.25-0.01-2.27,0.93-3.14c-0.51-1.67-1.96-3-2.72-4.6c2.63,0.43,2.01-2.3,2.44-4c0.56-1.31,0.56-2.99,1.92-3.78
		c2.37-0.72,4.67-1.9,6.45-3.65c2.77-4.75-0.02-11.24,4.14-15.43c-1.46-0.45-2.64-1.4-3.67-2.48c-0.26-1.59-0.3-3.2-0.42-4.8
		L578.27,213.23z"/>
</g>
<g>
	<path fill="#3F7FBF" d="M527,214c0.5,0,1.5,0,2,0v1c0.5,0,1.5,0,2,0c0,0.5,0,1.5,0,2h-1c0,0.75,0,2.25,0,3h-1v1h-1v-1h-1v-1h-1
		c0-0.5,0-1.5,0-2h-1v-1h1v-1h1V214z"/>
</g>
<g>
	<path fill="#007F7F" d="M387.78,218.15c-0.05-1.78,1.14-3.59,3.11-3.16c0.07,1.62-0.2,3.57,2.09,3.16c0.02,1.23,0,2.45-0.07,3.68
		c-0.94,1.38-2.66,1.05-4.09,1.32C388.18,221.55,388.02,219.84,387.78,218.15z"/>
</g>
<g>
	<path fill="#3F003F" d="M457.02,217.06c3.93-0.11,7.88-0.2,11.81-0.63c1.74,0.41,3.45,0.95,5.19,1.36
		c1.44,0.65,1.53-1.93,2.95-1.81c-0.04,1.28,0.56,2.07,1.81,2.37c0.52,2.81-0.05,5.64,0.34,8.5c0.52,0.12,1.57,0.37,2.1,0.49
		c-2.14,2.6-5.97,2.24-9.02,2.61c-0.27-1.7-0.57-3.38-1.02-5.03c-0.68-1.66,0.85-3.11,0.66-4.73c-1.02-1.74-3.2-1.11-4.86-1.18
		c0.04,0.7,0.1,2.11,0.13,2.81c0.82,0.53,1.66,1.02,2.53,1.49c-0.2,2.14-0.42,4.3-0.65,6.46c-1.25,0.33-2.4,1.22-3.74,1.11
		c-0.5-1.23-0.99-2.46-1.5-3.68c-0.68-0.07-2.04-0.21-2.72-0.29c0.01-0.7,0.04-2.09,0.06-2.79c1.29-0.08,2.58-0.16,3.89-0.24
		c-0.01-0.68-0.02-2.04-0.03-2.72c-1.21-0.53-3.62,0.49-3.95-1.2c-0.1-1.69-1.92-0.18-2.83-0.28
		C457.76,218.81,457.38,217.94,457.02,217.06z"/>
</g>
<g>
	<g>
		<path fill="#3F7F7F" d="M605.94,219.9c2.02-0.59,3.92-1.58,6-1.99c1.08,0.88,2.21,1.86,2.96,3.07c-0.5,1.48-1.51,3.19-0.55,4.71
			c1.67,2.32,3.31,4.67,4.92,7.06c3.07,0.39,6.35,1.41,9.4,0.89c2.71-2.69,6.93-2.09,10.46-2.63c-0.89,1.72-3.47,2.71-3.07,4.92
			c1.01,2.62,2.62,4.96,2.08,8.05c3.26-0.34,6.29-1.56,9.73-0.69c0.93,0.35,1.88,0.68,2.84,1.01c0.19,1.1,0.41,2.19,0.67,3.28
			c2.57,1.34,2.33,4.73,4.22,6.67l0.01,0.52c-2.88,3.55-4.58,7.84-7.18,11.57c-0.49,1.51-0.81,3.06-1.27,4.58
			c0.73,0.05,2.19,0.16,2.92,0.22c-0.93,1.67-3.05,2.22-4.31,3.62c-1.84,2.76-8.46-1.03-4.46,5.88c0.2,0.29,0.61,0.85,0.81,1.13
			c-5.27,0.92-10.63,1.26-15.96,1.32c-0.36,1.61,0.2,3.65-1.33,4.77c-3.52-0.35-7.04-1.29-10.57-0.7c-0.7,1.6-1.61,3.12-2.08,4.81
			c0.58,2.37,2.93,6.15-4,3.19c1.45,4.37-1.92,9.08-6.33,9.15c-0.88-0.91-1.63-1.92-2.29-2.98c-1.34-0.11-4.02-0.34-5.36-0.46
			c-0.33-2.29-0.88-4.54-1.26-6.82c-0.02-3.34-5.53,0.51-6.84-2.24c-0.46-1.64,1.56-2.43,1.85-3.88c0.01-0.74,0.04-2.21,0.06-2.95
			c-2.3,0.49-4.55,1.18-6.81,1.79c-0.31-1.26-0.38-2.7-1.8-3.19c-0.51-1.77-0.89-3.55-1.46-5.29c0.54,0.13,1.61,0.41,2.15,0.54
			c-0.08-0.62-0.24-1.86-0.31-2.48c-1.49-0.79-3.28-1.66-3.91-3.32c0.46-1.39,2.27-1.46,3.32-2.27c4.15,0.49,8.33,0.21,12.52,0.04
			c1.77-1.37,3.15-3.17,3.75-5.34c1.89-0.6,1.65-2.71,1.45-4.28c-0.88-0.54-1.76-1.06-2.66-1.53c-0.91-2.02,1.09-3.7,1.65-5.52
			c-0.89-0.52-1.78-1-2.68-1.46c-0.87-2.59,1.04-4.95,1.46-7.44c-1.38-2.49-4.79-4.03-4.66-7.17c0.97-1.72,1.89-4.04,4.1-4.36
			c1.31-0.45,2.76-0.77,3.7-1.89c-0.09-1.3-0.8-2.75,0.5-3.69c0.16-0.29,0.49-0.86,0.65-1.15c-1.15-2.05-2.68-3.88-3.86-5.91
			c1.75-0.4,3.29-1.37,4.96-2.01C602.1,218.66,603.9,220.38,605.94,219.9z M611,234c0.43,2.1-2.85,0.49-4,1c0,0.5,0,1.5,0,2h-1
			c0,0.5,0,1.5,0,2h-1v1h-1c0,0.75,0,2.25,0,3c0.5,0,1.5,0,2,0v-1h1c0,0.5,0,1.5,0,2c0.5,0,1.5,0,2,0c-0.45-2.11,2.83-0.5,4-1
			c0-0.75,0-2.25,0-3h1c0-0.75,0-2.25,0-3h1c0-0.5,0-1.5,0-2c-0.5,0-1.5,0-2,0v-1C612.5,234,611.5,234,611,234z"/>
	</g>
</g>
<g>
	<path fill="#7E7F7F" d="M510.22,220.12c2.04-1.31,2.81,2.86,0.82,2.95C509.36,223.01,508.39,220.91,510.22,220.12z"/>
</g>
<g>
	<path fill="#003F3F" d="M589.03,223.99c1.42,0.05,4.26,0.16,5.68,0.22c1.33,1.16,2.55,2.47,3.61,3.91c-1.3,0.94-0.59,2.39-0.5,3.69
		c-0.94,1.12-2.39,1.44-3.7,1.89c-1.26-0.2-3.78-0.61-5.04-0.81C588.88,229.94,588.94,226.91,589.03,223.99z"/>
</g>
<g>
	<g>
		<path fill="#00003F" d="M449.06,226.78c0.92-1.78,3.62-2.67,4.39-0.24c2.48,0.81,4.73,2.67,7.45,2.46
			c0.03-0.52,0.09-1.57,0.13-2.09c0.68,0.08,2.04,0.22,2.72,0.29c0.51,1.22,1,2.45,1.5,3.68c1.34,0.11,2.49-0.78,3.74-1.11
			c1,0.76,1.97,1.58,2.91,2.43c-0.07,0.97-1.73,2.83-1.9,0.78l-0.3-0.88c-2.52,0.28-6.57,1.51-3.58,5.7
			c1.16,1.92,3.35,1.06,4.95,0.31c-0.04,0.68-0.11,2.05-0.14,2.73c-1.25,0.1-2.5,0.23-3.74,0.38c-1.46,0.79-0.35,2.26-0.44,3.5
			c-0.97,1.07-1.98,2.11-2.92,3.2c-0.66,0.05-1.99,0.16-2.65,0.21c-0.09,0.72-0.26,2.14-0.35,2.85c-1.28-0.26-2.48-0.8-3.78-0.96
			c-1.7,0.07-2.17,2.71-3.79,2.63c-1.18-1.61-4.54-2.79-4.55,0.23c-2.12,0.41-3.58-2.04-3.95-3.82c0.13-0.67,0.39-2.02,0.52-2.69
			c2.98-0.77,2.89-4.52,5.41-5.77c1.17-2.1-1.11-4.16-0.54-6.3c2.4,0.01,1.9-2.47,1.76-4.12c-1-1.17-2.56-1.11-3.93-1.4
			C448.25,228.28,448.79,227.28,449.06,226.78z M454.95,234.02c-0.23,1.44,0.8,2.35,1.72,3.26c-0.09,3.7,8.5,1.48,3.33-3.28
			L454.95,234.02z"/>
	</g>
</g>
<g>
	<path fill="#4200BF" d="M421,226c0.75,0,2.25,0,3,0c-0.51,1.16,1.1,4.44-1,4v1h-1v-1c-0.5,0-1.5,0-2,0c0-0.75,0-2.25,0-3h1V226z"/>
</g>
<g>
	<path fill="#9FBF00" d="M540.07,226.97c1.94-0.4,3.19,1.32,3.04,3.13c-0.06,1.31-0.15,2.63-0.26,3.95
		c-2.07-0.28-6.31,0.14-5.86-2.95c0.74-0.05,2.21-0.14,2.94-0.19C539.97,229.6,540.02,228.28,540.07,226.97z"/>
</g>
<g>
	<path fill="#36872D" d="M533.15,229.21c1.1-0.97,3.87-0.18,2.7,1.58C534.73,231.75,531.97,230.96,533.15,229.21z"/>
</g>
<g>
	<path fill="#BF3F3F" d="M506.57,230.8c2.78,2.71,7.1-0.18,10.29-0.86c-0.44,2.24,1.48,2.07,3.1,2.16c1.88-0.43,1.39,3.07,3.08,2.61
		c3.12-1.1,5.44,2.02,6.78,4.42c-0.17,2.24-0.35,4.49-0.55,6.75c2.16-0.05,4.86,0.17,4.89,2.98c-3.66-0.08-7.26,1.73-10.79-0.39
		c-1.49-0.53-3.27-0.8-4.28,0.71c-0.25,1.8,1.54,2.99,2.27,4.48c1.41,0.39,2.87,0.7,4.33,0.96c1.45-1.63,2.51-4.11,5.13-3.63
		c2.03,1.01,3.04,3.03,4.47,4.67c0.97,0.35,1.95,0.72,2.93,1.1c-1.69,0.19-3.36-0.01-5.02-0.31c-1.14,0.39-2.19,0.96-3.19,1.62
		l-0.2-0.84c-2.2-0.3-4.39-1.18-6.56-0.31c-0.86-1.66-2.4-2.12-4.16-2.08c-0.06-0.46-0.17-1.37-0.23-1.83
		c-1.94,0.47-3.85,1.25-5.89,1c0.271-1.36,0.78-2.66,1.05-4.02c0.46-2.37-0.11-5.28-3.1-5.18c-0.01-1.17,0.11-2.32,0.36-3.45
		c0.93-0.76,2.63-0.99,2.8-2.4c-1.28,0.1-2.51,0.4-3.76,0.6c-1.75-3.26-4.97-4.95-7.59-7.33
		C503.91,231.5,505.22,231.08,506.57,230.8z"/>
</g>
<g>
	<g>
		<path fill="#9F7F00" d="M664.35,235.39c4.15-0.81,8.31-2.03,12.57-2.2c3.47,1.46,7.49,0.18,10.82,2.03
			c0.78,5.21,2.76,10.22,2.45,15.58c0.93,0.91,2.21,1.19,3.38,1.68c2.66,3.06,5.76,5.69,9.24,7.8c-0.06,1.26-0.64,2.42-0.76,3.67
			c1.05,2.83,3.46,5.24,1.79,8.68c-3.97,0.41-0.3,6.5-1.83,8.28c2.93,0.18,5.71,0.06,8.71,0.3c2.31,2.68,5.23,5.1,3.07,9.37
			c-0.36,0.2-1.08,0.6-1.44,0.81c-0.37,2.38-1.86,4.83-1.1,7.24c0.35,0.19,1.05,0.57,1.4,0.75c0.35,2.31,1.06,4.54,2.37,6.5
			c-0.05,1.75,0.6,3.3,0.98,4.96c-2.53-0.29-1.94,2.37-2.41,4.02c-0.72,1.94-1.32,3.91-1.91,5.89c-4.58,3.14-9.74,5.37-14.04,8.89
			c-2.82,0.59-5.59-0.06-8.31,0.7c-2.25,1.84-5.01,3.34-8.08,2.92c-1.89,1.68-2.29,4.35-3.06,6.64c1,0.82,2.27,1.07,3.47,1.54
			c1.35,1.02,2.64,2.13,4.13,2.98c1.18,4.01-0.52,7.76-2.11,11.28c-0.91,1.64-0.34,3.85-1.85,5.18c-1.25,0.11-2.3-0.83-3.53-0.72
			c-0.17,0.42-0.5,1.25-0.66,1.67c-4.27,1.14-8.48-0.07-11.84-2.68c2.04-1.26,0.64-4.96,4.26-5.09c4.72-0.64,2.13-3.67,2.01-6
			c0.73-1.92,1.65-3.77,2.43-5.68c0.44-1.05,1.72-1.92,1.39-3.17c-1.06-0.99-2.25-1.82-3.4-2.67c-0.58-1.08-1.04-2.23-2-3.01
			c-1.18-2.04-1.11-4.65-2.68-6.45c-2.94-1.02-4.99,0.53-7.61,0.77c-1.06-1.04-1.89-2.27-2.61-3.55c-1.4-0.1-4.19-0.3-5.59-0.4
			c-0.06-1.22,0.07-2.43,0.38-3.61c0.83-2.6-0.8-5.35-0.19-7.96c1.81-0.74,3.29-2.08,4.5-3.6c0.72-2.08,1.17-4.24,1.62-6.39
			c3.06-1.63,7.42-3.68,5.64-8.23c0.12-1.84-3.26-1.19-2.97-3.14c-0.19-1.42,0.44-2.72,0.9-4.01c-6.26-0.12-12.5,0.26-18.74-0.04
			l-0.55-4.53l-0.47-0.62c-0.2-0.28-0.61-0.84-0.81-1.13c-4-6.91,2.62-3.12,4.46-5.88c1.26-1.4,3.38-1.95,4.31-3.62
			c-0.73-0.06-2.19-0.17-2.92-0.22c0.46-1.52,0.78-3.07,1.27-4.58c2.6-3.73,4.3-8.02,7.18-11.57l-0.01-0.52
			c-1.89-1.94-1.65-5.33-4.22-6.67c-0.26-1.09-0.48-2.18-0.67-3.28c-0.96-0.33-1.91-0.66-2.84-1.01c0.37-0.5,1.12-1.49,1.5-1.99
			c3.73-0.72,7.61-0.66,11.34-1.54C660.72,237.45,662.58,236.43,664.35,235.39z M684.25,257.32c-1.9,0.31-2.48,1.63-2.45,3.43
			c-2.24,0.28-3.35,2.07-2.81,4.23c2.49-0.35,7.41,2.01,7.21-1.8c1.3-0.25,2.81-0.13,3.68-1.35c0.17-1.22,0.18-2.43,0.02-3.64
			C688.13,257.51,686.15,256.34,684.25,257.32z M652,275c0,0.5,0,1.5,0,2h-1v1h1v1c0.75,0,2.25,0,3,0c-0.01-1.34-0.01-2.67,0-4
			C654.25,275,652.75,275,652,275z"/>
	</g>
</g>
<g>
	<path fill="#BFBF7F" d="M454.95,234.02L460,234c5.17,4.76-3.42,6.98-3.33,3.28C455.75,236.37,454.72,235.46,454.95,234.02z"/>
</g>
<g>
	<path fill="#BF007F" d="M611,234c0.5,0,1.5,0,2,0v1c0.5,0,1.5,0,2,0c0,0.5,0,1.5,0,2h-1c0,0.75,0,2.25,0,3h-1c0,0.75,0,2.25,0,3
		c-1.17,0.5-4.45-1.11-4,1c-0.5,0-1.5,0-2,0c0-0.5,0-1.5,0-2h-1v1c-0.5,0-1.5,0-2,0c0-0.75,0-2.25,0-3h1v-1h1c0-0.5,0-1.5,0-2h1
		c0-0.5,0-1.5,0-2C608.15,234.49,611.43,236.1,611,234z"/>
</g>
<g>
	<g>
		<path fill="#7F3F00" d="M408.35,238.24c2.72-0.32,6.31-1.21,8.43,0.99c2.35,2.21,7.67-1.36,8.57,2.53
			c1.36,0.12,4.08,0.35,5.43,0.46c1.21,1.45,1.85,3.37,3.47,4.45c3.48,1.07,6.65,2.94,10.51,2.39c0.37,1.78,1.83,4.23,3.95,3.82
			c0.01-3.02,3.37-1.84,4.55-0.23c1.62,0.08,2.09-2.56,3.79-2.63c1.3,0.16,2.5,0.7,3.78,0.96c0.09-0.71,0.26-2.13,0.35-2.85
			c0.66-0.05,1.99-0.16,2.65-0.21c1.33,0.05,2.67,0.05,4.02,0.01c0.07-0.71,0.21-2.13,0.28-2.84l0.82-0.09
			c0.2,3.92-0.11,7.98,1.35,11.71c1.4,1.48,3.36,2.89,2.7,5.25c-0.28,2.88-3.96,1.76-5.93,2.11c-1.38-0.19-2.4,0.81-3.46,1.47
			c-1.34,0.16-4.02,0.48-5.36,0.63c-0.21,1.57-0.58,3.09-2.05,3.94c-0.79-0.01-2.36-0.04-3.14-0.06c-0.04,0.5-0.1,1.49-0.14,1.98
			c-0.97,0.57-2.07,0.89-3.17,0.53c-2.16-0.13-4.15,0.99-5.55,2.59c-0.06-0.79-0.19-2.37-0.26-3.16c-1.27-0.01-2.53,0.02-3.79,0.09
			c-1.13,1.12-0.97,3.3-3.04,3.06c0.4,0.84,0.73,1.71,0.99,2.61c-3.23-0.57-6.55-0.04-9.74,0.53c-0.48,0.87-1,1.71-1.57,2.53
			c-1.4,0.07-4.21,0.23-5.61,0.31c-0.13,1.2-0.27,2.41-0.44,3.62c-1.07,0.94-2.22,1.8-3.22,2.82c-1.74,1.83-7.42-1.46-7.84,2.25
			c-3.24-0.19-6.24-2.2-9.57-1.8c-0.1,1.37-0.19,2.75-0.27,4.13c-2.15-1.83-4.01-3.95-6.03-5.89c-1.89,0.48-2.96,2.8-4.65,3.87
			c-1.32-2.16-3.19-4.3-5.91-4.3c0.39-1.52,0.7-3.06,1.05-4.58c1.92-3.21,6.23-2.53,9.28-3.59c1.5-2.95,4.16-5.02,7.34-5.89
			c-1.52-2.09-3.78-4.28-1.59-7.37c0.36-0.85,1.99-1.73,1.12-2.75c-0.96-2.38-4.33-3.6-3.41-6.61c0.98-3.19,0.91-6.34-1.05-8.98
			c0.74-0.62,1.43-2.83,2.67-1.68c1.16,0.97,2.44,2.05,4.08,1.56c0.16-0.64,0.48-1.91,0.64-2.54
			C405.53,242.22,407.36,240.5,408.35,238.24z M420.07,249.99l-0.16,4.83c-0.47,0.08-1.4,0.25-1.86,0.33
			c-0.02,1.46-0.04,4.38-0.06,5.85l4.92-0.01c0.04-0.76,0.13-2.28,0.17-3.04c2.29,0.21,1.21,3.97,3.86,3.07
			c-5.4-4.87,4.37-7.17,3.19-2.99c1.89-0.72,2.62-3.15,2.91-4.98c-1.51-0.02-4.54-0.06-6.06-0.08c0.25-0.46,0.74-1.37,0.98-1.83
			C425.34,250.88,422.77,249.47,420.07,249.99z M452.21,259.15c-0.92,0.8-0.23,3.96,1.1,2.22
			C454.89,260.69,453.79,257.92,452.21,259.15z"/>
	</g>
</g>
<g>
	<path fill="#BF7FBF" d="M560.41,239.37c1.45-0.45,2.96-0.77,4.47-1.1c2,1.58,3.49,3.54,4.48,5.87c-0.43,1.7,0.19,4.43-2.44,4
		c-3.24,1.04-7.03,0.57-9.83-1.31C555.98,243.62,558.94,241.74,560.41,239.37z"/>
</g>
<g>
	<g>
		<path fill="#00BF7F" d="M313.34,240.23c1.53-0.41,3.14-0.15,4.72-0.14c-0.19,0.31-0.55,0.93-0.73,1.24
			c-2.13,3.49,1.72,5.56,1.65,8.58c-0.14,1.65-2.83,1.23-3,2.91c4.19,0.7,8.32,1.66,12.62,1.46c0.82,1.1,1.2,3.36,3.07,2.56
			c0.81-2.42,2.77-4.32,5.46-4.13c0.26,1.33,0.78,3.97,1.04,5.29c3.5,1.55,5.7-1.91,8.77-1.99c1.75,0.87,3.32,2.09,4.93,3.2
			c0.49,1.52-1.28,2.45-1.88,3.64c0.7,0.09,2.09,0.26,2.78,0.34c0.12,0.65,0.35,1.94,0.47,2.59c0.68,0.1,2.05,0.31,2.73,0.41
			c-0.25,1.22-0.7,2.4-0.94,3.63c0.69,0.1,2.08,0.28,2.78,0.37c0.12,1.2,0.27,2.4,0.43,3.61c0.78,1.53,2.32,0.34,3.57,0.33
			c0.84,1.18,1.45,2.51,2.41,3.62c1.15,0.16,2.3,0.33,3.46,0.52c0.2,0.56,0.62,1.69,0.83,2.26c2.56,2.29,4.04,5.81,3.47,9.31
			c-1.25,0.09-2.49,0.21-3.72,0.34c-0.37,1.56-0.8,3.11-1.48,4.57c-1.56,0.41-3.54-0.07-4.59,1.45c-0.18,1.26-0.32,2.52-0.41,3.8
			c-1.19-0.06-2.37,0.01-3.54,0.19c-0.92,1.11-1.6,2.46-2.9,3.19c-2.19,1.38-3.47,3.9-3.43,6.48c1.01-0.34,2.05-0.65,3.1-0.91
			c-0.43,1.94-0.91,3.86-1.31,5.81c-1.52,1.78-4.13,2.77-6.4,1.85c-2.24-0.93-4.91,0.71-7.06,0.5c-0.16,2.2-0.8,4.29-1.89,6.21
			c-1.24,2.09,1.41,3.59,1.88,5.49c-2.11,1.31-4.46,1.67-7.03,1.07c-1.7-2.35-3.27-4.78-5.39-6.77c-6.23-3.08-8.56,4.34-13.8,4.92
			c-4.37,0.8-8.33,3.38-12.9,3.12c-1.27-0.29-3.82-0.88-5.1-1.17c-5.16,1.45-3.64-2.46-4.16-4.81c-1.22-0.12-2.43-0.25-3.64-0.38
			c-0.75-1.48-1.14-3.09-1.36-4.71c-0.1-1.97-3.3-2.57-2.67-4.73c1.87-0.52,2.7-2.55,2.85-4.33c-0.02-3.47,0.97-6.76,1.72-10.09
			c-0.07-1.55-0.1-3.1,0.01-4.64c-0.41-0.15-1.22-0.45-1.63-0.59c-1.03-3.2,3.94-4.76,2.44-8.34c0.81-2.05,0.47-4.28-1.24-5.73
			c-3.6-5.35,0.99-3.9,2.87-5.47c1.3-1.22,3.15-1.07,4.79-1.35c0.22-3.58-2.44-6.29-3.34-9.54c-0.68-0.64-1.43-1.16-2.27-1.56
			c0.1-0.45,0.28-1.33,0.37-1.78c3.28-4.96-4.61-5.84-1.72-10.76c0.7-0.07,2.09-0.2,2.78-0.27c-1.16-1.97-0.48-4.06,0.44-5.97
			c1.53,0.03,3.07,0.02,4.61,0.08c-0.92,1.43-1.15,3.92,1.15,3.99c5.5,3.49,4.45-3.47,8.05-3.87
			C309.19,244.97,312.3,243.35,313.34,240.23z M347,290c0,0.5,0,1.5,0,2h-1v1h-1c0,0.5,0,1.5,0,2c0.75,0,2.25,0,3,0v1h1v-1h1v-1h1
			c0-0.5,0-1.5,0-2h-1v-1h-1v-1C348.5,290,347.5,290,347,290z"/>
	</g>
</g>
<g>
	<path fill="#5F007F" d="M510.92,244.81c2.99-0.1,3.56,2.81,3.1,5.18c-2.15,1.52-7.79,2.28-3.57-3.64
		C510.57,245.97,510.8,245.2,510.92,244.81z"/>
</g>
<g>
	<path fill="#007F00" d="M519.09,249.18c1.01-1.51,2.79-1.24,4.28-0.71c3.53,2.12,7.13,0.31,10.79,0.39c0.7,0.06,2.1,0.18,2.8,0.24
		c0.01,0.48,0.03,1.43,0.04,1.9c-2.07-0.26-4.14-0.68-6.18-0.01c-2.62-0.48-3.68,2-5.13,3.63c-1.46-0.26-2.92-0.57-4.33-0.96
		C520.63,252.17,518.84,250.98,519.09,249.18z"/>
</g>
<g>
	<path d="M420.07,249.99c2.7-0.52,5.27,0.89,7.89,1.15c-0.24,0.46-0.73,1.37-0.98,1.83c1.52,0.02,4.55,0.06,6.06,0.08
		c-0.29,1.83-1.02,4.26-2.91,4.98c1.18-4.18-8.59-1.88-3.19,2.99c-2.65,0.9-1.57-2.86-3.86-3.07c-0.04,0.76-0.13,2.28-0.17,3.04
		l-4.92,0.01c0.02-1.47,0.04-4.39,0.06-5.85c0.46-0.08,1.39-0.25,1.86-0.33L420.07,249.99z"/>
</g>
<g>
	<path fill="#7FBF7F" d="M512.14,258.22c2.5-0.74,4.17-3.22,6.95-3.38c1.76-0.04,3.3,0.42,4.16,2.08c2.17-0.87,4.36,0.01,6.56,0.31
		l0.2,0.84c0.28,1.6,1.13,2.98,0.91,4.68c-1.28,1.13-2.71,2.23-3.24,3.92c-1.23,0.25-1.86,1.02-1.87,2.32
		c-2.1,0.24-3.88-0.49-5.79-1.07c0.66,1.42,0.87,3.46,2.93,3.23c-1,1.02-0.89,2.45-0.89,3.77c-0.42,1.52,1.89,1.61,2,3.01
		c-0.76,0.03-2.27,0.09-3.02,0.12c0.6-2.21-2.03-0.43-2.89-0.18c-0.95-1.81-1.12-3.83-1.28-5.82c-0.7-0.01-2.09-0.02-2.79-0.03
		l-0.96-0.05c0.92-1.26,0.21-2.64-0.23-3.91c0.53,0,1.58,0,2.11,0c-0.52-1.18,1.11-4.5-1-4.06v-1h-1v-1l-1.07-0.01l0.04-1.01
		C512.02,260.29,512.1,258.91,512.14,258.22z"/>
</g>
<g>
	<g>
		<path fill="#DF007F" d="M533.2,256.45c1.66,0.3,3.33,0.5,5.02,0.31c1.2,0.39,2.35,0.93,3.48,1.52c0.13,0.66,0.4,1.98,0.53,2.65
			c1.33,0.2,2.57-0.44,3.85-0.73c1.66-0.21,3.16,1.18,4.86,0.69c2.72-0.82,5.36-1.92,8.07-2.8c1.99,1.67,4.59,1.84,6.87,2.93
			c0.1,0.41,0.31,1.23,0.41,1.64c2.55,1.03,5.2,2.02,7.5,3.53c0.13,1.22,0.27,2.44,0.41,3.66c1.25,0.23,3.75,0.69,4.99,0.91
			c-1.05,0.81-2.86,0.88-3.32,2.27c0.63,1.66,2.42,2.53,3.91,3.32c0.07,0.62,0.23,1.86,0.31,2.48c-0.54-0.13-1.61-0.41-2.15-0.54
			c-3.55,0.36-7.1,0.7-10.64,1.01c-1.51,1.22-3.22,2.56-3.47,4.62c-0.66,1.62-0.59,3.66-2.05,4.83c-1.17,0.16-2.33,0.33-3.48,0.49
			c-0.49,2.28-1.83,4.27-2.31,6.54c0.7,0.12,2.1,0.36,2.8,0.48c1.26,1.23,1.4,3.1,2.38,4.53c1.44,2.16,0.46,6.24,5.85,3.19
			c0.5,0.03,1.5,0.08,2,0.11c-0.08,0.63-0.24,1.89-0.33,2.52c-1.9,1.01-2.75,3.18-3.48,5.09c2.52,1.2,5.89,3.18,3.43,6.91
			c-1.88,1.93-1.54,4.64-1.83,7.19c-1.36,1.33-3.22,1.97-4.98,2.57c-2.1-0.37-2.27-2.7-3.15-4.24c-3.81-1.78-6.08,2.46-9.57,1.86
			c-0.08-1.31-0.15-2.61-0.22-3.91c-3.93,0.64-7.95,0.96-11.91,0.93c-1.06-0.01-1.99,0.34-2.79,1.06c-0.03-2.49-0.6-5.03-2.31-6.92
			c-1.42,0.34-2.18,2.24-3.84,1.85c-1.68-0.5-3.23-1.4-3.76-3.15c0.76-1.78,2.73-2.83,4.63-3.12c0.36-1.63-0.44-3.11-1.17-4.48
			c-1.08-1.6-3.4-0.91-4.51-2.46c-0.16-1.18-0.31-2.36-0.45-3.53c-1.61-0.41-3.19-0.87-4.75-1.41c2.92-2.55,2.81-9.05-1.76-9.18
			c-0.45-0.92-0.82-1.86-1.12-2.82c1.91-0.24,4.24,1.71,5.73,0.01c-0.38-1.39-1.26-2.66-2.55-3.31c-0.11-1.37-0.33-4.12-0.43-5.49
			c1.02,0.24,2.05,0.5,3.08,0.78c0.01-0.7,0.04-2.1,0.06-2.79c0.75-0.03,2.26-0.09,3.02-0.12c-0.11-1.4-2.42-1.49-2-3.01
			c0-1.32-0.11-2.75,0.89-3.77c-2.06,0.23-2.27-1.81-2.93-3.23c1.91,0.58,3.69,1.31,5.79,1.07c0.01-1.3,0.64-2.07,1.87-2.32
			c0.53-1.69,1.96-2.79,3.24-3.92c0.22-1.7-0.63-3.08-0.91-4.68C531.01,257.41,532.06,256.84,533.2,256.45z M530.2,271.08
			c0.14,2.05-1.97,1.94-3.09,3.08c-0.15,1.25-0.18,2.5-0.1,3.76c1.26,0.05,2.52,0.12,3.79,0.21c0.01,3.35,5.25,2.37,7,3.06
			c1.5,1.32,1.5,4.54,4.22,3.82c0.42-2.07-1.68-2.92-2.79-4.24c3.01-5.71-1.5-3.7-3-5.97c-0.11-0.65-0.34-1.94-0.45-2.58
			C534.05,271.3,532.17,270.63,530.2,271.08z"/>
	</g>
</g>
<g>
	<path fill="#217F00" d="M684.25,257.32c1.9-0.98,3.88,0.19,5.65,0.87c0.16,1.21,0.15,2.42-0.02,3.64c-0.87,1.22-2.38,1.1-3.68,1.35
		c0.2,3.81-4.72,1.45-7.21,1.8c-0.54-2.16,0.57-3.95,2.81-4.23C681.77,258.95,682.35,257.63,684.25,257.32z"/>
</g>
<g>
	<path fill="#063F00" d="M452.21,259.15c1.58-1.23,2.68,1.54,1.1,2.22C451.98,263.11,451.29,259.95,452.21,259.15z"/>
</g>
<g>
	<path fill="#7F003F" d="M508.95,259.95c1.09,0.11,2.09,0.45,3.02,1.03l-0.04,1.01L513,262v1h1v1c2.11-0.44,0.48,2.88,1,4.06
		c-0.53,0-1.58,0-2.11,0c-1.42-0.89-3.54-1.01-2.98-3.25C510.13,263.04,509.21,261.63,508.95,259.95z"/>
</g>
<g>
	<path fill="#3F3F7F" d="M463.61,265.54c1.06-0.66,2.08-1.66,3.46-1.47c-0.31,1.24-0.98,2.42-0.96,3.74c2.39,2.92,10.84,2.51,7-3.89
		c0.39,0.08,1.15,0.26,1.53,0.34c1.19,2.16,3.12,3.85,3.85,6.26c1.66,1.01,2.61,2.69,3.74,4.21c0.65,0.12,1.95,0.36,2.6,0.49
		c-0.37,1.85-0.05,3.7,0.09,5.56c-1.97,0.47-3.92,0.99-5.89,1.44c-0.79,2.3,2.37,2.11,2.82,3.78c-0.66,0.05-1.98,0.13-2.65,0.17
		c-1.75,2.35-3.26,4.88-4.52,7.53c-1.54,0.45-3.78-0.03-4.02,2.11c-1.15,0.21-2.31,0.26-3.47,0.14c-0.22-1.48,0.02-3.43-2.1-3.09
		c-0.12-2.01-0.17-4.01-0.24-6.01c0.93-1.13,2.28-2.09,2.22-3.72c0.17-0.98-7.46,1.09-6.8-1.81c1.16-0.25,1.78-0.97,1.85-2.14
		c-0.5,0.14-1.5,0.42-2.01,0.56c-1.52-0.81-0.25-2.37-0.16-3.6c0.2-1.77,2.74-1.53,3.97-2.34c0.06-1.29,0.08-2.58,0.07-3.86
		c-1.26,0.34-2.49,0.78-3.8,0.44c-1.06,0.5-2.1,1.05-3.1,1.64c-0.24-0.29-0.71-0.87-0.95-1.15l0.06-0.76
		c1.47-0.85,1.84-2.37,2.05-3.94C459.59,266.02,462.27,265.7,463.61,265.54z"/>
</g>
<g>
	<path fill="#7FBF3F" d="M506.54,269.88c0.91-1.82,2.18-3.42,3.37-5.07c-0.56,2.24,1.56,2.36,2.98,3.25
		c0.44,1.27,1.15,2.65,0.23,3.91l0.96,0.05c-0.35,0.55-1.05,1.65-1.4,2.19c-1.18-2.1-0.47-6.03-5.41-3.77L506.54,269.88z"/>
</g>
<g>
	<path fill="#9FC100" d="M453.06,270.05c0.78,0.02,2.35,0.05,3.14,0.06l-0.06,0.76c-0.05,0.52-0.15,1.58-0.2,2.11
		c-0.72,0-2.16-0.02-2.87-0.02l-0.15-0.93C452.96,271.54,453.02,270.55,453.06,270.05z"/>
</g>
<g>
	<path fill="#BF3F7F" d="M497.65,276.65c3.3-1.83,5.63-4.91,8.89-6.77l0.73,0.56c4.94-2.26,4.23,1.67,5.41,3.77
		c0.84,2.65,3.22,4.12,5.22,5.85c0.1,1.37,0.32,4.12,0.43,5.49c1.29,0.65,2.17,1.92,2.55,3.31c-1.49,1.7-3.82-0.25-5.73-0.01
		c-0.23-1.03-0.67-1.94-1.32-2.74c-1.59,0-3.07,0.76-4.58,1.15c-0.11,0.68-0.34,2.03-0.45,2.71c-1.82-0.34-3.66-1.5-5.5-0.57
		c-1.44,0.71-3.02,0.71-4.19-0.49c-0.17-1.17-0.61-2.94-2.09-2.91c-1.15,0.46-1.9,1.56-3.07,1.99c-1.31-0.18-2.51-0.72-3.79-0.97
		c-0.07,0.7-0.23,2.1-0.31,2.8l-0.82,0.09c-0.61-4.25-1.29-8.59,0.15-12.78C492.03,276.92,494.76,276.9,497.65,276.65z"/>
</g>
<g>
	<g>
		<path fill="#7FBF00" d="M456.14,270.87c0.24,0.28,0.71,0.86,0.95,1.15c1.15,1.47,0.18,4.51,2.86,4.12
			c-0.09,1.23-1.36,2.79,0.16,3.6c0.51-0.14,1.51-0.42,2.01-0.56c-0.07,1.17-0.69,1.89-1.85,2.14c-0.66,2.9,6.97,0.83,6.8,1.81
			c0.06,1.63-1.29,2.59-2.22,3.72c-1.09,0.97-2.16,2.02-3.61,2.42c-0.06,1.89-0.99,3.37-2.43,4.55c-1.16,0.07-2.31,0.22-3.44,0.46
			c-0.47,0.86-1,1.67-1.59,2.45c-1.57,0.37-3.32,0.31-4.58,1.45c-1.44,1.1-3.82,0.49-4.68,2.38c-1.62,1.1-3.45,1.84-5.15,2.79
			c-0.88,1.45-1.4,3.16-2.66,4.37c-0.8,0.91-2.06,1.78-1.71,3.2c0.81,2.34,4.17,3.26,1.38,6.76c-0.16,1.01-0.24,2.02-0.25,3.04
			c1.41,0.06,2.02,0.76,1.82,2.08c-0.68,0.11-2.05,0.34-2.73,0.46c-1.57,1.61-2.17,3.87-3.31,5.78c-1.44,0.8-3.1,0.91-4.67,1.26
			c-1.58,1.45-2.31,3.57-3.95,4.97c-1.12,2.9-4.18,1.57-5.99,0.47c-0.91-2.16-0.79-4.85-2.51-6.56c-4.3,0.14-8.5-0.62-12.71-1.31
			c-0.03-2.73-0.1-8.18-0.14-10.9c-3.57-1.03-4.75,4.38-8.23,3.4c-2.34-0.85-4.35,1.03-6.34,1.95c-0.19,1.9-1.31,3.23-2.92,4.16
			c-1.69,3.04-4.13,5.75-4.78,9.26c-1.69,1.06-5.07,3.16-6.75,4.21c-1.21,0.17-1.99-0.35-2.34-1.56c-1.48-0.52-2.92-1.38-4.52-1.37
			c-2.01,0.79-3.51,3.15-5.87,2.88c-1.14-1.36-1.7-3.06-2.51-4.6c-1.21-0.4-2.41-0.83-3.65-1.07c-1.58,0.38-3.19,1.11-4.83,0.63
			c-1.38-1.32-2.25-3.03-3.31-4.58c-1.19,0.2-2.41,0.96-3.62,0.5c-0.7-0.65-1.38-1.31-2.04-1.97c-0.47-1.9-3.12-3.4-1.88-5.49
			c1.09-1.92,1.73-4.01,1.89-6.21c2.15,0.21,4.82-1.43,7.06-0.5c2.27,0.92,4.88-0.07,6.4-1.85c0.4-1.95,0.88-3.87,1.31-5.81
			c-1.05,0.26-2.09,0.57-3.1,0.91c-0.04-2.58,1.24-5.1,3.43-6.48c1.3-0.73,1.98-2.08,2.9-3.19c1.17-0.18,2.35-0.25,3.54-0.19
			c1,1.01,1.7,2.77,3.26,2.95c3.63-2.43,5.29,0.61,6.25,2.86c1.28-0.54,2.47-1.28,3.77-1.78c1.72-0.26,3.25,0.82,4.94,0.92
			c3.4-0.82,9.85,0.77,7.24-5.72c0.81-1.35,2.44-1.14,3.78-1.45c0.05-1.62-1.57-2.43-1.96-3.85c-0.07-1.28-0.04-2.55,0.1-3.81
			c1.69-1.07,2.76-3.39,4.65-3.87c2.02,1.94,3.88,4.06,6.03,5.89c0.08-1.38,0.17-2.76,0.27-4.13c3.33-0.4,6.33,1.61,9.57,1.8
			c0.42-3.71,6.1-0.42,7.84-2.25c1-1.02,2.15-1.88,3.22-2.82c0.17-1.21,0.31-2.42,0.44-3.62c1.4-0.08,4.21-0.24,5.61-0.31
			c0.57-0.82,1.09-1.66,1.57-2.53c3.19-0.57,6.51-1.1,9.74-0.53c1.92-0.51,3.56-1.83,5.61-2.01l0.49-0.59
			c1.4-1.6,3.39-2.72,5.55-2.59c1.1,0.36,2.2,0.04,3.17-0.53l0.15,0.93c0.71,0,2.15,0.02,2.87,0.02
			C455.99,272.45,456.09,271.39,456.14,270.87z M418,314v1h-1c0,0.75,0,2.25,0,3c0.75,0,2.25,0,3,0v-1c0.5,0,1.5,0,2,0
			c0-0.75,0-2.25,0-3C420.66,314,419.33,314,418,314z"/>
	</g>
</g>
<g>
	<path fill="#7F0000" d="M530.2,271.08c1.97-0.45,3.85,0.22,5.58,1.14c0.11,0.64,0.34,1.93,0.45,2.58c1.5,2.27,6.01,0.26,3,5.97
		c1.11,1.32,3.21,2.17,2.79,4.24c-2.72,0.72-2.72-2.5-4.22-3.82c-1.75-0.69-6.99,0.29-7-3.06c-1.27-0.09-2.53-0.16-3.79-0.21
		c-0.08-1.26-0.05-2.51,0.1-3.76C528.23,273.02,530.34,273.13,530.2,271.08z"/>
</g>
<g>
	<path fill="#3FBF7F" d="M440.15,272.08c1.26-0.07,2.52-0.1,3.79-0.09c0.07,0.79,0.2,2.37,0.26,3.16l-0.49,0.59
		c-2.05,0.18-3.69,1.5-5.61,2.01c-0.26-0.9-0.59-1.77-0.99-2.61C439.18,275.38,439.02,273.2,440.15,272.08z"/>
</g>
<g>
	<path fill="#3F3F00" d="M514.08,272.02c0.7,0.01,2.09,0.02,2.79,0.03c0.16,1.99,0.33,4.01,1.28,5.82c0.86-0.25,3.49-2.03,2.89,0.18
		c-0.02,0.69-0.05,2.09-0.06,2.79c-1.03-0.28-2.06-0.54-3.08-0.78c-2-1.73-4.38-3.2-5.22-5.85
		C513.03,273.67,513.73,272.57,514.08,272.02z"/>
</g>
<g>
	<path fill="#9F1900" d="M652,275c0.75,0,2.25,0,3,0c-0.01,1.33-0.01,2.66,0,4c-0.75,0-2.25,0-3,0v-1h-1v-1h1
		C652,276.5,652,275.5,652,275z"/>
</g>
<g>
	<path fill="#7F007F" d="M567.3,279.3c3.54-0.31,7.09-0.65,10.64-1.01c0.57,1.74,0.95,3.52,1.46,5.29c1.42,0.49,1.49,1.93,1.8,3.19
		c2.26-0.61,4.51-1.3,6.81-1.79c-0.02,0.74-0.05,2.21-0.06,2.95c-0.29,1.45-2.31,2.24-1.85,3.88c1.31,2.75,6.82-1.1,6.84,2.24
		c0.38,2.28,0.93,4.53,1.26,6.82c1.34,0.12,4.02,0.35,5.36,0.46c0.66,1.06,1.41,2.07,2.29,2.98c1.26,2.91-0.75,8.18,3.01,9.01
		c0.27,1.25-0.69,2.29-1.1,3.39c-0.64,0.12-1.93,0.35-2.58,0.47l-0.19,0.74c0.75,0.05,2.26,0.16,3.01,0.21
		c-0.47,1.84-1.02,3.66-1.18,5.57c-0.27,0.54-0.82,1.61-1.1,2.15c-2.43,0.12-5.06-0.86-7.41-0.63c-2.05,1.77-3.63,4.87-7.31,2.71
		c-1.45-0.13-4.36-0.4-5.81-0.54c-2.18,0.53-3.24,2.78-5.18,3.59c-1.6-0.54-2.96-1.93-4.7-1.87c-0.14,0.4-0.43,1.19-0.58,1.58
		c-2.18-0.26-4.34-0.54-6.47-0.83c-0.81-0.53-1.62-1.02-2.43-1.49c1.76-0.6,3.62-1.24,4.98-2.57c0.29-2.55-0.05-5.26,1.83-7.19
		c2.46-3.73-0.91-5.71-3.43-6.91c0.73-1.91,1.58-4.08,3.48-5.09c0.09-0.63,0.25-1.89,0.33-2.52c-0.5-0.03-1.5-0.08-2-0.11
		c-5.39,3.05-4.41-1.03-5.85-3.19c-0.98-1.43-1.12-3.3-2.38-4.53c-0.7-0.12-2.1-0.36-2.8-0.48c0.479-2.27,1.82-4.26,2.31-6.54
		c1.15-0.16,2.31-0.33,3.48-0.49c1.46-1.17,1.39-3.21,2.05-4.83C564.08,281.86,565.79,280.52,567.3,279.3z"/>
</g>
<g>
	<g>
		<path fill="#00BF3F" d="M626.16,283.09c5.33-0.06,10.69-0.4,15.96-1.32l0.47,0.62l0.55,4.53c6.24,0.3,12.48-0.08,18.74,0.04
			c-0.46,1.29-1.09,2.59-0.9,4.01c-0.29,1.95,3.09,1.3,2.97,3.14c1.78,4.55-2.58,6.6-5.64,8.23c-0.45,2.15-0.9,4.31-1.62,6.39
			c-1.21,1.52-2.69,2.86-4.5,3.6c-0.61,2.61,1.02,5.36,0.19,7.96c-0.31,1.18-0.44,2.39-0.38,3.61c1.4,0.1,4.19,0.3,5.59,0.4
			c0.72,1.28,1.55,2.51,2.61,3.55c2.62-0.24,4.67-1.79,7.61-0.77c1.57,1.8,1.5,4.41,2.68,6.45c0.96,0.78,1.42,1.93,2,3.01
			c1.15,0.85,2.34,1.68,3.4,2.67c0.33,1.25-0.95,2.12-1.39,3.17c-0.78,1.91-1.7,3.76-2.43,5.68c0.12,2.33,2.71,5.36-2.01,6
			c-3.62,0.13-2.22,3.83-4.26,5.09c-1.12,0.9-0.79,2.69-1.34,3.95c-1.24-1.02-2.72-1.66-4.06-2.52c-1.41-2.16-3.62-4.25-2.61-7.3
			c-0.65-0.14-1.94-0.42-2.58-0.56c1.71-4.51-3.56-5.73-3.51-9.61c-4.2-0.13-8.37-0.26-12.55,0.02c-2.79,0.21-5.24-1.23-7.88-1.73
			c-1.16,0.94-2.44,2.11-4.05,1.48c-0.31-0.46-0.93-1.38-1.24-1.84c-0.8-1.64-3.32-1.42-4.03-3.07c-1.29-1.74-0.43-4.3-2.08-5.8
			c-4.01,0.92-7.45,4.32-11.7,3.75c-1.36-1.86-1.69-4.23-2.81-6.23c-1.35-2.63,3.24-2.45,3.77-4.68c-1.31,0.11-2.53,0.94-3.84,0.71
			c-0.83-0.67-1.66-1.35-2.47-2.02c0.16-1.91,0.71-3.73,1.18-5.57c-0.75-0.05-2.26-0.16-3.01-0.21l0.19-0.74
			c0.65-0.12,1.94-0.35,2.58-0.47c0.41-1.1,1.37-2.14,1.1-3.39c-3.76-0.83-1.75-6.1-3.01-9.01c4.41-0.07,7.78-4.78,6.33-9.15
			c6.93,2.96,4.58-0.82,4-3.19c0.47-1.69,1.38-3.21,2.08-4.81c3.53-0.59,7.05,0.35,10.57,0.7
			C626.36,286.74,625.8,284.7,626.16,283.09z M611.22,303.18c-1.63,1.88-4.62,3.21-2.21,6.85c2.1,0.22,3.9-1.11,5.98-1.2
			C614.26,306.83,614.3,302.34,611.22,303.18z"/>
	</g>
</g>
<g>
	<g>
		<path fill="#9F3F00" d="M479.2,286.17c0.67-0.04,1.99-0.12,2.65-0.17c-0.04,2.03,0.86,4.22,2.96,4.8c2.14,0.07,1.28,3.19-0.74,2.3
			c0.18,0.41,0.54,1.25,0.73,1.67c-0.92,0.84-1.78,1.74-2.06,3c-0.62,0.12-1.86,0.35-2.48,0.46c-0.35,1.48-1.6,2.39-2.32,3.67
			c1.27,0.07,2.54,0.17,3.82,0.3c1.06,1.33,2.56,2.1,4.1,2.78c0.07-0.47,0.21-1.39,0.28-1.86c0.73-0.06,2.19-0.17,2.92-0.23
			c-0.11-1.24-0.35-2.45-0.69-3.63c0.91-1.08,0.41-2.69,0.49-3.98c-1.53-1.15-0.57-3.59-0.86-5.26l1.03-0.11l0.82-0.09
			c0.08-0.7,0.24-2.1,0.31-2.8c1.28,0.25,2.48,0.79,3.79,0.97c1.17-0.43,1.92-1.53,3.07-1.99c1.48-0.03,1.92,1.74,2.09,2.91
			c-0.97,2.61-1.85,5.4-4.73,6.49c-0.71,3.71-2.83,6.92-4.08,10.41c0.67,2.97,4.25,2.47,6.53,3.46c-0.82,3.46,1.05,6.51,1.25,9.83
			c-1.31-0.43-0.99-2.68-2.79-1.99l-0.36,0.76c-1.26,0.06-2.51,0.14-3.75,0.26c-0.14,1.19-0.29,2.38-0.45,3.58
			c-1.99,1.61-4.55,1.72-6.61,3.15c-0.82-1.23-1.47-2.55-2.27-3.77c-1.15,0.28-1.73,1.48-2.62,2.17c-2.14,2.19-5.2,2.93-7.9,4.13
			c-2.14,1.59-3.72,4.6-7.29,2.44c-2.32-0.64-5.88,0.27-6.37-2.67c-1.21-0.37-2.04,0.92-3.04,1.33c-2.57,0.96-6.38,2.1-3.61,6.52
			c1.6,3.43-0.27,5.76-2.47,7.61c-2.92,0.24-5.72,0.42-8.62,0.53c-1.52-0.79-2.02-2.27-2.22-3.86c-1.24-0.36-2.7-0.32-3.43-1.56
			c-1.33-2.71-2.39-5.64-2.37-8.69c1.14-1.91,1.74-4.17,3.31-5.78c0.68-0.12,2.05-0.35,2.73-0.46c0.2-1.32-0.41-2.02-1.82-2.08
			c0.01-1.02,0.09-2.03,0.25-3.04c2.79-3.5-0.57-4.42-1.38-6.76c-0.35-1.42,0.91-2.29,1.71-3.2c1.26-1.21,1.78-2.92,2.66-4.37
			c1.7-0.95,3.53-1.69,5.15-2.79c0.86-1.89,3.24-1.28,4.68-2.38c1.26-1.14,3.01-1.08,4.58-1.45c0.59-0.78,1.12-1.59,1.59-2.45
			c1.13-0.24,2.28-0.39,3.44-0.46l1,0.18c0.09,0.5,0.26,1.5,0.34,1.99c0.67-0.02,2.01-0.06,2.68-0.08c1.3-0.7,0.58-3.08,2.26-3.05
			c2.12-0.34,1.88,1.61,2.1,3.09c1.16,0.12,2.32,0.07,3.47-0.14c0.24-2.14,2.48-1.66,4.02-2.11
			C475.94,291.05,477.45,288.52,479.2,286.17z M483.28,307.36c-1.3,0.76-2.84,0.58-4.27,0.75c0.02,0.67,0.04,2.03,0.06,2.71
			c1.42-0.03,2.13,0.68,2.11,2.11c1.48,0.37,2.13-0.25,1.96-1.86c1.48-0.03,4.43-0.1,5.91-0.14
			C489.18,308.13,485.81,305.92,483.28,307.36z"/>
	</g>
</g>
<g>
	<path fill="#003FBF" d="M509.25,287.26c1.51-0.39,2.99-1.15,4.58-1.15c0.65,0.8,1.09,1.71,1.32,2.74c0.3,0.96,0.67,1.9,1.12,2.82
		c4.57,0.13,4.68,6.63,1.76,9.18c1.56,0.54,3.14,1,4.75,1.41c0.14,1.17,0.29,2.35,0.45,3.53c1.11,1.55,3.43,0.86,4.51,2.46
		c0.729,1.37,1.53,2.85,1.17,4.48c-1.9,0.29-3.87,1.34-4.63,3.12c0.53,1.75,2.08,2.65,3.76,3.15c1.66,0.39,2.42-1.51,3.84-1.85
		c1.71,1.89,2.28,4.43,2.31,6.92c-0.27,2.41-3.01,3.03-4.43,4.63c-3.3,1.57-6.57,3.21-9.69,5.09c-1.22-1.35-0.95-3.38-2.2-4.69
		c-3.22,0.51-2.15,5.02-1.61,7.53c1.29,0.55,2.36,1.77,2.55,3.19c-0.66,0.68-1.34,1.35-2.04,1.99c-2.23,0.72-4.52-1.24-6.57,0.37
		c-0.13,1.25-0.25,2.51-0.35,3.77c-2.51,0.75-4.27-1.46-5.91-2.91c-1.3-1.31-3.2-1.12-4.86-1.02c-0.09,1.32-0.14,2.66-0.16,4
		c-1.73-0.02-5.19-0.05-6.92-0.06c-1.47-4.03,2.58-6.01,2.24-9.73c0.67-0.11,2.01-0.33,2.68-0.44c0.38-2.64-1.65-4.92-1.84-7.51
		c1.53-0.06,2.16-0.81,1.89-2.26c0.33-1.9-2.92-1.36-2.96-3.12c0.32-1.68,0.97-3.29,0.92-5.03l0.36-0.76
		c1.8-0.69,1.48,1.56,2.79,1.99c-0.2-3.32-2.07-6.37-1.25-9.83c-2.28-0.99-5.86-0.49-6.53-3.46c1.25-3.49,3.37-6.7,4.08-10.41
		c2.88-1.09,3.76-3.88,4.73-6.49c1.17,1.2,2.75,1.2,4.19,0.49c1.84-0.93,3.68,0.23,5.5,0.57
		C508.91,289.29,509.14,287.94,509.25,287.26z"/>
</g>
<g>
	<path fill="#400000" d="M461.24,289.27c1.45-0.4,2.52-1.45,3.61-2.42c0.07,2,0.12,4,0.24,6.01c-1.68-0.03-0.96,2.35-2.26,3.05
		c-0.67,0.02-2.01,0.06-2.68,0.08c-0.08-0.49-0.25-1.49-0.34-1.99l-1-0.18C460.25,292.64,461.18,291.16,461.24,289.27z"/>
</g>
<g>
	<path fill="#7F3F7F" d="M347,290c0.5,0,1.5,0,2,0v1h1v1h1c0,0.5,0,1.5,0,2h-1v1h-1v1h-1v-1c-0.75,0-2.25,0-3,0c0-0.5,0-1.5,0-2h1
		v-1h1C347,291.5,347,290.5,347,290z"/>
</g>
<g>
	<path fill="#1FBF00" d="M484.81,290.8c0.89-0.64,1.95-0.9,3.19-0.78c0.29,1.67-0.67,4.11,0.86,5.26c-0.08,1.29,0.42,2.9-0.49,3.98
		c0.34,1.18,0.58,2.39,0.69,3.63c-0.73,0.06-2.19,0.17-2.92,0.23c-0.07,0.47-0.21,1.39-0.28,1.86c-1.54-0.68-3.04-1.45-4.1-2.78
		c-1.28-0.13-2.55-0.23-3.82-0.3c0.72-1.28,1.97-2.19,2.32-3.67c0.62-0.11,1.86-0.34,2.48-0.46c0.28-1.26,1.14-2.16,2.06-3
		c-0.19-0.42-0.55-1.26-0.73-1.67C486.09,293.99,486.95,290.87,484.81,290.8z"/>
</g>
<g>
	<path fill="#7F3F3F" d="M611.22,303.18c3.08-0.84,3.04,3.65,3.771,5.65c-2.08,0.09-3.88,1.42-5.98,1.2
		C606.6,306.39,609.59,305.06,611.22,303.18z"/>
</g>
<g>
	<path fill="#5F4DAA" d="M715.02,305.88c1.22,1.14,3.47,1.89,2.91,3.96c-0.48,0.25-1.45,0.75-1.93,1
		C715.62,309.18,714.97,307.63,715.02,305.88z"/>
</g>
<g>
	<path fill="#007FBF" d="M483.28,307.36c2.53-1.44,5.9,0.77,5.77,3.57c-1.48,0.04-4.43,0.11-5.91,0.14
		c0.17,1.61-0.48,2.23-1.96,1.86c0.02-1.43-0.69-2.14-2.11-2.11c-0.02-0.68-0.04-2.04-0.06-2.71
		C480.44,307.94,481.98,308.12,483.28,307.36z"/>
</g>
<g>
	<path fill="#03BF00" d="M418,314c1.33,0,2.66,0,4,0c0,0.75,0,2.25,0,3c-0.5,0-1.5,0-2,0v1c-0.75,0-2.25,0-3,0c0-0.75,0-2.25,0-3h1
		V314z"/>
</g>
<g>
	<path fill="#3F3F3F" d="M491.18,318.13c1.24-0.12,2.49-0.2,3.75-0.26c0.05,1.74-0.6,3.35-0.92,5.03c0.04,1.76,3.29,1.22,2.96,3.12
		c0.27,1.45-0.36,2.2-1.89,2.26c0.19,2.59,2.22,4.87,1.84,7.51c-0.67,0.11-2.01,0.33-2.68,0.44c0.34,3.72-3.71,5.7-2.24,9.73
		c1.73,0.01,5.19,0.04,6.92,0.06c0.05,1.77,0.05,3.59,0.68,5.29c0.77,2.58,1.22,7.29-4.74,3.82c1.46,2.07,3.35,4.11,6.08,4.1
		c0.43,1.87-1.72,2.01-2.78,2.95c-0.07,0.72-0.21,2.16-0.28,2.88c-2.71-0.39-4.19-3.98-7.6-1.79c-1.87,0.76-3.2,2.68-5.31,2.8
		c0.23-1.1,0.52-2.18,0.86-3.24c-1.78,0.38-2.9,2.04-4.72,2.31c-0.05-1.74-0.15-5.22-0.21-6.96c-2.79,0.24-5.01-1.71-7.6-2.06
		c-0.17,3.31-3.45,1.04-5.31,0.87c-1.69-0.29-2.59,1.45-3.99,1.98c-1.65-0.53-3.04-2.03-4.83-1.89c-0.55,0.89-1.05,1.8-1.51,2.74
		c-1.24,0.23-2.26-0.77-3.39-1.08c-2.3-1.02-4.83-0.86-7.08-1.91c-0.13-1.32-0.25-2.64-0.37-3.95c-1.22-2.03-3.47-3.18-5.52-4.26
		c-0.34-1.37-1.02-4.1-1.37-5.47c2.9-0.11,5.7-0.29,8.62-0.53c2.2-1.85,4.07-4.18,2.47-7.61c-2.77-4.42,1.04-5.56,3.61-6.52
		c1-0.41,1.83-1.7,3.04-1.33c0.49,2.94,4.05,2.03,6.37,2.67c3.57,2.16,5.15-0.85,7.29-2.44c2.7-1.2,5.76-1.94,7.9-4.13
		c0.89-0.69,1.47-1.89,2.62-2.17c0.8,1.22,1.45,2.54,2.27,3.77c2.06-1.43,4.62-1.54,6.61-3.15
		C490.89,320.51,491.04,319.32,491.18,318.13z"/>
</g>
<g>
	<g>
		<path fill="#3F3FBF" d="M536.98,323.01c3.96,0.03,7.98-0.29,11.91-0.93c0.07,1.3,0.14,2.6,0.22,3.91c3.49,0.6,5.76-3.64,9.57-1.86
			c0.88,1.54,1.05,3.87,3.15,4.24c0.81,0.47,1.62,0.96,2.43,1.49c-0.1,0.74-0.31,2.21-0.41,2.95c-0.71,0.1-2.12,0.29-2.83,0.38
			c-0.71,2.3,1.2,3.12,2.89,3.98c0.13,1.2,0.13,2.4,0.01,3.6c-2.81,0.02-5.74,2.19-4.93,5.28c1.04-0.24,2.07-0.55,3.09-0.92
			c-0.38,1.55-1.3,3.04-1.01,4.7c1.49,0.85,3.84,1.59,2.7,3.79c-1.52,0.59-3,2.38-2.39,4.07c0.84,1.77-0.45,3.54-0.69,5.3
			c-1.34,0.03-2.78,0.07-3.07,1.67c-1.1,0.21-2.19,0.43-3.28,0.65c-0.73,1.89-2.03,3.36-3.35,4.77c0.38,1.89,0.91,3.74,1.32,5.64
			c2.08,1.11,4.24,2.12,6.6,2.52c0.13,1.2,0.13,2.39,0,3.6c-1.02,0.9-2.37,1.12-3.61,1.54c-1.42,0.94-2.48,2.29-3.51,3.63
			c-1.35-0.32-2.73-1.12-4.1-0.41c-2.16,0.86-4.29-1.39-6.43-0.34c-3.01,1.22-4.01,4.67-6.45,6.63c-3.45,1.29-4.73-4.8-8.82-1.85
			c-1.48-0.03-4.44-0.09-5.92-0.13c-0.69-1.61-2.1-2.1-3.76-1.89c-0.13-0.7-0.4-2.11-0.53-2.81c-0.88-1.07-2.27-1.2-3.48-1.64
			c-2.82-0.88-5.22-3.29-5.75-6.24c-1.09-1.65,1.7-4.23-1.2-4.75c2.84-5.89-2.81-3.24-3.77-6.22c-0.71-1.45-2.39-1.67-3.7-2.3
			c0.07-0.72,0.21-2.16,0.28-2.88c1.06-0.94,3.21-1.08,2.78-2.95c-2.73,0.01-4.62-2.03-6.08-4.1c5.96,3.47,5.51-1.24,4.74-3.82
			c-0.63-1.7-0.63-3.52-0.68-5.29c0.02-1.34,0.07-2.68,0.16-4c1.66-0.1,3.56-0.29,4.86,1.02c1.64,1.45,3.4,3.66,5.91,2.91
			c0.1-1.26,0.22-2.52,0.35-3.77c2.05-1.61,4.34,0.35,6.57-0.37c0.7-0.64,1.38-1.31,2.04-1.99c-0.19-1.42-1.26-2.64-2.55-3.19
			c-0.54-2.51-1.61-7.02,1.61-7.53c1.25,1.31,0.98,3.34,2.2,4.69c3.12-1.88,6.39-3.52,9.69-5.09c1.42-1.6,4.16-2.22,4.43-4.63
			C534.99,323.35,535.92,323,536.98,323.01z M530.19,376.15c-0.26,0.25-0.77,0.74-1.03,0.99l0.03,0.65c1.57,0.9,1.93,2.45,1.94,4.17
			c0.72,0,2.15,0.02,2.87,0.03C536.12,378.82,533.29,374.92,530.19,376.15z"/>
	</g>
</g>
<g>
	<path fill="#7F7F3F" d="M601.72,325.85c0.28-0.54,0.83-1.61,1.1-2.15c0.81,0.67,1.64,1.35,2.47,2.02c1.31,0.23,2.53-0.6,3.84-0.71
		c-0.53,2.23-5.12,2.05-3.77,4.68c1.12,2,1.45,4.37,2.81,6.23c4.25,0.57,7.69-2.83,11.7-3.75c1.65,1.5,0.79,4.06,2.08,5.8
		c0.71,1.65,3.23,1.43,4.03,3.07c0.31,0.46,0.93,1.38,1.24,1.84c1.61,0.63,2.89-0.54,4.05-1.48c2.64,0.5,5.09,1.94,7.88,1.73
		c-1.77,1.91-3.47,3.89-5.39,5.65c-2.26,0.72-4.48-0.58-6.66-0.97c-1.67-0.34-2.86-2.66-4.75-1.56c-1.05,1.62-2.15,3.22-3.29,4.8
		c-3.34,1.41-1.74,3.91-1.25,5.98c-0.59,2.43-1.69,5.82-5.83,2.98c-3.43-0.07-5.45-3.22-7.84-5.2c-0.06-0.71-0.19-2.14-0.26-2.85
		c-2.21-0.26-3.87,1.11-5.74,1.96c-0.6-0.81-1.08-1.68-1.45-2.61c-1.09-0.44-2.52-0.99-2.65-2.33c-0.1-2.23-3.97,0.26-4.09-1.95
		c-0.24-2.02-2.07-2.26-3.73-1.95c-0.82,1.43-1.31,2.98-1.04,4.65c1.94,2.77,2.95,5.99,3.98,9.18c1.81-0.67,3.97-1.56,4.04-3.82
		c0.42-0.02,1.24-0.05,1.66-0.07c0.22,1.4,0.03,2.99,1.32,3.94c0.63-0.04,1.9-0.12,2.53-0.16c0.9-1.3,2.8-0.53,4.15-0.79
		c0.04,4.7,8.08,4.2,5.15,10c-2.45-0.05-7.33-0.15-9.77-0.2c-2.271-2.17-4.19-4.85-7.28-5.85c-0.1,3.03,1.14,5.86,1.46,8.85
		c-0.24,1.17-0.77,2.19-1.6,3.04c-3.22-0.34-6.43-0.72-9.64-0.94c0.3-0.91,0.58-1.82,0.83-2.74c-1.23-0.11-2.45-0.27-3.65-0.47
		c-0.49-0.86-1.01-1.69-1.57-2.49c-4.48-1.09-8.99-1.91-13.53-2.5c-0.94-0.48-1.79-1.05-2.57-1.72c0.24-1.76,1.53-3.53,0.69-5.3
		c-0.61-1.69,0.87-3.48,2.39-4.07c1.14-2.2-1.21-2.94-2.7-3.79c-0.29-1.66,0.63-3.15,1.01-4.7c-1.02,0.37-2.05,0.68-3.09,0.92
		c-0.81-3.09,2.12-5.26,4.93-5.28c0.12-1.2,0.12-2.4-0.01-3.6c-1.69-0.86-3.6-1.68-2.89-3.98c0.71-0.09,2.12-0.28,2.83-0.38
		c0.1-0.74,0.31-2.21,0.41-2.95c2.13,0.29,4.29,0.57,6.47,0.83c0.15-0.39,0.44-1.18,0.58-1.58c1.74-0.06,3.1,1.33,4.7,1.87
		c1.94-0.81,3-3.06,5.18-3.59c1.45,0.14,4.36,0.41,5.81,0.54c3.68,2.16,5.26-0.94,7.31-2.71
		C596.66,324.99,599.29,325.97,601.72,325.85z"/>
</g>
<g>
	<path fill="#BF3F00" d="M639.15,343.13c4.18-0.28,8.35-0.15,12.55-0.02c-0.05,3.88,5.22,5.1,3.51,9.61
		c0.64,0.14,1.93,0.42,2.58,0.56c-1.01,3.05,1.2,5.14,2.61,7.3c1.34,0.86,2.82,1.5,4.06,2.52c-0.07,2.96-1.78,4.04-5.15,3.24
		c-4.3,3.53-8.69,8.38-7.59,14.44c-1.14,1.11-3.42,3.33-4.56,4.44c0.23,2.88,0.65,6.12-1.44,8.52c-1.5,1.53-2.99,3.26-3.7,5.3
		c-0.36,1.66,1.43,2.6,2.02,3.97c-0.7,1.28-1.63,2.42-2.43,3.65c-2.57,1.71-5.81,1.38-8.6,2.52c-1.02,0.33-2.03,0.62-3.06,0.88
		c0.67-1.35,1.21-2.94,2.81-3.43c0.06-0.62,0.18-1.85,0.24-2.46c-0.75-0.08-2.24-0.25-2.98-0.33c0.21-2.53,0.71-5.17,0.94-7.66
		c-1.26-0.12-2.52-0.25-3.76-0.39c-1.84-2.23-2.65-6.44-7.21-3.82c-2.47,0.43-2.41-2.81-4.23-3.79c-2.61-0.09-7.83-0.29-10.44-0.39
		c-0.61-1.31-1.36-2.57-2.44-3.53c-0.9,0.25-1.8,0.49-2.69,0.7c-0.1-0.69-0.31-2.08-0.41-2.78c-2.78,0.63-4.66-0.18-5.66-2.43
		c-0.81-1.13-1.51-2.4-2.75-3.09c0.35-1.98,2.54-3.79,1.05-5.85c-0.32-2.99-1.56-5.82-1.46-8.85c3.09,1,5.01,3.68,7.28,5.85
		c2.44,0.05,7.32,0.15,9.77,0.2c2.93-5.8-5.11-5.3-5.15-10c0.05-0.76,0.16-2.28,0.22-3.05l1.06-0.15c2.39,1.98,4.41,5.13,7.84,5.2
		c4.14,2.84,5.24-0.55,5.83-2.98c-0.49-2.07-2.09-4.57,1.25-5.98c1.14-1.58,2.24-3.18,3.29-4.8c1.89-1.1,3.08,1.22,4.75,1.56
		c2.18,0.39,4.4,1.69,6.66,0.97C635.68,347.02,637.38,345.04,639.15,343.13z"/>
</g>
<g>
	<path fill="#017F3F" d="M586.22,345.08c1.66-0.31,3.49-0.07,3.73,1.95c0.12,2.21,3.99-0.28,4.09,1.95
		c0.13,1.34,1.56,1.89,2.65,2.33c0.37,0.93,0.85,1.8,1.45,2.61c1.87-0.85,3.53-2.22,5.74-1.96c0.07,0.71,0.2,2.14,0.26,2.85
		l-1.06,0.15c-0.06,0.77-0.17,2.29-0.22,3.05c-1.35,0.26-3.25-0.51-4.15,0.79c-0.63,0.04-1.9,0.12-2.53,0.16
		c-1.29-0.95-1.1-2.54-1.32-3.94c-0.42,0.02-1.24,0.05-1.66,0.07c-0.07,2.26-2.23,3.15-4.04,3.82c-1.03-3.19-2.04-6.41-3.98-9.18
		C584.91,348.06,585.4,346.51,586.22,345.08z"/>
</g>
<g>
	<g>
		<path fill="#9F7F7F" d="M444.27,359.74c-0.92-2.52,0.45-5.39,2.55-6.86c0.12,1.31,0.24,2.63,0.37,3.95
			c2.25,1.05,4.78,0.89,7.08,1.91c1.13,0.31,2.15,1.31,3.39,1.08c0.46-0.94,0.96-1.85,1.51-2.74c1.79-0.14,3.18,1.36,4.83,1.89
			c1.4-0.53,2.3-2.27,3.99-1.98c1.86,0.17,5.14,2.44,5.31-0.87c2.59,0.35,4.81,2.3,7.6,2.06c0.06,1.74,0.16,5.22,0.21,6.96
			c1.82-0.27,2.94-1.93,4.72-2.31c-0.34,1.06-0.63,2.14-0.86,3.24c2.11-0.12,3.44-2.04,5.31-2.8c3.41-2.19,4.89,1.4,7.6,1.79
			c1.31,0.63,2.99,0.85,3.7,2.3c0.96,2.98,6.61,0.33,3.77,6.22c2.9,0.52,0.11,3.1,1.2,4.75c0.53,2.95,2.93,5.36,5.75,6.24
			c1.21,0.44,2.6,0.57,3.48,1.64c0.13,0.7,0.4,2.11,0.53,2.81c-3.09,2.46-7.4,2.49-11.17,3.2c-0.25,4.51-0.34,9.1-1.42,13.52
			c-1.52,2-3.49,3.57-6.05,3.85c-3.94,2.49-6.03-0.88-8.87-2.34c-1.96,0.42-4.24,2.95-6.1,1.06c-2.99-2-1.1-5.97-1.94-8.96
			c-3.28-1.07-4.18-4.62-5.9-7.22c-3.87-0.47-7.88,0.29-11.64-0.82c0.03,1.89-1.65,1.77-3.06,1.67c-0.08-0.72-0.23-2.17-0.31-2.9
			c-1.35,0.2-2.75,0.71-4.02-0.06c2.66-1.51,3.85-5.29,1.94-7.86c-1.44-0.05-4.32-0.15-5.76-0.2c-0.51-3.65-0.06-7.79-1.83-11.16
			c-1.74-1.82-0.61-4.74-2.44-6.55C446.37,362.9,445.21,361.4,444.27,359.74z M471,373c-0.01,1.33-0.01,2.66,0,4c-0.5,0-1.5,0-2,0v1
			c-0.5,0-1.5,0-2,0c0,0.5,0,1.5,0,2h1v1h1c0,0.5,0,1.5,0,2c0.5,0,1.5,0,2,0v1c1.16-0.51,4.43,1.1,4-1h1v-1h1v1c0.75,0,2.25,0,3,0
			c0-0.5,0-1.5,0-2c-0.75,0-2.25,0-3,0c0.5-1.17-1.11-4.45,1-4c0.43-2.11-2.84-0.5-4-1c0-0.5,0-1.5,0-2h-1v-1
			C472.5,373,471.5,373,471,373z M491.28,390.35c-1.85,0.97-6.01,0.16-5.17,3.48c2.18,1.8,4.92,2.82,7.89,2.18
			C495.62,394.84,494.01,388.7,491.28,390.35z"/>
	</g>
</g>
<g>
	<g>
		<path fill="#3F007F" d="M557.62,364.66c0.29-1.6,1.73-1.64,3.07-1.67c0.78,0.67,1.63,1.24,2.57,1.72
			c4.54,0.59,9.05,1.41,13.53,2.5c0.56,0.8,1.08,1.63,1.57,2.49c1.2,0.2,2.42,0.36,3.65,0.47c-0.25,0.92-0.53,1.83-0.83,2.74
			c3.21,0.22,6.42,0.6,9.64,0.94c0.83-0.85,1.36-1.87,1.6-3.04c1.49,2.06-0.7,3.87-1.05,5.85c1.24,0.69,1.94,1.96,2.75,3.09
			c-0.52,0.09-1.58,0.27-2.1,0.36c-0.46,1.97,1.73,2.14,2.9,3.06c0,0.67,0,2,0,2.66c-1.92,2.21-7.22-0.09-4.06,6.05
			c0.13,1.73-3,1.3-2.76,3.17c-0.08,0.49-0.24,1.47-0.32,1.96c-1.76-0.19-3.18-1.37-4.79-1.97c-4.08,1.49-6.64,5.35-9.76,8.16
			c-0.35,0.68-1.06,2.04-1.41,2.72c-1.19-0.5-2.42-0.86-3.62-1.24c-0.08-1.39-0.22-4.17-0.3-5.56c-1.28-0.08-2.55-0.16-3.82-0.24
			c1.23-3.15-0.89-6-1.89-8.85c0.58-2.38,2.97-6.66-4.19-3.07c-2.16-0.07-4.22,1.59-6.21,0.05c1.03-1.34,2.09-2.69,3.51-3.63
			c1.24-0.42,2.59-0.64,3.61-1.54c0.13-1.21,0.13-2.4,0-3.6c-2.36-0.4-4.52-1.41-6.6-2.52c-0.41-1.9-0.94-3.75-1.32-5.64
			c1.32-1.41,2.62-2.88,3.35-4.77C555.43,365.09,556.52,364.87,557.62,364.66z M570,385v1h-1v1c-0.5,0-1.5,0-2,0c0,0.5,0,1.5,0,2h1
			v1c1.15-0.51,4.43,1.1,4-1h1v-1h1v-1h-1v-1c-0.5,0-1.5,0-2,0v-1H570z"/>
	</g>
</g>
<g>
	<path fill="#9F007F" d="M471,373c0.5,0,1.5,0,2,0v1h1c0,0.5,0,1.5,0,2c1.16,0.5,4.43-1.11,4,1c-2.11-0.45-0.5,2.83-1,4
		c0.75,0,2.25,0,3,0c0,0.5,0,1.5,0,2c-0.75,0-2.25,0-3,0v-1h-1v1h-1c0.43,2.1-2.84,0.49-4,1v-1c-0.5,0-1.5,0-2,0c0-0.5,0-1.5,0-2h-1
		v-1h-1c0-0.5,0-1.5,0-2c0.5,0,1.5,0,2,0v-1c0.5,0,1.5,0,2,0C470.99,375.66,470.99,374.33,471,373z"/>
</g>
<g>
	<path fill="#BFBF3F" d="M530.19,376.15c3.1-1.23,5.93,2.67,3.81,5.84c-0.72-0.01-2.15-0.03-2.87-0.03
		c-0.01-1.72-0.37-3.27-1.94-4.17l-0.03-0.65C529.42,376.89,529.93,376.4,530.19,376.15z"/>
</g>
<g>
	<g>
		<path fill="#00007F" d="M592.02,380.11c0.52-0.09,1.58-0.27,2.1-0.36c1,2.25,2.88,3.06,5.66,2.43c0.1,0.7,0.31,2.09,0.41,2.78
			c0.89-0.21,1.79-0.45,2.69-0.7c1.08,0.96,1.83,2.22,2.44,3.53c2.61,0.1,7.83,0.3,10.44,0.39c1.82,0.98,1.76,4.22,4.23,3.79
			c4.56-2.62,5.37,1.59,7.21,3.82c1.24,0.14,2.5,0.27,3.76,0.39c-0.23,2.49-0.73,5.13-0.94,7.66c0.74,0.08,2.23,0.25,2.98,0.33
			c-0.06,0.61-0.18,1.84-0.24,2.46c-1.6,0.49-2.14,2.08-2.81,3.43c1.03-0.26,2.04-0.55,3.06-0.88c-0.19,1.87,0.14,3.73,1.54,5.09
			c-0.38,1.91-0.21,4.19-1.74,5.63c-3.91,3.11-4.19-1.41-6.61-1.59c-0.84,0.78-1.63,1.61-2.47,2.37
			c-4.51-0.08-10.54,0.05-12.06,5.15c-1.27,0.17-3.01,0.59-3.92-0.58c-0.94-0.71-1.53-1.98-2.74-2.21
			c-2.16,1.08-4.36,2.11-6.82,2.17c-0.09,0.68-0.27,2.03-0.35,2.7c-1.84,0.65-3.73,1.42-5.71,1.05c2.15-4.58-1.94-5.75-4.49-7.52
			c-2.79-0.12-5.03-0.95-7.64-1.41c-1.28-0.13-2.44,1.13-3.67,0.59c-1.1-0.81-2.24-1.58-3.53-2.02c1.21-2.06,2.49-4.09,3.03-6.45
			c-1.03-1.06-2.27-1.86-3.58-2.49c-0.23-1.24-0.37-2.49-0.43-3.74c0.35-0.68,1.06-2.04,1.41-2.72c3.12-2.81,5.68-6.67,9.76-8.16
			c1.61,0.6,3.03,1.78,4.79,1.97c0.08-0.49,0.24-1.47,0.32-1.96c-0.24-1.87,2.89-1.44,2.76-3.17c-3.16-6.14,2.14-3.84,4.06-6.05
			c0-0.66,0-1.99,0-2.66C593.75,382.25,591.56,382.08,592.02,380.11z M599.02,400.94L599,406c7.05,3.61,5.08-1.42,3.72-3.72
			C601.53,401.71,600.38,400.93,599.02,400.94z"/>
	</g>
</g>
<g>
	<path fill="#1F3F00" d="M452.01,381.96c1.44,0.05,4.32,0.15,5.76,0.2c1.91,2.57,0.72,6.35-1.94,7.86l-0.83,0.02
		c-0.95-0.43-1.9-0.86-2.84-1.29C452.12,387.05,452.05,383.66,452.01,381.96z"/>
</g>
<g>
	<path fill="#BF7F00" d="M570,385h1v1c0.5,0,1.5,0,2,0v1h1v1h-1v1h-1c0.43,2.1-2.85,0.49-4,1v-1h-1c0-0.5,0-1.5,0-2c0.5,0,1.5,0,2,0
		v-1h1V385z"/>
</g>
<g>
	<path fill="#BF003F" d="M541.26,386.26c2.14-1.05,4.27,1.2,6.43,0.34c1.37-0.71,2.75,0.09,4.1,0.41c1.99,1.54,4.05-0.12,6.21-0.05
		c7.16-3.59,4.77,0.69,4.19,3.07c1,2.85,3.12,5.7,1.89,8.85c1.27,0.08,2.54,0.16,3.82,0.24c0.08,1.39,0.22,4.17,0.3,5.56
		c1.2,0.38,2.43,0.74,3.62,1.24c0.06,1.25,0.2,2.5,0.43,3.74c1.31,0.63,2.55,1.43,3.58,2.49c-0.54,2.36-1.82,4.39-3.03,6.45
		c-1.68,0.22-1.79,1.77-2.15,3.11c-1.31,0.69-2.77,1.83-4.3,1.06c-0.79-1.36-1.29-3.38-3.3-2.84c-1.69-0.07-2.65,1.41-4.04,2.01
		c-1.89-0.79-3.74-1.66-5.62-2.44c-1.27-0.73-2.55-2.11-4.12-1.29c-1.21,1.14-2.3,2.39-3.48,3.56c-3.48-1.75-6.16-4.92-9.33-7.2
		c-0.49-1.17-0.72-2.46-1.68-3.34c-3.16,0.76-5.12-1.17-7.41-2.58c-0.91-3.1-2.97-6.24-1.42-9.45c-0.67-0.11-2.02-0.33-2.69-0.44
		c-0.7-2.75-1.42-5.56-3.19-7.85c1.48,0.04,4.44,0.1,5.92,0.13c4.09-2.95,5.37,3.14,8.82,1.85
		C537.25,390.93,538.25,387.48,541.26,386.26z"/>
</g>
<g>
	<path fill="#217F7F" d="M491.28,390.35c2.73-1.65,4.34,4.49,2.72,5.66c-2.97,0.64-5.71-0.38-7.89-2.18
		C485.27,390.51,489.43,391.32,491.28,390.35z"/>
</g>
<g>
	<path fill="#7F7F00" d="M599.02,400.94c1.36-0.01,2.51,0.77,3.7,1.34c1.36,2.3,3.33,7.33-3.72,3.72L599.02,400.94z"/>
</g>
<g>
	<path fill="#5F7F00" d="M570.65,421.71c0.36-1.34,0.47-2.89,2.15-3.11c1.29,0.44,2.43,1.21,3.53,2.02
		c1.23,0.54,2.39-0.72,3.67-0.59c2.61,0.46,4.85,1.29,7.64,1.41c2.55,1.77,6.64,2.94,4.49,7.52c1.98,0.37,3.87-0.4,5.71-1.05
		c-0.31,1.7-0.42,3.42,0.15,5.09c0.89,2.86,0.52,5.9,0.13,8.84c2.29,0.24,5.12,0.32,6.51,2.49c2.01,2.99,4.17,5.87,6.09,8.96
		c4.64,7.66-8.87,4.18-4.86,11.78c-1.85,0.21-2.08-1.76-3.1-2.79c-1.83-0.5-3.63-1.43-5.57-1.2c-0.89,1.85-1.23,3.86-1.35,5.9
		c-2.56-0.11-5.3-0.99-7.77-0.97c-0.21,4.25-0.01,8.5-0.21,12.77c-0.97,0.76-2.02,1.41-3.02,2.12c-0.66-0.01-1.98-0.05-2.63-0.06
		c-0.94-1.43-1.7-3.03-3.51-3.46c-4.49,0.12-8.3-2.28-12.38-3.69c-0.57-1.79-1.06-3.6-1.76-5.33c-1.96-2.48-2.36-5.71-3.21-8.66
		c-0.75-1.69,1-3.38,0.1-5.03c-0.38-1.5-1.1-2.83-2.06-4.02c-1.24-3.18-2.21-6.46-3.18-9.71c0.43-4.33-2.68-7.7-3.16-11.78
		c2.16-1.7,4.9-2.51,7.7-2.34c0.18-2.47,0.96-4.8,2.3-6.89c2.01-0.54,2.51,1.48,3.3,2.84C567.88,423.54,569.34,422.4,570.65,421.71z
		"/>
</g>
</svg>
