<?xml version="1.0" standalone="no"?>
<!DOCTYPE svg PUBLIC "-//W3C//DTD SVG 1.1//EN" "http://www.w3.org/Graphics/SVG/1.1/DTD/svg11.dtd" >
<svg>
<metadata>
Created by FontForge 20090914 at Sun Feb 17 05:39:34 2013
 By www-data
Copyright 1991-2003 Adobe Systems Incorporated. All Rights Reserved. U.S. Patent Des. 371,799.
</metadata>
<defs>
<font id="MinionWebPro" horiz-adv-x="800" >
  <font-face 
    font-family="Minion Web Pro"
    font-weight="400"
    font-stretch="normal"
    units-per-em="2000"
    panose-1="2 4 5 3 5 2 1 2 2 3"
    ascent="1500"
    descent="-500"
    x-height="905.998"
    cap-height="1288"
    bbox="-30 -556.002 2152 1835"
    underline-thickness="100"
    underline-position="-150"
    unicode-range="U+0020-U+FB02"
  />
<missing-glyph horiz-adv-x="1000" 
d="M0 1400h1000v-1400h-1000v1400zM840 1300h-680l340 -510zM900 190v1020l-340 -510zM840 100l-340 510l-340 -510h680zM100 190l340 510l-340 510v-1020z" />
    <glyph glyph-name="f_i" unicode="fi" horiz-adv-x="1130" 
d="M220 218l-0.00292969 592.001h-132l-14 26l56 70h90v24c0 64 10.667 126.833 32 188.5s56.833 117.667 106.5 168s102.834 88.166 159.501 113.499s104.667 38 144 38c58.667 0 113.334 -14.833 164.001 -44.5s76 -62.5 76 -98.5c0 -22 -10.333 -42.5 -31 -61.5
s-40 -28.5 -58 -28.5c-11.333 0 -21 4.33301 -29 13c-60 68 -129.333 102 -208 102c-56.667 0 -102.167 -32.333 -136.5 -97s-51.5 -161.667 -51.5 -291v-26h178c168.667 0 293.334 8.66699 374.001 26v-716c0 -60 6.83301 -96.5 20.5 -109.5s54.167 -22.5 121.5 -28.5v-78
h-434v78c58 6 93.167 15.5 105.5 28.5s18.5 49.5 18.5 109.5v492c0 44 -4.83301 72 -14.5 84s-36.167 18 -79.5 18h-290v-592c0 -61.333 6 -98.5 18 -111.5s49.333 -22.5 112 -28.5v-78h-432v78c63.333 7.33301 101.5 17.5 114.5 30.5s19.5 49.5 19.5 109.5z" />
    <glyph glyph-name="f_l" unicode="fl" horiz-adv-x="1130" 
d="M220 216v594h-130l-14 28l54 68h90v28c0 92.667 22.833 180.5 68.5 263.5s107.167 144.167 184.5 183.5s133.666 59 168.999 59c65.333 0 126 -14.667 182 -44c26.667 7.33301 59.334 20 98.001 38l18 -12v-1206c0 -60 7 -96.5 21 -109.5s55 -22.5 123 -28.5v-78h-438v78
c60 6 96 15.5 108 28.5s18 49.5 18 109.5v594h-384v-594c0 -60 6.16699 -96.5 18.5 -109.5s48.833 -22.5 109.5 -28.5v-78h-430v78c63.333 7.33301 101.5 17.333 114.5 30s19.5 48.667 19.5 108zM388 906h384v352c-37.333 52 -94 78 -170 78c-142.667 0 -214 -118 -214 -354
v-76z" />
    <glyph glyph-name=".notdef" horiz-adv-x="1000" 
d="M0 1400h1000v-1400h-1000v1400zM840 1300h-680l340 -510zM900 190v1020l-340 -510zM840 100l-340 510l-340 -510h680zM100 190l340 510l-340 510v-1020z" />
    <glyph glyph-name="space" unicode=" " horiz-adv-x="480" 
 />
    <glyph glyph-name="exclam" unicode="!" horiz-adv-x="516" 
d="M302 390c-6.66699 -7.33301 -23.334 -10.999 -50.001 -10.999c-6 0 -11.667 0.333008 -17 1s-10.166 1.5 -14.499 2.5s-7.5 2.33301 -9.5 4s-6 46.5 -12 134.5l-20 274c-6.66699 94 -13.667 178.667 -21 254c-12 117.333 -18 185.666 -18 204.999c0 40 38 60 114 60
c77.333 0 116 -20 116 -60c0 -34.667 -6.5 -115 -19.5 -241s-29.167 -333.667 -48.5 -623zM396 124.001c0 -44 -12.998 -79.667 -38.998 -107s-59 -41 -99 -41s-73 13.667 -99 41s-39 63 -39 107c0 42 13.167 76.833 39.5 104.5s59.166 41.5 98.499 41.5
s72.166 -13.833 98.499 -41.5s39.5 -62.5 39.5 -104.5z" />
    <glyph glyph-name="quotedbl" unicode="&#x22;" horiz-adv-x="718" 
d="M144 844c-45.333 332 -68 502 -68 510c0 36 36.667 54 110 54s110 -18 110 -54c0 -8.66699 -23.333 -178.667 -70 -510c-6.66699 -6 -20 -9 -40 -9c-20.667 0 -34.667 3 -42 9zM492 844c-45.333 332 -68 502 -68 510c0 36 36.667 54 110 54s110 -18 110 -54
c0 -8.66699 -23.333 -178.667 -70 -510c-6.66699 -6 -20 -9 -40 -9c-20.667 0 -34.667 3 -42 9z" />
    <glyph glyph-name="numbersign" unicode="#" horiz-adv-x="948" 
d="M908 786h-186l-58 -286h174l-20 -136h-182l-74 -364h-112l76 364h-192l-76 -364h-110l74 364h-198l20 136h208l60 286h-196l20 136h202l66 324h110l-66 -324h190l66 324h112l-66 -324h182zM612 788h-190l-58 -288h190z" />
    <glyph glyph-name="dollar" unicode="$" horiz-adv-x="944" 
d="M532 1158l-0.00195312 -432.002c132 -43.333 221.333 -94.666 268 -153.999s70 -128.666 70 -207.999c0 -96 -29.5 -175.833 -88.5 -239.5s-142.167 -103.167 -249.5 -118.5v-172h-94v166c-112.667 -0 -214.667 27.333 -306 82c-19.333 72 -38.666 161.333 -57.999 268
l84 24c52.667 -172.667 146 -267.334 280 -284.001v474c-133.333 54.667 -219.666 109 -258.999 163s-59 115.667 -59 185c0 82.667 28 155 84 217s134 99.667 234 113v156h94v-152c62.667 0 123.334 -9.33301 182.001 -28c10 -4 29.333 -7.33301 58 -10
c18 -90 32.667 -175.333 44 -256l-84 -18c-32.667 132.667 -99.334 207.334 -200.001 224.001zM437.998 761.998v396c-116 -18.667 -174 -80.667 -174 -186c0 -92.667 58 -162.667 174 -210zM531.998 533.998v-442c120 24 180 92 180 204c0 58.667 -13.5 105.667 -40.5 141
s-67.5 65 -121.5 89z" />
    <glyph glyph-name="percent" unicode="%" horiz-adv-x="1632" 
d="M1230 1242l-762 -1322l-86 58l762 1318zM84 882c0 102 27.167 192.168 81.5 270.501s127.833 117.5 220.5 117.5s166.5 -39.333 221.5 -118s82.5 -168.667 82.5 -270c0 -102.667 -27.333 -193.334 -82 -272.001s-128.667 -118 -222 -118
c-92.667 0 -166.167 39.5 -220.5 118.5s-81.5 169.5 -81.5 271.5zM534 882.001c0 58.667 -5.5 111.169 -16.5 157.502s-27.167 81.666 -48.5 105.999s-47.666 36.5 -78.999 36.5c-47.333 0 -83.5 -27.833 -108.5 -83.5s-37.5 -127.834 -37.5 -216.501
c0 -89.333 12.5 -162 37.5 -218s61.167 -84 108.5 -84s83.166 27.333 107.499 82s36.5 128 36.5 220zM944 364.003c0 101.333 27.333 191.333 82 270s128 118 220 118s165.333 -39.5 220 -118.5s82 -169.5 82 -271.5c0 -100.667 -27.167 -190.167 -81.5 -268.5
s-127.833 -117.5 -220.5 -117.5c-92 0 -165.333 39.333 -220 118s-82 168.667 -82 270zM1392 364.003c0 58.667 -5.5 111.169 -16.5 157.502s-27.167 81.666 -48.5 105.999s-47.666 36.5 -78.999 36.5c-46.667 0 -82.334 -28 -107.001 -84s-37 -128 -37 -216
c0 -88.667 12.333 -160.834 37 -216.501s60.334 -83.5 107.001 -83.5c47.333 0 83.166 27 107.499 81s36.5 127 36.5 219z" />
    <glyph glyph-name="ampersand" unicode="&#x26;" horiz-adv-x="1334" 
d="M888 838l452 0.00878906v-78c-49.333 -4 -87 -11.167 -113 -21.5s-47.333 -25.333 -64 -45s-47 -64.167 -91 -133.5l-100 -154c138 -166.667 236 -305.334 294 -416.001l-22 -28c-44.667 4.66699 -91.167 16.667 -139.5 36s-78.5 37.666 -90.5 54.999l-39 57
c-45.333 66.667 -79 112 -101 136c-66.667 -92.667 -133.334 -161.167 -200.001 -205.5s-139.334 -66.5 -218.001 -66.5c-109.333 0 -197.666 35 -264.999 105s-101 151.667 -101 245c0 71.333 20.667 136.166 62 194.499s120 124.833 236 199.5
c-102.667 84.667 -154 172 -154 262c0 86.667 31.833 160.667 95.5 222s139.167 92 226.5 92c80.667 0 148.834 -26.333 204.501 -79s83.5 -119 83.5 -199c0 -29.333 -6.83301 -57.333 -20.5 -84s-28.167 -47.334 -43.5 -62.001s-69.333 -55.334 -162 -122.001
c112.667 -88 208.667 -177.333 288 -268c23.333 31.333 46 71.166 68 119.499s33 83.166 33 104.499c0 19.333 -8.66699 32.666 -26 39.999s-48.333 12.666 -93 15.999v78zM550 800.009c89.333 56.667 134 131.999 134 225.999c0 46.667 -14 87.334 -42 122.001
s-64.667 52 -110 52c-44.667 0 -80.167 -14.333 -106.5 -43s-39.5 -67.667 -39.5 -117c0 -92 54.667 -172 164 -240zM452 660.008c-125.333 -76.667 -188 -169.333 -188 -278c0 -82 25.5 -147.167 76.5 -195.5s112.833 -72.5 185.5 -72.5c104 0 200 70 288 210
c-87.333 113.333 -208 225.333 -362 336z" />
    <glyph glyph-name="quotesingle" unicode="'" horiz-adv-x="372" 
d="M144 844c-45.333 332 -68 502 -68 510c0 36 36.667 54 110 54s110 -18 110 -54c0 -8.66699 -23.333 -178.667 -70 -510c-6.66699 -6 -20 -9 -40 -9c-20.667 0 -34.667 3 -42 9z" />
    <glyph glyph-name="parenleft" unicode="(" horiz-adv-x="714" 
d="M548 -332c-138 97.333 -242.5 221.168 -313.5 371.501s-106.5 319.166 -106.5 506.499c0 180.667 34.5 347 103.5 499s174.5 277.667 316.5 377l56 -70c-92 -70.667 -165 -180.334 -219 -329.001s-81 -307.667 -81 -477c0 -170 27 -329.667 81 -479
s127 -259.666 219 -330.999z" />
    <glyph glyph-name="parenright" unicode=")" horiz-adv-x="714" 
d="M166 1422c138 -97.333 242.5 -221.168 313.5 -371.501s106.5 -318.5 106.5 -504.5c0 -182 -34.5 -349 -103.5 -501s-174.5 -277.667 -316.5 -377l-56 68c92.667 72.667 165.834 183.334 219.501 332.001s80.5 308 80.5 478c0 172 -27.333 332.167 -82 480.5
s-127.334 256.833 -218.001 325.5z" />
    <glyph glyph-name="asterisk" unicode="*" horiz-adv-x="916" 
d="M602 1294l-68 -294l292 -4v-86l-288 -38l92 -298l-82 -30l-140 284l-268 -174l-44 78l230 196l-238 212l52 72l260 -182l114 284z" />
    <glyph glyph-name="plus" unicode="+" horiz-adv-x="1272" 
d="M114 618h448v440h150v-440h446v-130h-446v-488h-150v488h-448v130z" />
    <glyph glyph-name="comma" unicode="," horiz-adv-x="470" 
d="M74 -196c110.667 47.333 166.002 109.333 166.002 186c0 35.333 -11.667 66.5 -35 93.5s-54.333 45.833 -93 56.5c-20 4 -30 22.667 -30 56c0 28.667 10.667 52.834 32 72.501s46.666 29.5 75.999 29.5c51.333 0 99.166 -23.833 143.499 -71.5
s66.5 -107.834 66.5 -180.501c0 -75.333 -25.667 -141.5 -77 -198.5s-123 -100.167 -215 -129.5z" />
    <glyph glyph-name="hyphen" unicode="-" horiz-adv-x="692" 
d="M108 522h476v-138h-476v138z" />
    <glyph glyph-name="period" unicode="." horiz-adv-x="470" 
d="M366 116c0 -41.333 -12.668 -75 -38.001 -101s-56.666 -39 -93.999 -39c-36.667 0 -67.5 13.167 -92.5 39.5s-37.5 59.833 -37.5 100.5c0 41.333 12.5 75 37.5 101s55.833 39 92.5 39c38 0 69.5 -13.167 94.5 -39.5s37.5 -59.833 37.5 -100.5z" />
    <glyph glyph-name="slash" unicode="/" horiz-adv-x="636" 
d="M34 -92l408 1406h156l-408 -1406h-156z" />
    <glyph glyph-name="zero" unicode="0" horiz-adv-x="944" 
d="M72 624c0 188 34.833 342.669 104.5 464.002s168.167 182 295.5 182c126.667 0 224.667 -60.833 294 -182.5s104 -276.834 104 -465.501c0 -188 -34.833 -342.667 -104.5 -464s-167.5 -182 -293.5 -182c-127.333 0 -225.833 60.667 -295.5 182
s-104.5 276.666 -104.5 465.999zM688 624.002c0 177.333 -18.167 313.334 -54.5 408.001s-89.5 142 -159.5 142c-70.667 0 -124.334 -47.333 -161.001 -142s-55 -230.667 -55 -408c0 -178 18.333 -314.5 55 -409.5s90.334 -142.5 161.001 -142.5
c70 0 123.167 47.667 159.5 143s54.5 231.666 54.5 408.999z" />
    <glyph glyph-name="one" unicode="1" horiz-adv-x="944" 
d="M398 234l0.00195312 762.002c0 47.333 -5.83301 74.166 -17.5 80.499s-66.5 10.833 -164.5 13.5v76c107.333 20 224.666 54.667 351.999 104v-1036c0 -68.667 8.66699 -110.334 26 -125.001s68.666 -25 153.999 -31v-78h-528v78c82.667 6 133 15 151 27s27 55 27 129z
" />
    <glyph glyph-name="two" unicode="2" horiz-adv-x="944" 
d="M790 0l-724.002 -0.000976562v60c133.333 131.333 257.333 272 372 422s172 281.333 172 394c0 80 -18 142.333 -54 187s-86 67 -150 67c-93.333 0 -175.333 -60 -246 -180l-70 56l105 145c18.667 25.333 41.834 47 69.501 65s58.334 31.5 92.001 40.5
s68.167 13.5 103.5 13.5c94 0 171.5 -30.667 232.5 -92s91.5 -141.333 91.5 -240c0 -81.333 -18.5 -158.666 -55.5 -231.999s-94.167 -155.333 -171.5 -246l-259 -302h302c52.667 0 89 7 109 21s41.667 49.667 65 107l84 -20c-23.333 -96 -46 -184.667 -68 -266z" />
    <glyph glyph-name="three" unicode="3" horiz-adv-x="944" 
d="M128 1042l74.999 110.001c12 16.667 31.833 35 59.5 55s58.5 35.5 92.5 46.5s69 16.5 105 16.5c88 0 158.667 -24 212 -72s80 -109.333 80 -184c0 -46 -15.667 -86.833 -47 -122.5s-81 -72.167 -149 -109.5v-4c86 -16.667 153.5 -55.167 202.5 -115.5
s73.5 -130.5 73.5 -210.5c0 -90.667 -27.333 -172.167 -82 -244.5s-126.334 -129 -215.001 -170s-165 -61.5 -229 -61.5c-48 0 -96.667 11.833 -146 35.5s-74 50.5 -74 80.5c0 19.333 11 42.5 33 69.5s42 40.5 60 40.5c10.667 0 20.334 -4 29.001 -12
c39.333 -36 75.333 -59.667 108 -71s66 -17 100 -17c62.667 0 117.334 27 164.001 81s70 127.667 70 221c0 89.333 -23.833 155.666 -71.5 198.999s-104.5 65 -170.5 65c-46 0 -92.667 -10 -140 -30l-24 78c221.333 71.333 332 160.666 332 267.999
c0 52.667 -14.833 93.834 -44.5 123.501s-70.167 44.5 -121.5 44.5c-81.333 0 -152 -54.667 -212 -164z" />
    <glyph glyph-name="four" unicode="4" horiz-adv-x="944" 
d="M704 1256l-0.000976562 -798h184v-106h-184v-130c0 -69.333 8.5 -109.5 25.5 -120.5s63.167 -18.833 138.5 -23.5v-78h-512v78c86 5.33301 137.5 14.5 154.5 27.5s25.5 51.833 25.5 116.5v130h-492v64c242.667 394.667 425.334 674.667 548.001 840h112zM535.999 458v556
h-4c-139.333 -220 -248 -405.333 -326 -556h330z" />
    <glyph glyph-name="five" unicode="5" horiz-adv-x="944" 
d="M242 1246l543.998 0.000976562l16 -20l-48 -138h-424l-40 -298c69.333 22.667 127.333 34 174 34c116 0 208.333 -34.833 277 -104.5s103 -154.834 103 -255.501c0 -134 -57.167 -248.833 -171.5 -344.5s-231.833 -143.5 -352.5 -143.5
c-56.667 0 -108.167 12.167 -154.5 36.5s-69.5 50.833 -69.5 79.5c0 17.333 10.667 40.333 32 69s42.333 43 63 43c8.66699 0 16.334 -3.33301 23.001 -10c64.667 -61.333 137.334 -92 218.001 -92c68.667 0 125.5 27 170.5 81s67.5 120.333 67.5 199
c0 98.667 -26.833 175.667 -80.5 231s-134.167 83 -241.5 83c-60 0 -118.667 -10 -176 -30z" />
    <glyph glyph-name="six" unicode="6" horiz-adv-x="944" 
d="M820 1286l11.999 -87.999c-302.667 -60.667 -485.334 -216 -548.001 -466c102.667 48 163.834 74.333 183.501 79s38.5 7 56.5 7c100 0 182.667 -37.167 248 -111.5s98 -167.833 98 -280.5c0 -126.667 -37.833 -233.334 -113.5 -320.001s-171.167 -130 -286.5 -130
s-210.833 45.667 -286.5 137s-113.5 212.333 -113.5 363c0 206 62.333 382 187 528s312.334 240 563.001 282zM449.999 692.001c-62.667 0 -123.333 -17.333 -182 -52c-8 -32 -12 -84 -12 -156c0 -126.667 22.833 -227 68.5 -301s105.5 -111 179.5 -111
c125.333 0 188 94.667 188 284c0 98 -21.667 178.5 -65 241.5s-102.333 94.5 -177 94.5z" />
    <glyph glyph-name="seven" unicode="7" horiz-adv-x="944" 
d="M130 1246h731.999l22 -30c-61.333 -124 -234 -530.667 -518 -1220l-180 -20l-18 28c162.667 276 340.667 637.333 534 1084h-356c-61.333 0 -99.666 -6.5 -114.999 -19.5s-32.333 -49.833 -51 -110.5h-86z" />
    <glyph glyph-name="eight" unicode="8" horiz-adv-x="944" 
d="M338 646c-137.333 70 -205.999 167.333 -205.999 292c0 88 33.667 165.333 101 232s151.666 100 252.999 100c94 0 171.5 -29 232.5 -87s91.5 -129 91.5 -213c0 -36.667 -9.33301 -74.334 -28 -113.001s-75.334 -91 -170.001 -157c90.667 -52 155 -106 193 -162
s57 -120.667 57 -194c0 -107.333 -40.5 -195.5 -121.5 -264.5s-171.833 -103.5 -272.5 -103.5c-110.667 0 -202 31.167 -274 93.5s-108 143.833 -108 244.5c0 54.667 14.333 106.334 43 155.001s98.334 107.667 209.001 177zM530.001 740c80 53.333 120.001 126 120.001 218
c0 65.333 -17.833 117.666 -53.5 156.999s-79.834 59 -132.501 59c-52 0 -93.333 -17.167 -124 -51.5s-46 -76.5 -46 -126.5c0 -109.333 78.667 -194.666 236 -255.999zM420.002 606c-110.667 -68.667 -166 -158.669 -166 -270.002c0 -82 22.667 -146.5 68 -193.5
s101.333 -70.5 168 -70.5c62 0 111.5 19.833 148.5 59.5s55.5 93.834 55.5 162.501c0 64 -21.333 120.833 -64 170.5s-112.667 96.834 -210 141.501z" />
    <glyph glyph-name="nine" unicode="9" horiz-adv-x="944" 
d="M668 552c-118 -53.333 -183.832 -81.6641 -197.499 -84.9971s-26.5 -5 -38.5 -5c-101.333 0 -185 35.5 -251 106.5s-99 160.833 -99 269.5c0 112 37.167 212 111.5 300s168.5 132 282.5 132c117.333 0 211.666 -46.833 282.999 -140.5s107 -212.167 107 -355.5
c0 -178.667 -41.333 -331.834 -124 -459.501s-184.167 -216.334 -304.5 -266.001s-222.166 -74.5 -305.499 -74.5l-10 82c140 18.667 258.167 71.667 354.5 159s160.166 199.666 191.499 336.999zM676.001 654.002c5.33301 36.667 8 78 8 124c0 122.667 -20 219.667 -60 291
s-98.667 107 -176 107c-60 0 -106.333 -25.5 -139 -76.5s-49 -116.833 -49 -197.5c0 -90.667 22.667 -165.667 68 -225s104 -89 176 -89c58 0 115.333 22 172 66z" />
    <glyph glyph-name="colon" unicode=":" horiz-adv-x="470" 
d="M104 752c0 39.333 12.501 72.166 37.501 98.499s55.833 39.5 92.5 39.5c37.333 0 68.666 -13.167 93.999 -39.5s38 -59.166 38 -98.499c0 -42.667 -12.5 -77 -37.5 -103s-56.5 -39 -94.5 -39c-37.333 0 -68.333 13.167 -93 39.5s-37 60.5 -37 102.5zM368.001 116
c0 -40.667 -12.499 -74.167 -37.499 -100.5s-56.5 -39.5 -94.5 -39.5c-36.667 0 -67.5 13.167 -92.5 39.5s-37.5 59.833 -37.5 100.5s12.5 74.167 37.5 100.5s55.833 39.5 92.5 39.5c37.333 0 68.666 -13.333 93.999 -40s38 -60 38 -100z" />
    <glyph glyph-name="semicolon" unicode=";" horiz-adv-x="470" 
d="M108 750c0 40 12.501 73.333 37.501 100s55.833 40 92.5 40c37.333 0 68.666 -13.333 93.999 -40s38 -60 38 -100c0 -40.667 -12.5 -74.167 -37.5 -100.5s-56.5 -39.5 -94.5 -39.5c-36.667 0 -67.5 13.167 -92.5 39.5s-37.5 59.833 -37.5 100.5zM74.001 -198
c110.667 45.333 166.003 106.666 166.003 183.999c0 36.667 -11.667 68.5 -35 95.5s-54.333 45.833 -93 56.5c-20 6.66699 -30 25.334 -30 56.001c0 28.667 10.667 52.834 32 72.501s46.666 29.5 75.999 29.5c51.333 0 99.166 -23.833 143.499 -71.5
s66.5 -107.834 66.5 -180.501c0 -75.333 -25.833 -141.5 -77.5 -198.5s-123.834 -100.167 -216.501 -129.5z" />
    <glyph glyph-name="less" unicode="&#x3c;" horiz-adv-x="1272" 
d="M136 494v114l1000 494v-142l-848 -406v-6l848 -406v-142z" />
    <glyph glyph-name="equal" unicode="=" horiz-adv-x="1272" 
d="M114 816h1044v-130h-1044v130zM114 420h1044v-130h-1044v130z" />
    <glyph glyph-name="greater" unicode="&#x3e;" horiz-adv-x="1272" 
d="M1136 608v-114l-1000 -494v142l848 406v6l-848 406v142z" />
    <glyph glyph-name="question" unicode="?" horiz-adv-x="664" 
d="M328 376c-52 28 -97.667 66.499 -137 115.499s-59 96.5 -59 142.5c0 41.333 11.833 79.5 35.5 114.5s63.834 75.5 120.501 121.5c66 53.333 108.5 93.833 127.5 121.5s28.5 53.167 28.5 76.5c0 29.333 -8.83301 53 -26.5 71s-40.167 27 -67.5 27
c-52 0 -106.333 -21.667 -163 -65c-16 -12.667 -26.333 -19 -31 -19c-12.667 0 -28.834 11.167 -48.501 33.5s-29.5 44.5 -29.5 66.5c0 32.667 25.5 62.834 76.5 90.501s91.5 41.5 121.5 41.5c78 0 148.5 -32.667 211.5 -98s94.5 -139.333 94.5 -222
c0 -68 -29.333 -129.333 -88 -184c-129.333 -120.667 -194 -196.667 -194 -228c0 -44 27.333 -90 82 -138zM440 115.999c0 -40.667 -12.499 -74.167 -37.499 -100.5s-56.5 -39.5 -94.5 -39.5c-36.667 0 -67.5 13.167 -92.5 39.5s-37.5 59.833 -37.5 100.5
c0 39.333 12.5 72.166 37.5 98.499s55.833 39.5 92.5 39.5c37.333 0 68.666 -13.167 93.999 -39.5s38 -59.166 38 -98.499z" />
    <glyph glyph-name="at" unicode="@" horiz-adv-x="1454" 
d="M1034 146l31.9971 -84.001c-105.333 -58.667 -229.333 -88 -372 -88c-179.333 0 -325.166 53 -437.499 159s-168.5 251 -168.5 435c0 216.667 75.333 395.167 226 535.5s326.667 210.5 528 210.5c162 0 292.167 -49.333 390.5 -148s147.5 -220 147.5 -364
c0 -136 -43.5 -252 -130.5 -348s-195.5 -144 -325.5 -144c-64 0 -96 26.667 -96 80c0 16.667 11.333 76 34 178l-4 2c-40.667 -60 -97.167 -118.333 -169.5 -175s-126.5 -85 -162.5 -85c-25.333 0 -46.666 14 -63.999 42s-26 66.667 -26 116c0 78.667 21.333 163 64 253
s102 159 178 207s152.667 72 230 72c12 0 33.667 -4 65 -12c38 -9.33301 73 -14 105 -14c-14.667 -46.667 -36.5 -138.167 -65.5 -274.5s-43.5 -219.5 -43.5 -249.5c0 -26.667 12 -40 36 -40c57.333 0 113.833 36.5 169.5 109.5s83.5 168.5 83.5 286.5
c0 124.667 -38.833 223.5 -116.5 296.5s-179.5 109.5 -305.5 109.5c-172 0 -312.333 -57.167 -421 -171.5s-163 -261.166 -163 -440.499c0 -159.333 43.333 -284.833 130 -376.5s213.334 -137.5 380.001 -137.5c105.333 0 196 20 272 60zM925.997 887.999
c-23.333 13.333 -58.6689 19.998 -106.002 19.998c-59.333 0 -112.166 -47.667 -158.499 -143s-69.5 -175.666 -69.5 -240.999c0 -48 12.667 -72 38 -72c7.33301 0 19 4.5 35 13.5s35.333 23.5 58 43.5s50.334 49.5 83.001 88.5s54.5 72.833 65.5 101.5
s21.333 60.334 31 95.001s17.5 66 23.5 94z" />
    <glyph glyph-name="A" unicode="A" horiz-adv-x="1318" 
d="M822 430l-384 -0.00292969c-56 -168 -84 -266.333 -84 -295c0 -20.667 9.83301 -34.334 29.5 -41.001s54.5 -12 104.5 -16v-78h-438v78c56.667 4.66699 96.5 14.834 119.5 30.501s51.167 68.834 84.5 159.501l372 1022l84 24l212 -642
c74.667 -222.667 125.5 -368.667 152.5 -438s51.5 -111.666 73.5 -126.999s62 -25 120 -29v-78h-468v78c42 4 73 9 93 15s30 17.667 30 35c0 11.333 -11.333 51.833 -34 121.5s-45 129.834 -67 180.501zM472 537.997h316l-152 488h-4z" />
    <glyph glyph-name="B" unicode="B" horiz-adv-x="1160" 
d="M258 258v772.002c0 79.333 -8 127.833 -24 145.5s-61.333 29.167 -136 34.5v78h500c262.667 0 394 -96 394 -288c0 -68.667 -22.167 -127.834 -66.5 -177.501s-103.5 -85.167 -177.5 -106.5v-4c100 -16 179 -53.833 237 -113.5s87 -133.167 87 -220.5
c0 -81.333 -22.167 -150.333 -66.5 -207s-105.333 -99.334 -183 -128.001s-179.834 -43 -306.501 -43h-432v76c80.667 5.33301 129.834 17 147.501 35s26.5 67 26.5 147zM428 1134v-393.999h102c182.667 0 274 79.333 274 238c0 146.667 -86.667 220 -260 220
c-33.333 0 -58.833 -1.83301 -76.5 -5.5s-28.667 -8.83398 -33 -15.501s-6.5 -21 -6.5 -43zM428 652.003l-0.000976562 -400c0 -68.667 11 -112.834 33 -132.501s61 -29.5 117 -29.5c94.667 0 167.334 22.667 218.001 68s76 112 76 200
c0 94.667 -30.333 167.334 -91 218.001s-145.667 76 -255 76h-98z" />
    <glyph glyph-name="C" unicode="C" horiz-adv-x="1208" 
d="M1114 950l-86 -12c-35.333 186.667 -134 280 -296 280c-132 0 -236.333 -50.167 -313 -150.5s-115 -233.5 -115 -399.5c0 -182 39.5 -327.5 118.5 -436.5s180.833 -163.5 305.5 -163.5c79.333 0 143.833 22.667 193.5 68s97.834 124 144.501 236l86 -20
c-45.333 -178.667 -76.666 -288 -93.999 -328c-112.667 -33.333 -219.334 -50 -320.001 -50c-200 0 -356.667 61.833 -470 185.5s-170 279.167 -170 466.5c0 202.667 63.833 368 191.5 496s289.834 192 486.501 192c99.333 0 200.666 -14.667 303.999 -44
c13.333 -95.333 24.666 -202 33.999 -320z" />
    <glyph glyph-name="D" unicode="D" horiz-adv-x="1368" 
d="M256 256v774.001c0 79.333 -8.33301 127.833 -25 145.5s-62.334 29.167 -137.001 34.5v78h486c244.667 0 420.834 -56.667 528.501 -170s161.5 -255.333 161.5 -426c0 -220 -67.5 -390.333 -202.5 -511s-327.5 -181 -577.5 -181h-410v76c82 6 131.833 17.667 149.5 35
s26.5 65.666 26.5 144.999zM432 1124v-854c0 -73.333 11.333 -120 34 -140s65.334 -30 128.001 -30c151.333 0 268.166 48.833 350.499 146.5s123.5 233.5 123.5 407.5c0 362.667 -167.333 544 -502 544c-68.667 0 -108.167 -4.5 -118.5 -13.5s-15.5 -29.167 -15.5 -60.5z
" />
    <glyph glyph-name="E" unicode="E" horiz-adv-x="1124" 
d="M258 258l0.00292969 774c0 56.667 -3.33301 96 -10 118s-20.334 36.667 -41.001 44s-58.334 13.333 -113.001 18v76h864c12.667 -176 20 -274.667 22 -296l-86 -10c-18 85.333 -40.333 142 -67 170s-87 42 -181 42h-152c-33.333 0 -51.666 -4 -54.999 -12
s-5 -24.667 -5 -50v-412h174c58 0 98 2.66699 120 8s36.667 16.333 44 33s14.666 49 21.999 97h86v-388h-86c-8.66699 52 -17.167 87.167 -25.5 105.5s-23.166 30.333 -44.499 36s-60 8.5 -116 8.5h-174v-348c0 -56 6 -97 18 -123s32.833 -42 62.5 -48s80.834 -9 153.501 -9
c53.333 0 95.666 2.33301 126.999 7s56.166 13.5 74.499 26.5s38.833 38.833 61.5 77.5s41.667 83 57 133l84 -14c-26 -152 -48 -259.333 -66 -322h-928v78c61.333 4.66699 103.166 10.5 125.499 17.5s37 21.5 44 43.5s10.5 61.667 10.5 119z" />
    <glyph glyph-name="F" unicode="F" horiz-adv-x="1046" 
d="M258 254v780.001c0 78 -8.33301 125.667 -25 143s-63 29 -139 35v76h856c9.33301 -136 16.666 -236 21.999 -300l-84 -8c-19.333 93.333 -44 152.666 -74 177.999s-88.667 38 -176 38h-142c-29.333 0 -47 -3 -53 -9s-9 -23.667 -9 -53v-436h190
c58 0 97.833 2.66699 119.5 8s36.334 16.333 44.001 33s15.167 49 22.5 97h86v-392h-86c-7.33301 53.333 -14.833 89.333 -22.5 108s-22.334 31 -44.001 37s-61.5 9 -119.5 9h-190v-344c0 -56 4 -94.667 12 -116s24.333 -35.5 49 -42.5s70.334 -12.833 137.001 -17.5v-78
h-538v78c76 5.33301 122.333 16.5 139 33.5s25 64.5 25 142.5z" />
    <glyph glyph-name="G" unicode="G" horiz-adv-x="1294" 
d="M1128 400l0.000976562 -167.999c0 -81.333 3.33301 -144 10 -188c-152 -46.667 -276.667 -70 -374 -70c-198.667 0 -359 60 -481 180s-183 278.667 -183 476c0 137.333 29.167 257.666 87.5 360.999s140.333 183 246 239s221.167 84 346.5 84
c110.667 0 218 -14.667 322 -44c11.333 -137.333 22 -243.333 32 -318l-86 -8c-14 87.333 -44 155.166 -90 203.499s-117.333 72.5 -214 72.5c-130.667 0 -236.334 -49.333 -317.001 -148s-121 -235.334 -121 -410.001c0 -177.333 41.167 -320.666 123.5 -429.999
s197.833 -164 346.5 -164c48.667 0 86.5 3.66699 113.5 11s44.167 18.833 51.5 34.5s11 43.834 11 84.501v178c0 46.667 -3.5 78.667 -10.5 96s-23.5 29.5 -49.5 36.5s-74.667 13.5 -146 19.5v78h494v-78c-53.333 -8 -85.333 -17.833 -96 -29.5s-16 -44.5 -16 -98.5z" />
    <glyph glyph-name="H" unicode="H" horiz-adv-x="1442" 
d="M428 732h573.997v298c0 79.333 -8.16699 127.833 -24.5 145.5s-61.5 29.167 -135.5 34.5v78h506v-78c-78.667 -5.33301 -126.667 -16.833 -144 -34.5s-26 -66.167 -26 -145.5v-772c0 -79.333 8.5 -127.833 25.5 -145.5s64.5 -29.167 142.5 -34.5v-78h-518v78
c58.667 3.33301 98.834 8.83301 120.501 16.5s36 22.5 43 44.5s10.5 61.667 10.5 119v368h-574v-368c0 -57.333 3.33301 -97 10 -119s20.334 -36.833 41.001 -44.5s58.334 -13.167 113.001 -16.5v-78h-508v78c56 3.33301 94.667 8.83301 116 16.5s35.333 22.5 42 44.5
s10 61.667 10 119v772c0 79.333 -8.83301 127.833 -26.5 145.5s-67.5 29.167 -149.5 34.5v78h508v-78c-72 -5.33301 -116 -16.833 -132 -34.5s-24 -66.167 -24 -145.5v-298z" />
    <glyph glyph-name="I" unicode="I" horiz-adv-x="692" 
d="M258 258l-0.00390625 772c0 79.333 -8.66699 127.833 -26 145.5s-65.333 29.167 -144 34.5v78h516v-78c-78.667 -5.33301 -126.667 -16.833 -144 -34.5s-26 -66.167 -26 -145.5v-772c0 -57.333 3.33301 -97 10 -119s20.834 -36.833 42.501 -44.5
s60.834 -13.167 117.501 -16.5v-78h-516v78c56.667 3.33301 95.834 8.83301 117.501 16.5s35.834 22.5 42.501 44.5s10 61.667 10 119z" />
    <glyph glyph-name="J" unicode="J" horiz-adv-x="682" 
d="M268 336l0.000976562 694.001c0 79.333 -8.83301 127.833 -26.5 145.5s-67.5 29.167 -149.5 34.5v78h514v-78c-74.667 -5.33301 -120.334 -16.833 -137.001 -34.5s-25 -66.167 -25 -145.5v-778c0 -94.667 -6.16699 -174.834 -18.5 -240.501s-36 -123.5 -71 -173.5
s-78.667 -89.5 -131 -118.5s-100.833 -48.833 -145.5 -59.5l-30 82c90.667 36.667 150 95 178 175s42 219.667 42 419z" />
    <glyph glyph-name="K" unicode="K" horiz-adv-x="1316" 
d="M258 254l0.00292969 777.999c0 56 -3.5 95.167 -10.5 117.5s-21.333 37.166 -43 44.499s-61.167 12.666 -118.5 15.999v78h510v-78c-76 -5.33301 -122.333 -16.666 -139 -33.999s-25 -65.333 -25 -144v-324c28.667 4 58.334 17.5 89.001 40.5s77.667 72 141 147
s112.666 136.833 147.999 185.5s53 79.334 53 92.001c0 7.33301 -3.83301 14 -11.5 20s-36.834 11.667 -87.501 17v78h480v-78c-60.667 -4 -109.334 -14.167 -146.001 -30.5s-68.167 -36.666 -94.5 -60.999s-83 -82.833 -170 -175.5s-148.833 -161 -185.5 -205
c62 -92 142.167 -201 240.5 -327s163 -205.5 194 -238.5s59.833 -56.333 86.5 -70s59.667 -21.834 99 -24.501v-78h-298c-38.667 44.667 -123 157.334 -253 338.001c-104 144.667 -166.5 229.5 -187.5 254.5s-53.5 37.5 -97.5 37.5v-376c0 -78 8.66699 -125.5 26 -142.5
s66.666 -28.167 147.999 -33.5v-78h-508v78c74 5.33301 119.167 16.5 135.5 33.5s24.5 64.5 24.5 142.5z" />
    <glyph glyph-name="L" unicode="L" horiz-adv-x="1072" 
d="M258 256l0.000976562 774.002c0 79.333 -8.83301 127.833 -26.5 145.5s-66.834 29.167 -147.501 34.5v78h526v-78c-82 -5.33301 -131.833 -16.833 -149.5 -34.5s-26.5 -66.167 -26.5 -145.5v-760c0 -84.667 14 -135.5 42 -152.5s88 -25.5 180 -25.5
c54.667 0 98.334 4.66699 131.001 14s61.5 32.666 86.5 69.999s47.833 91.333 68.5 162l86 -12c-23.333 -146 -45.333 -254.667 -66 -326h-878v76c81.333 6 130.666 17.667 147.999 35s26 65.666 26 144.999z" />
    <glyph glyph-name="M" unicode="M" horiz-adv-x="1682" 
d="M112 1288l360.004 0.000976562l362 -958l394 958h364v-78c-60 -4.66699 -100.333 -10.667 -121 -18s-33.334 -21.333 -38.001 -42s-7 -67.334 -7 -140.001l12 -720c1.33301 -72 5.16602 -120.5 11.499 -145.5s19.5 -41.167 39.5 -48.5s60.333 -13.333 121 -18v-78h-516
v78c62 4.66699 103 10.667 123 18s32.833 23.333 38.5 48s8.5 73.334 8.5 146.001v820h-6l-432 -1088h-70l-372 1072h-4c-16.667 -483.333 -25 -750.333 -25 -801c0 -76.667 4.16699 -126.5 12.5 -149.5s24.666 -39 48.999 -48s63.5 -14.833 117.5 -17.5v-78h-472v78
c69.333 3.33301 114.166 18.5 134.499 45.5s39.333 185.167 57 474.5s26.5 451.666 26.5 486.999c0 60 -12.5 95 -37.5 105s-68.5 16.667 -130.5 20v78z" />
    <glyph glyph-name="N" unicode="N" horiz-adv-x="1390" 
d="M254 510l0.00292969 421.999c0 92 -3.33301 152.167 -10 180.5s-24.834 50.833 -54.501 67.5s-74.834 26.667 -135.501 30v78h300l684 -964h6v448c0 227.333 -11.333 356.166 -34 386.499s-77.334 47.5 -164.001 51.5v78h488v-78c-90 -2 -142.167 -25.667 -156.5 -71
s-21.5 -167.666 -21.5 -366.999v-786h-98l-686 986h-6v-462c0 -197.333 7.33301 -318.166 22 -362.499s74 -67.5 178 -69.5v-78h-484v78c86.667 1.33301 137 24.833 151 70.5s21 166.167 21 361.5z" />
    <glyph glyph-name="O" unicode="O" horiz-adv-x="1354" 
d="M100 632c0 187.333 54.501 347.833 163.501 481.5s252.5 200.5 430.5 200.5c156 0 288.333 -61.333 397 -184s163 -278.667 163 -468c0 -206.667 -54.833 -373 -164.5 -499s-249.5 -189 -419.5 -189c-164.667 0 -300.834 62.167 -408.501 186.5
s-161.5 281.5 -161.5 471.5zM1048 592c0 206.667 -34.166 363 -102.499 469s-165.5 159 -291.5 159c-106 0 -189.833 -46.5 -251.5 -139.5s-92.5 -224.5 -92.5 -394.5c0 -188 35.167 -338 105.5 -450s167.166 -168 290.499 -168c110 0 194.5 44.667 253.5 134
s88.5 219.333 88.5 390z" />
    <glyph glyph-name="P" unicode="P" horiz-adv-x="1108" 
d="M258 258l-0.00195312 771.999c0 58.667 -2.66699 98.667 -8 120s-18 35.833 -38 43.5s-58 13.167 -114 16.5v78h482c152 0 264 -32 336 -96s108 -152.667 108 -266c0 -127.333 -41.833 -229.166 -125.5 -305.499s-194.5 -114.5 -332.5 -114.5l-134 32v-280
c0 -79.333 10 -127.833 30 -145.5s76 -29.167 168 -34.5v-78h-542v78c56.667 3.33301 95.834 8.83301 117.501 16.5s35.834 22.5 42.501 44.5s10 61.667 10 119zM431.998 1132l-0.000976562 -489.999c44.667 -21.333 91.334 -32 140.001 -32
c76.667 0 138.5 25.833 185.5 77.5s70.5 127.167 70.5 226.5c0 189.333 -94.667 284 -284 284c-51.333 0 -82.833 -3.83301 -94.5 -11.5s-17.5 -25.834 -17.5 -54.501z" />
    <glyph glyph-name="Q" unicode="Q" horiz-adv-x="1354" 
d="M1340 -260l-16.002 -61.999c-140 11.333 -234.5 26.333 -283.5 45s-110 50.167 -183 94.5s-152.167 97.166 -237.5 158.499c-68.667 0 -144.167 25 -226.5 75s-151.833 125.833 -208.5 227.5s-85 219.5 -85 353.5c0 187.333 54.333 347.833 163 481.5
s252.334 200.5 431.001 200.5c155.333 0 287.5 -61.667 396.5 -185s163.5 -279 163.5 -467c0 -162.667 -34.167 -301.167 -102.5 -415.5s-164.166 -193.833 -287.499 -238.5c135.333 -106.667 294 -196 476 -268zM629.998 72.001l96 40l52 -38
c178.667 44 268 216.667 268 518c0 202.667 -34.5 358 -103.5 466s-166.5 162 -292.5 162c-104 0 -187 -46.667 -249 -140s-93 -224.666 -93 -393.999c0 -170.667 28.333 -310.334 85 -419.001s135.667 -173.667 237 -195z" />
    <glyph glyph-name="R" unicode="R" horiz-adv-x="1256" 
d="M258 256l0.00488281 773.997c0 56.667 -3.33301 96 -10 118s-20.334 36.667 -41.001 44s-58.334 13.333 -113.001 18v78h482c288 0 432 -109.333 432 -328c0 -155.333 -77.333 -270.666 -232 -345.999c136.667 -234 235.167 -383.833 295.5 -449.5
s113.833 -103.167 160.5 -112.5l-8 -68c-99.333 0 -175.333 11.667 -228 35s-102.834 67.833 -150.501 133.5s-114.834 178.167 -201.501 337.5c-22.667 44 -66.667 66 -132 66h-80v-300c0 -56 3.5 -95.167 10.5 -117.5s21.167 -37.166 42.5 -44.499
s60.333 -12.666 117 -15.999v-78h-518v78c81.333 5.33301 130.666 16.5 147.999 33.5s26 65.167 26 144.5zM432.005 1128l0.000976562 -482.001h94c70 0 125 10.167 165 30.5s71.5 53.333 94.5 99s34.5 96.5 34.5 152.5c0 86.667 -25.333 153.334 -76 200.001
s-117.334 70 -200.001 70c-24.667 0 -46 -1.5 -64 -4.5s-30.5 -7.5 -37.5 -13.5s-10.5 -23.333 -10.5 -52z" />
    <glyph glyph-name="S" unicode="S" horiz-adv-x="974" 
d="M90 360l83.9971 14c64.667 -204 170.667 -306 318 -306c68.667 0 122.834 19.833 162.501 59.5s59.5 94.5 59.5 164.5c0 58.667 -16.333 110.167 -49 154.5s-97 90.166 -193 137.499c-128 62.667 -214.333 124 -259 184s-67 123.333 -67 190
c0 101.333 36.833 186 110.5 254s170.167 102 289.5 102c76.667 0 160.667 -16 252 -48l38 -282l-86 -12c-23.333 92.667 -54 156.834 -92 192.501s-87.333 53.5 -148 53.5s-108.5 -17.833 -143.5 -53.5s-52.5 -82.5 -52.5 -140.5c0 -62 19.333 -112.833 58 -152.5
s98.667 -78.167 180 -115.5c132.667 -60.667 221.5 -122.667 266.5 -186s67.5 -133.333 67.5 -210c0 -112.667 -40.667 -205.167 -122 -277.5s-184.666 -108.5 -309.999 -108.5c-94 0 -196 22.667 -306 68c-9.33301 30.667 -28.666 136.667 -57.999 318z" />
    <glyph glyph-name="T" unicode="T" horiz-adv-x="1192" 
d="M506 276l0.00390625 918.001h-92c-90.667 0 -150.334 -12.833 -179.001 -38.5s-53.667 -85.5 -75 -179.5h-84l22 362h52c19.333 -33.333 52.666 -50 99.999 -50h700c22.667 0 39.5 2.83301 50.5 8.5s24.833 19.5 41.5 41.5h52c1.33301 -72.667 8 -191.334 20 -356.001
l-86 -6c-17.333 96 -40.5 156.333 -69.5 181s-86.5 37 -172.5 37h-104v-918c0 -63.333 3.83301 -107.166 11.5 -131.499s24.167 -40.666 49.5 -48.999s71.666 -14.166 138.999 -17.499v-78h-568v78c64.667 3.33301 109.167 9.16602 133.5 17.499
s40.166 24.666 47.499 48.999s11 68.166 11 131.499z" />
    <glyph glyph-name="U" unicode="U" horiz-adv-x="1398" 
d="M242 506l0.000976562 527.998c0 77.333 -8.83301 125 -26.5 143s-66.834 29 -147.501 33v78h516v-78c-76.667 -5.33301 -123.5 -16.666 -140.5 -33.999s-25.5 -64.666 -25.5 -141.999v-458c0 -105.333 10.5 -193 31.5 -263s54.167 -123 99.5 -159s109 -54 191 -54
c114 0 196.5 45.5 247.5 136.5s76.5 227.5 76.5 409.5v118c0 222.667 -8.33301 352 -25 388s-75 55.333 -175 58v78h490v-78c-91.333 0 -143.833 -23.667 -157.5 -71s-20.5 -172.333 -20.5 -375v-152c0 -244 -46.667 -411.333 -140 -502s-205.333 -136 -336 -136
c-150.667 0 -264.667 41.333 -342 124s-116 218.667 -116 408z" />
    <glyph glyph-name="V" unicode="V" horiz-adv-x="1356" 
d="M704 -8l-96 0.00195312l-284 824c-52 147.333 -84.5 238.166 -97.5 272.499s-25.833 59.166 -38.5 74.499s-28.667 26.166 -48 32.499s-49.333 11.166 -90 14.499v78h478v-78c-44 -4 -77.167 -9 -99.5 -15s-33.5 -18 -33.5 -36c0 -6 6.66699 -29.333 20 -70l103 -309
l176 -500h4c101.333 266 176.333 473.667 225 623s73 233 73 251c0 20.667 -11.333 34.334 -34 41.001s-58.667 11.667 -108 15v78h452v-78c-44.667 -3.33301 -78 -8.83301 -100 -16.5s-41.167 -22.167 -57.5 -43.5s-42.5 -79.666 -78.5 -174.999l-166 -435z" />
    <glyph glyph-name="W" unicode="W" horiz-adv-x="1848" 
d="M612 -8l-94.001 -0.000976562l-169 632c-78.667 288 -122.667 447.667 -132 479s-23.166 55.833 -41.499 73.5s-60.166 28.834 -125.499 33.501v78h480v-78c-46.667 -4 -81.5 -9.16699 -104.5 -15.5s-34.5 -19.833 -34.5 -40.5c0 -10.667 28 -124 84 -340l129 -508h4
c73.333 250.667 172.666 571.334 297.999 962.001h90c124 -409.333 218 -729.333 282 -960h4c38.667 129.333 83.5 292.333 134.5 489s76.5 312.334 76.5 347.001c0 24 -10 39.667 -30 47s-54.333 13.666 -103 18.999v78h438v-78c-57.333 -6 -95.833 -14.333 -115.5 -25
s-37.167 -34.834 -52.5 -72.501s-54.333 -159.5 -117 -365.5l-217 -755h-94l-286 954h-4z" />
    <glyph glyph-name="X" unicode="X" horiz-adv-x="1270" 
d="M64 1288l488 0.00195312v-78c-37.333 -4 -63.833 -8.66699 -79.5 -14s-23.5 -14.333 -23.5 -27c0 -10.667 18.5 -49.334 55.5 -116.001s86.167 -146.334 147.5 -239.001c122.667 206 184 323 184 351c0 14.667 -7.5 25.167 -22.5 31.5s-39.5 10.833 -73.5 13.5v78h442
v-78c-67.333 -6 -115 -15.667 -143 -29s-67 -55 -117 -125s-121.333 -181.333 -214 -334c198.667 -334.667 315.667 -524.5 351 -569.5s101 -69.833 197 -74.5v-78h-512v78c37.333 3.33301 64.833 7.83301 82.5 13.5s26.5 14.834 26.5 27.501c0 8.66699 -12.333 36 -37 82
l-210 349c-39.333 -62.667 -85.333 -141.167 -138 -235.5s-82.167 -148.666 -88.5 -162.999s-9.5 -24.833 -9.5 -31.5c0 -12.667 8.33301 -22 25 -28s43 -10.667 79 -14v-78h-444v78c88.667 5.33301 149 26.166 181 62.499s144.333 207.5 337 513.5
c-171.333 287.333 -271.333 450.666 -300 489.999s-90 61.333 -184 66v78z" />
    <glyph glyph-name="Y" unicode="Y" horiz-adv-x="1226" 
d="M518 254l-0.000976562 251.994c0 32 -6.66699 61.333 -20 88l-147 272c-74.667 142.667 -120.834 228.334 -138.501 257.001s-36.667 48.834 -57 60.501s-55.5 20.5 -105.5 26.5v78h464v-78c-40.667 -4 -70.667 -8.83301 -90 -14.5s-29 -15.5 -29 -29.5
c0 -9.33301 3.33301 -21.666 10 -36.999l95 -183c56.667 -107.333 103.334 -192.666 140.001 -255.999c148 286.667 222 444 222 472c0 16.667 -10.833 28 -32.5 34s-55.5 10.667 -101.5 14v78h448v-78c-46.667 -4.66699 -82 -12.167 -106 -22.5
s-45.5 -27.666 -64.5 -51.999s-47.667 -69.666 -86 -135.999s-81.5 -145.333 -129.5 -237s-76 -147 -84 -166s-12 -42.5 -12 -70.5v-272c0 -78 9.83301 -125.5 29.5 -142.5s75.167 -28.167 166.5 -33.5v-78h-558v78c86.667 5.33301 139.334 16.5 158.001 33.5
s28 64.5 28 142.5z" />
    <glyph glyph-name="Z" unicode="Z" horiz-adv-x="1144" 
d="M336 1288h694.001l18 -32l-732 -1152c75.333 -8 170.666 -12 285.999 -12c76 0 140.333 5.33301 193 16s93.334 31.5 122.001 62.5s59.667 91.5 93 181.5l86 -16c-34.667 -188.667 -57.334 -300.667 -68.001 -336h-940l-20 38l740 1156h-256
c-113.333 0 -186.833 -13.167 -220.5 -39.5s-61.5 -89.833 -83.5 -190.5l-86 2c12 182 19.333 306 22 372h54c12 -22 23.667 -35.833 35 -41.5s32.333 -8.5 63 -8.5z" />
    <glyph glyph-name="bracketleft" unicode="[" horiz-adv-x="714" 
d="M218 -320v1730h354v-82c-86.667 -6.66699 -137.667 -13.334 -153 -20.001s-27 -16.5 -35 -29.5s-12 -52.5 -12 -118.5v-1230c0 -66 4 -105.5 12 -118.5s19.667 -22.833 35 -29.5s66.333 -13.334 153 -20.001v-82h-354z" />
    <glyph glyph-name="backslash" unicode="\" horiz-adv-x="628" 
d="M430 -92l-388 1406h156l388 -1406h-156z" />
    <glyph glyph-name="bracketright" unicode="]" horiz-adv-x="714" 
d="M496 1410v-1730h-354v82c84 5.33301 135.5 11.666 154.5 18.999s31.667 18.5 38 33.5s9.5 52.833 9.5 113.5v1232c0 66 -3.66699 105.333 -11 118s-18.5 22.5 -33.5 29.5s-67.5 13.833 -157.5 20.5v82h354z" />
    <glyph glyph-name="asciicircum" unicode="^" horiz-adv-x="1272" 
d="M180 350l396 896h120l396 -896h-156l-304 734l-304 -734h-148z" />
    <glyph glyph-name="underscore" unicode="_" horiz-adv-x="1000" 
d="M0 -150h1000v-100h-1000v100z" />
    <glyph glyph-name="grave" unicode="`" 
d="M496 1002l-211 185.002c-56 49.333 -86.5 78.166 -91.5 86.499s-7.5 16.5 -7.5 24.5c0 17.333 17.5 35.166 52.5 53.499s57.5 27.5 67.5 27.5c9.33301 0 18 -2.83301 26 -8.5s34 -39.5 78 -101.5l150 -215z" />
    <glyph glyph-name="a" unicode="a" horiz-adv-x="954" 
d="M760 670l0.00292969 -435.999c0 -77.333 20 -116 60 -116c17.333 0 42.666 8 75.999 24l28 -72l-194 -94c-20 0 -43.167 9.83301 -69.5 29.5s-46.5 50.5 -60.5 92.5c-120 -81.333 -202.667 -122 -248 -122c-70.667 0 -130.667 25.833 -180 77.5s-74 113.167 -74 184.5
c0 46 10.167 85.667 30.5 119s46.166 58.833 77.499 76.5s89 42.5 173 74.5c130 50 201.667 82.667 215 98v36c0 58.667 -14.333 104 -43 136s-67.667 48 -117 48c-26.667 0 -54 -9.66699 -82 -29s-54 -67 -78 -143c-10.667 -33.333 -31.334 -50 -62.001 -50
c-22 0 -43.833 9.16699 -65.5 27.5s-32.5 38.5 -32.5 60.5c0 15.333 3.83301 29.166 11.5 41.499s19.5 25.5 35.5 39.5s34.333 27.667 55 41s46 27.833 76 43.5s66.833 31.667 110.5 48s73.5 24.5 89.5 24.5c76 0 139.667 -21.667 191 -65s77 -108.333 77 -195z
M594.003 198.001l-0.000976562 304.001c-139.333 -62.667 -218.666 -99.334 -237.999 -110.001s-36.5 -26.5 -51.5 -47.5s-22.5 -48.5 -22.5 -82.5c0 -45.333 14.667 -82 44 -110s61.333 -42 96 -42c52.667 0 110 29.333 172 88z" />
    <glyph glyph-name="b" unicode="b" horiz-adv-x="1074" 
d="M162 46l0.00292969 1098c0 50 -2.5 83.833 -7.5 101.5s-15.833 29 -32.5 34s-49.334 8.5 -98.001 10.5v76c123.333 16.667 225.333 40.667 306 72v-588c107.333 40.667 170.833 64.167 190.5 70.5s38.834 9.5 57.501 9.5c111.333 0 206.166 -42.167 284.499 -126.5
s117.5 -186.166 117.5 -305.499c0 -147.333 -50.333 -271.166 -151 -371.499s-222.334 -150.5 -365.001 -150.5c-102.667 0 -203.334 23.333 -302.001 70zM330.003 761.998l0.000976562 -518c0 -36 5.83301 -63.5 17.5 -82.5s32.5 -37.333 62.5 -55s69.667 -26.5 119 -26.5
c76.667 0 139.667 32.167 189 96.5s74 152.833 74 265.5c0 114 -27.5 203.5 -82.5 268.5s-126.833 97.5 -215.5 97.5c-54.667 0 -109.334 -15.333 -164.001 -46z" />
    <glyph glyph-name="c" unicode="c" horiz-adv-x="880" 
d="M838 170c-48 -58.667 -102.501 -105.666 -163.501 -140.999s-118.5 -53 -172.5 -53c-119.333 0 -217.166 42.333 -293.499 127s-114.5 187 -114.5 307c0 95.333 24.833 183.333 74.5 264s116.834 143.5 201.501 188.5s164.667 67.5 240 67.5
c38 0 81.833 -8.83301 131.5 -26.5s74.5 -47.5 74.5 -89.5c0 -20.667 -9.33301 -42.834 -28 -66.501s-35.334 -35.5 -50.001 -35.5c-13.333 0 -24.666 5.33301 -33.999 16c-56 56 -124 84 -204 84c-62.667 0 -116.334 -27.5 -161.001 -82.5s-67 -133.5 -67 -235.5
c0 -80 12.5 -147.833 37.5 -203.5s59.833 -97.667 104.5 -126s92.667 -42.5 144 -42.5c46 0 85.667 8.83301 119 26.5s68.333 45.5 105 83.5z" />
    <glyph glyph-name="d" unicode="d" horiz-adv-x="1098" 
d="M910 1438l-0.000976562 -1186c0 -43.333 3 -72.333 9 -87s15.5 -23.334 28.5 -26.001s51.833 -5.66699 116.5 -9v-76c-142 -25.333 -249.333 -51.333 -322 -78v120c-114 -64 -180.833 -100 -200.5 -108s-41.5 -12 -65.5 -12c-97.333 0 -186.666 41.333 -267.999 124
s-122 189.334 -122 320.001c0 140 51 260 153 360s227 150 375 150c49.333 0 92 -6.66699 128 -20v242c0 54.667 -3.16699 88 -9.5 100s-16.5 20.5 -30.5 25.5s-52 8.5 -114 10.5v78c112.667 16 220 40 322 72zM741.999 194v553.999c-37.333 53.333 -104 80 -200 80
c-69.333 0 -131 -29.667 -185 -89s-81 -147.666 -81 -264.999c0 -112 26.667 -200 80 -264s118 -96 194 -96c60 0 124 26.667 192 80z" />
    <glyph glyph-name="e" unicode="e" horiz-adv-x="906" 
d="M820 156c-52 -60 -107.499 -104.998 -166.499 -134.998s-110.167 -45 -153.5 -45c-120.667 0 -218.5 42.167 -293.5 126.5s-112.5 190.166 -112.5 317.499c0 143.333 44 264.166 132 362.499s186 147.5 294 147.5c85.333 0 159.333 -32.833 222 -98.5
s94 -142.167 94 -229.5c0 -31.333 -3 -53 -9 -65s-18.5 -20 -37.5 -24s-83.833 -9.83301 -194.5 -17.5s-222.334 -13.5 -335.001 -17.5c4.66699 -113.333 36 -200.333 94 -261s127.333 -91 208 -91c75.333 0 143.333 32 204 96zM482.001 834.002
c-48.667 0 -93.001 -22.001 -133.001 -66.001s-65 -105.333 -75 -184l330 6c22 0 36.167 3.83301 42.5 11.5s9.5 21.834 9.5 42.501c0 53.333 -16.667 98.333 -50 135s-74.666 55 -123.999 55z" />
    <glyph glyph-name="f" unicode="f" horiz-adv-x="626" 
d="M216 224v586.001h-132l-12 30l54 66h90v24c0 97.333 20.5 184.833 61.5 262.5s97.5 138 169.5 181s123.667 64.5 155 64.5c43.333 0 84.333 -12 123 -36s58 -48.667 58 -74c0 -16.667 -8 -36.334 -24 -59.001s-33 -34 -51 -34c-10.667 0 -22 5 -34 15
c-46.667 38.667 -98 58 -154 58c-54 0 -90.167 -30.167 -108.5 -90.5s-27.5 -148.833 -27.5 -265.5v-46h228c4 -6 6 -14.333 6 -25c0 -31.333 -9.33301 -55 -28 -71h-206v-586c0 -64 8.16699 -102.833 24.5 -116.5s65.5 -24.167 147.5 -31.5v-76h-476v78
c63.333 6 101.833 16 115.5 30s20.5 52.667 20.5 116z" />
    <glyph glyph-name="g" unicode="g" horiz-adv-x="980" 
d="M302 320c-52.667 21.333 -95.834 56.334 -129.501 105.001s-50.5 101.667 -50.5 159c0 108 37.667 192.667 113 254s158.333 92 249 92c25.333 0 49 -2 71 -6s43.333 -10 64 -18l61 -26c47.333 0 136 8.66699 266 26l12 -20c-23.333 -54 -50 -90.667 -80 -110l-104 8
c32 -49.333 48 -104.666 48 -165.999c0 -98 -35.333 -177.167 -106 -237.5s-154 -90.5 -250 -90.5l-62 4c-7.33301 0 -23.833 -10.5 -49.5 -31.5s-38.5 -41.167 -38.5 -60.5c0 -45.333 38.667 -68 116 -68l214 4c90.667 0 162.334 -20.833 215.001 -62.5
s79 -102.834 79 -183.501c0 -114.667 -50 -210.334 -150 -287.001s-220 -115 -360 -115c-109.333 0 -197 26.5 -263 79.5s-99 114.5 -99 184.5c0 54.667 24.333 102.834 73 144.501l131 109.5c-105.333 39.333 -158 100.666 -158 183.999c81.333 36 144 78.667 188 128z
M652 598.001c0 75.333 -16.168 134.5 -48.501 177.5s-76.166 64.5 -131.499 64.5c-50 0 -90.167 -18.167 -120.5 -54.5s-45.5 -88.833 -45.5 -157.5c0 -75.333 17.167 -135.166 51.5 -179.499s79.833 -66.5 136.5 -66.5c46.667 0 84.667 18.667 114 56s44 90.666 44 159.999
zM797.999 -169.999c0 57.333 -21.668 100 -65.001 128s-119 42 -227 42c-88 0 -154 -21.833 -198 -65.5s-66 -87.834 -66 -132.501c0 -60 24.833 -108.333 74.5 -145s114.834 -55 195.501 -55c84.667 0 153.5 22.333 206.5 67s79.5 98.334 79.5 161.001z" />
    <glyph glyph-name="h" unicode="h" horiz-adv-x="1102" 
d="M188 226l-0.000976562 916.001c0 50 -2.66699 84 -8 102s-16.666 29.5 -33.999 34.5s-51.333 8.83301 -102 11.5v76c72 8 176 32 312 72v-634c91.333 84 186.666 126 285.999 126c84 0 150.333 -27.667 199 -83s73 -131 73 -227v-396
c0 -64.667 6.66699 -103.834 20 -117.501s51.333 -23.167 114 -28.5v-78h-428v78c59.333 6 95.166 16 107.499 30s18.5 53.333 18.5 118v336c0 82.667 -15.333 143 -46 181s-78.667 57 -144 57c-31.333 0 -65.666 -8.16699 -102.999 -24.5s-69.666 -40.833 -96.999 -73.5
v-476c0 -64 6.66699 -103.167 20 -117.5s49.333 -24.5 108 -30.5v-78h-434v78c64 6 103 16 117 30s21 53.333 21 118z" />
    <glyph glyph-name="i" unicode="i" horiz-adv-x="576" 
d="M220 228v390.002c0 51.333 -2.33301 86.333 -7 105s-14.667 31.167 -30 37.5s-46.333 12.833 -93 19.5v68c108.667 19.333 208 46.666 298 81.999v-702c0 -66 7 -106 21 -120s54.333 -24 121 -30v-78h-450v78c65.333 6 105 16.167 119 30.5s21 54.166 21 119.499z
M186 1266c0 33.333 11.333 61.665 34 84.998s50 35 82 35c33.333 0 61.333 -11.5 84 -34.5s34 -51.5 34 -85.5c0 -33.333 -11.333 -61.666 -34 -84.999s-50.667 -35 -84 -35c-32 0 -59.333 11.833 -82 35.5s-34 51.834 -34 84.501z" />
    <glyph glyph-name="j" unicode="j" horiz-adv-x="556" 
d="M188 1266c0 34 11.333 62.498 34 85.498s50 34.5 82 34.5c33.333 0 61.333 -11.5 84 -34.5s34 -51.5 34 -85.5c0 -33.333 -11.333 -61.666 -34 -84.999s-50.667 -35 -84 -35c-32 0 -59.333 11.833 -82 35.5s-34 51.834 -34 84.501zM222 253.998l-0.000976562 373.999
c0 66.667 -6.5 106.667 -19.5 120s-53.167 24 -120.5 32v68c124 22 226.667 49.333 308 82v-694c0 -106 -9.66699 -198 -29 -276s-53.166 -159.667 -101.499 -245s-89 -144.166 -122 -176.499s-62.167 -48.5 -87.5 -48.5c-16.667 0 -34.167 9.33301 -52.5 28
s-27.5 40.667 -27.5 66c0 35.333 14.667 57.333 44 66c67.333 18 111.333 39.333 132 64s38.5 77 53.5 157s22.5 207.667 22.5 383z" />
    <glyph glyph-name="k" unicode="k" horiz-adv-x="1060" 
d="M188 226l-0.00488281 915.998c0 48.667 -2.66699 82 -8 100s-16.5 29.5 -33.5 34.5s-49.833 8.83301 -98.5 11.5v78c105.333 13.333 208 37.333 308 72v-922c47.333 9.33301 83.833 25.333 109.5 48s58.834 63.334 99.501 122.001s61 93.334 61 104.001
c0 17.333 -19.333 26.666 -58 27.999v78l412 20v-76c-68.667 -10 -125.5 -27.5 -170.5 -52.5s-125.5 -108.833 -241.5 -251.5c25.333 -40 84.166 -113.667 176.499 -221s155.333 -173.166 189 -197.499s71.834 -37.5 114.501 -39.5v-78h-264l-226 279
c-75.333 92 -119.166 141.833 -131.499 149.5s-25.166 11.5 -38.499 11.5c-3.33301 0 -14 -2 -32 -6v-208c0 -64.667 7.33301 -104 22 -118s55.334 -24 122.001 -30v-78h-468v78c72.667 6 116.834 16 132.501 30s23.5 53.333 23.5 118z" />
    <glyph glyph-name="l" unicode="l" horiz-adv-x="546" 
d="M188 226l-0.00195312 918.002c0 49.333 -2.5 82.666 -7.5 99.999s-16 28.666 -33 33.999s-50.167 9.33301 -99.5 12v76c64.667 6.66699 167.334 30.667 308.001 72v-1212c0 -65.333 7 -104.833 21 -118.5s55 -23.5 123 -29.5v-78h-456v78c66.667 6 107.334 16 122.001 30
s22 53.333 22 118z" />
    <glyph glyph-name="m" unicode="m" horiz-adv-x="1680" 
d="M220 224v402c0 70 -5.16699 111.5 -15.5 124.5s-45.833 23.5 -106.5 31.5v68c116.667 21.333 212.667 48.666 288 81.999v-148c52.667 41.333 105.667 76 159 104s105 42 155 42c45.333 0 88.833 -13.5 130.5 -40.5s71.5 -62.833 89.5 -107.5
c62.667 48 118.5 84.667 167.5 110s97.167 38 144.5 38c79.333 0 142.5 -25.667 189.5 -77s70.5 -119.666 70.5 -204.999v-422c0 -63.333 6.66699 -102.333 20 -117s48.666 -25 105.999 -31v-78h-424v78c60 6 96.667 15.833 110 29.5s20 51.167 20 112.5v354
c0 74 -13.167 129.833 -39.5 167.5s-71.166 56.5 -134.499 56.5c-60 0 -130.667 -36.667 -212 -110l2 -50v-412c0 -72.667 8.5 -114.5 25.5 -125.5s49.167 -18.5 96.5 -22.5v-78h-426v78c62 6 100.167 16.167 114.5 30.5s21.5 53.5 21.5 117.5v354
c0 76.667 -13.333 132.167 -40 166.5s-69.334 51.5 -128.001 51.5c-61.333 0 -133.333 -38 -216 -114v-458c0 -64 5.83301 -103.167 17.5 -117.5s43.834 -24.5 96.501 -30.5v-78h-430v78c69.333 6 111.333 15.833 126 29.5s22 52.5 22 116.5z" />
    <glyph glyph-name="n" unicode="n" horiz-adv-x="1128" 
d="M220 224v410.002c0 65.333 -5.66699 104.5 -17 117.5s-46.333 23.167 -105 30.5v68c114 21.333 210.667 48.666 290 81.999v-144c118.667 94.667 215.334 142 290.001 142c81.333 0 145.333 -25.167 192 -75.5s70 -117.833 70 -202.5v-426
c0 -64 6.66699 -103.167 20 -117.5s48.666 -24.5 105.999 -30.5v-78h-414v78c55.333 6 89.166 15.667 101.499 29s18.5 49.666 18.5 108.999v356c0 78.667 -13.167 136 -39.5 172s-67.833 54 -124.5 54c-68.667 0 -142 -38.667 -220 -116v-456
c0 -64.667 6.33301 -104 19 -118s47.667 -24 105 -30v-78h-436v78c56.667 4 94.834 12 114.501 24s29.5 52.667 29.5 122z" />
    <glyph glyph-name="o" unicode="o" horiz-adv-x="1058" 
d="M92 426c0 101.333 19.666 190 58.999 266s93.5 134.667 162.5 176s141.167 62 216.5 62c125.333 0 228.666 -44.167 309.999 -132.5s122 -198.833 122 -331.5c0 -147.333 -42.667 -265.833 -128 -355.5s-186.666 -134.5 -303.999 -134.5
c-129.333 0 -234.666 44.5 -315.999 133.5s-122 194.5 -122 316.5zM769.999 418c0 132 -22.5 234.333 -67.5 307s-109.833 109 -194.5 109c-68.667 0 -122.5 -28.333 -161.5 -85s-58.5 -137 -58.5 -241c0 -134.667 24 -241 72 -319s113.333 -117 196 -117
c76.667 0 131.5 28.333 164.5 85s49.5 143.667 49.5 261z" />
    <glyph glyph-name="p" unicode="p" horiz-adv-x="1098" 
d="M202 -260l0.00195312 898c0 70 -5.83301 111.5 -17.5 124.5s-49.834 22.167 -114.501 27.5v70c43.333 6 143.333 36 300 90v-134c140.667 66.667 216.834 102.334 228.501 107.001s28.167 7 49.5 7c104 0 189.667 -39 257 -117s101 -171 101 -279
c0 -60 -8.33301 -117 -25 -171s-41.334 -104 -74.001 -150s-72.834 -86.5 -120.501 -121.5s-101.167 -63 -160.5 -84s-100 -31.5 -122 -31.5c-14.667 0 -36 3.33301 -64 10s-51.333 16 -70 28v-286c0 -60.667 8.5 -97.5 25.5 -110.5s67.833 -22.167 152.5 -27.5v-76h-494v76
c68.667 5.33301 110.5 15.166 125.5 29.499s22.5 54.5 22.5 120.5zM370.002 722l-0.000976562 -542c45.333 -53.333 109.333 -80 192 -80c71.333 0 132.5 31.333 183.5 94s76.5 152 76.5 268c0 107.333 -22.5 189.833 -67.5 247.5s-107.833 86.5 -188.5 86.5
c-27.333 0 -59.666 -6.83301 -96.999 -20.5s-70.333 -31.5 -99 -53.5z" />
    <glyph glyph-name="q" unicode="q" horiz-adv-x="1074" 
d="M916 688l0.000976562 -950.001c0 -64.667 7.16699 -104.167 21.5 -118.5s54.5 -24.166 120.5 -29.499v-76h-484v76c83.333 5.33301 133.166 14.5 149.499 27.5s24.5 50.5 24.5 112.5v320l-206 -74c-137.333 0 -246.333 43 -327 129s-121 187 -121 303
c0 146.667 54 270.334 162 371.001s240 151 396 151c16 0 57.333 -10 124 -30c30 -8 49.333 -12 58 -12c12.667 0 36.667 8 72 24l16 -6c-4 -78.667 -6 -151.334 -6 -218.001zM748.001 145.999v605.998c-47.333 46.667 -112 70 -194 70
c-74.667 0 -138.334 -30.667 -191.001 -92s-79 -144.666 -79 -249.999c0 -119.333 29.833 -212.166 89.5 -278.499s135.834 -99.5 228.501 -99.5c48 0 96.667 14.667 146 44z" />
    <glyph glyph-name="r" unicode="r" horiz-adv-x="790" 
d="M220 226v402c0 68.667 -5.66699 109.834 -17 123.501s-47.666 24.5 -108.999 32.5v68c112 21.333 210 48 294 80v-212h4c34 64 73.167 115 117.5 153s87.166 57 128.499 57c32 0 59.667 -11.333 83 -34s35 -47.334 35 -74.001c0 -33.333 -10.333 -61 -31 -83
s-42 -33 -64 -33c-12.667 0 -22.334 4 -29.001 12c-25.333 25.333 -52 38 -80 38c-19.333 0 -40.166 -8.83301 -62.499 -26.5s-44.833 -47 -67.5 -88s-34 -68.167 -34 -81.5v-336c0 -64 8 -102.833 24 -116.5s64 -23.5 144 -29.5v-78h-476v78c65.333 6 105 16 119 30
s21 53.333 21 118z" />
    <glyph glyph-name="s" unicode="s" horiz-adv-x="818" 
d="M694 662l-80.0039 -17.9971c-49.333 128 -115.333 192 -198 192c-37.333 0 -67.666 -11.5 -90.999 -34.5s-35 -52.167 -35 -87.5c0 -64.667 57.333 -120 172 -166c176 -68.667 264 -165.334 264 -290.001c0 -84.667 -34.667 -152.834 -104 -204.501
s-150.666 -77.5 -243.999 -77.5c-32.667 0 -65 3.66699 -97 11s-60.833 16.833 -86.5 28.5s-46.5 23.5 -62.5 35.5c-9.33301 7.33301 -18 42.333 -26 105c-5.33301 45.333 -8 95.333 -8 150l76 14c18 -72.667 49.333 -132.5 94 -179.5s93.334 -70.5 146.001 -70.5
c39.333 0 72.5 11.667 99.5 35s40.5 54.333 40.5 93c0 80 -52.667 142 -158 186c-93.333 38 -160 79 -200 123s-60 93.667 -60 149c0 78 30.333 143.167 91 195.5s138.334 78.5 233.001 78.5c64 0 124 -12.667 180 -38c20.667 -40.667 38.667 -117.334 54 -230.001z" />
    <glyph glyph-name="t" unicode="t" horiz-adv-x="650" 
d="M202 226l-0.000976562 584h-136l-14 30l58 66h92v132l130 134l38 -2v-264h216c6.66699 -8.66699 10 -20.667 10 -36c0 -26.667 -8 -46.667 -24 -60h-202v-524c0 -124 36 -186 108 -186c33.333 0 71.333 9.33301 114 28l26 -74c-93.333 -40 -149.166 -63 -167.499 -69
s-37.833 -9 -58.5 -9c-60.667 0 -107.5 21.5 -140.5 64.5s-49.5 104.833 -49.5 185.5z" />
    <glyph glyph-name="u" unicode="u" horiz-adv-x="1110" 
d="M752 214l-0.000976562 467.999c0 38.667 -3.5 66 -10.5 82s-17.833 26 -32.5 30s-52.334 9.33301 -113.001 16v72c147.333 8 255.333 20 324 36v-688c0 -46 5.16699 -75.167 15.5 -87.5s32.5 -18.5 66.5 -18.5h64v-76c-61.333 -6.66699 -160.666 -30.667 -297.999 -72
l-16 12v124c-113.333 -90.667 -213.333 -136 -300 -136c-78.667 0 -140 25.5 -184 76.5s-66 124.833 -66 221.5v406c0 38 -3 65 -9 81s-14.833 26 -26.5 30s-41.167 9.66699 -88.5 17v72c64.667 2.66699 164 15.334 298 38.001c-4 -60.667 -6 -158.667 -6 -294v-294
c0 -73.333 13.333 -128.333 40 -165s70 -55 130 -55c62.667 0 133.334 34.667 212.001 104z" />
    <glyph glyph-name="v" unicode="v" horiz-adv-x="968" 
d="M524 -14l-90.001 -0.00195312l-158 456c-63.333 176.667 -99.666 276.5 -108.999 299.5s-22 41.833 -38 56.5s-53 24.667 -111 30v78h416v-78c-32 -1.33301 -55.333 -5.16602 -70 -11.499s-22 -17.833 -22 -34.5c0 -12 3.66699 -28.333 11 -49l71 -213l92 -286
c95.333 255.333 150.833 406.666 166.5 453.999s23.5 76.666 23.5 87.999c0 16.667 -7.33301 28.5 -22 35.5s-38.667 12.5 -72 16.5v78h374v-78c-40 -3.33301 -70 -9.66602 -90 -18.999s-37.167 -26.666 -51.5 -51.999s-57 -121.166 -128 -287.499
s-135.167 -327.5 -192.5 -483.5z" />
    <glyph glyph-name="w" unicode="w" horiz-adv-x="1370" 
d="M466 -14l-89.999 -0.000976562l-126 436c-44.667 154.667 -74.334 253.834 -89.001 297.501s-30.334 71.334 -47.001 83.001s-48 20.167 -94 25.5v78h420v-78c-39.333 -5.33301 -67.333 -12 -84 -20s-25 -22 -25 -42c0 -12.667 12.333 -65 37 -157l92 -363h4l226 650h84
l208 -650h4c93.333 314 140 488.667 140 524c0 21.333 -9.16699 35.166 -27.5 41.499s-48.5 11.833 -90.5 16.5v78h382v-78c-44 -6 -74 -15.5 -90 -28.5s-30.167 -34.167 -42.5 -63.5s-47.166 -126 -104.499 -290s-108.333 -317.333 -153 -460h-90l-214 650z" />
    <glyph glyph-name="x" unicode="x" horiz-adv-x="982" 
d="M58 906l409.997 0.00195312v-78c-43.333 -6 -65 -19 -65 -39c0 -10.667 5 -24.334 15 -41.001l100 -162c66 111.333 101.167 173 105.5 185s6.5 21 6.5 27c0 15.333 -18.667 25.333 -56 30v78h374v-78c-42 -2 -79.5 -8 -112.5 -18s-73.167 -45.833 -120.5 -107.5
s-94.333 -129.834 -141 -204.501c132 -204.667 204.833 -316.334 218.5 -335.001s31.834 -35.5 54.501 -50.5s67.667 -26.5 135 -34.5v-78h-442v78c53.333 8 80 20.667 80 38c0 10 -6.33301 24.667 -19 44l-123 194c-87.333 -133.333 -131 -211.666 -131 -234.999
c0 -19.333 23.667 -33 71 -41v-78h-386v78c58.667 7.33301 99.667 17.333 123 30s48 35.5 74 68.5s57.667 75.333 95 127s70 99.167 98 142.5c-115.333 186.667 -179.166 289.167 -191.499 307.5s-30.666 33.833 -54.999 46.5s-63.5 22 -117.5 28v78z" />
    <glyph glyph-name="y" unicode="y" horiz-adv-x="958" 
d="M26 906l420.001 0.00292969v-78c-32.667 -4.66699 -56.334 -10.834 -71.001 -18.501s-22 -19.834 -22 -36.501c0 -8 14.333 -56.333 43 -145l124 -380c130 314.667 195 490 195 526c0 16.667 -8.66699 28.667 -26 36s-43.666 13.333 -78.999 18v78h390v-78
c-50 -8 -84.5 -18.5 -103.5 -31.5s-42 -44.167 -69 -93.5s-77 -158.833 -150 -328.5l-201 -483.5c-61 -152.667 -101.833 -268.334 -122.5 -347.001c-8.66699 -36 -34 -54 -76 -54c-32 0 -61.333 11.833 -88 35.5s-40 48.5 -40 74.5c0 30.667 16.667 56.667 50 78
c52 36 101 94.333 147 175s69 138.334 69 173.001c0 15.333 -8.66699 48.666 -26 99.999l-83 245l-92.5 267c-23.667 66 -40.834 108.333 -51.501 127s-26.167 33 -46.5 43s-50.5 16.667 -90.5 20v78z" />
    <glyph glyph-name="z" unicode="z" horiz-adv-x="884" 
d="M314 906l469.997 0.00195312l20 -30l-490 -782h186c64 0 114.333 8.16699 151 24.5s77 70.833 121 163.5l82 -30c-27.333 -89.333 -56.666 -173.333 -87.999 -252h-670l-18 30l165 258l327 524h-168c-42 0 -75.167 -5.5 -99.5 -16.5s-43.666 -27.333 -57.999 -49
s-35.166 -63.834 -62.499 -126.501l-82 26c24.667 93.333 46.667 194.666 66 303.999h46c8.66699 -29.333 42.667 -44 102 -44z" />
    <glyph glyph-name="braceleft" unicode="{" horiz-adv-x="716" 
d="M128 502v83.999c52 4 90.667 14.5 116 31.5s41.333 36.5 48 58.5s10 48 10 78c0 14.667 -4.66699 73.334 -14 176.001c-8 96 -12 176 -12 240c0 83.333 24.167 146.166 72.5 188.499s127.5 63.5 237.5 63.5v-82c-46.667 -6 -84.667 -21.167 -114 -45.5
s-44 -65.833 -44 -124.5c0 -28.667 4.66699 -86.667 14 -174l22 -218c0 -124.667 -51.333 -200.667 -154 -228v-8c102.667 -27.333 154 -105.333 154 -234c0 -7.33301 -7.33301 -79.333 -22 -216c-9.33301 -90 -14 -147.333 -14 -172c0 -60 14.667 -102.333 44 -127
s67.333 -39.667 114 -45v-82c-112.667 0 -192.5 21.333 -239.5 64s-70.5 105.334 -70.5 188.001c0 64 4 144 12 240c9.33301 102.667 14 162 14 178c0 29.333 -3.33301 54.833 -10 76.5s-22.667 41 -48 58s-64 27.5 -116 31.5z" />
    <glyph glyph-name="bar" unicode="|" horiz-adv-x="514" 
d="M180 -500v2000h156v-2000h-156z" />
    <glyph glyph-name="braceright" unicode="}" horiz-adv-x="716" 
d="M590 586l-2.00195 -83.999c-52 -4 -90.667 -14.5 -116 -31.5s-41.333 -36.333 -48 -58s-10 -47.167 -10 -76.5c0 -16 4.66699 -75.333 14 -178c8 -94.667 12 -174 12 -238c0 -83.333 -23.667 -146.5 -71 -189.5s-127 -64.5 -239 -64.5v82
c46.667 6 84.667 21.167 114 45.5s44 65.833 44 124.5c0 28.667 -4.66699 86.667 -14 174c-14.667 136.667 -22 208.667 -22 216c0 127.333 51.333 204.666 154 231.999v8c-102.667 27.333 -154 104.666 -154 231.999l22 218c9.33301 90 14 147.333 14 172
c0 58.667 -14.5 100.5 -43.5 125.5s-67.167 40.5 -114.5 46.5v82c110.667 0 190 -21.167 238 -63.5s72 -105.166 72 -188.499c0 -64 -4 -144 -12 -240c-9.33301 -102.667 -14 -162 -14 -178c0 -30 3.33301 -56 10 -78s22.834 -41.5 48.501 -58.5s64.834 -27.5 117.501 -31.5
z" />
    <glyph glyph-name="asciitilde" unicode="~" horiz-adv-x="1272" 
d="M1068 716l89.998 -76c-75.333 -136 -174.666 -204 -297.999 -204c-71.333 0 -160.666 28.667 -267.999 86c-62 32 -114 48 -156 48c-75.333 0 -144 -50 -206 -150l-88 78c92 137.333 194.667 206 308 206c34 0 66.833 -4 98.5 -12s81.5 -29.333 149.5 -64
c72.667 -37.333 134 -56 184 -56c72.667 0 134.667 48 186 144z" />
    <glyph glyph-name="uni00A0" unicode="&#xa0;" horiz-adv-x="480" 
 />
    <glyph glyph-name="exclamdown" unicode="&#xa1;" horiz-adv-x="516" 
d="M118 752c0 44 12.998 79.667 38.998 107s59 41 99 41s73 -13.667 99 -41s39 -63 39 -107c0 -42 -13.167 -76.833 -39.5 -104.5s-59.166 -41.5 -98.499 -41.5s-72.166 13.833 -98.499 41.5s-39.5 62.5 -39.5 104.5zM211.998 482c6 7.33301 22 10.6641 48 9.99707
c6 0 11.833 -0.166992 17.5 -0.5s10.667 -1.16602 15 -2.49902s7.66602 -2.66602 9.99902 -3.99902s6.5 -43.333 12.5 -126l18 -275c6.66699 -94.667 13.667 -179 21 -253c13.333 -130 20 -201 20 -213c0 -22 -8.66699 -37.5 -26 -46.5s-46.666 -13.5 -87.999 -13.5
c-42 0 -71.833 4.5 -89.5 13.5s-26.5 24.5 -26.5 46.5c0 34 6.33301 108.333 19 223s29 328.334 49 641.001z" />
    <glyph glyph-name="cent" unicode="&#xa2;" horiz-adv-x="944" 
d="M574 978l-0.00390625 -662c76 2 151.333 42 226 120l54 -60c-89.333 -110 -182.666 -174 -279.999 -192v-202h-94v196c-116 6.66699 -210 51.5 -282 134.5s-108 176.167 -108 279.5c0 74.667 16.5 144.667 49.5 210s80 122 141 170s127.5 81.333 199.5 100v172h94v-164
c2.66699 1.33301 11.334 2 26.001 2c48 0 91.833 -5.66699 131.5 -17s64.334 -23.333 74.001 -36s14.5 -27.667 14.5 -45c0 -22 -7.5 -42.833 -22.5 -62.5s-33.167 -29.5 -54.5 -29.5c-7.33301 0 -17.666 6.66699 -30.999 20c-44.667 40.667 -90.667 62.667 -138 66z
M479.996 322v658.001c-55.333 -7.33301 -105.833 -40.333 -151.5 -99s-68.5 -131 -68.5 -217c0 -92.667 19.667 -168.834 59 -228.501s93 -97.5 161 -113.5z" />
    <glyph glyph-name="sterling" unicode="&#xa3;" horiz-adv-x="944" 
d="M747 580l-247.997 -0.00488281c2.66699 -5.33301 4 -20.666 4 -45.999c0 -113.333 -61.333 -224 -184 -332c63.333 -16 113.333 -30.667 150 -44c91.333 -32 165.333 -48 222 -48c58.667 0 88 20.667 88 62c0 10 -5.33301 32.667 -16 68c-4 11.333 -6 21.333 -6 30
c0 16 9.5 33 28.5 51s38.833 27 59.5 27c18.667 0 34 -10.333 46 -31s18 -41.667 18 -63c0 -60 -32.5 -121 -97.5 -183s-141.833 -93 -230.5 -93c-70.667 0 -165.334 28 -284.001 84c-40 20 -68 30 -84 30c-11.333 0 -22.833 -7.33301 -34.5 -22s-20.167 -34 -25.5 -58
c-4 -17.333 -16.667 -26 -38 -26c-16 0 -31.5 5.83301 -46.5 17.5s-22.5 24.834 -22.5 39.501c0 24 49.667 77.667 149 161c88 70.667 132 159.334 132 266.001c0 50.667 -5.33301 87.334 -16 110.001h-230v92h206c-40 114.667 -60 189.334 -60 224.001
c0 57.333 17.5 115 52.5 173s84 106 147 144s109.833 57 140.5 57c44.667 0 88 -11.667 130 -35s63 -47.333 63 -72c0 -20.667 -9.5 -41 -28.5 -61s-34.167 -30 -45.5 -30c-10.667 0 -20.334 4 -29.001 12c-46 41.333 -99.333 62 -160 62
c-34.667 0 -63.334 -13.333 -86.001 -40s-34 -60 -34 -100c0 -76 34.667 -187.333 104 -334h266v-92z" />
    <glyph glyph-name="currency" unicode="&#xa4;" horiz-adv-x="944" 
d="M236 984c60.667 49.333 133.333 74 218 74c81.333 0 153.333 -24.667 216 -74l132 158l100 -96l-146 -146c53.333 -64.667 80 -148 80 -250c0 -99.333 -26.667 -183.333 -80 -252l146 -144l-100 -96l-132 158c-62.667 -49.333 -134.667 -74 -216 -74
c-82 0 -154.667 24.667 -218 74l-132 -158l-96 96l146 144c-54.667 67.333 -82 151.333 -82 252c0 102.667 27.333 186 82 250l-146 146l96 96zM691.999 650c0 84 -22.333 152.667 -67 206s-101 80 -169 80s-124.333 -26.667 -169 -80s-67 -122 -67 -206
c0 -85.333 22.167 -154.333 66.5 -207s100.833 -79 169.5 -79s125.167 26.5 169.5 79.5s66.5 121.833 66.5 206.5z" />
    <glyph glyph-name="yen" unicode="&#xa5;" horiz-adv-x="944" 
d="M396 198v125.998h-314v92h314v150h-314v92h288l-222 426c-27.333 53.333 -76 81.333 -146 84v78h420v-78c-59.333 -7.33301 -93.333 -13.833 -102 -19.5s-13 -12.834 -13 -21.501c0 -6.66699 6.16699 -25 18.5 -55s42 -90.333 89 -181s76.833 -149.667 89.5 -177l116 262
c34 76.667 51 126.334 51 149.001c0 12.667 -5.33301 21.834 -16 27.501s-42.334 10.834 -95.001 15.501v78h388v-78c-45.333 -4.66699 -77.666 -11.5 -96.999 -20.5s-36 -23 -50 -42s-43.667 -74.333 -89 -166s-89.333 -185.5 -132 -281.5h284v-92h-308v-150h308v-92h-308
v-126c0 -52.667 8.16699 -84.5 24.5 -95.5s65.5 -19.167 147.5 -24.5v-78h-502v78c80.667 5.33301 129.167 13.5 145.5 24.5s24.5 42.833 24.5 95.5z" />
    <glyph glyph-name="brokenbar" unicode="&#xa6;" horiz-adv-x="514" 
d="M180 650v700h156v-700h-156zM180 -350v700h156v-700h-156z" />
    <glyph glyph-name="section" unicode="&#xa7;" horiz-adv-x="1014" 
d="M394 1086c0 -43.333 14.001 -81.3301 42.001 -113.997s119.333 -102 274 -208c144 -102.667 216 -223.334 216 -362.001c0 -45.333 -8.5 -92.833 -25.5 -142.5s-39.167 -98 -66.5 -145s-56.666 -90.333 -87.999 -130s-60.5 -73.334 -87.5 -101.001s-54 -51.167 -81 -70.5
s-60.333 -38.333 -100 -57s-66.167 -28 -79.5 -28c-42 0 -85.167 10.5 -129.5 31.5s-66.5 43.167 -66.5 66.5c0 18.667 11.667 40.167 35 64.5s43.666 36.5 60.999 36.5c4 0 8 -1 12 -3c39.333 -29.333 88.666 -44 147.999 -44c101.333 0 152 45.667 152 137
c0 49.333 -15.5 94 -46.5 134s-97.167 98.667 -198.5 176c-70.667 54 -122.834 97.833 -156.501 131.5s-62.167 72.167 -85.5 115.5s-35 91.333 -35 144c0 43.333 6.83301 87.166 20.5 131.499s32.667 87.666 57 129.999s51.5 81.5 81.5 117.5s59.333 67.5 88 94.5
s56.5 49.5 83.5 67.5s61.167 35.333 102.5 52s70.333 25 87 25c31.333 0 62.833 -6.16699 94.5 -18.5s52.5 -24.166 62.5 -35.499s15 -25.333 15 -42c0 -24 -9 -45.667 -27 -65s-36 -29 -54 -29c-4 0 -7.66699 1.33301 -11 4c-45.333 38.667 -100.666 58 -165.999 58
c-33.333 0 -63 -11.5 -89 -34.5s-39 -52.167 -39 -87.5zM286.001 1008c-44 -60 -66.001 -128.001 -66.001 -204.001c0 -68.667 18.5 -126.667 55.5 -174s93.167 -99.333 168.5 -156c110.667 -83.333 180.834 -143.666 210.501 -180.999s47.667 -68 54 -92
s9.5 -55.667 9.5 -95l4 -2c46.667 66 70 140 70 222c0 107.333 -57.333 205.333 -172 294l-150 115c-64 49.333 -100.167 78.5 -108.5 87.5s-20.333 26.5 -36 52.5s-26.5 50.333 -32.5 73c-2 8.66699 -3 28 -3 58z" />
    <glyph glyph-name="dieresis" unicode="&#xa8;" 
d="M708 1172c0 -34 -11 -61.834 -33 -83.501s-49.667 -32.5 -83 -32.5c-35.333 0 -63.833 10.667 -85.5 32s-32.5 49.333 -32.5 84c0 34 11.167 62.5 33.5 85.5s50.5 34.5 84.5 34.5c32.667 0 60.167 -11.667 82.5 -35s33.5 -51.666 33.5 -84.999zM326 1172
c0 -34 -11 -61.834 -33 -83.501s-49.667 -32.5 -83 -32.5c-35.333 0 -63.833 10.667 -85.5 32s-32.5 49.333 -32.5 84c0 34 11.167 62.5 33.5 85.5s50.5 34.5 84.5 34.5c32.667 0 60.167 -11.667 82.5 -35s33.5 -51.666 33.5 -84.999z" />
    <glyph glyph-name="copyright" unicode="&#xa9;" horiz-adv-x="1406" 
d="M94 638c0 170.667 58 314 174 430s260.667 174 434 174c174.667 0 320 -57.833 436 -173.5s174 -259.167 174 -430.5c0 -170.667 -57.833 -314 -173.5 -430s-261.167 -174 -436.5 -174c-173.333 0 -318 58.167 -434 174.5s-174 259.5 -174 429.5zM1190 640
c0 146 -46.167 267.5 -138.5 364.5s-208.166 145.5 -347.499 145.5c-138 0 -253.167 -48.5 -345.5 -145.5s-138.5 -218.5 -138.5 -364.5s46.167 -268.167 138.5 -366.5s207.5 -147.5 345.5 -147.5c139.333 0 255.166 49 347.499 147s138.5 220.333 138.5 367zM990 762
l-63.999 -16.001c-17.333 54.667 -40.333 94 -69 118s-67 36 -115 36c-70 0 -124.833 -22.167 -164.5 -66.5s-59.5 -106.166 -59.5 -185.499c0 -86 21.5 -152.833 64.5 -200.5s98.167 -71.5 165.5 -71.5c94.667 0 160.667 52.667 198 158l66 -14l-50 -190
c-76.667 -25.333 -149.334 -38 -218.001 -38c-117.333 0 -210.333 33 -279 99s-103 146.333 -103 241c0 108 38.5 193.333 115.5 256s172.5 94 286.5 94c79.333 0 147.333 -11.333 204 -34z" />
    <glyph glyph-name="ordfeminine" unicode="&#xaa;" horiz-adv-x="662" 
d="M534 894v-234.002c0 -53.333 13.333 -80 40 -80c10.667 0 26.667 5.33301 48 16l20 -54l-128 -64c-40.667 0 -74 26.667 -100 80c-82 -53.333 -136.667 -80 -164 -80c-49.333 0 -90.666 16.5 -123.999 49.5s-50 71.833 -50 116.5c0 29.333 6.83301 54.833 20.5 76.5
s31.334 38.334 53.001 50.001s59.5 27.5 113.5 47.5c80 29.333 129 50 147 62v20c0 28.667 -9.16699 52.167 -27.5 70.5s-42.5 27.5 -72.5 27.5c-25.333 0 -45.833 -7.83301 -61.5 -23.5s-29.834 -45.167 -42.501 -88.5c-6 -22.667 -20.667 -34 -44 -34
c-16.667 0 -33.167 6.33301 -49.5 19s-24.5 27 -24.5 43c0 34 35.5 69.167 106.5 105.5s120.167 54.5 147.5 54.5c67.333 0 116.166 -17.167 146.499 -51.5s45.5 -77.166 45.5 -128.499zM410 629.998v175.998c-96.667 -34 -153.5 -59.667 -170.5 -77
s-25.5 -39.666 -25.5 -66.999c0 -25.333 8.66699 -45.666 26 -60.999s38 -23 62 -23c32.667 0 68.667 17.333 108 52z" />
    <glyph glyph-name="guillemotleft" unicode="&#xab;" horiz-adv-x="936" 
d="M478 106l-74 -51.999c-115.333 165.333 -221.333 298.666 -318 399.999c108 118 214 252 318 402l74 -50l-188 -352zM836 106.001l-76.001 -51.999c-111.333 159.333 -216.666 292.666 -315.999 399.999c112 126 217.333 260 316 402l76 -50l-188 -352z" />
    <glyph glyph-name="logicalnot" unicode="&#xac;" horiz-adv-x="1272" 
d="M116 802h1042v-588h-150v458h-892v130z" />
    <glyph glyph-name="uni00AD" unicode="&#xad;" horiz-adv-x="692" 
d="M108 522h476v-138h-476v138z" />
    <glyph glyph-name="registered" unicode="&#xae;" horiz-adv-x="1190" 
d="M90 822c0 138.667 48 255.334 144 350.001s216 142 360 142c145.333 0 266 -47.333 362 -142s144 -211.334 144 -350.001c0 -138 -48.167 -254.5 -144.5 -349.5s-216.833 -142.5 -361.5 -142.5c-144 0 -264 47.5 -360 142.5s-144 211.5 -144 349.5zM990 822
c0 118 -37.167 215.167 -111.5 291.5s-168.5 114.5 -282.5 114.5s-207.833 -38.167 -281.5 -114.5s-110.5 -173.5 -110.5 -291.5c0 -117.333 36.833 -214 110.5 -290s167.5 -114 281.5 -114c113.333 0 207.333 38.167 282 114.5s112 172.833 112 289.5zM424 684
l-0.000976562 284.002c0 33.333 -3.33301 53.5 -10 60.5s-26.667 11.5 -60 13.5v56h252c129.333 0 194 -48 194 -144c0 -64.667 -36 -111.334 -108 -140.001c72 -130.667 131.333 -203.334 178 -218.001l-10 -46h-34c-47.333 0 -83.833 11.167 -109.5 33.5
s-59.5 72.166 -101.5 149.499c-13.333 24.667 -24.166 39.334 -32.499 44.001s-19.833 7 -34.5 7h-22v-100c0 -32.667 3.66699 -52.334 11 -59.001s29 -11.667 65 -15v-56h-252v56c35.333 3.33301 56.5 8.33301 63.5 15s10.5 26.334 10.5 59.001zM527.999 1006
l0.00195312 -170h46c47.333 0 78.166 11.333 92.499 34s21.5 45.334 21.5 68.001c0 33.333 -10.333 58.666 -31 75.999s-46.334 26 -77.001 26c-24.667 0 -39.5 -1.66699 -44.5 -5s-7.5 -13 -7.5 -29z" />
    <glyph glyph-name="macron" unicode="&#xaf;" 
d="M150 1242h500v-130h-500v130z" />
    <glyph glyph-name="degree" unicode="&#xb0;" horiz-adv-x="690" 
d="M52 1024c0 86.667 28.667 156.667 86 210s126 80 206 80c83.333 0 153.5 -27 210.5 -81s85.5 -123.667 85.5 -209c0 -87.333 -28.167 -157.5 -84.5 -210.5s-126.833 -79.5 -211.5 -79.5c-83.333 0 -152.833 26.5 -208.5 79.5s-83.5 123.167 -83.5 210.5zM512 1022
c0 58.667 -15.167 105.999 -45.5 141.999s-69.833 54 -118.5 54c-49.333 0 -89 -17.667 -119 -53s-45 -82.333 -45 -141s15 -105.667 45 -141s69.667 -53 119 -53c48 0 87.333 17.833 118 53.5s46 81.834 46 138.501z" />
    <glyph glyph-name="plusminus" unicode="&#xb1;" horiz-adv-x="1272" 
d="M114 794h448v404h150v-404h446v-130h-446v-430h-150v430h-448v130zM114 130h1044v-130h-1044v130z" />
    <glyph glyph-name="two.superior" unicode="&#xb2;" horiz-adv-x="676" 
d="M574 492l-519.998 -0.00195312v56c149.333 124.667 246.666 220.334 291.999 287.001s68 125.667 68 177c0 48.667 -12.167 85.167 -36.5 109.5s-56.166 36.5 -95.499 36.5c-50 0 -102.667 -40 -158 -120l-60 52c55.333 70.667 90.666 112.834 105.999 126.501
s38 26 68 37s61.333 16.5 94 16.5c71.333 0 129.166 -21.167 173.499 -63.5s66.5 -99.833 66.5 -172.5c0 -48.667 -14.667 -98.5 -44 -149.5s-118 -141.833 -266 -272.5v-2h162c36.667 0 61.5 4 74.5 12s28.167 30 45.5 66l72 -10z" />
    <glyph glyph-name="three.superior" unicode="&#xb3;" horiz-adv-x="676" 
d="M96 1110l60.001 83.001c9.33301 12.667 23.833 25.167 43.5 37.5s41.167 22 64.5 29s46.666 10.5 69.999 10.5c64.667 0 116.5 -15.667 155.5 -47s58.5 -70.333 58.5 -117c0 -52.667 -40.667 -98 -122 -136v-4c54.667 -13.333 97.334 -37.833 128.001 -73.5
s46 -77.834 46 -126.501c0 -85.333 -41 -154.666 -123 -207.999s-162.333 -80 -241 -80c-41.333 0 -79.666 8.16699 -114.999 24.5s-53 37.166 -53 62.499c0 18 8.5 36 25.5 54s31.5 27 43.5 27c9.33301 0 17 -2.66699 23 -8c18.667 -16 42.167 -30.333 70.5 -43
s54.166 -19 77.499 -19c41.333 0 75.333 13.667 102 41s40 65 40 113c0 46 -14.167 82.167 -42.5 108.5s-65.5 39.5 -111.5 39.5c-32.667 0 -67.334 -6.66699 -104.001 -20l-16 64c145.333 48.667 218 102 218 160c0 58.667 -33.333 88 -100 88c-48 0 -94.667 -36 -140 -108
z" />
    <glyph glyph-name="acute" unicode="&#xb4;" 
d="M270 1054l155.002 221.001c41.333 59.333 66.166 91.833 74.499 97.5s17.166 8.5 26.499 8.5c10 0 31.667 -9.66699 65 -29s50 -37 50 -53c0 -8.66699 -2.5 -16.834 -7.5 -24.501s-37.167 -38.167 -96.5 -91.5l-203 -181z" />
    <glyph glyph-name="mu" unicode="&#xb5;" horiz-adv-x="1066" 
d="M156 232l-0.000976562 674h168v-532c0 -173.333 60 -260 180 -260c56 0 103.333 20.167 142 60.5s58 99.5 58 177.5v554h168v-682c0 -74.667 17.333 -112 52 -112c24.667 0 43.334 24.667 56.001 74l76 -22c-26 -125.333 -89.333 -188 -190 -188
c-42 0 -78 13.333 -108 40s-48.667 64.667 -56 114h-4c-16 -46.667 -44 -84 -84 -112s-82 -42 -126 -42c-86.667 0 -150.667 40.667 -192 122h-4l24 -540l-158 -58l-20 16l11 372c4.66699 141.333 7 256 7 344z" />
    <glyph glyph-name="paragraph" unicode="&#xb6;" horiz-adv-x="1016" 
d="M538 1288l407.998 0.000976562l16 -36l-64 -58l-170 -22v-956c0 -122.667 -24.333 -220.334 -73 -293.001s-99.5 -123 -152.5 -151s-86.5 -42 -100.5 -42c-30.667 0 -58.5 5 -83.5 15s-45 21.167 -60 33.5s-22.5 25.833 -22.5 40.5s9.83301 33.667 29.5 57
s36.834 35 51.501 35c4 0 7.66699 -1 11 -3c33.333 -24 72.666 -36 117.999 -36c98.667 0 148 96.667 148 290v336l-130 -66c-1.33301 -1.33301 -12 -2 -32 -2c-65.333 0 -135.666 39.833 -210.999 119.5s-113 175.167 -113 286.5c0 86.667 21.333 164.5 64 233.5
s98.834 122.667 168.501 161s135.5 57.5 197.5 57.5z" />
    <glyph glyph-name="periodcentered" unicode="&#xb7;" horiz-adv-x="470" 
d="M366 492c0 -40.667 -12.499 -74.167 -37.499 -100.5s-56.5 -39.5 -94.5 -39.5c-37.333 0 -68.333 13 -93 39s-37 59.667 -37 101c0 40 12.333 73.333 37 100s55.667 40 93 40s68.666 -13.5 93.999 -40.5s38 -60.167 38 -99.5z" />
    <glyph glyph-name="cedilla" unicode="&#xb8;" 
d="M392 -2l99.999 0.000976562c-37.333 -52.667 -57.166 -80.834 -59.499 -84.501s-3.5 -8.83398 -3.5 -15.501c0 -10 8.33301 -24 25 -42c50.667 -54.667 76 -104 76 -148c0 -91.333 -77.333 -164 -232 -218l-40 76c84 40.667 126 82.667 126 126
c0 14.667 -14 37.334 -42 68.001c-29.333 32 -44 58 -44 78c0 17.333 8 37.333 24 60z" />
    <glyph glyph-name="one.superior" unicode="&#xb9;" horiz-adv-x="676" 
d="M278 674v376.003c0 47.333 -4 73.666 -12 78.999s-46 9.66602 -114 12.999v64c96.667 11.333 186.667 32.666 270 63.999v-596c0 -54.667 9 -87 27 -97s52.333 -15.667 103 -17v-68h-404v68c52.667 2 87.5 8.5 104.5 19.5s25.5 42.5 25.5 94.5z" />
    <glyph glyph-name="ordmasculine" unicode="&#xba;" horiz-adv-x="708" 
d="M62 768c0 95.333 30.332 170.167 90.999 224.5s127.667 81.5 201 81.5c82.667 0 151 -28.167 205 -84.5s81 -125.5 81 -207.5c0 -94 -29.167 -168.167 -87.5 -222.5s-125.166 -81.5 -200.499 -81.5c-86.667 0 -156.667 28 -210 84s-80 124.667 -80 206zM491.999 752.001
c0 76 -13.5 136 -40.5 180s-64.167 66 -111.5 66c-37.333 0 -68 -17.333 -92 -52s-36 -82.667 -36 -144c0 -76.667 13.833 -137.167 41.5 -181.5s64.5 -66.5 110.5 -66.5c85.333 0 128 66 128 198z" />
    <glyph glyph-name="guillemotright" unicode="&#xbb;" horiz-adv-x="924" 
d="M162 54l-74 52l188 348l-188 352l74 50c101.333 -143.333 207.333 -277.333 318 -402c-97.333 -104.667 -203.333 -238 -318 -400zM518 54l-74 51.999l188 348l-188 352l74 50c104 -150 210 -284 318 -402c-96.667 -101.333 -202.667 -234.666 -318 -399.999z" />
    <glyph glyph-name="onequarter" unicode="&#xbc;" horiz-adv-x="1726" 
d="M294 674v376.003c0 47.333 -4 73.666 -12 78.999s-46 9.66602 -114 12.999v64c96.667 11.333 186.667 32.666 270 63.999v-596c0 -54.667 9 -87 27 -97s52.333 -15.667 103 -17v-68h-404v68c52.667 2 87.5 8.5 104.5 19.5s25.5 42.5 25.5 94.5zM1216 1310l86 -50
l-782 -1312l-84 56zM1448 781.003v-482h122v-84h-122v-40c0 -46 6.5 -74.5 19.5 -85.5s43.833 -18.5 92.5 -22.5v-66h-394v66c62.667 4 102 11.5 118 22.5s24 39.5 24 85.5v40h-342v58c105.333 152.667 230 322 374 508h108zM1308 299.003v306h-4
c-61.333 -77.333 -130 -179.333 -206 -306h210z" />
    <glyph glyph-name="onehalf" unicode="&#xbd;" horiz-adv-x="1726" 
d="M288 674v376.003c0 47.333 -4 73.666 -12 78.999s-46 9.66602 -114 12.999v64c96.667 11.333 186.667 32.666 270 63.999v-596c0 -54.667 9 -87 27 -97s52.333 -15.667 103 -17v-68h-404v68c52.667 2 87.5 8.5 104.5 19.5s25.5 42.5 25.5 94.5zM1202 1310l86 -50
l-782 -1312l-84 56zM1570 1.00293l-519.998 -0.00195312v56c149.333 124.667 246.666 220.334 291.999 287.001s68 125.667 68 177c0 48.667 -12.167 85.167 -36.5 109.5s-56.166 36.5 -95.499 36.5c-50 0 -102.667 -40 -158 -120l-60 52
c55.333 70.667 90.666 112.834 105.999 126.501s38 26 68 37s61.333 16.5 94 16.5c71.333 0 129.166 -21.167 173.499 -63.5s66.5 -99.833 66.5 -172.5c0 -48.667 -14.667 -98.5 -44 -149.5s-118 -141.833 -266 -272.5v-2h162c36.667 0 61.5 4 74.5 12s28.167 30 45.5 66
l72 -10z" />
    <glyph glyph-name="threequarters" unicode="&#xbe;" horiz-adv-x="1726" 
d="M158 1110l60.001 83.001c9.33301 12.667 23.833 25.167 43.5 37.5s41.167 22 64.5 29s46.666 10.5 69.999 10.5c64.667 0 116.5 -15.667 155.5 -47s58.5 -70.333 58.5 -117c0 -52.667 -40.667 -98 -122 -136v-4c54.667 -13.333 97.334 -37.833 128.001 -73.5
s46 -77.834 46 -126.501c0 -85.333 -41 -154.666 -123 -207.999s-162.333 -80 -241 -80c-41.333 0 -79.666 8.16699 -114.999 24.5s-53 37.166 -53 62.499c0 18 8.5 36 25.5 54s31.5 27 43.5 27c9.33301 0 17 -2.66699 23 -8c18.667 -16 42.167 -30.333 70.5 -43
s54.166 -19 77.499 -19c41.333 0 75.333 13.667 102 41s40 65 40 113c0 46 -14.167 82.167 -42.5 108.5s-65.5 39.5 -111.5 39.5c-32.667 0 -67.334 -6.66699 -104.001 -20l-16 64c145.333 48.667 218 102 218 160c0 58.667 -33.333 88 -100 88c-48 0 -94.667 -36 -140 -108
zM1240 1310l86 -50l-782 -1312l-84 56zM1459 781.001v-482h122v-84h-122v-40c0 -46 6.5 -74.5 19.5 -85.5s43.833 -18.5 92.5 -22.5v-66h-394v66c62.667 4 102 11.5 118 22.5s24 39.5 24 85.5v40h-342v58c105.333 152.667 230 322 374 508h108zM1319 299.001v306h-4
c-61.333 -77.333 -130 -179.333 -206 -306h210z" />
    <glyph glyph-name="questiondown" unicode="&#xbf;" horiz-adv-x="664" 
d="M220 756c0 41.333 12.498 74.668 37.498 100.001s56.5 38 94.5 38s69.5 -12.833 94.5 -38.5s37.5 -58.834 37.5 -99.501c0 -38.667 -12.667 -71 -38 -97s-56.666 -39 -93.999 -39s-68.666 13 -93.999 39s-38 58.333 -38 97zM335.998 488.002
c50.667 -26 95.998 -63.834 135.998 -113.501s60 -97.167 60 -142.5c0 -41.333 -11.5 -79.666 -34.5 -114.999s-63.5 -76.333 -121.5 -123c-66 -53.333 -108.5 -93.666 -127.5 -120.999s-28.5 -52.333 -28.5 -75c0 -30 8.66699 -54.167 26 -72.5s40 -27.5 68 -27.5
c52 0 106.333 21.667 163 65c16 12.667 26.333 19 31 19c12.667 0 28.834 -11.167 48.501 -33.5s29.5 -44.5 29.5 -66.5c0 -28.667 -23.667 -57.834 -71 -87.501s-89.666 -44.5 -126.999 -44.5c-78 0 -148.5 32.667 -211.5 98s-94.5 139.333 -94.5 222
c0 71.333 29.333 133.333 88 186c129.333 120.667 194 196.667 194 228c0 42 -27.333 88 -82 138z" />
    <glyph glyph-name="Agrave" unicode="&#xc0;" horiz-adv-x="1318" 
d="M822 430l-384 -0.00292969c-56 -168 -84 -266.333 -84 -295c0 -20.667 9.83301 -34.334 29.5 -41.001s54.5 -12 104.5 -16v-78h-438v78c56.667 4.66699 96.5 14.834 119.5 30.501s51.167 68.834 84.5 159.501l372 1022l84 24l212 -642
c74.667 -222.667 125.5 -368.667 152.5 -438s51.5 -111.666 73.5 -126.999s62 -25 120 -29v-78h-468v78c42 4 73 9 93 15s30 17.667 30 35c0 11.333 -11.333 51.833 -34 121.5s-45 129.834 -67 180.501zM472 537.997h316l-152 488h-4zM727 1411l-279 98.001
c-75.333 26.667 -116.5 42.667 -123.5 48s-10.5 12.333 -10.5 21c0 9.33301 12.167 30.166 36.5 62.499s45.5 48.5 63.5 48.5c6 0 11.5 -0.833008 16.5 -2.5s41.5 -24.167 109.5 -67.5l227 -142z" />
    <glyph glyph-name="Aacute" unicode="&#xc1;" horiz-adv-x="1318" 
d="M822 430l-384 -0.00292969c-56 -168 -84 -266.333 -84 -295c0 -20.667 9.83301 -34.334 29.5 -41.001s54.5 -12 104.5 -16v-78h-438v78c56.667 4.66699 96.5 14.834 119.5 30.501s51.167 68.834 84.5 159.501l372 1022l84 24l212 -642
c74.667 -222.667 125.5 -368.667 152.5 -438s51.5 -111.666 73.5 -126.999s62 -25 120 -29v-78h-468v78c42 4 73 9 93 15s30 17.667 30 35c0 11.333 -11.333 51.833 -34 121.5s-45 129.834 -67 180.501zM472 537.997h316l-152 488h-4zM571 1477l226 139.999
c69.333 43.333 106.5 66 111.5 68s10.167 3 15.5 3c18 0 38.833 -15.833 62.5 -47.5s35.5 -52.5 35.5 -62.5c0 -9.33301 -3.83301 -16.666 -11.5 -21.999s-51.167 -22 -130.5 -50l-271 -95z" />
    <glyph glyph-name="Acircumflex" unicode="&#xc2;" horiz-adv-x="1318" 
d="M822 430l-384 -0.00292969c-56 -168 -84 -266.333 -84 -295c0 -20.667 9.83301 -34.334 29.5 -41.001s54.5 -12 104.5 -16v-78h-438v78c56.667 4.66699 96.5 14.834 119.5 30.501s51.167 68.834 84.5 159.501l372 1022l84 24l212 -642
c74.667 -222.667 125.5 -368.667 152.5 -438s51.5 -111.666 73.5 -126.999s62 -25 120 -29v-78h-468v78c42 4 73 9 93 15s30 17.667 30 35c0 11.333 -11.333 51.833 -34 121.5s-45 129.834 -67 180.501zM472 537.997h316l-152 488h-4zM640 1664h63.999
c60.667 -62.667 144 -130.667 250 -204l-42 -68c-97.333 42 -178 86 -242 132c-74 -50.667 -154 -94.667 -240 -132l-44 68c92.667 60.667 177.334 128.667 254.001 204z" />
    <glyph glyph-name="Atilde" unicode="&#xc3;" horiz-adv-x="1318" 
d="M822 430l-384 -0.00292969c-56 -168 -84 -266.333 -84 -295c0 -20.667 9.83301 -34.334 29.5 -41.001s54.5 -12 104.5 -16v-78h-438v78c56.667 4.66699 96.5 14.834 119.5 30.501s51.167 68.834 84.5 159.501l372 1022l84 24l212 -642
c74.667 -222.667 125.5 -368.667 152.5 -438s51.5 -111.666 73.5 -126.999s62 -25 120 -29v-78h-468v78c42 4 73 9 93 15s30 17.667 30 35c0 11.333 -11.333 51.833 -34 121.5s-45 129.834 -67 180.501zM472 537.997h316l-152 488h-4zM383 1474
c58 100 119.335 150 184.002 150c27.333 0 71.333 -12.667 132 -38c48 -20 85.333 -30 112 -30c32 0 64 28 96 84l76 -44c-48 -105.333 -111.333 -158 -190 -158c-24.667 0 -75.334 15.333 -152.001 46c-39.333 14.667 -68 22 -86 22c-32.667 0 -65.334 -28.667 -98.001 -86
z" />
    <glyph glyph-name="Adieresis" unicode="&#xc4;" horiz-adv-x="1318" 
d="M822 430l-384 -0.00292969c-56 -168 -84 -266.333 -84 -295c0 -20.667 9.83301 -34.334 29.5 -41.001s54.5 -12 104.5 -16v-78h-438v78c56.667 4.66699 96.5 14.834 119.5 30.501s51.167 68.834 84.5 159.501l372 1022l84 24l212 -642
c74.667 -222.667 125.5 -368.667 152.5 -438s51.5 -111.666 73.5 -126.999s62 -25 120 -29v-78h-468v78c42 4 73 9 93 15s30 17.667 30 35c0 11.333 -11.333 51.833 -34 121.5s-45 129.834 -67 180.501zM472 537.997h316l-152 488h-4zM978 1538c0 -34 -11 -61.833 -33 -83.5
s-49.667 -32.5 -83 -32.5c-34.667 0 -63 10.833 -85 32.5s-33 49.5 -33 83.5s11.333 63.167 34 87.5s50.667 36.5 84 36.5c32 0 59.333 -12.333 82 -37s34 -53.667 34 -87zM574 1538c0 -33.333 -11.002 -61 -33.002 -83s-49.667 -33 -83 -33
c-35.333 0 -64.166 10.833 -86.499 32.5s-33.5 49.5 -33.5 83.5s11.333 63.167 34 87.5s51.334 36.5 86.001 36.5c32 0 59.333 -12.333 82 -37s34 -53.667 34 -87z" />
    <glyph glyph-name="Aring" unicode="&#xc5;" horiz-adv-x="1318" 
d="M822 430l-384 -0.00292969c-56 -168 -84 -266.333 -84 -295c0 -20.667 9.83301 -34.334 29.5 -41.001s54.5 -12 104.5 -16v-78h-438v78c56.667 4.66699 96.5 14.834 119.5 30.501s51.167 68.834 84.5 159.501l372 1022l84 24l212 -642
c74.667 -222.667 125.5 -368.667 152.5 -438s51.5 -111.666 73.5 -126.999s62 -25 120 -29v-78h-468v78c42 4 73 9 93 15s30 17.667 30 35c0 11.333 -11.333 51.833 -34 121.5s-45 129.834 -67 180.501zM472 537.997h316l-152 488h-4zM445 1612c0 58.667 21 106.667 63 144
s92.333 56 151 56s109 -18.667 151 -56s63 -85.333 63 -144c0 -60 -21.167 -109.333 -63.5 -148s-92.5 -58 -150.5 -58s-108.167 19.333 -150.5 58s-63.5 88 -63.5 148zM767 1610c0 35.333 -9.66699 63.501 -29 84.501s-45 31.5 -77 31.5s-57.667 -10.5 -77 -31.5
s-29 -48.5 -29 -82.5c0 -34.667 9.83301 -63.334 29.5 -86.001s45.167 -34 76.5 -34c30.667 0 56 11.167 76 33.5s30 50.5 30 84.5z" />
    <glyph glyph-name="AE" unicode="&#xc6;" horiz-adv-x="1704" 
d="M846 300l0.000976562 319.998h-298c-136.667 -287.333 -205 -448.666 -205 -483.999c0 -19.333 10.5 -33.166 31.5 -41.499s53.5 -14.5 97.5 -18.5v-76h-462v76c47.333 6.66699 82.166 14.5 104.499 23.5s43 25.833 62 50.5s59.833 99.334 122.5 224.001l336 670
c34.667 69.333 52 110.666 52 123.999c0 10.667 -5 19 -15 25s-51.333 12.333 -124 19v76h990c12 -166.667 19.333 -264.667 22 -294l-86 -8c-18.667 85.333 -43 141.666 -73 168.999s-90.333 41 -181 41h-142c-30.667 0 -48.334 -2.83301 -53.001 -8.5s-7 -23.5 -7 -53.5
v-416h170c58 0 97.833 2.83301 119.5 8.5s36.334 17 44.001 34s15.167 50.167 22.5 99.5h86v-390h-86c-8 50.667 -16.167 85.334 -24.5 104.001s-23.333 31 -45 37s-60.5 9 -116.5 9h-170v-320c0 -68.667 5.33301 -117 16 -145s30.5 -45.5 59.5 -52.5
s80.5 -10.5 154.5 -10.5c53.333 0 95.5 2.16699 126.5 6.5s55.667 12.833 74 25.5s39 38.5 62 77.5s41.5 83.167 55.5 132.5l86 -12c-14.667 -108 -36.667 -215.333 -66 -322h-922v78c62 5.33301 104.333 12.333 127 21s37.5 26.5 44.5 53.5s10.5 76.167 10.5 147.5z
M594.001 717.998h252v484h-12c-68.667 -126 -148.667 -287.333 -240 -484z" />
    <glyph glyph-name="Ccedilla" unicode="&#xc7;" horiz-adv-x="1208" 
d="M1068 372l88 -20.001c-52.667 -190.667 -85.334 -300 -98.001 -328c-81.333 -24.667 -167.333 -40 -258 -46c-27.333 -40.667 -41 -64.667 -41 -72c0 -10 8.33301 -24.667 25 -44c48 -52 72 -99.333 72 -142c0 -84 -74.667 -154.667 -224 -212l-36 68
c80 39.333 120 81.333 120 126c0 17.333 -14 40 -42 68c-28.667 30.667 -43 56.334 -43 77.001c0 8.66699 1.83301 17.667 5.5 27s26.167 43.333 67.5 102c-195.333 10 -345.166 75.833 -449.499 197.5s-156.5 272.5 -156.5 452.5c0 200.667 64.167 365.5 192.5 494.5
s290.833 193.5 487.5 193.5c80 0 181.333 -14.667 304 -44l34 -320l-86 -10c-36 185.333 -134.667 278 -296 278c-132.667 0 -237.5 -50.167 -314.5 -150.5s-115.5 -233.5 -115.5 -399.5c0 -184 40.167 -330 120.5 -438s182.833 -162 307.5 -162c78.667 0 143 23 193 69
s97.667 124.333 143 235z" />
    <glyph glyph-name="Egrave" unicode="&#xc8;" horiz-adv-x="1124" 
d="M258 258l0.00292969 774c0 56.667 -3.33301 96 -10 118s-20.334 36.667 -41.001 44s-58.334 13.333 -113.001 18v76h864c12.667 -176 20 -274.667 22 -296l-86 -10c-18 85.333 -40.333 142 -67 170s-87 42 -181 42h-152c-33.333 0 -51.666 -4 -54.999 -12
s-5 -24.667 -5 -50v-412h174c58 0 98 2.66699 120 8s36.667 16.333 44 33s14.666 49 21.999 97h86v-388h-86c-8.66699 52 -17.167 87.167 -25.5 105.5s-23.166 30.333 -44.499 36s-60 8.5 -116 8.5h-174v-348c0 -56 6 -97 18 -123s32.833 -42 62.5 -48s80.834 -9 153.501 -9
c53.333 0 95.666 2.33301 126.999 7s56.166 13.5 74.499 26.5s38.833 38.833 61.5 77.5s41.667 83 57 133l84 -14c-26 -152 -48 -259.333 -66 -322h-928v78c61.333 4.66699 103.166 10.5 125.499 17.5s37 21.5 44 43.5s10.5 61.667 10.5 119zM642.003 1442l-279 98.001
c-75.333 26.667 -116.5 42.667 -123.5 48s-10.5 12.333 -10.5 21c0 9.33301 12.167 30.166 36.5 62.499s45.5 48.5 63.5 48.5c6 0 11.5 -0.833008 16.5 -2.5s41.5 -24.167 109.5 -67.5l227 -142z" />
    <glyph glyph-name="Eacute" unicode="&#xc9;" horiz-adv-x="1124" 
d="M258 258l0.00292969 774c0 56.667 -3.33301 96 -10 118s-20.334 36.667 -41.001 44s-58.334 13.333 -113.001 18v76h864c12.667 -176 20 -274.667 22 -296l-86 -10c-18 85.333 -40.333 142 -67 170s-87 42 -181 42h-152c-33.333 0 -51.666 -4 -54.999 -12
s-5 -24.667 -5 -50v-412h174c58 0 98 2.66699 120 8s36.667 16.333 44 33s14.666 49 21.999 97h86v-388h-86c-8.66699 52 -17.167 87.167 -25.5 105.5s-23.166 30.333 -44.499 36s-60 8.5 -116 8.5h-174v-348c0 -56 6 -97 18 -123s32.833 -42 62.5 -48s80.834 -9 153.501 -9
c53.333 0 95.666 2.33301 126.999 7s56.166 13.5 74.499 26.5s38.833 38.833 61.5 77.5s41.667 83 57 133l84 -14c-26 -152 -48 -259.333 -66 -322h-928v78c61.333 4.66699 103.166 10.5 125.499 17.5s37 21.5 44 43.5s10.5 61.667 10.5 119zM478.003 1448l226 139.999
c69.333 43.333 106.5 66 111.5 68s10.167 3 15.5 3c18 0 38.833 -15.833 62.5 -47.5s35.5 -52.5 35.5 -62.5c0 -9.33301 -3.83301 -16.666 -11.5 -21.999s-51.167 -22 -130.5 -50l-271 -95z" />
    <glyph glyph-name="Ecircumflex" unicode="&#xca;" horiz-adv-x="1124" 
d="M258 258l0.00292969 774c0 56.667 -3.33301 96 -10 118s-20.334 36.667 -41.001 44s-58.334 13.333 -113.001 18v76h864c12.667 -176 20 -274.667 22 -296l-86 -10c-18 85.333 -40.333 142 -67 170s-87 42 -181 42h-152c-33.333 0 -51.666 -4 -54.999 -12
s-5 -24.667 -5 -50v-412h174c58 0 98 2.66699 120 8s36.667 16.333 44 33s14.666 49 21.999 97h86v-388h-86c-8.66699 52 -17.167 87.167 -25.5 105.5s-23.166 30.333 -44.499 36s-60 8.5 -116 8.5h-174v-348c0 -56 6 -97 18 -123s32.833 -42 62.5 -48s80.834 -9 153.501 -9
c53.333 0 95.666 2.33301 126.999 7s56.166 13.5 74.499 26.5s38.833 38.833 61.5 77.5s41.667 83 57 133l84 -14c-26 -152 -48 -259.333 -66 -322h-928v78c61.333 4.66699 103.166 10.5 125.499 17.5s37 21.5 44 43.5s10.5 61.667 10.5 119zM556.003 1674h63.999
c60.667 -62.667 144 -130.667 250 -204l-42 -68c-97.333 42 -178 86 -242 132c-74 -50.667 -154 -94.667 -240 -132l-44 68c92.667 60.667 177.334 128.667 254.001 204z" />
    <glyph glyph-name="Edieresis" unicode="&#xcb;" horiz-adv-x="1124" 
d="M258 258l0.00292969 774c0 56.667 -3.33301 96 -10 118s-20.334 36.667 -41.001 44s-58.334 13.333 -113.001 18v76h864c12.667 -176 20 -274.667 22 -296l-86 -10c-18 85.333 -40.333 142 -67 170s-87 42 -181 42h-152c-33.333 0 -51.666 -4 -54.999 -12
s-5 -24.667 -5 -50v-412h174c58 0 98 2.66699 120 8s36.667 16.333 44 33s14.666 49 21.999 97h86v-388h-86c-8.66699 52 -17.167 87.167 -25.5 105.5s-23.166 30.333 -44.499 36s-60 8.5 -116 8.5h-174v-348c0 -56 6 -97 18 -123s32.833 -42 62.5 -48s80.834 -9 153.501 -9
c53.333 0 95.666 2.33301 126.999 7s56.166 13.5 74.499 26.5s38.833 38.833 61.5 77.5s41.667 83 57 133l84 -14c-26 -152 -48 -259.333 -66 -322h-928v78c61.333 4.66699 103.166 10.5 125.499 17.5s37 21.5 44 43.5s10.5 61.667 10.5 119zM890.003 1538
c0 -34 -11 -61.833 -33 -83.5s-49.667 -32.5 -83 -32.5c-34.667 0 -63 10.833 -85 32.5s-33 49.5 -33 83.5s11.333 63.167 34 87.5s50.667 36.5 84 36.5c32 0 59.333 -12.333 82 -37s34 -53.667 34 -87zM486.003 1538c0 -33.333 -11.002 -61 -33.002 -83
s-49.667 -33 -83 -33c-35.333 0 -64.166 10.833 -86.499 32.5s-33.5 49.5 -33.5 83.5s11.333 63.167 34 87.5s51.334 36.5 86.001 36.5c32 0 59.333 -12.333 82 -37s34 -53.667 34 -87z" />
    <glyph glyph-name="Igrave" unicode="&#xcc;" horiz-adv-x="692" 
d="M258 258l-0.00390625 772c0 79.333 -8.66699 127.833 -26 145.5s-65.333 29.167 -144 34.5v78h516v-78c-78.667 -5.33301 -126.667 -16.833 -144 -34.5s-26 -66.167 -26 -145.5v-772c0 -57.333 3.33301 -97 10 -119s20.834 -36.833 42.501 -44.5
s60.834 -13.167 117.501 -16.5v-78h-516v78c56.667 3.33301 95.834 8.83301 117.501 16.5s35.834 22.5 42.501 44.5s10 61.667 10 119zM402.996 1413l-279 98.001c-75.333 26.667 -116.5 42.667 -123.5 48s-10.5 12.333 -10.5 21c0 9.33301 12.167 30.166 36.5 62.499
s45.5 48.5 63.5 48.5c6 0 11.5 -0.833008 16.5 -2.5s41.5 -24.167 109.5 -67.5l227 -142z" />
    <glyph glyph-name="Iacute" unicode="&#xcd;" horiz-adv-x="692" 
d="M258 258l-0.00390625 772c0 79.333 -8.66699 127.833 -26 145.5s-65.333 29.167 -144 34.5v78h516v-78c-78.667 -5.33301 -126.667 -16.833 -144 -34.5s-26 -66.167 -26 -145.5v-772c0 -57.333 3.33301 -97 10 -119s20.834 -36.833 42.501 -44.5
s60.834 -13.167 117.501 -16.5v-78h-516v78c56.667 3.33301 95.834 8.83301 117.501 16.5s35.834 22.5 42.501 44.5s10 61.667 10 119zM263.996 1478l226 139.999c69.333 43.333 106.5 66 111.5 68s10.167 3 15.5 3c18 0 38.833 -15.833 62.5 -47.5s35.5 -52.5 35.5 -62.5
c0 -9.33301 -3.83301 -16.666 -11.5 -21.999s-51.167 -22 -130.5 -50l-271 -95z" />
    <glyph glyph-name="Icircumflex" unicode="&#xce;" horiz-adv-x="692" 
d="M258 258l-0.00390625 772c0 79.333 -8.66699 127.833 -26 145.5s-65.333 29.167 -144 34.5v78h516v-78c-78.667 -5.33301 -126.667 -16.833 -144 -34.5s-26 -66.167 -26 -145.5v-772c0 -57.333 3.33301 -97 10 -119s20.834 -36.833 42.501 -44.5
s60.834 -13.167 117.501 -16.5v-78h-516v78c56.667 3.33301 95.834 8.83301 117.501 16.5s35.834 22.5 42.501 44.5s10 61.667 10 119zM316.996 1684h63.999c60.667 -62.667 144 -130.667 250 -204l-42 -68c-97.333 42 -178 86 -242 132c-74 -50.667 -154 -94.667 -240 -132
l-44 68c92.667 60.667 177.334 128.667 254.001 204z" />
    <glyph glyph-name="Idieresis" unicode="&#xcf;" horiz-adv-x="692" 
d="M258 258l-0.00390625 772c0 79.333 -8.66699 127.833 -26 145.5s-65.333 29.167 -144 34.5v78h516v-78c-78.667 -5.33301 -126.667 -16.833 -144 -34.5s-26 -66.167 -26 -145.5v-772c0 -57.333 3.33301 -97 10 -119s20.834 -36.833 42.501 -44.5
s60.834 -13.167 117.501 -16.5v-78h-516v78c56.667 3.33301 95.834 8.83301 117.501 16.5s35.834 22.5 42.501 44.5s10 61.667 10 119zM666.996 1538c0 -34 -11 -61.833 -33 -83.5s-49.667 -32.5 -83 -32.5c-34.667 0 -63 10.833 -85 32.5s-33 49.5 -33 83.5
s11.333 63.167 34 87.5s50.667 36.5 84 36.5c32 0 59.333 -12.333 82 -37s34 -53.667 34 -87zM262.996 1538c0 -33.333 -11.002 -61 -33.002 -83s-49.667 -33 -83 -33c-35.333 0 -64.166 10.833 -86.499 32.5s-33.5 49.5 -33.5 83.5s11.333 63.167 34 87.5
s51.334 36.5 86.001 36.5c32 0 59.333 -12.333 82 -37s34 -53.667 34 -87z" />
    <glyph glyph-name="Eth" unicode="&#xd0;" horiz-adv-x="1396" 
d="M284 294l-0.000976562 325.998h-194v102h194v270c0 70 -3.33301 118.5 -10 145.5s-20.167 45 -40.5 54s-57.5 15.167 -111.5 18.5v78h486c244.667 0 420.834 -56.667 528.501 -170s161.5 -255.333 161.5 -426c0 -223.333 -68.5 -394.5 -205.5 -513.5
s-327.833 -178.5 -572.5 -178.5h-412v76c59.333 4.66699 100 11.334 122 20.001s36.5 26.334 43.5 53.001s10.5 75 10.5 145zM459.999 1124v-402h290v-102h-290v-336c0 -74 10.333 -123.167 31 -147.5s65 -36.5 133 -36.5c150.667 0 267 48.667 349 146s123 232 123 404
c0 176.667 -41.167 312.167 -123.5 406.5s-208.5 141.5 -378.5 141.5c-76 0 -117.333 -5.66699 -124 -17s-10 -30.333 -10 -57z" />
    <glyph glyph-name="Ntilde" unicode="&#xd1;" horiz-adv-x="1390" 
d="M254 510l0.00292969 421.999c0 92 -3.33301 152.167 -10 180.5s-24.834 50.833 -54.501 67.5s-74.834 26.667 -135.501 30v78h300l684 -964h6v448c0 227.333 -11.333 356.166 -34 386.499s-77.334 47.5 -164.001 51.5v78h488v-78c-90 -2 -142.167 -25.667 -156.5 -71
s-21.5 -167.666 -21.5 -366.999v-786h-98l-686 986h-6v-462c0 -197.333 7.33301 -318.166 22 -362.499s74 -67.5 178 -69.5v-78h-484v78c86.667 1.33301 137 24.833 151 70.5s21 166.167 21 361.5zM403.003 1474c58 100 119.335 150 184.002 150
c27.333 0 71.333 -12.667 132 -38c48 -20 85.333 -30 112 -30c32 0 64 28 96 84l76 -44c-48 -105.333 -111.333 -158 -190 -158c-24.667 0 -75.334 15.333 -152.001 46c-39.333 14.667 -68 22 -86 22c-32.667 0 -65.334 -28.667 -98.001 -86z" />
    <glyph glyph-name="Ograve" unicode="&#xd2;" horiz-adv-x="1354" 
d="M100 632c0 187.333 54.501 347.833 163.501 481.5s252.5 200.5 430.5 200.5c156 0 288.333 -61.333 397 -184s163 -278.667 163 -468c0 -206.667 -54.833 -373 -164.5 -499s-249.5 -189 -419.5 -189c-164.667 0 -300.834 62.167 -408.501 186.5
s-161.5 281.5 -161.5 471.5zM1048 592c0 206.667 -34.166 363 -102.499 469s-165.5 159 -291.5 159c-106 0 -189.833 -46.5 -251.5 -139.5s-92.5 -224.5 -92.5 -394.5c0 -188 35.167 -338 105.5 -450s167.166 -168 290.499 -168c110 0 194.5 44.667 253.5 134
s88.5 219.333 88.5 390zM745.002 1411l-279 98.001c-75.333 26.667 -116.5 42.667 -123.5 48s-10.5 12.333 -10.5 21c0 9.33301 12.167 30.166 36.5 62.499s45.5 48.5 63.5 48.5c6 0 11.5 -0.833008 16.5 -2.5s41.5 -24.167 109.5 -67.5l227 -142z" />
    <glyph glyph-name="Oacute" unicode="&#xd3;" horiz-adv-x="1354" 
d="M100 632c0 187.333 54.501 347.833 163.501 481.5s252.5 200.5 430.5 200.5c156 0 288.333 -61.333 397 -184s163 -278.667 163 -468c0 -206.667 -54.833 -373 -164.5 -499s-249.5 -189 -419.5 -189c-164.667 0 -300.834 62.167 -408.501 186.5
s-161.5 281.5 -161.5 471.5zM1048 592c0 206.667 -34.166 363 -102.499 469s-165.5 159 -291.5 159c-106 0 -189.833 -46.5 -251.5 -139.5s-92.5 -224.5 -92.5 -394.5c0 -188 35.167 -338 105.5 -450s167.166 -168 290.499 -168c110 0 194.5 44.667 253.5 134
s88.5 219.333 88.5 390zM577.002 1477l226 139.999c69.333 43.333 106.5 66 111.5 68s10.167 3 15.5 3c18 0 38.833 -15.833 62.5 -47.5s35.5 -52.5 35.5 -62.5c0 -9.33301 -3.83301 -16.666 -11.5 -21.999s-51.167 -22 -130.5 -50l-271 -95z" />
    <glyph glyph-name="Ocircumflex" unicode="&#xd4;" horiz-adv-x="1354" 
d="M100 632c0 187.333 54.501 347.833 163.501 481.5s252.5 200.5 430.5 200.5c156 0 288.333 -61.333 397 -184s163 -278.667 163 -468c0 -206.667 -54.833 -373 -164.5 -499s-249.5 -189 -419.5 -189c-164.667 0 -300.834 62.167 -408.501 186.5
s-161.5 281.5 -161.5 471.5zM1048 592c0 206.667 -34.166 363 -102.499 469s-165.5 159 -291.5 159c-106 0 -189.833 -46.5 -251.5 -139.5s-92.5 -224.5 -92.5 -394.5c0 -188 35.167 -338 105.5 -450s167.166 -168 290.499 -168c110 0 194.5 44.667 253.5 134
s88.5 219.333 88.5 390zM649.002 1683h63.999c60.667 -62.667 144 -130.667 250 -204l-42 -68c-97.333 42 -178 86 -242 132c-74 -50.667 -154 -94.667 -240 -132l-44 68c92.667 60.667 177.334 128.667 254.001 204z" />
    <glyph glyph-name="Otilde" unicode="&#xd5;" horiz-adv-x="1354" 
d="M100 632c0 187.333 54.501 347.833 163.501 481.5s252.5 200.5 430.5 200.5c156 0 288.333 -61.333 397 -184s163 -278.667 163 -468c0 -206.667 -54.833 -373 -164.5 -499s-249.5 -189 -419.5 -189c-164.667 0 -300.834 62.167 -408.501 186.5
s-161.5 281.5 -161.5 471.5zM1048 592c0 206.667 -34.166 363 -102.499 469s-165.5 159 -291.5 159c-106 0 -189.833 -46.5 -251.5 -139.5s-92.5 -224.5 -92.5 -394.5c0 -188 35.167 -338 105.5 -450s167.166 -168 290.499 -168c110 0 194.5 44.667 253.5 134
s88.5 219.333 88.5 390zM381.002 1474c58 100 119.335 150 184.002 150c27.333 0 71.333 -12.667 132 -38c48 -20 85.333 -30 112 -30c32 0 64 28 96 84l76 -44c-48 -105.333 -111.333 -158 -190 -158c-24.667 0 -75.334 15.333 -152.001 46c-39.333 14.667 -68 22 -86 22
c-32.667 0 -65.334 -28.667 -98.001 -86z" />
    <glyph glyph-name="Odieresis" unicode="&#xd6;" horiz-adv-x="1354" 
d="M100 632c0 187.333 54.501 347.833 163.501 481.5s252.5 200.5 430.5 200.5c156 0 288.333 -61.333 397 -184s163 -278.667 163 -468c0 -206.667 -54.833 -373 -164.5 -499s-249.5 -189 -419.5 -189c-164.667 0 -300.834 62.167 -408.501 186.5
s-161.5 281.5 -161.5 471.5zM1048 592c0 206.667 -34.166 363 -102.499 469s-165.5 159 -291.5 159c-106 0 -189.833 -46.5 -251.5 -139.5s-92.5 -224.5 -92.5 -394.5c0 -188 35.167 -338 105.5 -450s167.166 -168 290.499 -168c110 0 194.5 44.667 253.5 134
s88.5 219.333 88.5 390zM998.002 1538c0 -34 -11 -61.833 -33 -83.5s-49.667 -32.5 -83 -32.5c-34.667 0 -63 10.833 -85 32.5s-33 49.5 -33 83.5s11.333 63.167 34 87.5s50.667 36.5 84 36.5c32 0 59.333 -12.333 82 -37s34 -53.667 34 -87zM594.002 1538
c0 -33.333 -11.002 -61 -33.002 -83s-49.667 -33 -83 -33c-35.333 0 -64.166 10.833 -86.499 32.5s-33.5 49.5 -33.5 83.5s11.333 63.167 34 87.5s51.334 36.5 86.001 36.5c32 0 59.333 -12.333 82 -37s34 -53.667 34 -87z" />
    <glyph glyph-name="multiply" unicode="&#xd7;" horiz-adv-x="1272" 
d="M1138 952l-408 -416l408 -414l-96 -102l-408 418l-404 -418l-96 102l404 414l-404 418l96 98l404 -418l408 418z" />
    <glyph glyph-name="Oslash" unicode="&#xd8;" horiz-adv-x="1354" 
d="M958 1242l87.999 142l86 -52l-90 -148c141.333 -128.667 212 -302.667 212 -522c0 -204.667 -55 -370.5 -165 -497.5s-249.667 -190.5 -419 -190.5c-101.333 0 -198.666 27.333 -291.999 82l-92 -148l-82 60l96 152c-133.333 126.667 -200 296.667 -200 510
c0 188 54.167 349 162.5 483s250.833 201 427.5 201c98 0 187.333 -24 268 -72zM389.999 272l504 864c-59.333 56 -140 84 -242 84c-104.667 0 -188.5 -47 -251.5 -141s-94.5 -225.667 -94.5 -395c0 -164 28 -301.333 84 -412zM957.999 1044l-506 -866
c60 -73.333 144 -110 252 -110c111.333 0 196.5 44.5 255.5 133.5s88.5 219.833 88.5 392.5c0 204 -30 354 -90 450z" />
    <glyph glyph-name="Ugrave" unicode="&#xd9;" horiz-adv-x="1398" 
d="M242 506l0.000976562 527.998c0 77.333 -8.83301 125 -26.5 143s-66.834 29 -147.501 33v78h516v-78c-76.667 -5.33301 -123.5 -16.666 -140.5 -33.999s-25.5 -64.666 -25.5 -141.999v-458c0 -105.333 10.5 -193 31.5 -263s54.167 -123 99.5 -159s109 -54 191 -54
c114 0 196.5 45.5 247.5 136.5s76.5 227.5 76.5 409.5v118c0 222.667 -8.33301 352 -25 388s-75 55.333 -175 58v78h490v-78c-91.333 0 -143.833 -23.667 -157.5 -71s-20.5 -172.333 -20.5 -375v-152c0 -244 -46.667 -411.333 -140 -502s-205.333 -136 -336 -136
c-150.667 0 -264.667 41.333 -342 124s-116 218.667 -116 408zM772.001 1413l-279 98.001c-75.333 26.667 -116.5 42.667 -123.5 48s-10.5 12.333 -10.5 21c0 9.33301 12.167 30.166 36.5 62.499s45.5 48.5 63.5 48.5c6 0 11.5 -0.833008 16.5 -2.5
s41.5 -24.167 109.5 -67.5l227 -142z" />
    <glyph glyph-name="Uacute" unicode="&#xda;" horiz-adv-x="1398" 
d="M242 506l0.000976562 527.998c0 77.333 -8.83301 125 -26.5 143s-66.834 29 -147.501 33v78h516v-78c-76.667 -5.33301 -123.5 -16.666 -140.5 -33.999s-25.5 -64.666 -25.5 -141.999v-458c0 -105.333 10.5 -193 31.5 -263s54.167 -123 99.5 -159s109 -54 191 -54
c114 0 196.5 45.5 247.5 136.5s76.5 227.5 76.5 409.5v118c0 222.667 -8.33301 352 -25 388s-75 55.333 -175 58v78h490v-78c-91.333 0 -143.833 -23.667 -157.5 -71s-20.5 -172.333 -20.5 -375v-152c0 -244 -46.667 -411.333 -140 -502s-205.333 -136 -336 -136
c-150.667 0 -264.667 41.333 -342 124s-116 218.667 -116 408zM642.001 1478l226 139.999c69.333 43.333 106.5 66 111.5 68s10.167 3 15.5 3c18 0 38.833 -15.833 62.5 -47.5s35.5 -52.5 35.5 -62.5c0 -9.33301 -3.83301 -16.666 -11.5 -21.999s-51.167 -22 -130.5 -50
l-271 -95z" />
    <glyph glyph-name="Ucircumflex" unicode="&#xdb;" horiz-adv-x="1398" 
d="M242 506l0.000976562 527.998c0 77.333 -8.83301 125 -26.5 143s-66.834 29 -147.501 33v78h516v-78c-76.667 -5.33301 -123.5 -16.666 -140.5 -33.999s-25.5 -64.666 -25.5 -141.999v-458c0 -105.333 10.5 -193 31.5 -263s54.167 -123 99.5 -159s109 -54 191 -54
c114 0 196.5 45.5 247.5 136.5s76.5 227.5 76.5 409.5v118c0 222.667 -8.33301 352 -25 388s-75 55.333 -175 58v78h490v-78c-91.333 0 -143.833 -23.667 -157.5 -71s-20.5 -172.333 -20.5 -375v-152c0 -244 -46.667 -411.333 -140 -502s-205.333 -136 -336 -136
c-150.667 0 -264.667 41.333 -342 124s-116 218.667 -116 408zM700.001 1684h63.999c60.667 -62.667 144 -130.667 250 -204l-42 -68c-97.333 42 -178 86 -242 132c-74 -50.667 -154 -94.667 -240 -132l-44 68c92.667 60.667 177.334 128.667 254.001 204z" />
    <glyph glyph-name="Udieresis" unicode="&#xdc;" horiz-adv-x="1398" 
d="M242 506l0.000976562 527.998c0 77.333 -8.83301 125 -26.5 143s-66.834 29 -147.501 33v78h516v-78c-76.667 -5.33301 -123.5 -16.666 -140.5 -33.999s-25.5 -64.666 -25.5 -141.999v-458c0 -105.333 10.5 -193 31.5 -263s54.167 -123 99.5 -159s109 -54 191 -54
c114 0 196.5 45.5 247.5 136.5s76.5 227.5 76.5 409.5v118c0 222.667 -8.33301 352 -25 388s-75 55.333 -175 58v78h490v-78c-91.333 0 -143.833 -23.667 -157.5 -71s-20.5 -172.333 -20.5 -375v-152c0 -244 -46.667 -411.333 -140 -502s-205.333 -136 -336 -136
c-150.667 0 -264.667 41.333 -342 124s-116 218.667 -116 408zM1060 1538c0 -34 -11 -61.833 -33 -83.5s-49.667 -32.5 -83 -32.5c-34.667 0 -63 10.833 -85 32.5s-33 49.5 -33 83.5s11.333 63.167 34 87.5s50.667 36.5 84 36.5c32 0 59.333 -12.333 82 -37
s34 -53.667 34 -87zM656.001 1538c0 -33.333 -11.002 -61 -33.002 -83s-49.667 -33 -83 -33c-35.333 0 -64.166 10.833 -86.499 32.5s-33.5 49.5 -33.5 83.5s11.333 63.167 34 87.5s51.334 36.5 86.001 36.5c32 0 59.333 -12.333 82 -37s34 -53.667 34 -87z" />
    <glyph glyph-name="Yacute" unicode="&#xdd;" horiz-adv-x="1226" 
d="M518 254l-0.000976562 251.994c0 32 -6.66699 61.333 -20 88l-147 272c-74.667 142.667 -120.834 228.334 -138.501 257.001s-36.667 48.834 -57 60.501s-55.5 20.5 -105.5 26.5v78h464v-78c-40.667 -4 -70.667 -8.83301 -90 -14.5s-29 -15.5 -29 -29.5
c0 -9.33301 3.33301 -21.666 10 -36.999l95 -183c56.667 -107.333 103.334 -192.666 140.001 -255.999c148 286.667 222 444 222 472c0 16.667 -10.833 28 -32.5 34s-55.5 10.667 -101.5 14v78h448v-78c-46.667 -4.66699 -82 -12.167 -106 -22.5
s-45.5 -27.666 -64.5 -51.999s-47.667 -69.666 -86 -135.999s-81.5 -145.333 -129.5 -237s-76 -147 -84 -166s-12 -42.5 -12 -70.5v-272c0 -78 9.83301 -125.5 29.5 -142.5s75.167 -28.167 166.5 -33.5v-78h-558v78c86.667 5.33301 139.334 16.5 158.001 33.5
s28 64.5 28 142.5zM567.999 1477.99l226 139.999c69.333 43.333 106.5 66 111.5 68s10.167 3 15.5 3c18 0 38.833 -15.833 62.5 -47.5s35.5 -52.5 35.5 -62.5c0 -9.33301 -3.83301 -16.666 -11.5 -21.999s-51.167 -22 -130.5 -50l-271 -95z" />
    <glyph glyph-name="Thorn" unicode="&#xde;" horiz-adv-x="1108" 
d="M248 296l0.00390625 696.002c0 69.333 -3.5 117.666 -10.5 144.999s-21.167 45.5 -42.5 54.5s-59.666 15.167 -114.999 18.5v78h512v-78c-56.667 -3.33301 -95.834 -9.5 -117.501 -18.5s-35.834 -26.333 -42.501 -52s-10 -72.167 -10 -139.5h186
c128.667 0 229.167 -28.5 301.5 -85.5s108.5 -139.167 108.5 -246.5c0 -118.667 -44.333 -209.334 -133 -272.001s-196.334 -94 -323.001 -94l-140 24v-44c0 -65.333 3.66699 -110.666 11 -135.999s22.666 -42 45.999 -50s65.666 -14 126.999 -18v-78h-528v78
c56.667 4 95.667 10.167 117 18.5s35.5 26.166 42.5 53.499s10.5 76 10.5 146zM422.004 846.002l0.000976562 -422c42 -20 87.333 -30 136 -30c84 0 149.333 22.833 196 68.5s70 109.5 70 191.5c0 170.667 -94 256 -282 256c-60.667 0 -95.834 -3.33301 -105.501 -10
s-14.5 -24.667 -14.5 -54z" />
    <glyph glyph-name="germandbls" unicode="&#xdf;" horiz-adv-x="1126" 
d="M220 214l-0.00195312 594.002h-132l-14 28l56 68h90v24c0 74 12.333 142.667 37 206s58.5 117.666 101.5 162.999s92.333 80.166 148 104.499s103.5 36.5 143.5 36.5c99.333 0 179.5 -27.667 240.5 -83s91.5 -133.333 91.5 -234c0 -56 -19.333 -107 -58 -153
c-116 -71.333 -174 -136.666 -174 -195.999c0 -18 9.5 -40.167 28.5 -66.5s59.5 -68.166 121.5 -125.499c98.667 -87.333 148 -178 148 -272c0 -94.667 -35 -174 -105 -238s-149.667 -96 -239 -96c-48 0 -88.833 8.83301 -122.5 26.5s-50.5 39.167 -50.5 64.5
c0 17.333 8.33301 34.5 25 51.5s31.334 25.5 44.001 25.5c6.66699 0 13.334 -2.66699 20.001 -8c43.333 -34.667 88.666 -52 135.999 -52c40 0 72 11.833 96 35.5s36 58.5 36 104.5c0 83.333 -43.333 159.333 -130 228c-117.333 94.667 -176 180 -176 256
c0 31.333 10.333 62.666 31 93.999s53.667 68 99 110c42.667 38 72.334 70 89.001 96s25 54 25 84c0 72 -20.333 130.667 -61 176s-93 68 -157 68c-74 0 -129.167 -36.833 -165.5 -110.5s-54.5 -196.167 -54.5 -367.5v-640c0 -58.667 5.33301 -95.334 16 -110.001
s40 -24 88 -28v-78h-414v78c67.333 5.33301 107.833 14.333 121.5 27s20.5 49 20.5 109z" />
    <glyph glyph-name="agrave" unicode="&#xe0;" horiz-adv-x="954" 
d="M760 670l0.00292969 -435.999c0 -77.333 20 -116 60 -116c17.333 0 42.666 8 75.999 24l28 -72l-194 -94c-20 0 -43.167 9.83301 -69.5 29.5s-46.5 50.5 -60.5 92.5c-120 -81.333 -202.667 -122 -248 -122c-70.667 0 -130.667 25.833 -180 77.5s-74 113.167 -74 184.5
c0 46 10.167 85.667 30.5 119s46.166 58.833 77.499 76.5s89 42.5 173 74.5c130 50 201.667 82.667 215 98v36c0 58.667 -14.333 104 -43 136s-67.667 48 -117 48c-26.667 0 -54 -9.66699 -82 -29s-54 -67 -78 -143c-10.667 -33.333 -31.334 -50 -62.001 -50
c-22 0 -43.833 9.16699 -65.5 27.5s-32.5 38.5 -32.5 60.5c0 15.333 3.83301 29.166 11.5 41.499s19.5 25.5 35.5 39.5s34.333 27.667 55 41s46 27.833 76 43.5s66.833 31.667 110.5 48s73.5 24.5 89.5 24.5c76 0 139.667 -21.667 191 -65s77 -108.333 77 -195z
M594.003 198.001l-0.000976562 304.001c-139.333 -62.667 -218.666 -99.334 -237.999 -110.001s-36.5 -26.5 -51.5 -47.5s-22.5 -48.5 -22.5 -82.5c0 -45.333 14.667 -82 44 -110s61.333 -42 96 -42c52.667 0 110 29.333 172 88zM489.002 1022l-211 185.002
c-56 49.333 -86.5 78.166 -91.5 86.499s-7.5 16.5 -7.5 24.5c0 17.333 17.5 35.166 52.5 53.499s57.5 27.5 67.5 27.5c9.33301 0 18 -2.83301 26 -8.5s34 -39.5 78 -101.5l150 -215z" />
    <glyph glyph-name="aacute" unicode="&#xe1;" horiz-adv-x="954" 
d="M760 670l0.00292969 -435.999c0 -77.333 20 -116 60 -116c17.333 0 42.666 8 75.999 24l28 -72l-194 -94c-20 0 -43.167 9.83301 -69.5 29.5s-46.5 50.5 -60.5 92.5c-120 -81.333 -202.667 -122 -248 -122c-70.667 0 -130.667 25.833 -180 77.5s-74 113.167 -74 184.5
c0 46 10.167 85.667 30.5 119s46.166 58.833 77.499 76.5s89 42.5 173 74.5c130 50 201.667 82.667 215 98v36c0 58.667 -14.333 104 -43 136s-67.667 48 -117 48c-26.667 0 -54 -9.66699 -82 -29s-54 -67 -78 -143c-10.667 -33.333 -31.334 -50 -62.001 -50
c-22 0 -43.833 9.16699 -65.5 27.5s-32.5 38.5 -32.5 60.5c0 15.333 3.83301 29.166 11.5 41.499s19.5 25.5 35.5 39.5s34.333 27.667 55 41s46 27.833 76 43.5s66.833 31.667 110.5 48s73.5 24.5 89.5 24.5c76 0 139.667 -21.667 191 -65s77 -108.333 77 -195z
M594.003 198.001l-0.000976562 304.001c-139.333 -62.667 -218.666 -99.334 -237.999 -110.001s-36.5 -26.5 -51.5 -47.5s-22.5 -48.5 -22.5 -82.5c0 -45.333 14.667 -82 44 -110s61.333 -42 96 -42c52.667 0 110 29.333 172 88zM410.002 1074l155.002 221.001
c41.333 59.333 66.166 91.833 74.499 97.5s17.166 8.5 26.499 8.5c10 0 31.667 -9.66699 65 -29s50 -37 50 -53c0 -8.66699 -2.5 -16.834 -7.5 -24.501s-37.167 -38.167 -96.5 -91.5l-203 -181z" />
    <glyph glyph-name="acircumflex" unicode="&#xe2;" horiz-adv-x="954" 
d="M760 670l0.00292969 -435.999c0 -77.333 20 -116 60 -116c17.333 0 42.666 8 75.999 24l28 -72l-194 -94c-20 0 -43.167 9.83301 -69.5 29.5s-46.5 50.5 -60.5 92.5c-120 -81.333 -202.667 -122 -248 -122c-70.667 0 -130.667 25.833 -180 77.5s-74 113.167 -74 184.5
c0 46 10.167 85.667 30.5 119s46.166 58.833 77.499 76.5s89 42.5 173 74.5c130 50 201.667 82.667 215 98v36c0 58.667 -14.333 104 -43 136s-67.667 48 -117 48c-26.667 0 -54 -9.66699 -82 -29s-54 -67 -78 -143c-10.667 -33.333 -31.334 -50 -62.001 -50
c-22 0 -43.833 9.16699 -65.5 27.5s-32.5 38.5 -32.5 60.5c0 15.333 3.83301 29.166 11.5 41.499s19.5 25.5 35.5 39.5s34.333 27.667 55 41s46 27.833 76 43.5s66.833 31.667 110.5 48s73.5 24.5 89.5 24.5c76 0 139.667 -21.667 191 -65s77 -108.333 77 -195z
M594.003 198.001l-0.000976562 304.001c-139.333 -62.667 -218.666 -99.334 -237.999 -110.001s-36.5 -26.5 -51.5 -47.5s-22.5 -48.5 -22.5 -82.5c0 -45.333 14.667 -82 44 -110s61.333 -42 96 -42c52.667 0 110 29.333 172 88zM418.002 1396h76
c46.667 -90 114 -198 202 -324l-82 -52l-158 208l-162 -208l-80 52c93.333 133.333 161.333 241.333 204 324z" />
    <glyph glyph-name="atilde" unicode="&#xe3;" horiz-adv-x="954" 
d="M760 670l0.00292969 -435.999c0 -77.333 20 -116 60 -116c17.333 0 42.666 8 75.999 24l28 -72l-194 -94c-20 0 -43.167 9.83301 -69.5 29.5s-46.5 50.5 -60.5 92.5c-120 -81.333 -202.667 -122 -248 -122c-70.667 0 -130.667 25.833 -180 77.5s-74 113.167 -74 184.5
c0 46 10.167 85.667 30.5 119s46.166 58.833 77.499 76.5s89 42.5 173 74.5c130 50 201.667 82.667 215 98v36c0 58.667 -14.333 104 -43 136s-67.667 48 -117 48c-26.667 0 -54 -9.66699 -82 -29s-54 -67 -78 -143c-10.667 -33.333 -31.334 -50 -62.001 -50
c-22 0 -43.833 9.16699 -65.5 27.5s-32.5 38.5 -32.5 60.5c0 15.333 3.83301 29.166 11.5 41.499s19.5 25.5 35.5 39.5s34.333 27.667 55 41s46 27.833 76 43.5s66.833 31.667 110.5 48s73.5 24.5 89.5 24.5c76 0 139.667 -21.667 191 -65s77 -108.333 77 -195z
M594.003 198.001l-0.000976562 304.001c-139.333 -62.667 -218.666 -99.334 -237.999 -110.001s-36.5 -26.5 -51.5 -47.5s-22.5 -48.5 -22.5 -82.5c0 -45.333 14.667 -82 44 -110s61.333 -42 96 -42c52.667 0 110 29.333 172 88zM173.002 1126
c55.333 106.667 116.002 160 182.002 160c31.333 0 74.666 -12 129.999 -36c51.333 -21.333 88 -32 110 -32c28.667 0 60 28.667 94 86l78 -48c-50 -108 -112 -162 -186 -162c-24 0 -74.667 16 -152 48c-36.667 14.667 -64.667 22 -84 22c-32.667 0 -65.334 -30 -98.001 -90
z" />
    <glyph glyph-name="adieresis" unicode="&#xe4;" horiz-adv-x="954" 
d="M760 670l0.00292969 -435.999c0 -77.333 20 -116 60 -116c17.333 0 42.666 8 75.999 24l28 -72l-194 -94c-20 0 -43.167 9.83301 -69.5 29.5s-46.5 50.5 -60.5 92.5c-120 -81.333 -202.667 -122 -248 -122c-70.667 0 -130.667 25.833 -180 77.5s-74 113.167 -74 184.5
c0 46 10.167 85.667 30.5 119s46.166 58.833 77.499 76.5s89 42.5 173 74.5c130 50 201.667 82.667 215 98v36c0 58.667 -14.333 104 -43 136s-67.667 48 -117 48c-26.667 0 -54 -9.66699 -82 -29s-54 -67 -78 -143c-10.667 -33.333 -31.334 -50 -62.001 -50
c-22 0 -43.833 9.16699 -65.5 27.5s-32.5 38.5 -32.5 60.5c0 15.333 3.83301 29.166 11.5 41.499s19.5 25.5 35.5 39.5s34.333 27.667 55 41s46 27.833 76 43.5s66.833 31.667 110.5 48s73.5 24.5 89.5 24.5c76 0 139.667 -21.667 191 -65s77 -108.333 77 -195z
M594.003 198.001l-0.000976562 304.001c-139.333 -62.667 -218.666 -99.334 -237.999 -110.001s-36.5 -26.5 -51.5 -47.5s-22.5 -48.5 -22.5 -82.5c0 -45.333 14.667 -82 44 -110s61.333 -42 96 -42c52.667 0 110 29.333 172 88zM780.002 1192
c0 -34 -11 -61.834 -33 -83.501s-49.667 -32.5 -83 -32.5c-35.333 0 -63.833 10.667 -85.5 32s-32.5 49.333 -32.5 84c0 34 11.167 62.5 33.5 85.5s50.5 34.5 84.5 34.5c32.667 0 60.167 -11.667 82.5 -35s33.5 -51.666 33.5 -84.999zM398.002 1192
c0 -34 -11 -61.834 -33 -83.501s-49.667 -32.5 -83 -32.5c-35.333 0 -63.833 10.667 -85.5 32s-32.5 49.333 -32.5 84c0 34 11.167 62.5 33.5 85.5s50.5 34.5 84.5 34.5c32.667 0 60.167 -11.667 82.5 -35s33.5 -51.666 33.5 -84.999z" />
    <glyph glyph-name="aring" unicode="&#xe5;" horiz-adv-x="954" 
d="M760 670l0.00292969 -435.999c0 -77.333 20 -116 60 -116c17.333 0 42.666 8 75.999 24l28 -72l-194 -94c-20 0 -43.167 9.83301 -69.5 29.5s-46.5 50.5 -60.5 92.5c-120 -81.333 -202.667 -122 -248 -122c-70.667 0 -130.667 25.833 -180 77.5s-74 113.167 -74 184.5
c0 46 10.167 85.667 30.5 119s46.166 58.833 77.499 76.5s89 42.5 173 74.5c130 50 201.667 82.667 215 98v36c0 58.667 -14.333 104 -43 136s-67.667 48 -117 48c-26.667 0 -54 -9.66699 -82 -29s-54 -67 -78 -143c-10.667 -33.333 -31.334 -50 -62.001 -50
c-22 0 -43.833 9.16699 -65.5 27.5s-32.5 38.5 -32.5 60.5c0 15.333 3.83301 29.166 11.5 41.499s19.5 25.5 35.5 39.5s34.333 27.667 55 41s46 27.833 76 43.5s66.833 31.667 110.5 48s73.5 24.5 89.5 24.5c76 0 139.667 -21.667 191 -65s77 -108.333 77 -195z
M594.003 198.001l-0.000976562 304.001c-139.333 -62.667 -218.666 -99.334 -237.999 -110.001s-36.5 -26.5 -51.5 -47.5s-22.5 -48.5 -22.5 -82.5c0 -45.333 14.667 -82 44 -110s61.333 -42 96 -42c52.667 0 110 29.333 172 88zM268.002 1242c0 60 21.333 108.333 64 145
s92.667 55 150 55c58.667 0 109 -18.667 151 -56s63 -85.333 63 -144c0 -60 -21.167 -109.333 -63.5 -148s-92.5 -58 -150.5 -58s-108.167 19.333 -150.5 58s-63.5 88 -63.5 148zM590.002 1240c0 34.667 -9.66699 62.668 -29 84.001s-45 32 -77 32s-57.667 -10.5 -77 -31.5
s-29 -48.5 -29 -82.5c0 -34.667 9.83301 -63.334 29.5 -86.001s45.167 -34 76.5 -34c30.667 0 56 11.167 76 33.5s30 50.5 30 84.5z" />
    <glyph glyph-name="ae" unicode="&#xe6;" horiz-adv-x="1400" 
d="M600 606l0.00292969 34.002c0 58 -14.333 103.5 -43 136.5s-68.334 49.5 -119.001 49.5c-32 0 -61.667 -10.667 -89 -32s-53.666 -70 -78.999 -146c-9.33301 -30.667 -28.666 -46 -57.999 -46c-18 0 -38.833 9.5 -62.5 28.5s-35.5 38.833 -35.5 59.5
c0 14.667 3.66699 28.5 11 41.5s18.166 25.833 32.499 38.5s32.166 26 53.499 40s46.833 28.833 76.5 44.5s66.667 32.167 111 49.5s74.166 26 89.499 26c116 0 197.333 -46.667 244 -140c92 94.667 190 142 294 142c82 0 153.5 -33 214.5 -99s91.5 -143.667 91.5 -233
c0 -31.333 -3.5 -52.5 -10.5 -63.5s-20.333 -19 -40 -24s-83.334 -11 -191.001 -18s-219.834 -12.5 -336.501 -16.5c0 -112 27.833 -198.667 83.5 -260s127.834 -92 216.501 -92c85.333 0 157.333 32 216 96l46 -60c-50 -62 -103.667 -108.5 -161 -139.5
s-109 -46.5 -155 -46.5c-142.667 0 -251.334 58.667 -326.001 176c-102 -77.333 -174 -126 -216 -146s-76 -30 -102 -30c-70.667 0 -131 25.667 -181 77s-75 111.666 -75 180.999c0 54.667 12.333 99.667 37 135s64.334 65 119.001 89
c226 95.333 340.667 144.666 344 147.999zM976.003 830.002c-47.333 0 -91.5 -22.166 -132.5 -66.499s-66.833 -104.833 -77.5 -181.5l348 6c15.333 0 25.5 3.83301 30.5 11.5s7.5 22.5 7.5 44.5c0 55.333 -16.5 100.166 -49.5 134.499s-75.167 51.5 -126.5 51.5z
M598.003 506.003l-184 -78c-46 -19.333 -79.833 -41.5 -101.5 -66.5s-32.5 -56.167 -32.5 -93.5c0 -44.667 13.667 -81.5 41 -110.5s62.333 -43.5 105 -43.5c64 0 132.667 39.333 206 118c-22.667 54 -34 145.333 -34 274z" />
    <glyph glyph-name="ccedilla" unicode="&#xe7;" horiz-adv-x="880" 
d="M782 230l54.002 -63.998c-88.667 -98.667 -174.667 -159.334 -258 -182.001c-31.333 -46.667 -47 -73.334 -47 -80.001c0 -11.333 9 -25.333 27 -42c48 -56 72 -103.333 72 -142c0 -86 -74.667 -156.667 -224 -212l-36 66c80 42.667 120 85.334 120 128.001
c0 13.333 -14.667 36 -44 68c-28.667 30.667 -43 56.334 -43 77.001c0 15.333 6.66699 32.333 20 51l57 80c-125.333 14 -221 61.833 -287 143.5s-99 177.167 -99 286.5c0 96 24.667 184.5 74 265.5s116.5 144 201.5 189s165.167 67.5 240.5 67.5
c33.333 0 75.666 -8.66699 126.999 -26s77 -46.666 77 -87.999c0 -20.667 -9.33301 -43.167 -28 -67.5s-36 -36.5 -52 -36.5c-10.667 0 -21.334 5.33301 -32.001 16c-56 56 -124 84 -204 84c-62 0 -115.167 -27.5 -159.5 -82.5s-66.5 -132.833 -66.5 -233.5
c0 -92.667 15.167 -166.834 45.5 -222.501s67 -94.834 110 -117.501s85.833 -34 128.5 -34c48 0 88.5 8.66699 121.5 26s67.833 44.666 104.5 81.999z" />
    <glyph glyph-name="egrave" unicode="&#xe8;" horiz-adv-x="906" 
d="M820 156c-52 -60 -107.499 -104.998 -166.499 -134.998s-110.167 -45 -153.5 -45c-120.667 0 -218.5 42.167 -293.5 126.5s-112.5 190.166 -112.5 317.499c0 143.333 44 264.166 132 362.499s186 147.5 294 147.5c85.333 0 159.333 -32.833 222 -98.5
s94 -142.167 94 -229.5c0 -31.333 -3 -53 -9 -65s-18.5 -20 -37.5 -24s-83.833 -9.83301 -194.5 -17.5s-222.334 -13.5 -335.001 -17.5c4.66699 -113.333 36 -200.333 94 -261s127.333 -91 208 -91c75.333 0 143.333 32 204 96zM482.001 834.002
c-48.667 0 -93.001 -22.001 -133.001 -66.001s-65 -105.333 -75 -184l330 6c22 0 36.167 3.83301 42.5 11.5s9.5 21.834 9.5 42.501c0 53.333 -16.667 98.333 -50 135s-74.666 55 -123.999 55zM519 1022l-211 185.002c-56 49.333 -86.5 78.166 -91.5 86.499
s-7.5 16.5 -7.5 24.5c0 17.333 17.5 35.166 52.5 53.499s57.5 27.5 67.5 27.5c9.33301 0 18 -2.83301 26 -8.5s34 -39.5 78 -101.5l150 -215z" />
    <glyph glyph-name="eacute" unicode="&#xe9;" horiz-adv-x="906" 
d="M820 156c-52 -60 -107.499 -104.998 -166.499 -134.998s-110.167 -45 -153.5 -45c-120.667 0 -218.5 42.167 -293.5 126.5s-112.5 190.166 -112.5 317.499c0 143.333 44 264.166 132 362.499s186 147.5 294 147.5c85.333 0 159.333 -32.833 222 -98.5
s94 -142.167 94 -229.5c0 -31.333 -3 -53 -9 -65s-18.5 -20 -37.5 -24s-83.833 -9.83301 -194.5 -17.5s-222.334 -13.5 -335.001 -17.5c4.66699 -113.333 36 -200.333 94 -261s127.333 -91 208 -91c75.333 0 143.333 32 204 96zM482.001 834.002
c-48.667 0 -93.001 -22.001 -133.001 -66.001s-65 -105.333 -75 -184l330 6c22 0 36.167 3.83301 42.5 11.5s9.5 21.834 9.5 42.501c0 53.333 -16.667 98.333 -50 135s-74.666 55 -123.999 55zM433 1074l155.002 221.001c41.333 59.333 66.166 91.833 74.499 97.5
s17.166 8.5 26.499 8.5c10 0 31.667 -9.66699 65 -29s50 -37 50 -53c0 -8.66699 -2.5 -16.834 -7.5 -24.501s-37.167 -38.167 -96.5 -91.5l-203 -181z" />
    <glyph glyph-name="ecircumflex" unicode="&#xea;" horiz-adv-x="906" 
d="M820 156c-52 -60 -107.499 -104.998 -166.499 -134.998s-110.167 -45 -153.5 -45c-120.667 0 -218.5 42.167 -293.5 126.5s-112.5 190.166 -112.5 317.499c0 143.333 44 264.166 132 362.499s186 147.5 294 147.5c85.333 0 159.333 -32.833 222 -98.5
s94 -142.167 94 -229.5c0 -31.333 -3 -53 -9 -65s-18.5 -20 -37.5 -24s-83.833 -9.83301 -194.5 -17.5s-222.334 -13.5 -335.001 -17.5c4.66699 -113.333 36 -200.333 94 -261s127.333 -91 208 -91c75.333 0 143.333 32 204 96zM482.001 834.002
c-48.667 0 -93.001 -22.001 -133.001 -66.001s-65 -105.333 -75 -184l330 6c22 0 36.167 3.83301 42.5 11.5s9.5 21.834 9.5 42.501c0 53.333 -16.667 98.333 -50 135s-74.666 55 -123.999 55zM465 1396h76c46.667 -90 114 -198 202 -324l-82 -52l-158 208l-162 -208l-80 52
c93.333 133.333 161.333 241.333 204 324z" />
    <glyph glyph-name="edieresis" unicode="&#xeb;" horiz-adv-x="906" 
d="M820 156c-52 -60 -107.499 -104.998 -166.499 -134.998s-110.167 -45 -153.5 -45c-120.667 0 -218.5 42.167 -293.5 126.5s-112.5 190.166 -112.5 317.499c0 143.333 44 264.166 132 362.499s186 147.5 294 147.5c85.333 0 159.333 -32.833 222 -98.5
s94 -142.167 94 -229.5c0 -31.333 -3 -53 -9 -65s-18.5 -20 -37.5 -24s-83.833 -9.83301 -194.5 -17.5s-222.334 -13.5 -335.001 -17.5c4.66699 -113.333 36 -200.333 94 -261s127.333 -91 208 -91c75.333 0 143.333 32 204 96zM482.001 834.002
c-48.667 0 -93.001 -22.001 -133.001 -66.001s-65 -105.333 -75 -184l330 6c22 0 36.167 3.83301 42.5 11.5s9.5 21.834 9.5 42.501c0 53.333 -16.667 98.333 -50 135s-74.666 55 -123.999 55zM800 1192c0 -34 -11 -61.834 -33 -83.501s-49.667 -32.5 -83 -32.5
c-35.333 0 -63.833 10.667 -85.5 32s-32.5 49.333 -32.5 84c0 34 11.167 62.5 33.5 85.5s50.5 34.5 84.5 34.5c32.667 0 60.167 -11.667 82.5 -35s33.5 -51.666 33.5 -84.999zM418 1192c0 -34 -11 -61.834 -33 -83.501s-49.667 -32.5 -83 -32.5
c-35.333 0 -63.833 10.667 -85.5 32s-32.5 49.333 -32.5 84c0 34 11.167 62.5 33.5 85.5s50.5 34.5 84.5 34.5c32.667 0 60.167 -11.667 82.5 -35s33.5 -51.666 33.5 -84.999z" />
    <glyph glyph-name="igrave" unicode="&#xec;" horiz-adv-x="576" 
d="M220 228l0.000976562 390.001c0 51.333 -2.33301 86.333 -7 105s-14.667 31.167 -30 37.5s-46.333 12.833 -93 19.5v68c101.333 18 200.666 45.333 297.999 82v-702c0 -66 7 -106 21 -120s54.333 -24 121 -30v-78h-450v78c65.333 6 105 16.167 119 30.5
s21 54.166 21 119.499zM304.001 1020l-211 185.002c-56 49.333 -86.5 78.166 -91.5 86.499s-7.5 16.5 -7.5 24.5c0 17.333 17.5 35.166 52.5 53.499s57.5 27.5 67.5 27.5c9.33301 0 18 -2.83301 26 -8.5s34 -39.5 78 -101.5l150 -215z" />
    <glyph glyph-name="iacute" unicode="&#xed;" horiz-adv-x="576" 
d="M220 228l0.000976562 390.001c0 51.333 -2.33301 86.333 -7 105s-14.667 31.167 -30 37.5s-46.333 12.833 -93 19.5v68c101.333 18 200.666 45.333 297.999 82v-702c0 -66 7 -106 21 -120s54.333 -24 121 -30v-78h-450v78c65.333 6 105 16.167 119 30.5
s21 54.166 21 119.499zM217.001 1072l155.002 221.001c41.333 59.333 66.166 91.833 74.499 97.5s17.166 8.5 26.499 8.5c10 0 31.667 -9.66699 65 -29s50 -37 50 -53c0 -8.66699 -2.5 -16.834 -7.5 -24.501s-37.167 -38.167 -96.5 -91.5l-203 -181z" />
    <glyph glyph-name="icircumflex" unicode="&#xee;" horiz-adv-x="576" 
d="M220 228l0.000976562 390.001c0 51.333 -2.33301 86.333 -7 105s-14.667 31.167 -30 37.5s-46.333 12.833 -93 19.5v68c101.333 18 200.666 45.333 297.999 82v-702c0 -66 7 -106 21 -120s54.333 -24 121 -30v-78h-450v78c65.333 6 105 16.167 119 30.5
s21 54.166 21 119.499zM255.001 1395h76c46.667 -90 114 -198 202 -324l-82 -52l-158 208l-162 -208l-80 52c93.333 133.333 161.333 241.333 204 324z" />
    <glyph glyph-name="idieresis" unicode="&#xef;" horiz-adv-x="576" 
d="M220 228l0.000976562 390.001c0 51.333 -2.33301 86.333 -7 105s-14.667 31.167 -30 37.5s-46.333 12.833 -93 19.5v68c101.333 18 200.666 45.333 297.999 82v-702c0 -66 7 -106 21 -120s54.333 -24 121 -30v-78h-450v78c65.333 6 105 16.167 119 30.5
s21 54.166 21 119.499zM597.001 1192c0 -34 -11 -61.834 -33 -83.501s-49.667 -32.5 -83 -32.5c-35.333 0 -63.833 10.667 -85.5 32s-32.5 49.333 -32.5 84c0 34 11.167 62.5 33.5 85.5s50.5 34.5 84.5 34.5c32.667 0 60.167 -11.667 82.5 -35s33.5 -51.666 33.5 -84.999z
M215.001 1192c0 -34 -11 -61.834 -33 -83.501s-49.667 -32.5 -83 -32.5c-35.333 0 -63.833 10.667 -85.5 32s-32.5 49.333 -32.5 84c0 34 11.167 62.5 33.5 85.5s50.5 34.5 84.5 34.5c32.667 0 60.167 -11.667 82.5 -35s33.5 -51.666 33.5 -84.999z" />
    <glyph glyph-name="eth" unicode="&#xf0;" horiz-adv-x="1046" 
d="M698 1202c168 -182 251.998 -397.332 251.998 -645.999c0 -183.333 -40.167 -325.833 -120.5 -427.5s-184.166 -152.5 -311.499 -152.5c-123.333 0 -225.166 46.167 -305.499 138.5s-120.5 199.5 -120.5 321.5c0 96.667 20.833 182.334 62.5 257.001
s98.167 132.834 169.5 174.501s143.333 62.5 216 62.5c78.667 0 140 -20 184 -60c-40 119.333 -87.333 208.666 -142 267.999l-266 -144l-40 80l244 132c-96.667 80 -202 130.667 -316 152c-4 5.33301 -6 14 -6 26c0 15.333 3 28.166 9 38.499s11 15.5 15 15.5
c38.667 0 98.5 -14.333 179.5 -43s155.833 -70.334 224.5 -125.001l250 134l42 -80zM768.998 520.001c0 88.667 -6.33203 149.832 -18.999 183.499s-39.834 63.834 -81.501 90.501s-88.5 40 -140.5 40c-71.333 0 -128.833 -28.833 -172.5 -86.5s-65.5 -136.167 -65.5 -235.5
c0 -131.333 24.167 -237.5 72.5 -318.5s111.5 -121.5 189.5 -121.5c73.333 0 127.833 34 163.5 102s53.5 183.333 53.5 346z" />
    <glyph glyph-name="ntilde" unicode="&#xf1;" horiz-adv-x="1128" 
d="M220 224v410.002c0 65.333 -5.66699 104.5 -17 117.5s-46.333 23.167 -105 30.5v68c114 21.333 210.667 48.666 290 81.999v-144c118.667 94.667 215.334 142 290.001 142c81.333 0 145.333 -25.167 192 -75.5s70 -117.833 70 -202.5v-426
c0 -64 6.66699 -103.167 20 -117.5s48.666 -24.5 105.999 -30.5v-78h-414v78c55.333 6 89.166 15.667 101.499 29s18.5 49.666 18.5 108.999v356c0 78.667 -13.167 136 -39.5 172s-67.833 54 -124.5 54c-68.667 0 -142 -38.667 -220 -116v-456
c0 -64.667 6.33301 -104 19 -118s47.667 -24 105 -30v-78h-436v78c56.667 4 94.834 12 114.501 24s29.5 52.667 29.5 122zM265 1126c55.333 106.667 116.002 160 182.002 160c31.333 0 74.666 -12 129.999 -36c51.333 -21.333 88 -32 110 -32c28.667 0 60 28.667 94 86
l78 -48c-50 -108 -112 -162 -186 -162c-24 0 -74.667 16 -152 48c-36.667 14.667 -64.667 22 -84 22c-32.667 0 -65.334 -30 -98.001 -90z" />
    <glyph glyph-name="ograve" unicode="&#xf2;" horiz-adv-x="1058" 
d="M92 426c0 101.333 19.666 190 58.999 266s93.5 134.667 162.5 176s141.167 62 216.5 62c125.333 0 228.666 -44.167 309.999 -132.5s122 -198.833 122 -331.5c0 -147.333 -42.667 -265.833 -128 -355.5s-186.666 -134.5 -303.999 -134.5
c-129.333 0 -234.666 44.5 -315.999 133.5s-122 194.5 -122 316.5zM769.999 418c0 132 -22.5 234.333 -67.5 307s-109.833 109 -194.5 109c-68.667 0 -122.5 -28.333 -161.5 -85s-58.5 -137 -58.5 -241c0 -134.667 24 -241 72 -319s113.333 -117 196 -117
c76.667 0 131.5 28.333 164.5 85s49.5 143.667 49.5 261zM540.999 1042l-211 185.002c-56 49.333 -86.5 78.166 -91.5 86.499s-7.5 16.5 -7.5 24.5c0 17.333 17.5 35.166 52.5 53.499s57.5 27.5 67.5 27.5c9.33301 0 18 -2.83301 26 -8.5s34 -39.5 78 -101.5l150 -215z" />
    <glyph glyph-name="oacute" unicode="&#xf3;" horiz-adv-x="1058" 
d="M92 426c0 101.333 19.666 190 58.999 266s93.5 134.667 162.5 176s141.167 62 216.5 62c125.333 0 228.666 -44.167 309.999 -132.5s122 -198.833 122 -331.5c0 -147.333 -42.667 -265.833 -128 -355.5s-186.666 -134.5 -303.999 -134.5
c-129.333 0 -234.666 44.5 -315.999 133.5s-122 194.5 -122 316.5zM769.999 418c0 132 -22.5 234.333 -67.5 307s-109.833 109 -194.5 109c-68.667 0 -122.5 -28.333 -161.5 -85s-58.5 -137 -58.5 -241c0 -134.667 24 -241 72 -319s113.333 -117 196 -117
c76.667 0 131.5 28.333 164.5 85s49.5 143.667 49.5 261zM463.999 1074l155.002 221.001c41.333 59.333 66.166 91.833 74.499 97.5s17.166 8.5 26.499 8.5c10 0 31.667 -9.66699 65 -29s50 -37 50 -53c0 -8.66699 -2.5 -16.834 -7.5 -24.501s-37.167 -38.167 -96.5 -91.5
l-203 -181z" />
    <glyph glyph-name="ocircumflex" unicode="&#xf4;" horiz-adv-x="1058" 
d="M92 426c0 101.333 19.666 190 58.999 266s93.5 134.667 162.5 176s141.167 62 216.5 62c125.333 0 228.666 -44.167 309.999 -132.5s122 -198.833 122 -331.5c0 -147.333 -42.667 -265.833 -128 -355.5s-186.666 -134.5 -303.999 -134.5
c-129.333 0 -234.666 44.5 -315.999 133.5s-122 194.5 -122 316.5zM769.999 418c0 132 -22.5 234.333 -67.5 307s-109.833 109 -194.5 109c-68.667 0 -122.5 -28.333 -161.5 -85s-58.5 -137 -58.5 -241c0 -134.667 24 -241 72 -319s113.333 -117 196 -117
c76.667 0 131.5 28.333 164.5 85s49.5 143.667 49.5 261zM491.999 1396h76c46.667 -90 114 -198 202 -324l-82 -52l-158 208l-162 -208l-80 52c93.333 133.333 161.333 241.333 204 324z" />
    <glyph glyph-name="otilde" unicode="&#xf5;" horiz-adv-x="1058" 
d="M92 426c0 101.333 19.666 190 58.999 266s93.5 134.667 162.5 176s141.167 62 216.5 62c125.333 0 228.666 -44.167 309.999 -132.5s122 -198.833 122 -331.5c0 -147.333 -42.667 -265.833 -128 -355.5s-186.666 -134.5 -303.999 -134.5
c-129.333 0 -234.666 44.5 -315.999 133.5s-122 194.5 -122 316.5zM769.999 418c0 132 -22.5 234.333 -67.5 307s-109.833 109 -194.5 109c-68.667 0 -122.5 -28.333 -161.5 -85s-58.5 -137 -58.5 -241c0 -134.667 24 -241 72 -319s113.333 -117 196 -117
c76.667 0 131.5 28.333 164.5 85s49.5 143.667 49.5 261zM232.999 1126c55.333 106.667 116.002 160 182.002 160c31.333 0 74.666 -12 129.999 -36c51.333 -21.333 88 -32 110 -32c28.667 0 60 28.667 94 86l78 -48c-50 -108 -112 -162 -186 -162c-24 0 -74.667 16 -152 48
c-36.667 14.667 -64.667 22 -84 22c-32.667 0 -65.334 -30 -98.001 -90z" />
    <glyph glyph-name="odieresis" unicode="&#xf6;" horiz-adv-x="1058" 
d="M92 426c0 101.333 19.666 190 58.999 266s93.5 134.667 162.5 176s141.167 62 216.5 62c125.333 0 228.666 -44.167 309.999 -132.5s122 -198.833 122 -331.5c0 -147.333 -42.667 -265.833 -128 -355.5s-186.666 -134.5 -303.999 -134.5
c-129.333 0 -234.666 44.5 -315.999 133.5s-122 194.5 -122 316.5zM769.999 418c0 132 -22.5 234.333 -67.5 307s-109.833 109 -194.5 109c-68.667 0 -122.5 -28.333 -161.5 -85s-58.5 -137 -58.5 -241c0 -134.667 24 -241 72 -319s113.333 -117 196 -117
c76.667 0 131.5 28.333 164.5 85s49.5 143.667 49.5 261zM835.999 1192c0 -34 -11 -61.834 -33 -83.501s-49.667 -32.5 -83 -32.5c-35.333 0 -63.833 10.667 -85.5 32s-32.5 49.333 -32.5 84c0 34 11.167 62.5 33.5 85.5s50.5 34.5 84.5 34.5
c32.667 0 60.167 -11.667 82.5 -35s33.5 -51.666 33.5 -84.999zM453.999 1192c0 -34 -11 -61.834 -33 -83.501s-49.667 -32.5 -83 -32.5c-35.333 0 -63.833 10.667 -85.5 32s-32.5 49.333 -32.5 84c0 34 11.167 62.5 33.5 85.5s50.5 34.5 84.5 34.5
c32.667 0 60.167 -11.667 82.5 -35s33.5 -51.666 33.5 -84.999z" />
    <glyph glyph-name="divide" unicode="&#xf7;" horiz-adv-x="1272" 
d="M762 884c0 -33.333 -12.167 -62 -36.5 -86s-53.5 -36 -87.5 -36c-31.333 0 -59.5 12.167 -84.5 36.5s-37.5 52.833 -37.5 85.5c0 31.333 12.667 59.5 38 84.5s53.333 37.5 84 37.5c33.333 0 62.333 -12.333 87 -37s37 -53 37 -85zM114 618h1042v-130h-1042v130zM512 222
c0 34 12.167 62.833 36.5 86.5s53.5 35.5 87.5 35.5c32 0 60.333 -12.167 85 -36.5s37 -52.833 37 -85.5c0 -31.333 -12.5 -59.5 -37.5 -84.5s-53.167 -37.5 -84.5 -37.5c-33.333 0 -62.333 12.333 -87 37s-37 53 -37 85z" />
    <glyph glyph-name="oslash" unicode="&#xf8;" horiz-adv-x="1062" 
d="M736 880l80 120l80 -50l-82 -124c102.667 -90 154 -210 154 -360c0 -147.333 -43 -265.833 -129 -355.5s-187.667 -134.5 -305 -134.5c-73.333 0 -143.333 18 -210 54l-84 -128l-76 62l82 120c-101.333 91.333 -152 205.333 -152 342c0 100.667 20 189 60 265
s95 134.833 165 176.5s142.333 62.5 217 62.5c72 0 138.667 -16.667 200 -50zM338 232l346 542c-46 37.333 -102.667 56 -170 56c-72.667 0 -130.5 -30 -173.5 -90s-64.5 -144.667 -64.5 -254c0 -103.333 20.667 -188 62 -254zM740 684l-348.001 -545.999
c38.667 -44 92 -66 160 -66c82.667 0 142.334 29.167 179.001 87.5s55 147.166 55 266.499c0 107.333 -15.333 193.333 -46 258z" />
    <glyph glyph-name="ugrave" unicode="&#xf9;" horiz-adv-x="1110" 
d="M752 214l-0.000976562 467.999c0 38.667 -3.5 66 -10.5 82s-17.833 26 -32.5 30s-52.334 9.33301 -113.001 16v72c147.333 8 255.333 20 324 36v-688c0 -46 5.16699 -75.167 15.5 -87.5s32.5 -18.5 66.5 -18.5h64v-76c-61.333 -6.66699 -160.666 -30.667 -297.999 -72
l-16 12v124c-113.333 -90.667 -213.333 -136 -300 -136c-78.667 0 -140 25.5 -184 76.5s-66 124.833 -66 221.5v406c0 38 -3 65 -9 81s-14.833 26 -26.5 30s-41.167 9.66699 -88.5 17v72c64.667 2.66699 164 15.334 298 38.001c-4 -60.667 -6 -158.667 -6 -294v-294
c0 -73.333 13.333 -128.333 40 -165s70 -55 130 -55c62.667 0 133.334 34.667 212.001 104zM542.999 1023l-211 185.002c-56 49.333 -86.5 78.166 -91.5 86.499s-7.5 16.5 -7.5 24.5c0 17.333 17.5 35.166 52.5 53.499s57.5 27.5 67.5 27.5c9.33301 0 18 -2.83301 26 -8.5
s34 -39.5 78 -101.5l150 -215z" />
    <glyph glyph-name="uacute" unicode="&#xfa;" horiz-adv-x="1110" 
d="M752 214l-0.000976562 467.999c0 38.667 -3.5 66 -10.5 82s-17.833 26 -32.5 30s-52.334 9.33301 -113.001 16v72c147.333 8 255.333 20 324 36v-688c0 -46 5.16699 -75.167 15.5 -87.5s32.5 -18.5 66.5 -18.5h64v-76c-61.333 -6.66699 -160.666 -30.667 -297.999 -72
l-16 12v124c-113.333 -90.667 -213.333 -136 -300 -136c-78.667 0 -140 25.5 -184 76.5s-66 124.833 -66 221.5v406c0 38 -3 65 -9 81s-14.833 26 -26.5 30s-41.167 9.66699 -88.5 17v72c64.667 2.66699 164 15.334 298 38.001c-4 -60.667 -6 -158.667 -6 -294v-294
c0 -73.333 13.333 -128.333 40 -165s70 -55 130 -55c62.667 0 133.334 34.667 212.001 104zM466.999 1074l155.002 221.001c41.333 59.333 66.166 91.833 74.499 97.5s17.166 8.5 26.499 8.5c10 0 31.667 -9.66699 65 -29s50 -37 50 -53
c0 -8.66699 -2.5 -16.834 -7.5 -24.501s-37.167 -38.167 -96.5 -91.5l-203 -181z" />
    <glyph glyph-name="ucircumflex" unicode="&#xfb;" horiz-adv-x="1110" 
d="M752 214l-0.000976562 467.999c0 38.667 -3.5 66 -10.5 82s-17.833 26 -32.5 30s-52.334 9.33301 -113.001 16v72c147.333 8 255.333 20 324 36v-688c0 -46 5.16699 -75.167 15.5 -87.5s32.5 -18.5 66.5 -18.5h64v-76c-61.333 -6.66699 -160.666 -30.667 -297.999 -72
l-16 12v124c-113.333 -90.667 -213.333 -136 -300 -136c-78.667 0 -140 25.5 -184 76.5s-66 124.833 -66 221.5v406c0 38 -3 65 -9 81s-14.833 26 -26.5 30s-41.167 9.66699 -88.5 17v72c64.667 2.66699 164 15.334 298 38.001c-4 -60.667 -6 -158.667 -6 -294v-294
c0 -73.333 13.333 -128.333 40 -165s70 -55 130 -55c62.667 0 133.334 34.667 212.001 104zM517.999 1398h76c46.667 -90 114 -198 202 -324l-82 -52l-158 208l-162 -208l-80 52c93.333 133.333 161.333 241.333 204 324z" />
    <glyph glyph-name="udieresis" unicode="&#xfc;" horiz-adv-x="1110" 
d="M752 214l-0.000976562 467.999c0 38.667 -3.5 66 -10.5 82s-17.833 26 -32.5 30s-52.334 9.33301 -113.001 16v72c147.333 8 255.333 20 324 36v-688c0 -46 5.16699 -75.167 15.5 -87.5s32.5 -18.5 66.5 -18.5h64v-76c-61.333 -6.66699 -160.666 -30.667 -297.999 -72
l-16 12v124c-113.333 -90.667 -213.333 -136 -300 -136c-78.667 0 -140 25.5 -184 76.5s-66 124.833 -66 221.5v406c0 38 -3 65 -9 81s-14.833 26 -26.5 30s-41.167 9.66699 -88.5 17v72c64.667 2.66699 164 15.334 298 38.001c-4 -60.667 -6 -158.667 -6 -294v-294
c0 -73.333 13.333 -128.333 40 -165s70 -55 130 -55c62.667 0 133.334 34.667 212.001 104zM865.999 1192c0 -34 -11 -61.834 -33 -83.501s-49.667 -32.5 -83 -32.5c-35.333 0 -63.833 10.667 -85.5 32s-32.5 49.333 -32.5 84c0 34 11.167 62.5 33.5 85.5
s50.5 34.5 84.5 34.5c32.667 0 60.167 -11.667 82.5 -35s33.5 -51.666 33.5 -84.999zM483.999 1192c0 -34 -11 -61.834 -33 -83.501s-49.667 -32.5 -83 -32.5c-35.333 0 -63.833 10.667 -85.5 32s-32.5 49.333 -32.5 84c0 34 11.167 62.5 33.5 85.5s50.5 34.5 84.5 34.5
c32.667 0 60.167 -11.667 82.5 -35s33.5 -51.666 33.5 -84.999z" />
    <glyph glyph-name="yacute" unicode="&#xfd;" horiz-adv-x="958" 
d="M26 906l420.001 0.00292969v-78c-32.667 -4.66699 -56.334 -10.834 -71.001 -18.501s-22 -19.834 -22 -36.501c0 -8 14.333 -56.333 43 -145l124 -380c130 314.667 195 490 195 526c0 16.667 -8.66699 28.667 -26 36s-43.666 13.333 -78.999 18v78h390v-78
c-50 -8 -84.5 -18.5 -103.5 -31.5s-42 -44.167 -69 -93.5s-77 -158.833 -150 -328.5l-201 -483.5c-61 -152.667 -101.833 -268.334 -122.5 -347.001c-8.66699 -36 -34 -54 -76 -54c-32 0 -61.333 11.833 -88 35.5s-40 48.5 -40 74.5c0 30.667 16.667 56.667 50 78
c52 36 101 94.333 147 175s69 138.334 69 173.001c0 15.333 -8.66699 48.666 -26 99.999l-83 245l-92.5 267c-23.667 66 -40.834 108.333 -51.501 127s-26.167 33 -46.5 43s-50.5 16.667 -90.5 20v78zM468.001 1074l155.002 221.001
c41.333 59.333 66.166 91.833 74.499 97.5s17.166 8.5 26.499 8.5c10 0 31.667 -9.66699 65 -29s50 -37 50 -53c0 -8.66699 -2.5 -16.834 -7.5 -24.501s-37.167 -38.167 -96.5 -91.5l-203 -181z" />
    <glyph glyph-name="thorn" unicode="&#xfe;" horiz-adv-x="1076" 
d="M174 -256l-0.000976562 1358c0 68 -6.66699 108.667 -20 122s-56 22 -128 26v76c102.667 10.667 208 32 316 64v-576c130.667 65.333 204.667 101 222 107s38.666 9 63.999 9c102.667 0 187.334 -40 254.001 -120s100 -172 100 -276c0 -60.667 -8.16699 -118 -24.5 -172
s-40.833 -104 -73.5 -150s-72.5 -86.5 -119.5 -121.5s-100 -62.833 -159 -83.5s-99.5 -31 -121.5 -31c-16 0 -39 3.33301 -69 10s-54.333 16 -73 28v-274c0 -65.333 8.83301 -105 26.5 -119s68.834 -23.667 153.501 -29v-78h-496v78c68 5.33301 109.667 15.333 125 30
s23 55.334 23 122.001zM341.999 715.999l-0.000976562 -538c44.667 -52 110.667 -78 198 -78c72.667 0 133.834 28.667 183.501 86s74.5 139.333 74.5 246c0 124 -23.333 214.667 -70 272s-110 86 -190 86c-68 0 -133.333 -24.667 -196 -74z" />
    <glyph glyph-name="ydieresis" unicode="&#xff;" horiz-adv-x="958" 
d="M26 906l420.001 0.00292969v-78c-32.667 -4.66699 -56.334 -10.834 -71.001 -18.501s-22 -19.834 -22 -36.501c0 -8 14.333 -56.333 43 -145l124 -380c130 314.667 195 490 195 526c0 16.667 -8.66699 28.667 -26 36s-43.666 13.333 -78.999 18v78h390v-78
c-50 -8 -84.5 -18.5 -103.5 -31.5s-42 -44.167 -69 -93.5s-77 -158.833 -150 -328.5l-201 -483.5c-61 -152.667 -101.833 -268.334 -122.5 -347.001c-8.66699 -36 -34 -54 -76 -54c-32 0 -61.333 11.833 -88 35.5s-40 48.5 -40 74.5c0 30.667 16.667 56.667 50 78
c52 36 101 94.333 147 175s69 138.334 69 173.001c0 15.333 -8.66699 48.666 -26 99.999l-83 245l-92.5 267c-23.667 66 -40.834 108.333 -51.501 127s-26.167 33 -46.5 43s-50.5 16.667 -90.5 20v78zM826.001 1192c0 -34 -11 -61.834 -33 -83.501s-49.667 -32.5 -83 -32.5
c-35.333 0 -63.833 10.667 -85.5 32s-32.5 49.333 -32.5 84c0 34 11.167 62.5 33.5 85.5s50.5 34.5 84.5 34.5c32.667 0 60.167 -11.667 82.5 -35s33.5 -51.666 33.5 -84.999zM444.001 1192c0 -34 -11 -61.834 -33 -83.501s-49.667 -32.5 -83 -32.5
c-35.333 0 -63.833 10.667 -85.5 32s-32.5 49.333 -32.5 84c0 34 11.167 62.5 33.5 85.5s50.5 34.5 84.5 34.5c32.667 0 60.167 -11.667 82.5 -35s33.5 -51.666 33.5 -84.999z" />
    <glyph glyph-name="Amacron" unicode="&#x100;" horiz-adv-x="1318" 
d="M822 430l-384 -0.00292969c-56 -168 -84 -266.333 -84 -295c0 -20.667 9.83301 -34.334 29.5 -41.001s54.5 -12 104.5 -16v-78h-438v78c56.667 4.66699 96.5 14.834 119.5 30.501s51.167 68.834 84.5 159.501l372 1022l84 24l212 -642
c74.667 -222.667 125.5 -368.667 152.5 -438s51.5 -111.666 73.5 -126.999s62 -25 120 -29v-78h-468v78c42 4 73 9 93 15s30 17.667 30 35c0 11.333 -11.333 51.833 -34 121.5s-45 129.834 -67 180.501zM472 537.997h316l-152 488h-4zM911 1476h-504v126h504v-126z" />
    <glyph glyph-name="amacron" unicode="&#x101;" horiz-adv-x="954" 
d="M760 670l0.00292969 -435.999c0 -77.333 20 -116 60 -116c17.333 0 42.666 8 75.999 24l28 -72l-194 -94c-20 0 -43.167 9.83301 -69.5 29.5s-46.5 50.5 -60.5 92.5c-120 -81.333 -202.667 -122 -248 -122c-70.667 0 -130.667 25.833 -180 77.5s-74 113.167 -74 184.5
c0 46 10.167 85.667 30.5 119s46.166 58.833 77.499 76.5s89 42.5 173 74.5c130 50 201.667 82.667 215 98v36c0 58.667 -14.333 104 -43 136s-67.667 48 -117 48c-26.667 0 -54 -9.66699 -82 -29s-54 -67 -78 -143c-10.667 -33.333 -31.334 -50 -62.001 -50
c-22 0 -43.833 9.16699 -65.5 27.5s-32.5 38.5 -32.5 60.5c0 15.333 3.83301 29.166 11.5 41.499s19.5 25.5 35.5 39.5s34.333 27.667 55 41s46 27.833 76 43.5s66.833 31.667 110.5 48s73.5 24.5 89.5 24.5c76 0 139.667 -21.667 191 -65s77 -108.333 77 -195z
M594.003 198.001l-0.000976562 304.001c-139.333 -62.667 -218.666 -99.334 -237.999 -110.001s-36.5 -26.5 -51.5 -47.5s-22.5 -48.5 -22.5 -82.5c0 -45.333 14.667 -82 44 -110s61.333 -42 96 -42c52.667 0 110 29.333 172 88zM228.002 1242h500v-130h-500v130z" />
    <glyph glyph-name="Abreve" unicode="&#x102;" horiz-adv-x="1318" 
d="M822 430l-384 -0.00292969c-56 -168 -84 -266.333 -84 -295c0 -20.667 9.83301 -34.334 29.5 -41.001s54.5 -12 104.5 -16v-78h-438v78c56.667 4.66699 96.5 14.834 119.5 30.501s51.167 68.834 84.5 159.501l372 1022l84 24l212 -642
c74.667 -222.667 125.5 -368.667 152.5 -438s51.5 -111.666 73.5 -126.999s62 -25 120 -29v-78h-468v78c42 4 73 9 93 15s30 17.667 30 35c0 11.333 -11.333 51.833 -34 121.5s-45 129.834 -67 180.501zM472 537.997h316l-152 488h-4zM924 1674
c-1.33301 -78 -25.667 -137.833 -73 -179.5s-111 -62.5 -191 -62.5c-78.667 0 -142 20.833 -190 62.5s-72.667 101.5 -74 179.5h86c22 -84 81.333 -126 178 -126c96 0 154.667 42 176 126h88z" />
    <glyph glyph-name="abreve" unicode="&#x103;" horiz-adv-x="954" 
d="M760 670l0.00292969 -435.999c0 -77.333 20 -116 60 -116c17.333 0 42.666 8 75.999 24l28 -72l-194 -94c-20 0 -43.167 9.83301 -69.5 29.5s-46.5 50.5 -60.5 92.5c-120 -81.333 -202.667 -122 -248 -122c-70.667 0 -130.667 25.833 -180 77.5s-74 113.167 -74 184.5
c0 46 10.167 85.667 30.5 119s46.166 58.833 77.499 76.5s89 42.5 173 74.5c130 50 201.667 82.667 215 98v36c0 58.667 -14.333 104 -43 136s-67.667 48 -117 48c-26.667 0 -54 -9.66699 -82 -29s-54 -67 -78 -143c-10.667 -33.333 -31.334 -50 -62.001 -50
c-22 0 -43.833 9.16699 -65.5 27.5s-32.5 38.5 -32.5 60.5c0 15.333 3.83301 29.166 11.5 41.499s19.5 25.5 35.5 39.5s34.333 27.667 55 41s46 27.833 76 43.5s66.833 31.667 110.5 48s73.5 24.5 89.5 24.5c76 0 139.667 -21.667 191 -65s77 -108.333 77 -195z
M594.003 198.001l-0.000976562 304.001c-139.333 -62.667 -218.666 -99.334 -237.999 -110.001s-36.5 -26.5 -51.5 -47.5s-22.5 -48.5 -22.5 -82.5c0 -45.333 14.667 -82 44 -110s61.333 -42 96 -42c52.667 0 110 29.333 172 88zM726.002 1358
c0 -186.667 -82.667 -280.001 -248 -280.001s-248 93.333 -248 280h94c12.667 -104 64 -156 154 -156c41.333 0 75.5 13.333 102.5 40s43.5 65.334 49.5 116.001h96z" />
    <glyph glyph-name="Aogonek" unicode="&#x104;" horiz-adv-x="1318" 
d="M822 430l-383.998 -0.00390625c-56 -168 -84 -266.333 -84 -295c0 -20.667 9.83301 -34.334 29.5 -41.001s54.5 -12 104.5 -16v-78h-438v78c56.667 4.66699 96.5 14.834 119.5 30.501s51.167 68.834 84.5 159.501l372 1022l84 24l212 -642
c74.667 -222.667 125.5 -368.667 152.5 -438s51.5 -111.666 73.5 -126.999s62 -25 120 -29v-78h-52c-93.333 -91.333 -140 -171.333 -140 -240c0 -33.333 10 -59.666 30 -78.999s44 -29 72 -29c24.667 0 54.667 6.66699 90 20l26 -64
c-74.667 -39.333 -118.834 -61.5 -132.501 -66.5s-28.834 -7.5 -45.501 -7.5c-56 0 -99.333 16 -130 48s-46 70.667 -46 116c0 88 56.667 188.667 170 302h-310v78c42 4 73 9 93 15s30 17.667 30 35c0 11.333 -11.333 51.833 -34 121.5s-45 129.834 -67 180.501z
M472.002 537.996h316l-152 488h-4z" />
    <glyph glyph-name="aogonek" unicode="&#x105;" horiz-adv-x="954" 
d="M760 670l0.00390625 -435.998c0 -77.333 20 -116 60 -116c17.333 0 42.666 8 75.999 24l28 -72c-136 -118 -204 -218 -204 -300c0 -32.667 9.83301 -58.834 29.5 -78.501s43.834 -29.5 72.501 -29.5c24.667 0 54.667 6.66699 90 20l26 -64
c-74.667 -39.333 -118.834 -61.5 -132.501 -66.5s-28.834 -7.5 -45.501 -7.5c-56 0 -99.333 16 -130 48s-46 70.667 -46 116c0 80 46 169.333 138 268c-60 14 -100.667 54.667 -122 122c-120 -81.333 -202.667 -122 -248 -122c-70.667 0 -130.667 25.833 -180 77.5
s-74 113.167 -74 184.5c0 46 10.167 85.667 30.5 119s46.166 58.833 77.499 76.5s89 42.5 173 74.5c130 50 201.667 82.667 215 98v36c0 58.667 -14.333 104 -43 136s-67.667 48 -117 48c-26.667 0 -54 -9.66699 -82 -29s-54 -67 -78 -143
c-10.667 -33.333 -31.334 -50 -62.001 -50c-22 0 -43.833 9.16699 -65.5 27.5s-32.5 38.5 -32.5 60.5c0 15.333 3.83301 29.166 11.5 41.499s19.5 25.5 35.5 39.5s34.333 27.667 55 41s46 27.833 76 43.5s66.833 31.667 110.5 48s73.5 24.5 89.5 24.5
c76 0 139.667 -21.667 191 -65s77 -108.333 77 -195zM594.004 198.002l-0.000976562 304.001c-139.333 -62.667 -218.666 -99.334 -237.999 -110.001s-36.5 -26.5 -51.5 -47.5s-22.5 -48.5 -22.5 -82.5c0 -45.333 14.667 -82 44 -110s61.333 -42 96 -42
c52.667 0 110 29.333 172 88z" />
    <glyph glyph-name="Cacute" unicode="&#x106;" horiz-adv-x="1208" 
d="M1114 950l-86 -12c-35.333 186.667 -134 280 -296 280c-132 0 -236.333 -50.167 -313 -150.5s-115 -233.5 -115 -399.5c0 -182 39.5 -327.5 118.5 -436.5s180.833 -163.5 305.5 -163.5c79.333 0 143.833 22.667 193.5 68s97.834 124 144.501 236l86 -20
c-45.333 -178.667 -76.666 -288 -93.999 -328c-112.667 -33.333 -219.334 -50 -320.001 -50c-200 0 -356.667 61.833 -470 185.5s-170 279.167 -170 466.5c0 202.667 63.833 368 191.5 496s289.834 192 486.501 192c99.333 0 200.666 -14.667 303.999 -44
c13.333 -95.333 24.666 -202 33.999 -320zM528 1478l226 139.999c69.333 43.333 106.5 66 111.5 68s10.167 3 15.5 3c18 0 38.833 -15.833 62.5 -47.5s35.5 -52.5 35.5 -62.5c0 -9.33301 -3.83301 -16.666 -11.5 -21.999s-51.167 -22 -130.5 -50l-271 -95z" />
    <glyph glyph-name="cacute" unicode="&#x107;" horiz-adv-x="880" 
d="M838 170c-48 -58.667 -102.501 -105.666 -163.501 -140.999s-118.5 -53 -172.5 -53c-119.333 0 -217.166 42.333 -293.499 127s-114.5 187 -114.5 307c0 95.333 24.833 183.333 74.5 264s116.834 143.5 201.501 188.5s164.667 67.5 240 67.5
c38 0 81.833 -8.83301 131.5 -26.5s74.5 -47.5 74.5 -89.5c0 -20.667 -9.33301 -42.834 -28 -66.501s-35.334 -35.5 -50.001 -35.5c-13.333 0 -24.666 5.33301 -33.999 16c-56 56 -124 84 -204 84c-62.667 0 -116.334 -27.5 -161.001 -82.5s-67 -133.5 -67 -235.5
c0 -80 12.5 -147.833 37.5 -203.5s59.833 -97.667 104.5 -126s92.667 -42.5 144 -42.5c46 0 85.667 8.83301 119 26.5s68.333 45.5 105 83.5zM399.999 1074l155.002 221.001c41.333 59.333 66.166 91.833 74.499 97.5s17.166 8.5 26.499 8.5c10 0 31.667 -9.66699 65 -29
s50 -37 50 -53c0 -8.66699 -2.5 -16.834 -7.5 -24.501s-37.167 -38.167 -96.5 -91.5l-203 -181z" />
    <glyph glyph-name="Ccaron" unicode="&#x10c;" horiz-adv-x="1208" 
d="M1114 950l-86 -12c-35.333 186.667 -134 280 -296 280c-132 0 -236.333 -50.167 -313 -150.5s-115 -233.5 -115 -399.5c0 -182 39.5 -327.5 118.5 -436.5s180.833 -163.5 305.5 -163.5c79.333 0 143.833 22.667 193.5 68s97.834 124 144.501 236l86 -20
c-45.333 -178.667 -76.666 -288 -93.999 -328c-112.667 -33.333 -219.334 -50 -320.001 -50c-200 0 -356.667 61.833 -470 185.5s-170 279.167 -170 466.5c0 202.667 63.833 368 191.5 496s289.834 192 486.501 192c99.333 0 200.666 -14.667 303.999 -44
c13.333 -95.333 24.666 -202 33.999 -320zM736 1420h-66.001c-61.333 63.333 -144.666 131.333 -249.999 204l42 68c89.333 -36.667 170 -80.667 242 -132c84 56 164 100 240 132l44 -68c-92 -59.333 -176 -127.333 -252 -204z" />
    <glyph glyph-name="ccaron" unicode="&#x10d;" horiz-adv-x="880" 
d="M838 170c-48 -58.667 -102.501 -105.666 -163.501 -140.999s-118.5 -53 -172.5 -53c-119.333 0 -217.166 42.333 -293.499 127s-114.5 187 -114.5 307c0 95.333 24.833 183.333 74.5 264s116.834 143.5 201.501 188.5s164.667 67.5 240 67.5
c38 0 81.833 -8.83301 131.5 -26.5s74.5 -47.5 74.5 -89.5c0 -20.667 -9.33301 -42.834 -28 -66.501s-35.334 -35.5 -50.001 -35.5c-13.333 0 -24.666 5.33301 -33.999 16c-56 56 -124 84 -204 84c-62.667 0 -116.334 -27.5 -161.001 -82.5s-67 -133.5 -67 -235.5
c0 -80 12.5 -147.833 37.5 -203.5s59.833 -97.667 104.5 -126s92.667 -42.5 144 -42.5c46 0 85.667 8.83301 119 26.5s68.333 45.5 105 83.5zM555.999 1038l-76 -0.000976562c-48.667 94 -116 201.333 -202 322l80 52c82.667 -102.667 136 -171.334 160 -206.001
c18.667 26.667 72.667 95.334 162 206.001l80 -52c-91.333 -127.333 -159.333 -234.666 -204 -321.999z" />
    <glyph glyph-name="Dcaron" unicode="&#x10e;" horiz-adv-x="1368" 
d="M256 256v774.001c0 79.333 -8.33301 127.833 -25 145.5s-62.334 29.167 -137.001 34.5v78h486c244.667 0 420.834 -56.667 528.501 -170s161.5 -255.333 161.5 -426c0 -220 -67.5 -390.333 -202.5 -511s-327.5 -181 -577.5 -181h-410v76c82 6 131.833 17.667 149.5 35
s26.5 65.666 26.5 144.999zM432 1124v-854c0 -73.333 11.333 -120 34 -140s65.334 -30 128.001 -30c151.333 0 268.166 48.833 350.499 146.5s123.5 233.5 123.5 407.5c0 362.667 -167.333 544 -502 544c-68.667 0 -108.167 -4.5 -118.5 -13.5s-15.5 -29.167 -15.5 -60.5z
M686 1420h-66.001c-61.333 63.333 -144.666 131.333 -249.999 204l42 68c89.333 -36.667 170 -80.667 242 -132c84 56 164 100 240 132l44 -68c-92 -59.333 -176 -127.333 -252 -204z" />
    <glyph glyph-name="dcaron" unicode="&#x10f;" horiz-adv-x="1268" 
d="M910 1438l-0.000976562 -1186c0 -43.333 3 -72.333 9 -87s15.5 -23.334 28.5 -26.001s51.833 -5.66699 116.5 -9v-76c-142 -25.333 -249.333 -51.333 -322 -78v120c-114 -64 -180.833 -100 -200.5 -108s-41.5 -12 -65.5 -12c-97.333 0 -186.666 41.333 -267.999 124
s-122 189.334 -122 320.001c0 140 51 260 153 360s227 150 375 150c49.333 0 92 -6.66699 128 -20v242c0 54.667 -3.16699 88 -9.5 100s-16.5 20.5 -30.5 25.5s-52 8.5 -114 10.5v78c112.667 16 220 40 322 72zM741.999 194v553.999c-37.333 53.333 -104 80 -200 80
c-69.333 0 -131 -29.667 -185 -89s-81 -147.666 -81 -264.999c0 -112 26.667 -200 80 -264s118 -96 194 -96c60 0 124 26.667 192 80zM999.999 1042c88 38.667 132.002 88.667 132.002 150c0 28.667 -9.33301 53.667 -28 75s-43.334 36.333 -74.001 45
c-16 4 -24 18.667 -24 44c0 22.667 8.66699 42 26 58s37.333 24 60 24c41.333 0 79.666 -19.167 114.999 -57.5s53 -86.5 53 -144.5c0 -122.667 -78 -210 -234 -262z" />
    <glyph glyph-name="Dcroat" unicode="&#x110;" horiz-adv-x="1396" 
d="M284 294l-0.000976562 325.998h-194v102h194v270c0 70 -3.33301 118.5 -10 145.5s-20.167 45 -40.5 54s-57.5 15.167 -111.5 18.5v78h486c244.667 0 420.834 -56.667 528.501 -170s161.5 -255.333 161.5 -426c0 -223.333 -68.5 -394.5 -205.5 -513.5
s-327.833 -178.5 -572.5 -178.5h-412v76c59.333 4.66699 100 11.334 122 20.001s36.5 26.334 43.5 53.001s10.5 75 10.5 145zM459.999 1124v-402h290v-102h-290v-336c0 -74 10.333 -123.167 31 -147.5s65 -36.5 133 -36.5c150.667 0 267 48.667 349 146s123 232 123 404
c0 176.667 -41.167 312.167 -123.5 406.5s-208.5 141.5 -378.5 141.5c-76 0 -117.333 -5.66699 -124 -17s-10 -30.333 -10 -57z" />
    <glyph glyph-name="dcroat" unicode="&#x111;" horiz-adv-x="1098" 
d="M910 1082l-0.000976562 -830c0 -43.333 3 -72.333 9 -87s15.5 -23.334 28.5 -26.001s51.833 -5.66699 116.5 -9v-76c-142 -25.333 -249.333 -51.333 -322 -78v120c-114 -64 -180.833 -100 -200.5 -108s-41.5 -12 -65.5 -12c-97.333 0 -186.666 41.333 -267.999 124
s-122 189.334 -122 320.001c0 140 51 260 153 360s227 150 375 150c49.333 0 92 -6.66699 128 -20v172h-322v96h320c0 51.333 -7.83301 82 -23.5 92s-58.5 16 -128.5 18v78c112.667 16 220 40 322 72v-260h184v-96h-184zM741.999 194v553.999
c-37.333 53.333 -104 80 -200 80c-69.333 0 -131 -29.667 -185 -89s-81 -147.666 -81 -264.999c0 -112 26.667 -200 80 -264s118 -96 194 -96c60 0 124 26.667 192 80z" />
    <glyph glyph-name="Emacron" unicode="&#x112;" horiz-adv-x="1124" 
d="M258 258l0.00292969 774c0 56.667 -3.33301 96 -10 118s-20.334 36.667 -41.001 44s-58.334 13.333 -113.001 18v76h864c12.667 -176 20 -274.667 22 -296l-86 -10c-18 85.333 -40.333 142 -67 170s-87 42 -181 42h-152c-33.333 0 -51.666 -4 -54.999 -12
s-5 -24.667 -5 -50v-412h174c58 0 98 2.66699 120 8s36.667 16.333 44 33s14.666 49 21.999 97h86v-388h-86c-8.66699 52 -17.167 87.167 -25.5 105.5s-23.166 30.333 -44.499 36s-60 8.5 -116 8.5h-174v-348c0 -56 6 -97 18 -123s32.833 -42 62.5 -48s80.834 -9 153.501 -9
c53.333 0 95.666 2.33301 126.999 7s56.166 13.5 74.499 26.5s38.833 38.833 61.5 77.5s41.667 83 57 133l84 -14c-26 -152 -48 -259.333 -66 -322h-928v78c61.333 4.66699 103.166 10.5 125.499 17.5s37 21.5 44 43.5s10.5 61.667 10.5 119zM813.003 1476h-504v126h504
v-126z" />
    <glyph glyph-name="emacron" unicode="&#x113;" horiz-adv-x="906" 
d="M820 156c-52 -60 -107.499 -104.998 -166.499 -134.998s-110.167 -45 -153.5 -45c-120.667 0 -218.5 42.167 -293.5 126.5s-112.5 190.166 -112.5 317.499c0 143.333 44 264.166 132 362.499s186 147.5 294 147.5c85.333 0 159.333 -32.833 222 -98.5
s94 -142.167 94 -229.5c0 -31.333 -3 -53 -9 -65s-18.5 -20 -37.5 -24s-83.833 -9.83301 -194.5 -17.5s-222.334 -13.5 -335.001 -17.5c4.66699 -113.333 36 -200.333 94 -261s127.333 -91 208 -91c75.333 0 143.333 32 204 96zM482.001 834.002
c-48.667 0 -93.001 -22.001 -133.001 -66.001s-65 -105.333 -75 -184l330 6c22 0 36.167 3.83301 42.5 11.5s9.5 21.834 9.5 42.501c0 53.333 -16.667 98.333 -50 135s-74.666 55 -123.999 55zM244 1242h500v-130h-500v130z" />
    <glyph glyph-name="Edotaccent" unicode="&#x116;" horiz-adv-x="1124" 
d="M258 258l0.00292969 774c0 56.667 -3.33301 96 -10 118s-20.334 36.667 -41.001 44s-58.334 13.333 -113.001 18v76h864c12.667 -176 20 -274.667 22 -296l-86 -10c-18 85.333 -40.333 142 -67 170s-87 42 -181 42h-152c-33.333 0 -51.666 -4 -54.999 -12
s-5 -24.667 -5 -50v-412h174c58 0 98 2.66699 120 8s36.667 16.333 44 33s14.666 49 21.999 97h86v-388h-86c-8.66699 52 -17.167 87.167 -25.5 105.5s-23.166 30.333 -44.499 36s-60 8.5 -116 8.5h-174v-348c0 -56 6 -97 18 -123s32.833 -42 62.5 -48s80.834 -9 153.501 -9
c53.333 0 95.666 2.33301 126.999 7s56.166 13.5 74.499 26.5s38.833 38.833 61.5 77.5s41.667 83 57 133l84 -14c-26 -152 -48 -259.333 -66 -322h-928v78c61.333 4.66699 103.166 10.5 125.499 17.5s37 21.5 44 43.5s10.5 61.667 10.5 119zM686.003 1532
c0 -32.667 -10.667 -59.498 -32 -80.498s-48 -31.5 -80 -31.5c-34.667 0 -62.667 10.333 -84 31s-32 47.667 -32 81s11 61.666 33 84.999s49.667 35 83 35c31.333 0 57.833 -11.833 79.5 -35.5s32.5 -51.834 32.5 -84.501z" />
    <glyph glyph-name="edotaccent" unicode="&#x117;" horiz-adv-x="906" 
d="M820 156c-52 -60 -107.499 -104.998 -166.499 -134.998s-110.167 -45 -153.5 -45c-120.667 0 -218.5 42.167 -293.5 126.5s-112.5 190.166 -112.5 317.499c0 143.333 44 264.166 132 362.499s186 147.5 294 147.5c85.333 0 159.333 -32.833 222 -98.5
s94 -142.167 94 -229.5c0 -31.333 -3 -53 -9 -65s-18.5 -20 -37.5 -24s-83.833 -9.83301 -194.5 -17.5s-222.334 -13.5 -335.001 -17.5c4.66699 -113.333 36 -200.333 94 -261s127.333 -91 208 -91c75.333 0 143.333 32 204 96zM482.001 834.002
c-48.667 0 -93.001 -22.001 -133.001 -66.001s-65 -105.333 -75 -184l330 6c22 0 36.167 3.83301 42.5 11.5s9.5 21.834 9.5 42.501c0 53.333 -16.667 98.333 -50 135s-74.666 55 -123.999 55zM612 1192c0 -34 -11 -61.833 -33 -83.5s-49.667 -32.5 -83 -32.5
c-35.333 0 -63.833 10.667 -85.5 32s-32.5 49.333 -32.5 84c0 33.333 11 61.666 33 84.999s50.333 35 85 35c32.667 0 60.167 -11.667 82.5 -35s33.5 -51.666 33.5 -84.999z" />
    <glyph glyph-name="Eogonek" unicode="&#x118;" horiz-adv-x="1124" 
d="M258 258l0.00390625 774c0 56.667 -3.33301 96 -10 118s-20.334 36.667 -41.001 44s-58.334 13.333 -113.001 18v76h864c12.667 -176 20 -274.667 22 -296l-86 -10c-18 85.333 -40.333 142 -67 170s-87 42 -181 42h-152c-33.333 0 -51.666 -4 -54.999 -12
s-5 -24.667 -5 -50v-412h174c58 0 98 2.66699 120 8s36.667 16.333 44 33s14.666 49 21.999 97h86v-388h-86c-8.66699 52 -17.167 87.167 -25.5 105.5s-23.166 30.333 -44.499 36s-60 8.5 -116 8.5h-174v-348c0 -56 6 -97 18 -123s32.833 -42 62.5 -48s80.834 -9 153.501 -9
c53.333 0 95.666 2.33301 126.999 7s56.166 13.5 74.499 26.5s38.833 38.833 61.5 77.5s41.667 83 57 133l84 -14c-26 -152 -48 -259.333 -66 -322h-2c-102.667 -93.333 -154 -175.333 -154 -246c0 -32 10.667 -57.667 32 -77s46.666 -29 75.999 -29
c28 0 60.667 6.66699 98 20l22 -56c-77.333 -40.667 -123 -63.5 -137 -68.5s-28.333 -7.5 -43 -7.5c-59.333 0 -104.833 15.833 -136.5 47.5s-47.5 70.5 -47.5 116.5c0 86 62.667 186 188 300h-824v78c61.333 4.66699 103.166 10.5 125.499 17.5s37 21.5 44 43.5
s10.5 61.667 10.5 119z" />
    <glyph glyph-name="eogonek" unicode="&#x119;" horiz-adv-x="906" 
d="M766 222l54.002 -65.999c-32 -38 -66.667 -70 -104 -96c-130.667 -120 -196 -220 -196 -300c0 -32.667 9.83301 -58.834 29.5 -78.501s43.834 -29.5 72.501 -29.5c24.667 0 54.667 6.66699 90 20l26 -64c-74.667 -39.333 -118.834 -61.5 -132.501 -66.5
s-28.834 -7.5 -45.501 -7.5c-56 0 -99.333 16 -130 48s-46 70.667 -46 116c0 82 48.667 176 146 282c-8 -2.66699 -18 -4 -30 -4c-120.667 0 -218.5 42.167 -293.5 126.5s-112.5 190.166 -112.5 317.499c0 142.667 43.667 263.334 131 362.001s186.333 148 297 148
c84.667 0 158.167 -32.833 220.5 -98.5s93.5 -142.167 93.5 -229.5c0 -31.333 -3 -53 -9 -65s-18.5 -20 -37.5 -24s-83.833 -9.83301 -194.5 -17.5s-222.334 -13.5 -335.001 -17.5c4.66699 -113.333 36 -200.333 94 -261s127.333 -91 208 -91c75.333 0 143.333 32 204 96z
M482.002 834.001c-48.667 0 -93.001 -22.001 -133.001 -66.001s-65 -105.333 -75 -184l330 6c22 0 36.167 3.83301 42.5 11.5s9.5 21.834 9.5 42.501c0 53.333 -16.667 98.333 -50 135s-74.666 55 -123.999 55z" />
    <glyph glyph-name="Ecaron" unicode="&#x11a;" horiz-adv-x="1124" 
d="M258 258l0.00292969 774c0 56.667 -3.33301 96 -10 118s-20.334 36.667 -41.001 44s-58.334 13.333 -113.001 18v76h864c12.667 -176 20 -274.667 22 -296l-86 -10c-18 85.333 -40.333 142 -67 170s-87 42 -181 42h-152c-33.333 0 -51.666 -4 -54.999 -12
s-5 -24.667 -5 -50v-412h174c58 0 98 2.66699 120 8s36.667 16.333 44 33s14.666 49 21.999 97h86v-388h-86c-8.66699 52 -17.167 87.167 -25.5 105.5s-23.166 30.333 -44.499 36s-60 8.5 -116 8.5h-174v-348c0 -56 6 -97 18 -123s32.833 -42 62.5 -48s80.834 -9 153.501 -9
c53.333 0 95.666 2.33301 126.999 7s56.166 13.5 74.499 26.5s38.833 38.833 61.5 77.5s41.667 83 57 133l84 -14c-26 -152 -48 -259.333 -66 -322h-928v78c61.333 4.66699 103.166 10.5 125.499 17.5s37 21.5 44 43.5s10.5 61.667 10.5 119zM594.003 1390h-66.001
c-61.333 63.333 -144.666 131.333 -249.999 204l42 68c89.333 -36.667 170 -80.667 242 -132c84 56 164 100 240 132l44 -68c-92 -59.333 -176 -127.333 -252 -204z" />
    <glyph glyph-name="ecaron" unicode="&#x11b;" horiz-adv-x="906" 
d="M820 156c-52 -60 -107.499 -104.998 -166.499 -134.998s-110.167 -45 -153.5 -45c-120.667 0 -218.5 42.167 -293.5 126.5s-112.5 190.166 -112.5 317.499c0 143.333 44 264.166 132 362.499s186 147.5 294 147.5c85.333 0 159.333 -32.833 222 -98.5
s94 -142.167 94 -229.5c0 -31.333 -3 -53 -9 -65s-18.5 -20 -37.5 -24s-83.833 -9.83301 -194.5 -17.5s-222.334 -13.5 -335.001 -17.5c4.66699 -113.333 36 -200.333 94 -261s127.333 -91 208 -91c75.333 0 143.333 32 204 96zM482.001 834.002
c-48.667 0 -93.001 -22.001 -133.001 -66.001s-65 -105.333 -75 -184l330 6c22 0 36.167 3.83301 42.5 11.5s9.5 21.834 9.5 42.501c0 53.333 -16.667 98.333 -50 135s-74.666 55 -123.999 55zM542 1038l-76 -0.000976562c-48.667 94 -116 201.333 -202 322l80 52
c82.667 -102.667 136 -171.334 160 -206.001c18.667 26.667 72.667 95.334 162 206.001l80 -52c-91.333 -127.333 -159.333 -234.666 -204 -321.999z" />
    <glyph glyph-name="Gbreve" unicode="&#x11e;" horiz-adv-x="1294" 
d="M1128 400l0.000976562 -167.999c0 -81.333 3.33301 -144 10 -188c-152 -46.667 -276.667 -70 -374 -70c-198.667 0 -359 60 -481 180s-183 278.667 -183 476c0 137.333 29.167 257.666 87.5 360.999s140.333 183 246 239s221.167 84 346.5 84
c110.667 0 218 -14.667 322 -44c11.333 -137.333 22 -243.333 32 -318l-86 -8c-14 87.333 -44 155.166 -90 203.499s-117.333 72.5 -214 72.5c-130.667 0 -236.334 -49.333 -317.001 -148s-121 -235.334 -121 -410.001c0 -177.333 41.167 -320.666 123.5 -429.999
s197.833 -164 346.5 -164c48.667 0 86.5 3.66699 113.5 11s44.167 18.833 51.5 34.5s11 43.834 11 84.501v178c0 46.667 -3.5 78.667 -10.5 96s-23.5 29.5 -49.5 36.5s-74.667 13.5 -146 19.5v78h494v-78c-53.333 -8 -85.333 -17.833 -96 -29.5s-16 -44.5 -16 -98.5z
M1002 1674c-1.33301 -78 -25.667 -137.833 -73 -179.5s-111 -62.5 -191 -62.5c-78.667 0 -142 20.833 -190 62.5s-72.667 101.5 -74 179.5h86c22 -84 81.333 -126 178 -126c96 0 154.667 42 176 126h88z" />
    <glyph glyph-name="gbreve" unicode="&#x11f;" horiz-adv-x="980" 
d="M302 320c-52.667 21.333 -95.834 56.334 -129.501 105.001s-50.5 101.667 -50.5 159c0 108 37.667 192.667 113 254s158.333 92 249 92c25.333 0 49 -2 71 -6s43.333 -10 64 -18l61 -26c47.333 0 136 8.66699 266 26l12 -20c-23.333 -54 -50 -90.667 -80 -110l-104 8
c32 -49.333 48 -104.666 48 -165.999c0 -98 -35.333 -177.167 -106 -237.5s-154 -90.5 -250 -90.5l-62 4c-7.33301 0 -23.833 -10.5 -49.5 -31.5s-38.5 -41.167 -38.5 -60.5c0 -45.333 38.667 -68 116 -68l214 4c90.667 0 162.334 -20.833 215.001 -62.5
s79 -102.834 79 -183.501c0 -114.667 -50 -210.334 -150 -287.001s-220 -115 -360 -115c-109.333 0 -197 26.5 -263 79.5s-99 114.5 -99 184.5c0 54.667 24.333 102.834 73 144.501l131 109.5c-105.333 39.333 -158 100.666 -158 183.999c81.333 36 144 78.667 188 128z
M652 598.001c0 75.333 -16.168 134.5 -48.501 177.5s-76.166 64.5 -131.499 64.5c-50 0 -90.167 -18.167 -120.5 -54.5s-45.5 -88.833 -45.5 -157.5c0 -75.333 17.167 -135.166 51.5 -179.499s79.833 -66.5 136.5 -66.5c46.667 0 84.667 18.667 114 56s44 90.666 44 159.999
zM797.999 -169.999c0 57.333 -21.668 100 -65.001 128s-119 42 -227 42c-88 0 -154 -21.833 -198 -65.5s-66 -87.834 -66 -132.501c0 -60 24.833 -108.333 74.5 -145s114.834 -55 195.501 -55c84.667 0 153.5 22.333 206.5 67s79.5 98.334 79.5 161.001zM737.998 1358
c0 -186.667 -82.667 -280.001 -248 -280.001s-248 93.333 -248 280h94c12.667 -104 64 -156 154 -156c41.333 0 75.5 13.333 102.5 40s43.5 65.334 49.5 116.001h96z" />
    <glyph glyph-name="Gcommaaccent" unicode="&#x122;" horiz-adv-x="1294" 
d="M1128 400l0.000976562 -167.999c0 -81.333 3.33301 -144 10 -188c-152 -46.667 -276.667 -70 -374 -70c-198.667 0 -359 60 -481 180s-183 278.667 -183 476c0 137.333 29.167 257.666 87.5 360.999s140.333 183 246 239s221.167 84 346.5 84
c110.667 0 218 -14.667 322 -44c11.333 -137.333 22 -243.333 32 -318l-86 -8c-14 87.333 -44 155.166 -90 203.499s-117.333 72.5 -214 72.5c-130.667 0 -236.334 -49.333 -317.001 -148s-121 -235.334 -121 -410.001c0 -177.333 41.167 -320.666 123.5 -429.999
s197.833 -164 346.5 -164c48.667 0 86.5 3.66699 113.5 11s44.167 18.833 51.5 34.5s11 43.834 11 84.501v178c0 46.667 -3.5 78.667 -10.5 96s-23.5 29.5 -49.5 36.5s-74.667 13.5 -146 19.5v78h494v-78c-53.333 -8 -85.333 -17.833 -96 -29.5s-16 -44.5 -16 -98.5z
M590.001 -487.999c88 38.667 132.002 88.667 132.002 150c0 28.667 -9.33301 53.667 -28 75s-43.334 36.333 -74.001 45c-16 4 -24 18.667 -24 44c0 22.667 8.66699 42 26 58s37.333 24 60 24c41.333 0 79.666 -19.167 114.999 -57.5s53 -86.5 53 -144.5
c0 -122.667 -78 -210 -234 -262z" />
    <glyph glyph-name="gcommaaccent" unicode="&#x123;" horiz-adv-x="980" 
d="M302 320c-52.667 21.333 -95.834 56.334 -129.501 105.001s-50.5 101.667 -50.5 159c0 108 37.667 192.667 113 254s158.333 92 249 92c25.333 0 49 -2 71 -6s43.333 -10 64 -18l61 -26c47.333 0 136 8.66699 266 26l12 -20c-23.333 -54 -50 -90.667 -80 -110l-104 8
c32 -49.333 48 -104.666 48 -165.999c0 -98 -35.333 -177.167 -106 -237.5s-154 -90.5 -250 -90.5l-62 4c-7.33301 0 -23.833 -10.5 -49.5 -31.5s-38.5 -41.167 -38.5 -60.5c0 -45.333 38.667 -68 116 -68l214 4c90.667 0 162.334 -20.833 215.001 -62.5
s79 -102.834 79 -183.501c0 -114.667 -50 -210.334 -150 -287.001s-220 -115 -360 -115c-109.333 0 -197 26.5 -263 79.5s-99 114.5 -99 184.5c0 54.667 24.333 102.834 73 144.501l131 109.5c-105.333 39.333 -158 100.666 -158 183.999c81.333 36 144 78.667 188 128z
M652 598.001c0 75.333 -16.168 134.5 -48.501 177.5s-76.166 64.5 -131.499 64.5c-50 0 -90.167 -18.167 -120.5 -54.5s-45.5 -88.833 -45.5 -157.5c0 -75.333 17.167 -135.166 51.5 -179.499s79.833 -66.5 136.5 -66.5c46.667 0 84.667 18.667 114 56s44 90.666 44 159.999
zM797.999 -169.999c0 57.333 -21.668 100 -65.001 128s-119 42 -227 42c-88 0 -154 -21.833 -198 -65.5s-66 -87.834 -66 -132.501c0 -60 24.833 -108.333 74.5 -145s114.834 -55 195.501 -55c84.667 0 153.5 22.333 206.5 67s79.5 98.334 79.5 161.001zM633.998 1436
c-88 -38.667 -132.002 -88.667 -132.002 -150c0 -28.667 9.33301 -53.667 28 -75s43.334 -36.333 74.001 -45c16 -4 24 -18.667 24 -44c0 -22.667 -8.66699 -42 -26 -58s-37.333 -24 -60 -24c-41.333 0 -79.666 19.167 -114.999 57.5s-53 86.5 -53 144.5
c0 122.667 78 210 234 262z" />
    <glyph glyph-name="Imacron" unicode="&#x12a;" horiz-adv-x="692" 
d="M258 258l-0.00390625 772c0 79.333 -8.66699 127.833 -26 145.5s-65.333 29.167 -144 34.5v78h516v-78c-78.667 -5.33301 -126.667 -16.833 -144 -34.5s-26 -66.167 -26 -145.5v-772c0 -57.333 3.33301 -97 10 -119s20.834 -36.833 42.501 -44.5
s60.834 -13.167 117.501 -16.5v-78h-516v78c56.667 3.33301 95.834 8.83301 117.501 16.5s35.834 22.5 42.501 44.5s10 61.667 10 119zM597.996 1476h-504v126h504v-126z" />
    <glyph glyph-name="imacron" unicode="&#x12b;" horiz-adv-x="576" 
d="M220 228l0.000976562 390.001c0 51.333 -2.33301 86.333 -7 105s-14.667 31.167 -30 37.5s-46.333 12.833 -93 19.5v68c101.333 18 200.666 45.333 297.999 82v-702c0 -66 7 -106 21 -120s54.333 -24 121 -30v-78h-450v78c65.333 6 105 16.167 119 30.5
s21 54.166 21 119.499zM39.001 1242h500v-130h-500v130z" />
    <glyph glyph-name="Iogonek" unicode="&#x12e;" horiz-adv-x="692" 
d="M258 258l-0.00292969 772.001c0 79.333 -8.66699 127.833 -26 145.5s-65.333 29.167 -144 34.5v78h516v-78c-78.667 -5.33301 -126.667 -16.833 -144 -34.5s-26 -66.167 -26 -145.5v-772c0 -57.333 3.33301 -97 10 -119s20.834 -36.833 42.501 -44.5
s60.834 -13.167 117.501 -16.5v-78h-68c-93.333 -91.333 -140 -171.333 -140 -240c0 -32.667 9.83301 -58.834 29.5 -78.501s43.834 -29.5 72.501 -29.5c24.667 0 54.667 6.66699 90 20l26 -64c-74.667 -39.333 -118.834 -61.5 -132.501 -66.5s-28.834 -7.5 -45.501 -7.5
c-56 0 -99.333 16 -130 48s-46 70.667 -46 116c0 88 56.667 188.667 170 302h-342v78c56.667 3.33301 95.834 8.83301 117.501 16.5s35.834 22.5 42.501 44.5s10 61.667 10 119z" />
    <glyph glyph-name="iogonek" unicode="&#x12f;" horiz-adv-x="576" 
d="M186 1266c0 33.333 11.333 61.665 34 84.998s50 35 82 35c33.333 0 61.333 -11.5 84 -34.5s34 -51.5 34 -85.5c0 -33.333 -11.333 -61.666 -34 -84.999s-50.667 -35 -84 -35c-32 0 -59.333 11.833 -82 35.5s-34 51.834 -34 84.501zM220 227.999l0.00195312 390.002
c0 51.333 -2.33301 86.333 -7 105s-14.667 31.167 -30 37.5s-46.333 12.833 -93 19.5v68c101.333 18 200.666 45.333 297.999 82v-702c0 -66 7 -106 21 -120s54.333 -24 121 -30v-78h-54c-93.333 -91.333 -140 -171.333 -140 -240c0 -32.667 9.83301 -58.834 29.5 -78.501
s43.834 -29.5 72.501 -29.5c24.667 0 54.667 6.66699 90 20l26 -64c-74.667 -39.333 -118.834 -61.5 -132.501 -66.5s-28.834 -7.5 -45.501 -7.5c-56 0 -99.333 16 -130 48s-46 70.667 -46 116c0 88 56.667 188.667 170 302h-290v78c65.333 6 105 16.167 119 30.5
s21 54.166 21 119.499z" />
    <glyph glyph-name="Idotaccent" unicode="&#x130;" horiz-adv-x="692" 
d="M258 258l-0.00390625 772c0 79.333 -8.66699 127.833 -26 145.5s-65.333 29.167 -144 34.5v78h516v-78c-78.667 -5.33301 -126.667 -16.833 -144 -34.5s-26 -66.167 -26 -145.5v-772c0 -57.333 3.33301 -97 10 -119s20.834 -36.833 42.501 -44.5
s60.834 -13.167 117.501 -16.5v-78h-516v78c56.667 3.33301 95.834 8.83301 117.501 16.5s35.834 22.5 42.501 44.5s10 61.667 10 119zM460.996 1532c0 -32.667 -10.667 -59.498 -32 -80.498s-48 -31.5 -80 -31.5c-34.667 0 -62.667 10.333 -84 31s-32 47.667 -32 81
s11 61.666 33 84.999s49.667 35 83 35c31.333 0 57.833 -11.833 79.5 -35.5s32.5 -51.834 32.5 -84.501z" />
    <glyph glyph-name="dotlessi" unicode="&#x131;" horiz-adv-x="576" 
d="M220 228l0.000976562 390.001c0 51.333 -2.33301 86.333 -7 105s-14.667 31.167 -30 37.5s-46.333 12.833 -93 19.5v68c101.333 18 200.666 45.333 297.999 82v-702c0 -66 7 -106 21 -120s54.333 -24 121 -30v-78h-450v78c65.333 6 105 16.167 119 30.5
s21 54.166 21 119.499z" />
    <glyph glyph-name="Kcommaaccent" unicode="&#x136;" horiz-adv-x="1316" 
d="M258 254l0.00292969 777.999c0 56 -3.5 95.167 -10.5 117.5s-21.333 37.166 -43 44.499s-61.167 12.666 -118.5 15.999v78h510v-78c-76 -5.33301 -122.333 -16.666 -139 -33.999s-25 -65.333 -25 -144v-324c28.667 4 58.334 17.5 89.001 40.5s77.667 72 141 147
s112.666 136.833 147.999 185.5s53 79.334 53 92.001c0 7.33301 -3.83301 14 -11.5 20s-36.834 11.667 -87.501 17v78h480v-78c-60.667 -4 -109.334 -14.167 -146.001 -30.5s-68.167 -36.666 -94.5 -60.999s-83 -82.833 -170 -175.5s-148.833 -161 -185.5 -205
c62 -92 142.167 -201 240.5 -327s163 -205.5 194 -238.5s59.833 -56.333 86.5 -70s59.667 -21.834 99 -24.501v-78h-298c-38.667 44.667 -123 157.334 -253 338.001c-104 144.667 -166.5 229.5 -187.5 254.5s-53.5 37.5 -97.5 37.5v-376c0 -78 8.66699 -125.5 26 -142.5
s66.666 -28.167 147.999 -33.5v-78h-508v78c74 5.33301 119.167 16.5 135.5 33.5s24.5 64.5 24.5 142.5zM602.003 -458.001c88 38.667 132.002 88.667 132.002 150c0 28.667 -9.33301 53.667 -28 75s-43.334 36.333 -74.001 45c-16 4 -24 18.667 -24 44
c0 22.667 8.66699 42 26 58s37.333 24 60 24c41.333 0 79.666 -19.167 114.999 -57.5s53 -86.5 53 -144.5c0 -122.667 -78 -210 -234 -262z" />
    <glyph glyph-name="kcommaaccent" unicode="&#x137;" horiz-adv-x="1060" 
d="M188 226l-0.00488281 915.998c0 48.667 -2.66699 82 -8 100s-16.5 29.5 -33.5 34.5s-49.833 8.83301 -98.5 11.5v78c105.333 13.333 208 37.333 308 72v-922c47.333 9.33301 83.833 25.333 109.5 48s58.834 63.334 99.501 122.001s61 93.334 61 104.001
c0 17.333 -19.333 26.666 -58 27.999v78l412 20v-76c-68.667 -10 -125.5 -27.5 -170.5 -52.5s-125.5 -108.833 -241.5 -251.5c25.333 -40 84.166 -113.667 176.499 -221s155.333 -173.166 189 -197.499s71.834 -37.5 114.501 -39.5v-78h-264l-226 279
c-75.333 92 -119.166 141.833 -131.499 149.5s-25.166 11.5 -38.499 11.5c-3.33301 0 -14 -2 -32 -6v-208c0 -64.667 7.33301 -104 22 -118s55.334 -24 122.001 -30v-78h-468v78c72.667 6 116.834 16 132.501 30s23.5 53.333 23.5 118zM393.995 -488.002
c88 38.667 132.002 88.667 132.002 150c0 28.667 -9.33301 53.667 -28 75s-43.334 36.333 -74.001 45c-16 4 -24 18.667 -24 44c0 22.667 8.66699 42 26 58s37.333 24 60 24c41.333 0 79.666 -19.167 114.999 -57.5s53 -86.5 53 -144.5c0 -122.667 -78 -210 -234 -262z" />
    <glyph glyph-name="Lacute" unicode="&#x139;" horiz-adv-x="1072" 
d="M258 256l0.000976562 774.002c0 79.333 -8.83301 127.833 -26.5 145.5s-66.834 29.167 -147.501 34.5v78h526v-78c-82 -5.33301 -131.833 -16.833 -149.5 -34.5s-26.5 -66.167 -26.5 -145.5v-760c0 -84.667 14 -135.5 42 -152.5s88 -25.5 180 -25.5
c54.667 0 98.334 4.66699 131.001 14s61.5 32.666 86.5 69.999s47.833 91.333 68.5 162l86 -12c-23.333 -146 -45.333 -254.667 -66 -326h-878v76c81.333 6 130.666 17.667 147.999 35s26 65.666 26 144.999zM360.001 1478l226 139.999c69.333 43.333 106.5 66 111.5 68
s10.167 3 15.5 3c18 0 38.833 -15.833 62.5 -47.5s35.5 -52.5 35.5 -62.5c0 -9.33301 -3.83301 -16.666 -11.5 -21.999s-51.167 -22 -130.5 -50l-271 -95z" />
    <glyph glyph-name="lacute" unicode="&#x13a;" horiz-adv-x="546" 
d="M188 226l-0.00195312 918.002c0 49.333 -2.5 82.666 -7.5 99.999s-16 28.666 -33 33.999s-50.167 9.33301 -99.5 12v76c64.667 6.66699 167.334 30.667 308.001 72v-1212c0 -65.333 7 -104.833 21 -118.5s55 -23.5 123 -29.5v-78h-456v78c66.667 6 107.334 16 122.001 30
s22 53.333 22 118zM144.998 1578l226 139.999c69.333 43.333 106.5 66 111.5 68s10.167 3 15.5 3c18 0 38.833 -15.833 62.5 -47.5s35.5 -52.5 35.5 -62.5c0 -9.33301 -3.83301 -16.666 -11.5 -21.999s-51.167 -22 -130.5 -50l-271 -95z" />
    <glyph glyph-name="Lcommaaccent" unicode="&#x13b;" horiz-adv-x="1072" 
d="M258 256l0.000976562 774.002c0 79.333 -8.83301 127.833 -26.5 145.5s-66.834 29.167 -147.501 34.5v78h526v-78c-82 -5.33301 -131.833 -16.833 -149.5 -34.5s-26.5 -66.167 -26.5 -145.5v-760c0 -84.667 14 -135.5 42 -152.5s88 -25.5 180 -25.5
c54.667 0 98.334 4.66699 131.001 14s61.5 32.666 86.5 69.999s47.833 91.333 68.5 162l86 -12c-23.333 -146 -45.333 -254.667 -66 -326h-878v76c81.333 6 130.666 17.667 147.999 35s26 65.666 26 144.999zM400.001 -487.998c88 38.667 132.002 88.667 132.002 150
c0 28.667 -9.33301 53.667 -28 75s-43.334 36.333 -74.001 45c-16 4 -24 18.667 -24 44c0 22.667 8.66699 42 26 58s37.333 24 60 24c41.333 0 79.666 -19.167 114.999 -57.5s53 -86.5 53 -144.5c0 -122.667 -78 -210 -234 -262z" />
    <glyph glyph-name="lcommaaccent" unicode="&#x13c;" horiz-adv-x="546" 
d="M188 226l-0.00195312 918.002c0 49.333 -2.5 82.666 -7.5 99.999s-16 28.666 -33 33.999s-50.167 9.33301 -99.5 12v76c64.667 6.66699 167.334 30.667 308.001 72v-1212c0 -65.333 7 -104.833 21 -118.5s55 -23.5 123 -29.5v-78h-456v78c66.667 6 107.334 16 122.001 30
s22 53.333 22 118zM135.998 -487.998c88 38.667 132.002 88.667 132.002 150c0 28.667 -9.33301 53.667 -28 75s-43.334 36.333 -74.001 45c-16 4 -24 18.667 -24 44c0 22.667 8.66699 42 26 58s37.333 24 60 24c41.333 0 79.666 -19.167 114.999 -57.5s53 -86.5 53 -144.5
c0 -122.667 -78 -210 -234 -262z" />
    <glyph glyph-name="Lcaron" unicode="&#x13d;" horiz-adv-x="1072" 
d="M258 256l0.000976562 774.002c0 79.333 -8.83301 127.833 -26.5 145.5s-66.834 29.167 -147.501 34.5v78h526v-78c-82 -5.33301 -131.833 -16.833 -149.5 -34.5s-26.5 -66.167 -26.5 -145.5v-760c0 -84.667 14 -135.5 42 -152.5s88 -25.5 180 -25.5
c54.667 0 98.334 4.66699 131.001 14s61.5 32.666 86.5 69.999s47.833 91.333 68.5 162l86 -12c-23.333 -146 -45.333 -254.667 -66 -326h-878v76c81.333 6 130.666 17.667 147.999 35s26 65.666 26 144.999zM720.001 1052c88 38.667 132.002 88.667 132.002 150
c0 28.667 -9.33301 53.667 -28 75s-43.334 36.333 -74.001 45c-16 4 -24 18.667 -24 44c0 22.667 8.66699 42 26 58s37.333 24 60 24c41.333 0 79.666 -19.167 114.999 -57.5s53 -86.5 53 -144.5c0 -122.667 -78 -210 -234 -262z" />
    <glyph glyph-name="lcaron" unicode="&#x13e;" horiz-adv-x="716" 
d="M188 226l-0.00195312 918.002c0 49.333 -2.5 82.666 -7.5 99.999s-16 28.666 -33 33.999s-50.167 9.33301 -99.5 12v76c64.667 6.66699 167.334 30.667 308.001 72v-1212c0 -65.333 7 -104.833 21 -118.5s55 -23.5 123 -29.5v-78h-456v78c66.667 6 107.334 16 122.001 30
s22 53.333 22 118zM445.998 1042c88 38.667 132.002 88.667 132.002 150c0 28.667 -9.33301 53.667 -28 75s-43.334 36.333 -74.001 45c-16 4 -24 18.667 -24 44c0 22.667 8.66699 42 26 58s37.333 24 60 24c41.333 0 79.666 -19.167 114.999 -57.5s53 -86.5 53 -144.5
c0 -122.667 -78 -210 -234 -262z" />
    <glyph glyph-name="Lslash" unicode="&#x141;" horiz-adv-x="1094" 
d="M688 844l-230 -172v-386c0 -84 10.167 -137.333 30.5 -160s80.166 -34 179.499 -34c89.333 0 152.333 12 189 36s73 94 109 210l86 -14c-28 -163.333 -50.667 -271.333 -68 -324h-876v76c80.667 5.33301 129.834 16.833 147.501 34.5s26.5 66.167 26.5 145.5v282
l-184 -138v114l184 140v376c0 79.333 -8.66699 127.833 -26 145.5s-66 29.167 -146 34.5v78h524v-78c-82 -5.33301 -131.833 -16.833 -149.5 -34.5s-26.5 -66.167 -26.5 -145.5v-238l230 172v-120z" />
    <glyph glyph-name="lslash" unicode="&#x142;" horiz-adv-x="594" 
d="M570 904l-191.999 -176v-510c0 -60.667 7 -97.667 21 -111s54.333 -23 121 -29v-78h-452v78c66.667 6 107 15.667 121 29s21 50.333 21 111v358l-172 -158v120l172 158v448c0 50 -2.5 83.833 -7.5 101.5s-15.833 29 -32.5 34s-49.334 8.5 -98.001 10.5v76
c124 17.333 226 41.333 306 72v-590l192 176v-120z" />
    <glyph glyph-name="Nacute" unicode="&#x143;" horiz-adv-x="1390" 
d="M254 510l0.00292969 421.999c0 92 -3.33301 152.167 -10 180.5s-24.834 50.833 -54.501 67.5s-74.834 26.667 -135.501 30v78h300l684 -964h6v448c0 227.333 -11.333 356.166 -34 386.499s-77.334 47.5 -164.001 51.5v78h488v-78c-90 -2 -142.167 -25.667 -156.5 -71
s-21.5 -167.666 -21.5 -366.999v-786h-98l-686 986h-6v-462c0 -197.333 7.33301 -318.166 22 -362.499s74 -67.5 178 -69.5v-78h-484v78c86.667 1.33301 137 24.833 151 70.5s21 166.167 21 361.5zM520.003 1478l226 139.999c69.333 43.333 106.5 66 111.5 68
s10.167 3 15.5 3c18 0 38.833 -15.833 62.5 -47.5s35.5 -52.5 35.5 -62.5c0 -9.33301 -3.83301 -16.666 -11.5 -21.999s-51.167 -22 -130.5 -50l-271 -95z" />
    <glyph glyph-name="nacute" unicode="&#x144;" horiz-adv-x="1128" 
d="M220 224v410.002c0 65.333 -5.66699 104.5 -17 117.5s-46.333 23.167 -105 30.5v68c114 21.333 210.667 48.666 290 81.999v-144c118.667 94.667 215.334 142 290.001 142c81.333 0 145.333 -25.167 192 -75.5s70 -117.833 70 -202.5v-426
c0 -64 6.66699 -103.167 20 -117.5s48.666 -24.5 105.999 -30.5v-78h-414v78c55.333 6 89.166 15.667 101.499 29s18.5 49.666 18.5 108.999v356c0 78.667 -13.167 136 -39.5 172s-67.833 54 -124.5 54c-68.667 0 -142 -38.667 -220 -116v-456
c0 -64.667 6.33301 -104 19 -118s47.667 -24 105 -30v-78h-436v78c56.667 4 94.834 12 114.501 24s29.5 52.667 29.5 122zM434 1074l155.002 221.001c41.333 59.333 66.166 91.833 74.499 97.5s17.166 8.5 26.499 8.5c10 0 31.667 -9.66699 65 -29s50 -37 50 -53
c0 -8.66699 -2.5 -16.834 -7.5 -24.501s-37.167 -38.167 -96.5 -91.5l-203 -181z" />
    <glyph glyph-name="Ncommaaccent" unicode="&#x145;" horiz-adv-x="1390" 
d="M254 510l0.00292969 421.999c0 92 -3.33301 152.167 -10 180.5s-24.834 50.833 -54.501 67.5s-74.834 26.667 -135.501 30v78h300l684 -964h6v448c0 227.333 -11.333 356.166 -34 386.499s-77.334 47.5 -164.001 51.5v78h488v-78c-90 -2 -142.167 -25.667 -156.5 -71
s-21.5 -167.666 -21.5 -366.999v-786h-98l-686 986h-6v-462c0 -197.333 7.33301 -318.166 22 -362.499s74 -67.5 178 -69.5v-78h-484v78c86.667 1.33301 137 24.833 151 70.5s21 166.167 21 361.5zM598.003 -458.001c88 38.667 132.002 88.667 132.002 150
c0 28.667 -9.33301 53.667 -28 75s-43.334 36.333 -74.001 45c-16 4 -24 18.667 -24 44c0 22.667 8.66699 42 26 58s37.333 24 60 24c41.333 0 79.666 -19.167 114.999 -57.5s53 -86.5 53 -144.5c0 -122.667 -78 -210 -234 -262z" />
    <glyph glyph-name="ncommaaccent" unicode="&#x146;" horiz-adv-x="1128" 
d="M220 224v410.002c0 65.333 -5.66699 104.5 -17 117.5s-46.333 23.167 -105 30.5v68c114 21.333 210.667 48.666 290 81.999v-144c118.667 94.667 215.334 142 290.001 142c81.333 0 145.333 -25.167 192 -75.5s70 -117.833 70 -202.5v-426
c0 -64 6.66699 -103.167 20 -117.5s48.666 -24.5 105.999 -30.5v-78h-414v78c55.333 6 89.166 15.667 101.499 29s18.5 49.666 18.5 108.999v356c0 78.667 -13.167 136 -39.5 172s-67.833 54 -124.5 54c-68.667 0 -142 -38.667 -220 -116v-456
c0 -64.667 6.33301 -104 19 -118s47.667 -24 105 -30v-78h-436v78c56.667 4 94.834 12 114.501 24s29.5 52.667 29.5 122zM428 -487.998c88 38.667 132.002 88.667 132.002 150c0 28.667 -9.33301 53.667 -28 75s-43.334 36.333 -74.001 45c-16 4 -24 18.667 -24 44
c0 22.667 8.66699 42 26 58s37.333 24 60 24c41.333 0 79.666 -19.167 114.999 -57.5s53 -86.5 53 -144.5c0 -122.667 -78 -210 -234 -262z" />
    <glyph glyph-name="Ncaron" unicode="&#x147;" horiz-adv-x="1390" 
d="M254 510l0.00292969 421.999c0 92 -3.33301 152.167 -10 180.5s-24.834 50.833 -54.501 67.5s-74.834 26.667 -135.501 30v78h300l684 -964h6v448c0 227.333 -11.333 356.166 -34 386.499s-77.334 47.5 -164.001 51.5v78h488v-78c-90 -2 -142.167 -25.667 -156.5 -71
s-21.5 -167.666 -21.5 -366.999v-786h-98l-686 986h-6v-462c0 -197.333 7.33301 -318.166 22 -362.499s74 -67.5 178 -69.5v-78h-484v78c86.667 1.33301 137 24.833 151 70.5s21 166.167 21 361.5zM728.003 1410h-66.001c-61.333 63.333 -144.666 131.333 -249.999 204
l42 68c89.333 -36.667 170 -80.667 242 -132c84 56 164 100 240 132l44 -68c-92 -59.333 -176 -127.333 -252 -204z" />
    <glyph glyph-name="ncaron" unicode="&#x148;" horiz-adv-x="1128" 
d="M220 224v410.002c0 65.333 -5.66699 104.5 -17 117.5s-46.333 23.167 -105 30.5v68c114 21.333 210.667 48.666 290 81.999v-144c118.667 94.667 215.334 142 290.001 142c81.333 0 145.333 -25.167 192 -75.5s70 -117.833 70 -202.5v-426
c0 -64 6.66699 -103.167 20 -117.5s48.666 -24.5 105.999 -30.5v-78h-414v78c55.333 6 89.166 15.667 101.499 29s18.5 49.666 18.5 108.999v356c0 78.667 -13.167 136 -39.5 172s-67.833 54 -124.5 54c-68.667 0 -142 -38.667 -220 -116v-456
c0 -64.667 6.33301 -104 19 -118s47.667 -24 105 -30v-78h-436v78c56.667 4 94.834 12 114.501 24s29.5 52.667 29.5 122zM600 1038l-76 -0.000976562c-48.667 94 -116 201.333 -202 322l80 52c82.667 -102.667 136 -171.334 160 -206.001
c18.667 26.667 72.667 95.334 162 206.001l80 -52c-91.333 -127.333 -159.333 -234.666 -204 -321.999z" />
    <glyph glyph-name="Omacron" unicode="&#x14c;" horiz-adv-x="1354" 
d="M100 632c0 187.333 54.501 347.833 163.501 481.5s252.5 200.5 430.5 200.5c156 0 288.333 -61.333 397 -184s163 -278.667 163 -468c0 -206.667 -54.833 -373 -164.5 -499s-249.5 -189 -419.5 -189c-164.667 0 -300.834 62.167 -408.501 186.5
s-161.5 281.5 -161.5 471.5zM1048 592c0 206.667 -34.166 363 -102.499 469s-165.5 159 -291.5 159c-106 0 -189.833 -46.5 -251.5 -139.5s-92.5 -224.5 -92.5 -394.5c0 -188 35.167 -338 105.5 -450s167.166 -168 290.499 -168c110 0 194.5 44.667 253.5 134
s88.5 219.333 88.5 390zM929.002 1476h-504v126h504v-126z" />
    <glyph glyph-name="omacron" unicode="&#x14d;" horiz-adv-x="1058" 
d="M92 426c0 101.333 19.666 190 58.999 266s93.5 134.667 162.5 176s141.167 62 216.5 62c125.333 0 228.666 -44.167 309.999 -132.5s122 -198.833 122 -331.5c0 -147.333 -42.667 -265.833 -128 -355.5s-186.666 -134.5 -303.999 -134.5
c-129.333 0 -234.666 44.5 -315.999 133.5s-122 194.5 -122 316.5zM769.999 418c0 132 -22.5 234.333 -67.5 307s-109.833 109 -194.5 109c-68.667 0 -122.5 -28.333 -161.5 -85s-58.5 -137 -58.5 -241c0 -134.667 24 -241 72 -319s113.333 -117 196 -117
c76.667 0 131.5 28.333 164.5 85s49.5 143.667 49.5 261zM279.999 1242h500v-130h-500v130z" />
    <glyph glyph-name="Ohungarumlaut" unicode="&#x150;" horiz-adv-x="1354" 
d="M100 632c0 187.333 54.501 347.833 163.501 481.5s252.5 200.5 430.5 200.5c156 0 288.333 -61.333 397 -184s163 -278.667 163 -468c0 -206.667 -54.833 -373 -164.5 -499s-249.5 -189 -419.5 -189c-164.667 0 -300.834 62.167 -408.501 186.5
s-161.5 281.5 -161.5 471.5zM1048 592c0 206.667 -34.166 363 -102.499 469s-165.5 159 -291.5 159c-106 0 -189.833 -46.5 -251.5 -139.5s-92.5 -224.5 -92.5 -394.5c0 -188 35.167 -338 105.5 -450s167.166 -168 290.499 -168c110 0 194.5 44.667 253.5 134
s88.5 219.333 88.5 390zM390.002 1520l173.001 141c53.333 42.667 82 65.167 86 67.5s8.66699 3.5 14 3.5c15.333 0 34.166 -16 56.499 -48s33.5 -53 33.5 -63c0 -8.66699 -3.33301 -15.5 -10 -20.5s-40.667 -21.5 -102 -49.5l-209 -97zM724.003 1480l252.502 206.5
c3.66699 3 9.5 4.5 17.5 4.5c15.333 0 34.166 -16 56.499 -48s33.5 -53.333 33.5 -64c0 -8.66699 -3.33301 -15.667 -10 -21s-40.334 -22 -101.001 -50l-209 -96z" />
    <glyph glyph-name="ohungarumlaut" unicode="&#x151;" horiz-adv-x="1058" 
d="M92 426c0 101.333 19.666 190 58.999 266s93.5 134.667 162.5 176s141.167 62 216.5 62c125.333 0 228.666 -44.167 309.999 -132.5s122 -198.833 122 -331.5c0 -147.333 -42.667 -265.833 -128 -355.5s-186.666 -134.5 -303.999 -134.5
c-129.333 0 -234.666 44.5 -315.999 133.5s-122 194.5 -122 316.5zM769.999 418c0 132 -22.5 234.333 -67.5 307s-109.833 109 -194.5 109c-68.667 0 -122.5 -28.333 -161.5 -85s-58.5 -137 -58.5 -241c0 -134.667 24 -241 72 -319s113.333 -117 196 -117
c76.667 0 131.5 28.333 164.5 85s49.5 143.667 49.5 261zM263.999 1132l155.001 224.999c40 58.667 64.167 90.667 72.5 96s17.166 8 26.499 8c11.333 0 33 -9.83301 65 -29.5s48 -37.167 48 -52.5c0 -8 -2.5 -15.667 -7.5 -23s-37.167 -37.666 -96.5 -90.999l-201 -181z
M586 1090l155.001 225.001c40 58.667 64.167 90.667 72.5 96s17.166 8 26.499 8c10.667 0 32.167 -9.83301 64.5 -29.5s48.5 -36.834 48.5 -51.501c0 -8 -2.5 -15.833 -7.5 -23.5s-37.167 -38.167 -96.5 -91.5l-203 -181z" />
    <glyph glyph-name="OE" unicode="&#x152;" horiz-adv-x="1836" 
d="M1148 1134l0.00195312 -416h172c58 0 98 2.66699 120 8s36.667 16.333 44 33s14.666 49 21.999 97h86v-384h-86c-8.66699 51.333 -17.167 86 -25.5 104s-23.166 29.833 -44.499 35.5s-60 8.5 -116 8.5h-172v-314c0 -67.333 4.5 -115.833 13.5 -145.5
s27.333 -48.834 55 -57.501s81.5 -13 161.5 -13c48 0 86.667 1.66699 116 5s55.166 10.333 77.499 21s45.5 36.834 69.5 78.501s43.667 87.5 59 137.5l84 -12c-18 -119.333 -40 -226 -66 -320h-634c-63.333 -0 -115.333 -2.66699 -156 -8c-82.667 -8 -138.667 -12 -168 -12
c-202 0 -362.5 60.333 -481.5 181s-178.5 275.667 -178.5 465c0 134.667 29.833 253.667 89.5 357s143.667 183.333 252 240s228.5 85 360.5 85c42 0 85.333 -2.66699 130 -8c64 -8 125.333 -12 184 -12h554c11.333 -158.667 18.666 -256 21.999 -292l-86 -8
c-17.333 80 -38.666 134.667 -63.999 164s-88 44 -188 44h-146c-30.667 0 -48.334 -2.83301 -53.001 -8.5s-7 -23.5 -7 -53.5zM972.002 222l0.000976562 878c0 35.333 -2.83301 58.5 -8.5 69.5s-23 20.833 -52 29.5s-74.833 13 -137.5 13
c-147.333 0 -262.5 -49.167 -345.5 -147.5s-124.5 -235.833 -124.5 -412.5c0 -178.667 42 -319.667 126 -423s202.667 -155 356 -155c36.667 0 71.167 4.5 103.5 13.5s54.166 22.667 65.499 41s17 49.5 17 93.5z" />
    <glyph glyph-name="oe" unicode="&#x153;" horiz-adv-x="1568" 
d="M1434 222l47.998 -60.001c-49.333 -62 -103.333 -108.5 -162 -139.5s-112.667 -46.5 -162 -46.5c-140 0 -247.333 56 -322 168c-41.333 -53.333 -91 -94.666 -149 -123.999s-114.333 -44 -169 -44c-124 0 -225.667 45.167 -305 135.5s-119 195.833 -119 316.5
c0 152.667 44.333 274.5 133 365.5s188.334 136.5 299.001 136.5c66.667 0 128.167 -16.833 184.5 -50.5s101.5 -81.5 135.5 -143.5c92.667 129.333 205.334 194 338.001 194c84.667 0 158.167 -32.833 220.5 -98.5s93.5 -142.167 93.5 -229.5c0 -33.333 -3 -55.5 -9 -66.5
s-18.5 -18.5 -37.5 -22.5s-85.333 -9.83301 -199 -17.5s-227.167 -13.5 -340.5 -17.5c0 -119.333 29.667 -207.833 89 -265.5s130.333 -86.5 213 -86.5c92 0 165.333 32 220 96zM753.998 417.999c0 126.667 -21.001 227.666 -63.001 302.999s-104.333 113 -187 113
c-64 0 -115.667 -29.167 -155 -87.5s-59 -139.166 -59 -242.499c0 -130 23.833 -234.167 71.5 -312.5s109.834 -117.5 186.501 -117.5c137.333 0 206 114.667 206 344zM923.997 583.998l356.001 5.99902c15.333 0 25.166 3.83301 29.499 11.5s6.5 21.834 6.5 42.501
c0 58 -16.167 104.167 -48.5 138.5s-75.5 51.5 -129.5 51.5c-49.333 0 -94.5 -22 -135.5 -66s-67.167 -105.333 -78.5 -184z" />
    <glyph glyph-name="Racute" unicode="&#x154;" horiz-adv-x="1256" 
d="M258 256l0.00488281 773.997c0 56.667 -3.33301 96 -10 118s-20.334 36.667 -41.001 44s-58.334 13.333 -113.001 18v78h482c288 0 432 -109.333 432 -328c0 -155.333 -77.333 -270.666 -232 -345.999c136.667 -234 235.167 -383.833 295.5 -449.5
s113.833 -103.167 160.5 -112.5l-8 -68c-99.333 0 -175.333 11.667 -228 35s-102.834 67.833 -150.501 133.5s-114.834 178.167 -201.501 337.5c-22.667 44 -66.667 66 -132 66h-80v-300c0 -56 3.5 -95.167 10.5 -117.5s21.167 -37.166 42.5 -44.499
s60.333 -12.666 117 -15.999v-78h-518v78c81.333 5.33301 130.666 16.5 147.999 33.5s26 65.167 26 144.5zM432.005 1128l0.000976562 -482.001h94c70 0 125 10.167 165 30.5s71.5 53.333 94.5 99s34.5 96.5 34.5 152.5c0 86.667 -25.333 153.334 -76 200.001
s-117.334 70 -200.001 70c-24.667 0 -46 -1.5 -64 -4.5s-30.5 -7.5 -37.5 -13.5s-10.5 -23.333 -10.5 -52zM452.006 1478l226 139.999c69.333 43.333 106.5 66 111.5 68s10.167 3 15.5 3c18 0 38.833 -15.833 62.5 -47.5s35.5 -52.5 35.5 -62.5
c0 -9.33301 -3.83301 -16.666 -11.5 -21.999s-51.167 -22 -130.5 -50l-271 -95z" />
    <glyph glyph-name="racute" unicode="&#x155;" horiz-adv-x="790" 
d="M220 226v402c0 68.667 -5.66699 109.834 -17 123.501s-47.666 24.5 -108.999 32.5v68c112 21.333 210 48 294 80v-212h4c34 64 73.167 115 117.5 153s87.166 57 128.499 57c32 0 59.667 -11.333 83 -34s35 -47.334 35 -74.001c0 -33.333 -10.333 -61 -31 -83
s-42 -33 -64 -33c-12.667 0 -22.334 4 -29.001 12c-25.333 25.333 -52 38 -80 38c-19.333 0 -40.166 -8.83301 -62.499 -26.5s-44.833 -47 -67.5 -88s-34 -68.167 -34 -81.5v-336c0 -64 8 -102.833 24 -116.5s64 -23.5 144 -29.5v-78h-476v78c65.333 6 105 16 119 30
s21 53.333 21 118zM326 1074l155.002 221.001c41.333 59.333 66.166 91.833 74.499 97.5s17.166 8.5 26.499 8.5c10 0 31.667 -9.66699 65 -29s50 -37 50 -53c0 -8.66699 -2.5 -16.834 -7.5 -24.501s-37.167 -38.167 -96.5 -91.5l-203 -181z" />
    <glyph glyph-name="Rcommaaccent" unicode="&#x156;" horiz-adv-x="1256" 
d="M258 256l0.00488281 773.997c0 56.667 -3.33301 96 -10 118s-20.334 36.667 -41.001 44s-58.334 13.333 -113.001 18v78h482c288 0 432 -109.333 432 -328c0 -155.333 -77.333 -270.666 -232 -345.999c136.667 -234 235.167 -383.833 295.5 -449.5
s113.833 -103.167 160.5 -112.5l-8 -68c-99.333 0 -175.333 11.667 -228 35s-102.834 67.833 -150.501 133.5s-114.834 178.167 -201.501 337.5c-22.667 44 -66.667 66 -132 66h-80v-300c0 -56 3.5 -95.167 10.5 -117.5s21.167 -37.166 42.5 -44.499
s60.333 -12.666 117 -15.999v-78h-518v78c81.333 5.33301 130.666 16.5 147.999 33.5s26 65.167 26 144.5zM432.005 1128l0.000976562 -482.001h94c70 0 125 10.167 165 30.5s71.5 53.333 94.5 99s34.5 96.5 34.5 152.5c0 86.667 -25.333 153.334 -76 200.001
s-117.334 70 -200.001 70c-24.667 0 -46 -1.5 -64 -4.5s-30.5 -7.5 -37.5 -13.5s-10.5 -23.333 -10.5 -52zM602.006 -458.004c88 38.667 132.002 88.667 132.002 150c0 28.667 -9.33301 53.667 -28 75s-43.334 36.333 -74.001 45c-16 4 -24 18.667 -24 44
c0 22.667 8.66699 42 26 58s37.333 24 60 24c41.333 0 79.666 -19.167 114.999 -57.5s53 -86.5 53 -144.5c0 -122.667 -78 -210 -234 -262z" />
    <glyph glyph-name="rcommaaccent" unicode="&#x157;" horiz-adv-x="790" 
d="M220 226v402c0 68.667 -5.66699 109.834 -17 123.501s-47.666 24.5 -108.999 32.5v68c112 21.333 210 48 294 80v-212h4c34 64 73.167 115 117.5 153s87.166 57 128.499 57c32 0 59.667 -11.333 83 -34s35 -47.334 35 -74.001c0 -33.333 -10.333 -61 -31 -83
s-42 -33 -64 -33c-12.667 0 -22.334 4 -29.001 12c-25.333 25.333 -52 38 -80 38c-19.333 0 -40.166 -8.83301 -62.499 -26.5s-44.833 -47 -67.5 -88s-34 -68.167 -34 -81.5v-336c0 -64 8 -102.833 24 -116.5s64 -23.5 144 -29.5v-78h-476v78c65.333 6 105 16 119 30
s21 53.333 21 118zM218 -488c88 38.667 132.002 88.667 132.002 150c0 28.667 -9.33301 53.667 -28 75s-43.334 36.333 -74.001 45c-16 4 -24 18.667 -24 44c0 22.667 8.66699 42 26 58s37.333 24 60 24c41.333 0 79.666 -19.167 114.999 -57.5s53 -86.5 53 -144.5
c0 -122.667 -78 -210 -234 -262z" />
    <glyph glyph-name="Rcaron" unicode="&#x158;" horiz-adv-x="1256" 
d="M258 256l0.00488281 773.997c0 56.667 -3.33301 96 -10 118s-20.334 36.667 -41.001 44s-58.334 13.333 -113.001 18v78h482c288 0 432 -109.333 432 -328c0 -155.333 -77.333 -270.666 -232 -345.999c136.667 -234 235.167 -383.833 295.5 -449.5
s113.833 -103.167 160.5 -112.5l-8 -68c-99.333 0 -175.333 11.667 -228 35s-102.834 67.833 -150.501 133.5s-114.834 178.167 -201.501 337.5c-22.667 44 -66.667 66 -132 66h-80v-300c0 -56 3.5 -95.167 10.5 -117.5s21.167 -37.166 42.5 -44.499
s60.333 -12.666 117 -15.999v-78h-518v78c81.333 5.33301 130.666 16.5 147.999 33.5s26 65.167 26 144.5zM432.005 1128l0.000976562 -482.001h94c70 0 125 10.167 165 30.5s71.5 53.333 94.5 99s34.5 96.5 34.5 152.5c0 86.667 -25.333 153.334 -76 200.001
s-117.334 70 -200.001 70c-24.667 0 -46 -1.5 -64 -4.5s-30.5 -7.5 -37.5 -13.5s-10.5 -23.333 -10.5 -52zM620.006 1420h-66.001c-61.333 63.333 -144.666 131.333 -249.999 204l42 68c89.333 -36.667 170 -80.667 242 -132c84 56 164 100 240 132l44 -68
c-92 -59.333 -176 -127.333 -252 -204z" />
    <glyph glyph-name="rcaron" unicode="&#x159;" horiz-adv-x="790" 
d="M220 226v402c0 68.667 -5.66699 109.834 -17 123.501s-47.666 24.5 -108.999 32.5v68c112 21.333 210 48 294 80v-212h4c34 64 73.167 115 117.5 153s87.166 57 128.499 57c32 0 59.667 -11.333 83 -34s35 -47.334 35 -74.001c0 -33.333 -10.333 -61 -31 -83
s-42 -33 -64 -33c-12.667 0 -22.334 4 -29.001 12c-25.333 25.333 -52 38 -80 38c-19.333 0 -40.166 -8.83301 -62.499 -26.5s-44.833 -47 -67.5 -88s-34 -68.167 -34 -81.5v-336c0 -64 8 -102.833 24 -116.5s64 -23.5 144 -29.5v-78h-476v78c65.333 6 105 16 119 30
s21 53.333 21 118zM433 1038l-76 -0.000976562c-48.667 94 -116 201.333 -202 322l80 52c82.667 -102.667 136 -171.334 160 -206.001c18.667 26.667 72.667 95.334 162 206.001l80 -52c-91.333 -127.333 -159.333 -234.666 -204 -321.999z" />
    <glyph glyph-name="Sacute" unicode="&#x15a;" horiz-adv-x="974" 
d="M90 360l83.9971 14c64.667 -204 170.667 -306 318 -306c68.667 0 122.834 19.833 162.501 59.5s59.5 94.5 59.5 164.5c0 58.667 -16.333 110.167 -49 154.5s-97 90.166 -193 137.499c-128 62.667 -214.333 124 -259 184s-67 123.333 -67 190
c0 101.333 36.833 186 110.5 254s170.167 102 289.5 102c76.667 0 160.667 -16 252 -48l38 -282l-86 -12c-23.333 92.667 -54 156.834 -92 192.501s-87.333 53.5 -148 53.5s-108.5 -17.833 -143.5 -53.5s-52.5 -82.5 -52.5 -140.5c0 -62 19.333 -112.833 58 -152.5
s98.667 -78.167 180 -115.5c132.667 -60.667 221.5 -122.667 266.5 -186s67.5 -133.333 67.5 -210c0 -112.667 -40.667 -205.167 -122 -277.5s-184.666 -108.5 -309.999 -108.5c-94 0 -196 22.667 -306 68c-9.33301 30.667 -28.666 136.667 -57.999 318zM371.997 1478
l226 139.999c69.333 43.333 106.5 66 111.5 68s10.167 3 15.5 3c18 0 38.833 -15.833 62.5 -47.5s35.5 -52.5 35.5 -62.5c0 -9.33301 -3.83301 -16.666 -11.5 -21.999s-51.167 -22 -130.5 -50l-271 -95z" />
    <glyph glyph-name="sacute" unicode="&#x15b;" horiz-adv-x="818" 
d="M694 662l-80.0039 -17.9971c-49.333 128 -115.333 192 -198 192c-37.333 0 -67.666 -11.5 -90.999 -34.5s-35 -52.167 -35 -87.5c0 -64.667 57.333 -120 172 -166c176 -68.667 264 -165.334 264 -290.001c0 -84.667 -34.667 -152.834 -104 -204.501
s-150.666 -77.5 -243.999 -77.5c-32.667 0 -65 3.66699 -97 11s-60.833 16.833 -86.5 28.5s-46.5 23.5 -62.5 35.5c-9.33301 7.33301 -18 42.333 -26 105c-5.33301 45.333 -8 95.333 -8 150l76 14c18 -72.667 49.333 -132.5 94 -179.5s93.334 -70.5 146.001 -70.5
c39.333 0 72.5 11.667 99.5 35s40.5 54.333 40.5 93c0 80 -52.667 142 -158 186c-93.333 38 -160 79 -200 123s-60 93.667 -60 149c0 78 30.333 143.167 91 195.5s138.334 78.5 233.001 78.5c64 0 124 -12.667 180 -38c20.667 -40.667 38.667 -117.334 54 -230.001z
M319.996 1074l155.002 221.001c41.333 59.333 66.166 91.833 74.499 97.5s17.166 8.5 26.499 8.5c10 0 31.667 -9.66699 65 -29s50 -37 50 -53c0 -8.66699 -2.5 -16.834 -7.5 -24.501s-37.167 -38.167 -96.5 -91.5l-203 -181z" />
    <glyph glyph-name="Scedilla" unicode="&#x15e;" horiz-adv-x="974" 
d="M90 360l84 14c64.667 -204 170.667 -306 318 -306c68.667 0 122.834 19.833 162.501 59.5s59.5 94.5 59.5 164.5c0 58.667 -16.333 110.167 -49 154.5s-97 90.166 -193 137.499c-128 62.667 -214.333 124 -259 184s-67 123.333 -67 190c0 101.333 36.833 186 110.5 254
s170.167 102 289.5 102c76.667 0 160.667 -16 252 -48l38 -282l-86 -12c-23.333 92.667 -54 156.834 -92 192.501s-87.333 53.5 -148 53.5s-108.5 -17.833 -143.5 -53.5s-52.5 -82.5 -52.5 -140.5c0 -62 19.333 -112.833 58 -152.5s98.667 -78.167 180 -115.5
c132.667 -60.667 221.5 -122.667 266.5 -186s67.5 -133.333 67.5 -210c0 -94 -29.667 -175.5 -89 -244.5s-140.333 -112.833 -243 -131.5c-30.667 -42 -47.334 -65 -50.001 -69s-4 -9.33301 -4 -16c0 -10 8.66699 -24.333 26 -43c50.667 -54.667 76 -104 76 -148
c0 -91.333 -77.333 -164 -232 -218l-38 74c84 44 126 86.667 126 128c0 16 -14.667 38.667 -44 68c-29.333 32 -44 58 -44 78c0 8.66699 2.16699 18.5 6.5 29.5s28.166 46.5 71.499 106.5c-89.333 0 -189.333 22.667 -300 68c-9.33301 30.667 -28.666 136.667 -57.999 318z
" />
    <glyph glyph-name="scedilla" unicode="&#x15f;" horiz-adv-x="818" 
d="M694 662l-80.0039 -17.9971c-49.333 128 -115.333 192 -198 192c-37.333 0 -67.666 -11.5 -90.999 -34.5s-35 -52.167 -35 -87.5c0 -64.667 57.333 -120 172 -166c176 -68.667 264 -165.334 264 -290.001c0 -62.667 -20 -117.167 -60 -163.5s-96 -80.5 -168 -102.5
l-55 -79c-2.66699 -4 -4 -9 -4 -15c0 -10 8.33301 -24 25 -42c50.667 -54.667 76 -104 76 -148c0 -91.333 -77.333 -164 -232 -218l-40 76c84 40.667 126 82.667 126 126c0 14.667 -14 37.334 -42 68.001c-30 32.667 -45 58.667 -45 78c0 12 2.83301 23.167 8.5 33.5
s29.834 45.166 72.501 104.499c-50 0 -98.667 7.33301 -146 22c-73.333 22 -113.333 45.333 -120 70c-16 57.333 -24 136.666 -24 237.999l76 14c18 -72.667 49.333 -132.5 94 -179.5s93.334 -70.5 146.001 -70.5c39.333 0 72.5 11.667 99.5 35s40.5 54.333 40.5 93
c0 80 -52.667 142 -158 186c-93.333 38 -160 79 -200 123s-60 93.667 -60 149c0 78 30.333 143.167 91 195.5s138.334 78.5 233.001 78.5c64 0 124 -12.667 180 -38c20.667 -40.667 38.667 -117.334 54 -230.001z" />
    <glyph glyph-name="Scaron" unicode="&#x160;" horiz-adv-x="974" 
d="M90 360l83.9971 14c64.667 -204 170.667 -306 318 -306c68.667 0 122.834 19.833 162.501 59.5s59.5 94.5 59.5 164.5c0 58.667 -16.333 110.167 -49 154.5s-97 90.166 -193 137.499c-128 62.667 -214.333 124 -259 184s-67 123.333 -67 190
c0 101.333 36.833 186 110.5 254s170.167 102 289.5 102c76.667 0 160.667 -16 252 -48l38 -282l-86 -12c-23.333 92.667 -54 156.834 -92 192.501s-87.333 53.5 -148 53.5s-108.5 -17.833 -143.5 -53.5s-52.5 -82.5 -52.5 -140.5c0 -62 19.333 -112.833 58 -152.5
s98.667 -78.167 180 -115.5c132.667 -60.667 221.5 -122.667 266.5 -186s67.5 -133.333 67.5 -210c0 -112.667 -40.667 -205.167 -122 -277.5s-184.666 -108.5 -309.999 -108.5c-94 0 -196 22.667 -306 68c-9.33301 30.667 -28.666 136.667 -57.999 318zM536.997 1419
h-66.001c-61.333 63.333 -144.666 131.333 -249.999 204l42 68c89.333 -36.667 170 -80.667 242 -132c84 56 164 100 240 132l44 -68c-92 -59.333 -176 -127.333 -252 -204z" />
    <glyph glyph-name="scaron" unicode="&#x161;" horiz-adv-x="818" 
d="M694 662l-80.0039 -17.9971c-49.333 128 -115.333 192 -198 192c-37.333 0 -67.666 -11.5 -90.999 -34.5s-35 -52.167 -35 -87.5c0 -64.667 57.333 -120 172 -166c176 -68.667 264 -165.334 264 -290.001c0 -84.667 -34.667 -152.834 -104 -204.501
s-150.666 -77.5 -243.999 -77.5c-32.667 0 -65 3.66699 -97 11s-60.833 16.833 -86.5 28.5s-46.5 23.5 -62.5 35.5c-9.33301 7.33301 -18 42.333 -26 105c-5.33301 45.333 -8 95.333 -8 150l76 14c18 -72.667 49.333 -132.5 94 -179.5s93.334 -70.5 146.001 -70.5
c39.333 0 72.5 11.667 99.5 35s40.5 54.333 40.5 93c0 80 -52.667 142 -158 186c-93.333 38 -160 79 -200 123s-60 93.667 -60 149c0 78 30.333 143.167 91 195.5s138.334 78.5 233.001 78.5c64 0 124 -12.667 180 -38c20.667 -40.667 38.667 -117.334 54 -230.001z
M466.996 1037l-76 -0.000976562c-48.667 94 -116 201.333 -202 322l80 52c82.667 -102.667 136 -171.334 160 -206.001c18.667 26.667 72.667 95.334 162 206.001l80 -52c-91.333 -127.333 -159.333 -234.666 -204 -321.999z" />
    <glyph glyph-name="Tcommaaccent" unicode="&#x162;" horiz-adv-x="1192" 
d="M506 276l0.00390625 918.001h-92c-90.667 0 -150.334 -12.833 -179.001 -38.5s-53.667 -85.5 -75 -179.5h-84l22 362h52c19.333 -33.333 52.666 -50 99.999 -50h700c22.667 0 39.5 2.83301 50.5 8.5s24.833 19.5 41.5 41.5h52c1.33301 -72.667 8 -191.334 20 -356.001
l-86 -6c-17.333 96 -40.5 156.333 -69.5 181s-86.5 37 -172.5 37h-104v-918c0 -63.333 3.83301 -107.166 11.5 -131.499s24.167 -40.666 49.5 -48.999s71.666 -14.166 138.999 -17.499v-78h-568v78c64.667 3.33301 109.167 9.16602 133.5 17.499
s40.166 24.666 47.499 48.999s11 68.166 11 131.499zM460.004 -487.999c88 38.667 132.002 88.667 132.002 150c0 28.667 -9.33301 53.667 -28 75s-43.334 36.333 -74.001 45c-16 4 -24 18.667 -24 44c0 22.667 8.66699 42 26 58s37.333 24 60 24
c41.333 0 79.666 -19.167 114.999 -57.5s53 -86.5 53 -144.5c0 -122.667 -78 -210 -234 -262z" />
    <glyph glyph-name="tcommaaccent" unicode="&#x163;" horiz-adv-x="650" 
d="M202 226l-0.000976562 584h-136l-14 30l58 66h92v132l130 134l38 -2v-264h216c6.66699 -8.66699 10 -20.667 10 -36c0 -26.667 -8 -46.667 -24 -60h-202v-524c0 -124 36 -186 108 -186c33.333 0 71.333 9.33301 114 28l26 -74c-93.333 -40 -149.166 -63 -167.499 -69
s-37.833 -9 -58.5 -9c-60.667 0 -107.5 21.5 -140.5 64.5s-49.5 104.833 -49.5 185.5zM267.999 -488c88 38.667 132.002 88.667 132.002 150c0 28.667 -9.33301 53.667 -28 75s-43.334 36.333 -74.001 45c-16 4 -24 18.667 -24 44c0 22.667 8.66699 42 26 58
s37.333 24 60 24c41.333 0 79.666 -19.167 114.999 -57.5s53 -86.5 53 -144.5c0 -122.667 -78 -210 -234 -262z" />
    <glyph glyph-name="Tcaron" unicode="&#x164;" horiz-adv-x="1192" 
d="M506 276l0.00390625 918.001h-92c-90.667 0 -150.334 -12.833 -179.001 -38.5s-53.667 -85.5 -75 -179.5h-84l22 362h52c19.333 -33.333 52.666 -50 99.999 -50h700c22.667 0 39.5 2.83301 50.5 8.5s24.833 19.5 41.5 41.5h52c1.33301 -72.667 8 -191.334 20 -356.001
l-86 -6c-17.333 96 -40.5 156.333 -69.5 181s-86.5 37 -172.5 37h-104v-918c0 -63.333 3.83301 -107.166 11.5 -131.499s24.167 -40.666 49.5 -48.999s71.666 -14.166 138.999 -17.499v-78h-568v78c64.667 3.33301 109.167 9.16602 133.5 17.499
s40.166 24.666 47.499 48.999s11 68.166 11 131.499zM628.004 1420h-66.001c-61.333 63.333 -144.666 131.333 -249.999 204l42 68c89.333 -36.667 170 -80.667 242 -132c84 56 164 100 240 132l44 -68c-92 -59.333 -176 -127.333 -252 -204z" />
    <glyph glyph-name="tcaron" unicode="&#x165;" horiz-adv-x="750" 
d="M202 226l-0.000976562 584h-136l-14 30l58 66h92v132l130 134l38 -2v-264h216c6.66699 -8.66699 10 -20.667 10 -36c0 -26.667 -8 -46.667 -24 -60h-202v-524c0 -124 36 -186 108 -186c33.333 0 71.333 9.33301 114 28l26 -74c-93.333 -40 -149.166 -63 -167.499 -69
s-37.833 -9 -58.5 -9c-60.667 0 -107.5 21.5 -140.5 64.5s-49.5 104.833 -49.5 185.5zM467.999 1052c88 38.667 132.002 88.667 132.002 150c0 28.667 -9.33301 53.667 -28 75s-43.334 36.333 -74.001 45c-16 4 -24 18.667 -24 44c0 22.667 8.66699 42 26 58
s37.333 24 60 24c41.333 0 79.666 -19.167 114.999 -57.5s53 -86.5 53 -144.5c0 -122.667 -78 -210 -234 -262z" />
    <glyph glyph-name="Umacron" unicode="&#x16a;" horiz-adv-x="1398" 
d="M242 506l0.000976562 527.998c0 77.333 -8.83301 125 -26.5 143s-66.834 29 -147.501 33v78h516v-78c-76.667 -5.33301 -123.5 -16.666 -140.5 -33.999s-25.5 -64.666 -25.5 -141.999v-458c0 -105.333 10.5 -193 31.5 -263s54.167 -123 99.5 -159s109 -54 191 -54
c114 0 196.5 45.5 247.5 136.5s76.5 227.5 76.5 409.5v118c0 222.667 -8.33301 352 -25 388s-75 55.333 -175 58v78h490v-78c-91.333 0 -143.833 -23.667 -157.5 -71s-20.5 -172.333 -20.5 -375v-152c0 -244 -46.667 -411.333 -140 -502s-205.333 -136 -336 -136
c-150.667 0 -264.667 41.333 -342 124s-116 218.667 -116 408zM981.001 1476h-504v126h504v-126z" />
    <glyph glyph-name="umacron" unicode="&#x16b;" horiz-adv-x="1110" 
d="M752 214l-0.000976562 467.999c0 38.667 -3.5 66 -10.5 82s-17.833 26 -32.5 30s-52.334 9.33301 -113.001 16v72c147.333 8 255.333 20 324 36v-688c0 -46 5.16699 -75.167 15.5 -87.5s32.5 -18.5 66.5 -18.5h64v-76c-61.333 -6.66699 -160.666 -30.667 -297.999 -72
l-16 12v124c-113.333 -90.667 -213.333 -136 -300 -136c-78.667 0 -140 25.5 -184 76.5s-66 124.833 -66 221.5v406c0 38 -3 65 -9 81s-14.833 26 -26.5 30s-41.167 9.66699 -88.5 17v72c64.667 2.66699 164 15.334 298 38.001c-4 -60.667 -6 -158.667 -6 -294v-294
c0 -73.333 13.333 -128.333 40 -165s70 -55 130 -55c62.667 0 133.334 34.667 212.001 104zM305.999 1252h500v-130h-500v130z" />
    <glyph glyph-name="Uring" unicode="&#x16e;" horiz-adv-x="1398" 
d="M242 506l0.000976562 527.998c0 77.333 -8.83301 125 -26.5 143s-66.834 29 -147.501 33v78h516v-78c-76.667 -5.33301 -123.5 -16.666 -140.5 -33.999s-25.5 -64.666 -25.5 -141.999v-458c0 -105.333 10.5 -193 31.5 -263s54.167 -123 99.5 -159s109 -54 191 -54
c114 0 196.5 45.5 247.5 136.5s76.5 227.5 76.5 409.5v118c0 222.667 -8.33301 352 -25 388s-75 55.333 -175 58v78h490v-78c-91.333 0 -143.833 -23.667 -157.5 -71s-20.5 -172.333 -20.5 -375v-152c0 -244 -46.667 -411.333 -140 -502s-205.333 -136 -336 -136
c-150.667 0 -264.667 41.333 -342 124s-116 218.667 -116 408zM516.001 1582c0 58.667 21 106.667 63 144s92.333 56 151 56s109 -18.667 151 -56s63 -85.333 63 -144c0 -60 -21.167 -109.333 -63.5 -148s-92.5 -58 -150.5 -58s-108.167 19.333 -150.5 58
s-63.5 88 -63.5 148zM838.001 1580c0 35.333 -9.66699 63.501 -29 84.501s-45 31.5 -77 31.5s-57.667 -10.5 -77 -31.5s-29 -48.5 -29 -82.5c0 -34.667 9.83301 -63.334 29.5 -86.001s45.167 -34 76.5 -34c30.667 0 56 11.167 76 33.5s30 50.5 30 84.5z" />
    <glyph glyph-name="uring" unicode="&#x16f;" horiz-adv-x="1110" 
d="M752 214l-0.000976562 467.999c0 38.667 -3.5 66 -10.5 82s-17.833 26 -32.5 30s-52.334 9.33301 -113.001 16v72c147.333 8 255.333 20 324 36v-688c0 -46 5.16699 -75.167 15.5 -87.5s32.5 -18.5 66.5 -18.5h64v-76c-61.333 -6.66699 -160.666 -30.667 -297.999 -72
l-16 12v124c-113.333 -90.667 -213.333 -136 -300 -136c-78.667 0 -140 25.5 -184 76.5s-66 124.833 -66 221.5v406c0 38 -3 65 -9 81s-14.833 26 -26.5 30s-41.167 9.66699 -88.5 17v72c64.667 2.66699 164 15.334 298 38.001c-4 -60.667 -6 -158.667 -6 -294v-294
c0 -73.333 13.333 -128.333 40 -165s70 -55 130 -55c62.667 0 133.334 34.667 212.001 104zM341.999 1242c0 60 21.333 108.333 64 145s92.667 55 150 55c58.667 0 109 -18.667 151 -56s63 -85.333 63 -144c0 -60 -21.167 -109.333 -63.5 -148s-92.5 -58 -150.5 -58
s-108.167 19.333 -150.5 58s-63.5 88 -63.5 148zM663.999 1240c0 34.667 -9.66699 62.668 -29 84.001s-45 32 -77 32s-57.667 -10.5 -77 -31.5s-29 -48.5 -29 -82.5c0 -34.667 9.83301 -63.334 29.5 -86.001s45.167 -34 76.5 -34c30.667 0 56 11.167 76 33.5
s30 50.5 30 84.5z" />
    <glyph glyph-name="Uhungarumlaut" unicode="&#x170;" horiz-adv-x="1398" 
d="M242 506l0.000976562 527.998c0 77.333 -8.83301 125 -26.5 143s-66.834 29 -147.501 33v78h516v-78c-76.667 -5.33301 -123.5 -16.666 -140.5 -33.999s-25.5 -64.666 -25.5 -141.999v-458c0 -105.333 10.5 -193 31.5 -263s54.167 -123 99.5 -159s109 -54 191 -54
c114 0 196.5 45.5 247.5 136.5s76.5 227.5 76.5 409.5v118c0 222.667 -8.33301 352 -25 388s-75 55.333 -175 58v78h490v-78c-91.333 0 -143.833 -23.667 -157.5 -71s-20.5 -172.333 -20.5 -375v-152c0 -244 -46.667 -411.333 -140 -502s-205.333 -136 -336 -136
c-150.667 0 -264.667 41.333 -342 124s-116 218.667 -116 408zM412.001 1520l173.001 141c53.333 42.667 82 65.167 86 67.5s8.66699 3.5 14 3.5c15.333 0 34.166 -16 56.499 -48s33.5 -53 33.5 -63c0 -8.66699 -3.33301 -15.5 -10 -20.5s-40.667 -21.5 -102 -49.5l-209 -97
zM746.002 1480l252.502 206.5c3.66699 3 9.5 4.5 17.5 4.5c15.333 0 34.166 -16 56.499 -48s33.5 -53.333 33.5 -64c0 -8.66699 -3.33301 -15.667 -10 -21s-40.334 -22 -101.001 -50l-209 -96z" />
    <glyph glyph-name="uhungarumlaut" unicode="&#x171;" horiz-adv-x="1110" 
d="M752 214l-0.000976562 467.999c0 38.667 -3.5 66 -10.5 82s-17.833 26 -32.5 30s-52.334 9.33301 -113.001 16v72c147.333 8 255.333 20 324 36v-688c0 -46 5.16699 -75.167 15.5 -87.5s32.5 -18.5 66.5 -18.5h64v-76c-61.333 -6.66699 -160.666 -30.667 -297.999 -72
l-16 12v124c-113.333 -90.667 -213.333 -136 -300 -136c-78.667 0 -140 25.5 -184 76.5s-66 124.833 -66 221.5v406c0 38 -3 65 -9 81s-14.833 26 -26.5 30s-41.167 9.66699 -88.5 17v72c64.667 2.66699 164 15.334 298 38.001c-4 -60.667 -6 -158.667 -6 -294v-294
c0 -73.333 13.333 -128.333 40 -165s70 -55 130 -55c62.667 0 133.334 34.667 212.001 104zM269.999 1112l155.001 224.999c40 58.667 64.167 90.667 72.5 96s17.166 8 26.499 8c11.333 0 33 -9.83301 65 -29.5s48 -37.167 48 -52.5c0 -8 -2.5 -15.667 -7.5 -23
s-37.167 -37.666 -96.5 -90.999l-201 -181zM592 1070l155.001 225.001c40 58.667 64.167 90.667 72.5 96s17.166 8 26.499 8c10.667 0 32.167 -9.83301 64.5 -29.5s48.5 -36.834 48.5 -51.501c0 -8 -2.5 -15.833 -7.5 -23.5s-37.167 -38.167 -96.5 -91.5l-203 -181z" />
    <glyph glyph-name="Uogonek" unicode="&#x172;" horiz-adv-x="1398" 
d="M242 506l0.000976562 527.999c0 77.333 -8.83301 125 -26.5 143s-66.834 29 -147.501 33v78h516v-78c-76.667 -5.33301 -123.5 -16.666 -140.5 -33.999s-25.5 -64.666 -25.5 -141.999v-458c0 -105.333 10.5 -193 31.5 -263s54.167 -123 99.5 -159s109 -54 191 -54
c114 0 196.5 45.5 247.5 136.5s76.5 227.5 76.5 409.5v118c0 222.667 -8.33301 352 -25 388s-75 55.333 -175 58v78h490v-78c-91.333 0 -143.833 -23.667 -157.5 -71s-20.5 -172.333 -20.5 -375v-152c0 -170.667 -21.167 -299.334 -63.5 -386.001s-93.833 -146 -154.5 -178
c-75.333 -65.333 -129.166 -120.5 -161.499 -165.5s-48.5 -87.833 -48.5 -128.5c0 -31.333 10.5 -56.833 31.5 -76.5s46.5 -29.5 76.5 -29.5c28 0 60.667 6.66699 98 20l22 -56c-77.333 -40.667 -123 -63.5 -137 -68.5s-28.333 -7.5 -43 -7.5
c-59.333 0 -104.833 15.833 -136.5 47.5s-47.5 70.5 -47.5 116.5c0 80.667 56 174.667 168 282c-24.667 -5.33301 -51.334 -8 -80.001 -8c-150.667 0 -264.667 41.333 -342 124s-116 218.667 -116 408z" />
    <glyph glyph-name="uogonek" unicode="&#x173;" horiz-adv-x="1110" 
d="M752 214l0.000976562 467.999c0 38.667 -3.5 66 -10.5 82s-17.833 26 -32.5 30s-52.334 9.33301 -113.001 16v72c147.333 8 255.333 20 324 36v-688c0 -46 5.16699 -75.167 15.5 -87.5s32.5 -18.5 66.5 -18.5h64v-76c-126.667 -113.333 -190 -209.333 -190 -288
c0 -32.667 9.83301 -58.834 29.5 -78.501s43.834 -29.5 72.501 -29.5c24.667 0 54.667 6.66699 90 20l26 -64c-74.667 -39.333 -118.834 -61.5 -132.501 -66.5s-28.834 -7.5 -45.501 -7.5c-56 0 -99.333 16 -130 48s-46 70.667 -46 116c0 95.333 63.333 203.333 190 324
c-36.667 -9.33301 -90.667 -24.666 -162 -45.999l-16 12v124c-113.333 -90.667 -213.333 -136 -300 -136c-78.667 0 -140 25.5 -184 76.5s-66 124.833 -66 221.5v406c0 38 -3 65 -9 81s-14.833 26 -26.5 30s-41.167 9.66699 -88.5 17v72
c64.667 2.66699 164 15.334 298 38.001c-4 -60.667 -6 -158.667 -6 -294v-294c0 -73.333 13.333 -128.333 40 -165s70 -55 130 -55c62.667 0 133.334 34.667 212.001 104z" />
    </font>
</defs>
</svg>
