<?xml version="1.0" encoding="utf-8"?>
<!-- Generator: Adobe Illustrator 16.0.0, SVG Export Plug-In . SVG Version: 6.00 Build 0)  -->
<!DOCTYPE svg PUBLIC "-//W3C//DTD SVG 1.1//EN" "http://www.w3.org/Graphics/SVG/1.1/DTD/svg11.dtd">
<svg version="1.1" id="Layer_1" xmlns="http://www.w3.org/2000/svg" xmlns:xlink="http://www.w3.org/1999/xlink" x="0px" y="0px"
	 width="960px" height="540px" viewBox="0 0 960 540" enable-background="new 0 0 960 540" xml:space="preserve">
<g target="108">
	<path fill-opacity="0" fill="#ffffff" d="M627.57,47.25c1.09-0.21,2.19-0.42,3.29-0.63c3.01,1.21,5.76,2.94,8.63,4.44
		c-0.88,2.54-1.76,5.08-2.64,7.63c-3.74-1.02-7.34-2.47-10.72-4.37C626.74,51.99,627.28,49.64,627.57,47.25z"/>
	<path fill-opacity="0" fill="#ffffff" d="M657.16,51.78c6.22,1.67,11.8,4.96,17.78,7.26c1.98,0.9,4.19,1.52,5.83,3.03
		c3.78,5.33,10.78,6.34,15.67,10.36c6.85,2.41,14.07,4.59,19.61,9.53c11.01,7.32,21.81,14.98,32.83,22.3
		c-0.25,0.77-0.5,1.55-0.73,2.34c5.69,4.49,11.59,8.72,17.57,12.82c2.84,2.99,4.71,7.08,8.33,9.23c6.32,2.01,11.01,7.01,17.09,9.57
		c0.2,0.18,0.6,0.54,0.8,0.71c0.32-0.41,0.97-1.25,1.3-1.66c1.06-0.08,2.12-0.16,3.2-0.23c0.45,0.89,0.92,1.78,1.39,2.67
		c-0.34,0.45-1.03,1.34-1.38,1.79c-0.5,0.63-1,1.28-1.48,1.92c2.09,1.4,4.271,2.67,6.51,3.83c1.78,1.31,3.49,2.73,5.11,4.25
		c1.8,4.22,5.21,7.33,8.86,9.95c4.35,3.04,6.88,7.89,10.96,11.23c5.66,4.76,10.33,10.52,14.95,16.27c-1.89,1.86-3.77,3.71-5.64,5.57
		c-2.56-1.84-5.08-3.72-7.49-5.73c-13.11-10.7-27.74-19.41-40.44-30.62c-5.09-5.32-11.46-9.34-15.64-15.5
		c0.47,1.74,0.96,3.49,1.46,5.24c-2.02,2.48-4.12,4.89-6.29,7.23c0.2,0.86,0.4,1.73,0.62,2.59c-1.39,2.27-5.22,4.64-3.1,7.52
		c3.16,4.79,6.28,9.63,9.77,14.19c3.36,4.8,5.35,10.41,8.89,15.11c3.69,4.86,5.59,10.72,8.17,16.19c1.73-1.26,3.47-2.53,5.22-3.78
		c1.46,1.25,2.95,2.49,4.43,3.72c-0.31,1.1-0.62,2.2-0.9,3.31c1.83-1.11,3.69-2.21,5.52-3.36c-0.65-1.47-1.33-2.92-1.77-4.45
		c1.61-2.21,3.8-3.91,5.83-5.72c6.14,5.05,13.23,9,18.49,15.07c2.84,3.18,6.36,5.61,9.71,8.22c7.6,6.27,15.04,12.79,23.19,18.36
		c-1.19,1.07-2.37,2.15-3.54,3.23c3.51,5.01,6.72,10.55,11.98,13.95c3.96,2.75,8.84,4.98,10.9,9.65c-0.47,1.08-1.07,2.09-1.63,3.11
		c0.63,1.2,1.29,2.39,1.93,3.6c-2.89,1.17-6.39,5.81-9.41,2.81c-3.2-3.26-5.56-7.23-8.58-10.65c4.51,9.98,11.31,18.81,14.83,29.26
		c3.07,7.9,5.83,15.93,9.32,23.66c2.11,5.44,3.18,11.33,3.21,17.17c0.31,3.82-3.34,5.82-5.76,8.07c0.46,3.25,0.88,6.51,1.28,9.78
		c-2.4,0.96-4.8,1.94-7.18,2.94c-1.12-1.32-2.43-2.52-3.23-4.06c-0.42-2.51,0.01-5.26-1.44-7.5c-3.69-5.82-7.72-11.49-12.64-16.34
		c-0.29-2.9-0.71-5.78-1.28-8.63c1.39-0.77,2.8-1.53,4.22-2.29c-2.53-5.48-4.69-11.16-7.88-16.3c-2.32-3.76-4.79-7.43-6.95-11.29
		c-2,4.58-6.43,7.02-10.55,9.38c-4.65-3.65-7.91-9.5-14.17-10.6c-4.01-1.81-7.86,1.32-11.84,1.33c-2.45-1.19-4.09-3.45-6.02-5.27
		c-3.48-3.62-7.81-6.22-11.59-9.49c-5.72-4.75-11.28-9.93-18.19-12.9c-3.81,1.02-7.76,0.93-11.64,0.48
		c-3.17-2.79-6.5-5.42-9.46-8.43c0.16-0.76,0.33-1.51,0.52-2.26c-4.48-2.26-6.11-7.24-9.55-10.59c-0.93,0.37-1.85,0.74-2.77,1.11
		c-1.58-1.55-3.16-3.09-4.72-4.65c-0.75,1.13-1.51,2.26-2.25,3.39c-0.59,0.09-1.77,0.27-2.36,0.36c-0.49-1.58-0.98-3.16-1.46-4.74
		c-6.44-0.65-9.56-7.01-14.95-9.75c-3.82-1.31-5.22-5.54-8.39-7.74c-3.71-2.55-6.98-5.65-9.94-9.03c-1.31-0.36-2.62-0.73-3.91-1.11
		c-1.12,1.12-2.24,2.22-3.35,3.33c-1.64-1.69-3.21-3.45-4.63-5.33c-3.64-1.35-8.16-3.39-11.8-1.31c-0.21,5.48-0.4,11.09,0.79,16.48
		c-0.7,1.84-1.41,3.67-2.1,5.51c-0.7-1.54-1.38-3.07-2.04-4.61c-0.83-0.2-1.65-0.39-2.46-0.57c-1.62,2.15-3.96,3.43-6.52,4.13
		c0.2,0.88,0.4,1.76,0.61,2.65c-3.22,2.12-7.41,0.7-9.42-2.35c-2.51-6.08-4.73-12.3-5.93-18.78c-4.16-0.66-7.46-3.24-10.37-6.1
		c-0.43-2.02-0.94-4.02-1.65-5.96c-1.44,0.19-2.87,0.38-4.3,0.58c-1.05-4.32-3.98-8.24-8.21-9.84c-1.98-0.27-3.97-0.12-5.93-0.09
		c0.34-1.17,0.69-2.33,1.07-3.49c-1.43-0.94-2.86-1.89-4.27-2.84c-3.53,0.61-7.15,0.55-10.61-0.44c-0.32,0.3-0.95,0.9-1.27,1.2
		c-5.67-0.22-4.69-7.12-4.41-11.07c-1.01-0.42-2.02-0.84-3.01-1.26c-4.54-3.41-7.24-8.85-12.46-11.34c0.67-1.11,1.36-2.22,2.05-3.32
		c-3.56-4.72-6.38-10.27-11.44-13.6c-2.12-1.44-4.22-2.89-6.2-4.5c0.84-0.21,2.53-0.62,3.37-0.82c1.01-1.24,2.02-2.48,3.05-3.71
		c0.82,0.05,2.48,0.16,3.3,0.21c-0.25-0.37-0.74-1.12-0.99-1.49c-1.5-1.86-1.95-4.2-2.29-6.49c1.46-1.78,2.92-3.56,4.36-5.36
		c-5.25-1.37-8.57-6.12-13.71-7.66c-4.04-1.42-7.27-4.28-10.63-6.81c-0.21-0.73-0.41-1.45-0.6-2.18l0.96-0.88
		c0.61-0.54,1.23-1.08,1.86-1.62c0.72,0.12,2.15,0.37,2.87,0.49c0.89-1.99,1.62-4.04,2.56-6c-0.4,2.63-0.81,5.26-1.3,7.88
		c5.14-2.99,12.44-6.36,17.73-2c0.52-3.25,1.42-6.47,3.24-9.25c-0.2,3.06-0.61,6.1-0.979,9.14c1.12-2.9,2.12-5.84,3.06-8.8
		c6.18,1.13,12.55-2.01,18.54,0.53c5.16,2.01,9.45,5.66,14.33,8.23c0.88-2,1.73-4.02,2.61-6.02c2.26,0.93,4.56,1.73,6.92,2.39
		c-0.58-2.51-3-2.88-5.06-3.5c-0.29-1.02-0.57-2.04-0.85-3.06c-0.91-0.42-1.82-0.85-2.72-1.28c1.28-2.8,1.5-6.91,4.94-7.97
		c3.98-1.77,7.99-3.51,12.12-4.91c2.13-0.87,4.16,0.66,6.12,1.31c2.13-0.09,4.25-0.19,6.39-0.32c1.1-3.33,2.71-6.47,3.65-9.85
		c0.06-2.15-1.84-3.73-2.82-5.51c1.06-2.58,2.15-5.15,3.23-7.72c1.38-0.49,2.77-0.97,4.17-1.43
		C656.29,53.52,656.72,52.65,657.16,51.78z"/>
	<path fill-opacity="0" fill="#ffffff" d="M593.68,58.55c0.59,3.14-0.54,6.39-2.5,8.85C591.65,64.36,592.47,61.38,593.68,58.55z"/>
	<path fill-opacity="0" fill="#ffffff" d="M583.36,68.38c0.71-3.09,0.84-6.78,3.51-8.91C586.12,62.53,586.07,66.31,583.36,68.38z"/>
	<path fill-opacity="0" fill="#ffffff" d="M596.59,66.67c3.5-0.45,7.55-3.89,10.77-0.98c0.82,3.28-1.47,6.42-2.23,9.54
		c-1.36,0.19-2.71,0.37-4.04,0.56c-0.85,2.43-1.59,4.92-2.82,7.19c-0.56,1.94-2.74,1.44-4.21,1.3c-2.16-0.29-4.26-0.84-6.35-1.41
		c-0.79,0.3-1.56,0.6-2.33,0.91c-1.39-0.71-2.77-1.4-4.14-2.1c0-3.87,0.7-7.7,2-11.35c0.5-0.2,1.5-0.61,1.99-0.81
		C588.33,66.84,592.95,68.23,596.59,66.67z"/>
	<path fill-opacity="0" fill="#ffffff" d="M604.06,82.2c0.65-1.91,1.29-3.83,1.94-5.75c1.18,0.45,2.34,0.96,3.48,1.52c-0.09,2.51-0.92,4.91-1.4,7.36
		c1.2-2.69,2.19-5.47,3.11-8.26c3.14,0.06,6.25,0.63,9.17,1.84c-0.89,2.58-1.58,5.27-2.91,7.66c-1.48,1.4-3.68,1.66-5.5,2.43
		c-1.34-1.12-2.67-2.22-4-3.33c-1.5,0.18-2.98,0.36-4.46,0.54c-0.48,1.45-0.95,2.9-1.41,4.36c-1.6-0.38-3.18-0.79-4.76-1.17
		c0.9-2.55,1.77-5.1,2.63-7.66C601.32,81.89,602.69,82.05,604.06,82.2z"/>
	<path fill-opacity="0" fill="#ffffff" d="M835.86,194.91c1.9-1.9,3.88-3.75,5.93-5.51c2.61,3.09,5.23,6.2,7.53,9.55c-2.16,1.86-4.33,3.71-6.52,5.54
		c-1.99-2.49-4.01-4.97-6.43-7.04C836.24,196.81,835.98,195.55,835.86,194.91z"/>
	<path fill-opacity="0" fill="#ffffff" d="M164.06,201.09c0.57-0.25,1.71-0.76,2.29-1.01c1.08,3.4-0.04,7.84-4.2,8.12c0.41-1.67,0.85-3.34,1.37-4.98
		c0.31-0.06,0.93-0.2,1.24-0.26C164.59,202.49,164.23,201.56,164.06,201.09z"/>
	<path fill-opacity="0" fill="#ffffff" d="M845.21,208.3c2.14-1.89,4.2-3.94,6.74-5.3c1.53,0.74,2.73,1.97,4.04,3.06c-2.16,1.92-4.4,3.74-6.69,5.49
		C847.93,210.46,846.57,209.37,845.21,208.3z"/>
	<path fill-opacity="0" fill="#ffffff" d="M851.28,212.53c1.6-2.08,3.62-3.79,6-4.9C855.81,209.84,853.67,211.44,851.28,212.53z"/>
	<path fill-opacity="0" fill="#ffffff" d="M852.13,216.49c1.51-2.81,4.63-4.22,7.03-6.18c0.21,0.5,0.63,1.49,0.84,1.99c-1.59,2.19-3.86,3.8-6.18,5.12
		C853.39,217.19,852.55,216.72,852.13,216.49z"/>
	<path fill-opacity="0" fill="#ffffff" d="M866.12,219.24c-1.81,2.66-4.53,4.45-7.32,5.93C860.91,222.82,863.4,220.85,866.12,219.24z"/>
	<path fill-opacity="0" fill="#ffffff" d="M860.88,228.07c2.52-2.25,5.02-4.9,8.53-5.46C867.04,224.78,864.54,228.82,860.88,228.07z"/>
	<path fill-opacity="0" fill="#ffffff" d="M864.67,233.21c1.98-2.56,4.71-4.35,7.67-5.61C870.24,230.03,867.61,231.93,864.67,233.21z"/>
	<path fill-opacity="0" fill="#ffffff" d="M866.6,234.84c2.24-1.75,4.55-3.4,6.95-4.93c0.98,1.48,1.97,2.96,2.97,4.44c-2.25,1.89-4.65,3.59-7.17,5.09
		C868.42,237.9,867.51,236.37,866.6,234.84z"/>
	<path fill-opacity="0" fill="#ffffff" d="M871.73,245c1.77-2.75,4.71-4.34,7.56-5.77C877.59,242.07,874.64,243.69,871.73,245z"/>
	<path fill-opacity="0" fill="#ffffff" d="M873.94,247.56c2.28-1.54,4.5-3.22,6.97-4.46c2.24,2.7,3.73,5.91,5.42,8.96c-2.36,1.7-4.77,3.32-7.22,4.87
		C877.1,253.97,875.27,250.88,873.94,247.56z"/>
	<path fill-opacity="0" fill="#ffffff" d="M879.36,259.26c2.37-1.72,4.79-3.36,7.24-4.96c3.07,5.33,5.14,11.16,8.16,16.52
		c-2.48,1.61-5.02,3.13-7.61,4.54c-2.13-3.86-4.31-7.7-6.33-11.62C880.36,262.24,879.86,260.74,879.36,259.26z"/>
	<path fill-opacity="0" fill="#ffffff" d="M886.7,276.97c2.29-2.14,5.18-3.46,7.91-4.94c1,2.01,1.28,5.66,4.47,4.25c0.14,0.35,0.43,1.05,0.57,1.4
		c-0.54,0.78-1.03,1.6-1.46,2.45c1.25,1.27,2.78,2.23,4.14,3.41c-2.45,1.37-4.89,2.72-7.33,4.09c-1.18-0.41-2.34-0.81-3.5-1.21
		C889.91,283.26,887.94,280.28,886.7,276.97z"/>
</g>
<g target="102">
	<path fill-opacity="0" fill="#ffffff" d="M394.8,69.46c4.65-2.96,10.05-4.11,15.14-6.04c0.88,4.8,2.72,9.53,2.25,14.48
		c-1.53,1.49-3.7,1.75-5.69,2.11c-0.26-0.47-0.79-1.42-1.06-1.89c-0.1,1.41-0.21,2.82-0.31,4.23c-3.13-0.82-6.37-1.46-9.24-3.04
		c-1.31,0.08-2.62,0.15-3.93,0.22c-0.97-1.16-1.52-3.53-3.48-2.62c-0.05,0.88-0.14,2.64-0.19,3.52c-2.15-0.81-4.31-1.61-6.48-2.35
		c-0.97-3.71-1.7-7.47-2.13-11.28c2.71-0.16,5.46-0.3,8.14,0.29c1.25-0.21,2.5-0.43,3.76-0.64c0.32-0.34,0.96-1.02,1.29-1.36
		C393.46,66.51,392.99,68.89,394.8,69.46z"/>
	<path fill-opacity="0" fill="#ffffff" d="M414.11,65.16c0.66-0.09,2-0.26,2.66-0.35c1.36,4.05,1.8,8.3,2.05,12.54c-1.9,0.71-3.87,1.15-5.88,1.33
		c0.18-3.57-2.77-8.43,1.28-10.67C414.18,67.06,414.14,66.11,414.11,65.16z"/>
	<path fill-opacity="0" fill="#ffffff" d="M405.2,96.58c3.2-1.09,6.27-3.21,9.77-2.95c2.17,0.14,2.21,2.82,2.46,4.43c0.11,2.62,0.98,6.16-1.93,7.61
		c-8.5,4.34-18.85,3.11-27.18,7.96c-4.49,2.46-9.05,4.83-13.9,6.51c-0.09,0.37-0.28,1.13-0.37,1.51
		c-5.8,3.46-12.52,6.24-16.55,11.89c-2.19,2.74,0.32,5.99,0.98,8.81c1.15-0.43,2.31-0.8,3.49-1.14c1.62,1.71,2.9,3.7,4.25,5.62
		c5.98,1.7,12.57,2.25,17.5,6.44c-0.77,1.17-1.53,2.36-2.28,3.54c1.33,0.57,2.67,1.13,4.01,1.7c-1.32,2.51-2.69,4.98-3.9,7.54
		c0.84,0.04,2.53,0.14,3.37,0.19c0.24,0.77,0.48,1.54,0.73,2.32c-2.58,2.53-5.49,4.67-8.37,6.85c-3.08,2.28-6.92,3.07-10.47,4.31
		c-0.29,0.45-0.87,1.34-1.16,1.79c-2.27,1.97-4.62,3.96-7.59,4.76c-4.5,1.36-7.45,5.27-11.42,7.55c-0.59-0.75-1.16-1.5-1.74-2.25
		c-1.98,1.4-4.44,2.48-5.57,4.76c-0.9,1.71-0.79,3.7-0.92,5.57c-3.92,3.36-7.46,8.06-7.95,13.34c-0.37,0.66-0.73,1.33-1.09,2
		c0.13,0.86,0.26,1.71,0.39,2.57c-1.62,2.29-3.01,4.73-4.31,7.22c-5.26,3.84-11.56-0.44-17.28,0.22
		c-4.75,1.58-9.51,3.09-14.33,4.44c-2.74-0.82-5.59-1.2-8.45-0.94c-0.19-0.67-0.56-2.02-0.75-2.69c-3.1,0.58-6.21,1.07-9.34,1.47
		c-0.3,0.4-0.89,1.19-1.19,1.59c0.6,1.53,1.2,3.07,1.8,4.61c-1.08-0.07-2.15-0.14-3.22-0.21c-1.84,1.78-4.22,2.4-6.71,1.94
		c-3.28,0.69-6.74,1.09-9.71,2.76c-1.52,1.4-2.49,3.26-3.6,4.97c-0.66-3.08-1.81-6.03-3.52-8.67c2.35-3.53,5.13-6.82,6.66-10.84
		c-1.45-1.52-2.24-4.61-4.8-4.21c-3.92,2.71-6.42,7.42-11.47,8.36c1.08,0.57,2.14,1.16,3.2,1.77c-0.96,1.66-1.92,3.32-2.81,5.02
		c-1.29-0.15-2.59-0.3-3.87-0.45c-0.35,0.43-1.04,1.28-1.39,1.7c-1.42,0.49-2.84,0.99-4.25,1.51c-5.92,0-10.7-3.66-16.26-4.95
		c-0.95-1.08-1.88-2.16-2.8-3.25c-0.95,1.16-1.54,2.96-3.35,2.91c-3.37,0.14-5.61,2.62-8.22,4.35c-1.29-0.19-2.52-0.63-3.76-0.98
		c-0.21-2.36-0.8-4.64-1.88-6.74c-1.05,0.43-2.09,0.88-3.12,1.34c-1.36,0.29-2.54,0.95-3.57,1.86c-1.26-0.86-2.52-1.73-3.79-2.58
		c1.17,2.09,2.41,4.14,3.6,6.22c-1.45-1.45-2.87-2.93-4.29-4.41c0.09-1.71,0.17-3.43,0.25-5.14c-3.4,1.83-7.16,2.91-11.04,2.18
		c-2.08,0.47-4.15,0.93-6.21,1.41c-0.31-0.59-0.93-1.78-1.24-2.37c-0.94,0.11-1.87,0.22-2.8,0.33c-2.05,2.13-4.53,3.76-7.15,5.11
		c-4.05,0.4-8.04,1.19-11.98,2.2c-0.99-0.56-1.99-1.13-2.98-1.69c-1.76,2.56-2.85,5.49-3.39,8.55c-1.43,1.44-2.91,2.83-4.38,4.23
		c-1.16,0.22-2.31,0.42-3.45,0.71c-1.57-1.53-3.16-3.05-4.74-4.57c0.32-0.52,0.96-1.56,1.28-2.08c-0.73-1.58-1.46-3.16-2.17-4.74
		c3.27-3.36,4.6-8.08,7.98-11.33c1.56-1.43,2.12-3.51,2.85-5.42c2.18-1.06,4.39-2.05,6.61-3.02c-0.09-0.69-0.18-1.38-0.27-2.07
		c4.06-2.52,6.91-6.5,10.94-9.03c1.99-1.23,3.55-2.97,5-4.77c1.25,0.43,2.51,0.86,3.77,1.3c-1.77-2.05-3.47-4.16-5.04-6.38
		c2.99,2.11,5.73,4.54,8.7,6.66c-0.52,1.64-0.96,3.31-1.37,4.98c4.16-0.28,5.28-4.72,4.2-8.12c-0.58,0.25-1.72,0.76-2.29,1.01
		c-0.78-2.17-1.39-4.38-1.97-6.6c6.67-2.47,13.55-4.37,20.03-7.32c5-2.29,10.52-3.72,14.86-7.22c3.23-2.63,0.51-8.62,4.76-10.23
		c3.3-1.35,4.94-4.57,6.84-7.35c0.41-0.84,0.82-1.68,1.24-2.52c4.25-3.83,10.3-5.65,13.28-10.78c1.36-1.95,2.5-4.1,4.26-5.73
		c2.73-1.88,6.12-2.43,8.91-4.21c2.52-2.33,2.05-6.76,5.17-8.62c1.38-0.99,2.85-1.86,4.28-2.78c3.96-1.21,7.99-2.34,12.15-2.49
		c0.58-0.29,1.16-0.58,1.75-0.87c0.24,0.35,0.72,1.03,0.96,1.37c1.13-0.52,2.26-1.03,3.4-1.54c4.66,10.74,9.92,21.5,11.62,33.18
		c-1.04,3.06-3.2,5.95-1.89,9.35c2.46-1.63,4.75-3.49,6.88-5.52c-0.29-0.8-0.88-2.41-1.18-3.21c3.69-2.56,7.18-5.42,10.2-8.75
		c-0.3-0.94-0.92-2.84-1.23-3.78c2.76,1.31,5.73,2.23,8.33,3.85c2.59,2.29,2.91,6,3.18,9.24c3.84-0.55,7.61-1.48,11.36-2.48
		c-0.68-3.1-3.92-7.07-1.01-9.78c1.8-2.04,4.56-3.74,7.37-2.97c2.27,3.13,3.14,6.98,4.47,10.55c5.17-1.5,10.8-4.16,16.09-1.55
		c0.49,0.08,1.47,0.25,1.95,0.33c0.33,0.98,0.67,1.96,1.01,2.94c1.37,0.45,2.74,0.91,4.12,1.38c0.3-0.39,0.9-1.18,1.2-1.58
		c3.25-0.53,6.49-1.12,9.73-1.72c-0.29-1.57-0.56-3.13-0.81-4.69c2.13,2.34,3.18,5.33,3.91,8.37c1.49-0.43,2.98-0.87,4.49-1.29
		c-2.44-2.75-4.06-6.05-4.81-9.63c-5.32,0.51-11.06-0.88-15.28-4.19c-2.56-4.24-3.74-9.29-4.45-14.16
		c0.14-3.34,3.88-3.83,6.35-4.68c2.08-0.46,2.94-2.6,4.02-4.18c2.81-1.57,5.76-2.88,8.79-3.96c0.32-0.92,0.64-1.84,0.97-2.75
		c5.11-1.91,10.56-4.22,13.54-9.09c0.68,0.07,1.37,0.14,2.06,0.21c5.6-1.97,10.76-5.43,16.8-5.94
		C396.23,97.26,400.93,98.41,405.2,96.58z M241.2,155.51c-1.12,4.43-0.59,9.53-3.71,13.23c1.58,2.65,3.13,5.32,4.62,8.03
		c1.63-0.42,3.25-0.88,4.89-1.28c0.97-2.93,2.03-5.89,4.13-8.23C247.36,163.74,243.53,160.21,241.2,155.51z M289,164.41
		c2.31-0.22,5.59,0.59,6.25-2.46C293.05,162.45,290.97,163.33,289,164.41z M272.34,165.95 M228.91,175.62
		c0.64,1.42,0.36,4.68,2.79,4.05C232.48,177.45,230.7,176.32,228.91,175.62z"/>
	<path fill-opacity="0" fill="#ffffff" d="M87.53,228.13c0.82,0.27,1.63,0.55,2.45,0.82c1.07-0.53,2.15-1.06,3.23-1.58c2.22,1.81,4.42,3.67,6.53,5.62
		c0.16,2.08,0.59,4.14,1.49,6.05c-0.21,0.55-0.63,1.66-0.84,2.21c-1.79,1.32-3.46,2.8-5.01,4.39c-4.74-4.1-10.63-7.43-12.88-13.64
		C84.21,230.76,85.89,229.47,87.53,228.13z"/>
</g>
<g target="107">
	<path fill-opacity="0" fill="#ffffff" d="M470.4,68.43c1.22-0.83,2.44-1.67,3.67-2.52c2.07,0.86,4.16,1.68,6.26,2.47c0.62,4.39,5.3,2.77,8.23,4.06
		c1.79,1.64,3.1,3.72,4.69,5.56c-0.32,3.23-0.7,6.45-1,9.68c-3.22-0.93-6.56-1.35-9.9-1.51c-0.12,1.87-0.22,3.74-0.34,5.62
		c-0.74-0.84-1.47-1.68-2.21-2.49c-0.01,2.36,0,4.74-0.23,7.1c-0.45-2.63-0.4-5.3-0.4-7.95c0.75-0.22,2.24-0.65,2.99-0.87
		c-1.63-1.24-3.01-3.48-5.3-3.38c-0.14,0.73-0.41,2.19-0.54,2.91c-1.13-2.41-3.76-2.53-6.02-2.81
		C468.53,79.15,469.08,73.62,470.4,68.43z"/>
	<path fill-opacity="0" fill="#ffffff" d="M464.47,67.33c0.75-0.1,2.25-0.31,3-0.41c-0.05,3.01-0.17,6.03-0.35,9.04c-0.72,0.01-2.17,0.01-2.89,0.01
		C464.3,73.09,464.38,70.21,464.47,67.33z"/>
	<path fill-opacity="0" fill="#ffffff" d="M443.32,69.57c0.61-0.03,1.81-0.07,2.42-0.1c0.07,2.95,0.09,5.89,0.11,8.84c-0.57-0.02-1.71-0.07-2.27-0.09
		C443.04,75.37,443.25,72.45,443.32,69.57z"/>
	<g>
		<path fill-opacity="0" fill="#ffffff" d="M495.17,74.34c4.24,0.37,8.25,1.97,12.2,3.46c-0.3,2.66-0.62,5.31-0.98,7.96c1.1-1.03,2.2-2.05,3.32-3.07
			c0.2-1.4,0.41-2.8,0.63-4.19c1.48,0.36,2.97,0.72,4.47,1.08c-0.23,1.29-0.46,2.59-0.68,3.88c0.65,0.19,1.97,0.56,2.62,0.75
			c0.21,0.77,0.63,2.3,0.84,3.06c0.53-1.25,1.04-2.51,1.58-3.77c0.34,0.65,1.02,1.96,1.36,2.62c0.58,0.05,1.74,0.15,2.32,0.2
			c0.04,0.89,0.1,2.65,0.13,3.54c0.46-0.64,1.37-1.9,1.83-2.53c4.51-1.43,9.47-2.63,14.07-0.8c3.65,1.56,7.36,3.54,9.8,6.77
			c1.33,6.58-2.67,12.64-3.21,19.08c3.45-3.94,3.23-9.54,4.93-14.27c1.7,0.1,3.42,0.15,5.11,0.43c0.62,1.68,0.24,3.47-0.25,5.12
			l-0.96,0.88c0.19,0.73,0.39,1.45,0.6,2.18c3.36,2.53,6.59,5.39,10.63,6.81c5.14,1.54,8.46,6.29,13.71,7.66
			c-1.44,1.8-2.9,3.58-4.36,5.36c0.34,2.29,0.79,4.63,2.29,6.49c0.25,0.37,0.74,1.12,0.99,1.49c-0.82-0.05-2.48-0.16-3.3-0.21
			c-1.03,1.23-2.04,2.47-3.05,3.71c-0.84,0.2-2.53,0.61-3.37,0.82c1.98,1.61,4.08,3.06,6.2,4.5c5.06,3.33,7.88,8.88,11.44,13.6
			c-0.69,1.1-1.38,2.21-2.05,3.32c5.22,2.49,7.92,7.93,12.46,11.34c0.99,0.42,2,0.84,3.01,1.26c-0.28,3.95-1.26,10.85,4.41,11.07
			c0.32-0.3,0.95-0.9,1.27-1.2c3.46,0.99,7.08,1.05,10.61,0.44c1.41,0.95,2.84,1.9,4.27,2.84c-0.38,1.16-0.73,2.32-1.07,3.49
			c1.96-0.03,3.95-0.18,5.93,0.09c4.23,1.6,7.16,5.52,8.21,9.84c1.43-0.2,2.86-0.39,4.3-0.58c0.71,1.94,1.22,3.94,1.65,5.96
			c2.91,2.86,6.21,5.44,10.37,6.1c1.2,6.48,3.42,12.7,5.93,18.78c2.01,3.05,6.2,4.47,9.42,2.35c-0.21-0.89-0.41-1.77-0.61-2.65
			c2.56-0.7,4.9-1.98,6.52-4.13c0.81,0.18,1.63,0.37,2.46,0.57c0.66,1.54,1.34,3.07,2.04,4.61c0.69-1.84,1.4-3.67,2.1-5.51
			c-1.19-5.39-1-11-0.79-16.48c3.64-2.08,8.16-0.04,11.8,1.31c1.42,1.88,2.99,3.64,4.63,5.33c1.11-1.11,2.23-2.21,3.35-3.33
			c1.29,0.38,2.6,0.75,3.91,1.11c2.96,3.38,6.23,6.48,9.94,9.03c3.17,2.2,4.57,6.43,8.39,7.74c5.39,2.74,8.51,9.1,14.95,9.75
			c0.479,1.58,0.97,3.16,1.46,4.74c0.59-0.09,1.77-0.27,2.36-0.36c0.74-1.13,1.5-2.26,2.25-3.39c1.56,1.56,3.14,3.1,4.72,4.65
			c0.92-0.37,1.84-0.74,2.77-1.11c3.44,3.35,5.07,8.33,9.55,10.59c-0.19,0.75-0.36,1.5-0.52,2.26c2.96,3.01,6.29,5.64,9.46,8.43
			c-1.28,1.9-2.52,3.81-3.79,5.7c0.33,2.61,0.65,5.24,0.98,7.86c3.94-1.72,6.75,1.93,8.5,4.96c0.83,3.35,0.66,6.93,2.07,10.16
			c2.05,4.86,2.54,10.56,6.48,14.44c1.96,1.68-0.35,3.69-1.22,5.26c-0.3,2.36-0.56,4.72-0.83,7.08c-2.05,1.32-4.09,2.65-6.1,4.02
			c-3.32,0.14-6.66,0.07-9.88-0.77c-1.92,1.06-3.74,2.33-5.82,3.04c-1.82-0.34-3.51-1.11-5.23-1.73c-0.87,3.26-0.6,6.76-1.56,9.95
			c-2.68,2.84-6.33,4.7-8.59,7.96c-1.68,2.5-3.97,4.56-6.76,5.72c-5.09,2.62-11.11,1.5-16.27,3.89c-3.21-1.03-6.3-2.6-8.07-5.6
			c-2.66,0.31-5.49,0.86-7.89-0.68c-2.96-1.81-6.42-0.44-9.59-0.29c-5.91,0.17-8.18,7.48-13.97,8.23c-4.06,0-8.37-0.37-11.97-2.4
			c-2.86-2.66-4.08-6.56-6.57-9.52c-6.15-0.23-12.24-1.63-18.4-1.24c-2.27-0.54-4.56-1.3-6.91-1.09c-2.18,0.56-1.52,3.04-1.66,4.7
			c-0.28,0.39-0.85,1.17-1.13,1.56c0.25,1.74,0.5,3.48,0.75,5.23c1.7,2.32,3.59,4.57,6.29,5.79c0.23,2.47,1.15,5.31-0.38,7.54
			c-2.24,3.21-5.3,5.72-8.14,8.38c-1.25-0.57-2.49-1.14-3.72-1.72c-3.6,0.42-7.28,0.42-10.74,1.6c-3.14,1.19-6.51,0.57-9.76,0.57
			c-2.02-1.85-3.6-4.09-4.91-6.47c-3.53,0.48-7.04,1.04-10.54,1.66c-0.34-0.65-1.03-1.96-1.38-2.62c-0.5,0.4-1.52,1.19-2.03,1.58
			c-0.74-0.2-1.46-0.4-2.18-0.6c-1.62,0.79-3.26,1.57-4.88,2.35c-1.59,1.63-3.36,3.05-5.32,4.2c-2.23,2.84-4.89,5.28-7.78,7.43
			c-2.77,4.61-7.1,9.34-12.88,9.39c-2.42,3.33-5.8,5.64-9.65,7.01c-1.41-0.96-2.84-1.89-4.27-2.8c-1.42-1.36-2.85-2.71-4.29-4.03
			c0.3-1.16,0.6-2.32,0.91-3.46c-1.64,1.83-3.22,3.72-4.78,5.63c-2.99-0.41-6-0.64-9.01-0.71c-1.38-2.08-2.76-4.16-4-6.33
			c-2.16-0.84-4.33-1.65-6.51-2.42c-1.82-4.02-4.47-8.59-9.29-9.23c-3.23-0.93-5.69,1.77-7.99,3.54c-3.28,0.23-6.57,0.4-9.83,0.85
			c-0.38-1.07-0.75-2.14-1.12-3.2c-0.77,0.15-2.32,0.47-3.09,0.63c0.03-0.77,0.1-2.3,0.13-3.07c-1.2-0.67-2.4-1.34-3.59-2
			c-0.82,1.64-1.63,3.3-2.4,4.97c-1.22,0.96-2.43,1.92-3.62,2.91c-4.23-7.23-8.11-14.66-12.74-21.63
			c-3.65-5.54-6.64-11.85-12.24-15.74c-3.93-2.9-9.05-5.37-9.64-10.84c-2.33,1.22-4.67,2.41-6.98,3.67
			c-2.95,3.24-7.94,3.54-10.36,7.39c-1.45-0.52-2.86-1.14-4.36-1.45c-1.59,0.53-3.03,1.39-4.53,2.12c-1.13-3.35-1.36-7.31-4.41-9.58
			c-1.08,1.2-2.18,2.38-3.29,3.54c-0.49-2.01-0.38-4.2-1.27-6.07c-1.05-0.64-1.87,0.78-2.69,1.16c-0.92,0.46-1.84,0.92-2.75,1.38
			c-1.4-0.1-2.8-0.19-4.2-0.28c-0.59-1.91-1.17-3.82-1.72-5.73c3.27-2.24,1.03-6.5,0.23-9.45c-0.47,0.08-1.42,0.24-1.89,0.32
			c-0.38-2-0.76-3.99-1.13-5.98c0.67-0.7,1.34-1.39,2.02-2.08c-0.04-1.42-0.07-2.84-0.09-4.25c0.55-0.26,1.65-0.77,2.2-1.03
			c0.37-2.07,0.72-4.15,1.07-6.22c0.79-0.82,1.59-1.64,2.39-2.45c1.23-0.6,2.48-1.17,3.62-1.95c-0.55-2.93-2.72-5.14-4.26-7.58
			c-1.58,0.19-3.15,0.39-4.71,0.59c0.91-1.05,1.85-2.09,2.79-3.11c-2.47-4.32,0.44-8.65,2.57-12.38c0.95,0.57,1.9,1.14,2.86,1.71
			c-0.14,1.43-0.25,2.85-0.35,4.29c1.73-0.18,3.46-0.36,5.2-0.52c2.25,0.92,4.63,2.03,7.04,0.91c4.48-1.93,9.97,0.17,13.88-3.28
			c3.7-3.05,7.24-6.68,8.83-11.31c0.88-3,4.26-3.73,6.77-4.82c0.46-3.07,0.92-6.13,1.35-9.2c0.64-1.81,1.25-3.64,1.85-5.46
			c4.69,0.61,9.45,0.75,14.11-0.12c0.75,0.68,1.5,1.36,2.25,2.05c4.2-0.23,8.97-3.86,12.65-0.38c1.54-0.07,3.08-0.16,4.63-0.25
			c0.5,0.33,1.48,0.98,1.98,1.31c1.79-2.68,3.93-5.36,7.05-6.54c2.15,0.15,4.1,1.19,6.12,1.87c2.94-1.85,5.89-3.68,8.87-5.45
			c0.52-1.22,1.05-2.43,1.59-3.64c-3.15-0.99-6.32-1.9-9.5-2.75c-0.48-1.23-0.94-2.46-1.39-3.68c2.06-4.31,5.85-8.65,4.21-13.74
			c-0.99-0.53-1.97-1.07-2.95-1.6c0.23-1.26,0.47-2.52,0.72-3.78c0.95-0.7,1.92-1.4,2.89-2.1c-0.93-2.66-1.81-5.34-2.68-8.02
			c-0.66,0.08-1.98,0.25-2.64,0.34c-1.99-0.46-4-0.83-6-1.21c0.21-1.63,0.43-3.26,0.67-4.89c-2.13-1.56-4.42-2.87-6.89-3.77
			c-0.95-2.28-1.95-4.53-3.25-6.63c0.01-0.67,0.02-2.03,0.03-2.71c-2.79-1.63-6.34-3.02-6.41-6.8c-1-1.31-2.02-2.6-3.03-3.89
			c0.77-0.16,2.31-0.46,3.09-0.62c0.43-2.21,0.97-4.4,1.37-6.62c-2.01-2.18-3.94-4.45-6.16-6.39c-4.52,3.37-10.13,0.35-13.78-2.82
			c1.2-3.66,4.62-5.75,8.1-6.88c-0.41-1.46-0.81-2.91-1.23-4.36c-2.53-0.98-5.37-1.87-6.85-4.34c1.8-0.97,4.09-1.51,4.93-3.63
			c-1.89-0.48-3.81-0.8-5.72-1.12c-0.89-0.71-1.78-1.41-2.67-2.1c0.21-2.73,0.53-5.45,1.01-8.14c2.26,2.22,2.81,5.34,3.09,8.37
			c0.83,0.44,1.67,0.89,2.52,1.33c-1.08-3.53-1.38-7.23-1.18-10.9c2.4-0.4,4.81-0.79,7.22-1.19c0.08-1.2,0.17-2.4,0.27-3.6
			c1.39-0.12,2.79-0.24,4.19-0.36c0.14,1.44,0.31,2.87,0.48,4.31c0.49-2.11,1-4.21,1.49-6.32c0.76-1.07,1.53-2.15,2.3-3.22
			c0.58-0.16,1.74-0.49,2.32-0.65c0.04-0.92,0.11-2.75,0.14-3.67c0.24,0.78,0.73,2.35,0.97,3.13c0.46-0.31,1.38-0.94,1.84-1.25
			c2.74-1.31,5.36-2.84,8.02-4.31c2.33-0.79,4.62-1.66,6.89-2.62c0.51-3.98,2.22-7.62,5.01-10.5c0.82,1.31,1.65,2.62,2.49,3.94
			c0.24,0.68,0.74,2.06,0.99,2.75c0.31-2.99-0.68-5.84-1.64-8.61C493.48,82.89,493.75,78.35,495.17,74.34z M503.79,88.23
			c-0.19,1.48-0.37,2.95-0.55,4.43c0.62,0.04,1.85,0.13,2.47,0.18c0.14-1.89,0.3-3.78,0.46-5.67
			C505.57,87.44,504.38,87.97,503.79,88.23z M498.37,89.92c0.81,2.11,1.11,4.34,1.02,6.59c0.89-0.03,1.77-0.06,2.67-0.07
			c0.22-2.56,0.33-5.13,0.39-7.69C501.07,89.13,499.73,89.52,498.37,89.92z M688.04,289.66c0.15,1.4,0.32,2.8,0.49,4.21
			c-1.08,2.21-1.37,4.65-0.86,7.05c-0.48,0.8-0.95,1.61-1.4,2.42c1.98-1.12,2.79-3.12,2.66-5.34c0.73-1.02,1.48-2.02,2.14-3.09
			C690.99,292.74,689.24,291.27,688.04,289.66z M690.64,300.47c-0.52,2.85-1.82,5.45-3.76,7.61c-0.68,2.86-1.63,5.67-3.35,8.09
			c0.06,0.93,0.18,2.78,0.24,3.71c2.48-2.87,4.75-5.93,6.83-9.1c0.03-2.8-0.33-5.81,1.78-8.03
			C691.79,301.99,691.21,301.23,690.64,300.47z M674.8,331.8c2.61-0.1,5.94,1.33,7.89-1.07c2.6-1.92,0.78-5.35,0.87-8
			C681.35,326.39,677.94,329,674.8,331.8z"/>
	</g>
	<path fill-opacity="0" fill="#ffffff" d="M438.18,76.99c1.13,0.37,2.27,0.74,3.41,1.12c0,2.77-0.01,5.54-0.09,8.3c-0.79-0.18-2.38-0.55-3.18-0.74
		C438.25,82.77,438.2,79.88,438.18,76.99z"/>
	<path fill-opacity="0" fill="#ffffff" d="M454.41,90.17c0.32,0,0.95,0.01,1.27,0.01c-0.02,2.59-0.05,5.17-0.07,7.76c-0.33-0.01-0.99-0.02-1.32-0.02
		C454.33,95.33,454.37,92.75,454.41,90.17z"/>
	<path fill-opacity="0" fill="#ffffff" d="M477.31,89.76c0.21,3.27,0.68,6.73-0.79,9.79C476.16,96.28,475.84,92.83,477.31,89.76z"/>
	<path fill-opacity="0" fill="#ffffff" d="M473.12,101.07c-0.69-3.75-1.28-8.43,1.96-11.21c0.13,2.75,0.16,5.51,0.19,8.26
		C474.54,99.1,473.83,100.08,473.12,101.07z"/>
	<path fill-opacity="0" fill="#ffffff" d="M454.7,100.96c1.64-0.17,3.28-0.34,4.93-0.5c-0.03,2.62-0.07,5.24-0.12,7.87c-0.5,0.2-1.51,0.61-2.01,0.82
		c-0.14,1.96-0.3,3.92-0.5,5.88C453.22,111.57,455.14,105.54,454.7,100.96z"/>
	<path fill-opacity="0" fill="#ffffff" d="M448.2,119.85c-0.33-2.9-0.68-5.89-0.1-8.77l0.86-0.59C449.22,113.57,449.95,117.05,448.2,119.85z"/>
</g>
<g target="106">
	<path fill-opacity="0" fill="#ffffff" d="M474.68,102.04c2.17-0.12,4.35-0.09,6.53-0.06c-2.66,1.47-5.28,3-8.02,4.31
		C473.72,104.88,474.19,103.46,474.68,102.04z"/>
<path fill-opacity="0" fill="#ffffff" d="M412.92,122.77c1.37-1.48,2.88-4.6,5.33-3.1c1.94,2.53,3.69,5.24,6.27,7.2c0.08,2.73,0.1,5.47,0.07,8.21
	c1.59-1.19,3.19-2.38,4.79-3.57c-0.05-3.21,0.05-6.42,0.32-9.62c1.45,1.01,2.9,2.04,4.35,3.07c0.18-1.95,0.36-3.89,0.55-5.83
	c1.31,0.15,2.62,0.28,3.92,0.55c1.62,3.1,1.12,6.76,0.21,9.98c-1.14-0.73-2.12-1.66-3.16-2.5c-0.35,3.82-0.38,7.67,0.11,11.48
	c0.43-1.85,0.81-3.71,1.23-5.57c2.28-1.92,3.82-4.54,6.1-6.47c1.35,0.18,2.41,1.13,3.52,1.85c0.89,0.69,1.78,1.39,2.67,2.1
	c1.91,0.32,3.83,0.64,5.72,1.12c-0.84,2.12-3.13,2.66-4.93,3.63c1.48,2.47,4.32,3.36,6.85,4.34c0.42,1.45,0.82,2.9,1.23,4.36
	c-3.48,1.13-6.9,3.22-8.1,6.88c3.65,3.17,9.26,6.19,13.78,2.82c2.22,1.94,4.15,4.21,6.16,6.39c-0.4,2.22-0.94,4.41-1.37,6.62
	c-0.78,0.16-2.32,0.46-3.09,0.62c1.01,1.29,2.03,2.58,3.03,3.89c0.07,3.78,3.62,5.17,6.41,6.8c-0.01,0.68-0.02,2.04-0.03,2.71
	c1.3,2.1,2.3,4.35,3.25,6.63c2.47,0.9,4.76,2.21,6.89,3.77c-0.24,1.63-0.46,3.26-0.67,4.89c2,0.38,4.01,0.75,6,1.21
	c0.66-0.09,1.98-0.26,2.64-0.34c0.87,2.68,1.75,5.36,2.68,8.02c-0.97,0.7-1.94,1.4-2.89,2.1c-0.25,1.26-0.49,2.52-0.72,3.78
	c0.98,0.53,1.96,1.07,2.95,1.6c1.64,5.09-2.15,9.43-4.21,13.74c0.45,1.22,0.91,2.45,1.39,3.68c3.18,0.85,6.35,1.76,9.5,2.75
	c-0.54,1.21-1.07,2.42-1.59,3.64c-2.98,1.77-5.93,3.6-8.87,5.45c-2.02-0.68-3.97-1.72-6.12-1.87c-3.12,1.18-5.26,3.86-7.05,6.54
	c-0.5-0.33-1.48-0.98-1.98-1.31c-1.55,0.09-3.09,0.18-4.63,0.25c-3.68-3.48-8.45,0.15-12.65,0.38c-0.75-0.69-1.5-1.37-2.25-2.05
	c-4.66,0.87-9.42,0.73-14.11,0.12c-0.6,1.82-1.21,3.65-1.85,5.46c-0.43,3.07-0.89,6.13-1.35,9.2c-2.51,1.09-5.89,1.82-6.77,4.82
	c-1.59,4.63-5.13,8.26-8.83,11.31c-3.91,3.45-9.4,1.35-13.88,3.28c-2.41,1.12-4.79,0.01-7.04-0.91c-1.74,0.16-3.47,0.34-5.2,0.52
	c0.1-1.44,0.21-2.86,0.35-4.29c-0.96-0.57-1.91-1.14-2.86-1.71c-2.13,3.73-5.04,8.06-2.57,12.38c-0.94,1.02-1.88,2.06-2.79,3.11
	c1.56-0.2,3.13-0.4,4.71-0.59c1.54,2.44,3.71,4.65,4.26,7.58c-1.14,0.78-2.39,1.35-3.62,1.95c-0.8,0.81-1.6,1.63-2.39,2.45
	c-0.35,2.07-0.7,4.15-1.07,6.22c-0.55,0.26-1.65,0.77-2.2,1.03c0.02,1.41,0.05,2.83,0.09,4.25c-0.68,0.69-1.35,1.38-2.02,2.08
	c0.37,1.99,0.75,3.98,1.13,5.98c-4.37,2.04-7.89-2.63-12.19-2.2c-4.13,0.86-6.94,4.55-11.02,5.54c-6,1.43-12.16,1.91-18.27,2.55
	c-1.91-0.02-3.3,1.35-4.7,2.43c-6.75,0-13.5,0.61-20.01,2.47c-4.13,1.25-8.36-0.09-12.37-1.12c-0.65,0.56-1.3,1.13-1.94,1.7
	c0.72,1.6,1.44,3.21,2.16,4.82c-0.42,0.32-1.27,0.96-1.69,1.28c2.39,1.71,4.28,4,5.21,6.83c-3.08-0.2-6.2-1.07-9.27-0.53
	c-1.44,0.8-2.65,1.92-3.93,2.94c0.44,1.75,0.89,3.51,1.33,5.27c-3.06,1.29-6.15,2.51-9.26,3.7c-1.3-1.73-2.55-3.49-3.79-5.25
	c1.16-1.23,2.32-2.47,3.49-3.69c-2.36-1.06-4.75-2.06-7.16-3c-0.78,0.79-1.55,1.6-2.33,2.4c-0.57-2.05-2.31-4.24-1.13-6.36
	c2.05-4.2,3.19-8.74,4.96-13.03c0.96-2.6,3.49-3.95,5.56-5.54c0.71,0.08,2.12,0.24,2.83,0.32c1.39-3.18,3.09-6.2,4.76-9.24
	c-2.74,0.55-5.2,1.89-7.82,2.76c-3.17,0.69-6.44,0.51-9.65,0.78c-1.11-2.04-2.26-4.06-3.45-6.05c0.38-2.55,1.6-4.77,3.74-6.25
	c1.39,0.61,2.8,1.23,4.21,1.84c-0.48,1.41-0.96,2.81-1.43,4.22c0.88-1.04,1.75-2.1,2.64-3.14c0.97,1.29,1.95,2.59,2.95,3.87
	c0.54-1.54,1.08-3.06,1.64-4.59c0.73,0.02,1.46,0.05,2.2,0.08c1.65-0.74,3.31-1.46,4.98-2.16c-0.47-1.5-0.98-3-1.26-4.54
	c0.58-1.46,1.42-2.78,2.2-4.13c-1.17,0.22-2.34,0.45-3.5,0.69c-3.32-0.9-6.7-1.54-10.08-2.16c0.67-3.38,1.45-6.72,2.25-10.07
	c0.85,0.16,1.7,0.32,2.56,0.49c1.13-0.53,2.27-1.05,3.4-1.56c0.48-3.05,1.69-5.9,3.45-8.42c0.95,0.83,1.9,1.67,2.86,2.51
	c1.13-0.72,2.26-1.45,3.4-2.16c-0.58-1.14-1.16-2.28-1.74-3.41c2.89-1.7,5.99-3.04,8.78-4.91c-0.12-1.28-0.35-2.54-0.58-3.79
	c0.26-0.87,0.5-1.74,0.73-2.62c0.92-2.47-2.94-4.3-1.68-6.74c1.68-2.63,4.87-3.8,6.72-6.31c2.15-2.86,4.56-5.75,5.28-9.35
	c0.61-2.77,1.56-5.46,2.89-7.97c1.3-2.49,2.69-4.93,4.31-7.22c-0.13-0.86-0.26-1.71-0.39-2.57c0.36-0.67,0.72-1.34,1.09-2
	c0.49-5.28,4.03-9.98,7.95-13.34c0.13-1.87,0.02-3.86,0.92-5.57c1.13-2.28,3.59-3.36,5.57-4.76c0.58,0.75,1.15,1.5,1.74,2.25
	c3.97-2.28,6.92-6.19,11.42-7.55c2.97-0.8,5.32-2.79,7.59-4.76c0.29-0.45,0.87-1.34,1.16-1.79c3.55-1.24,7.39-2.03,10.47-4.31
	c2.88-2.18,5.79-4.32,8.37-6.85c-0.25-0.78-0.49-1.55-0.73-2.32c-0.84-0.05-2.53-0.15-3.37-0.19c1.21-2.56,2.58-5.03,3.9-7.54
	c-1.34-0.57-2.68-1.13-4.01-1.7c0.75-1.18,1.51-2.37,2.28-3.54c3.25,2.19,6.79,3.89,10.25,5.73c-0.22-2.05-0.53-4.1-0.52-6.16
	c0.02-2.71,1.78-5.07,1.69-7.79c0.12-1.88-0.13-3.8,0.34-5.63c2.75-3.71,8.55-3.84,10.68-8.17
	C407.82,127.99,409.53,124.55,412.92,122.77z M422.05,150.88c-0.76,3.19-2.41,7.09,0.12,9.91c2.04,2.22,1.85,5.33,1.96,8.14
	c-1.56,2.16-2.15,4.76-3.06,7.22c-1.19,1.49-2.76,2.62-4.14,3.92c5.87,0.25,7.64-5.81,10.76-9.49c-0.01-5.04-2.89-9.52-2.96-14.57
	c-0.43-3.35,0.53-6.62,1.4-9.81c-2.14-2.29-2.47-5.39-2.84-8.35C421.24,141.96,423.56,146.64,422.05,150.88z M394.88,161.34
	c1.19,0.98,2.15,2.58,3.87,2.58c0.81-2.06,0.04-3.96-1.56-5.33C396.41,159.5,395.64,160.41,394.88,161.34z"/>

</g>
<g target="105">
	<path fill-opacity="0" fill="#ffffff" d="M239.54,229.83c5.05-0.94,7.55-5.65,11.47-8.36c2.56-0.4,3.35,2.69,4.8,4.21
		c-1.53,4.02-4.31,7.31-6.66,10.84c1.71,2.64,2.86,5.59,3.52,8.67c1.11-1.71,2.08-3.57,3.6-4.97c2.97-1.67,6.43-2.07,9.71-2.76
		c2.49,0.46,4.87-0.16,6.71-1.94c1.07,0.07,2.14,0.14,3.22,0.21c-0.6-1.54-1.2-3.08-1.8-4.61c0.3-0.4,0.89-1.19,1.19-1.59
		c3.13-0.4,6.24-0.89,9.34-1.47c0.19,0.67,0.56,2.02,0.75,2.69c2.86-0.26,5.71,0.12,8.45,0.94c4.82-1.35,9.58-2.86,14.33-4.44
		c5.72-0.66,12.02,3.62,17.28-0.22c-1.33,2.51-2.28,5.2-2.89,7.97c-0.72,3.6-3.13,6.49-5.28,9.35c-1.85,2.51-5.04,3.68-6.72,6.31
		c-1.26,2.44,2.6,4.27,1.68,6.74c-0.23,0.88-0.47,1.75-0.73,2.62c0.23,1.25,0.46,2.51,0.58,3.79c-2.79,1.87-5.89,3.21-8.78,4.91
		c0.58,1.13,1.16,2.27,1.74,3.41c-1.14,0.71-2.27,1.44-3.4,2.16c-0.96-0.84-1.91-1.68-2.86-2.51c-1.76,2.52-2.97,5.37-3.45,8.42
		c-1.13,0.51-2.27,1.03-3.4,1.56c-0.86-0.17-1.71-0.33-2.56-0.49c-0.8,3.35-1.58,6.69-2.25,10.07c3.38,0.62,6.76,1.26,10.08,2.16
		c1.16-0.24,2.33-0.47,3.5-0.69c-0.78,1.35-1.62,2.67-2.2,4.13c0.28,1.54,0.79,3.04,1.26,4.54c-1.67,0.7-3.33,1.42-4.98,2.16
		c-0.74-0.03-1.47-0.06-2.2-0.08c-0.56,1.53-1.1,3.05-1.64,4.59c-1-1.28-1.98-2.58-2.95-3.87c-0.89,1.04-1.76,2.1-2.64,3.14
		c0.47-1.41,0.95-2.81,1.43-4.22c-1.41-0.61-2.82-1.23-4.21-1.84c-2.14,1.48-3.36,3.7-3.74,6.25c1.19,1.99,2.34,4.01,3.45,6.05
		c3.21-0.27,6.48-0.09,9.65-0.78c2.62-0.87,5.08-2.21,7.82-2.76c-1.67,3.04-3.37,6.06-4.76,9.24c-0.71-0.08-2.12-0.24-2.83-0.32
		c-2.07,1.59-4.6,2.94-5.56,5.54c-1.77,4.29-2.91,8.83-4.96,13.03c-1.18,2.12,0.56,4.31,1.13,6.36c0.78-0.8,1.55-1.61,2.33-2.4
		c2.41,0.94,4.8,1.94,7.16,3c-1.17,1.22-2.33,2.46-3.49,3.69c1.24,1.76,2.49,3.52,3.79,5.25c2.96,3.97,7.47,6.42,10.28,10.53
		c-1.22,2.4-2.2,4.97-3.87,7.12c-3.89,1.98-8.71,1.53-12.04-1.34c-1.52,0.99-2.82,2.82-4.73,2.93c-4.84-2.48-8.54-6.62-12.16-10.57
		c-1.27,0.82-2.33,2.3-3.89,2.47c-1.68-0.81-3.03-2.13-4.45-3.28c-4.44-0.02-7.82,2.87-11.62,4.64c-2.82-1.06-4.93-3.34-7.24-5.18
		c-0.64,1.31-1.32,2.6-2.04,3.88c-1.96-0.8-3.61-2.15-5.23-3.45c0.32-2.12,1.06-4.36,0.18-6.45c-1.4-4.8-6.58-6.45-10.4-8.86
		c-3.42,1.86-6.32-0.88-9.35-2.12c-3.77,1.86-7.53,3.87-11.79,4.33c-2.46,2.65-5.9,3.88-9.37,4.59c-0.71,2.69-1.25,5.44-2.25,8.04
		c-3.68,2.86-8.9-0.75-9.92-4.66c-0.02-1.83-0.01-3.65-0.02-5.47c-3.15-1.61-4.85-4.66-5.93-7.88c-0.41,0.4-1.21,1.2-1.62,1.6
		c-0.62-0.08-1.87-0.25-2.5-0.34c-0.22-1.21-0.45-2.41-0.69-3.6c-2.05,0.55-4.07,1.23-6.19,1.49c1.75-2.41,3.21-5.02,3.83-7.96
		c-3.73-2.49-8.17-3.07-12.54-2.63c-0.31-1.28-0.62-2.55-0.88-3.84c-0.2-1.89-0.33-3.79-0.46-5.69c3.95-3.83,7.91-7.65,12.17-11.13
		c-0.41-4.43-1.16-8.93-0.45-13.36c1.12-2.17,3.58-3.24,5.35-4.83c0.32-0.26,0.97-0.78,1.29-1.05c1.93-2.44,3.92-4.96,4.47-8.11
		c0.5-0.71,1-1.41,1.51-2.1c-0.65-0.16-1.96-0.47-2.61-0.62c-0.03-0.52-0.07-1.58-0.1-2.1c4-3.99,8.39-7.61,13.61-9.87
		c0.23-1.07,0.47-2.14,0.71-3.2c0.89-0.39,1.78-0.77,2.68-1.15c0.3-0.97,0.59-1.94,0.9-2.9c1.79-0.18,3.64-0.14,5.39-0.65
		c1.67-1.74,2.99-4.15,5.65-4.44c4.22-0.71,8.18-2.57,10.88-5.98c1.07,0.84,2.14,1.7,3.2,2.58c2.29-0.26,4.84-0.21,6.47-2.12
		c3.21-3.27,7.68-4.51,11.8-6.2c-0.15-2.71-0.13-5.55,1.33-7.96c0.89-1.7,1.85-3.36,2.81-5.02
		C241.68,230.99,240.62,230.4,239.54,229.83z"/>
</g>
<g target="101">
	<path fill-opacity="0" fill="#ffffff" d="M172.19,230.19c3.88,0.73,7.64-0.35,11.04-2.18c-0.08,1.71-0.16,3.43-0.25,5.14
		c1.42,1.48,2.84,2.96,4.29,4.41c-1.19-2.08-2.43-4.13-3.6-6.22c1.27,0.85,2.53,1.72,3.79,2.58c1.03-0.91,2.21-1.57,3.57-1.86
		c1.03-0.46,2.07-0.91,3.12-1.34c1.08,2.1,1.67,4.38,1.88,6.74c1.24,0.35,2.47,0.79,3.76,0.98c2.61-1.73,4.85-4.21,8.22-4.35
		c1.81,0.05,2.4-1.75,3.35-2.91c0.92,1.09,1.85,2.17,2.8,3.25c5.56,1.29,10.34,4.95,16.26,4.95c1.41-0.52,2.83-1.02,4.25-1.51
		c0.35-0.42,1.04-1.27,1.39-1.7c1.28,0.15,2.58,0.3,3.87,0.45c-1.46,2.41-1.48,5.25-1.33,7.96c-4.12,1.69-8.59,2.93-11.8,6.2
		c-1.63,1.91-4.18,1.86-6.47,2.12c-1.06-0.88-2.13-1.74-3.2-2.58c-2.7,3.41-6.66,5.27-10.88,5.98c-2.66,0.29-3.98,2.7-5.65,4.44
		c-1.75,0.51-3.6,0.47-5.39,0.65c-0.31,0.96-0.6,1.93-0.9,2.9c-0.9,0.38-1.79,0.76-2.68,1.15c-0.24,1.06-0.48,2.13-0.71,3.2
		c-5.22,2.26-9.61,5.88-13.61,9.87c0.03,0.52,0.07,1.58,0.1,2.1c0.65,0.15,1.96,0.46,2.61,0.62c-0.51,0.69-1.01,1.39-1.51,2.1
		c-0.55,3.15-2.54,5.67-4.47,8.11c-0.32,0.27-0.97,0.79-1.29,1.05c-1.77,1.59-4.23,2.66-5.35,4.83c-0.71,4.43,0.04,8.93,0.45,13.36
		c-4.26,3.48-8.22,7.3-12.17,11.13c0.13,1.9,0.26,3.8,0.46,5.69c-2.62-0.05-5.21-0.41-7.78-0.9c-1.95,0.87-3.89,1.73-5.82,2.64
		c-0.84,5.95-5.88,9.8-10.9,12.3c-1.82,0.55-3.77,0.14-5.64,0.06c-3.45-3.2-5.1-7.98-9.25-10.53c-0.43-1.5-0.85-2.99-1.28-4.48
		c-3.33-2.4-6.32-5.21-9.21-8.11c1.67-3.21,3.1-6.55,3.98-10.07c-1.19-1.18-2.38-2.36-3.57-3.53c1.46-2.21,3.02-4.37,4.75-6.38
		c0.56-1.91,1.11-3.82,1.64-5.73c-1.38,0.56-2.76,1.12-4.14,1.69c-2.34-1.66-4.67-3.32-7.02-4.97c1.63-4.6,4.16-8.83,6.76-12.92
		c0.27-0.2,0.81-0.6,1.07-0.8c2.53,0.97,5.1,2.04,7.86,1.39c0.27-2.44,0.59-4.92-0.05-7.33c1.21-4.47,2.4-8.96,4.01-13.31
		c2.65-2.35,4.82-5.14,7.06-7.85c1.14-0.29,2.29-0.49,3.45-0.71c1.47-1.4,2.95-2.79,4.38-4.23c0.54-3.06,1.63-5.99,3.39-8.55
		c0.99,0.56,1.99,1.13,2.98,1.69c3.94-1.01,7.93-1.8,11.98-2.2c2.62-1.35,5.1-2.98,7.15-5.11c0.93-0.11,1.86-0.22,2.8-0.33
		c0.31,0.59,0.93,1.78,1.24,2.37C168.04,231.12,170.11,230.66,172.19,230.19z"/>
</g>
<g target="103">
	<path fill-opacity="0" fill="#ffffff" d="M148.36,326.6c2.57,0.49,5.16,0.85,7.78,0.9c0.26,1.29,0.57,2.56,0.88,3.84c4.37-0.44,8.81,0.14,12.54,2.63
		c-0.62,2.94-2.08,5.55-3.83,7.96c2.12-0.26,4.14-0.94,6.19-1.49c0.24,1.19,0.47,2.39,0.69,3.6c0.63,0.09,1.88,0.26,2.5,0.34
		c0.41-0.4,1.21-1.2,1.62-1.6c1.08,3.22,2.78,6.27,5.93,7.88c0.01,1.82,0,3.64,0.02,5.47c-3.65,1.71-6.65,4.42-8.67,7.9
		c0.28,1.19,0.55,2.38,0.82,3.58c-3.19,2.06-6.05,4.64-8.02,7.93c0.72,1.43,1.76,2.78,2.02,4.4c-0.32,1.63-0.99,3.18-1.32,4.81
		c1.89,1.42,4.1,2.37,5.95,3.86c0.5,1.43,0.7,2.94,1.02,4.43c0.23,0.42,0.69,1.26,0.92,1.68c-0.3,3.42-0.37,6.86-0.35,10.3
		c-1.58-0.33-3.16-0.66-4.74-0.98c1.47,2.59,2.97,5.16,4.51,7.72c-2.19,1.87-4.39,3.71-6.58,5.57c-0.76-0.17-2.28-0.51-3.03-0.69
		c-0.53,0.32-1.58,0.94-2.1,1.25c-1.62-0.02-3.24-0.13-4.84,0.06c-3.23,3.03-5.58,8.79-10.85,8.09c-5.52-1.75-9.35-6.14-13.78-9.57
		c-1.3-3.51-3.54-6.5-5.86-9.39c-1.72-1.93-1.26-4.69-1.58-7.05c-2.05-2.36-3.86-4.91-5.47-7.58c-1.76,0.62-3.53,1.23-5.29,1.85
		c0.1-0.86,0.31-2.56,0.41-3.41c-0.61,0.65-1.22,1.31-1.83,1.97c-2.41-1.07-4.9-1.93-7.44-2.64c0.04,0.73,0.12,2.2,0.16,2.93
		c-1.36,0.09-2.72,0.18-4.07,0.29c-0.36,2.14-0.73,4.29-1.12,6.44c0.28,0.33,0.84,0.99,1.12,1.32c0.31,1.81,0.63,3.63,0.95,5.45
		c-0.9,0.75-1.81,1.5-2.72,2.26c-0.29,2.46-0.22,5.19-1.74,7.29c-1.07,0.94-2.35,1.6-3.55,2.34c0.01-0.58,0.03-1.75,0.03-2.34
		c-0.49-0.45-1.48-1.35-1.97-1.8c-2.78,2.1-5.46,4.58-5.69,8.3c-2.05-0.66-4.1-1.32-6.15-1.97c-0.93-5.87-0.52-12.05-3-17.58
		c-1.25-2.94-2.38-5.94-4.12-8.63c0.15-1.56,0.32-3.12,0.48-4.66c-0.88-1.52-1.78-3.05-2.67-4.56c0.82,0.1,2.45,0.29,3.26,0.39
		c-0.45-0.61-1.35-1.82-1.8-2.42c2.28,0.1,4.52,0.62,6.69,1.31c3.21-2.53,6.49-4.97,9.92-7.19c-0.87-2.15-1.17-4.44-0.68-6.72
		c4.3,0.67,8.61-0.06,12.86-0.64c-1.96-1.38-3.93-2.73-5.86-4.13c1-1.59,2.01-3.16,3.03-4.72c2.11-0.63,4.19-1.34,6.24-2.13
		c1.73,0.81,3.45,1.63,5.17,2.46c2.23-2.42,4.4-5.07,4.93-8.43c0.15-1.89,1.5-3.06,3.03-3.93c-0.1-0.74-0.16-1.49-0.23-2.22
		c3.07-0.66,5.45-2.6,6.92-5.33c1.87,0.08,3.82,0.49,5.64-0.06c5.02-2.5,10.06-6.35,10.9-12.3
		C144.47,328.33,146.41,327.47,148.36,326.6z"/>
</g>
<g target="104">
	<path fill-opacity="0" fill="#ffffff" d="M106.58,390.22c2.54,0.71,5.03,1.57,7.44,2.64c0.61-0.66,1.22-1.32,1.83-1.97
		c-0.1,0.85-0.31,2.55-0.41,3.41c1.76-0.62,3.53-1.23,5.29-1.85c1.61,2.67,3.42,5.22,5.47,7.58c0.32,2.36-0.14,5.12,1.58,7.05
		c2.32,2.89,4.56,5.88,5.86,9.39c4.43,3.43,8.26,7.82,13.78,9.57c-0.65,0.98-1.28,1.97-1.91,2.97c1.08,3.98,0.57,8.58,3.26,11.96
		c-2.72,4.19-6.73,8.51-6.06,13.88c0.04,5.82,0.92,11.58,1.83,17.31c-3.01,2.47-6.26,4.69-9.83,6.27c-2.38,0.39-4.83-0.38-7.03-1.27
		c-2.77-1.03-2.62-4.41-3.31-6.79c-0.81-5.75-5.72-9.46-8.51-14.23c0.98-1.18,1.96-2.34,2.94-3.52c-1.43-1.47-2.85-2.95-4.25-4.44
		c-3.58-1.03-7.16-2.06-10.71-3.16c0.34-0.98,0.69-1.95,1.03-2.92c-1.78-2.46-3.41-5.07-4.28-8.01c-1.97-1.66-4.15-3.04-6.34-4.39
		c-2.75-1.64-4.3-4.59-6.27-7c0.23-3.72,2.91-6.2,5.69-8.3c0.49,0.45,1.48,1.35,1.97,1.8c0,0.59-0.02,1.76-0.03,2.34
		c1.2-0.74,2.48-1.4,3.55-2.34c1.52-2.1,1.45-4.83,1.74-7.29c0.91-0.76,1.82-1.51,2.72-2.26c-0.32-1.82-0.64-3.64-0.95-5.45
		c-0.28-0.33-0.84-0.99-1.12-1.32c0.39-2.15,0.76-4.3,1.12-6.44c1.35-0.11,2.71-0.2,4.07-0.29
		C106.7,392.42,106.62,390.95,106.58,390.22z"/>
</g>
</svg>
