<?xml version="1.0" encoding="UTF-8" ?>
<!DOCTYPE svg PUBLIC "-//W3C//DTD SVG 1.1//EN" "http://www.w3.org/Graphics/SVG/1.1/DTD/svg11.dtd">
<svg width="1920pt" height="1080pt" viewBox="0 0 1920 1080" version="1.1" xmlns="http://www.w3.org/2000/svg">
<g id="#00003fff">
<path fill="#00003f" opacity="1.00" d=" M 918.44 111.68 C 921.58 105.05 929.41 104.58 935.56 102.27 C 938.52 104.88 941.72 107.22 945.32 108.89 C 945.75 112.16 946.31 115.43 946.87 118.69 C 950.57 117.88 956.14 116.41 958.06 120.95 C 959.41 127.71 958.86 134.77 959.39 141.66 C 961.97 138.01 963.89 133.96 966.27 130.19 C 967.91 127.10 971.78 127.00 974.70 125.88 C 975.45 127.32 976.20 128.77 976.94 130.22 C 982.41 129.20 987.27 132.41 992.19 134.18 C 992.63 139.34 992.23 144.66 993.26 149.73 C 995.10 150.83 997.14 151.52 999.14 152.31 C 999.51 148.41 999.90 144.51 1000.31 140.62 C 1003.54 141.08 1006.73 141.63 1009.98 142.14 C 1009.64 148.07 1009.33 154.01 1009.24 159.95 C 1011.98 158.54 1012.99 155.58 1014.99 153.42 C 1015.15 158.18 1015.68 162.92 1016.33 167.65 C 1018.49 166.39 1020.82 165.05 1022.91 163.60 C 1028.65 162.77 1034.44 162.24 1040.22 161.65 C 1045.52 161.05 1050.54 163.32 1055.79 163.54 C 1056.69 164.53 1057.59 165.52 1058.51 166.53 C 1059.79 166.06 1061.07 165.60 1062.38 165.16 C 1065.63 170.40 1072.20 173.14 1073.73 179.45 C 1074.98 184.89 1074.75 190.58 1074.64 196.13 C 1077.29 197.21 1081.60 196.33 1083.56 199.10 C 1083.31 206.50 1081.68 213.77 1079.89 220.94 C 1076.51 220.30 1073.14 219.75 1069.78 219.14 C 1071.89 222.44 1073.63 226.01 1074.22 229.92 C 1078.71 233.16 1083.32 236.23 1088.33 238.65 C 1094.40 241.36 1096.27 248.32 1100.16 253.19 C 1102.65 255.47 1105.91 256.62 1109.06 257.71 C 1108.28 262.08 1107.64 266.55 1105.92 270.66 C 1102.20 272.31 1098.14 273.27 1094.83 275.77 C 1089.65 277.90 1089.23 284.24 1084.75 287.15 C 1084.11 291.44 1083.65 295.79 1082.52 299.99 C 1078.64 299.52 1074.27 297.46 1070.48 299.58 C 1065.59 302.13 1060.46 304.35 1056.15 307.86 C 1053.21 304.93 1051.15 301.17 1048.00 298.49 C 1045.47 299.55 1043.35 301.52 1040.68 302.21 C 1036.79 302.34 1032.92 299.67 1029.11 301.47 C 1025.45 303.12 1021.47 304.76 1017.41 303.53 C 1011.88 302.01 1005.74 304.43 1000.60 301.29 C 993.80 297.49 985.71 297.33 978.14 298.06 C 976.25 295.92 974.49 293.14 971.47 292.58 C 965.18 292.34 959.47 295.98 953.18 295.49 C 944.31 294.91 936.09 299.08 928.04 302.21 C 921.55 305.27 913.51 305.43 908.44 311.01 C 904.50 315.93 899.42 320.29 897.58 326.55 C 892.77 326.11 887.41 323.21 882.93 325.87 C 874.28 333.83 865.24 341.48 855.65 348.28 C 846.58 349.44 837.80 345.86 828.74 346.53 C 821.23 347.23 813.69 346.59 806.19 347.34 C 800.45 348.11 797.63 341.75 796.55 337.12 C 795.62 334.48 795.96 328.94 791.77 329.29 C 783.01 327.86 778.22 335.64 772.99 341.00 C 770.06 343.90 767.19 346.87 763.94 349.41 C 762.45 345.66 761.33 341.56 758.46 338.58 C 755.83 335.72 752.82 332.60 752.50 328.52 C 752.36 325.74 752.17 322.96 751.92 320.19 C 751.71 317.18 753.99 314.87 755.51 312.52 C 754.06 310.55 752.73 308.51 751.52 306.40 C 744.47 309.04 737.09 306.38 730.72 303.22 C 726.84 297.41 722.17 289.64 725.58 282.58 C 730.23 278.58 736.50 277.48 741.88 274.78 C 746.16 272.49 751.55 273.06 755.22 269.52 C 751.33 264.90 747.58 259.48 747.64 253.19 C 748.43 249.84 752.68 249.01 755.11 247.37 C 752.97 242.91 752.60 237.89 751.64 233.11 C 754.26 233.29 756.89 233.49 759.52 233.70 C 759.36 230.64 758.96 227.58 758.67 224.54 C 761.38 222.23 764.27 219.91 765.62 216.50 C 769.07 217.66 768.79 221.57 769.61 224.45 C 770.96 232.24 772.07 240.08 772.57 247.99 C 773.81 248.36 775.05 248.72 776.32 249.09 C 776.11 242.56 773.25 235.89 775.99 229.51 C 778.62 224.75 778.92 219.22 780.87 214.21 C 783.19 214.10 785.45 213.49 787.62 212.68 C 787.17 205.81 785.67 199.04 785.57 192.14 C 787.54 198.90 788.71 205.87 789.92 212.80 C 795.92 212.36 801.95 212.23 807.96 212.87 C 807.66 209.97 807.26 207.05 807.01 204.17 C 809.12 204.52 811.23 204.86 813.37 205.20 C 814.30 197.53 812.95 189.90 812.06 182.30 C 814.53 181.24 816.99 180.16 819.47 179.09 C 819.13 177.03 818.85 174.97 818.69 172.89 C 820.03 173.29 821.39 173.71 822.74 174.14 C 823.62 184.09 824.80 194.00 825.95 203.92 C 824.42 203.77 822.89 203.62 821.38 203.47 C 822.45 206.88 823.61 210.29 825.11 213.55 C 826.00 212.41 826.91 211.28 827.83 210.16 C 828.20 211.20 828.58 212.24 828.98 213.29 C 827.44 199.65 825.95 186.01 824.18 172.41 C 825.57 172.67 828.34 173.18 829.73 173.44 C 831.64 181.46 831.51 189.84 832.98 197.95 C 833.67 197.94 835.03 197.91 835.71 197.89 C 835.91 196.64 836.11 195.38 836.33 194.12 C 840.81 193.82 845.36 193.47 849.58 191.80 C 855.03 189.67 861.22 190.30 866.46 187.54 C 871.05 185.14 876.11 184.01 881.17 183.01 C 881.03 174.26 880.68 165.51 879.96 156.79 C 880.42 157.17 881.34 157.94 881.80 158.32 C 882.50 166.74 880.89 175.99 884.79 183.85 C 886.58 175.36 884.66 166.80 884.56 158.28 C 884.42 156.61 885.69 155.33 886.51 154.01 C 888.26 163.40 887.26 173.10 889.37 182.43 C 889.59 179.73 890.05 174.34 890.27 171.64 C 890.70 175.13 891.20 178.66 891.76 182.15 C 896.11 180.78 901.31 181.19 904.84 177.87 C 907.57 174.84 911.94 175.81 915.47 174.64 C 916.52 172.15 916.91 169.39 918.19 166.98 C 920.66 164.71 924.43 165.85 927.47 165.63 C 927.47 162.17 927.42 158.44 925.46 155.43 C 921.36 153.07 914.20 155.13 915.19 161.16 C 914.09 158.73 913.12 156.31 912.13 153.85 C 909.83 154.10 907.52 154.17 905.22 154.20 C 905.81 143.85 905.50 133.47 904.96 123.12 C 906.28 123.36 907.62 123.61 908.96 123.85 C 908.98 116.90 909.02 109.95 909.04 103.00 C 910.75 103.00 914.16 103.01 915.86 103.01 C 915.84 106.02 916.09 109.08 916.12 112.10 C 916.70 112.00 917.86 111.78 918.44 111.68 M 935.98 161.35 C 936.09 164.34 936.13 167.31 936.33 170.32 C 937.92 171.92 939.40 173.62 940.90 175.32 C 940.15 170.22 945.57 160.42 935.98 161.35 M 945.94 164.39 C 945.95 167.07 945.96 172.42 945.97 175.09 C 947.76 174.52 949.57 173.99 951.32 173.26 C 955.07 172.02 955.77 167.28 957.63 164.37 C 953.74 164.46 949.81 164.44 945.94 164.39 M 944.00 165.00 C 944.00 167.50 944.00 172.50 944.00 175.00 C 944.25 172.50 944.75 167.50 945.00 165.00 L 944.00 165.00 M 819.15 184.40 C 818.29 188.38 823.14 183.58 819.15 184.40 Z" />
<path fill="#00003f" opacity="1.00" d=" M 853.23 102.29 C 854.55 102.60 857.20 103.21 858.52 103.51 C 860.05 113.83 860.14 124.30 861.09 134.68 C 859.20 134.20 856.67 134.54 855.46 132.70 C 854.47 122.58 854.07 112.42 853.23 102.29 Z" />
<path fill="#00003f" opacity="1.00" d=" M 826.09 117.05 C 827.91 117.89 829.75 118.68 831.61 119.43 C 832.48 129.73 833.56 140.02 834.93 150.26 C 833.02 149.83 831.12 149.41 829.22 149.00 C 828.47 138.32 827.42 127.67 826.09 117.05 Z" />
<path fill="#00003f" opacity="1.00" d=" M 839.59 149.57 C 841.33 159.77 842.56 170.08 842.70 180.43 C 840.30 170.34 839.81 159.91 839.59 149.57 Z" />
<path fill="#00003f" opacity="1.00" d=" M 889.56 169.60 C 889.46 165.53 889.42 161.46 889.44 157.40 C 889.50 161.46 889.54 165.53 889.56 169.60 Z" />
<path fill="#00003f" opacity="1.00" d=" M 905.56 169.60 C 905.46 165.53 905.42 161.46 905.44 157.40 C 905.50 161.46 905.54 165.53 905.56 169.60 Z" />
</g>
<g id="#bf3f00ff">
<path fill="#bf3f00" opacity="1.00" d=" M 953.18 295.49 C 959.47 295.98 965.18 292.34 971.47 292.58 C 974.49 293.14 976.25 295.92 978.14 298.06 C 985.71 297.33 993.80 297.49 1000.60 301.29 C 1005.74 304.43 1011.88 302.01 1017.41 303.53 C 1021.47 304.76 1025.45 303.12 1029.11 301.47 C 1032.92 299.67 1036.79 302.34 1040.68 302.21 C 1043.35 301.52 1045.47 299.55 1048.00 298.49 C 1051.15 301.17 1053.21 304.93 1056.15 307.86 C 1058.75 310.68 1061.66 313.47 1062.72 317.30 C 1065.72 327.01 1067.15 337.13 1068.59 347.16 C 1068.77 350.97 1069.36 355.06 1067.84 358.66 C 1066.24 359.31 1064.49 359.47 1062.83 359.82 C 1067.94 363.68 1066.74 370.26 1068.41 375.64 C 1072.82 379.25 1075.49 384.03 1075.20 389.71 C 1078.63 391.07 1081.96 392.68 1085.34 394.19 C 1084.62 396.87 1084.00 399.58 1083.07 402.20 C 1081.71 404.77 1079.20 406.48 1077.80 409.02 C 1075.48 413.05 1074.50 417.69 1072.32 421.79 C 1077.36 422.25 1082.39 422.66 1087.45 422.71 C 1095.54 425.06 1103.70 428.64 1112.36 427.32 C 1114.18 429.47 1115.94 431.67 1117.60 433.94 C 1112.83 434.98 1108.18 436.49 1103.43 437.59 C 1099.36 438.08 1095.24 437.48 1091.20 437.03 C 1091.12 443.08 1090.93 449.81 1095.54 454.44 C 1094.03 454.80 1092.53 455.16 1091.03 455.52 C 1091.02 458.89 1090.26 462.17 1089.22 465.36 C 1092.86 469.48 1097.08 473.01 1101.52 476.22 C 1099.62 481.01 1095.32 485.10 1096.67 490.82 C 1093.41 495.83 1092.05 502.45 1086.83 505.97 C 1083.44 508.56 1079.99 511.07 1076.39 513.36 C 1076.74 514.72 1077.13 516.08 1077.51 517.45 C 1075.31 519.48 1072.64 521.33 1071.54 524.22 C 1070.00 531.19 1072.11 539.68 1078.71 543.36 C 1082.40 545.59 1086.94 545.21 1090.82 546.89 C 1092.51 550.39 1093.27 554.22 1094.26 557.95 C 1089.58 559.04 1084.52 560.85 1081.87 565.17 C 1083.27 569.18 1087.38 571.05 1090.23 573.86 C 1092.67 576.58 1094.37 579.86 1096.21 583.00 C 1092.36 585.85 1088.65 588.86 1085.10 592.07 C 1086.18 593.60 1087.27 595.13 1088.36 596.67 C 1085.81 597.75 1083.26 599.42 1080.42 599.29 C 1073.64 597.16 1067.60 593.30 1061.37 590.01 C 1057.49 587.96 1054.81 584.41 1052.34 580.92 C 1053.70 580.51 1055.07 580.10 1056.45 579.70 C 1049.15 578.20 1042.73 582.22 1036.10 584.43 C 1035.96 580.95 1037.65 577.81 1039.14 574.79 C 1037.74 573.08 1036.40 571.33 1035.11 569.56 C 1028.15 569.87 1021.99 565.49 1015.04 566.17 C 1003.25 567.14 991.12 563.55 981.86 556.15 C 973.49 551.60 971.66 564.03 964.89 565.87 C 956.08 567.24 947.13 566.90 938.29 567.95 C 934.55 568.44 931.64 571.11 928.82 573.38 C 924.22 572.72 919.63 573.61 915.25 575.02 C 912.44 570.14 906.57 571.37 901.90 571.50 C 898.28 571.09 894.26 570.12 891.66 567.43 C 889.40 563.31 889.13 558.40 888.90 553.80 C 888.44 545.56 898.74 541.36 898.33 533.17 C 898.41 528.18 894.74 522.89 889.55 522.39 C 881.50 519.85 874.26 527.45 866.35 523.97 C 860.97 524.09 858.53 519.48 856.78 515.36 C 854.20 515.23 851.88 515.25 849.37 515.15 C 850.65 517.65 851.92 520.16 853.16 522.69 C 851.00 522.07 848.89 521.07 846.63 521.02 C 842.21 523.55 839.86 528.63 835.49 531.23 C 831.52 532.61 825.86 533.34 823.43 529.18 C 819.57 522.89 813.30 517.23 813.53 509.27 C 815.70 505.32 821.55 503.34 820.38 497.96 C 816.58 494.31 810.64 492.45 808.75 487.13 C 814.49 481.41 822.06 478.25 828.47 473.42 C 832.15 470.61 837.37 470.15 840.44 466.57 C 842.14 461.89 840.90 456.61 843.07 452.02 C 844.19 448.46 848.26 447.70 851.28 446.40 C 850.20 442.18 850.52 437.80 852.77 434.04 C 850.35 432.04 848.30 429.48 845.42 428.14 C 841.27 426.76 836.64 426.99 832.70 424.96 C 830.75 423.50 829.36 421.47 827.80 419.64 C 827.44 420.99 827.10 422.35 826.76 423.71 C 825.45 421.31 824.11 418.93 823.03 416.41 C 821.21 416.55 819.39 416.71 817.57 416.87 C 817.56 415.92 817.56 414.98 817.57 414.04 C 814.11 414.65 810.66 415.25 807.21 415.82 C 810.25 411.11 816.30 407.39 816.14 401.24 C 814.01 397.23 809.33 395.55 805.59 393.40 C 807.88 391.18 810.44 389.18 812.38 386.62 C 815.00 382.13 816.03 376.81 819.42 372.73 C 823.60 370.64 828.50 370.37 832.53 367.89 C 841.55 363.00 847.89 354.75 855.65 348.28 C 865.24 341.48 874.28 333.83 882.93 325.87 C 887.41 323.21 892.77 326.11 897.58 326.55 C 899.42 320.29 904.50 315.93 908.44 311.01 C 913.51 305.43 921.55 305.27 928.04 302.21 C 936.09 299.08 944.31 294.91 953.18 295.49 Z" />
</g>
<g id="#7f003fff">
<path fill="#7f003f" opacity="1.00" d=" M 741.64 329.88 C 744.53 326.13 747.87 322.70 751.92 320.19 C 752.17 322.96 752.36 325.74 752.50 328.52 C 752.82 332.60 755.83 335.72 758.46 338.58 C 761.33 341.56 762.45 345.66 763.94 349.41 C 767.19 346.87 770.06 343.90 772.99 341.00 C 778.22 335.64 783.01 327.86 791.77 329.29 C 795.96 328.94 795.62 334.48 796.55 337.12 C 797.63 341.75 800.45 348.11 806.19 347.34 C 813.69 346.59 821.23 347.23 828.74 346.53 C 837.80 345.86 846.58 349.44 855.65 348.28 C 847.89 354.75 841.55 363.00 832.53 367.89 C 828.50 370.37 823.60 370.64 819.42 372.73 C 816.03 376.81 815.00 382.13 812.38 386.62 C 810.44 389.18 807.88 391.18 805.59 393.40 C 809.33 395.55 814.01 397.23 816.14 401.24 C 816.30 407.39 810.25 411.11 807.21 415.82 C 810.66 415.25 814.11 414.65 817.57 414.04 C 817.56 414.98 817.56 415.92 817.57 416.87 C 819.39 416.71 821.21 416.55 823.03 416.41 C 824.11 418.93 825.45 421.31 826.76 423.71 C 827.10 422.35 827.44 420.99 827.80 419.64 C 829.36 421.47 830.75 423.50 832.70 424.96 C 836.64 426.99 841.27 426.76 845.42 428.14 C 848.30 429.48 850.35 432.04 852.77 434.04 C 850.52 437.80 850.20 442.18 851.28 446.40 C 848.26 447.70 844.19 448.46 843.07 452.02 C 840.90 456.61 842.14 461.89 840.44 466.57 C 837.37 470.15 832.15 470.61 828.47 473.42 C 822.06 478.25 814.49 481.41 808.75 487.13 C 810.64 492.45 816.58 494.31 820.38 497.96 C 821.55 503.34 815.70 505.32 813.53 509.27 C 813.30 517.23 819.57 522.89 823.43 529.18 C 825.86 533.34 831.52 532.61 835.49 531.23 C 839.86 528.63 842.21 523.55 846.63 521.02 C 848.89 521.07 851.00 522.07 853.16 522.69 C 851.92 520.16 850.65 517.65 849.37 515.15 C 851.88 515.25 854.20 515.23 856.78 515.36 C 858.53 519.48 860.97 524.09 866.35 523.97 C 874.26 527.45 881.50 519.85 889.55 522.39 C 894.74 522.89 898.41 528.18 898.33 533.17 C 898.74 541.36 888.44 545.56 888.90 553.80 C 889.13 558.40 889.40 563.31 891.66 567.43 C 894.26 570.12 898.28 571.09 901.90 571.50 C 906.57 571.37 912.44 570.14 915.25 575.02 C 919.63 573.61 924.22 572.72 928.82 573.38 C 931.64 571.11 934.55 568.44 938.29 567.95 C 947.13 566.90 956.08 567.24 964.89 565.87 C 971.66 564.03 973.49 551.60 981.86 556.15 C 991.12 563.55 1003.25 567.14 1015.04 566.17 C 1021.99 565.49 1028.15 569.87 1035.11 569.56 C 1036.40 571.33 1037.74 573.08 1039.14 574.79 C 1037.65 577.81 1035.96 580.95 1036.10 584.43 C 1037.14 588.79 1039.76 592.62 1040.54 597.06 C 1037.84 603.74 1030.83 605.78 1025.41 609.42 C 1021.06 613.61 1016.25 617.70 1013.86 623.39 C 1012.74 626.37 1009.75 627.56 1006.93 628.37 C 1007.67 632.72 1009.03 636.93 1010.86 640.94 C 1008.65 641.65 1006.15 644.17 1003.90 642.30 C 999.11 639.40 998.65 633.00 994.43 629.51 C 992.02 627.61 991.43 624.61 991.61 621.72 C 988.62 621.57 985.63 621.44 982.64 621.33 C 981.01 624.55 979.86 628.28 977.06 630.72 C 972.78 632.87 967.71 633.01 963.06 632.19 C 957.55 631.31 951.95 631.24 946.39 631.18 C 942.81 639.13 937.38 646.27 934.67 654.60 C 933.32 657.89 937.76 658.76 939.65 660.39 C 938.18 661.81 936.86 663.37 935.63 665.00 C 938.29 665.39 940.99 665.79 943.71 666.22 C 943.26 668.64 942.88 671.10 942.47 673.56 C 943.91 674.03 945.37 674.50 946.84 674.98 C 944.47 677.91 941.25 679.90 938.10 681.88 C 937.13 685.47 936.16 690.07 931.99 691.17 C 926.45 692.85 921.89 697.23 920.25 702.80 C 919.76 707.46 920.70 712.08 920.72 716.74 C 920.20 720.08 917.94 722.87 917.14 726.14 C 915.53 730.11 916.68 734.52 915.51 738.59 C 914.66 741.58 913.37 744.42 912.18 747.29 C 903.59 746.02 894.77 750.14 890.87 757.96 C 900.56 763.10 905.80 772.89 912.67 780.93 C 913.98 780.36 915.30 779.80 916.63 779.23 C 916.06 781.16 915.51 783.10 914.98 785.05 C 910.11 784.79 904.89 784.30 900.63 787.20 C 889.33 787.27 878.30 790.19 867.05 790.92 C 865.80 796.49 863.76 801.86 861.29 807.01 C 857.95 809.04 853.75 809.88 851.12 812.96 C 846.20 819.00 842.37 825.80 838.45 832.49 C 836.15 836.82 830.85 837.45 827.22 840.19 C 821.80 843.61 817.46 849.57 810.49 849.70 C 805.98 850.39 801.44 850.90 796.90 851.22 C 792.10 851.66 787.80 848.91 783.35 847.68 C 777.41 845.59 770.79 846.24 764.99 843.72 C 761.81 840.59 759.75 836.52 757.21 832.89 C 761.49 827.58 765.13 821.46 771.08 817.80 C 775.24 814.70 780.17 812.51 783.55 808.47 C 785.65 805.98 784.92 802.49 784.90 799.51 C 789.68 797.83 796.01 796.23 797.61 790.76 C 798.14 785.31 790.25 785.07 789.29 780.29 C 787.29 772.57 792.68 764.71 790.05 757.06 C 788.44 751.95 787.11 746.56 783.49 742.43 C 781.20 739.98 781.77 736.52 782.09 733.50 C 779.57 732.08 777.08 730.47 774.79 728.73 C 772.44 726.31 770.97 723.12 768.36 720.94 C 760.69 722.38 753.01 724.00 745.22 724.83 C 742.35 718.76 739.72 712.53 735.79 707.03 C 740.53 700.93 748.50 699.85 754.46 695.59 C 754.77 691.02 753.85 686.30 752.03 682.11 C 750.83 676.44 743.72 675.76 741.97 670.57 C 740.16 666.12 744.14 661.99 745.13 657.91 C 746.26 655.21 747.50 652.56 748.68 649.89 C 747.49 649.58 746.30 649.28 745.12 648.99 C 750.43 642.32 756.40 635.89 764.12 632.03 C 767.64 630.37 766.87 625.76 767.64 622.51 C 762.98 621.43 758.28 620.42 754.12 618.00 C 750.62 616.00 746.34 615.54 743.14 613.07 C 741.44 609.10 742.25 604.43 741.55 600.28 C 748.95 594.56 756.44 588.92 764.46 584.07 C 763.08 581.31 761.79 578.52 760.73 575.63 C 756.37 575.64 751.73 577.14 747.59 575.45 C 744.48 571.93 744.14 566.99 743.17 562.60 C 741.46 562.18 739.78 561.78 738.08 561.39 C 737.53 558.80 737.36 555.37 734.37 554.40 C 720.68 548.68 705.50 552.99 691.21 550.83 C 693.15 545.53 697.01 541.22 699.14 536.06 C 698.57 530.88 696.47 526.08 694.21 521.46 C 703.79 516.10 714.82 514.28 724.86 509.97 C 725.19 508.40 725.56 506.84 725.95 505.29 C 721.48 503.53 715.75 502.10 714.19 496.91 C 712.67 491.92 710.26 485.64 714.13 481.16 C 721.93 473.94 730.37 467.36 737.75 459.68 C 742.77 456.03 738.37 450.72 737.70 446.28 C 736.60 443.36 739.58 441.24 741.04 439.09 C 745.02 433.48 754.41 433.51 756.22 426.14 C 756.63 423.95 757.53 420.56 755.09 419.28 C 750.59 416.36 745.56 414.64 740.34 413.60 C 739.30 410.94 739.27 407.90 739.23 405.12 C 739.47 401.07 743.67 398.51 743.75 394.46 C 741.71 392.37 737.96 391.81 737.13 388.72 C 735.73 383.46 733.91 377.29 737.67 372.60 C 737.09 369.56 736.53 366.51 735.96 363.46 C 737.28 362.97 738.61 362.47 739.95 361.97 C 735.62 358.02 730.01 351.57 733.50 345.47 C 736.62 340.57 734.99 334.55 734.70 329.13 C 737.01 329.37 739.32 329.64 741.64 329.88 Z" />
</g>
<g id="#3fbf00ff">
<path fill="#3fbf00" opacity="1.00" d=" M 1112.36 427.32 C 1113.72 426.92 1115.10 426.51 1116.48 426.09 C 1118.41 429.54 1120.91 432.60 1123.55 435.55 C 1126.65 438.41 1124.59 442.58 1124.11 446.03 C 1127.00 446.22 1129.90 446.37 1132.81 446.37 C 1139.74 450.74 1142.19 458.71 1147.15 464.81 C 1148.55 469.04 1143.51 475.24 1148.30 478.31 C 1150.96 478.28 1153.46 477.51 1156.15 477.14 C 1159.95 483.20 1156.53 490.62 1157.97 497.04 C 1161.11 500.37 1162.94 504.38 1164.19 508.73 C 1167.93 511.08 1172.36 513.09 1176.94 512.79 C 1177.52 513.21 1178.11 513.63 1178.71 514.07 C 1178.03 520.32 1177.87 526.74 1175.38 532.63 C 1174.18 536.57 1171.61 540.35 1172.10 544.62 C 1174.25 553.20 1170.69 561.87 1170.23 570.49 C 1173.77 572.60 1176.73 575.46 1179.79 578.19 C 1183.90 581.77 1189.85 580.54 1194.66 579.64 C 1197.49 577.75 1198.38 574.22 1199.72 571.29 C 1206.03 570.25 1212.57 570.45 1218.77 568.79 C 1222.62 567.89 1224.26 564.10 1226.17 561.07 C 1226.95 561.41 1227.75 561.76 1228.56 562.12 C 1228.39 563.29 1228.23 564.46 1228.10 565.64 C 1230.66 565.51 1233.22 565.48 1235.80 565.49 C 1234.06 569.27 1232.95 573.40 1233.85 577.57 C 1235.11 576.28 1236.35 574.96 1237.59 573.63 C 1238.31 573.94 1239.03 574.25 1239.78 574.57 C 1246.74 569.05 1248.09 559.95 1252.88 552.92 C 1258.86 545.76 1260.79 536.48 1265.54 528.61 C 1267.37 522.76 1274.43 520.85 1279.87 522.03 C 1285.78 523.25 1292.06 523.51 1297.47 526.45 C 1300.81 528.12 1303.73 530.49 1307.04 532.23 C 1308.42 537.38 1310.81 542.16 1313.02 547.00 C 1317.53 546.87 1322.17 546.71 1326.74 546.72 C 1327.21 545.01 1327.71 543.32 1328.26 541.63 C 1332.53 543.22 1336.84 544.71 1341.19 546.06 C 1344.92 546.90 1343.98 551.55 1345.87 554.17 C 1348.13 557.52 1350.91 560.54 1352.60 564.27 C 1354.03 566.87 1354.88 570.37 1358.07 571.36 C 1362.71 572.88 1364.65 577.67 1367.34 581.31 C 1362.56 582.78 1357.16 584.04 1352.47 581.65 C 1348.05 580.14 1341.87 577.22 1337.91 580.93 C 1334.61 583.15 1338.80 586.14 1339.93 588.50 C 1339.45 588.51 1338.50 588.54 1338.02 588.55 C 1338.70 591.11 1339.41 593.66 1340.10 596.22 C 1339.46 598.05 1337.53 600.00 1338.65 602.01 C 1341.51 607.78 1346.15 612.39 1350.75 616.80 C 1352.30 615.87 1353.87 614.96 1355.44 614.07 C 1356.37 619.83 1358.46 625.33 1359.15 631.15 C 1356.86 630.28 1354.60 629.34 1352.36 628.38 C 1349.80 631.81 1346.53 635.73 1341.78 635.38 C 1335.78 634.88 1329.75 634.02 1324.00 632.19 C 1325.71 629.59 1327.65 627.12 1329.65 624.73 C 1328.97 623.75 1328.28 622.78 1327.63 621.83 C 1321.27 624.08 1315.62 628.35 1308.75 629.03 C 1308.51 633.59 1308.48 638.41 1306.58 642.65 C 1304.48 644.64 1301.25 644.75 1298.63 645.69 C 1295.42 646.33 1293.28 648.95 1291.06 651.12 C 1283.70 647.87 1275.37 650.57 1267.91 648.04 C 1264.61 647.03 1263.72 643.41 1262.38 640.68 C 1254.71 646.77 1243.93 643.35 1236.88 637.98 C 1234.98 642.08 1235.19 650.66 1227.97 648.88 C 1221.22 649.88 1214.70 647.28 1208.09 646.62 C 1205.89 649.47 1206.45 654.37 1202.67 655.83 C 1196.51 658.06 1189.57 659.21 1184.64 663.83 C 1183.74 666.42 1183.64 669.21 1183.26 671.91 C 1189.31 674.96 1193.44 680.66 1199.55 683.60 C 1197.15 684.99 1193.52 685.35 1192.80 688.38 C 1191.49 694.42 1191.47 700.86 1193.32 706.81 C 1196.97 715.79 1198.52 725.56 1198.38 735.23 C 1194.74 750.18 1192.27 766.29 1182.98 779.04 C 1180.58 782.20 1178.95 785.86 1177.67 789.61 C 1181.39 786.99 1184.99 784.20 1188.48 781.26 C 1185.58 788.49 1183.28 796.21 1178.42 802.43 C 1175.27 806.52 1170.73 809.11 1166.38 811.70 C 1160.79 814.54 1157.89 820.35 1153.52 824.57 C 1149.54 829.19 1143.95 832.42 1141.28 838.11 C 1138.02 843.26 1136.57 849.75 1131.63 853.68 C 1127.26 857.47 1121.70 859.37 1116.54 861.79 C 1118.90 862.34 1121.29 862.86 1123.68 863.40 C 1123.52 864.85 1123.37 866.30 1123.22 867.77 C 1116.37 869.82 1109.91 872.95 1104.00 876.96 C 1103.53 873.03 1103.83 868.74 1101.73 865.24 C 1098.30 862.64 1093.54 864.29 1089.66 864.31 C 1087.56 860.51 1086.48 856.31 1085.11 852.23 C 1083.53 847.47 1078.10 846.22 1074.57 843.33 C 1070.81 840.79 1068.42 836.77 1064.92 833.98 C 1060.34 832.62 1055.41 834.30 1050.82 833.02 C 1044.78 829.67 1041.17 823.41 1035.51 819.58 C 1027.25 814.21 1018.33 809.69 1011.17 802.82 C 1008.14 799.13 1007.53 794.18 1006.14 789.74 C 999.46 792.54 994.65 798.35 987.89 800.97 C 984.10 802.47 981.87 806.08 979.82 809.39 C 976.37 807.44 972.46 805.12 972.43 800.64 C 967.27 801.16 962.11 801.79 957.00 802.66 C 953.91 799.34 950.80 795.75 946.63 793.78 C 936.53 790.78 928.76 783.38 920.20 777.60 C 919.00 778.14 917.81 778.69 916.63 779.23 C 915.30 779.80 913.98 780.36 912.67 780.93 C 905.80 772.89 900.56 763.10 890.87 757.96 C 894.77 750.14 903.59 746.02 912.18 747.29 C 913.37 744.42 914.66 741.58 915.51 738.59 C 916.68 734.52 915.53 730.11 917.14 726.14 C 917.94 722.87 920.20 720.08 920.72 716.74 C 920.70 712.08 919.76 707.46 920.25 702.80 C 921.89 697.23 926.45 692.85 931.99 691.17 C 936.16 690.07 937.13 685.47 938.10 681.88 C 941.25 679.90 944.47 677.91 946.84 674.98 C 945.37 674.50 943.91 674.03 942.47 673.56 C 942.88 671.10 943.26 668.64 943.71 666.22 C 940.99 665.79 938.29 665.39 935.63 665.00 C 936.86 663.37 938.18 661.81 939.65 660.39 C 937.76 658.76 933.32 657.89 934.67 654.60 C 937.38 646.27 942.81 639.13 946.39 631.18 C 951.95 631.24 957.55 631.31 963.06 632.19 C 967.71 633.01 972.78 632.87 977.06 630.72 C 979.86 628.28 981.01 624.55 982.64 621.33 C 985.63 621.44 988.62 621.57 991.61 621.72 C 991.43 624.61 992.02 627.61 994.43 629.51 C 998.65 633.00 999.11 639.40 1003.90 642.30 C 1006.15 644.17 1008.65 641.65 1010.86 640.94 C 1009.03 636.93 1007.67 632.72 1006.93 628.37 C 1009.75 627.56 1012.74 626.37 1013.86 623.39 C 1016.25 617.70 1021.06 613.61 1025.41 609.42 C 1030.83 605.78 1037.84 603.74 1040.54 597.06 C 1039.76 592.62 1037.14 588.79 1036.10 584.43 C 1042.73 582.22 1049.15 578.20 1056.45 579.70 C 1055.07 580.10 1053.70 580.51 1052.34 580.92 C 1054.81 584.41 1057.49 587.96 1061.37 590.01 C 1067.60 593.30 1073.64 597.16 1080.42 599.29 C 1083.26 599.42 1085.81 597.75 1088.36 596.67 C 1087.27 595.13 1086.18 593.60 1085.10 592.07 C 1088.65 588.86 1092.36 585.85 1096.21 583.00 C 1094.37 579.86 1092.67 576.58 1090.23 573.86 C 1087.38 571.05 1083.27 569.18 1081.87 565.17 C 1084.52 560.85 1089.58 559.04 1094.26 557.95 C 1093.27 554.22 1092.51 550.39 1090.82 546.89 C 1086.94 545.21 1082.40 545.59 1078.71 543.36 C 1072.11 539.68 1070.00 531.19 1071.54 524.22 C 1072.64 521.33 1075.31 519.48 1077.51 517.45 C 1077.13 516.08 1076.74 514.72 1076.39 513.36 C 1079.99 511.07 1083.44 508.56 1086.83 505.97 C 1092.05 502.45 1093.41 495.83 1096.67 490.82 C 1095.32 485.10 1099.62 481.01 1101.52 476.22 C 1097.08 473.01 1092.86 469.48 1089.22 465.36 C 1090.26 462.17 1091.02 458.89 1091.03 455.52 C 1092.53 455.16 1094.03 454.80 1095.54 454.44 C 1090.93 449.81 1091.12 443.08 1091.20 437.03 C 1095.24 437.48 1099.36 438.08 1103.43 437.59 C 1108.18 436.49 1112.83 434.98 1117.60 433.94 C 1115.94 431.67 1114.18 429.47 1112.36 427.32 M 1086.39 770.51 C 1084.78 772.13 1082.44 772.30 1080.33 772.62 C 1081.34 774.60 1082.32 776.59 1083.24 778.64 C 1078.87 778.45 1077.51 774.57 1075.73 771.40 C 1070.02 770.61 1064.90 768.21 1061.31 763.39 C 1060.94 764.62 1060.62 765.89 1060.28 767.14 C 1059.21 766.57 1058.17 765.99 1057.14 765.42 C 1055.83 767.28 1054.48 769.11 1053.11 770.92 C 1056.30 774.22 1060.46 777.36 1061.79 781.91 C 1062.19 789.24 1053.42 790.42 1049.67 795.13 C 1055.56 796.88 1059.59 802.31 1066.00 802.80 C 1066.97 798.85 1068.06 794.95 1068.63 790.93 C 1069.76 791.98 1070.87 793.05 1072.00 794.13 C 1073.69 792.69 1075.39 791.25 1077.10 789.83 C 1078.55 793.52 1079.40 797.43 1080.98 801.07 C 1082.88 803.44 1087.18 803.12 1088.92 805.88 C 1090.91 809.03 1093.08 812.10 1096.06 814.41 C 1095.48 810.66 1094.29 806.99 1094.17 803.19 C 1098.59 799.38 1105.27 799.84 1110.59 801.27 C 1108.55 802.22 1106.48 803.11 1104.43 804.01 C 1109.40 812.00 1118.05 816.70 1123.05 824.69 C 1128.91 819.03 1133.86 812.51 1139.88 807.00 C 1140.27 800.02 1143.77 793.51 1149.06 789.01 C 1147.25 786.83 1145.59 784.51 1143.58 782.52 C 1141.52 783.18 1139.64 784.29 1137.70 785.22 C 1137.67 781.40 1136.27 777.82 1134.28 774.62 C 1133.78 777.22 1133.37 779.85 1132.98 782.48 C 1126.55 782.43 1120.42 784.53 1114.05 784.86 C 1111.71 779.81 1105.80 778.68 1102.44 774.68 C 1100.73 770.61 1100.78 766.05 1099.96 761.76 C 1095.31 764.47 1090.27 766.68 1086.39 770.51 Z" />
</g>
<g id="#007f3ffe">
<path fill="#007f3f" opacity="1.00" d=" M 572.62 506.11 C 578.70 507.19 584.47 509.80 590.70 509.99 C 595.85 510.69 600.94 513.31 606.18 511.52 C 607.43 513.28 608.23 515.72 610.40 516.58 C 618.13 519.15 626.06 516.28 633.84 515.70 C 636.87 516.81 638.36 520.08 640.29 522.47 C 643.96 522.61 648.21 521.16 651.27 523.68 C 652.77 524.81 654.12 526.14 655.52 527.41 C 662.93 520.50 672.12 514.17 682.67 514.26 C 686.25 517.03 689.50 520.68 694.21 521.46 C 696.47 526.08 698.57 530.88 699.14 536.06 C 697.01 541.22 693.15 545.53 691.21 550.83 C 705.50 552.99 720.68 548.68 734.37 554.40 C 737.36 555.37 737.53 558.80 738.08 561.39 C 739.78 561.78 741.46 562.18 743.17 562.60 C 744.14 566.99 744.48 571.93 747.59 575.45 C 751.73 577.14 756.37 575.64 760.73 575.63 C 761.79 578.52 763.08 581.31 764.46 584.07 C 756.44 588.92 748.95 594.56 741.55 600.28 C 742.25 604.43 741.44 609.10 743.14 613.07 C 746.34 615.54 750.62 616.00 754.12 618.00 C 758.28 620.42 762.98 621.43 767.64 622.51 C 766.87 625.76 767.64 630.37 764.12 632.03 C 756.40 635.89 750.43 642.32 745.12 648.99 C 746.30 649.28 747.49 649.58 748.68 649.89 C 747.50 652.56 746.26 655.21 745.13 657.91 C 739.99 659.25 734.88 660.81 730.19 663.35 C 727.98 664.33 725.74 665.93 723.21 665.57 C 720.69 664.94 718.33 663.73 715.77 663.24 C 712.23 662.45 708.80 665.69 705.34 664.12 C 701.13 662.55 696.51 662.84 692.27 661.36 C 686.59 666.06 680.13 669.79 673.75 673.44 C 665.66 674.77 657.09 674.20 649.61 678.10 C 645.97 678.93 642.19 677.78 638.58 678.74 C 633.96 680.78 631.12 685.35 626.80 687.83 C 624.35 687.95 621.97 687.16 619.60 686.70 C 623.82 682.18 624.55 675.72 623.69 669.83 C 622.96 666.37 625.53 663.55 627.25 660.85 C 627.10 659.46 626.94 658.07 626.80 656.71 C 615.60 661.18 603.38 661.06 591.60 662.80 C 590.26 659.30 588.90 655.80 587.59 652.30 C 580.86 652.78 574.12 653.17 567.38 653.13 C 565.89 648.24 565.04 643.07 562.73 638.49 C 557.48 631.38 548.75 628.63 541.11 625.03 C 531.55 620.64 520.85 620.34 510.97 617.05 C 507.29 615.86 503.54 614.89 499.81 613.93 C 498.97 608.93 498.14 603.90 498.20 598.82 C 498.26 595.44 500.31 592.36 500.15 588.97 C 499.31 586.97 497.70 585.44 496.41 583.74 C 497.53 581.04 498.58 578.31 499.25 575.46 C 502.00 573.57 504.91 571.60 506.07 568.30 C 508.43 561.25 517.50 561.63 521.54 556.31 C 524.89 546.48 535.99 541.91 545.70 542.08 C 550.59 539.19 552.35 533.07 555.67 528.65 C 559.16 524.12 561.53 518.61 566.20 515.10 C 568.91 512.58 570.67 509.21 572.62 506.11 Z" />
</g>
<g id="#7f7fbfff">
<path fill="#7f7fbf" opacity="1.00" d=" M 416.25 573.07 C 420.76 565.68 428.20 560.90 434.54 555.25 C 436.68 558.47 439.29 561.48 440.52 565.22 C 441.52 567.88 441.70 571.01 443.81 573.15 C 446.65 576.60 451.24 577.64 455.43 578.38 C 459.60 578.55 463.06 574.76 467.32 575.64 C 472.46 576.49 477.53 578.06 482.82 577.43 C 491.29 576.47 498.29 571.25 506.07 568.30 C 504.91 571.60 502.00 573.57 499.25 575.46 C 498.58 578.31 497.53 581.04 496.41 583.74 C 497.70 585.44 499.31 586.97 500.15 588.97 C 500.31 592.36 498.26 595.44 498.20 598.82 C 498.14 603.90 498.97 608.93 499.81 613.93 C 499.06 618.70 497.86 623.46 495.75 627.81 C 493.00 633.27 486.47 634.82 481.79 638.05 C 483.57 638.06 485.36 638.06 487.15 638.07 C 486.33 641.47 486.18 644.97 486.37 648.46 C 480.64 648.99 474.56 648.48 469.35 651.42 C 464.90 654.01 462.14 658.81 457.23 660.74 C 454.28 669.61 452.18 678.74 449.05 687.53 C 450.90 690.48 453.15 693.43 453.65 696.99 C 452.65 699.64 450.39 701.49 448.74 703.72 C 445.97 707.19 444.64 711.49 443.19 715.62 C 448.67 721.49 453.83 727.66 459.10 733.73 C 457.62 733.87 454.67 734.15 453.20 734.29 C 451.51 739.90 444.91 740.65 439.91 741.02 C 433.48 741.03 427.53 744.78 424.15 750.16 C 421.50 747.95 419.31 745.09 416.20 743.52 C 412.55 742.24 409.09 744.68 405.87 746.08 C 400.40 740.91 394.53 736.10 389.69 730.32 C 387.04 727.03 387.77 722.55 388.69 718.77 C 385.37 716.75 381.90 714.94 378.23 713.63 C 371.05 711.22 366.72 704.54 361.41 699.58 C 359.24 697.71 355.65 693.59 358.87 691.00 C 363.08 687.45 365.69 682.55 369.31 678.49 C 366.68 672.15 370.96 666.30 373.20 660.64 C 371.84 658.38 369.33 656.62 368.58 654.08 C 368.66 649.47 374.20 649.09 377.38 647.41 C 376.95 644.96 375.63 641.89 377.76 639.86 C 379.79 636.89 383.62 636.35 386.28 634.19 C 389.44 630.61 390.12 624.76 395.78 623.82 C 395.28 622.56 394.77 621.30 394.26 620.06 C 398.78 618.93 402.15 615.19 406.81 614.52 C 409.97 613.55 414.82 613.60 415.69 609.60 C 417.85 605.40 414.15 602.72 412.15 599.85 C 409.30 596.49 407.08 592.67 404.88 588.87 C 407.60 587.40 410.69 586.22 412.75 583.81 C 414.44 580.40 414.16 576.31 416.25 573.07 Z" />
</g>
<g id="#3f3f7ffe">
<path fill="#3f3f7f" opacity="1.00" d=" M 1337.91 580.93 C 1341.87 577.22 1348.05 580.14 1352.47 581.65 C 1357.16 584.04 1362.56 582.78 1367.34 581.31 C 1369.50 586.32 1371.20 591.52 1372.80 596.74 C 1374.59 598.23 1376.28 599.86 1377.77 601.68 C 1379.50 601.32 1381.24 600.95 1383.01 600.78 C 1383.20 606.74 1389.29 609.18 1392.25 613.59 C 1394.28 616.57 1396.53 619.41 1399.38 621.67 C 1399.08 622.89 1398.80 624.12 1398.53 625.36 C 1402.90 627.50 1405.72 631.96 1410.47 633.42 C 1414.79 634.64 1418.71 636.86 1422.73 638.81 C 1420.80 641.69 1418.93 644.61 1417.11 647.56 C 1419.04 649.58 1420.55 653.64 1424.02 652.32 C 1430.57 652.06 1434.09 643.03 1441.11 645.58 C 1445.44 649.80 1447.07 656.27 1451.49 660.50 C 1454.73 660.91 1456.14 655.07 1459.67 656.25 C 1463.63 658.86 1465.33 663.63 1467.54 667.64 C 1470.29 672.31 1469.29 678.02 1469.30 683.16 C 1470.71 683.32 1472.14 683.47 1473.59 683.62 C 1476.15 686.65 1478.94 689.51 1481.82 692.29 C 1480.50 694.69 1478.49 697.00 1478.39 699.84 C 1479.10 703.91 1480.15 708.69 1484.19 710.70 C 1491.19 714.27 1495.09 721.55 1498.61 728.19 C 1492.68 736.90 1483.80 743.11 1475.70 749.68 C 1473.62 752.25 1472.76 755.61 1471.45 758.60 C 1469.83 761.89 1472.14 765.23 1473.01 768.38 C 1477.49 766.11 1482.38 763.59 1487.41 765.97 C 1488.54 769.75 1489.22 773.96 1492.12 776.88 C 1494.70 779.52 1495.79 783.35 1495.78 786.99 C 1494.48 791.78 1491.00 795.74 1489.88 800.60 C 1488.11 818.44 1490.90 836.60 1487.59 854.32 C 1489.71 854.48 1491.84 854.60 1493.99 854.67 C 1494.44 858.54 1497.32 863.13 1494.66 866.66 C 1491.04 870.46 1486.52 873.19 1482.59 876.62 C 1477.57 881.27 1475.56 888.13 1471.37 893.38 C 1466.00 898.34 1459.81 902.32 1453.97 906.68 C 1448.61 905.07 1443.08 904.53 1437.54 904.24 C 1427.42 904.48 1420.36 894.25 1410.21 895.34 C 1405.59 897.73 1401.92 902.64 1396.34 902.78 C 1388.11 903.53 1383.32 894.52 1375.40 893.59 C 1369.64 892.84 1362.99 893.10 1359.11 898.09 C 1354.69 901.45 1356.05 907.55 1353.98 912.12 C 1348.02 918.27 1341.35 923.67 1334.91 929.32 C 1330.73 929.14 1326.38 929.06 1323.10 932.11 C 1316.15 937.60 1306.29 936.78 1299.57 942.65 C 1295.12 945.92 1290.91 951.78 1284.52 949.88 C 1279.22 949.04 1274.28 951.86 1268.98 951.30 C 1263.83 951.32 1258.82 950.54 1253.89 949.28 C 1246.07 947.53 1238.10 949.01 1230.28 949.79 C 1225.95 946.55 1221.16 944.13 1216.62 941.27 C 1212.46 938.65 1212.77 932.96 1211.09 928.91 C 1209.24 928.27 1207.38 927.62 1205.57 926.94 C 1209.94 921.51 1213.33 915.46 1215.70 908.94 C 1218.85 901.04 1227.12 897.38 1234.49 894.35 C 1229.69 891.30 1224.46 889.04 1219.13 887.13 C 1221.15 882.16 1221.62 876.80 1221.57 871.48 C 1223.36 870.26 1225.17 869.07 1226.97 867.85 C 1225.16 866.42 1223.21 865.14 1221.66 863.45 C 1221.38 859.71 1222.65 855.81 1225.14 853.00 C 1231.41 851.78 1237.72 854.69 1244.02 854.17 C 1250.90 853.41 1252.52 843.99 1259.62 843.55 C 1264.99 842.93 1270.18 844.83 1275.47 845.32 C 1277.92 842.83 1278.65 839.25 1280.30 836.26 C 1282.35 829.38 1290.81 829.02 1294.47 823.55 C 1297.22 819.66 1298.20 814.52 1301.87 811.32 C 1304.01 810.74 1306.27 811.05 1308.47 811.09 C 1315.82 803.46 1327.87 802.87 1335.04 794.87 C 1337.63 791.54 1341.69 789.51 1343.72 785.75 C 1345.12 781.83 1344.23 777.58 1344.07 773.53 C 1342.84 773.43 1341.66 773.35 1340.47 773.26 C 1336.14 767.29 1328.05 763.86 1326.77 755.94 C 1325.89 752.79 1328.79 750.63 1331.11 749.18 C 1338.06 745.25 1342.10 738.13 1347.35 732.37 C 1351.85 727.47 1353.86 720.01 1360.51 717.40 C 1365.51 714.77 1372.48 715.06 1375.91 709.98 C 1378.11 704.18 1375.10 697.41 1370.73 693.41 C 1365.50 689.20 1359.02 686.64 1352.42 685.59 C 1350.76 685.22 1348.78 685.02 1347.80 683.44 C 1341.11 673.90 1337.69 662.59 1331.66 652.68 C 1329.40 648.60 1325.16 646.24 1322.04 642.93 C 1321.57 639.25 1322.07 635.39 1324.00 632.19 C 1329.75 634.02 1335.78 634.88 1341.78 635.38 C 1346.53 635.73 1349.80 631.81 1352.36 628.38 C 1354.60 629.34 1356.86 630.28 1359.15 631.15 C 1358.46 625.33 1356.37 619.83 1355.44 614.07 C 1353.87 614.96 1352.30 615.87 1350.75 616.80 C 1346.15 612.39 1341.51 607.78 1338.65 602.01 C 1337.53 600.00 1339.46 598.05 1340.10 596.22 C 1339.41 593.66 1338.70 591.11 1338.02 588.55 C 1338.50 588.54 1339.45 588.51 1339.93 588.50 C 1338.80 586.14 1334.61 583.15 1337.91 580.93 M 1377.20 822.08 C 1377.05 823.39 1376.91 824.72 1376.79 826.05 C 1375.83 825.45 1374.89 824.86 1373.96 824.28 C 1370.51 829.67 1367.18 835.16 1364.64 841.05 C 1361.92 840.15 1359.25 838.89 1356.37 838.74 C 1353.69 840.19 1352.13 842.90 1350.30 845.22 C 1352.66 847.24 1354.58 849.54 1354.66 853.01 C 1350.87 852.44 1347.14 851.31 1343.33 851.27 C 1340.70 853.96 1338.70 857.20 1336.77 860.41 C 1332.13 858.23 1330.50 852.48 1325.30 851.25 C 1322.85 856.99 1319.73 862.99 1322.22 869.41 C 1324.68 868.96 1327.15 868.14 1329.69 868.42 C 1333.08 868.89 1331.99 873.19 1332.65 875.59 C 1336.36 875.30 1339.85 873.67 1343.58 873.54 C 1346.76 874.39 1348.97 877.00 1351.78 878.57 C 1353.61 877.35 1355.13 875.70 1357.06 874.61 C 1359.29 874.88 1361.40 875.83 1363.66 876.05 C 1366.84 874.72 1369.66 872.16 1373.33 872.34 C 1381.04 872.57 1389.03 871.11 1395.04 865.90 C 1397.06 865.62 1399.52 865.82 1401.67 865.35 C 1404.95 863.39 1405.71 858.50 1403.83 855.32 C 1399.63 854.10 1395.25 853.90 1390.96 853.20 C 1390.97 851.54 1391.00 848.21 1391.02 846.55 C 1393.18 846.29 1395.51 846.49 1397.54 845.53 C 1400.54 842.82 1400.60 838.35 1401.29 834.69 C 1398.07 833.00 1394.98 831.10 1392.13 828.86 C 1387.83 825.31 1382.20 824.26 1377.20 822.08 Z" />
</g>
<g id="#007fbfff">
<path fill="#007fbf" opacity="1.00" d=" M 499.81 613.93 C 503.54 614.89 507.29 615.86 510.97 617.05 C 520.85 620.34 531.55 620.64 541.11 625.03 C 548.75 628.63 557.48 631.38 562.73 638.49 C 565.04 643.07 565.89 648.24 567.38 653.13 C 574.12 653.17 580.86 652.78 587.59 652.30 C 588.90 655.80 590.26 659.30 591.60 662.80 C 603.38 661.06 615.60 661.18 626.80 656.71 C 626.94 658.07 627.10 659.46 627.25 660.85 C 625.53 663.55 622.96 666.37 623.69 669.83 C 624.55 675.72 623.82 682.18 619.60 686.70 C 621.97 687.16 624.35 687.95 626.80 687.83 C 631.12 685.35 633.96 680.78 638.58 678.74 C 642.19 677.78 645.97 678.93 649.61 678.10 C 650.07 684.18 649.40 690.50 651.75 696.28 C 650.28 697.83 648.82 699.38 647.37 700.94 C 648.85 701.14 650.33 701.31 651.83 701.48 C 649.75 707.25 648.93 713.37 648.37 719.44 C 648.14 725.29 645.23 730.98 646.59 736.87 C 642.03 738.51 637.43 740.04 633.08 742.19 C 626.75 745.40 619.41 744.55 612.55 744.76 C 609.52 744.73 607.02 746.63 604.57 748.15 C 602.85 747.23 601.26 745.79 599.28 745.61 C 589.98 748.18 584.44 756.38 578.84 763.52 C 573.97 758.60 568.71 754.10 563.68 749.37 C 565.14 748.83 566.61 748.32 568.09 747.80 C 566.38 745.25 564.61 742.66 562.69 740.29 C 560.46 737.78 556.55 736.83 555.33 733.48 C 554.53 731.50 553.85 729.50 553.29 727.47 C 547.15 732.17 539.38 733.70 532.40 736.62 C 525.93 739.81 519.61 743.61 512.40 744.85 C 507.37 745.82 502.16 744.32 497.15 745.52 C 493.26 747.10 489.46 748.94 485.31 749.83 C 485.43 748.00 485.57 746.20 485.71 744.39 C 483.81 744.80 481.91 745.18 480.00 745.55 C 480.50 746.66 481.01 747.80 481.53 748.93 C 479.52 750.23 477.56 751.61 475.63 753.02 C 472.14 746.13 468.10 739.55 463.84 733.12 C 462.25 733.31 460.67 733.52 459.10 733.73 C 453.83 727.66 448.67 721.49 443.19 715.62 C 444.64 711.49 445.97 707.19 448.74 703.72 C 450.39 701.49 452.65 699.64 453.65 696.99 C 453.15 693.43 450.90 690.48 449.05 687.53 C 452.18 678.74 454.28 669.61 457.23 660.74 C 462.14 658.81 464.90 654.01 469.35 651.42 C 474.56 648.48 480.64 648.99 486.37 648.46 C 486.18 644.97 486.33 641.47 487.15 638.07 C 485.36 638.06 483.57 638.06 481.79 638.05 C 486.47 634.82 493.00 633.27 495.75 627.81 C 497.86 623.46 499.06 618.70 499.81 613.93 Z" />
</g>
<g id="#bf3f7ffe">
<path fill="#bf3f7f" opacity="1.00" d=" M 1308.75 629.03 C 1315.62 628.35 1321.27 624.08 1327.63 621.83 C 1328.28 622.78 1328.97 623.75 1329.65 624.73 C 1327.65 627.12 1325.71 629.59 1324.00 632.19 C 1322.07 635.39 1321.57 639.25 1322.04 642.93 C 1325.16 646.24 1329.40 648.60 1331.66 652.68 C 1337.69 662.59 1341.11 673.90 1347.80 683.44 C 1348.78 685.02 1350.76 685.22 1352.42 685.59 C 1359.02 686.64 1365.50 689.20 1370.73 693.41 C 1375.10 697.41 1378.11 704.18 1375.91 709.98 C 1372.48 715.06 1365.51 714.77 1360.51 717.40 C 1353.86 720.01 1351.85 727.47 1347.35 732.37 C 1342.10 738.13 1338.06 745.25 1331.11 749.18 C 1328.79 750.63 1325.89 752.79 1326.77 755.94 C 1328.05 763.86 1336.14 767.29 1340.47 773.26 C 1341.66 773.35 1342.84 773.43 1344.07 773.53 C 1344.23 777.58 1345.12 781.83 1343.72 785.75 C 1341.69 789.51 1337.63 791.54 1335.04 794.87 C 1327.87 802.87 1315.82 803.46 1308.47 811.09 C 1306.27 811.05 1304.01 810.74 1301.87 811.32 C 1298.20 814.52 1297.22 819.66 1294.47 823.55 C 1290.81 829.02 1282.35 829.38 1280.30 836.26 C 1278.65 839.25 1277.92 842.83 1275.47 845.32 C 1270.18 844.83 1264.99 842.93 1259.62 843.55 C 1252.52 843.99 1250.90 853.41 1244.02 854.17 C 1237.72 854.69 1231.41 851.78 1225.14 853.00 C 1222.65 855.81 1221.38 859.71 1221.66 863.45 C 1223.21 865.14 1225.16 866.42 1226.97 867.85 C 1225.17 869.07 1223.36 870.26 1221.57 871.48 C 1221.62 876.80 1221.15 882.16 1219.13 887.13 C 1224.46 889.04 1229.69 891.30 1234.49 894.35 C 1227.12 897.38 1218.85 901.04 1215.70 908.94 C 1213.33 915.46 1209.94 921.51 1205.57 926.94 C 1201.39 927.77 1197.01 927.82 1192.78 927.37 C 1186.54 926.54 1184.85 918.74 1179.06 916.96 C 1173.80 915.86 1168.37 917.39 1163.15 916.54 C 1155.74 913.64 1147.48 912.91 1139.65 914.00 C 1133.19 916.60 1126.53 918.68 1119.98 921.01 C 1115.08 922.56 1112.45 928.96 1106.43 927.15 C 1102.38 926.79 1098.43 929.12 1094.45 927.86 C 1091.25 927.42 1088.76 925.69 1086.35 923.79 C 1077.30 923.77 1069.42 918.02 1062.77 912.55 C 1061.31 902.88 1057.67 893.71 1056.62 883.97 C 1050.31 880.67 1043.10 879.90 1036.15 879.11 C 1027.22 876.72 1019.47 870.43 1009.95 870.23 C 1005.75 869.31 1001.07 870.07 997.40 867.50 C 991.10 863.72 983.67 862.41 977.48 858.45 C 976.64 857.69 975.06 857.06 975.31 855.72 C 975.20 850.85 976.00 845.94 975.35 841.10 C 974.56 836.82 969.92 835.19 966.58 833.35 C 968.24 827.22 971.49 821.71 974.70 816.28 C 973.41 815.11 972.13 813.94 970.87 812.78 C 972.01 811.29 973.18 809.82 974.36 808.36 C 975.77 809.34 977.20 810.32 978.64 811.29 C 978.94 810.81 979.52 809.86 979.82 809.39 C 981.87 806.08 984.10 802.47 987.89 800.97 C 994.65 798.35 999.46 792.54 1006.14 789.74 C 1007.53 794.18 1008.14 799.13 1011.17 802.82 C 1018.33 809.69 1027.25 814.21 1035.51 819.58 C 1041.17 823.41 1044.78 829.67 1050.82 833.02 C 1055.41 834.30 1060.34 832.62 1064.92 833.98 C 1068.42 836.77 1070.81 840.79 1074.57 843.33 C 1078.10 846.22 1083.53 847.47 1085.11 852.23 C 1086.48 856.31 1087.56 860.51 1089.66 864.31 C 1093.54 864.29 1098.30 862.64 1101.73 865.24 C 1103.83 868.74 1103.53 873.03 1104.00 876.96 C 1109.91 872.95 1116.37 869.82 1123.22 867.77 C 1123.37 866.30 1123.52 864.85 1123.68 863.40 C 1132.67 859.74 1141.84 856.21 1150.19 851.21 C 1153.93 849.32 1152.83 844.50 1153.94 841.06 C 1155.72 834.74 1158.06 828.29 1162.22 823.13 C 1164.75 820.53 1168.23 822.45 1171.03 823.43 C 1176.19 816.68 1182.36 810.39 1190.26 806.91 C 1199.10 804.37 1201.07 794.02 1205.15 786.86 C 1202.43 787.86 1199.74 788.91 1197.05 789.99 C 1200.90 781.31 1205.28 772.88 1209.48 764.37 C 1210.77 761.84 1211.24 758.99 1211.09 756.17 C 1210.62 744.45 1211.09 732.69 1209.88 721.01 C 1209.31 716.44 1210.02 711.10 1206.02 707.84 C 1204.28 717.19 1200.80 726.06 1198.38 735.23 C 1198.52 725.56 1196.97 715.79 1193.32 706.81 C 1191.47 700.86 1191.49 694.42 1192.80 688.38 C 1193.52 685.35 1197.15 684.99 1199.55 683.60 C 1193.44 680.66 1189.31 674.96 1183.26 671.91 C 1183.64 669.21 1183.74 666.42 1184.64 663.83 C 1189.57 659.21 1196.51 658.06 1202.67 655.83 C 1206.45 654.37 1205.89 649.47 1208.09 646.62 C 1214.70 647.28 1221.22 649.88 1227.97 648.88 C 1235.19 650.66 1234.98 642.08 1236.88 637.98 C 1243.93 643.35 1254.71 646.77 1262.38 640.68 C 1263.72 643.41 1264.61 647.03 1267.91 648.04 C 1275.37 650.57 1283.70 647.87 1291.06 651.12 C 1293.28 648.95 1295.42 646.33 1298.63 645.69 C 1301.25 644.75 1304.48 644.64 1306.58 642.65 C 1308.48 638.41 1308.51 633.59 1308.75 629.03 Z" />
</g>
<g id="#0000bffe">
<path fill="#0000bf" opacity="1.00" d=" M 730.19 663.35 C 734.88 660.81 739.99 659.25 745.13 657.91 C 744.14 661.99 740.16 666.12 741.97 670.57 C 743.72 675.76 750.83 676.44 752.03 682.11 C 753.85 686.30 754.77 691.02 754.46 695.59 C 748.50 699.85 740.53 700.93 735.79 707.03 C 733.85 708.93 731.88 710.79 729.89 712.62 C 730.40 718.49 730.76 724.56 733.18 730.03 C 728.77 735.45 726.19 742.09 721.65 747.41 C 725.11 749.04 728.65 747.81 731.45 745.50 C 734.16 747.63 737.39 749.26 739.53 752.03 C 738.24 755.19 736.24 758.00 734.65 761.01 C 735.36 763.33 736.32 765.66 736.38 768.12 C 730.70 772.28 725.33 777.41 723.60 784.49 C 725.39 786.98 729.20 789.45 727.93 792.89 C 727.06 794.91 725.55 796.58 724.59 798.56 C 725.70 801.42 728.15 803.49 730.23 805.65 C 728.36 808.10 726.38 810.51 725.07 813.32 C 723.16 817.74 718.45 819.73 715.39 823.19 C 713.24 825.96 710.49 828.16 707.36 829.69 C 707.36 826.72 707.36 823.72 707.44 820.77 C 703.44 818.77 699.48 816.74 695.75 814.29 C 692.72 815.35 689.29 818.30 686.12 816.02 C 682.69 813.83 679.73 810.93 677.13 807.82 C 673.84 803.35 677.94 798.91 678.33 794.37 C 676.57 790.81 673.25 788.38 670.57 785.56 C 673.22 783.83 675.91 782.19 678.62 780.55 C 678.97 779.23 679.33 777.92 679.70 776.62 C 676.81 775.78 673.44 775.56 671.16 773.41 C 668.06 768.48 667.90 762.35 665.44 757.14 C 660.79 748.85 650.36 745.87 646.59 736.87 C 645.23 730.98 648.14 725.29 648.37 719.44 C 648.93 713.37 649.75 707.25 651.83 701.48 C 650.33 701.31 648.85 701.14 647.37 700.94 C 648.82 699.38 650.28 697.83 651.75 696.28 C 649.40 690.50 650.07 684.18 649.61 678.10 C 657.09 674.20 665.66 674.77 673.75 673.44 C 680.13 669.79 686.59 666.06 692.27 661.36 C 696.51 662.84 701.13 662.55 705.34 664.12 C 708.80 665.69 712.23 662.45 715.77 663.24 C 718.33 663.73 720.69 664.94 723.21 665.57 C 725.74 665.93 727.98 664.33 730.19 663.35 Z" />
</g>
<g id="#bfbf7fff">
<path fill="#bfbf7f" opacity="1.00" d=" M 729.89 712.62 C 731.88 710.79 733.85 708.93 735.79 707.03 C 739.72 712.53 742.35 718.76 745.22 724.83 C 753.01 724.00 760.69 722.38 768.36 720.94 C 770.97 723.12 772.44 726.31 774.79 728.73 C 777.08 730.47 779.57 732.08 782.09 733.50 C 781.77 736.52 781.20 739.98 783.49 742.43 C 787.11 746.56 788.44 751.95 790.05 757.06 C 792.68 764.71 787.29 772.57 789.29 780.29 C 790.25 785.07 798.14 785.31 797.61 790.76 C 796.01 796.23 789.68 797.83 784.90 799.51 C 784.92 802.49 785.65 805.98 783.55 808.47 C 780.17 812.51 775.24 814.70 771.08 817.80 C 765.13 821.46 761.49 827.58 757.21 832.89 C 754.05 833.44 750.75 833.76 747.84 835.19 C 743.86 838.75 743.44 844.54 743.85 849.54 C 740.32 851.65 737.30 854.61 733.55 856.36 C 729.61 857.30 725.56 856.00 721.58 856.09 C 721.64 854.75 721.71 853.41 721.79 852.10 C 718.55 853.06 715.28 853.90 712.06 854.90 C 707.89 857.03 705.81 861.59 701.87 864.01 C 695.91 862.38 692.34 856.61 687.95 852.63 C 690.65 850.30 693.31 847.92 695.95 845.52 C 694.30 844.66 692.65 843.80 691.02 842.96 C 692.84 840.23 694.25 837.14 696.63 834.85 C 699.98 832.72 703.84 831.53 707.36 829.69 C 710.49 828.16 713.24 825.96 715.39 823.19 C 718.45 819.73 723.16 817.74 725.07 813.32 C 726.38 810.51 728.36 808.10 730.23 805.65 C 728.15 803.49 725.70 801.42 724.59 798.56 C 725.55 796.58 727.06 794.91 727.93 792.89 C 729.20 789.45 725.39 786.98 723.60 784.49 C 725.33 777.41 730.70 772.28 736.38 768.12 C 736.32 765.66 735.36 763.33 734.65 761.01 C 736.24 758.00 738.24 755.19 739.53 752.03 C 737.39 749.26 734.16 747.63 731.45 745.50 C 728.65 747.81 725.11 749.04 721.65 747.41 C 726.19 742.09 728.77 735.45 733.18 730.03 C 730.76 724.56 730.40 718.49 729.89 712.62 Z" />
</g>
<g id="#7f00bfff">
<path fill="#7f00bf" opacity="1.00" d=" M 532.40 736.62 C 539.38 733.70 547.15 732.17 553.29 727.47 C 553.85 729.50 554.53 731.50 555.33 733.48 C 556.55 736.83 560.46 737.78 562.69 740.29 C 564.61 742.66 566.38 745.25 568.09 747.80 C 566.61 748.32 565.14 748.83 563.68 749.37 C 568.71 754.10 573.97 758.60 578.84 763.52 C 584.44 756.38 589.98 748.18 599.28 745.61 C 601.26 745.79 602.85 747.23 604.57 748.15 C 607.02 746.63 609.52 744.73 612.55 744.76 C 619.41 744.55 626.75 745.40 633.08 742.19 C 637.43 740.04 642.03 738.51 646.59 736.87 C 650.36 745.87 660.79 748.85 665.44 757.14 C 667.90 762.35 668.06 768.48 671.16 773.41 C 673.44 775.56 676.81 775.78 679.70 776.62 C 679.33 777.92 678.97 779.23 678.62 780.55 C 675.91 782.19 673.22 783.83 670.57 785.56 C 673.25 788.38 676.57 790.81 678.33 794.37 C 677.94 798.91 673.84 803.35 677.13 807.82 C 673.75 808.82 669.42 808.78 666.92 811.68 C 664.50 816.07 664.39 821.15 664.33 826.03 C 660.55 826.52 656.84 827.50 653.53 829.45 C 649.46 828.36 645.30 827.66 641.10 827.40 C 640.73 830.69 640.51 834.41 637.70 836.67 C 632.66 841.38 627.15 846.56 619.98 847.41 C 611.71 848.48 603.85 851.39 595.93 853.82 C 592.43 855.55 589.76 858.52 586.73 860.93 C 590.49 862.73 594.38 864.45 597.72 866.96 C 599.65 870.61 597.15 875.36 593.32 876.48 C 590.67 876.94 587.96 876.77 585.31 876.76 C 583.05 876.20 580.82 875.17 578.68 874.50 C 575.85 875.67 572.87 876.35 569.82 876.58 C 566.57 876.48 564.85 879.78 562.50 881.47 C 558.10 880.79 553.55 880.53 549.46 878.63 C 546.20 876.98 542.44 878.42 539.08 878.66 C 530.74 872.89 523.92 865.29 518.45 856.79 C 517.22 859.66 516.95 863.21 514.67 865.51 C 510.95 867.43 506.89 868.64 503.16 870.56 C 498.99 866.16 493.67 862.80 490.13 857.86 C 487.33 847.12 487.27 835.95 485.98 825.00 C 483.53 800.89 480.79 776.72 475.63 753.02 C 477.56 751.61 479.52 750.23 481.53 748.93 C 481.01 747.80 480.50 746.66 480.00 745.55 C 481.91 745.18 483.81 744.80 485.71 744.39 C 485.57 746.20 485.43 748.00 485.31 749.83 C 489.46 748.94 493.26 747.10 497.15 745.52 C 502.16 744.32 507.37 745.82 512.40 744.85 C 519.61 743.61 525.93 739.81 532.40 736.62 Z" />
</g>
<g id="#bfbf00ff">
<path fill="#bfbf00" opacity="1.00" d=" M 1086.39 770.51 C 1090.27 766.68 1095.31 764.47 1099.96 761.76 C 1100.78 766.05 1100.73 770.61 1102.44 774.68 C 1105.80 778.68 1111.71 779.81 1114.05 784.86 C 1120.42 784.53 1126.55 782.43 1132.98 782.48 C 1133.37 779.85 1133.78 777.22 1134.28 774.62 C 1136.27 777.82 1137.67 781.40 1137.70 785.22 C 1139.64 784.29 1141.52 783.18 1143.58 782.52 C 1145.59 784.51 1147.25 786.83 1149.06 789.01 C 1143.77 793.51 1140.27 800.02 1139.88 807.00 C 1133.86 812.51 1128.91 819.03 1123.05 824.69 C 1118.05 816.70 1109.40 812.00 1104.43 804.01 C 1106.48 803.11 1108.55 802.22 1110.59 801.27 C 1105.27 799.84 1098.59 799.38 1094.17 803.19 C 1094.29 806.99 1095.48 810.66 1096.06 814.41 C 1093.08 812.10 1090.91 809.03 1088.92 805.88 C 1087.18 803.12 1082.88 803.44 1080.98 801.07 C 1079.40 797.43 1078.55 793.52 1077.10 789.83 C 1075.39 791.25 1073.69 792.69 1072.00 794.13 C 1070.87 793.05 1069.76 791.98 1068.63 790.93 C 1068.06 794.95 1066.97 798.85 1066.00 802.80 C 1059.59 802.31 1055.56 796.88 1049.67 795.13 C 1053.42 790.42 1062.19 789.24 1061.79 781.91 C 1060.46 777.36 1056.30 774.22 1053.11 770.92 C 1054.48 769.11 1055.83 767.28 1057.14 765.42 C 1058.17 765.99 1059.21 766.57 1060.28 767.14 C 1060.62 765.89 1060.94 764.62 1061.31 763.39 C 1064.90 768.21 1070.02 770.61 1075.73 771.40 C 1077.51 774.57 1078.87 778.45 1083.24 778.64 C 1082.32 776.59 1081.34 774.60 1080.33 772.62 C 1082.44 772.30 1084.78 772.13 1086.39 770.51 Z" />
</g>
<g id="#3fbf7ffe">
<path fill="#3fbf7f" opacity="1.00" d=" M 920.20 777.60 C 928.76 783.38 936.53 790.78 946.63 793.78 C 950.80 795.75 953.91 799.34 957.00 802.66 C 962.11 801.79 967.27 801.16 972.43 800.64 C 972.46 805.12 976.37 807.44 979.82 809.39 C 979.52 809.86 978.94 810.81 978.64 811.29 C 977.20 810.32 975.77 809.34 974.36 808.36 C 973.18 809.82 972.01 811.29 970.87 812.78 C 972.13 813.94 973.41 815.11 974.70 816.28 C 971.49 821.71 968.24 827.22 966.58 833.35 C 969.92 835.19 974.56 836.82 975.35 841.10 C 976.00 845.94 975.20 850.85 975.31 855.72 C 974.24 855.54 973.18 855.38 972.13 855.23 C 970.61 859.04 969.15 862.88 967.68 866.72 C 964.63 868.32 961.32 869.50 958.62 871.66 C 956.56 874.33 956.05 877.82 954.85 880.90 C 952.66 881.78 949.67 882.58 949.44 885.40 C 949.15 890.44 948.79 896.09 951.35 900.67 C 953.15 903.18 956.28 904.08 958.95 905.38 C 957.59 915.79 959.58 928.40 951.49 936.57 C 944.46 940.35 937.79 944.69 932.05 950.29 C 929.22 948.01 926.52 945.55 923.47 943.61 C 918.80 941.35 913.45 942.38 908.47 941.81 C 902.17 940.25 895.34 936.95 888.99 939.95 C 883.54 942.39 875.98 943.16 871.61 938.33 C 868.99 935.14 864.44 936.64 860.98 936.67 C 857.73 931.86 855.17 926.67 853.94 920.99 C 853.17 918.10 852.17 912.41 847.03 914.96 C 839.68 914.38 832.36 913.48 824.99 913.70 C 819.86 914.02 819.33 907.81 817.49 904.39 C 815.58 905.80 813.76 907.33 811.97 908.88 C 809.35 906.13 806.76 903.35 804.16 900.58 C 802.95 903.04 801.80 905.53 800.70 908.05 C 796.63 908.18 791.91 905.53 788.09 908.02 C 784.45 910.21 781.49 913.46 777.65 915.30 C 771.85 916.30 765.89 915.33 760.04 915.55 C 760.13 918.13 760.68 921.23 760.94 923.94 C 755.75 925.54 749.69 926.12 746.37 930.97 C 740.34 931.00 734.41 932.41 728.61 933.92 C 726.05 928.14 722.84 922.56 721.54 916.34 C 720.98 913.17 718.47 911.04 716.17 909.06 C 718.53 906.34 720.79 903.53 722.77 900.53 C 723.99 902.27 724.91 905.24 727.61 904.64 C 730.48 904.98 732.61 901.59 730.77 899.29 C 727.27 894.76 724.18 889.95 721.29 885.02 C 717.95 880.09 713.93 875.00 713.95 868.74 C 713.99 864.04 713.96 859.29 712.06 854.90 C 715.28 853.90 718.55 853.06 721.79 852.10 C 721.71 853.41 721.64 854.75 721.58 856.09 C 725.56 856.00 729.61 857.30 733.55 856.36 C 737.30 854.61 740.32 851.65 743.85 849.54 C 743.44 844.54 743.86 838.75 747.84 835.19 C 750.75 833.76 754.05 833.44 757.21 832.89 C 759.75 836.52 761.81 840.59 764.99 843.72 C 770.79 846.24 777.41 845.59 783.35 847.68 C 787.80 848.91 792.10 851.66 796.90 851.22 C 801.44 850.90 805.98 850.39 810.49 849.70 C 817.46 849.57 821.80 843.61 827.22 840.19 C 830.85 837.45 836.15 836.82 838.45 832.49 C 842.37 825.80 846.20 819.00 851.12 812.96 C 853.75 809.88 857.95 809.04 861.29 807.01 C 863.76 801.86 865.80 796.49 867.05 790.92 C 878.30 790.19 889.33 787.27 900.63 787.20 C 904.89 784.30 910.11 784.79 914.98 785.05 C 915.51 783.10 916.06 781.16 916.63 779.23 C 917.81 778.69 919.00 778.14 920.20 777.60 Z" />
</g>
<g id="#7f7f3ffe">
<path fill="#7f7f3f" opacity="1.00" d=" M 666.92 811.68 C 669.42 808.78 673.75 808.82 677.13 807.82 C 679.73 810.93 682.69 813.83 686.12 816.02 C 689.29 818.30 692.72 815.35 695.75 814.29 C 699.48 816.74 703.44 818.77 707.44 820.77 C 707.36 823.72 707.36 826.72 707.36 829.69 C 703.84 831.53 699.98 832.72 696.63 834.85 C 694.25 837.14 692.84 840.23 691.02 842.96 C 692.65 843.80 694.30 844.66 695.95 845.52 C 693.31 847.92 690.65 850.30 687.95 852.63 C 692.34 856.61 695.91 862.38 701.87 864.01 C 705.81 861.59 707.89 857.03 712.06 854.90 C 713.96 859.29 713.99 864.04 713.95 868.74 C 713.93 875.00 717.95 880.09 721.29 885.02 C 724.18 889.95 727.27 894.76 730.77 899.29 C 732.61 901.59 730.48 904.98 727.61 904.64 C 724.91 905.24 723.99 902.27 722.77 900.53 C 720.79 903.53 718.53 906.34 716.17 909.06 C 718.47 911.04 720.98 913.17 721.54 916.34 C 722.84 922.56 726.05 928.14 728.61 933.92 C 729.73 936.55 730.54 939.31 731.38 942.06 C 726.81 943.45 722.21 944.79 717.53 945.75 C 715.92 947.58 714.53 950.13 711.90 950.53 C 710.15 949.95 708.62 948.90 707.01 948.05 C 706.79 949.06 706.57 950.08 706.37 951.11 C 701.00 949.03 694.55 947.51 689.12 950.11 C 686.15 951.23 686.91 954.63 687.20 957.07 C 681.11 960.16 674.36 961.27 667.70 962.34 C 664.67 963.00 663.01 959.49 661.10 957.90 C 655.56 951.50 649.43 945.49 645.17 938.12 C 642.44 939.48 639.76 940.95 636.97 942.18 C 631.54 941.27 627.07 937.68 621.64 936.82 C 614.67 936.07 610.27 929.87 605.97 925.00 C 602.02 920.90 605.06 914.20 600.71 910.26 C 596.96 905.07 591.96 900.99 587.85 896.14 C 585.54 893.54 586.78 889.89 586.81 886.80 C 587.32 883.36 586.25 880.01 585.31 876.76 C 587.96 876.77 590.67 876.94 593.32 876.48 C 597.15 875.36 599.65 870.61 597.72 866.96 C 594.38 864.45 590.49 862.73 586.73 860.93 C 589.76 858.52 592.43 855.55 595.93 853.82 C 603.85 851.39 611.71 848.48 619.98 847.41 C 627.15 846.56 632.66 841.38 637.70 836.67 C 640.51 834.41 640.73 830.69 641.10 827.40 C 645.30 827.66 649.46 828.36 653.53 829.45 C 656.84 827.50 660.55 826.52 664.33 826.03 C 664.39 821.15 664.50 816.07 666.92 811.68 Z" />
</g>
<g id="#3f3f00ff">
<path fill="#3f3f00" opacity="1.00" d=" M 1377.20 822.08 C 1382.20 824.26 1387.83 825.31 1392.13 828.86 C 1394.98 831.10 1398.07 833.00 1401.29 834.69 C 1400.60 838.35 1400.54 842.82 1397.54 845.53 C 1395.51 846.49 1393.18 846.29 1391.02 846.55 C 1391.00 848.21 1390.97 851.54 1390.96 853.20 C 1395.25 853.90 1399.63 854.10 1403.83 855.32 C 1405.71 858.50 1404.95 863.39 1401.67 865.35 C 1399.52 865.82 1397.06 865.62 1395.04 865.90 C 1389.03 871.11 1381.04 872.57 1373.33 872.34 C 1369.66 872.16 1366.84 874.72 1363.66 876.05 C 1361.40 875.83 1359.29 874.88 1357.06 874.61 C 1355.13 875.70 1353.61 877.35 1351.78 878.57 C 1348.97 877.00 1346.76 874.39 1343.58 873.54 C 1339.85 873.67 1336.36 875.30 1332.65 875.59 C 1331.99 873.19 1333.08 868.89 1329.69 868.42 C 1327.15 868.14 1324.68 868.96 1322.22 869.41 C 1319.73 862.99 1322.85 856.99 1325.30 851.25 C 1330.50 852.48 1332.13 858.23 1336.77 860.41 C 1338.70 857.20 1340.70 853.96 1343.33 851.27 C 1347.14 851.31 1350.87 852.44 1354.66 853.01 C 1354.58 849.54 1352.66 847.24 1350.30 845.22 C 1352.13 842.90 1353.69 840.19 1356.37 838.74 C 1359.25 838.89 1361.92 840.15 1364.64 841.05 C 1367.18 835.16 1370.51 829.67 1373.96 824.28 C 1374.89 824.86 1375.83 825.45 1376.79 826.05 C 1376.91 824.72 1377.05 823.39 1377.20 822.08 Z" />
</g>
</svg>
