<?xml version="1.0" encoding="UTF-8" ?>
<!DOCTYPE svg PUBLIC "-//W3C//DTD SVG 1.1//EN" "http://www.w3.org/Graphics/SVG/1.1/DTD/svg11.dtd">
<svg width="1920pt" height="1080pt" viewBox="0 0 1920 1080" version="1.1" xmlns="http://www.w3.org/2000/svg">
<g target="14" id="#9f3f00fe">
<path fill="#9f3f00" opacity="0.00" d=" M 1018.44 117.41 C 1019.93 117.21 1021.44 117.02 1022.97 116.83 C 1022.65 121.23 1022.50 125.64 1022.12 130.04 C 1029.32 131.74 1036.75 132.06 1044.11 132.65 C 1043.51 143.42 1042.88 154.20 1041.45 164.90 C 1045.24 165.56 1049.12 166.06 1052.79 167.31 C 1057.76 168.87 1060.26 174.90 1066.02 174.78 C 1070.78 175.90 1075.84 176.42 1080.20 178.84 C 1084.59 180.96 1088.71 184.48 1093.98 183.88 C 1105.45 183.14 1116.54 179.48 1128.07 179.25 C 1141.50 177.98 1154.78 181.12 1167.52 185.05 C 1168.07 183.39 1168.66 181.73 1169.25 180.07 C 1170.03 180.46 1170.84 180.84 1171.67 181.21 C 1170.85 185.90 1172.44 190.35 1174.85 194.31 C 1175.92 189.34 1177.02 184.35 1178.78 179.57 C 1178.14 185.24 1177.03 190.85 1176.38 196.52 C 1178.82 191.65 1179.33 186.16 1180.24 180.86 C 1180.70 181.23 1181.62 181.99 1182.08 182.36 C 1181.28 186.95 1180.64 191.56 1179.82 196.14 C 1182.10 196.51 1184.42 196.81 1186.79 197.05 C 1187.85 192.09 1187.71 186.56 1190.72 182.26 C 1190.16 187.13 1188.71 191.87 1188.28 196.76 C 1189.64 198.34 1191.37 199.53 1192.95 200.90 C 1194.84 199.66 1196.68 198.35 1198.62 197.16 C 1199.21 197.95 1199.81 198.75 1200.43 199.55 C 1201.63 198.73 1202.81 197.87 1204.05 197.07 L 1204.60 197.48 C 1212.36 202.82 1220.29 208.54 1224.92 216.99 C 1219.01 216.26 1212.97 215.14 1207.09 216.68 C 1199.69 218.67 1191.92 219.25 1184.67 221.78 C 1181.56 222.87 1184.69 225.91 1185.46 227.78 C 1184.07 228.12 1182.70 228.47 1181.34 228.83 C 1185.89 236.24 1195.08 236.41 1202.15 239.88 C 1206.44 241.54 1204.28 246.78 1205.45 250.20 C 1206.50 251.71 1207.66 253.16 1208.89 254.55 C 1206.46 254.66 1203.81 254.41 1201.52 254.90 C 1199.22 255.93 1197.41 257.80 1195.08 258.74 C 1191.44 258.03 1188.42 255.14 1184.59 255.37 C 1176.93 255.89 1169.27 255.25 1161.63 255.05 C 1159.19 254.86 1156.90 255.74 1154.74 256.72 C 1156.06 257.65 1157.44 258.57 1158.80 259.49 C 1158.76 260.03 1158.67 261.12 1158.62 261.66 C 1155.22 261.50 1151.76 261.50 1148.39 261.38 C 1149.42 264.61 1150.43 267.85 1151.48 271.08 C 1148.21 271.99 1144.90 272.74 1141.60 273.45 C 1140.93 277.79 1144.11 280.71 1147.25 283.08 C 1145.84 285.00 1144.49 286.98 1143.44 289.12 C 1135.76 288.87 1128.31 290.75 1120.75 291.68 C 1120.47 292.75 1120.18 293.82 1119.93 294.90 C 1115.30 293.91 1112.15 290.26 1108.23 288.02 C 1104.94 288.13 1101.95 290.40 1098.57 290.18 C 1092.89 289.83 1087.09 288.30 1081.57 290.36 C 1082.97 291.71 1084.42 293.03 1085.87 294.35 C 1085.03 296.48 1084.33 298.66 1083.76 300.88 C 1076.66 295.36 1067.20 296.94 1058.89 296.80 C 1055.61 298.95 1052.37 301.39 1049.86 304.43 C 1047.90 308.18 1046.11 312.34 1046.11 316.63 C 1047.52 320.78 1049.79 324.61 1051.24 328.78 C 1047.73 332.37 1045.26 336.78 1042.19 340.71 C 1039.43 344.20 1035.86 348.05 1031.00 347.76 C 1030.53 346.64 1029.60 344.41 1029.13 343.30 C 1024.44 344.30 1020.29 341.36 1016.32 339.35 C 1015.77 340.99 1015.23 342.62 1014.69 344.26 C 1004.34 344.72 993.52 342.37 985.44 335.54 C 981.06 331.76 974.33 330.98 969.50 334.40 C 968.31 337.24 967.53 340.22 966.77 343.20 C 965.59 343.29 964.43 343.39 963.29 343.51 C 961.83 347.24 959.92 351.19 956.14 353.05 C 951.46 355.40 946.19 356.28 941.37 358.28 C 937.16 360.67 933.74 364.17 930.65 367.85 C 932.32 369.33 933.92 370.90 935.53 372.46 C 931.20 379.75 930.14 388.13 929.93 396.44 C 926.84 395.03 923.20 393.46 919.84 394.93 C 916.29 396.76 913.98 400.31 910.34 402.01 C 905.43 404.27 899.70 405.64 894.46 403.52 C 890.32 402.69 886.55 400.05 882.22 400.31 C 877.49 402.02 875.00 406.93 870.79 409.43 C 861.22 407.49 851.48 406.50 841.73 405.97 C 837.39 406.04 832.40 405.64 828.98 408.86 C 824.98 412.44 820.32 415.51 817.77 420.38 C 816.32 423.49 811.67 422.97 810.57 426.26 C 809.37 429.08 808.31 431.96 807.38 434.88 C 803.77 432.84 799.87 431.22 795.67 431.14 C 798.71 435.54 802.16 439.66 805.21 444.07 C 797.60 447.26 792.43 455.19 783.74 455.62 C 787.70 458.97 792.37 462.20 794.20 467.28 C 793.07 470.57 790.99 473.45 789.74 476.71 C 786.17 476.88 782.05 475.64 778.88 477.58 C 774.50 483.65 768.73 489.69 768.85 497.67 C 759.91 495.16 750.50 497.47 741.44 495.77 C 737.41 495.73 731.99 494.41 729.44 498.34 C 727.93 499.75 726.70 502.30 724.25 501.89 C 716.82 501.23 711.16 494.54 703.41 495.33 C 700.01 495.32 696.67 498.22 693.33 496.55 C 691.14 495.74 688.89 494.44 686.49 495.11 C 680.26 496.63 673.81 496.47 667.47 496.02 C 666.83 494.74 666.35 493.38 665.51 492.23 C 657.51 488.05 647.79 489.51 639.81 485.41 C 636.18 481.96 636.08 476.41 633.34 472.39 C 631.54 470.76 628.88 470.82 626.63 470.35 C 620.94 469.57 615.86 466.17 610.02 466.27 C 606.31 461.82 601.54 458.16 595.40 458.30 C 594.96 456.51 594.54 454.71 594.12 452.92 C 590.51 452.09 586.96 450.98 583.29 450.48 C 576.39 449.81 569.54 451.47 563.06 453.69 C 561.08 450.17 563.92 447.08 564.53 443.71 C 563.60 439.12 560.87 434.36 562.82 429.65 C 565.66 425.12 570.29 421.77 572.20 416.64 C 572.78 413.82 571.80 410.96 571.32 408.20 C 574.64 403.55 577.64 398.50 578.54 392.77 C 576.41 393.94 574.36 395.23 572.29 396.50 C 568.82 394.31 562.62 396.58 561.37 391.62 C 557.59 385.68 560.98 379.15 565.72 375.22 C 562.43 373.59 559.63 371.03 556.21 369.73 C 552.14 369.47 547.88 370.29 544.35 372.38 C 539.69 375.16 534.24 376.36 529.86 379.62 C 522.81 383.82 514.76 385.88 507.37 389.35 C 503.37 390.87 501.93 396.31 497.25 396.32 C 490.86 396.76 484.30 398.36 479.86 403.29 C 478.46 399.31 476.61 395.40 473.89 392.14 C 470.10 391.01 465.95 390.90 462.02 391.14 C 456.25 393.09 450.81 397.10 444.39 395.23 C 441.85 389.45 437.39 383.20 441.19 377.00 C 446.38 371.82 453.52 368.98 458.68 363.69 C 467.50 355.05 479.30 350.65 489.30 343.65 C 488.39 341.36 487.34 339.14 486.32 336.91 C 489.93 333.29 492.23 328.67 494.17 323.99 C 497.60 323.00 500.98 321.83 504.12 320.11 C 503.57 317.48 503.00 314.86 502.43 312.24 C 506.66 308.80 513.86 307.70 515.14 301.66 C 514.02 297.63 511.48 294.08 510.57 289.94 C 513.85 288.19 517.28 286.56 521.05 286.29 C 518.84 283.09 515.68 280.75 511.45 281.33 C 508.28 281.07 507.35 277.27 506.08 274.90 C 505.56 272.92 503.26 269.67 506.04 268.42 C 510.08 266.49 513.53 263.58 517.59 261.69 C 523.84 258.84 530.30 256.44 536.78 254.17 C 536.35 252.91 535.94 251.65 535.54 250.39 C 542.76 245.46 547.04 237.41 554.66 232.93 C 554.16 231.57 553.69 230.22 553.19 228.87 C 559.21 227.25 565.37 226.13 571.27 224.07 C 581.50 217.13 591.70 210.08 601.40 202.42 C 603.36 199.49 604.76 196.21 606.21 193.00 C 617.49 191.94 628.73 190.38 640.07 189.78 C 643.68 189.88 645.83 186.49 648.86 185.09 C 654.31 182.68 660.00 180.87 665.66 178.99 C 673.46 177.34 681.66 177.73 689.32 175.31 C 691.51 173.85 692.47 171.16 694.29 169.29 C 696.36 166.66 699.71 164.75 700.27 161.19 C 702.48 150.57 713.43 144.65 723.29 142.78 C 728.12 143.26 733.07 144.35 737.80 142.54 C 737.98 143.64 738.17 144.74 738.36 145.85 C 747.74 145.96 757.35 144.00 766.53 146.77 C 766.66 145.16 766.92 143.57 767.20 141.98 C 767.95 143.38 768.71 144.80 769.45 146.23 C 772.81 147.07 777.52 147.35 777.90 152.06 C 781.73 152.97 785.27 154.79 789.12 155.63 C 794.17 155.90 799.21 154.88 804.24 154.47 C 805.03 155.35 805.83 156.23 806.64 157.11 C 810.71 154.39 812.32 149.48 816.01 146.40 C 819.94 146.14 823.97 146.51 827.81 145.32 C 832.42 151.69 840.93 149.82 847.66 150.34 C 853.32 150.22 857.94 153.87 862.62 156.53 C 863.56 166.49 864.01 176.50 865.23 186.44 C 872.64 184.35 877.56 178.01 882.84 172.86 C 885.13 170.48 888.52 170.19 891.64 169.75 C 892.53 172.06 893.06 174.54 894.38 176.68 C 903.71 180.29 912.65 173.73 922.07 174.42 C 921.66 164.02 921.14 153.63 920.91 143.23 C 922.19 143.39 923.49 143.55 924.80 143.71 C 924.92 137.85 925.46 132.01 926.07 126.19 C 930.82 129.05 929.14 135.53 929.89 140.03 C 929.80 146.86 931.20 154.08 928.64 160.63 C 926.71 165.66 926.86 171.07 927.50 176.32 C 931.78 175.86 936.12 176.44 940.42 175.94 C 942.12 175.01 943.15 173.26 944.39 171.82 C 946.78 173.84 949.44 175.48 952.10 177.11 C 952.07 175.34 952.01 171.79 951.98 170.01 C 946.43 168.19 940.97 166.06 936.00 162.99 C 936.18 152.97 935.66 142.97 935.23 132.98 C 934.93 127.89 940.25 125.56 944.26 124.15 C 951.34 121.28 958.32 126.04 965.10 127.83 C 966.06 125.50 967.74 122.43 970.79 123.51 C 980.26 126.43 990.50 125.52 999.85 129.03 C 999.02 139.70 999.09 150.41 998.51 161.09 C 1001.06 161.29 1003.08 161.59 1005.79 162.06 C 1006.93 150.80 1006.43 139.44 1007.66 128.20 C 1010.37 130.22 1013.61 131.40 1016.95 130.19 C 1017.26 125.91 1018.00 121.68 1018.44 117.41 Z" />
<path fill="#9f3f00" opacity="0.00" d=" M 1068.30 116.88 C 1069.87 117.09 1069.87 120.91 1068.30 121.12 C 1067.30 120.02 1067.30 117.97 1068.30 116.88 Z" />
<path fill="#9f3f00" opacity="0.00" d=" M 1047.32 153.79 C 1048.41 143.05 1047.22 131.72 1050.42 121.32 C 1050.82 129.60 1049.91 137.86 1049.37 146.11 C 1049.54 148.89 1049.18 151.69 1047.32 153.79 Z" />
<path fill="#9f3f00" opacity="0.00" d=" M 1066.24 140.90 C 1067.95 140.65 1067.95 144.35 1066.24 144.10 C 1065.21 143.41 1065.21 141.58 1066.24 140.90 Z" />
<path fill="#9f4000" opacity="0.00" d=" M 1067.24 129.90 C 1068.95 129.65 1068.95 133.35 1067.24 133.10 C 1066.21 132.41 1066.21 130.58 1067.24 129.90 Z" />
<path fill="#9f4000" opacity="0.00" d=" M 766.14 138.53 C 767.31 137.59 768.67 139.65 767.46 140.46 C 766.26 141.42 764.92 139.34 766.14 138.53 Z" />
</g>
<g target="82" id="#9fbf7fff">
<path fill="#9fbf7f" opacity="0.00" d=" M 1314.01 161.63 C 1321.83 161.93 1329.65 163.08 1337.21 165.22 C 1335.79 173.57 1331.61 181.26 1330.98 189.76 C 1337.90 181.96 1337.72 170.43 1342.80 161.52 C 1341.30 170.88 1337.25 179.59 1334.97 188.76 C 1344.02 189.71 1353.18 190.50 1361.96 193.12 C 1371.51 195.97 1381.53 196.82 1391.07 199.78 C 1408.60 204.88 1427.17 206.55 1443.92 214.17 C 1453.80 219.69 1465.29 213.78 1475.66 217.36 C 1485.45 220.85 1495.45 223.67 1505.57 226.10 C 1505.57 227.23 1505.58 228.36 1505.63 229.50 C 1507.34 231.64 1511.47 232.78 1511.19 236.07 C 1511.11 237.85 1510.68 239.59 1510.36 241.34 C 1512.99 243.37 1515.68 245.42 1517.96 247.89 C 1522.15 249.93 1525.97 252.66 1530.17 254.71 C 1525.82 265.48 1520.20 275.66 1514.67 285.85 C 1510.16 285.95 1505.63 285.54 1501.47 283.71 C 1494.18 280.39 1486.22 280.62 1478.53 279.22 C 1487.50 285.32 1497.87 289.01 1506.83 295.12 C 1509.03 297.65 1509.98 300.98 1511.59 303.89 C 1506.78 313.18 1501.81 322.38 1496.94 331.63 C 1489.49 330.18 1481.94 328.96 1474.34 329.21 C 1471.30 331.18 1469.45 334.46 1467.10 337.12 C 1468.23 330.48 1471.26 324.43 1474.15 318.42 C 1468.92 315.51 1463.64 312.71 1458.81 309.18 C 1456.37 307.37 1453.16 306.09 1450.21 307.45 C 1443.50 310.49 1436.11 311.25 1429.28 313.85 C 1424.97 315.16 1420.62 316.97 1416.03 316.63 C 1411.21 314.82 1407.56 310.82 1402.74 309.01 C 1395.27 305.93 1387.15 305.33 1379.26 304.05 C 1379.47 299.60 1379.98 295.12 1382.33 291.22 C 1373.21 285.30 1362.77 281.35 1351.88 280.55 C 1346.44 279.98 1341.69 276.68 1336.26 276.25 C 1330.44 276.60 1324.13 278.19 1318.58 275.61 C 1314.45 273.70 1309.88 273.17 1305.40 273.75 C 1298.43 273.41 1290.91 270.55 1284.46 274.60 C 1285.63 275.46 1286.84 276.29 1288.09 277.07 C 1283.41 276.65 1278.70 276.55 1274.09 275.74 C 1268.94 274.66 1264.39 271.69 1259.18 270.90 C 1252.53 269.79 1245.68 269.04 1239.60 265.97 C 1233.45 263.00 1226.44 263.03 1220.11 260.80 C 1216.68 259.52 1215.88 255.71 1216.06 252.47 C 1212.51 251.66 1208.97 251.06 1205.45 250.20 C 1204.28 246.78 1206.44 241.54 1202.15 239.88 C 1195.08 236.41 1185.89 236.24 1181.34 228.83 C 1182.70 228.47 1184.07 228.12 1185.46 227.78 C 1184.69 225.91 1181.56 222.87 1184.67 221.78 C 1191.92 219.25 1199.69 218.67 1207.09 216.68 C 1212.97 215.14 1219.01 216.26 1224.92 216.99 C 1220.29 208.54 1212.36 202.82 1204.60 197.48 C 1210.67 196.54 1216.82 194.98 1223.00 195.89 C 1232.16 197.15 1241.40 196.53 1250.63 196.84 C 1251.40 194.18 1252.23 191.53 1253.05 188.88 C 1258.53 189.16 1264.71 188.81 1269.24 192.57 C 1270.05 190.42 1270.71 188.21 1271.48 186.05 C 1282.31 186.18 1293.13 187.95 1303.97 187.55 C 1306.52 187.39 1306.79 184.29 1307.56 182.43 C 1309.36 175.38 1311.54 168.46 1314.01 161.63 Z" />
</g>
<g target="51" id="#9fbf00ff">
<path fill="#9fbf00" opacity="0.00" d=" M 1205.45 250.20 C 1208.97 251.06 1212.51 251.66 1216.06 252.47 C 1215.88 255.71 1216.68 259.52 1220.11 260.80 C 1226.44 263.03 1233.45 263.00 1239.60 265.97 C 1245.68 269.04 1252.53 269.79 1259.18 270.90 C 1264.39 271.69 1268.94 274.66 1274.09 275.74 C 1278.70 276.55 1283.41 276.65 1288.09 277.07 C 1290.65 278.70 1293.40 280.14 1295.53 282.35 C 1295.82 284.79 1293.77 286.58 1292.53 288.42 C 1295.29 291.03 1297.97 293.71 1300.64 296.42 C 1303.32 299.03 1303.72 302.95 1305.17 306.24 C 1303.98 307.46 1302.74 308.63 1301.58 309.84 C 1308.30 313.57 1316.02 316.87 1319.29 324.42 C 1317.42 325.64 1315.61 326.91 1313.78 328.15 C 1315.39 328.61 1317.03 329.01 1318.66 329.49 C 1319.99 332.39 1322.10 334.80 1324.54 336.84 C 1321.72 347.11 1317.89 357.10 1313.97 366.99 C 1311.04 372.72 1307.31 378.04 1305.08 384.13 C 1303.71 388.19 1299.03 389.21 1296.00 391.70 C 1295.35 388.44 1294.58 385.21 1294.19 381.91 C 1291.80 382.20 1289.58 383.10 1287.54 384.31 C 1286.39 381.73 1284.80 379.38 1282.84 377.35 C 1283.26 372.19 1284.68 366.27 1280.28 362.40 C 1278.08 365.03 1275.70 367.50 1273.13 369.76 C 1270.33 367.63 1267.58 364.81 1263.96 364.35 C 1258.81 365.27 1254.19 368.05 1249.04 368.94 C 1245.33 369.46 1239.44 367.90 1237.64 372.51 C 1235.47 379.80 1229.76 385.51 1228.65 393.17 C 1233.28 394.97 1240.18 393.99 1241.96 399.88 C 1243.07 403.67 1240.72 407.37 1239.96 410.96 C 1237.60 416.75 1237.37 423.45 1234.00 428.78 C 1230.36 430.80 1225.83 430.33 1221.84 429.74 C 1220.31 431.40 1218.58 433.59 1216.06 433.38 C 1212.44 432.53 1208.94 431.16 1205.44 429.98 C 1203.50 432.03 1201.24 433.71 1198.62 434.78 C 1198.17 435.79 1197.73 436.82 1197.31 437.85 C 1193.43 437.44 1189.59 436.88 1185.72 436.51 C 1180.11 442.78 1169.52 441.93 1164.75 435.13 C 1165.77 431.38 1166.48 427.56 1167.24 423.75 C 1159.49 420.82 1160.83 428.91 1158.96 433.02 C 1158.45 435.59 1156.16 437.08 1154.32 438.66 C 1155.03 435.06 1155.83 431.48 1156.80 427.94 C 1149.27 422.71 1140.20 420.97 1131.27 419.87 C 1130.24 425.12 1129.35 430.43 1127.76 435.56 C 1127.58 432.38 1127.75 429.33 1127.50 426.19 C 1126.32 428.23 1124.88 430.22 1124.29 432.55 C 1119.41 433.14 1115.08 431.69 1110.99 429.22 C 1106.91 430.27 1103.31 433.09 1099.00 433.26 C 1095.53 432.84 1092.23 431.62 1088.81 431.05 C 1090.49 420.08 1090.88 408.64 1096.08 398.57 C 1097.91 395.53 1096.79 391.67 1094.17 389.50 C 1092.17 388.42 1089.80 388.77 1087.63 388.69 C 1084.84 385.20 1081.18 381.45 1076.31 381.85 C 1072.31 382.02 1065.68 382.99 1063.99 378.00 C 1062.09 374.38 1067.94 372.77 1069.89 370.83 C 1072.29 369.25 1075.10 370.74 1077.59 371.29 C 1077.40 368.26 1078.04 365.24 1080.50 363.21 C 1080.83 351.25 1069.43 343.54 1059.26 340.22 C 1054.01 343.54 1047.85 340.88 1042.19 340.71 C 1045.26 336.78 1047.73 332.37 1051.24 328.78 C 1049.79 324.61 1047.52 320.78 1046.11 316.63 C 1046.11 312.34 1047.90 308.18 1049.86 304.43 C 1052.37 301.39 1055.61 298.95 1058.89 296.80 C 1067.20 296.94 1076.66 295.36 1083.76 300.88 C 1084.33 298.66 1085.03 296.48 1085.87 294.35 C 1084.42 293.03 1082.97 291.71 1081.57 290.36 C 1087.09 288.30 1092.89 289.83 1098.57 290.18 C 1101.95 290.40 1104.94 288.13 1108.23 288.02 C 1112.15 290.26 1115.30 293.91 1119.93 294.90 C 1120.18 293.82 1120.47 292.75 1120.75 291.68 C 1128.31 290.75 1135.76 288.87 1143.44 289.12 C 1144.49 286.98 1145.84 285.00 1147.25 283.08 C 1144.11 280.71 1140.93 277.79 1141.60 273.45 C 1144.90 272.74 1148.21 271.99 1151.48 271.08 C 1150.43 267.85 1149.42 264.61 1148.39 261.38 C 1151.76 261.50 1155.22 261.50 1158.62 261.66 C 1158.67 261.12 1158.76 260.03 1158.80 259.49 C 1157.44 258.57 1156.06 257.65 1154.74 256.72 C 1156.90 255.74 1159.19 254.86 1161.63 255.05 C 1169.27 255.25 1176.93 255.89 1184.59 255.37 C 1188.42 255.14 1191.44 258.03 1195.08 258.74 C 1197.41 257.80 1199.22 255.93 1201.52 254.90 C 1203.81 254.41 1206.46 254.66 1208.89 254.55 C 1207.66 253.16 1206.50 251.71 1205.45 250.20 Z" />
</g>
<g target="24" id="#1f3f7fff">
<path fill="#1f3f7f" opacity="0.00" d=" M 1284.46 274.60 C 1290.91 270.55 1298.43 273.41 1305.40 273.75 C 1309.88 273.17 1314.45 273.70 1318.58 275.61 C 1324.13 278.19 1330.44 276.60 1336.26 276.25 C 1341.69 276.68 1346.44 279.98 1351.88 280.55 C 1362.77 281.35 1373.21 285.30 1382.33 291.22 C 1379.98 295.12 1379.47 299.60 1379.26 304.05 C 1387.15 305.33 1395.27 305.93 1402.74 309.01 C 1407.56 310.82 1411.21 314.82 1416.03 316.63 C 1420.62 316.97 1424.97 315.16 1429.28 313.85 C 1436.11 311.25 1443.50 310.49 1450.21 307.45 C 1453.16 306.09 1456.37 307.37 1458.81 309.18 C 1463.64 312.71 1468.92 315.51 1474.15 318.42 C 1471.26 324.43 1468.23 330.48 1467.10 337.12 C 1466.21 343.90 1462.16 349.66 1460.07 356.06 C 1460.19 359.28 1463.95 361.99 1462.30 365.27 C 1458.12 374.45 1453.27 383.30 1448.80 392.34 C 1439.29 389.77 1432.52 380.29 1422.01 381.32 C 1415.86 381.32 1407.82 379.77 1404.10 386.11 C 1399.85 390.22 1402.78 396.34 1400.01 400.98 C 1396.52 408.23 1393.05 415.49 1389.91 422.91 C 1393.15 423.98 1397.09 423.90 1399.75 426.27 C 1401.72 429.83 1399.49 434.10 1399.13 437.87 C 1402.82 442.60 1405.90 447.78 1409.02 452.91 C 1411.73 452.98 1415.32 451.08 1417.40 453.59 C 1420.70 457.28 1423.82 461.20 1426.85 465.14 C 1422.59 474.09 1418.17 482.98 1413.30 491.62 C 1414.23 492.75 1415.17 493.89 1416.13 495.04 C 1414.79 496.49 1413.49 497.97 1412.20 499.46 C 1408.02 497.73 1403.62 498.39 1399.35 499.21 C 1394.75 501.04 1391.50 497.24 1388.30 494.83 C 1382.80 490.86 1376.72 487.74 1370.95 484.20 C 1366.44 481.54 1360.56 481.94 1356.45 478.68 C 1351.36 472.52 1357.98 464.87 1354.24 458.26 C 1347.92 459.11 1341.85 461.07 1336.03 463.60 C 1333.10 461.94 1330.23 459.76 1326.78 459.45 C 1322.53 459.18 1318.34 460.12 1314.16 460.60 C 1315.35 464.13 1316.36 468.17 1319.76 470.27 C 1324.27 473.84 1330.24 473.83 1335.69 474.42 C 1333.22 479.32 1330.59 484.20 1329.26 489.56 C 1321.70 489.18 1313.97 487.61 1306.48 489.45 C 1301.99 490.59 1297.34 490.01 1292.80 489.52 C 1294.03 495.38 1291.90 501.01 1289.46 506.23 C 1287.32 511.26 1285.15 516.28 1283.39 521.45 C 1279.76 513.47 1278.62 504.75 1277.79 496.12 C 1276.47 485.84 1282.70 476.93 1284.99 467.24 C 1283.02 465.64 1281.03 464.09 1279.05 462.54 C 1282.76 452.74 1285.81 442.68 1289.95 433.05 C 1292.88 433.34 1295.66 433.54 1298.68 433.80 C 1299.56 431.74 1300.30 429.62 1301.21 427.57 C 1304.81 427.65 1309.42 428.14 1311.75 424.74 C 1317.89 413.47 1321.02 400.86 1326.27 389.19 C 1330.56 381.83 1335.02 374.03 1334.78 365.19 C 1335.08 361.21 1331.78 358.42 1329.34 355.77 C 1327.68 359.75 1326.18 363.80 1324.76 367.88 C 1321.22 367.09 1317.58 366.90 1313.97 366.99 C 1317.89 357.10 1321.72 347.11 1324.54 336.84 C 1322.10 334.80 1319.99 332.39 1318.66 329.49 C 1317.03 329.01 1315.39 328.61 1313.78 328.15 C 1315.61 326.91 1317.42 325.64 1319.29 324.42 C 1316.02 316.87 1308.30 313.57 1301.58 309.84 C 1302.74 308.63 1303.98 307.46 1305.17 306.24 C 1303.72 302.95 1303.32 299.03 1300.64 296.42 C 1297.97 293.71 1295.29 291.03 1292.53 288.42 C 1293.77 286.58 1295.82 284.79 1295.53 282.35 C 1293.40 280.14 1290.65 278.70 1288.09 277.07 C 1286.84 276.29 1285.63 275.46 1284.46 274.60 M 1386.52 388.49 C 1384.47 393.19 1382.45 397.92 1380.64 402.72 C 1378.41 402.58 1376.18 402.43 1373.97 402.26 C 1372.76 405.08 1371.10 407.84 1370.99 410.98 C 1371.42 414.70 1372.89 418.27 1374.53 421.65 C 1378.79 413.61 1381.64 404.91 1385.87 396.85 C 1386.95 394.81 1389.39 394.14 1391.24 392.98 C 1389.71 391.43 1388.13 389.93 1386.52 388.49 M 1408.40 461.15 C 1407.95 462.54 1408.43 463.03 1409.85 462.60 C 1410.27 461.19 1409.79 460.71 1408.40 461.15 M 1412.14 461.37 C 1410.92 462.19 1412.26 464.31 1413.45 463.22 C 1414.63 462.39 1413.31 460.30 1412.14 461.37 Z" />
<path fill="#1fbf7f" opacity="0.00" d=" M 1314.16 460.60 C 1318.34 460.12 1322.53 459.18 1326.78 459.45 C 1330.23 459.76 1333.10 461.94 1336.03 463.60 C 1341.85 461.07 1347.92 459.11 1354.24 458.26 C 1357.98 464.87 1351.36 472.52 1356.45 478.68 C 1360.56 481.94 1366.44 481.54 1370.95 484.20 C 1376.72 487.74 1382.80 490.86 1388.30 494.83 C 1391.50 497.24 1394.75 501.04 1399.35 499.21 C 1403.62 498.39 1408.02 497.73 1412.20 499.46 C 1413.49 497.97 1414.79 496.49 1416.13 495.04 C 1420.31 498.40 1425.53 500.79 1428.72 505.25 C 1428.17 508.67 1426.04 511.55 1424.53 514.60 C 1420.27 521.80 1416.65 529.35 1412.60 536.66 C 1410.92 539.87 1407.00 540.04 1404.02 541.28 C 1406.11 544.86 1406.09 549.69 1409.67 552.31 C 1411.46 554.22 1415.27 556.19 1413.30 559.28 C 1409.36 567.33 1404.69 575.03 1400.01 582.67 C 1398.32 582.12 1396.63 581.59 1394.95 581.10 C 1395.02 587.99 1394.38 594.97 1392.59 601.64 C 1388.67 613.23 1382.10 623.81 1375.17 633.79 C 1374.30 634.54 1373.45 635.29 1372.61 636.04 C 1371.43 635.43 1370.31 634.83 1369.14 634.28 C 1367.84 633.83 1367.04 634.39 1366.73 635.98 C 1362.78 638.74 1358.63 641.56 1356.79 646.21 C 1354.17 644.93 1351.17 643.07 1351.46 639.72 C 1351.58 637.16 1350.40 634.91 1348.65 633.13 C 1345.87 629.93 1344.80 625.73 1342.88 622.05 C 1337.72 610.82 1328.02 602.57 1322.42 591.62 C 1320.05 586.35 1316.26 581.70 1314.56 576.18 C 1316.07 574.52 1313.43 572.76 1313.19 575.31 C 1306.19 562.44 1297.03 550.88 1289.91 538.07 C 1287.14 532.90 1283.30 527.53 1283.39 521.45 C 1285.15 516.28 1287.32 511.26 1289.46 506.23 C 1291.90 501.01 1294.03 495.38 1292.80 489.52 C 1297.34 490.01 1301.99 490.59 1306.48 489.45 C 1313.97 487.61 1321.70 489.18 1329.26 489.56 C 1330.59 484.20 1333.22 479.32 1335.69 474.42 C 1330.24 473.83 1324.27 473.84 1319.76 470.27 C 1316.36 468.17 1315.35 464.13 1314.16 460.60 M 1324.20 551.83 C 1323.09 553.00 1324.83 555.44 1326.25 554.39 C 1327.30 553.24 1325.51 551.01 1324.20 551.83 M 1322.42 555.10 C 1320.24 559.48 1317.21 564.19 1319.21 569.24 C 1320.44 564.51 1322.27 559.97 1324.99 555.89 C 1324.13 555.58 1323.27 555.32 1322.42 555.10 M 1393.14 578.45 C 1391.50 578.48 1391.09 581.42 1392.86 581.55 C 1394.47 581.51 1394.88 578.57 1393.14 578.45 M 1371.16 632.16 C 1370.24 636.16 1375.15 631.24 1371.16 632.16 Z" />
<path fill="#1fbf7f" opacity="0.00" d=" M 1519.22 491.95 C 1525.01 494.26 1530.71 496.77 1536.38 499.40 C 1531.82 508.48 1525.79 516.79 1519.65 524.82 C 1513.48 524.82 1508.23 520.83 1502.83 518.35 C 1507.99 509.36 1513.99 500.89 1519.22 491.95 Z" />
<path fill="#20bf7f" opacity="0.00" d=" M 1408.40 461.15 C 1409.79 460.71 1410.27 461.19 1409.85 462.60 C 1408.43 463.03 1407.95 462.54 1408.40 461.15 Z" />
<path fill="#209f7f" opacity="0.00" d=" M 1412.14 461.37 C 1413.31 460.30 1414.63 462.39 1413.45 463.22 C 1412.26 464.31 1410.92 462.19 1412.14 461.37 Z" />
<path fill="#1fbf7f" opacity="0.00" d=" M 1486.18 481.71 C 1492.81 483.25 1497.12 488.83 1502.77 492.20 C 1505.46 493.83 1507.52 496.17 1509.88 498.29 C 1504.05 506.79 1498.86 515.70 1493.12 524.24 C 1487.47 521.14 1481.27 518.89 1476.34 514.66 C 1474.11 512.82 1471.55 511.45 1468.98 510.18 C 1474.35 500.48 1480.23 491.07 1486.18 481.71 Z" />
<path fill="#203f7f" opacity="0.00" d=" M 1324.20 551.83 C 1325.51 551.01 1327.30 553.24 1326.25 554.39 C 1324.83 555.44 1323.09 553.00 1324.20 551.83 Z" />
</g>
<g target="30" id="#9f3f7fff">
<path fill="#9f3f7f" opacity="0.00" d=" M 969.50 334.40 C 974.33 330.98 981.06 331.76 985.44 335.54 C 993.52 342.37 1004.34 344.72 1014.69 344.26 C 1015.23 342.62 1015.77 340.99 1016.32 339.35 C 1020.29 341.36 1024.44 344.30 1029.13 343.30 C 1029.60 344.41 1030.53 346.64 1031.00 347.76 C 1035.86 348.05 1039.43 344.20 1042.19 340.71 C 1047.85 340.88 1054.01 343.54 1059.26 340.22 C 1069.43 343.54 1080.83 351.25 1080.50 363.21 C 1078.04 365.24 1077.40 368.26 1077.59 371.29 C 1075.10 370.74 1072.29 369.25 1069.89 370.83 C 1067.94 372.77 1062.09 374.38 1063.99 378.00 C 1065.68 382.99 1072.31 382.02 1076.31 381.85 C 1081.18 381.45 1084.84 385.20 1087.63 388.69 C 1089.80 388.77 1092.17 388.42 1094.17 389.50 C 1096.79 391.67 1097.91 395.53 1096.08 398.57 C 1090.88 408.64 1090.49 420.08 1088.81 431.05 C 1085.63 430.43 1082.43 429.91 1079.36 428.89 C 1078.77 431.10 1078.19 433.32 1077.64 435.55 C 1075.85 435.93 1074.08 436.44 1072.26 436.54 C 1069.69 435.97 1069.69 433.04 1069.23 431.01 C 1054.45 432.02 1039.58 430.91 1024.88 432.89 C 1017.95 432.76 1011.21 435.02 1005.05 438.04 C 999.55 440.34 997.26 446.28 993.09 450.14 C 988.43 453.77 982.66 455.53 977.75 458.73 C 973.92 461.78 973.73 467.20 970.99 471.00 C 968.99 472.52 966.54 473.30 964.42 474.62 C 958.56 477.85 954.32 483.64 947.84 485.79 C 943.04 487.24 940.36 491.81 936.20 494.31 C 931.50 497.35 927.30 501.58 926.23 507.32 C 921.09 509.39 917.19 513.34 913.95 517.73 C 916.91 519.00 919.92 520.23 922.93 521.46 C 923.61 530.00 925.17 538.97 923.62 547.36 C 918.84 551.25 918.16 557.56 917.86 563.35 C 920.52 562.13 923.87 561.37 925.20 558.44 C 926.38 555.94 928.12 553.80 930.50 552.35 C 930.58 555.78 931.09 559.36 931.44 562.81 C 935.74 557.35 932.74 549.55 933.96 543.24 C 937.97 544.57 942.04 545.62 946.19 546.57 C 950.40 547.19 954.26 544.90 958.06 543.45 C 960.17 546.61 963.62 548.31 966.72 550.35 C 970.92 552.75 970.83 558.57 974.75 561.31 C 981.83 566.74 990.65 569.14 998.60 573.03 C 997.12 583.89 999.76 595.62 995.31 605.96 C 997.49 607.12 999.71 608.23 1001.94 609.34 C 1001.26 617.84 1001.78 626.65 999.28 634.89 C 998.27 642.17 991.26 645.68 987.40 651.22 C 986.32 654.93 985.04 658.69 982.30 661.51 C 980.72 666.53 979.54 671.77 978.13 676.88 C 979.06 678.14 980.33 679.08 981.54 680.08 C 981.85 686.64 982.69 693.29 981.65 699.84 C 979.02 707.31 979.44 715.44 976.84 722.94 C 974.57 729.70 976.81 737.58 972.70 743.71 C 969.53 748.52 970.37 754.76 967.87 759.85 C 964.83 763.82 960.26 766.24 957.09 770.09 C 952.99 775.58 946.81 779.29 943.57 785.44 C 942.15 788.04 940.82 790.70 939.26 793.23 C 938.36 787.38 940.34 780.42 936.79 775.21 C 933.46 772.52 928.74 773.59 924.78 773.09 C 924.87 770.33 924.83 767.57 924.71 764.82 C 927.09 763.45 929.65 762.20 931.45 760.06 C 930.20 756.89 928.05 754.22 926.09 751.49 C 927.35 750.44 928.60 749.37 929.96 748.44 C 924.31 746.84 922.57 740.80 919.46 736.52 C 913.72 740.28 908.33 746.23 900.95 745.85 C 897.00 745.62 893.41 747.34 890.12 749.31 C 892.36 752.36 895.20 754.89 898.18 757.21 C 896.42 758.52 894.66 759.82 892.87 761.08 C 897.56 762.00 902.15 763.38 906.70 764.87 C 909.42 765.50 911.44 768.57 911.02 771.27 C 906.96 779.02 897.21 778.89 890.71 783.53 C 887.85 781.75 884.71 780.51 881.80 778.83 C 878.97 783.61 879.58 790.39 874.56 793.67 C 869.51 797.63 862.50 799.81 856.29 797.56 C 853.52 796.48 850.55 796.86 847.68 796.59 C 845.40 795.35 844.23 792.63 841.84 791.60 C 838.67 791.02 835.58 792.33 832.60 793.19 C 835.54 789.48 834.24 783.80 829.41 782.61 C 822.42 781.86 813.93 783.18 810.27 789.94 C 809.09 789.78 807.92 789.64 806.76 789.51 C 806.84 792.81 806.85 796.07 806.77 799.40 C 802.24 800.27 797.65 800.98 793.22 802.27 C 793.60 796.66 795.34 791.30 798.81 786.83 C 801.87 783.51 798.83 777.66 803.09 775.17 C 807.58 772.79 813.50 772.01 816.08 767.05 C 818.02 763.90 815.04 760.86 813.51 758.29 C 809.98 752.08 809.76 744.70 808.03 737.90 C 809.86 736.94 811.57 735.62 813.61 735.14 C 816.46 735.07 819.22 736.19 822.08 736.04 C 823.48 734.67 824.55 733.02 825.70 731.45 C 820.58 730.57 815.40 729.18 811.80 725.21 C 808.32 727.04 804.59 729.57 800.45 727.62 C 793.87 726.20 787.12 723.80 782.33 718.87 C 780.99 715.42 781.39 711.57 781.06 707.94 C 775.09 705.50 768.98 702.90 762.38 703.32 C 762.36 701.95 762.34 700.59 762.34 699.23 C 759.96 698.26 757.67 696.98 755.15 696.48 C 753.15 697.95 751.74 700.02 750.24 701.95 C 745.85 701.66 741.55 702.68 737.29 703.55 C 739.23 696.25 737.80 687.93 743.09 681.81 C 741.32 676.73 745.09 670.55 740.95 666.36 C 738.55 663.45 734.46 663.49 731.06 662.92 C 732.54 660.51 734.06 658.14 735.51 655.72 C 732.94 655.21 730.41 654.54 727.82 654.21 C 733.10 644.07 741.33 635.42 751.88 630.74 C 752.30 627.68 752.73 624.63 753.20 621.58 C 759.73 621.56 766.23 620.60 772.48 618.69 C 778.11 617.06 779.72 609.98 785.46 608.49 C 791.51 607.05 798.00 607.35 803.71 604.55 C 802.01 600.64 798.64 595.00 802.22 591.24 C 806.54 591.91 810.39 594.17 814.51 595.53 C 820.42 597.84 826.74 598.75 832.93 600.00 C 834.40 595.10 834.55 589.97 835.37 584.98 C 838.09 580.86 841.66 577.09 842.16 571.90 C 840.96 571.65 839.77 571.39 838.60 571.13 C 840.01 570.65 842.85 569.69 844.27 569.20 C 841.35 567.42 838.84 565.00 835.67 563.75 C 830.85 563.96 826.64 567.14 821.82 567.53 C 818.31 567.30 815.29 564.88 811.76 564.75 C 806.11 565.53 802.04 569.72 797.31 572.42 C 794.16 574.12 790.36 572.78 787.06 572.84 C 782.53 572.28 778.28 574.32 774.13 575.82 C 773.02 574.19 771.80 572.65 770.74 571.00 C 768.55 571.60 766.33 572.05 764.14 572.64 C 765.27 567.03 765.48 561.30 765.85 555.61 C 758.23 554.24 750.82 552.17 743.45 549.85 C 746.23 546.85 748.37 543.18 751.79 540.81 C 755.31 538.39 759.82 538.33 763.51 536.31 C 765.84 534.32 766.57 531.16 767.79 528.47 C 774.71 525.70 782.16 523.88 788.16 519.24 C 794.51 515.56 800.97 512.03 806.76 507.49 C 804.91 504.43 803.23 501.29 801.42 498.23 C 790.61 498.22 779.47 500.34 768.85 497.67 C 768.73 489.69 774.50 483.65 778.88 477.58 C 782.05 475.64 786.17 476.88 789.74 476.71 C 790.99 473.45 793.07 470.57 794.20 467.28 C 792.37 462.20 787.70 458.97 783.74 455.62 C 792.43 455.19 797.60 447.26 805.21 444.07 C 802.16 439.66 798.71 435.54 795.67 431.14 C 799.87 431.22 803.77 432.84 807.38 434.88 C 808.31 431.96 809.37 429.08 810.57 426.26 C 811.67 422.97 816.32 423.49 817.77 420.38 C 820.32 415.51 824.98 412.44 828.98 408.86 C 832.40 405.64 837.39 406.04 841.73 405.97 C 851.48 406.50 861.22 407.49 870.79 409.43 C 875.00 406.93 877.49 402.02 882.22 400.31 C 886.55 400.05 890.32 402.69 894.46 403.52 C 899.70 405.64 905.43 404.27 910.34 402.01 C 913.98 400.31 916.29 396.76 919.84 394.93 C 923.20 393.46 926.84 395.03 929.93 396.44 C 930.14 388.13 931.20 379.75 935.53 372.46 C 933.92 370.90 932.32 369.33 930.65 367.85 C 933.74 364.17 937.16 360.67 941.37 358.28 C 946.19 356.28 951.46 355.40 956.14 353.05 C 959.92 351.19 961.83 347.24 963.29 343.51 C 964.43 343.39 965.59 343.29 966.77 343.20 C 967.53 340.22 968.31 337.24 969.50 334.40 M 902.11 524.08 C 900.39 524.48 900.87 527.53 902.73 526.76 C 904.37 526.31 903.95 523.32 902.11 524.08 M 893.98 550.00 C 894.01 551.67 894.08 555.03 894.11 556.71 C 895.19 557.19 896.28 557.69 897.38 558.20 C 897.29 555.45 897.22 552.74 897.21 550.02 C 896.40 550.01 894.79 550.00 893.98 550.00 Z" />
<path fill="#9f3f7f" opacity="0.00" d=" M 926.88 520.04 L 927.89 519.98 C 928.27 529.11 928.84 538.26 928.83 547.41 C 926.43 538.49 927.08 529.16 926.88 520.04 Z" />
<path fill="#9f3f7f" opacity="0.00" d=" M 946.49 545.68 C 946.24 541.55 946.25 537.42 946.51 533.32 C 946.72 537.43 946.72 541.56 946.49 545.68 Z" />
</g>
<g target="31" id="#5f3f00fe">
<path fill="#5f3f00" opacity="0.00" d=" M 563.06 453.69 C 569.54 451.47 576.39 449.81 583.29 450.48 C 586.96 450.98 590.51 452.09 594.12 452.92 C 594.54 454.71 594.96 456.51 595.40 458.30 C 601.54 458.16 606.31 461.82 610.02 466.27 C 615.86 466.17 620.94 469.57 626.63 470.35 C 628.88 470.82 631.54 470.76 633.34 472.39 C 636.08 476.41 636.18 481.96 639.81 485.41 C 647.79 489.51 657.51 488.05 665.51 492.23 C 666.35 493.38 666.83 494.74 667.47 496.02 C 673.81 496.47 680.26 496.63 686.49 495.11 C 688.89 494.44 691.14 495.74 693.33 496.55 C 696.67 498.22 700.01 495.32 703.41 495.33 C 711.16 494.54 716.82 501.23 724.25 501.89 C 726.70 502.30 727.93 499.75 729.44 498.34 C 731.99 494.41 737.41 495.73 741.44 495.77 C 750.50 497.47 759.91 495.16 768.85 497.67 C 779.47 500.34 790.61 498.22 801.42 498.23 C 803.23 501.29 804.91 504.43 806.76 507.49 C 800.97 512.03 794.51 515.56 788.16 519.24 C 782.16 523.88 774.71 525.70 767.79 528.47 C 766.57 531.16 765.84 534.32 763.51 536.31 C 759.82 538.33 755.31 538.39 751.79 540.81 C 748.37 543.18 746.23 546.85 743.45 549.85 C 750.82 552.17 758.23 554.24 765.85 555.61 C 765.48 561.30 765.27 567.03 764.14 572.64 C 766.33 572.05 768.55 571.60 770.74 571.00 C 771.80 572.65 773.02 574.19 774.13 575.82 C 778.28 574.32 782.53 572.28 787.06 572.84 C 790.36 572.78 794.16 574.12 797.31 572.42 C 802.04 569.72 806.11 565.53 811.76 564.75 C 815.29 564.88 818.31 567.30 821.82 567.53 C 826.64 567.14 830.85 563.96 835.67 563.75 C 838.84 565.00 841.35 567.42 844.27 569.20 C 842.85 569.69 840.01 570.65 838.60 571.13 C 839.77 571.39 840.96 571.65 842.16 571.90 C 841.66 577.09 838.09 580.86 835.37 584.98 C 834.55 589.97 834.40 595.10 832.93 600.00 C 826.74 598.75 820.42 597.84 814.51 595.53 C 810.39 594.17 806.54 591.91 802.22 591.24 C 798.64 595.00 802.01 600.64 803.71 604.55 C 798.00 607.35 791.51 607.05 785.46 608.49 C 779.72 609.98 778.11 617.06 772.48 618.69 C 766.23 620.60 759.73 621.56 753.20 621.58 C 752.73 624.63 752.30 627.68 751.88 630.74 C 741.33 635.42 733.10 644.07 727.82 654.21 C 730.41 654.54 732.94 655.21 735.51 655.72 C 734.06 658.14 732.54 660.51 731.06 662.92 C 734.46 663.49 738.55 663.45 740.95 666.36 C 745.09 670.55 741.32 676.73 743.09 681.81 C 737.80 687.93 739.23 696.25 737.29 703.55 C 734.04 703.93 730.90 704.33 727.67 704.49 C 724.97 708.69 721.22 712.19 716.26 713.45 C 711.59 714.38 710.58 719.36 709.22 723.18 C 707.26 728.01 710.79 732.59 712.08 737.11 C 703.96 732.84 701.45 723.36 694.70 717.58 C 686.94 720.24 680.44 714.50 675.45 709.27 C 668.77 710.79 660.82 711.66 655.30 706.67 C 650.34 698.92 646.86 690.32 643.18 681.92 C 640.78 677.36 643.24 672.47 644.16 667.90 C 643.82 665.00 642.28 662.35 642.13 659.42 C 642.04 656.47 643.87 653.97 644.50 651.18 C 643.76 645.23 640.28 640.02 639.36 634.17 C 639.66 626.46 641.11 618.58 639.07 610.98 C 637.49 605.56 638.37 599.75 636.59 594.38 C 634.90 591.19 631.12 590.30 628.09 588.91 C 626.86 589.75 625.64 590.59 624.43 591.46 C 616.55 588.65 611.79 580.98 603.83 578.29 C 592.97 574.45 581.46 579.48 570.32 577.43 C 566.95 569.67 562.78 562.26 559.69 554.39 C 556.83 550.31 559.80 546.38 561.57 542.81 C 560.48 540.22 559.38 537.63 558.54 534.97 C 560.70 531.01 563.34 527.29 564.91 523.01 C 566.50 523.65 568.14 524.13 569.75 524.74 C 570.69 524.11 571.63 523.46 572.56 522.82 C 571.20 519.73 569.56 516.63 569.26 513.21 C 572.24 509.25 578.25 508.40 580.14 503.35 C 576.13 498.86 572.64 493.38 573.31 487.12 C 568.37 487.83 562.88 489.35 558.19 486.94 C 556.55 484.55 555.72 481.71 554.45 479.12 C 555.70 474.99 559.11 472.45 562.74 470.40 C 560.98 465.52 559.67 460.50 558.20 455.53 C 559.85 455.01 561.44 454.30 563.06 453.69 Z" />
</g>
<g target="66" id="#1f3f00ff">
<path fill="#1f3f00" opacity="0.00" d=" M 1016.22 543.69 C 1019.54 542.82 1022.91 541.82 1026.09 540.46 C 1027.91 542.77 1029.84 545.01 1031.43 547.52 C 1032.03 552.70 1030.57 558.45 1034.02 562.99 C 1041.01 574.09 1045.35 587.24 1043.61 600.50 C 1043.43 606.24 1040.39 612.70 1044.06 617.97 C 1050.15 629.09 1053.89 641.28 1057.67 653.32 C 1060.66 670.51 1072.53 684.17 1077.57 700.65 C 1078.98 705.96 1081.03 711.16 1084.49 715.51 C 1086.66 717.77 1089.68 718.97 1091.89 721.21 C 1096.25 730.70 1091.81 740.64 1089.90 750.10 C 1085.89 742.13 1079.61 735.71 1072.41 730.59 C 1064.02 726.90 1053.11 725.56 1045.19 731.08 C 1043.07 739.34 1040.19 747.37 1037.44 755.43 C 1034.51 761.20 1037.48 767.33 1041.04 771.95 C 1044.08 775.51 1049.41 777.10 1050.63 782.10 C 1052.61 788.24 1054.25 795.40 1060.13 799.07 C 1062.08 798.57 1064.04 798.04 1066.02 797.48 C 1066.76 803.86 1069.27 809.82 1070.67 816.03 C 1069.87 826.04 1066.12 835.58 1063.55 845.23 C 1062.66 839.26 1061.54 832.97 1058.11 827.87 C 1054.45 823.98 1048.40 824.90 1043.52 824.53 C 1042.94 822.93 1042.36 821.34 1041.79 819.76 C 1039.61 820.58 1037.31 821.15 1035.33 822.40 C 1028.80 830.92 1031.38 843.30 1024.07 851.40 C 1020.62 845.19 1019.53 838.04 1017.97 831.20 C 1015.84 822.73 1018.32 814.15 1019.89 805.84 C 1021.27 799.46 1019.07 792.98 1019.53 786.55 C 1019.66 778.64 1022.23 771.03 1022.61 763.17 C 1020.35 757.01 1013.77 752.44 1014.31 745.31 C 1015.22 737.69 1014.41 729.35 1018.29 722.41 C 1023.10 710.96 1019.93 698.11 1016.79 686.61 C 1015.47 678.47 1017.86 670.34 1017.59 662.19 C 1016.05 655.58 1010.06 651.78 1005.48 647.39 C 1002.41 632.36 1003.24 616.92 1005.14 601.81 C 1003.15 591.79 1002.91 581.52 1004.30 571.40 C 1007.29 569.40 1010.81 568.39 1014.10 566.99 C 1014.70 559.21 1014.68 551.36 1016.22 543.69 Z" />
<path fill="#1f3f00" opacity="0.00" d=" M 1348.65 633.13 C 1350.40 634.91 1351.58 637.16 1351.46 639.72 C 1346.68 646.74 1342.64 654.23 1338.77 661.78 C 1337.97 661.90 1336.37 662.13 1335.57 662.25 C 1335.23 659.91 1334.95 657.42 1336.33 655.34 C 1340.39 647.91 1343.95 640.18 1348.65 633.13 Z" />
<path fill="#1f3f00" opacity="0.00" d=" M 1322.04 697.88 C 1326.69 689.79 1330.12 680.95 1336.21 673.76 C 1333.63 682.84 1328.02 690.59 1323.61 698.83 C 1323.22 698.59 1322.44 698.12 1322.04 697.88 Z" />
<path fill="#1f3f00" opacity="0.00" d=" M 1310.52 757.92 C 1314.17 750.08 1318.34 742.42 1323.71 735.61 C 1324.29 735.98 1325.45 736.72 1326.04 737.09 C 1322.14 744.12 1317.97 751.00 1313.82 757.88 C 1312.99 757.89 1311.35 757.91 1310.52 757.92 Z" />
<path fill="#1f3f00" opacity="0.00" d=" M 1216.13 850.16 C 1219.15 845.58 1222.45 840.71 1228.19 839.54 C 1230.96 848.81 1224.57 857.31 1219.80 864.63 C 1211.53 867.66 1203.64 872.07 1197.87 878.88 C 1196.44 882.26 1193.16 882.27 1190.24 882.01 C 1184.09 890.28 1177.84 898.82 1169.21 904.71 C 1171.62 893.44 1177.07 883.15 1182.14 872.91 C 1189.06 872.68 1188.20 863.64 1193.09 860.65 C 1197.97 857.58 1199.15 851.50 1201.52 846.61 C 1203.21 848.77 1205.08 850.81 1206.57 853.15 C 1209.75 853.00 1214.11 853.33 1216.13 850.16 Z" />
<path fill="#1f3f00" opacity="0.00" d=" M 1154.32 886.24 C 1158.31 887.85 1162.39 889.39 1166.77 889.62 C 1164.34 895.14 1162.52 901.01 1159.29 906.14 C 1155.46 909.63 1149.95 910.60 1146.25 914.23 C 1141.35 920.37 1138.02 927.59 1134.70 934.66 C 1133.18 934.38 1131.66 934.10 1130.16 933.85 C 1130.29 926.49 1133.19 919.28 1137.15 913.17 C 1144.49 905.32 1149.76 895.90 1154.32 886.24 Z" />
<path fill="#1f3f00" opacity="0.00" d=" M 1164.50 932.49 C 1167.37 923.69 1170.37 911.40 1181.43 910.59 C 1179.62 916.84 1176.95 922.93 1173.28 928.30 C 1171.05 930.77 1168.01 932.94 1164.50 932.49 Z" />
<path fill="#1f3f00" opacity="0.00" d=" M 1145.15 944.90 C 1147.57 939.48 1148.99 933.19 1153.82 929.32 C 1151.98 935.09 1149.56 940.67 1146.91 946.11 C 1146.47 945.81 1145.59 945.20 1145.15 944.90 Z" />
<path fill="#1f3f00" opacity="0.00" d=" M 1269.67 810.55 C 1272.50 806.24 1274.74 801.56 1277.76 797.37 C 1271.45 813.11 1261.66 827.17 1251.62 840.73 C 1246.46 846.34 1241.69 852.89 1234.81 856.54 C 1240.27 840.42 1249.89 825.88 1261.94 813.90 C 1264.05 811.88 1267.14 811.79 1269.67 810.55 Z" />
<path fill="#1f3f00" opacity="0.00" d=" M 1156.85 928.76 C 1159.30 925.78 1162.72 923.78 1165.39 920.99 C 1162.37 930.55 1156.83 938.99 1150.11 946.35 C 1151.56 940.23 1153.68 934.20 1156.85 928.76 Z" />
</g>
<g target="79" id="#df7f7fff">
<path fill="#df7f7f" opacity="0.00" d=" M 755.15 696.48 C 757.67 696.98 759.96 698.26 762.34 699.23 C 762.34 700.59 762.36 701.95 762.38 703.32 C 768.98 702.90 775.09 705.50 781.06 707.94 C 781.39 711.57 780.99 715.42 782.33 718.87 C 787.12 723.80 793.87 726.20 800.45 727.62 C 804.59 729.57 808.32 727.04 811.80 725.21 C 815.40 729.18 820.58 730.57 825.70 731.45 C 824.55 733.02 823.48 734.67 822.08 736.04 C 819.22 736.19 816.46 735.07 813.61 735.14 C 811.57 735.62 809.86 736.94 808.03 737.90 C 809.76 744.70 809.98 752.08 813.51 758.29 C 803.53 759.62 795.86 768.09 785.54 767.71 C 779.73 766.52 774.94 770.29 769.91 772.36 C 766.63 773.53 764.92 776.74 763.24 779.55 C 749.47 781.29 735.70 780.69 722.00 778.80 C 717.22 768.44 712.91 757.86 708.71 747.26 C 706.36 743.10 713.42 740.99 712.08 737.11 C 710.79 732.59 707.26 728.01 709.22 723.18 C 710.58 719.36 711.59 714.38 716.26 713.45 C 721.22 712.19 724.97 708.69 727.67 704.49 C 730.90 704.33 734.04 703.93 737.29 703.55 C 741.55 702.68 745.85 701.66 750.24 701.95 C 751.74 700.02 753.15 697.95 755.15 696.48 Z" />
</g>
<g target="28" id="#1fbf00fe">
<path fill="#1fbf00" opacity="0.00" d=" M 900.95 745.85 C 908.33 746.23 913.72 740.28 919.46 736.52 C 922.57 740.80 924.31 746.84 929.96 748.44 C 928.60 749.37 927.35 750.44 926.09 751.49 C 928.05 754.22 930.20 756.89 931.45 760.06 C 929.65 762.20 927.09 763.45 924.71 764.82 C 924.83 767.57 924.87 770.33 924.78 773.09 C 928.74 773.59 933.46 772.52 936.79 775.21 C 940.34 780.42 938.36 787.38 939.26 793.23 C 939.48 798.42 933.73 800.54 931.06 804.10 C 923.72 809.88 921.40 819.04 917.89 827.19 C 913.14 832.44 911.35 839.45 906.89 844.87 C 901.27 851.86 895.99 859.25 888.65 864.59 C 883.19 871.81 875.15 876.42 869.35 883.34 C 865.40 887.44 862.44 892.46 857.82 895.91 C 853.68 898.72 854.17 905.37 849.12 907.06 C 841.14 909.86 836.33 917.59 832.95 924.88 C 830.54 929.84 828.18 936.70 821.59 936.92 C 820.16 939.83 819.10 943.35 816.06 945.01 C 808.84 949.01 802.62 954.67 794.91 957.80 C 787.03 960.79 781.40 968.38 772.80 969.59 C 765.32 969.78 758.51 973.35 751.34 975.06 C 750.17 973.47 749.01 971.89 747.85 970.32 C 747.00 971.11 746.17 971.93 745.36 972.77 C 743.07 967.02 736.05 967.94 732.27 963.78 C 732.75 965.38 733.23 966.98 733.71 968.61 C 728.36 965.87 726.00 960.11 722.65 955.46 C 722.71 956.58 722.78 957.70 722.86 958.84 C 721.24 958.28 719.63 957.72 718.02 957.18 C 718.26 958.60 718.49 960.03 718.74 961.48 C 716.25 961.81 713.76 962.18 711.26 962.46 C 710.25 960.91 709.21 959.40 708.14 957.92 C 708.08 959.25 708.06 960.58 708.05 961.94 C 707.58 961.46 706.65 960.52 706.18 960.05 C 704.40 962.73 702.75 965.57 700.36 967.78 C 700.42 968.88 700.50 969.98 700.63 971.10 C 699.39 970.33 698.15 969.55 696.92 968.80 C 696.11 971.42 695.35 974.05 694.66 976.72 C 693.09 975.61 691.53 974.52 689.96 973.46 C 686.86 974.80 683.73 973.86 681.12 971.95 C 681.88 974.12 682.72 976.28 683.49 978.47 C 680.99 981.20 679.06 984.39 677.10 987.52 C 673.34 982.30 669.11 977.32 666.74 971.28 C 665.39 967.16 667.05 962.35 664.36 958.68 C 663.51 957.31 662.57 956.00 661.67 954.70 C 667.02 950.70 673.93 950.32 680.38 950.57 C 682.64 948.67 685.05 946.76 685.91 943.74 C 688.43 938.70 691.70 933.96 693.31 928.54 C 693.32 924.34 691.54 920.21 692.96 915.99 C 693.80 909.43 697.91 903.67 697.74 896.91 C 698.19 887.44 697.81 877.55 693.29 868.99 C 698.06 866.38 703.52 866.14 708.72 864.99 C 715.27 862.47 717.66 855.32 723.25 851.52 C 732.13 860.49 734.70 873.08 738.49 884.60 C 744.18 879.17 747.21 871.86 750.17 864.75 C 753.22 864.14 757.39 864.39 759.13 861.23 C 759.84 857.78 759.04 854.05 760.68 850.79 C 761.85 847.22 765.99 846.73 768.58 844.62 C 772.89 841.49 771.44 834.57 776.22 831.90 C 779.78 829.97 781.38 826.21 781.89 822.37 C 783.81 820.78 785.77 819.23 787.74 817.70 C 787.14 812.06 787.45 805.24 793.22 802.27 C 797.65 800.98 802.24 800.27 806.77 799.40 C 806.85 796.07 806.84 792.81 806.76 789.51 C 807.92 789.64 809.09 789.78 810.27 789.94 C 813.93 783.18 822.42 781.86 829.41 782.61 C 834.24 783.80 835.54 789.48 832.60 793.19 C 835.58 792.33 838.67 791.02 841.84 791.60 C 844.23 792.63 845.40 795.35 847.68 796.59 C 850.55 796.86 853.52 796.48 856.29 797.56 C 862.50 799.81 869.51 797.63 874.56 793.67 C 879.58 790.39 878.97 783.61 881.80 778.83 C 884.71 780.51 887.85 781.75 890.71 783.53 C 897.21 778.89 906.96 779.02 911.02 771.27 C 911.44 768.57 909.42 765.50 906.70 764.87 C 902.15 763.38 897.56 762.00 892.87 761.08 C 894.66 759.82 896.42 758.52 898.18 757.21 C 895.20 754.89 892.36 752.36 890.12 749.31 C 893.41 747.34 897.00 745.62 900.95 745.85 M 864.15 868.40 C 863.30 872.38 868.14 867.57 864.15 868.40 Z" />
<path fill="#168600" opacity="0.71" d=" M 722.91 959.86 C 725.76 963.37 728.74 966.94 730.22 971.29 C 726.78 968.21 724.73 964.01 722.91 959.86 Z" />
<path fill="#157f00" opacity="0.67" d=" M 701.40 972.15 C 702.79 971.70 703.28 972.18 702.85 973.60 C 701.44 974.02 700.96 973.54 701.40 972.15 Z" />
</g>
</svg>
